<?xml version="1.0" standalone="no"?>
 <!DOCTYPE svg PUBLIC "-//W3C//DTD SVG 1.1//EN" 
 "http://www.w3.org/Graphics/SVG/1.1/DTD/svg11.dtd"> 
<svg
  xmlns:svg="http://www.w3.org/2000/svg"
  xmlns="http://www.w3.org/2000/svg"
  xmlns:xlink="http://www.w3.org/1999/xlink"
  version="1.1"
  width="139.9794mm" height="99.9998mm" viewBox="0.0000 0.0000 139.9794 99.9998">
<title>SVG Image created as chocowi36-brd.svg date 2024/11/18 14:36:57 </title>
  <desc>Image generated by PCBNEW </desc>
<g style="fill:#000000; fill-opacity:1.0000;stroke:#000000; stroke-opacity:1.0000;
stroke-linecap:round; stroke-linejoin:round;"
 transform="translate(0 0) scale(1 1)">
</g>
<g style="fill:none; 
stroke:#000000; stroke-width:0.1500; stroke-opacity:1; 
stroke-linecap:round; stroke-linejoin:round;">
<path d="M80.1100 80.9900
L95.4500 85.1000
" />
<path d="M109.5175 14.2100 A1.6375 1.6375 0.0 0 0 108.3100 12.6300" />
<path d="M16.4471 16.8109
L42.4800 7.3600
" />
<path d="M53.3883 70.4601 A3.1145 3.1145 0.0 0 0 51.0300 69.3800" />
<path d="M53.3882 70.4601
L62.2400 79.9700
" />
<path d="M130.8470 20.5500
L130.8000 68.1500
" />
<path d="M64.6000 80.9745
L80.1100 80.9900
" />
<path d="M16.4471 16.8109 A1.8028 1.8028 0.0 0 0 15.1872 18.5300" />
<path d="M95.4500 85.1000
L113.3898 95.4068
" />
<path d="M15.2000 68.7456 A0.6093 0.6093 0.0 0 0 15.8076 69.4000" />
<path d="M130.3363 19.8987
L109.9796 19.8987
" />
<path d="M130.8471 20.5500 A0.6908 0.6908 0.0 0 0 130.3363 19.8987" />
<path d="M15.1872 18.5300
L15.2000 68.7456
" />
<path d="M62.2400 79.9700 A3.2745 3.2745 0.0 0 0 64.6000 80.9745" />
<path d="M115.2852 95.0099
L130.8000 68.1500
" />
<path d="M109.5010 19.3900 A0.4991 0.4991 0.0 0 0 109.9796 19.8987" />
<path d="M113.3572 95.3893 A1.3868 1.3868 0.0 0 0 115.2852 95.0099" />
<path d="M108.3100 12.6300
L88.4000 7.3400
" />
<path d="M109.5010 19.3900
L109.5175 14.2100
" />
<path d="M42.4800 7.3600
L88.4000 7.3400
" />
<path d="M51.0300 69.3800
L15.8076 69.4000
" />
</g> 
</svg>
