999
"DXF R12 Output" (www.mydxf.blogspot.com)
 0 
SECTION
 2 
HEADER
 9 
$ACADVER
 1 
AC1009
 9 
$EXTMIN
 10 
 0 
 20 
 0 
 9 
$EXTMAX
 10 
 8.5 
 20 
 11 
 0 
ENDSEC
 0 
SECTION
 2 
ENTITIES
0
LINE
8
Layer 1
10
80.110000
20
19.009800
11
95.450000
21
14.899800
0
LINE
8
Layer 1
10
109.517000
20
85.789800
11
109.428639
21
86.320968
0
LINE
8
Layer 1
10
109.428639
20
86.320968
11
109.180752
21
86.783960
0
LINE
8
Layer 1
10
109.180752
20
86.783960
11
108.799239
21
87.144872
0
LINE
8
Layer 1
10
108.799239
20
87.144872
11
108.310000
21
87.369800
0
LINE
8
Layer 1
10
16.447100
20
83.188900
11
42.480000
21
92.639800
0
LINE
8
Layer 1
10
53.388300
20
29.539700
11
52.326943
21
30.336940
0
LINE
8
Layer 1
10
52.326943
20
30.336940
11
51.030000
21
30.619800
0
LINE
8
Layer 1
10
53.388200
20
29.539700
11
62.240000
21
20.029800
0
LINE
8
Layer 1
10
130.847000
20
79.449800
11
130.800000
21
31.849800
0
LINE
8
Layer 1
10
64.600000
20
19.025300
11
80.110000
21
19.009800
0
LINE
8
Layer 1
10
16.447100
20
83.188900
11
15.933834
21
82.930972
0
LINE
8
Layer 1
10
15.933834
20
82.930972
11
15.535901
21
82.535473
0
LINE
8
Layer 1
10
15.535901
20
82.535473
11
15.278593
21
82.036912
0
LINE
8
Layer 1
10
15.278593
20
82.036912
11
15.187200
21
81.469800
0
LINE
8
Layer 1
10
95.450000
20
14.899800
11
113.390000
21
4.593000
0
LINE
8
Layer 1
10
15.200000
20
31.254200
11
15.361118
21
30.794522
0
LINE
8
Layer 1
10
15.361118
20
30.794522
11
15.807600
21
30.599800
0
LINE
8
Layer 1
10
130.336000
20
80.101100
11
109.980000
21
80.101100
0
LINE
8
Layer 1
10
130.847000
20
79.449800
11
130.699866
21
79.860472
0
LINE
8
Layer 1
10
130.699866
20
79.860472
11
130.336000
21
80.101100
0
LINE
8
Layer 1
10
15.187200
20
81.469800
11
15.200000
21
31.254200
0
LINE
8
Layer 1
10
62.240000
20
20.029800
11
63.317556
21
19.286866
0
LINE
8
Layer 1
10
63.317556
20
19.286866
11
64.600000
21
19.025300
0
LINE
8
Layer 1
10
115.285000
20
4.989900
11
130.800000
21
31.849800
0
LINE
8
Layer 1
10
109.501000
20
80.609800
11
109.636635
21
80.257649
0
LINE
8
Layer 1
10
109.636635
20
80.257649
11
109.980000
21
80.101100
0
LINE
8
Layer 1
10
113.357000
20
4.610500
11
113.857388
21
4.401189
0
LINE
8
Layer 1
10
113.857388
20
4.401189
11
114.399789
21
4.399819
0
LINE
8
Layer 1
10
114.399789
20
4.399819
11
114.901228
21
4.606600
0
LINE
8
Layer 1
10
114.901228
20
4.606600
11
115.285000
21
4.989900
0
LINE
8
Layer 1
10
108.310000
20
87.369800
11
88.400000
21
92.659800
0
LINE
8
Layer 1
10
109.501000
20
80.609800
11
109.517000
21
85.789800
0
LINE
8
Layer 1
10
42.480000
20
92.639800
11
88.400000
21
92.659800
0
LINE
8
Layer 1
10
51.030000
20
30.619800
11
15.807600
21
30.599800
 0 
ENDSEC
 0 
EOF