<?xml version="1.0" standalone="no"?>
 <!DOCTYPE svg PUBLIC "-//W3C//DTD SVG 1.1//EN" 
 "http://www.w3.org/Graphics/SVG/1.1/DTD/svg11.dtd"> 
<svg
  xmlns:svg="http://www.w3.org/2000/svg"
  xmlns="http://www.w3.org/2000/svg"
  xmlns:xlink="http://www.w3.org/1999/xlink"
  version="1.1"
  width="113.1824mm" height="88.4174mm" viewBox="0.0000 0.0000 113.1824 88.4174">
<title>SVG Image created as chocowi36-brd.svg date 2024/09/03 12:29:58 </title>
  <desc>Image generated by PCBNEW </desc>
<g style="fill:#000000; fill-opacity:1.0000;stroke:#000000; stroke-opacity:1.0000;
stroke-linecap:round; stroke-linejoin:round;"
 transform="translate(0 0) scale(1 1)">
</g>
<g style="fill:none; 
stroke:#000000; stroke-width:0.1500; stroke-opacity:1; 
stroke-linecap:round; stroke-linejoin:round;">
<text x="104.0578" y="14.7150"
textLength="3.2500" font-size="1.3333" lengthAdjust="spacingAndGlyphs"
text-anchor="middle" opacity="0" stroke-opacity="0">USB</text>
<g class="stroked-text"><desc>USB</desc>
<path d="M102.7959 13.5848
L102.7959 14.3943
" />
<path d="M102.7959 14.3943
L102.8435 14.4896
" />
<path d="M102.8435 14.4896
L102.8911 14.5372
" />
<path d="M102.8911 14.5372
L102.9863 14.5848
" />
<path d="M102.9863 14.5848
L103.1768 14.5848
" />
<path d="M103.1768 14.5848
L103.2721 14.5372
" />
<path d="M103.2721 14.5372
L103.3197 14.4896
" />
<path d="M103.3197 14.4896
L103.3673 14.3943
" />
<path d="M103.3673 14.3943
L103.3673 13.5848
" />
<path d="M103.7959 14.5372
L103.9387 14.5848
" />
<path d="M103.9387 14.5848
L104.1768 14.5848
" />
<path d="M104.1768 14.5848
L104.2721 14.5372
" />
<path d="M104.2721 14.5372
L104.3197 14.4896
" />
<path d="M104.3197 14.4896
L104.3673 14.3943
" />
<path d="M104.3673 14.3943
L104.3673 14.2991
" />
<path d="M104.3673 14.2991
L104.3197 14.2039
" />
<path d="M104.3197 14.2039
L104.2721 14.1562
" />
<path d="M104.2721 14.1562
L104.1768 14.1086
" />
<path d="M104.1768 14.1086
L103.9863 14.0610
" />
<path d="M103.9863 14.0610
L103.8911 14.0134
" />
<path d="M103.8911 14.0134
L103.8435 13.9658
" />
<path d="M103.8435 13.9658
L103.7959 13.8705
" />
<path d="M103.7959 13.8705
L103.7959 13.7753
" />
<path d="M103.7959 13.7753
L103.8435 13.6801
" />
<path d="M103.8435 13.6801
L103.8911 13.6324
" />
<path d="M103.8911 13.6324
L103.9863 13.5848
" />
<path d="M103.9863 13.5848
L104.2244 13.5848
" />
<path d="M104.2244 13.5848
L104.3673 13.6324
" />
<path d="M105.1292 14.0610
L105.2721 14.1086
" />
<path d="M105.2721 14.1086
L105.3197 14.1562
" />
<path d="M105.3197 14.1562
L105.3673 14.2515
" />
<path d="M105.3673 14.2515
L105.3673 14.3943
" />
<path d="M105.3673 14.3943
L105.3197 14.4896
" />
<path d="M105.3197 14.4896
L105.2721 14.5372
" />
<path d="M105.2721 14.5372
L105.1768 14.5848
" />
<path d="M105.1768 14.5848
L104.7959 14.5848
" />
<path d="M104.7959 14.5848
L104.7959 13.5848
" />
<path d="M104.7959 13.5848
L105.1292 13.5848
" />
<path d="M105.1292 13.5848
L105.2244 13.6324
" />
<path d="M105.2244 13.6324
L105.2721 13.6801
" />
<path d="M105.2721 13.6801
L105.3197 13.7753
" />
<path d="M105.3197 13.7753
L105.3197 13.8705
" />
<path d="M105.3197 13.8705
L105.2721 13.9658
" />
<path d="M105.2721 13.9658
L105.2244 14.0134
" />
<path d="M105.2244 14.0134
L105.1292 14.0610
" />
<path d="M105.1292 14.0610
L104.7959 14.0610
" />
</g><text x="101.5678" y="13.4250"
textLength="3.2500" font-size="1.3333" lengthAdjust="spacingAndGlyphs"
text-anchor="middle" opacity="0" stroke-opacity="0">USB</text>
<g class="stroked-text"><desc>USB</desc>
<path d="M100.3059 12.2948
L100.3059 13.1043
" />
<path d="M100.3059 13.1043
L100.3535 13.1996
" />
<path d="M100.3535 13.1996
L100.4011 13.2472
" />
<path d="M100.4011 13.2472
L100.4963 13.2948
" />
<path d="M100.4963 13.2948
L100.6868 13.2948
" />
<path d="M100.6868 13.2948
L100.7821 13.2472
" />
<path d="M100.7821 13.2472
L100.8297 13.1996
" />
<path d="M100.8297 13.1996
L100.8773 13.1043
" />
<path d="M100.8773 13.1043
L100.8773 12.2948
" />
<path d="M101.3059 13.2472
L101.4487 13.2948
" />
<path d="M101.4487 13.2948
L101.6868 13.2948
" />
<path d="M101.6868 13.2948
L101.7821 13.2472
" />
<path d="M101.7821 13.2472
L101.8297 13.1996
" />
<path d="M101.8297 13.1996
L101.8773 13.1043
" />
<path d="M101.8773 13.1043
L101.8773 13.0091
" />
<path d="M101.8773 13.0091
L101.8297 12.9139
" />
<path d="M101.8297 12.9139
L101.7821 12.8662
" />
<path d="M101.7821 12.8662
L101.6868 12.8186
" />
<path d="M101.6868 12.8186
L101.4963 12.7710
" />
<path d="M101.4963 12.7710
L101.4011 12.7234
" />
<path d="M101.4011 12.7234
L101.3535 12.6758
" />
<path d="M101.3535 12.6758
L101.3059 12.5805
" />
<path d="M101.3059 12.5805
L101.3059 12.4853
" />
<path d="M101.3059 12.4853
L101.3535 12.3901
" />
<path d="M101.3535 12.3901
L101.4011 12.3424
" />
<path d="M101.4011 12.3424
L101.4963 12.2948
" />
<path d="M101.4963 12.2948
L101.7344 12.2948
" />
<path d="M101.7344 12.2948
L101.8773 12.3424
" />
<path d="M102.6392 12.7710
L102.7821 12.8186
" />
<path d="M102.7821 12.8186
L102.8297 12.8662
" />
<path d="M102.8297 12.8662
L102.8773 12.9615
" />
<path d="M102.8773 12.9615
L102.8773 13.1043
" />
<path d="M102.8773 13.1043
L102.8297 13.1996
" />
<path d="M102.8297 13.1996
L102.7821 13.2472
" />
<path d="M102.7821 13.2472
L102.6868 13.2948
" />
<path d="M102.6868 13.2948
L102.3059 13.2948
" />
<path d="M102.3059 13.2948
L102.3059 12.2948
" />
<path d="M102.3059 12.2948
L102.6392 12.2948
" />
<path d="M102.6392 12.2948
L102.7344 12.3424
" />
<path d="M102.7344 12.3424
L102.7821 12.3901
" />
<path d="M102.7821 12.3901
L102.8297 12.4853
" />
<path d="M102.8297 12.4853
L102.8297 12.5805
" />
<path d="M102.8297 12.5805
L102.7821 12.6758
" />
<path d="M102.7821 12.6758
L102.7344 12.7234
" />
<path d="M102.7344 12.7234
L102.6392 12.7710
" />
<path d="M102.6392 12.7710
L102.3059 12.7710
" />
</g><circle cx="75.4378" cy="3.7350" r="2.2000" /> 
<circle cx="28.7878" cy="57.7350" r="2.2000" /> 
<circle cx="103.4478" cy="64.0650" r="2.2000" /> 
<path style="fill:none; 
stroke:#000000; stroke-width:0.1000; stroke-opacity:1; 
stroke-linecap:round; stroke-linejoin:round;fill:none"
d="M 100.5078,11.6150
107.6078,11.6150
107.6078,16.7150
100.5078,16.7150
Z" /> 
<path style="fill:none; 
stroke:#000000; stroke-width:0.2000; stroke-opacity:1; 
stroke-linecap:round; stroke-linejoin:round;fill:none"
d="M 112.9478,13.1350
95.1678,13.1350
95.1678,46.1550
112.9478,46.1550
Z" /> 
<path style="fill:none; 
stroke:#000000; stroke-width:0.1000; stroke-opacity:1; 
stroke-linecap:round; stroke-linejoin:round;fill:none"
d="M 98.0178,15.4250
105.1178,15.4250
105.1178,10.3250
98.0178,10.3250
Z" /> 
<path style="fill:none; 
stroke:#000000; stroke-width:0.2000; stroke-opacity:1; 
stroke-linecap:round; stroke-linejoin:round;fill:none"
d="M 110.4578,44.8650
92.6778,44.8650
92.6778,11.8450
110.4578,11.8450
Z" /> 
</g>
<g style="fill:none; 
stroke:#000000; stroke-width:0.1500; stroke-opacity:1; 
stroke-linecap:round; stroke-linejoin:round;">
<circle cx="15.3878" cy="7.7550" r="2.2000" /> 
<path d="M64.9978 73.7250
L80.3378 77.8350
" />
<path d="M94.4052 6.9450 A1.6375 1.6375 0.0 0 0 93.1978 5.3650" />
<path d="M1.3349 9.5459
L27.3678 0.0950
" />
<path d="M38.2760 63.1951 A3.1145 3.1145 0.0 0 0 35.9178 62.1150" />
<path d="M38.2760 63.1951
L47.1278 72.7050
" />
<path d="M113.1278 13.2866
L113.1123 65.7830
" />
<path d="M49.4878 73.7095
L64.9978 73.7250
" />
<path d="M1.3349 9.5459 A1.8028 1.8028 0.0 0 0 0.0750 11.2650" />
<path d="M80.3378 77.8350
L98.2776 88.1418
" />
<path d="M0.0878 61.4806 A0.6093 0.6093 0.0 0 0 0.6953 62.1350" />
<path d="M112.6278 12.6337
L94.8674 12.6337
" />
<path d="M113.1277 13.2866 A0.6760 0.6760 0.0 0 0 112.6278 12.6337" />
<path d="M0.0750 11.2650
L0.0878 61.4806
" />
<path d="M47.1278 72.7050 A3.2745 3.2745 0.0 0 0 49.4878 73.7095" />
<path d="M100.1730 87.7449
L113.1123 65.7830
" />
<path d="M94.3888 12.1250 A0.4991 0.4991 0.0 0 0 94.8674 12.6337" />
<path d="M98.2450 88.1243 A1.3868 1.3868 0.0 0 0 100.1730 87.7449" />
<path d="M93.1978 5.3650
L73.2878 0.0750
" />
<path d="M94.3888 12.1250
L94.4052 6.9450
" />
<path d="M27.3678 0.0950
L73.2878 0.0750
" />
<path d="M35.9178 62.1150
L0.6953 62.1350
" />
</g> 
</svg>
