999
"DXF R12 Output" (www.mydxf.blogspot.com)
 0 
SECTION
 2 
HEADER
 9 
$ACADVER
 1 
AC1009
 9 
$EXTMIN
 10 
 0 
 20 
 0 
 9 
$EXTMAX
 10 
 8.5 
 20 
 11 
 0 
ENDSEC
 0 
SECTION
 2 
ENTITIES
0
LINE
8
Layer 1
10
112.568000
20
30.826400
11
109.270000
21
30.827700
0
LINE
8
Layer 1
10
113.046000
20
30.317700
11
112.910723
21
30.669513
0
LINE
8
Layer 1
10
112.910723
20
30.669513
11
112.568000
21
30.826400
0
LINE
8
Layer 1
10
108.798000
20
41.314300
11
108.791000
21
31.336400
0
LINE
8
Layer 1
10
108.791000
20
31.336400
11
108.926635
21
30.984249
0
LINE
8
Layer 1
10
108.926635
20
30.984249
11
109.270000
21
30.827700
0
LINE
8
Layer 1
10
108.798000
20
41.314300
11
108.662365
21
41.666451
0
LINE
8
Layer 1
10
108.662365
20
41.666451
11
108.319000
21
41.823000
0
LINE
8
Layer 1
10
92.389800
20
41.826400
11
108.319000
21
41.823000
0
LINE
8
Layer 1
10
91.911200
20
42.335000
11
91.891100
21
75.457700
0
LINE
8
Layer 1
10
91.911200
20
42.335000
11
92.046727
21
41.983049
0
LINE
8
Layer 1
10
92.046727
20
41.983049
11
92.389800
21
41.826400
0
LINE
8
Layer 1
10
92.399800
20
75.936300
11
93.735900
21
75.936300
0
LINE
8
Layer 1
10
64.997800
20
14.836400
11
80.337800
21
10.726400
0
LINE
8
Layer 1
10
94.405200
20
81.616400
11
94.316754
21
82.147607
0
LINE
8
Layer 1
10
94.316754
20
82.147607
11
94.068762
21
82.610599
0
LINE
8
Layer 1
10
94.068762
20
82.610599
11
93.687140
21
82.971466
0
LINE
8
Layer 1
10
93.687140
20
82.971466
11
93.197800
21
83.196300
0
LINE
8
Layer 1
10
1.334900
20
79.015400
11
27.367800
21
88.466300
0
LINE
8
Layer 1
10
38.276000
20
25.366200
11
37.214702
21
26.163474
0
LINE
8
Layer 1
10
37.214702
20
26.163474
11
35.917800
21
26.446400
0
LINE
8
Layer 1
10
38.276000
20
25.366200
11
47.127800
21
15.856400
0
LINE
8
Layer 1
10
113.046000
20
30.317700
11
113.048000
21
22.778200
0
LINE
8
Layer 1
10
49.487800
20
14.851800
11
64.997800
21
14.836400
0
LINE
8
Layer 1
10
1.334900
20
79.015400
11
0.821655
21
78.757487
0
LINE
8
Layer 1
10
0.821655
20
78.757487
11
0.423731
21
78.362013
0
LINE
8
Layer 1
10
0.423731
20
78.362013
11
0.166416
21
77.863482
0
LINE
8
Layer 1
10
0.166416
20
77.863482
11
0.075000
21
77.296400
0
LINE
8
Layer 1
10
80.337800
20
10.726400
11
98.277600
21
0.419600
0
LINE
8
Layer 1
10
0.087800
20
27.080800
11
0.248884
21
26.621159
0
LINE
8
Layer 1
10
0.248884
20
26.621159
11
0.695300
21
26.426400
0
LINE
8
Layer 1
10
93.735900
20
75.936400
11
94.147100
21
76.075662
0
LINE
8
Layer 1
10
94.147100
20
76.075662
11
94.388800
21
76.436300
0
LINE
8
Layer 1
10
0.075000
20
77.296400
11
0.087800
21
27.080800
0
LINE
8
Layer 1
10
47.127800
20
15.856400
11
48.205345
21
15.113412
0
LINE
8
Layer 1
10
48.205345
20
15.113412
11
49.487800
21
14.851800
0
LINE
8
Layer 1
10
100.173000
20
0.816500
11
113.048000
21
22.778200
0
LINE
8
Layer 1
10
92.399800
20
75.936300
11
92.047784
21
75.800808
0
LINE
8
Layer 1
10
92.047784
20
75.800808
11
91.891100
21
75.457700
0
LINE
8
Layer 1
10
98.245000
20
0.437100
11
98.745388
21
0.227789
0
LINE
8
Layer 1
10
98.745388
20
0.227789
11
99.287789
21
0.226419
0
LINE
8
Layer 1
10
99.287789
20
0.226419
11
99.789228
21
0.433200
0
LINE
8
Layer 1
10
99.789228
20
0.433200
11
100.173000
21
0.816500
0
LINE
8
Layer 1
10
93.197800
20
83.196300
11
73.287800
21
88.486400
0
LINE
8
Layer 1
10
94.388800
20
76.436300
11
94.405200
21
81.616400
0
LINE
8
Layer 1
10
27.367800
20
88.466300
11
73.287800
21
88.486400
0
LINE
8
Layer 1
10
35.917800
20
26.446400
11
0.695300
21
26.426400
0
LINE
8
Layer 1
10
86.069100
20
10.482100
11
92.815100
21
22.166500
0
LINE
8
Layer 1
10
92.861100
20
22.238100
11
104.546000
21
15.492100
0
LINE
8
Layer 1
10
86.045600
20
10.433300
11
97.730000
21
3.687300
0
LINE
8
Layer 1
10
97.785400
20
3.775400
11
104.531000
21
15.459800
0
LINE
8
Layer 1
10
68.349800
20
16.159600
11
71.841800
21
29.191900
0
LINE
8
Layer 1
10
71.867600
20
29.273000
11
84.899900
21
25.781000
0
LINE
8
Layer 1
10
68.339700
20
16.106400
11
81.371900
21
12.614400
0
LINE
8
Layer 1
10
81.402700
20
12.713900
11
84.894700
21
25.746100
0
LINE
8
Layer 1
10
50.337800
20
17.580400
11
50.337800
21
31.072300
0
LINE
8
Layer 1
10
50.341800
20
31.157400
11
63.833800
21
31.157400
0
LINE
8
Layer 1
10
50.341800
20
17.526400
11
63.833800
21
17.526400
0
LINE
8
Layer 1
10
63.837800
20
17.630400
11
63.837800
21
31.122400
0
LINE
8
Layer 1
10
76.077800
20
33.522400
11
76.077800
21
47.014300
0
LINE
8
Layer 1
10
76.081800
20
47.099400
11
89.573800
21
47.099400
0
LINE
8
Layer 1
10
76.081800
20
33.468400
11
89.573800
21
33.468400
0
LINE
8
Layer 1
10
89.577800
20
33.572300
11
89.577800
21
47.064400
0
LINE
8
Layer 1
10
58.091800
20
35.930400
11
58.091800
21
49.422400
0
LINE
8
Layer 1
10
58.095800
20
49.507400
11
71.587800
21
49.507400
0
LINE
8
Layer 1
10
58.095800
20
35.876400
11
71.587800
21
35.876400
0
LINE
8
Layer 1
10
71.591800
20
35.980400
11
71.591800
21
49.472400
0
LINE
8
Layer 1
10
40.047800
20
38.322300
11
40.047800
21
51.814400
0
LINE
8
Layer 1
10
40.051800
20
51.899400
11
53.543800
21
51.899400
0
LINE
8
Layer 1
10
40.051800
20
38.268400
11
53.543800
21
38.268400
0
LINE
8
Layer 1
10
53.547800
20
38.372400
11
53.547800
21
51.864400
0
LINE
8
Layer 1
10
22.007800
20
35.952400
11
22.007800
21
49.444300
0
LINE
8
Layer 1
10
22.011800
20
49.529300
11
35.503800
21
49.529300
0
LINE
8
Layer 1
10
22.011800
20
35.898300
11
35.503800
21
35.898300
0
LINE
8
Layer 1
10
35.507800
20
36.002300
11
35.507800
21
49.494400
0
LINE
8
Layer 1
10
3.989800
20
29.412400
11
3.989800
21
42.904300
0
LINE
8
Layer 1
10
3.993800
20
42.989400
11
17.485800
21
42.989400
0
LINE
8
Layer 1
10
3.993800
20
29.358400
11
17.485800
21
29.358400
0
LINE
8
Layer 1
10
17.489800
20
29.462300
11
17.489800
21
42.954400
0
LINE
8
Layer 1
10
76.077800
20
50.540400
11
76.077800
21
64.032400
0
LINE
8
Layer 1
10
76.081800
20
64.117400
11
89.573800
21
64.117400
0
LINE
8
Layer 1
10
76.081800
20
50.486400
11
89.573800
21
50.486400
0
LINE
8
Layer 1
10
89.577800
20
50.590300
11
89.577800
21
64.082400
0
LINE
8
Layer 1
10
58.091800
20
52.948400
11
58.091800
21
66.440400
0
LINE
8
Layer 1
10
58.095800
20
66.525400
11
71.587800
21
66.525400
0
LINE
8
Layer 1
10
58.095800
20
52.894400
11
71.587800
21
52.894400
0
LINE
8
Layer 1
10
71.591800
20
52.998400
11
71.591800
21
66.490400
0
LINE
8
Layer 1
10
40.047800
20
55.340300
11
40.047800
21
68.832400
0
LINE
8
Layer 1
10
40.051800
20
68.917400
11
53.543800
21
68.917400
0
LINE
8
Layer 1
10
40.051800
20
55.286400
11
53.543800
21
55.286400
0
LINE
8
Layer 1
10
53.547800
20
55.390400
11
53.547800
21
68.882400
0
LINE
8
Layer 1
10
22.007800
20
52.970400
11
22.007800
21
66.462300
0
LINE
8
Layer 1
10
22.011800
20
66.547400
11
35.503800
21
66.547400
0
LINE
8
Layer 1
10
22.011800
20
52.916400
11
35.503800
21
52.916400
0
LINE
8
Layer 1
10
35.507800
20
53.020300
11
35.507800
21
66.512400
0
LINE
8
Layer 1
10
3.989800
20
46.430400
11
3.989800
21
59.922400
0
LINE
8
Layer 1
10
3.993800
20
60.007400
11
17.485800
21
60.007400
0
LINE
8
Layer 1
10
3.993800
20
46.376400
11
17.485800
21
46.376400
0
LINE
8
Layer 1
10
17.489800
20
46.480400
11
17.489800
21
59.972400
0
LINE
8
Layer 1
10
76.125800
20
67.580400
11
76.125800
21
81.072400
0
LINE
8
Layer 1
10
76.129800
20
81.157400
11
89.621800
21
81.157400
0
LINE
8
Layer 1
10
76.129800
20
67.526300
11
89.621800
21
67.526300
0
LINE
8
Layer 1
10
89.625800
20
67.630400
11
89.625800
21
81.122300
0
LINE
8
Layer 1
10
58.091800
20
69.960400
11
58.091800
21
83.452300
0
LINE
8
Layer 1
10
58.095800
20
83.537300
11
71.587800
21
83.537300
0
LINE
8
Layer 1
10
58.095800
20
69.906400
11
71.587800
21
69.906400
0
LINE
8
Layer 1
10
71.591800
20
70.010400
11
71.591800
21
83.502300
0
LINE
8
Layer 1
10
40.047800
20
72.320400
11
40.047800
21
85.812400
0
LINE
8
Layer 1
10
40.051800
20
85.897400
11
53.543800
21
85.897400
0
LINE
8
Layer 1
10
40.051800
20
72.266400
11
53.543800
21
72.266400
0
LINE
8
Layer 1
10
53.547800
20
72.370400
11
53.547800
21
85.862400
0
LINE
8
Layer 1
10
22.047800
20
69.960400
11
22.047800
21
83.452300
0
LINE
8
Layer 1
10
22.051800
20
83.537300
11
35.543800
21
83.537300
0
LINE
8
Layer 1
10
22.051800
20
69.906400
11
35.543800
21
69.906400
0
LINE
8
Layer 1
10
35.547800
20
70.010400
11
35.547800
21
83.502300
0
LINE
8
Layer 1
10
4.047800
20
63.400400
11
4.047800
21
76.892400
0
LINE
8
Layer 1
10
4.051800
20
76.977400
11
17.543800
21
76.977400
0
LINE
8
Layer 1
10
4.051800
20
63.346400
11
17.543800
21
63.346400
0
LINE
8
Layer 1
10
17.547800
20
63.450400
11
17.547800
21
76.942400
0
LINE
8
Layer 1
10
94.847800
20
67.376400
11
94.839900
21
67.292700
0
LINE
8
Layer 1
10
94.839900
20
67.292700
11
94.795600
21
67.166100
0
LINE
8
Layer 1
10
94.795600
20
67.166100
11
94.716000
21
67.058200
0
LINE
8
Layer 1
10
94.716000
20
67.058200
11
94.608000
21
66.978500
0
LINE
8
Layer 1
10
94.608000
20
66.978500
11
94.481400
21
66.934200
0
LINE
8
Layer 1
10
94.481400
20
66.934200
11
94.397800
21
66.926400
0
LINE
8
Layer 1
10
94.397800
20
66.926400
11
93.497800
21
66.926400
0
LINE
8
Layer 1
10
93.497800
20
66.926400
11
93.414100
21
66.934200
0
LINE
8
Layer 1
10
93.414100
20
66.934200
11
93.287500
21
66.978500
0
LINE
8
Layer 1
10
93.287500
20
66.978500
11
93.179600
21
67.058200
0
LINE
8
Layer 1
10
93.179600
20
67.058200
11
93.099900
21
67.166100
0
LINE
8
Layer 1
10
93.099900
20
67.166100
11
93.055600
21
67.292700
0
LINE
8
Layer 1
10
93.055600
20
67.292700
11
93.047800
21
67.376400
0
LINE
8
Layer 1
10
93.047800
20
67.376400
11
93.047800
21
68.276300
0
LINE
8
Layer 1
10
93.047800
20
68.276300
11
93.055600
21
68.360000
0
LINE
8
Layer 1
10
93.055600
20
68.360000
11
93.099900
21
68.486600
0
LINE
8
Layer 1
10
93.099900
20
68.486600
11
93.179600
21
68.594500
0
LINE
8
Layer 1
10
93.179600
20
68.594500
11
93.287500
21
68.674200
0
LINE
8
Layer 1
10
93.287500
20
68.674200
11
93.414100
21
68.718500
0
LINE
8
Layer 1
10
93.414100
20
68.718500
11
93.497800
21
68.726400
0
LINE
8
Layer 1
10
93.497800
20
68.726400
11
94.397800
21
68.726400
0
LINE
8
Layer 1
10
94.397800
20
68.726400
11
94.481400
21
68.718500
0
LINE
8
Layer 1
10
94.481400
20
68.718500
11
94.608000
21
68.674200
0
LINE
8
Layer 1
10
94.608000
20
68.674200
11
94.716000
21
68.594500
0
LINE
8
Layer 1
10
94.716000
20
68.594500
11
94.795600
21
68.486600
0
LINE
8
Layer 1
10
94.795600
20
68.486600
11
94.839900
21
68.360000
0
LINE
8
Layer 1
10
94.839900
20
68.360000
11
94.847800
21
68.276300
0
LINE
8
Layer 1
10
94.847800
20
68.276300
11
94.847800
21
67.376400
0
LINE
8
Layer 1
10
94.847800
20
64.836400
11
94.839900
21
64.752700
0
LINE
8
Layer 1
10
94.839900
20
64.752700
11
94.795600
21
64.626100
0
LINE
8
Layer 1
10
94.795600
20
64.626100
11
94.716000
21
64.518200
0
LINE
8
Layer 1
10
94.716000
20
64.518200
11
94.608000
21
64.438500
0
LINE
8
Layer 1
10
94.608000
20
64.438500
11
94.481400
21
64.394200
0
LINE
8
Layer 1
10
94.481400
20
64.394200
11
94.397800
21
64.386400
0
LINE
8
Layer 1
10
94.397800
20
64.386400
11
93.497800
21
64.386400
0
LINE
8
Layer 1
10
93.497800
20
64.386400
11
93.414100
21
64.394200
0
LINE
8
Layer 1
10
93.414100
20
64.394200
11
93.287500
21
64.438500
0
LINE
8
Layer 1
10
93.287500
20
64.438500
11
93.179600
21
64.518200
0
LINE
8
Layer 1
10
93.179600
20
64.518200
11
93.099900
21
64.626100
0
LINE
8
Layer 1
10
93.099900
20
64.626100
11
93.055600
21
64.752700
0
LINE
8
Layer 1
10
93.055600
20
64.752700
11
93.047800
21
64.836400
0
LINE
8
Layer 1
10
93.047800
20
64.836400
11
93.047800
21
65.736400
0
LINE
8
Layer 1
10
93.047800
20
65.736400
11
93.055600
21
65.820000
0
LINE
8
Layer 1
10
93.055600
20
65.820000
11
93.099900
21
65.946600
0
LINE
8
Layer 1
10
93.099900
20
65.946600
11
93.179600
21
66.054500
0
LINE
8
Layer 1
10
93.179600
20
66.054500
11
93.287500
21
66.134200
0
LINE
8
Layer 1
10
93.287500
20
66.134200
11
93.414100
21
66.178500
0
LINE
8
Layer 1
10
93.414100
20
66.178500
11
93.497800
21
66.186300
0
LINE
8
Layer 1
10
93.497800
20
66.186300
11
94.397800
21
66.186300
0
LINE
8
Layer 1
10
94.397800
20
66.186300
11
94.481400
21
66.178500
0
LINE
8
Layer 1
10
94.481400
20
66.178500
11
94.608000
21
66.134200
0
LINE
8
Layer 1
10
94.608000
20
66.134200
11
94.716000
21
66.054500
0
LINE
8
Layer 1
10
94.716000
20
66.054500
11
94.795600
21
65.946600
0
LINE
8
Layer 1
10
94.795600
20
65.946600
11
94.839900
21
65.820000
0
LINE
8
Layer 1
10
94.839900
20
65.820000
11
94.847800
21
65.736400
0
LINE
8
Layer 1
10
94.847800
20
65.736400
11
94.847800
21
64.836400
0
LINE
8
Layer 1
10
110.088000
20
69.916400
11
110.080000
21
69.832700
0
LINE
8
Layer 1
10
110.080000
20
69.832700
11
110.036000
21
69.706100
0
LINE
8
Layer 1
10
110.036000
20
69.706100
11
109.956000
21
69.598200
0
LINE
8
Layer 1
10
109.956000
20
69.598200
11
109.848000
21
69.518500
0
LINE
8
Layer 1
10
109.848000
20
69.518500
11
109.721000
21
69.474200
0
LINE
8
Layer 1
10
109.721000
20
69.474200
11
109.638000
21
69.466400
0
LINE
8
Layer 1
10
109.638000
20
69.466400
11
108.738000
21
69.466400
0
LINE
8
Layer 1
10
108.738000
20
69.466400
11
108.654000
21
69.474200
0
LINE
8
Layer 1
10
108.654000
20
69.474200
11
108.528000
21
69.518500
0
LINE
8
Layer 1
10
108.528000
20
69.518500
11
108.420000
21
69.598200
0
LINE
8
Layer 1
10
108.420000
20
69.598200
11
108.340000
21
69.706100
0
LINE
8
Layer 1
10
108.340000
20
69.706100
11
108.296000
21
69.832700
0
LINE
8
Layer 1
10
108.296000
20
69.832700
11
108.288000
21
69.916400
0
LINE
8
Layer 1
10
108.288000
20
69.916400
11
108.288000
21
70.816400
0
LINE
8
Layer 1
10
108.288000
20
70.816400
11
108.296000
21
70.900000
0
LINE
8
Layer 1
10
108.296000
20
70.900000
11
108.340000
21
71.026600
0
LINE
8
Layer 1
10
108.340000
20
71.026600
11
108.420000
21
71.134500
0
LINE
8
Layer 1
10
108.420000
20
71.134500
11
108.528000
21
71.214200
0
LINE
8
Layer 1
10
108.528000
20
71.214200
11
108.654000
21
71.258500
0
LINE
8
Layer 1
10
108.654000
20
71.258500
11
108.738000
21
71.266400
0
LINE
8
Layer 1
10
108.738000
20
71.266400
11
109.638000
21
71.266400
0
LINE
8
Layer 1
10
109.638000
20
71.266400
11
109.721000
21
71.258500
0
LINE
8
Layer 1
10
109.721000
20
71.258500
11
109.848000
21
71.214200
0
LINE
8
Layer 1
10
109.848000
20
71.214200
11
109.956000
21
71.134500
0
LINE
8
Layer 1
10
109.956000
20
71.134500
11
110.036000
21
71.026600
0
LINE
8
Layer 1
10
110.036000
20
71.026600
11
110.080000
21
70.900000
0
LINE
8
Layer 1
10
110.080000
20
70.900000
11
110.088000
21
70.816400
0
LINE
8
Layer 1
10
110.088000
20
70.816400
11
110.088000
21
69.916400
0
LINE
8
Layer 1
10
105.408000
20
66.076400
11
103.708000
21
66.076400
0
LINE
8
Layer 1
10
103.708000
20
66.076400
11
103.708000
21
67.776300
0
LINE
8
Layer 1
10
103.708000
20
67.776300
11
105.408000
21
67.776300
0
LINE
8
Layer 1
10
105.408000
20
67.776300
11
105.408000
21
66.076400
0
LINE
8
Layer 1
10
112.838000
20
39.751400
11
112.838000
21
38.301400
0
LINE
8
Layer 1
10
112.838000
20
38.301400
11
112.038000
21
38.301400
0
LINE
8
Layer 1
10
112.038000
20
38.301400
11
112.038000
21
39.751400
0
LINE
8
Layer 1
10
112.038000
20
39.751400
11
112.838000
21
39.751400
0
LINE
8
Layer 1
10
112.838000
20
32.351300
11
112.838000
21
30.901300
0
LINE
8
Layer 1
10
112.838000
20
30.901300
11
112.038000
21
30.901300
0
LINE
8
Layer 1
10
112.038000
20
30.901300
11
112.038000
21
32.351300
0
LINE
8
Layer 1
10
112.038000
20
32.351300
11
112.838000
21
32.351300
0
LINE
8
Layer 1
10
110.573000
20
36.976400
11
108.138000
21
36.976400
0
LINE
8
Layer 1
10
108.138000
20
36.976400
11
108.138000
21
38.076400
0
LINE
8
Layer 1
10
108.138000
20
38.076400
11
110.573000
21
38.076400
0
LINE
8
Layer 1
10
110.573000
20
38.076400
11
110.573000
21
36.976400
0
LINE
8
Layer 1
10
110.573000
20
32.576400
11
108.138000
21
32.576400
0
LINE
8
Layer 1
10
108.138000
20
32.576400
11
108.138000
21
33.676400
0
LINE
8
Layer 1
10
108.138000
20
33.676400
11
110.573000
21
33.676400
0
LINE
8
Layer 1
10
110.573000
20
33.676400
11
110.573000
21
32.576400
0
LINE
8
Layer 1
10
97.687800
20
74.826400
11
97.687800
21
75.626400
0
LINE
8
Layer 1
10
97.687800
20
75.626400
11
98.687800
21
75.626400
0
LINE
8
Layer 1
10
98.687800
20
75.626400
11
98.687800
21
74.826400
0
LINE
8
Layer 1
10
98.687800
20
74.826400
11
97.687800
21
74.826400
0
LINE
8
Layer 1
10
105.188000
20
74.826400
11
105.188000
21
75.626400
0
LINE
8
Layer 1
10
105.188000
20
75.626400
11
106.188000
21
75.626400
0
LINE
8
Layer 1
10
106.188000
20
75.626400
11
106.188000
21
74.826400
0
LINE
8
Layer 1
10
106.188000
20
74.826400
11
105.188000
21
74.826400
0
LINE
8
Layer 1
10
100.715000
20
71.001300
11
100.715000
21
73.001300
0
LINE
8
Layer 1
10
100.715000
20
73.001300
11
101.515000
21
73.001300
0
LINE
8
Layer 1
10
101.515000
20
73.001300
11
101.515000
21
71.001300
0
LINE
8
Layer 1
10
101.515000
20
71.001300
11
100.715000
21
71.001300
0
LINE
8
Layer 1
10
103.715000
20
71.001300
11
103.715000
21
73.001300
0
LINE
8
Layer 1
10
103.715000
20
73.001300
11
104.515000
21
73.001300
0
LINE
8
Layer 1
10
104.515000
20
73.001300
11
104.515000
21
71.001300
0
LINE
8
Layer 1
10
104.515000
20
71.001300
11
103.715000
21
71.001300
0
LINE
8
Layer 1
10
99.214800
20
71.001300
11
99.214800
21
73.001300
0
LINE
8
Layer 1
10
99.214800
20
73.001300
11
100.015000
21
73.001300
0
LINE
8
Layer 1
10
100.015000
20
73.001300
11
100.015000
21
71.001300
0
LINE
8
Layer 1
10
100.015000
20
71.001300
11
99.214800
21
71.001300
0
LINE
8
Layer 1
10
110.778000
20
66.986400
11
110.786000
21
67.070000
0
LINE
8
Layer 1
10
110.786000
20
67.070000
11
110.830000
21
67.196600
0
LINE
8
Layer 1
10
110.830000
20
67.196600
11
110.910000
21
67.304500
0
LINE
8
Layer 1
10
110.910000
20
67.304500
11
111.017000
21
67.384200
0
LINE
8
Layer 1
10
111.017000
20
67.384200
11
111.144000
21
67.428500
0
LINE
8
Layer 1
10
111.144000
20
67.428500
11
111.228000
21
67.436300
0
LINE
8
Layer 1
10
111.228000
20
67.436300
11
112.128000
21
67.436300
0
LINE
8
Layer 1
10
112.128000
20
67.436300
11
112.211000
21
67.428500
0
LINE
8
Layer 1
10
112.211000
20
67.428500
11
112.338000
21
67.384200
0
LINE
8
Layer 1
10
112.338000
20
67.384200
11
112.446000
21
67.304500
0
LINE
8
Layer 1
10
112.446000
20
67.304500
11
112.526000
21
67.196600
0
LINE
8
Layer 1
10
112.526000
20
67.196600
11
112.570000
21
67.070000
0
LINE
8
Layer 1
10
112.570000
20
67.070000
11
112.578000
21
66.986400
0
LINE
8
Layer 1
10
112.578000
20
66.986400
11
112.578000
21
66.086400
0
LINE
8
Layer 1
10
112.578000
20
66.086400
11
112.570000
21
66.002700
0
LINE
8
Layer 1
10
112.570000
20
66.002700
11
112.526000
21
65.876100
0
LINE
8
Layer 1
10
112.526000
20
65.876100
11
112.446000
21
65.768200
0
LINE
8
Layer 1
10
112.446000
20
65.768200
11
112.338000
21
65.688500
0
LINE
8
Layer 1
10
112.338000
20
65.688500
11
112.211000
21
65.644200
0
LINE
8
Layer 1
10
112.211000
20
65.644200
11
112.128000
21
65.636400
0
LINE
8
Layer 1
10
112.128000
20
65.636400
11
111.228000
21
65.636400
0
LINE
8
Layer 1
10
111.228000
20
65.636400
11
111.144000
21
65.644200
0
LINE
8
Layer 1
10
111.144000
20
65.644200
11
111.017000
21
65.688500
0
LINE
8
Layer 1
10
111.017000
20
65.688500
11
110.910000
21
65.768200
0
LINE
8
Layer 1
10
110.910000
20
65.768200
11
110.830000
21
65.876100
0
LINE
8
Layer 1
10
110.830000
20
65.876100
11
110.786000
21
66.002700
0
LINE
8
Layer 1
10
110.786000
20
66.002700
11
110.778000
21
66.086400
0
LINE
8
Layer 1
10
110.778000
20
66.086400
11
110.778000
21
66.986400
0
LINE
8
Layer 1
10
110.778000
20
64.446400
11
110.786000
21
64.530000
0
LINE
8
Layer 1
10
110.786000
20
64.530000
11
110.830000
21
64.656600
0
LINE
8
Layer 1
10
110.830000
20
64.656600
11
110.910000
21
64.764500
0
LINE
8
Layer 1
10
110.910000
20
64.764500
11
111.017000
21
64.844200
0
LINE
8
Layer 1
10
111.017000
20
64.844200
11
111.144000
21
64.888500
0
LINE
8
Layer 1
10
111.144000
20
64.888500
11
111.228000
21
64.896400
0
LINE
8
Layer 1
10
111.228000
20
64.896400
11
112.128000
21
64.896400
0
LINE
8
Layer 1
10
112.128000
20
64.896400
11
112.211000
21
64.888500
0
LINE
8
Layer 1
10
112.211000
20
64.888500
11
112.338000
21
64.844200
0
LINE
8
Layer 1
10
112.338000
20
64.844200
11
112.446000
21
64.764500
0
LINE
8
Layer 1
10
112.446000
20
64.764500
11
112.526000
21
64.656600
0
LINE
8
Layer 1
10
112.526000
20
64.656600
11
112.570000
21
64.530000
0
LINE
8
Layer 1
10
112.570000
20
64.530000
11
112.578000
21
64.446400
0
LINE
8
Layer 1
10
112.578000
20
64.446400
11
112.578000
21
63.546300
0
LINE
8
Layer 1
10
112.578000
20
63.546300
11
112.570000
21
63.462700
0
LINE
8
Layer 1
10
112.570000
20
63.462700
11
112.526000
21
63.336100
0
LINE
8
Layer 1
10
112.526000
20
63.336100
11
112.446000
21
63.228200
0
LINE
8
Layer 1
10
112.446000
20
63.228200
11
112.338000
21
63.148500
0
LINE
8
Layer 1
10
112.338000
20
63.148500
11
112.211000
21
63.104200
0
LINE
8
Layer 1
10
112.211000
20
63.104200
11
112.128000
21
63.096400
0
LINE
8
Layer 1
10
112.128000
20
63.096400
11
111.228000
21
63.096400
0
LINE
8
Layer 1
10
111.228000
20
63.096400
11
111.144000
21
63.104200
0
LINE
8
Layer 1
10
111.144000
20
63.104200
11
111.017000
21
63.148500
0
LINE
8
Layer 1
10
111.017000
20
63.148500
11
110.910000
21
63.228200
0
LINE
8
Layer 1
10
110.910000
20
63.228200
11
110.830000
21
63.336100
0
LINE
8
Layer 1
10
110.830000
20
63.336100
11
110.786000
21
63.462700
0
LINE
8
Layer 1
10
110.786000
20
63.462700
11
110.778000
21
63.546300
0
LINE
8
Layer 1
10
110.778000
20
63.546300
11
110.778000
21
64.446400
0
LINE
8
Layer 1
10
95.537800
20
69.526300
11
95.545600
21
69.610000
0
LINE
8
Layer 1
10
95.545600
20
69.610000
11
95.589900
21
69.736600
0
LINE
8
Layer 1
10
95.589900
20
69.736600
11
95.669600
21
69.844500
0
LINE
8
Layer 1
10
95.669600
20
69.844500
11
95.777500
21
69.924200
0
LINE
8
Layer 1
10
95.777500
20
69.924200
11
95.904100
21
69.968500
0
LINE
8
Layer 1
10
95.904100
20
69.968500
11
95.987800
21
69.976300
0
LINE
8
Layer 1
10
95.987800
20
69.976300
11
96.887800
21
69.976300
0
LINE
8
Layer 1
10
96.887800
20
69.976300
11
96.971400
21
69.968500
0
LINE
8
Layer 1
10
96.971400
20
69.968500
11
97.098000
21
69.924200
0
LINE
8
Layer 1
10
97.098000
20
69.924200
11
97.206000
21
69.844500
0
LINE
8
Layer 1
10
97.206000
20
69.844500
11
97.285600
21
69.736600
0
LINE
8
Layer 1
10
97.285600
20
69.736600
11
97.329900
21
69.610000
0
LINE
8
Layer 1
10
97.329900
20
69.610000
11
97.337800
21
69.526300
0
LINE
8
Layer 1
10
97.337800
20
69.526300
11
97.337800
21
68.626400
0
LINE
8
Layer 1
10
97.337800
20
68.626400
11
97.329900
21
68.542700
0
LINE
8
Layer 1
10
97.329900
20
68.542700
11
97.285600
21
68.416100
0
LINE
8
Layer 1
10
97.285600
20
68.416100
11
97.206000
21
68.308200
0
LINE
8
Layer 1
10
97.206000
20
68.308200
11
97.098000
21
68.228500
0
LINE
8
Layer 1
10
97.098000
20
68.228500
11
96.971400
21
68.184200
0
LINE
8
Layer 1
10
96.971400
20
68.184200
11
96.887800
21
68.176400
0
LINE
8
Layer 1
10
96.887800
20
68.176400
11
95.987800
21
68.176400
0
LINE
8
Layer 1
10
95.987800
20
68.176400
11
95.904100
21
68.184200
0
LINE
8
Layer 1
10
95.904100
20
68.184200
11
95.777500
21
68.228500
0
LINE
8
Layer 1
10
95.777500
20
68.228500
11
95.669600
21
68.308200
0
LINE
8
Layer 1
10
95.669600
20
68.308200
11
95.589900
21
68.416100
0
LINE
8
Layer 1
10
95.589900
20
68.416100
11
95.545600
21
68.542700
0
LINE
8
Layer 1
10
95.545600
20
68.542700
11
95.537800
21
68.626400
0
LINE
8
Layer 1
10
95.537800
20
68.626400
11
95.537800
21
69.526300
0
LINE
8
Layer 1
10
86.069100
20
10.482100
11
92.815100
21
22.166500
0
LINE
8
Layer 1
10
92.861100
20
22.238100
11
104.546000
21
15.492100
0
LINE
8
Layer 1
10
86.045600
20
10.433300
11
97.730000
21
3.687300
0
LINE
8
Layer 1
10
97.785400
20
3.775400
11
104.531000
21
15.459800
0
LINE
8
Layer 1
10
68.349800
20
16.159600
11
71.841800
21
29.191900
0
LINE
8
Layer 1
10
71.867600
20
29.273000
11
84.899900
21
25.781000
0
LINE
8
Layer 1
10
68.339700
20
16.106400
11
81.371900
21
12.614400
0
LINE
8
Layer 1
10
81.402700
20
12.713900
11
84.894700
21
25.746100
0
LINE
8
Layer 1
10
50.337800
20
17.580400
11
50.337800
21
31.072300
0
LINE
8
Layer 1
10
50.341800
20
31.157400
11
63.833800
21
31.157400
0
LINE
8
Layer 1
10
50.341800
20
17.526400
11
63.833800
21
17.526400
0
LINE
8
Layer 1
10
63.837800
20
17.630400
11
63.837800
21
31.122400
0
LINE
8
Layer 1
10
76.077800
20
33.522400
11
76.077800
21
47.014300
0
LINE
8
Layer 1
10
76.081800
20
47.099400
11
89.573800
21
47.099400
0
LINE
8
Layer 1
10
76.081800
20
33.468400
11
89.573800
21
33.468400
0
LINE
8
Layer 1
10
89.577800
20
33.572300
11
89.577800
21
47.064400
0
LINE
8
Layer 1
10
58.091800
20
35.930400
11
58.091800
21
49.422400
0
LINE
8
Layer 1
10
58.095800
20
49.507400
11
71.587800
21
49.507400
0
LINE
8
Layer 1
10
58.095800
20
35.876400
11
71.587800
21
35.876400
0
LINE
8
Layer 1
10
71.591800
20
35.980400
11
71.591800
21
49.472400
0
LINE
8
Layer 1
10
40.047800
20
38.322300
11
40.047800
21
51.814400
0
LINE
8
Layer 1
10
40.051800
20
51.899400
11
53.543800
21
51.899400
0
LINE
8
Layer 1
10
40.051800
20
38.268400
11
53.543800
21
38.268400
0
LINE
8
Layer 1
10
53.547800
20
38.372400
11
53.547800
21
51.864400
0
LINE
8
Layer 1
10
22.007800
20
35.952400
11
22.007800
21
49.444300
0
LINE
8
Layer 1
10
22.011800
20
49.529300
11
35.503800
21
49.529300
0
LINE
8
Layer 1
10
22.011800
20
35.898300
11
35.503800
21
35.898300
0
LINE
8
Layer 1
10
35.507800
20
36.002300
11
35.507800
21
49.494400
0
LINE
8
Layer 1
10
3.989800
20
29.412400
11
3.989800
21
42.904300
0
LINE
8
Layer 1
10
3.993800
20
42.989400
11
17.485800
21
42.989400
0
LINE
8
Layer 1
10
3.993800
20
29.358400
11
17.485800
21
29.358400
0
LINE
8
Layer 1
10
17.489800
20
29.462300
11
17.489800
21
42.954400
0
LINE
8
Layer 1
10
76.077800
20
50.540400
11
76.077800
21
64.032400
0
LINE
8
Layer 1
10
76.081800
20
64.117400
11
89.573800
21
64.117400
0
LINE
8
Layer 1
10
76.081800
20
50.486400
11
89.573800
21
50.486400
0
LINE
8
Layer 1
10
89.577800
20
50.590300
11
89.577800
21
64.082400
0
LINE
8
Layer 1
10
58.091800
20
52.948400
11
58.091800
21
66.440400
0
LINE
8
Layer 1
10
58.095800
20
66.525400
11
71.587800
21
66.525400
0
LINE
8
Layer 1
10
58.095800
20
52.894400
11
71.587800
21
52.894400
0
LINE
8
Layer 1
10
71.591800
20
52.998400
11
71.591800
21
66.490400
0
LINE
8
Layer 1
10
40.047800
20
55.340300
11
40.047800
21
68.832400
0
LINE
8
Layer 1
10
40.051800
20
68.917400
11
53.543800
21
68.917400
0
LINE
8
Layer 1
10
40.051800
20
55.286400
11
53.543800
21
55.286400
0
LINE
8
Layer 1
10
53.547800
20
55.390400
11
53.547800
21
68.882400
0
LINE
8
Layer 1
10
22.007800
20
52.970400
11
22.007800
21
66.462300
0
LINE
8
Layer 1
10
22.011800
20
66.547400
11
35.503800
21
66.547400
0
LINE
8
Layer 1
10
22.011800
20
52.916400
11
35.503800
21
52.916400
0
LINE
8
Layer 1
10
35.507800
20
53.020300
11
35.507800
21
66.512400
0
LINE
8
Layer 1
10
3.989800
20
46.430400
11
3.989800
21
59.922400
0
LINE
8
Layer 1
10
3.993800
20
60.007400
11
17.485800
21
60.007400
0
LINE
8
Layer 1
10
3.993800
20
46.376400
11
17.485800
21
46.376400
0
LINE
8
Layer 1
10
17.489800
20
46.480400
11
17.489800
21
59.972400
0
LINE
8
Layer 1
10
76.125800
20
67.580400
11
76.125800
21
81.072400
0
LINE
8
Layer 1
10
76.129800
20
81.157400
11
89.621800
21
81.157400
0
LINE
8
Layer 1
10
76.129800
20
67.526300
11
89.621800
21
67.526300
0
LINE
8
Layer 1
10
89.625800
20
67.630400
11
89.625800
21
81.122300
0
LINE
8
Layer 1
10
58.091800
20
69.960400
11
58.091800
21
83.452300
0
LINE
8
Layer 1
10
58.095800
20
83.537300
11
71.587800
21
83.537300
0
LINE
8
Layer 1
10
58.095800
20
69.906400
11
71.587800
21
69.906400
0
LINE
8
Layer 1
10
71.591800
20
70.010400
11
71.591800
21
83.502300
0
LINE
8
Layer 1
10
40.047800
20
72.320400
11
40.047800
21
85.812400
0
LINE
8
Layer 1
10
40.051800
20
85.897400
11
53.543800
21
85.897400
0
LINE
8
Layer 1
10
40.051800
20
72.266400
11
53.543800
21
72.266400
0
LINE
8
Layer 1
10
53.547800
20
72.370400
11
53.547800
21
85.862400
0
LINE
8
Layer 1
10
22.047800
20
69.960400
11
22.047800
21
83.452300
0
LINE
8
Layer 1
10
22.051800
20
83.537300
11
35.543800
21
83.537300
0
LINE
8
Layer 1
10
22.051800
20
69.906400
11
35.543800
21
69.906400
0
LINE
8
Layer 1
10
35.547800
20
70.010400
11
35.547800
21
83.502300
0
LINE
8
Layer 1
10
4.047800
20
63.400400
11
4.047800
21
76.892400
0
LINE
8
Layer 1
10
4.051800
20
76.977400
11
17.543800
21
76.977400
0
LINE
8
Layer 1
10
4.051800
20
63.346400
11
17.543800
21
63.346400
0
LINE
8
Layer 1
10
17.547800
20
63.450400
11
17.547800
21
76.942400
 0 
ENDSEC
 0 
EOF