<?xml version="1.0" standalone="no"?>
 <!DOCTYPE svg PUBLIC "-//W3C//DTD SVG 1.1//EN" 
 "http://www.w3.org/Graphics/SVG/1.1/DTD/svg11.dtd"> 
<svg
  xmlns:svg="http://www.w3.org/2000/svg"
  xmlns="http://www.w3.org/2000/svg"
  xmlns:xlink="http://www.w3.org/1999/xlink"
  version="1.1"
  width="114.6556mm" height="88.8746mm" viewBox="0.0000 0.0000 114.6556 88.8746">
<title>SVG Image created as plate-brd.svg date 2024/09/03 11:00:50 </title>
  <desc>Image generated by PCBNEW </desc>
<g style="fill:#000000; fill-opacity:1.0000;stroke:#000000; stroke-opacity:1.0000;
stroke-linecap:round; stroke-linejoin:round;"
 transform="translate(0 0) scale(1 1)">
</g>
<g style="fill:none; 
stroke:#000000; stroke-width:0.1500; stroke-opacity:1; 
stroke-linecap:round; stroke-linejoin:round;">
<path d="M112.5678 58.0482
L109.2698 58.0469
" />
<path d="M113.0464 58.5569 A0.4991 0.4991 0.0 0 0 112.5678 58.0482" />
<path d="M108.7978 47.5603
L108.7911 57.5382
" />
<path d="M108.7911 57.5382 A0.4991 0.4991 0.0 0 0 109.2698 58.0469" />
<path d="M108.7978 47.5603 A0.4991 0.4991 0.0 0 0 108.3191 47.0516" />
<path d="M92.3898 47.0482
L108.3191 47.0516
" />
<path d="M91.9112 46.5396
L91.8911 13.4169
" />
<path d="M91.9112 46.5396 A0.4991 0.4991 0.0 0 0 92.3898 47.0482" />
<path d="M92.3998 12.9383
L93.7359 12.9383
" />
<path d="M64.9978 74.0382
L80.3378 78.1482
" />
<path d="M94.4052 7.2582 A1.6375 1.6375 0.0 0 0 93.1978 5.6783" />
<path d="M1.3349 9.8592
L27.3678 0.4083
" />
<path d="M38.2760 63.5084 A3.1145 3.1145 0.0 0 0 35.9178 62.4282" />
<path d="M38.2760 63.5084
L47.1278 73.0182
" />
<path d="M113.0464 58.5569
L113.0476 66.0964
" />
<path d="M49.4878 74.0228
L64.9978 74.0382
" />
<path d="M1.3349 9.8592 A1.8028 1.8028 0.0 0 0 0.0750 11.5782" />
<path d="M80.3378 78.1482
L98.2776 88.4550
" />
<path d="M0.0878 61.7938 A0.6093 0.6093 0.0 0 0 0.6953 62.4482" />
<path d="M93.7359 12.9382 A0.6760 0.6760 0.0 0 0 94.3888 12.4383" />
<path d="M0.0750 11.5782
L0.0878 61.7938
" />
<path d="M47.1278 73.0182 A3.2745 3.2745 0.0 0 0 49.4878 74.0228" />
<path d="M100.1730 88.0581
L113.0476 66.0964
" />
<path d="M92.3998 12.9383 A0.4991 0.4991 0.0 0 0 91.8911 13.4169" />
<path d="M98.2450 88.4375 A1.3868 1.3868 0.0 0 0 100.1730 88.0581" />
<path d="M93.1978 5.6783
L73.2878 0.3882
" />
<path d="M94.3888 12.4383
L94.4052 7.2582
" />
<path d="M27.3678 0.4083
L73.2878 0.3882
" />
<path d="M35.9178 62.4282
L0.6953 62.4482
" />
</g>
<g style="fill:none; 
stroke:#000000; stroke-width:0.5080; stroke-opacity:1; 
stroke-linecap:round; stroke-linejoin:round;">
<path d="M86.0691 78.3925
L92.8151 66.7081
" />
<path d="M92.8611 66.6365
L104.5455 73.3825
" />
<path d="M86.0456 78.4413
L97.7300 85.1873
" />
<path d="M97.7854 85.0992
L104.5314 73.4148
" />
<path d="M68.3498 72.7150
L71.8418 59.6827
" />
<path d="M71.8676 59.6016
L84.8999 63.0936
" />
<path d="M68.3397 72.7682
L81.3719 76.2602
" />
<path d="M81.4027 76.1607
L84.8947 63.1285
" />
<path d="M50.3378 71.2942
L50.3378 57.8023
" />
<path d="M50.3418 57.7172
L63.8338 57.7172
" />
<path d="M50.3418 71.3482
L63.8338 71.3482
" />
<path d="M63.8378 71.2442
L63.8378 57.7522
" />
<path d="M76.0778 55.3522
L76.0778 41.8603
" />
<path d="M76.0818 41.7752
L89.5738 41.7752
" />
<path d="M76.0818 55.4062
L89.5738 55.4062
" />
<path d="M89.5778 55.3023
L89.5778 41.8102
" />
<path d="M58.0918 52.9442
L58.0918 39.4522
" />
<path d="M58.0958 39.3672
L71.5878 39.3672
" />
<path d="M58.0958 52.9982
L71.5878 52.9982
" />
<path d="M71.5918 52.8942
L71.5918 39.4022
" />
<path d="M40.0478 50.5523
L40.0478 37.0602
" />
<path d="M40.0518 36.9752
L53.5438 36.9752
" />
<path d="M40.0518 50.6062
L53.5438 50.6062
" />
<path d="M53.5478 50.5022
L53.5478 37.0102
" />
<path d="M22.0078 52.9222
L22.0078 39.4303
" />
<path d="M22.0118 39.3453
L35.5038 39.3453
" />
<path d="M22.0118 52.9763
L35.5038 52.9763
" />
<path d="M35.5078 52.8723
L35.5078 39.3802
" />
<path d="M3.9898 59.4622
L3.9898 45.9703
" />
<path d="M3.9938 45.8852
L17.4858 45.8852
" />
<path d="M3.9938 59.5162
L17.4858 59.5162
" />
<path d="M17.4898 59.4123
L17.4898 45.9202
" />
<path d="M76.0778 38.3342
L76.0778 24.8422
" />
<path d="M76.0818 24.7572
L89.5738 24.7572
" />
<path d="M76.0818 38.3882
L89.5738 38.3882
" />
<path d="M89.5778 38.2843
L89.5778 24.7922
" />
<path d="M58.0918 35.9262
L58.0918 22.4342
" />
<path d="M58.0958 22.3492
L71.5878 22.3492
" />
<path d="M58.0958 35.9802
L71.5878 35.9802
" />
<path d="M71.5918 35.8762
L71.5918 22.3842
" />
<path d="M40.0478 33.5343
L40.0478 20.0422
" />
<path d="M40.0518 19.9572
L53.5438 19.9572
" />
<path d="M40.0518 33.5882
L53.5438 33.5882
" />
<path d="M53.5478 33.4842
L53.5478 19.9922
" />
<path d="M22.0078 35.9042
L22.0078 22.4123
" />
<path d="M22.0118 22.3272
L35.5038 22.3272
" />
<path d="M22.0118 35.9582
L35.5038 35.9582
" />
<path d="M35.5078 35.8543
L35.5078 22.3622
" />
<path d="M3.9898 42.4442
L3.9898 28.9522
" />
<path d="M3.9938 28.8672
L17.4858 28.8672
" />
<path d="M3.9938 42.4982
L17.4858 42.4982
" />
<path d="M17.4898 42.3942
L17.4898 28.9022
" />
<path d="M76.1258 21.2942
L76.1258 7.8022
" />
<path d="M76.1298 7.7172
L89.6218 7.7172
" />
<path d="M76.1298 21.3483
L89.6218 21.3483
" />
<path d="M89.6258 21.2442
L89.6258 7.7523
" />
<path d="M58.0918 18.9142
L58.0918 5.4223
" />
<path d="M58.0958 5.3373
L71.5878 5.3373
" />
<path d="M58.0958 18.9682
L71.5878 18.9682
" />
<path d="M71.5918 18.8642
L71.5918 5.3723
" />
<path d="M40.0478 16.5542
L40.0478 3.0622
" />
<path d="M40.0518 2.9772
L53.5438 2.9772
" />
<path d="M40.0518 16.6082
L53.5438 16.6082
" />
<path d="M53.5478 16.5042
L53.5478 3.0122
" />
<path d="M22.0478 18.9142
L22.0478 5.4223
" />
<path d="M22.0518 5.3373
L35.5438 5.3373
" />
<path d="M22.0518 18.9682
L35.5438 18.9682
" />
<path d="M35.5478 18.8642
L35.5478 5.3723
" />
<path d="M4.0478 25.4742
L4.0478 11.9822
" />
<path d="M4.0518 11.8972
L17.5438 11.8972
" />
<path d="M4.0518 25.5282
L17.5438 25.5282
" />
<path d="M17.5478 25.4242
L17.5478 11.9322
" />
</g>
<g style="fill:#000000; fill-opacity:1.0000; stroke:none;">
<circle cx="75.4878" cy="4.0482" r="1.1000" /> 
</g>
<g style="fill:#000000; fill-opacity:1.0000; stroke:none;">
<circle cx="28.7878" cy="58.0482" r="1.1000" /> 
</g>
<g style="fill:#000000; fill-opacity:1.0000; stroke:none;">
<circle cx="103.4478" cy="64.3782" r="1.1000" /> 
</g>
<g style="fill:#000000; fill-opacity:1.0000; stroke:none;">
<circle cx="15.3878" cy="8.0682" r="1.1000" /> 
</g>
<g style="fill:#000000; fill-opacity:1.0000; stroke:none;">
<circle cx="93.9478" cy="15.9682" r="0.5000" /> 
</g>
<g style="fill:#000000; fill-opacity:1.0000; stroke:none;">
<circle cx="93.9478" cy="18.5083" r="0.5000" /> 
</g>
<g style="fill:#000000; fill-opacity:1.0000; stroke:none;">
<circle cx="93.9478" cy="21.0482" r="0.5000" /> 
</g>
<g style="fill:#000000; fill-opacity:1.0000; stroke:none;">
<circle cx="93.9478" cy="23.5882" r="0.5000" /> 
</g>
<g style="fill:#000000; fill-opacity:1.0000; stroke:none;">
<circle cx="93.9478" cy="26.1282" r="0.5000" /> 
</g>
<g style="fill:#000000; fill-opacity:1.0000; stroke:none;">
<circle cx="93.9478" cy="28.6683" r="0.5000" /> 
</g>
<g style="fill:#000000; fill-opacity:1.0000; stroke:none;">
<circle cx="93.9478" cy="31.2082" r="0.5000" /> 
</g>
<g style="fill:#000000; fill-opacity:1.0000; stroke:none;">
<circle cx="93.9478" cy="33.7482" r="0.5000" /> 
</g>
<g style="fill:#000000; fill-opacity:1.0000; stroke:none;">
<circle cx="93.9478" cy="36.2882" r="0.5000" /> 
</g>
<g style="fill:#000000; fill-opacity:1.0000; stroke:none;">
<circle cx="93.9478" cy="38.8282" r="0.5000" /> 
</g>
<g style="fill:#000000; fill-opacity:1.0000; stroke:none;">
<circle cx="93.9478" cy="41.3682" r="0.5000" /> 
</g>
<g style="fill:#000000; fill-opacity:1.0000; stroke:none;">
<circle cx="93.9478" cy="43.9082" r="0.5000" /> 
</g>
<g style="fill:#000000; fill-opacity:1.0000; stroke:none;">
<circle cx="109.1878" cy="43.9082" r="0.5000" /> 
</g>
<g style="fill:#000000; fill-opacity:1.0000; stroke:none;">
<circle cx="109.1878" cy="41.3682" r="0.5000" /> 
</g>
<g style="fill:#000000; fill-opacity:1.0000; stroke:none;">
<circle cx="109.1878" cy="38.8282" r="0.5000" /> 
</g>
<g style="fill:#000000; fill-opacity:1.0000; stroke:none;">
<circle cx="109.1878" cy="36.2882" r="0.5000" /> 
</g>
<g style="fill:#000000; fill-opacity:1.0000; stroke:none;">
<circle cx="109.1878" cy="33.7482" r="0.5000" /> 
</g>
<g style="fill:#000000; fill-opacity:1.0000; stroke:none;">
<circle cx="109.1878" cy="31.2082" r="0.5000" /> 
</g>
<g style="fill:#000000; fill-opacity:1.0000; stroke:none;">
<circle cx="109.1878" cy="28.6683" r="0.5000" /> 
</g>
<g style="fill:#000000; fill-opacity:1.0000; stroke:none;">
<circle cx="109.1878" cy="26.1282" r="0.5000" /> 
</g>
<g style="fill:#000000; fill-opacity:1.0000; stroke:none;">
<circle cx="109.1878" cy="23.5882" r="0.5000" /> 
</g>
<g style="fill:#000000; fill-opacity:1.0000; stroke:none;">
<circle cx="109.1878" cy="21.0482" r="0.5000" /> 
</g>
<g style="fill:#000000; fill-opacity:1.0000; stroke:none;">
<circle cx="109.1878" cy="18.5083" r="0.5000" /> 
</g>
<g style="fill:#000000; fill-opacity:1.0000; stroke:none;">
<circle cx="109.1678" cy="15.9383" r="0.5000" /> 
</g>
<g style="fill:#000000; fill-opacity:1.0000; stroke:none;">
<circle cx="102.0178" cy="21.9482" r="0.5000" /> 
</g>
<g style="fill:#000000; fill-opacity:1.0000; stroke:none;">
<circle cx="104.5578" cy="21.9482" r="0.5000" /> 
</g>
<g style="fill:#000000; fill-opacity:1.0000; stroke:none;">
<circle cx="111.5378" cy="52.4482" r="0.4500" /> 
</g>
<g style="fill:#000000; fill-opacity:1.0000; stroke:none;">
<circle cx="111.5378" cy="54.6482" r="0.4500" /> 
</g>
<g style="fill:#000000; fill-opacity:1.0000; stroke:none;">
<circle cx="100.4378" cy="14.7733" r="0.4000" /> 
</g>
<g style="fill:#000000; fill-opacity:1.0000; stroke:none;">
<circle cx="103.4378" cy="14.7733" r="0.4000" /> 
</g>
<g style="fill:#000000; fill-opacity:1.0000; stroke:none;">
<circle cx="111.6778" cy="17.2583" r="0.5000" /> 
</g>
<g style="fill:#000000; fill-opacity:1.0000; stroke:none;">
<circle cx="111.6778" cy="19.7982" r="0.5000" /> 
</g>
<g style="fill:#000000; fill-opacity:1.0000; stroke:none;">
<circle cx="111.6778" cy="22.3382" r="0.5000" /> 
</g>
<g style="fill:#000000; fill-opacity:1.0000; stroke:none;">
<circle cx="111.6778" cy="24.8782" r="0.5000" /> 
</g>
<g style="fill:#000000; fill-opacity:1.0000; stroke:none;">
<circle cx="111.6778" cy="27.4183" r="0.5000" /> 
</g>
<g style="fill:#000000; fill-opacity:1.0000; stroke:none;">
<circle cx="111.6778" cy="29.9582" r="0.5000" /> 
</g>
<g style="fill:#000000; fill-opacity:1.0000; stroke:none;">
<circle cx="111.6778" cy="32.4982" r="0.5000" /> 
</g>
<g style="fill:#000000; fill-opacity:1.0000; stroke:none;">
<circle cx="111.6778" cy="35.0382" r="0.5000" /> 
</g>
<g style="fill:#000000; fill-opacity:1.0000; stroke:none;">
<circle cx="111.6778" cy="37.5782" r="0.5000" /> 
</g>
<g style="fill:#000000; fill-opacity:1.0000; stroke:none;">
<circle cx="111.6778" cy="40.1182" r="0.5000" /> 
</g>
<g style="fill:#000000; fill-opacity:1.0000; stroke:none;">
<circle cx="111.6778" cy="42.6582" r="0.5000" /> 
</g>
<g style="fill:#000000; fill-opacity:1.0000; stroke:none;">
<circle cx="111.6778" cy="45.1982" r="0.5000" /> 
</g>
<g style="fill:#000000; fill-opacity:1.0000; stroke:none;">
<circle cx="96.4378" cy="45.1982" r="0.5000" /> 
</g>
<g style="fill:#000000; fill-opacity:1.0000; stroke:none;">
<circle cx="96.4378" cy="42.6582" r="0.5000" /> 
</g>
<g style="fill:#000000; fill-opacity:1.0000; stroke:none;">
<circle cx="96.4378" cy="40.1182" r="0.5000" /> 
</g>
<g style="fill:#000000; fill-opacity:1.0000; stroke:none;">
<circle cx="96.4378" cy="37.5782" r="0.5000" /> 
</g>
<g style="fill:#000000; fill-opacity:1.0000; stroke:none;">
<circle cx="96.4378" cy="35.0382" r="0.5000" /> 
</g>
<g style="fill:#000000; fill-opacity:1.0000; stroke:none;">
<circle cx="96.4378" cy="32.4982" r="0.5000" /> 
</g>
<g style="fill:#000000; fill-opacity:1.0000; stroke:none;">
<circle cx="96.4378" cy="29.9582" r="0.5000" /> 
</g>
<g style="fill:#000000; fill-opacity:1.0000; stroke:none;">
<circle cx="96.4378" cy="27.4183" r="0.5000" /> 
</g>
<g style="fill:#000000; fill-opacity:1.0000; stroke:none;">
<circle cx="96.4378" cy="24.8782" r="0.5000" /> 
</g>
<g style="fill:#000000; fill-opacity:1.0000; stroke:none;">
<circle cx="96.4378" cy="22.3382" r="0.5000" /> 
</g>
<g style="fill:#000000; fill-opacity:1.0000; stroke:none;">
<circle cx="96.4378" cy="19.7982" r="0.5000" /> 
</g>
<g style="fill:#000000; fill-opacity:1.0000; stroke:none;">
<circle cx="96.4578" cy="17.2282" r="0.5000" /> 
</g>
<g style="fill:#000000; fill-opacity:1.0000; stroke:none;">
<circle cx="93.9478" cy="15.9682" r="0.9000" /> 
</g>
<g style="fill:#000000; fill-opacity:1.0000; stroke:none;">
<circle cx="93.9478" cy="18.5083" r="0.9000" /> 
<path style="fill:#000000; fill-opacity:1.0000; stroke:none;fill-rule:evenodd;"
d="M 94.8478,21.4982
94.8399,21.5819
94.7956,21.7085
94.7160,21.8164
94.6080,21.8961
94.4814,21.9404
94.3978,21.9482
93.4978,21.9482
93.4141,21.9404
93.2875,21.8961
93.1796,21.8164
93.0999,21.7085
93.0556,21.5819
93.0478,21.4982
93.0478,20.5983
93.0556,20.5146
93.0999,20.3880
93.1796,20.2801
93.2875,20.2004
93.4141,20.1561
93.4978,20.1482
94.3978,20.1482
94.4814,20.1561
94.6080,20.2004
94.7160,20.2801
94.7956,20.3880
94.8399,20.5146
94.8478,20.5983
Z" /> 
<path style="fill:#000000; fill-opacity:1.0000; stroke:none;fill-rule:evenodd;"
d="M 94.8478,24.0382
94.8399,24.1219
94.7956,24.2485
94.7160,24.3564
94.6080,24.4361
94.4814,24.4804
94.3978,24.4882
93.4978,24.4882
93.4141,24.4804
93.2875,24.4361
93.1796,24.3564
93.0999,24.2485
93.0556,24.1219
93.0478,24.0382
93.0478,23.1382
93.0556,23.0546
93.0999,22.9280
93.1796,22.8201
93.2875,22.7404
93.4141,22.6961
93.4978,22.6883
94.3978,22.6883
94.4814,22.6961
94.6080,22.7404
94.7160,22.8201
94.7956,22.9280
94.8399,23.0546
94.8478,23.1382
Z" /> 
</g>
<g style="fill:#000000; fill-opacity:1.0000; stroke:none;">
<circle cx="93.9478" cy="26.1282" r="0.9000" /> 
</g>
<g style="fill:#000000; fill-opacity:1.0000; stroke:none;">
<circle cx="93.9478" cy="28.6683" r="0.9000" /> 
</g>
<g style="fill:#000000; fill-opacity:1.0000; stroke:none;">
<circle cx="93.9478" cy="31.2082" r="0.9000" /> 
</g>
<g style="fill:#000000; fill-opacity:1.0000; stroke:none;">
<circle cx="93.9478" cy="33.7482" r="0.9000" /> 
</g>
<g style="fill:#000000; fill-opacity:1.0000; stroke:none;">
<circle cx="93.9478" cy="36.2882" r="0.9000" /> 
</g>
<g style="fill:#000000; fill-opacity:1.0000; stroke:none;">
<circle cx="93.9478" cy="38.8282" r="0.9000" /> 
</g>
<g style="fill:#000000; fill-opacity:1.0000; stroke:none;">
<circle cx="93.9478" cy="41.3682" r="0.9000" /> 
</g>
<g style="fill:#000000; fill-opacity:1.0000; stroke:none;">
<circle cx="93.9478" cy="43.9082" r="0.9000" /> 
</g>
<g style="fill:#000000; fill-opacity:1.0000; stroke:none;">
<circle cx="109.1878" cy="43.9082" r="0.9000" /> 
</g>
<g style="fill:#000000; fill-opacity:1.0000; stroke:none;">
<circle cx="109.1878" cy="41.3682" r="0.9000" /> 
</g>
<g style="fill:#000000; fill-opacity:1.0000; stroke:none;">
<circle cx="109.1878" cy="38.8282" r="0.9000" /> 
</g>
<g style="fill:#000000; fill-opacity:1.0000; stroke:none;">
<circle cx="109.1878" cy="36.2882" r="0.9000" /> 
</g>
<g style="fill:#000000; fill-opacity:1.0000; stroke:none;">
<circle cx="109.1878" cy="33.7482" r="0.9000" /> 
</g>
<g style="fill:#000000; fill-opacity:1.0000; stroke:none;">
<circle cx="109.1878" cy="31.2082" r="0.9000" /> 
</g>
<g style="fill:#000000; fill-opacity:1.0000; stroke:none;">
<circle cx="109.1878" cy="28.6683" r="0.9000" /> 
</g>
<g style="fill:#000000; fill-opacity:1.0000; stroke:none;">
<circle cx="109.1878" cy="26.1282" r="0.9000" /> 
</g>
<g style="fill:#000000; fill-opacity:1.0000; stroke:none;">
<circle cx="109.1878" cy="23.5882" r="0.9000" /> 
</g>
<g style="fill:#000000; fill-opacity:1.0000; stroke:none;">
<circle cx="109.1878" cy="21.0482" r="0.9000" /> 
<path style="fill:#000000; fill-opacity:1.0000; stroke:none;fill-rule:evenodd;"
d="M 110.0878,18.9582
110.0799,19.0419
110.0356,19.1685
109.9560,19.2764
109.8480,19.3561
109.7214,19.4004
109.6378,19.4082
108.7378,19.4082
108.6541,19.4004
108.5275,19.3561
108.4196,19.2764
108.3399,19.1685
108.2956,19.0419
108.2878,18.9582
108.2878,18.0582
108.2956,17.9746
108.3399,17.8480
108.4196,17.7401
108.5275,17.6604
108.6541,17.6161
108.7378,17.6082
109.6378,17.6082
109.7214,17.6161
109.8480,17.6604
109.9560,17.7401
110.0356,17.8480
110.0799,17.9746
110.0878,18.0582
Z" /> 
</g>
<g style="fill:#000000; fill-opacity:1.0000; stroke:none;">
<circle cx="109.1678" cy="15.9383" r="0.9000" /> 
</g>
<g style="fill:#000000; fill-opacity:1.0000; stroke:none;">
<circle cx="102.0178" cy="21.9482" r="0.8500" /> 
<path style="fill:#000000; fill-opacity:1.0000; stroke:none;fill-rule:evenodd;"
d="M 105.4078,22.7982
103.7078,22.7982
103.7078,21.0983
105.4078,21.0983
Z" /> 
<path style="fill:#000000; fill-opacity:1.0000; stroke:none;fill-rule:evenodd;"
d="M 112.8378,49.1232
112.8378,50.5732
112.0378,50.5732
112.0378,49.1232
Z" /> 
<path style="fill:#000000; fill-opacity:1.0000; stroke:none;fill-rule:evenodd;"
d="M 112.8378,56.5233
112.8378,57.9733
112.0378,57.9733
112.0378,56.5233
Z" /> 
<path style="fill:#000000; fill-opacity:1.0000; stroke:none;fill-rule:evenodd;"
d="M 110.5728,51.8982
108.1378,51.8982
108.1378,50.7982
110.5728,50.7982
Z" /> 
<path style="fill:#000000; fill-opacity:1.0000; stroke:none;fill-rule:evenodd;"
d="M 110.5728,56.2982
108.1378,56.2982
108.1378,55.1982
110.5728,55.1982
Z" /> 
<path style="fill:#000000; fill-opacity:1.0000; stroke:none;fill-rule:evenodd;"
d="M 97.6878,14.0482
97.6878,13.2482
98.6878,13.2482
98.6878,14.0482
Z" /> 
<path style="fill:#000000; fill-opacity:1.0000; stroke:none;fill-rule:evenodd;"
d="M 105.1878,14.0482
105.1878,13.2482
106.1878,13.2482
106.1878,14.0482
Z" /> 
<path style="fill:#000000; fill-opacity:1.0000; stroke:none;fill-rule:evenodd;"
d="M 100.7148,17.8733
100.7148,15.8733
101.5148,15.8733
101.5148,17.8733
Z" /> 
<path style="fill:#000000; fill-opacity:1.0000; stroke:none;fill-rule:evenodd;"
d="M 103.7148,17.8733
103.7148,15.8733
104.5148,15.8733
104.5148,17.8733
Z" /> 
<path style="fill:#000000; fill-opacity:1.0000; stroke:none;fill-rule:evenodd;"
d="M 99.2148,17.8733
99.2148,15.8733
100.0148,15.8733
100.0148,17.8733
Z" /> 
<circle cx="111.6778" cy="17.2583" r="0.9000" /> 
</g>
<g style="fill:#000000; fill-opacity:1.0000; stroke:none;">
<circle cx="111.6778" cy="19.7982" r="0.9000" /> 
<path style="fill:#000000; fill-opacity:1.0000; stroke:none;fill-rule:evenodd;"
d="M 110.7778,21.8882
110.7856,21.8046
110.8299,21.6780
110.9096,21.5701
111.0175,21.4904
111.1441,21.4461
111.2278,21.4383
112.1278,21.4383
112.2114,21.4461
112.3380,21.4904
112.4460,21.5701
112.5256,21.6780
112.5699,21.8046
112.5778,21.8882
112.5778,22.7882
112.5699,22.8719
112.5256,22.9985
112.4460,23.1064
112.3380,23.1861
112.2114,23.2304
112.1278,23.2382
111.2278,23.2382
111.1441,23.2304
111.0175,23.1861
110.9096,23.1064
110.8299,22.9985
110.7856,22.8719
110.7778,22.7882
Z" /> 
<path style="fill:#000000; fill-opacity:1.0000; stroke:none;fill-rule:evenodd;"
d="M 110.7778,24.4282
110.7856,24.3446
110.8299,24.2180
110.9096,24.1101
111.0175,24.0304
111.1441,23.9861
111.2278,23.9782
112.1278,23.9782
112.2114,23.9861
112.3380,24.0304
112.4460,24.1101
112.5256,24.2180
112.5699,24.3446
112.5778,24.4282
112.5778,25.3283
112.5699,25.4119
112.5256,25.5385
112.4460,25.6464
112.3380,25.7261
112.2114,25.7704
112.1278,25.7782
111.2278,25.7782
111.1441,25.7704
111.0175,25.7261
110.9096,25.6464
110.8299,25.5385
110.7856,25.4119
110.7778,25.3283
Z" /> 
</g>
<g style="fill:#000000; fill-opacity:1.0000; stroke:none;">
<circle cx="111.6778" cy="27.4183" r="0.9000" /> 
</g>
<g style="fill:#000000; fill-opacity:1.0000; stroke:none;">
<circle cx="111.6778" cy="29.9582" r="0.9000" /> 
</g>
<g style="fill:#000000; fill-opacity:1.0000; stroke:none;">
<circle cx="111.6778" cy="32.4982" r="0.9000" /> 
</g>
<g style="fill:#000000; fill-opacity:1.0000; stroke:none;">
<circle cx="111.6778" cy="35.0382" r="0.9000" /> 
</g>
<g style="fill:#000000; fill-opacity:1.0000; stroke:none;">
<circle cx="111.6778" cy="37.5782" r="0.9000" /> 
</g>
<g style="fill:#000000; fill-opacity:1.0000; stroke:none;">
<circle cx="111.6778" cy="40.1182" r="0.9000" /> 
</g>
<g style="fill:#000000; fill-opacity:1.0000; stroke:none;">
<circle cx="111.6778" cy="42.6582" r="0.9000" /> 
</g>
<g style="fill:#000000; fill-opacity:1.0000; stroke:none;">
<circle cx="111.6778" cy="45.1982" r="0.9000" /> 
</g>
<g style="fill:#000000; fill-opacity:1.0000; stroke:none;">
<circle cx="96.4378" cy="45.1982" r="0.9000" /> 
</g>
<g style="fill:#000000; fill-opacity:1.0000; stroke:none;">
<circle cx="96.4378" cy="42.6582" r="0.9000" /> 
</g>
<g style="fill:#000000; fill-opacity:1.0000; stroke:none;">
<circle cx="96.4378" cy="40.1182" r="0.9000" /> 
</g>
<g style="fill:#000000; fill-opacity:1.0000; stroke:none;">
<circle cx="96.4378" cy="37.5782" r="0.9000" /> 
</g>
<g style="fill:#000000; fill-opacity:1.0000; stroke:none;">
<circle cx="96.4378" cy="35.0382" r="0.9000" /> 
</g>
<g style="fill:#000000; fill-opacity:1.0000; stroke:none;">
<circle cx="96.4378" cy="32.4982" r="0.9000" /> 
</g>
<g style="fill:#000000; fill-opacity:1.0000; stroke:none;">
<circle cx="96.4378" cy="29.9582" r="0.9000" /> 
</g>
<g style="fill:#000000; fill-opacity:1.0000; stroke:none;">
<circle cx="96.4378" cy="27.4183" r="0.9000" /> 
</g>
<g style="fill:#000000; fill-opacity:1.0000; stroke:none;">
<circle cx="96.4378" cy="24.8782" r="0.9000" /> 
</g>
<g style="fill:#000000; fill-opacity:1.0000; stroke:none;">
<circle cx="96.4378" cy="22.3382" r="0.9000" /> 
<path style="fill:#000000; fill-opacity:1.0000; stroke:none;fill-rule:evenodd;"
d="M 95.5378,19.3483
95.5456,19.2646
95.5899,19.1380
95.6696,19.0301
95.7775,18.9504
95.9041,18.9061
95.9878,18.8983
96.8878,18.8983
96.9714,18.9061
97.0980,18.9504
97.2060,19.0301
97.2856,19.1380
97.3299,19.2646
97.3378,19.3483
97.3378,20.2482
97.3299,20.3319
97.2856,20.4585
97.2060,20.5664
97.0980,20.6461
96.9714,20.6904
96.8878,20.6982
95.9878,20.6982
95.9041,20.6904
95.7775,20.6461
95.6696,20.5664
95.5899,20.4585
95.5456,20.3319
95.5378,20.2482
Z" /> 
</g>
<g style="fill:#000000; fill-opacity:1.0000; stroke:none;">
<circle cx="96.4578" cy="17.2282" r="0.9000" /> 
</g>
<g style="fill:none; 
stroke:#FFFFFF; stroke-width:0.5080; stroke-opacity:1; 
stroke-linecap:round; stroke-linejoin:round;">
<path d="M86.0691 78.3925
L92.8151 66.7081
" />
<path d="M92.8611 66.6365
L104.5455 73.3825
" />
<path d="M86.0456 78.4413
L97.7300 85.1873
" />
<path d="M97.7854 85.0992
L104.5314 73.4148
" />
<path d="M68.3498 72.7150
L71.8418 59.6827
" />
<path d="M71.8676 59.6016
L84.8999 63.0936
" />
<path d="M68.3397 72.7682
L81.3719 76.2602
" />
<path d="M81.4027 76.1607
L84.8947 63.1285
" />
<path d="M50.3378 71.2942
L50.3378 57.8023
" />
<path d="M50.3418 57.7172
L63.8338 57.7172
" />
<path d="M50.3418 71.3482
L63.8338 71.3482
" />
<path d="M63.8378 71.2442
L63.8378 57.7522
" />
<path d="M76.0778 55.3522
L76.0778 41.8603
" />
<path d="M76.0818 41.7752
L89.5738 41.7752
" />
<path d="M76.0818 55.4062
L89.5738 55.4062
" />
<path d="M89.5778 55.3023
L89.5778 41.8102
" />
<path d="M58.0918 52.9442
L58.0918 39.4522
" />
<path d="M58.0958 39.3672
L71.5878 39.3672
" />
<path d="M58.0958 52.9982
L71.5878 52.9982
" />
<path d="M71.5918 52.8942
L71.5918 39.4022
" />
<path d="M40.0478 50.5523
L40.0478 37.0602
" />
<path d="M40.0518 36.9752
L53.5438 36.9752
" />
<path d="M40.0518 50.6062
L53.5438 50.6062
" />
<path d="M53.5478 50.5022
L53.5478 37.0102
" />
<path d="M22.0078 52.9222
L22.0078 39.4303
" />
<path d="M22.0118 39.3453
L35.5038 39.3453
" />
<path d="M22.0118 52.9763
L35.5038 52.9763
" />
<path d="M35.5078 52.8723
L35.5078 39.3802
" />
<path d="M3.9898 59.4622
L3.9898 45.9703
" />
<path d="M3.9938 45.8852
L17.4858 45.8852
" />
<path d="M3.9938 59.5162
L17.4858 59.5162
" />
<path d="M17.4898 59.4123
L17.4898 45.9202
" />
<path d="M76.0778 38.3342
L76.0778 24.8422
" />
<path d="M76.0818 24.7572
L89.5738 24.7572
" />
<path d="M76.0818 38.3882
L89.5738 38.3882
" />
<path d="M89.5778 38.2843
L89.5778 24.7922
" />
<path d="M58.0918 35.9262
L58.0918 22.4342
" />
<path d="M58.0958 22.3492
L71.5878 22.3492
" />
<path d="M58.0958 35.9802
L71.5878 35.9802
" />
<path d="M71.5918 35.8762
L71.5918 22.3842
" />
<path d="M40.0478 33.5343
L40.0478 20.0422
" />
<path d="M40.0518 19.9572
L53.5438 19.9572
" />
<path d="M40.0518 33.5882
L53.5438 33.5882
" />
<path d="M53.5478 33.4842
L53.5478 19.9922
" />
<path d="M22.0078 35.9042
L22.0078 22.4123
" />
<path d="M22.0118 22.3272
L35.5038 22.3272
" />
<path d="M22.0118 35.9582
L35.5038 35.9582
" />
<path d="M35.5078 35.8543
L35.5078 22.3622
" />
<path d="M3.9898 42.4442
L3.9898 28.9522
" />
<path d="M3.9938 28.8672
L17.4858 28.8672
" />
<path d="M3.9938 42.4982
L17.4858 42.4982
" />
<path d="M17.4898 42.3942
L17.4898 28.9022
" />
<path d="M76.1258 21.2942
L76.1258 7.8022
" />
<path d="M76.1298 7.7172
L89.6218 7.7172
" />
<path d="M76.1298 21.3483
L89.6218 21.3483
" />
<path d="M89.6258 21.2442
L89.6258 7.7523
" />
<path d="M58.0918 18.9142
L58.0918 5.4223
" />
<path d="M58.0958 5.3373
L71.5878 5.3373
" />
<path d="M58.0958 18.9682
L71.5878 18.9682
" />
<path d="M71.5918 18.8642
L71.5918 5.3723
" />
<path d="M40.0478 16.5542
L40.0478 3.0622
" />
<path d="M40.0518 2.9772
L53.5438 2.9772
" />
<path d="M40.0518 16.6082
L53.5438 16.6082
" />
<path d="M53.5478 16.5042
L53.5478 3.0122
" />
<path d="M22.0478 18.9142
L22.0478 5.4223
" />
<path d="M22.0518 5.3373
L35.5438 5.3373
" />
<path d="M22.0518 18.9682
L35.5438 18.9682
" />
<path d="M35.5478 18.8642
L35.5478 5.3723
" />
<path d="M4.0478 25.4742
L4.0478 11.9822
" />
<path d="M4.0518 11.8972
L17.5438 11.8972
" />
<path d="M4.0518 25.5282
L17.5438 25.5282
" />
<path d="M17.5478 25.4242
L17.5478 11.9322
" />
</g>
<g style="fill:#FFFFFF; fill-opacity:1.0000; stroke:none;">
<circle cx="75.4878" cy="4.0482" r="1.1000" /> 
</g>
<g style="fill:#FFFFFF; fill-opacity:1.0000; stroke:none;">
<circle cx="28.7878" cy="58.0482" r="1.1000" /> 
</g>
<g style="fill:#FFFFFF; fill-opacity:1.0000; stroke:none;">
<circle cx="103.4478" cy="64.3782" r="1.1000" /> 
</g>
<g style="fill:#FFFFFF; fill-opacity:1.0000; stroke:none;">
<circle cx="15.3878" cy="8.0682" r="1.1000" /> 
</g>
<g style="fill:#FFFFFF; fill-opacity:1.0000; stroke:none;">
<circle cx="93.9478" cy="15.9682" r="0.5000" /> 
</g>
<g style="fill:#FFFFFF; fill-opacity:1.0000; stroke:none;">
<circle cx="93.9478" cy="18.5083" r="0.5000" /> 
</g>
<g style="fill:#FFFFFF; fill-opacity:1.0000; stroke:none;">
<circle cx="93.9478" cy="21.0482" r="0.5000" /> 
</g>
<g style="fill:#FFFFFF; fill-opacity:1.0000; stroke:none;">
<circle cx="93.9478" cy="23.5882" r="0.5000" /> 
</g>
<g style="fill:#FFFFFF; fill-opacity:1.0000; stroke:none;">
<circle cx="93.9478" cy="26.1282" r="0.5000" /> 
</g>
<g style="fill:#FFFFFF; fill-opacity:1.0000; stroke:none;">
<circle cx="93.9478" cy="28.6683" r="0.5000" /> 
</g>
<g style="fill:#FFFFFF; fill-opacity:1.0000; stroke:none;">
<circle cx="93.9478" cy="31.2082" r="0.5000" /> 
</g>
<g style="fill:#FFFFFF; fill-opacity:1.0000; stroke:none;">
<circle cx="93.9478" cy="33.7482" r="0.5000" /> 
</g>
<g style="fill:#FFFFFF; fill-opacity:1.0000; stroke:none;">
<circle cx="93.9478" cy="36.2882" r="0.5000" /> 
</g>
<g style="fill:#FFFFFF; fill-opacity:1.0000; stroke:none;">
<circle cx="93.9478" cy="38.8282" r="0.5000" /> 
</g>
<g style="fill:#FFFFFF; fill-opacity:1.0000; stroke:none;">
<circle cx="93.9478" cy="41.3682" r="0.5000" /> 
</g>
<g style="fill:#FFFFFF; fill-opacity:1.0000; stroke:none;">
<circle cx="93.9478" cy="43.9082" r="0.5000" /> 
</g>
<g style="fill:#FFFFFF; fill-opacity:1.0000; stroke:none;">
<circle cx="109.1878" cy="43.9082" r="0.5000" /> 
</g>
<g style="fill:#FFFFFF; fill-opacity:1.0000; stroke:none;">
<circle cx="109.1878" cy="41.3682" r="0.5000" /> 
</g>
<g style="fill:#FFFFFF; fill-opacity:1.0000; stroke:none;">
<circle cx="109.1878" cy="38.8282" r="0.5000" /> 
</g>
<g style="fill:#FFFFFF; fill-opacity:1.0000; stroke:none;">
<circle cx="109.1878" cy="36.2882" r="0.5000" /> 
</g>
<g style="fill:#FFFFFF; fill-opacity:1.0000; stroke:none;">
<circle cx="109.1878" cy="33.7482" r="0.5000" /> 
</g>
<g style="fill:#FFFFFF; fill-opacity:1.0000; stroke:none;">
<circle cx="109.1878" cy="31.2082" r="0.5000" /> 
</g>
<g style="fill:#FFFFFF; fill-opacity:1.0000; stroke:none;">
<circle cx="109.1878" cy="28.6683" r="0.5000" /> 
</g>
<g style="fill:#FFFFFF; fill-opacity:1.0000; stroke:none;">
<circle cx="109.1878" cy="26.1282" r="0.5000" /> 
</g>
<g style="fill:#FFFFFF; fill-opacity:1.0000; stroke:none;">
<circle cx="109.1878" cy="23.5882" r="0.5000" /> 
</g>
<g style="fill:#FFFFFF; fill-opacity:1.0000; stroke:none;">
<circle cx="109.1878" cy="21.0482" r="0.5000" /> 
</g>
<g style="fill:#FFFFFF; fill-opacity:1.0000; stroke:none;">
<circle cx="109.1878" cy="18.5083" r="0.5000" /> 
</g>
<g style="fill:#FFFFFF; fill-opacity:1.0000; stroke:none;">
<circle cx="109.1678" cy="15.9383" r="0.5000" /> 
</g>
<g style="fill:#FFFFFF; fill-opacity:1.0000; stroke:none;">
<circle cx="102.0178" cy="21.9482" r="0.5000" /> 
</g>
<g style="fill:#FFFFFF; fill-opacity:1.0000; stroke:none;">
<circle cx="104.5578" cy="21.9482" r="0.5000" /> 
</g>
<g style="fill:#FFFFFF; fill-opacity:1.0000; stroke:none;">
<circle cx="111.5378" cy="52.4482" r="0.4500" /> 
</g>
<g style="fill:#FFFFFF; fill-opacity:1.0000; stroke:none;">
<circle cx="111.5378" cy="54.6482" r="0.4500" /> 
</g>
<g style="fill:#FFFFFF; fill-opacity:1.0000; stroke:none;">
<circle cx="100.4378" cy="14.7733" r="0.4000" /> 
</g>
<g style="fill:#FFFFFF; fill-opacity:1.0000; stroke:none;">
<circle cx="103.4378" cy="14.7733" r="0.4000" /> 
</g>
<g style="fill:#FFFFFF; fill-opacity:1.0000; stroke:none;">
<circle cx="111.6778" cy="17.2583" r="0.5000" /> 
</g>
<g style="fill:#FFFFFF; fill-opacity:1.0000; stroke:none;">
<circle cx="111.6778" cy="19.7982" r="0.5000" /> 
</g>
<g style="fill:#FFFFFF; fill-opacity:1.0000; stroke:none;">
<circle cx="111.6778" cy="22.3382" r="0.5000" /> 
</g>
<g style="fill:#FFFFFF; fill-opacity:1.0000; stroke:none;">
<circle cx="111.6778" cy="24.8782" r="0.5000" /> 
</g>
<g style="fill:#FFFFFF; fill-opacity:1.0000; stroke:none;">
<circle cx="111.6778" cy="27.4183" r="0.5000" /> 
</g>
<g style="fill:#FFFFFF; fill-opacity:1.0000; stroke:none;">
<circle cx="111.6778" cy="29.9582" r="0.5000" /> 
</g>
<g style="fill:#FFFFFF; fill-opacity:1.0000; stroke:none;">
<circle cx="111.6778" cy="32.4982" r="0.5000" /> 
</g>
<g style="fill:#FFFFFF; fill-opacity:1.0000; stroke:none;">
<circle cx="111.6778" cy="35.0382" r="0.5000" /> 
</g>
<g style="fill:#FFFFFF; fill-opacity:1.0000; stroke:none;">
<circle cx="111.6778" cy="37.5782" r="0.5000" /> 
</g>
<g style="fill:#FFFFFF; fill-opacity:1.0000; stroke:none;">
<circle cx="111.6778" cy="40.1182" r="0.5000" /> 
</g>
<g style="fill:#FFFFFF; fill-opacity:1.0000; stroke:none;">
<circle cx="111.6778" cy="42.6582" r="0.5000" /> 
</g>
<g style="fill:#FFFFFF; fill-opacity:1.0000; stroke:none;">
<circle cx="111.6778" cy="45.1982" r="0.5000" /> 
</g>
<g style="fill:#FFFFFF; fill-opacity:1.0000; stroke:none;">
<circle cx="96.4378" cy="45.1982" r="0.5000" /> 
</g>
<g style="fill:#FFFFFF; fill-opacity:1.0000; stroke:none;">
<circle cx="96.4378" cy="42.6582" r="0.5000" /> 
</g>
<g style="fill:#FFFFFF; fill-opacity:1.0000; stroke:none;">
<circle cx="96.4378" cy="40.1182" r="0.5000" /> 
</g>
<g style="fill:#FFFFFF; fill-opacity:1.0000; stroke:none;">
<circle cx="96.4378" cy="37.5782" r="0.5000" /> 
</g>
<g style="fill:#FFFFFF; fill-opacity:1.0000; stroke:none;">
<circle cx="96.4378" cy="35.0382" r="0.5000" /> 
</g>
<g style="fill:#FFFFFF; fill-opacity:1.0000; stroke:none;">
<circle cx="96.4378" cy="32.4982" r="0.5000" /> 
</g>
<g style="fill:#FFFFFF; fill-opacity:1.0000; stroke:none;">
<circle cx="96.4378" cy="29.9582" r="0.5000" /> 
</g>
<g style="fill:#FFFFFF; fill-opacity:1.0000; stroke:none;">
<circle cx="96.4378" cy="27.4183" r="0.5000" /> 
</g>
<g style="fill:#FFFFFF; fill-opacity:1.0000; stroke:none;">
<circle cx="96.4378" cy="24.8782" r="0.5000" /> 
</g>
<g style="fill:#FFFFFF; fill-opacity:1.0000; stroke:none;">
<circle cx="96.4378" cy="22.3382" r="0.5000" /> 
</g>
<g style="fill:#FFFFFF; fill-opacity:1.0000; stroke:none;">
<circle cx="96.4378" cy="19.7982" r="0.5000" /> 
</g>
<g style="fill:#FFFFFF; fill-opacity:1.0000; stroke:none;">
<circle cx="96.4578" cy="17.2282" r="0.5000" /> 
</g> 
</svg>
