999
"DXF R12 Output" (www.mydxf.blogspot.com)
 0 
SECTION
 2 
HEADER
 9 
$ACADVER
 1 
AC1009
 9 
$EXTMIN
 10 
 0 
 20 
 0 
 9 
$EXTMAX
 10 
 8.5 
 20 
 11 
 0 
ENDSEC
 0 
SECTION
 2 
ENTITIES
0
LINE
8
Layer 1
10
102.970860
20
73.689379
11
102.662108
21
73.766851
0
LINE
8
Layer 1
10
102.662108
20
73.766851
11
102.559190
21
73.999267
0
LINE
8
Layer 1
10
102.559190
20
73.999267
11
102.559190
21
74.626856
0
LINE
8
Layer 1
10
102.559190
20
74.626856
11
102.739740
21
74.626856
0
LINE
8
Layer 1
10
102.739740
20
74.626856
11
102.739740
21
73.999267
0
LINE
8
Layer 1
10
102.739740
20
73.999267
11
102.795740
21
73.859948
0
LINE
8
Layer 1
10
102.795740
20
73.859948
11
102.974490
21
73.813078
0
LINE
8
Layer 1
10
102.974490
20
73.813078
11
103.209210
21
73.999271
0
LINE
8
Layer 1
10
103.209210
20
73.999271
11
103.209210
21
74.626860
0
LINE
8
Layer 1
10
103.209210
20
74.626860
11
103.389760
21
74.626860
0
LINE
8
Layer 1
10
103.389760
20
74.626860
11
103.389760
21
73.999271
0
LINE
8
Layer 1
10
103.389760
20
73.999271
11
103.283240
21
73.766855
0
LINE
8
Layer 1
10
103.283240
20
73.766855
11
102.970880
21
73.689385
0
LINE
8
Layer 1
10
102.970880
20
73.689385
11
102.970860
21
73.689379
0
LINE
8
Layer 1
10
104.013560
20
73.689379
11
103.808630
21
73.702399
0
LINE
8
Layer 1
10
103.808630
20
73.702399
11
103.632590
21
73.740159
0
LINE
8
Layer 1
10
103.632590
20
73.740159
11
103.656090
21
73.871666
0
LINE
8
Layer 1
10
103.656090
20
73.871666
11
103.847480
21
73.824796
0
LINE
8
Layer 1
10
103.847480
20
73.824796
11
104.028040
21
73.809166
0
LINE
8
Layer 1
10
104.028040
20
73.809166
11
104.215820
21
73.841066
0
LINE
8
Layer 1
10
104.215820
20
73.841066
11
104.277220
21
73.938066
0
LINE
8
Layer 1
10
104.277220
20
73.938066
11
104.159850
21
74.059157
0
LINE
8
Layer 1
10
104.159850
20
74.059157
11
103.937770
21
74.132077
0
LINE
8
Layer 1
10
103.937770
20
74.132077
11
103.736450
21
74.235590
0
LINE
8
Layer 1
10
103.736450
20
74.235590
11
103.666950
21
74.385976
0
LINE
8
Layer 1
10
103.666950
20
74.385976
11
103.768060
21
74.573472
0
LINE
8
Layer 1
10
103.768060
20
74.573472
11
104.054240
21
74.639872
0
LINE
8
Layer 1
10
104.054240
20
74.639872
11
104.282640
21
74.612532
0
LINE
8
Layer 1
10
104.282640
20
74.612532
11
104.474030
21
74.523342
0
LINE
8
Layer 1
10
104.474030
20
74.523342
11
104.347640
21
74.430892
0
LINE
8
Layer 1
10
104.347640
20
74.430892
11
104.198680
21
74.498602
0
LINE
8
Layer 1
10
104.198680
20
74.498602
11
104.055140
21
74.520082
0
LINE
8
Layer 1
10
104.055140
20
74.520082
11
103.910700
21
74.487532
0
LINE
8
Layer 1
10
103.910700
20
74.487532
11
103.860100
21
74.392482
0
LINE
8
Layer 1
10
103.860100
20
74.392482
11
103.893500
21
74.318912
0
LINE
8
Layer 1
10
103.893500
20
74.318912
11
103.991900
21
74.268782
0
LINE
8
Layer 1
10
103.991900
20
74.268782
11
104.179680
21
74.204982
0
LINE
8
Layer 1
10
104.179680
20
74.204982
11
104.396340
21
74.096261
0
LINE
8
Layer 1
10
104.396340
20
74.096261
11
104.470340
21
73.940666
0
LINE
8
Layer 1
10
104.470340
20
73.940666
11
104.356590
21
73.751869
0
LINE
8
Layer 1
10
104.356590
20
73.751869
11
104.013530
21
73.689369
0
LINE
8
Layer 1
10
104.013530
20
73.689369
11
104.013560
21
73.689379
0
LINE
8
Layer 1
10
104.911830
20
73.702399
11
104.911830
21
73.826094
0
LINE
8
Layer 1
10
104.911830
20
73.826094
11
105.182660
21
73.826094
0
LINE
8
Layer 1
10
105.182660
20
73.826094
11
105.367730
21
73.865154
0
LINE
8
Layer 1
10
105.367730
20
73.865154
11
105.433630
21
73.975829
0
LINE
8
Layer 1
10
105.433630
20
73.975829
11
105.365030
21
74.088456
0
LINE
8
Layer 1
10
105.365030
20
74.088456
11
105.170030
21
74.128816
0
LINE
8
Layer 1
10
105.170030
20
74.128816
11
104.915450
21
74.128816
0
LINE
8
Layer 1
10
104.915450
20
74.128816
11
104.893750
21
74.188056
0
LINE
8
Layer 1
10
104.893750
20
74.188056
11
105.215140
21
74.188056
0
LINE
8
Layer 1
10
105.215140
20
74.188056
11
105.516670
21
74.127506
0
LINE
8
Layer 1
10
105.516670
20
74.127506
11
105.623200
21
73.956287
0
LINE
8
Layer 1
10
105.623200
20
73.956287
11
105.522090
21
73.768791
0
LINE
8
Layer 1
10
105.522090
20
73.768791
11
105.235000
21
73.702391
0
LINE
8
Layer 1
10
105.235000
20
73.702391
11
104.911830
21
73.702399
0
LINE
8
Layer 1
10
104.743910
20
73.702399
11
104.743910
21
74.626855
0
LINE
8
Layer 1
10
104.743910
20
74.626855
11
104.924470
21
74.626855
0
LINE
8
Layer 1
10
104.924470
20
74.626855
11
104.924470
21
73.702400
0
LINE
8
Layer 1
10
104.924470
20
73.702400
11
104.743910
21
73.702399
0
LINE
8
Layer 1
10
104.850440
20
74.156815
11
104.850440
21
74.220615
0
LINE
8
Layer 1
10
104.850440
20
74.220615
11
105.225990
21
74.220615
0
LINE
8
Layer 1
10
105.225990
20
74.220615
11
105.225990
21
74.156815
0
LINE
8
Layer 1
10
105.225990
20
74.156815
11
104.850440
21
74.156815
0
LINE
8
Layer 1
10
104.911840
20
74.193275
11
104.911840
21
74.252515
0
LINE
8
Layer 1
10
104.911840
20
74.252515
11
105.128500
21
74.252515
0
LINE
8
Layer 1
10
105.128500
20
74.252515
11
105.286490
21
74.285065
0
LINE
8
Layer 1
10
105.286490
20
74.285065
11
105.343390
21
74.379465
0
LINE
8
Layer 1
10
105.343390
20
74.379465
11
105.283790
21
74.471255
0
LINE
8
Layer 1
10
105.283790
20
74.471255
11
105.115880
21
74.503155
0
LINE
8
Layer 1
10
105.115880
20
74.503155
11
104.915460
21
74.503155
0
LINE
8
Layer 1
10
104.915460
20
74.503155
11
104.893760
21
74.626850
0
LINE
8
Layer 1
10
104.893760
20
74.626850
11
105.124870
21
74.626850
0
LINE
8
Layer 1
10
105.124870
20
74.626850
11
105.426400
21
74.565650
0
LINE
8
Layer 1
10
105.426400
20
74.565650
11
105.532930
21
74.392478
0
LINE
8
Layer 1
10
105.532930
20
74.392478
11
105.431820
21
74.244695
0
LINE
8
Layer 1
10
105.431820
20
74.244695
11
105.144730
21
74.193265
0
LINE
8
Layer 1
10
105.144730
20
74.193265
11
104.911840
21
74.193275
0
LINE
8
Layer 1
10
102.795900
20
74.832600
11
102.795900
21
74.023100
0
LINE
8
Layer 1
10
102.795900
20
74.023100
11
102.843500
21
73.927800
0
LINE
8
Layer 1
10
102.843500
20
73.927800
11
102.891100
21
73.880200
0
LINE
8
Layer 1
10
102.891100
20
73.880200
11
102.986300
21
73.832600
0
LINE
8
Layer 1
10
102.986300
20
73.832600
11
103.176800
21
73.832600
0
LINE
8
Layer 1
10
103.176800
20
73.832600
11
103.272100
21
73.880200
0
LINE
8
Layer 1
10
103.272100
20
73.880200
11
103.319700
21
73.927800
0
LINE
8
Layer 1
10
103.319700
20
73.927800
11
103.367300
21
74.023100
0
LINE
8
Layer 1
10
103.367300
20
74.023100
11
103.367300
21
74.832600
0
LINE
8
Layer 1
10
103.795900
20
73.880200
11
103.938700
21
73.832600
0
LINE
8
Layer 1
10
103.938700
20
73.832600
11
104.176800
21
73.832600
0
LINE
8
Layer 1
10
104.176800
20
73.832600
11
104.272100
21
73.880200
0
LINE
8
Layer 1
10
104.272100
20
73.880200
11
104.319700
21
73.927800
0
LINE
8
Layer 1
10
104.319700
20
73.927800
11
104.367300
21
74.023100
0
LINE
8
Layer 1
10
104.367300
20
74.023100
11
104.367300
21
74.118300
0
LINE
8
Layer 1
10
104.367300
20
74.118300
11
104.319700
21
74.213500
0
LINE
8
Layer 1
10
104.319700
20
74.213500
11
104.272100
21
74.261200
0
LINE
8
Layer 1
10
104.272100
20
74.261200
11
104.176800
21
74.308800
0
LINE
8
Layer 1
10
104.176800
20
74.308800
11
103.986300
21
74.356400
0
LINE
8
Layer 1
10
103.986300
20
74.356400
11
103.891100
21
74.404000
0
LINE
8
Layer 1
10
103.891100
20
74.404000
11
103.843500
21
74.451600
0
LINE
8
Layer 1
10
103.843500
20
74.451600
11
103.795900
21
74.546900
0
LINE
8
Layer 1
10
103.795900
20
74.546900
11
103.795900
21
74.642100
0
LINE
8
Layer 1
10
103.795900
20
74.642100
11
103.843500
21
74.737300
0
LINE
8
Layer 1
10
103.843500
20
74.737300
11
103.891100
21
74.785000
0
LINE
8
Layer 1
10
103.891100
20
74.785000
11
103.986300
21
74.832600
0
LINE
8
Layer 1
10
103.986300
20
74.832600
11
104.224400
21
74.832600
0
LINE
8
Layer 1
10
104.224400
20
74.832600
11
104.367300
21
74.785000
0
LINE
8
Layer 1
10
105.129200
20
74.356400
11
105.272100
21
74.308800
0
LINE
8
Layer 1
10
105.272100
20
74.308800
11
105.319700
21
74.261200
0
LINE
8
Layer 1
10
105.319700
20
74.261200
11
105.367300
21
74.165900
0
LINE
8
Layer 1
10
105.367300
20
74.165900
11
105.367300
21
74.023100
0
LINE
8
Layer 1
10
105.367300
20
74.023100
11
105.319700
21
73.927800
0
LINE
8
Layer 1
10
105.319700
20
73.927800
11
105.272100
21
73.880200
0
LINE
8
Layer 1
10
105.272100
20
73.880200
11
105.176800
21
73.832600
0
LINE
8
Layer 1
10
105.176800
20
73.832600
11
104.795900
21
73.832600
0
LINE
8
Layer 1
10
104.795900
20
73.832600
11
104.795900
21
74.832600
0
LINE
8
Layer 1
10
104.795900
20
74.832600
11
105.129200
21
74.832600
0
LINE
8
Layer 1
10
105.129200
20
74.832600
11
105.224400
21
74.785000
0
LINE
8
Layer 1
10
105.224400
20
74.785000
11
105.272100
21
74.737300
0
LINE
8
Layer 1
10
105.272100
20
74.737300
11
105.319700
21
74.642100
0
LINE
8
Layer 1
10
105.319700
20
74.642100
11
105.319700
21
74.546900
0
LINE
8
Layer 1
10
105.319700
20
74.546900
11
105.272100
21
74.451600
0
LINE
8
Layer 1
10
105.272100
20
74.451600
11
105.224400
21
74.404000
0
LINE
8
Layer 1
10
105.224400
20
74.404000
11
105.129200
21
74.356400
0
LINE
8
Layer 1
10
105.129200
20
74.356400
11
104.795900
21
74.356400
0
LINE
8
Layer 1
10
100.480860
20
74.979379
11
100.172108
21
75.056851
0
LINE
8
Layer 1
10
100.172108
20
75.056851
11
100.069190
21
75.289267
0
LINE
8
Layer 1
10
100.069190
20
75.289267
11
100.069190
21
75.916856
0
LINE
8
Layer 1
10
100.069190
20
75.916856
11
100.249750
21
75.916856
0
LINE
8
Layer 1
10
100.249750
20
75.916856
11
100.249750
21
75.289267
0
LINE
8
Layer 1
10
100.249750
20
75.289267
11
100.305750
21
75.149948
0
LINE
8
Layer 1
10
100.305750
20
75.149948
11
100.484500
21
75.103078
0
LINE
8
Layer 1
10
100.484500
20
75.103078
11
100.719220
21
75.289271
0
LINE
8
Layer 1
10
100.719220
20
75.289271
11
100.719220
21
75.916860
0
LINE
8
Layer 1
10
100.719220
20
75.916860
11
100.899780
21
75.916860
0
LINE
8
Layer 1
10
100.899780
20
75.916860
11
100.899780
21
75.289271
0
LINE
8
Layer 1
10
100.899780
20
75.289271
11
100.793250
21
75.056855
0
LINE
8
Layer 1
10
100.793250
20
75.056855
11
100.480890
21
74.979385
0
LINE
8
Layer 1
10
100.480890
20
74.979385
11
100.480860
21
74.979379
0
LINE
8
Layer 1
10
101.523570
20
74.979379
11
101.318640
21
74.992399
0
LINE
8
Layer 1
10
101.318640
20
74.992399
11
101.142590
21
75.030159
0
LINE
8
Layer 1
10
101.142590
20
75.030159
11
101.166090
21
75.161666
0
LINE
8
Layer 1
10
101.166090
20
75.161666
11
101.357480
21
75.114796
0
LINE
8
Layer 1
10
101.357480
20
75.114796
11
101.538030
21
75.099166
0
LINE
8
Layer 1
10
101.538030
20
75.099166
11
101.725810
21
75.131066
0
LINE
8
Layer 1
10
101.725810
20
75.131066
11
101.787210
21
75.228066
0
LINE
8
Layer 1
10
101.787210
20
75.228066
11
101.669850
21
75.349157
0
LINE
8
Layer 1
10
101.669850
20
75.349157
11
101.447760
21
75.422067
0
LINE
8
Layer 1
10
101.447760
20
75.422067
11
101.246440
21
75.525580
0
LINE
8
Layer 1
10
101.246440
20
75.525580
11
101.176940
21
75.675966
0
LINE
8
Layer 1
10
101.176940
20
75.675966
11
101.278050
21
75.863462
0
LINE
8
Layer 1
10
101.278050
20
75.863462
11
101.564230
21
75.929862
0
LINE
8
Layer 1
10
101.564230
20
75.929862
11
101.792630
21
75.902522
0
LINE
8
Layer 1
10
101.792630
20
75.902522
11
101.984020
21
75.813332
0
LINE
8
Layer 1
10
101.984020
20
75.813332
11
101.857630
21
75.720882
0
LINE
8
Layer 1
10
101.857630
20
75.720882
11
101.708680
21
75.788592
0
LINE
8
Layer 1
10
101.708680
20
75.788592
11
101.565130
21
75.810072
0
LINE
8
Layer 1
10
101.565130
20
75.810072
11
101.420690
21
75.777522
0
LINE
8
Layer 1
10
101.420690
20
75.777522
11
101.370090
21
75.682472
0
LINE
8
Layer 1
10
101.370090
20
75.682472
11
101.403490
21
75.608902
0
LINE
8
Layer 1
10
101.403490
20
75.608902
11
101.501890
21
75.558772
0
LINE
8
Layer 1
10
101.501890
20
75.558772
11
101.689670
21
75.494972
0
LINE
8
Layer 1
10
101.689670
20
75.494972
11
101.906330
21
75.386251
0
LINE
8
Layer 1
10
101.906330
20
75.386251
11
101.980330
21
75.230656
0
LINE
8
Layer 1
10
101.980330
20
75.230656
11
101.866580
21
75.041859
0
LINE
8
Layer 1
10
101.866580
20
75.041859
11
101.523530
21
74.979359
0
LINE
8
Layer 1
10
101.523530
20
74.979359
11
101.523570
21
74.979379
0
LINE
8
Layer 1
10
102.421830
20
74.992399
11
102.421830
21
75.116094
0
LINE
8
Layer 1
10
102.421830
20
75.116094
11
102.692660
21
75.116094
0
LINE
8
Layer 1
10
102.692660
20
75.116094
11
102.877730
21
75.155154
0
LINE
8
Layer 1
10
102.877730
20
75.155154
11
102.943630
21
75.265828
0
LINE
8
Layer 1
10
102.943630
20
75.265828
11
102.875030
21
75.378456
0
LINE
8
Layer 1
10
102.875030
20
75.378456
11
102.680030
21
75.418816
0
LINE
8
Layer 1
10
102.680030
20
75.418816
11
102.425450
21
75.418816
0
LINE
8
Layer 1
10
102.425450
20
75.418816
11
102.403750
21
75.478056
0
LINE
8
Layer 1
10
102.403750
20
75.478056
11
102.725140
21
75.478056
0
LINE
8
Layer 1
10
102.725140
20
75.478056
11
103.026670
21
75.417506
0
LINE
8
Layer 1
10
103.026670
20
75.417506
11
103.133200
21
75.246287
0
LINE
8
Layer 1
10
103.133200
20
75.246287
11
103.032090
21
75.058791
0
LINE
8
Layer 1
10
103.032090
20
75.058791
11
102.745000
21
74.992391
0
LINE
8
Layer 1
10
102.745000
20
74.992391
11
102.421830
21
74.992399
0
LINE
8
Layer 1
10
102.253910
20
74.992399
11
102.253910
21
75.916855
0
LINE
8
Layer 1
10
102.253910
20
75.916855
11
102.434470
21
75.916855
0
LINE
8
Layer 1
10
102.434470
20
75.916855
11
102.434470
21
74.992400
0
LINE
8
Layer 1
10
102.434470
20
74.992400
11
102.253910
21
74.992399
0
LINE
8
Layer 1
10
102.360440
20
75.446815
11
102.360440
21
75.510615
0
LINE
8
Layer 1
10
102.360440
20
75.510615
11
102.736000
21
75.510615
0
LINE
8
Layer 1
10
102.736000
20
75.510615
11
102.736000
21
75.446815
0
LINE
8
Layer 1
10
102.736000
20
75.446815
11
102.360440
21
75.446815
0
LINE
8
Layer 1
10
102.421840
20
75.483275
11
102.421840
21
75.542515
0
LINE
8
Layer 1
10
102.421840
20
75.542515
11
102.638510
21
75.542515
0
LINE
8
Layer 1
10
102.638510
20
75.542515
11
102.796490
21
75.575065
0
LINE
8
Layer 1
10
102.796490
20
75.575065
11
102.853390
21
75.669465
0
LINE
8
Layer 1
10
102.853390
20
75.669465
11
102.793790
21
75.761265
0
LINE
8
Layer 1
10
102.793790
20
75.761265
11
102.625880
21
75.793165
0
LINE
8
Layer 1
10
102.625880
20
75.793165
11
102.425460
21
75.793165
0
LINE
8
Layer 1
10
102.425460
20
75.793165
11
102.403760
21
75.916860
0
LINE
8
Layer 1
10
102.403760
20
75.916860
11
102.634880
21
75.916860
0
LINE
8
Layer 1
10
102.634880
20
75.916860
11
102.936400
21
75.855660
0
LINE
8
Layer 1
10
102.936400
20
75.855660
11
103.042930
21
75.682488
0
LINE
8
Layer 1
10
103.042930
20
75.682488
11
102.941820
21
75.534705
0
LINE
8
Layer 1
10
102.941820
20
75.534705
11
102.654740
21
75.483275
0
LINE
8
Layer 1
10
102.654740
20
75.483275
11
102.421840
21
75.483275
0
LINE
8
Layer 1
10
100.305900
20
76.122600
11
100.305900
21
75.313100
0
LINE
8
Layer 1
10
100.305900
20
75.313100
11
100.353500
21
75.217800
0
LINE
8
Layer 1
10
100.353500
20
75.217800
11
100.401100
21
75.170200
0
LINE
8
Layer 1
10
100.401100
20
75.170200
11
100.496300
21
75.122600
0
LINE
8
Layer 1
10
100.496300
20
75.122600
11
100.686800
21
75.122600
0
LINE
8
Layer 1
10
100.686800
20
75.122600
11
100.782100
21
75.170200
0
LINE
8
Layer 1
10
100.782100
20
75.170200
11
100.829700
21
75.217800
0
LINE
8
Layer 1
10
100.829700
20
75.217800
11
100.877300
21
75.313100
0
LINE
8
Layer 1
10
100.877300
20
75.313100
11
100.877300
21
76.122600
0
LINE
8
Layer 1
10
101.305900
20
75.170200
11
101.448700
21
75.122600
0
LINE
8
Layer 1
10
101.448700
20
75.122600
11
101.686800
21
75.122600
0
LINE
8
Layer 1
10
101.686800
20
75.122600
11
101.782100
21
75.170200
0
LINE
8
Layer 1
10
101.782100
20
75.170200
11
101.829700
21
75.217800
0
LINE
8
Layer 1
10
101.829700
20
75.217800
11
101.877300
21
75.313100
0
LINE
8
Layer 1
10
101.877300
20
75.313100
11
101.877300
21
75.408300
0
LINE
8
Layer 1
10
101.877300
20
75.408300
11
101.829700
21
75.503500
0
LINE
8
Layer 1
10
101.829700
20
75.503500
11
101.782100
21
75.551200
0
LINE
8
Layer 1
10
101.782100
20
75.551200
11
101.686800
21
75.598800
0
LINE
8
Layer 1
10
101.686800
20
75.598800
11
101.496300
21
75.646400
0
LINE
8
Layer 1
10
101.496300
20
75.646400
11
101.401100
21
75.694000
0
LINE
8
Layer 1
10
101.401100
20
75.694000
11
101.353500
21
75.741600
0
LINE
8
Layer 1
10
101.353500
20
75.741600
11
101.305900
21
75.836900
0
LINE
8
Layer 1
10
101.305900
20
75.836900
11
101.305900
21
75.932100
0
LINE
8
Layer 1
10
101.305900
20
75.932100
11
101.353500
21
76.027300
0
LINE
8
Layer 1
10
101.353500
20
76.027300
11
101.401100
21
76.075000
0
LINE
8
Layer 1
10
101.401100
20
76.075000
11
101.496300
21
76.122600
0
LINE
8
Layer 1
10
101.496300
20
76.122600
11
101.734400
21
76.122600
0
LINE
8
Layer 1
10
101.734400
20
76.122600
11
101.877300
21
76.075000
0
LINE
8
Layer 1
10
102.639200
20
75.646400
11
102.782100
21
75.598800
0
LINE
8
Layer 1
10
102.782100
20
75.598800
11
102.829700
21
75.551200
0
LINE
8
Layer 1
10
102.829700
20
75.551200
11
102.877300
21
75.455900
0
LINE
8
Layer 1
10
102.877300
20
75.455900
11
102.877300
21
75.313100
0
LINE
8
Layer 1
10
102.877300
20
75.313100
11
102.829700
21
75.217800
0
LINE
8
Layer 1
10
102.829700
20
75.217800
11
102.782100
21
75.170200
0
LINE
8
Layer 1
10
102.782100
20
75.170200
11
102.686800
21
75.122600
0
LINE
8
Layer 1
10
102.686800
20
75.122600
11
102.305900
21
75.122600
0
LINE
8
Layer 1
10
102.305900
20
75.122600
11
102.305900
21
76.122600
0
LINE
8
Layer 1
10
102.305900
20
76.122600
11
102.639200
21
76.122600
0
LINE
8
Layer 1
10
102.639200
20
76.122600
11
102.734400
21
76.075000
0
LINE
8
Layer 1
10
102.734400
20
76.075000
11
102.782100
21
76.027300
0
LINE
8
Layer 1
10
102.782100
20
76.027300
11
102.829700
21
75.932100
0
LINE
8
Layer 1
10
102.829700
20
75.932100
11
102.829700
21
75.836900
0
LINE
8
Layer 1
10
102.829700
20
75.836900
11
102.782100
21
75.741600
0
LINE
8
Layer 1
10
102.782100
20
75.741600
11
102.734400
21
75.694000
0
LINE
8
Layer 1
10
102.734400
20
75.694000
11
102.639200
21
75.646400
0
LINE
8
Layer 1
10
102.639200
20
75.646400
11
102.305900
21
75.646400
0
LINE
8
Layer 1
10
75.437800
20
86.882400
11
74.581461
21
86.709513
0
LINE
8
Layer 1
10
74.581461
20
86.709513
11
73.882165
21
86.238035
0
LINE
8
Layer 1
10
73.882165
20
86.238035
11
73.410687
21
85.538739
0
LINE
8
Layer 1
10
73.410687
20
85.538739
11
73.237800
21
84.682400
0
LINE
8
Layer 1
10
73.237800
20
84.682400
11
73.410687
21
83.826061
0
LINE
8
Layer 1
10
73.410687
20
83.826061
11
73.882165
21
83.126765
0
LINE
8
Layer 1
10
73.882165
20
83.126765
11
74.581461
21
82.655287
0
LINE
8
Layer 1
10
74.581461
20
82.655287
11
75.437800
21
82.482400
0
LINE
8
Layer 1
10
75.437800
20
82.482400
11
76.294139
21
82.655287
0
LINE
8
Layer 1
10
76.294139
20
82.655287
11
76.993435
21
83.126765
0
LINE
8
Layer 1
10
76.993435
20
83.126765
11
77.464913
21
83.826061
0
LINE
8
Layer 1
10
77.464913
20
83.826061
11
77.637800
21
84.682400
0
LINE
8
Layer 1
10
77.637800
20
84.682400
11
77.470335
21
85.524304
0
LINE
8
Layer 1
10
77.470335
20
85.524304
11
76.993435
21
86.238035
0
LINE
8
Layer 1
10
76.993435
20
86.238035
11
76.279704
21
86.714935
0
LINE
8
Layer 1
10
76.279704
20
86.714935
11
75.437800
21
86.882400
0
LINE
8
Layer 1
10
75.437800
20
86.882400
11
75.437800
21
86.882400
0
LINE
8
Layer 1
10
28.787800
20
32.882400
11
28.142710
21
32.785803
0
LINE
8
Layer 1
10
28.142710
20
32.785803
11
27.565545
21
32.511633
0
LINE
8
Layer 1
10
27.565545
20
32.511633
11
27.091374
21
32.083323
0
LINE
8
Layer 1
10
27.091374
20
32.083323
11
26.755265
21
31.524304
0
LINE
8
Layer 1
10
26.755265
20
31.524304
11
26.597644
21
30.891352
0
LINE
8
Layer 1
10
26.597644
20
30.891352
11
26.630072
21
30.253201
0
LINE
8
Layer 1
10
26.630072
20
30.253201
11
26.844322
21
29.651217
0
LINE
8
Layer 1
10
26.844322
20
29.651217
11
27.232165
21
29.126765
0
LINE
8
Layer 1
10
27.232165
20
29.126765
11
27.756617
21
28.738922
0
LINE
8
Layer 1
10
27.756617
20
28.738922
11
28.358601
21
28.524672
0
LINE
8
Layer 1
10
28.358601
20
28.524672
11
28.996752
21
28.492244
0
LINE
8
Layer 1
10
28.996752
20
28.492244
11
29.629704
21
28.649865
0
LINE
8
Layer 1
10
29.629704
20
28.649865
11
30.188723
21
28.985974
0
LINE
8
Layer 1
10
30.188723
20
28.985974
11
30.617033
21
29.460145
0
LINE
8
Layer 1
10
30.617033
20
29.460145
11
30.891203
21
30.037310
0
LINE
8
Layer 1
10
30.891203
20
30.037310
11
30.987800
21
30.682400
0
LINE
8
Layer 1
10
30.987800
20
30.682400
11
30.820335
21
31.524304
0
LINE
8
Layer 1
10
30.820335
20
31.524304
11
30.343435
21
32.238035
0
LINE
8
Layer 1
10
30.343435
20
32.238035
11
29.629704
21
32.714935
0
LINE
8
Layer 1
10
29.629704
20
32.714935
11
28.787800
21
32.882400
0
LINE
8
Layer 1
10
28.787800
20
32.882400
11
28.787800
21
32.882400
0
LINE
8
Layer 1
10
103.447800
20
26.552400
11
102.591461
21
26.379513
0
LINE
8
Layer 1
10
102.591461
20
26.379513
11
101.892165
21
25.908035
0
LINE
8
Layer 1
10
101.892165
20
25.908035
11
101.420687
21
25.208739
0
LINE
8
Layer 1
10
101.420687
20
25.208739
11
101.247800
21
24.352400
0
LINE
8
Layer 1
10
101.247800
20
24.352400
11
101.420687
21
23.496061
0
LINE
8
Layer 1
10
101.420687
20
23.496061
11
101.892165
21
22.796765
0
LINE
8
Layer 1
10
101.892165
20
22.796765
11
102.591461
21
22.325287
0
LINE
8
Layer 1
10
102.591461
20
22.325287
11
103.447800
21
22.152400
0
LINE
8
Layer 1
10
103.447800
20
22.152400
11
104.304139
21
22.325287
0
LINE
8
Layer 1
10
104.304139
20
22.325287
11
105.003435
21
22.796765
0
LINE
8
Layer 1
10
105.003435
20
22.796765
11
105.474913
21
23.496061
0
LINE
8
Layer 1
10
105.474913
20
23.496061
11
105.647800
21
24.352400
0
LINE
8
Layer 1
10
105.647800
20
24.352400
11
105.480335
21
25.194304
0
LINE
8
Layer 1
10
105.480335
20
25.194304
11
105.003435
21
25.908035
0
LINE
8
Layer 1
10
105.003435
20
25.908035
11
104.289704
21
26.384935
0
LINE
8
Layer 1
10
104.289704
20
26.384935
11
103.447800
21
26.552400
0
LINE
8
Layer 1
10
103.447800
20
26.552400
11
103.447800
21
26.552400
0
LINE
8
Layer 1
10
100.507800
20
76.802400
11
107.607800
21
76.802400
0
LINE
8
Layer 1
10
107.607800
20
76.802400
11
107.607800
21
71.702400
0
LINE
8
Layer 1
10
107.607800
20
71.702400
11
100.507800
21
71.702400
0
LINE
8
Layer 1
10
100.507800
20
71.702400
11
100.507800
21
76.802400
0
LINE
8
Layer 1
10
112.947800
20
75.282400
11
95.167800
21
75.282400
0
LINE
8
Layer 1
10
95.167800
20
75.282400
11
95.167800
21
42.262400
0
LINE
8
Layer 1
10
95.167800
20
42.262400
11
112.947800
21
42.262400
0
LINE
8
Layer 1
10
112.947800
20
42.262400
11
112.947800
21
75.282400
0
LINE
8
Layer 1
10
98.017800
20
72.992400
11
105.117800
21
72.992400
0
LINE
8
Layer 1
10
105.117800
20
72.992400
11
105.117800
21
78.092400
0
LINE
8
Layer 1
10
105.117800
20
78.092400
11
98.017800
21
78.092400
0
LINE
8
Layer 1
10
98.017800
20
78.092400
11
98.017800
21
72.992400
0
LINE
8
Layer 1
10
110.457800
20
43.552400
11
92.677800
21
43.552400
0
LINE
8
Layer 1
10
92.677800
20
43.552400
11
92.677800
21
76.572400
0
LINE
8
Layer 1
10
92.677800
20
76.572400
11
110.457800
21
76.572400
0
LINE
8
Layer 1
10
110.457800
20
76.572400
11
110.457800
21
43.552400
0
LINE
8
Layer 1
10
15.387800
20
82.862400
11
14.742710
21
82.765803
0
LINE
8
Layer 1
10
14.742710
20
82.765803
11
14.165545
21
82.491633
0
LINE
8
Layer 1
10
14.165545
20
82.491633
11
13.691374
21
82.063323
0
LINE
8
Layer 1
10
13.691374
20
82.063323
11
13.355265
21
81.504304
0
LINE
8
Layer 1
10
13.355265
20
81.504304
11
13.197644
21
80.871352
0
LINE
8
Layer 1
10
13.197644
20
80.871352
11
13.230072
21
80.233201
0
LINE
8
Layer 1
10
13.230072
20
80.233201
11
13.444322
21
79.631217
0
LINE
8
Layer 1
10
13.444322
20
79.631217
11
13.832165
21
79.106765
0
LINE
8
Layer 1
10
13.832165
20
79.106765
11
14.356617
21
78.718922
0
LINE
8
Layer 1
10
14.356617
20
78.718922
11
14.958601
21
78.504672
0
LINE
8
Layer 1
10
14.958601
20
78.504672
11
15.596752
21
78.472244
0
LINE
8
Layer 1
10
15.596752
20
78.472244
11
16.229704
21
78.629865
0
LINE
8
Layer 1
10
16.229704
20
78.629865
11
16.788723
21
78.965974
0
LINE
8
Layer 1
10
16.788723
20
78.965974
11
17.217033
21
79.440145
0
LINE
8
Layer 1
10
17.217033
20
79.440145
11
17.491203
21
80.017310
0
LINE
8
Layer 1
10
17.491203
20
80.017310
11
17.587800
21
80.662400
0
LINE
8
Layer 1
10
17.587800
20
80.662400
11
17.420335
21
81.504304
0
LINE
8
Layer 1
10
17.420335
20
81.504304
11
16.943435
21
82.218035
0
LINE
8
Layer 1
10
16.943435
20
82.218035
11
16.229704
21
82.694935
0
LINE
8
Layer 1
10
16.229704
20
82.694935
11
15.387800
21
82.862400
0
LINE
8
Layer 1
10
15.387800
20
82.862400
11
15.387800
21
82.862400
0
LINE
8
Layer 1
10
64.997800
20
14.692400
11
80.337800
21
10.582400
0
LINE
8
Layer 1
10
94.405200
20
81.472400
11
94.316778
21
82.003637
0
LINE
8
Layer 1
10
94.316778
20
82.003637
11
94.068793
21
82.466659
0
LINE
8
Layer 1
10
94.068793
20
82.466659
11
93.687161
21
82.827551
0
LINE
8
Layer 1
10
93.687161
20
82.827551
11
93.197800
21
83.052400
0
LINE
8
Layer 1
10
1.334900
20
78.871500
11
27.367800
21
88.322400
0
LINE
8
Layer 1
10
38.276000
20
25.222300
11
37.214689
21
26.019520
0
LINE
8
Layer 1
10
37.214689
20
26.019520
11
35.917800
21
26.302400
0
LINE
8
Layer 1
10
38.276000
20
25.222300
11
47.127800
21
15.712400
0
LINE
8
Layer 1
10
113.127800
20
75.130800
11
113.112300
21
22.634400
0
LINE
8
Layer 1
10
49.487800
20
14.707900
11
64.997800
21
14.692400
0
LINE
8
Layer 1
10
1.334900
20
78.871500
11
0.821634
21
78.613572
0
LINE
8
Layer 1
10
0.821634
20
78.613572
11
0.423701
21
78.218073
0
LINE
8
Layer 1
10
0.423701
20
78.218073
11
0.166393
21
77.719512
0
LINE
8
Layer 1
10
0.166393
20
77.719512
11
0.075000
21
77.152400
0
LINE
8
Layer 1
10
80.337800
20
10.582400
11
98.277600
21
0.275600
0
LINE
8
Layer 1
10
0.087800
20
26.936800
11
0.248884
21
26.477159
0
LINE
8
Layer 1
10
0.248884
20
26.477159
11
0.695300
21
26.282400
0
LINE
8
Layer 1
10
112.627800
20
75.783700
11
94.867400
21
75.783700
0
LINE
8
Layer 1
10
113.127700
20
75.130800
11
112.988438
21
75.542000
0
LINE
8
Layer 1
10
112.988438
20
75.542000
11
112.627800
21
75.783700
0
LINE
8
Layer 1
10
0.075000
20
77.152400
11
0.087800
21
26.936800
0
LINE
8
Layer 1
10
47.127800
20
15.712400
11
48.205356
21
14.969466
0
LINE
8
Layer 1
10
48.205356
20
14.969466
11
49.487800
21
14.707900
0
LINE
8
Layer 1
10
100.173000
20
0.672500
11
113.112300
21
22.634400
0
LINE
8
Layer 1
10
94.388800
20
76.292400
11
94.524292
21
75.940384
0
LINE
8
Layer 1
10
94.524292
20
75.940384
11
94.867400
21
75.783700
0
LINE
8
Layer 1
10
98.245000
20
0.293100
11
98.745388
21
0.083789
0
LINE
8
Layer 1
10
98.745388
20
0.083789
11
99.287789
21
0.082419
0
LINE
8
Layer 1
10
99.287789
20
0.082419
11
99.789228
21
0.289200
0
LINE
8
Layer 1
10
99.789228
20
0.289200
11
100.173000
21
0.672500
0
LINE
8
Layer 1
10
93.197800
20
83.052400
11
73.287800
21
88.342400
0
LINE
8
Layer 1
10
94.388800
20
76.292400
11
94.405200
21
81.472400
0
LINE
8
Layer 1
10
27.367800
20
88.322400
11
73.287800
21
88.342400
0
LINE
8
Layer 1
10
35.917800
20
26.302400
11
0.695300
21
26.282400
 0 
ENDSEC
 0 
EOF