999
FreeCAD v0.21 33771 (Git)
  0
SECTION
  2
HEADER
  9
$ACADVER
  1
AC1014
  9
$ACADMAINTVER
 70
     9
  9
$DWGCODEPAGE
  3
ANSI_1252
  9
$TEXTSTYLE
  7
STANDARD
  9
$DIMSTYLE
  2
STANDARD
  9
$DIMTXSTY
  7
STANDARD
  9
$CMLSTYLE
  2
STANDARD
  9
$LUNITS
 70
2
  9
$INSUNITS
 70
4
  9
$PEXTMAX
 10
50
 20
50
 30
50
  9
$PEXTMIN
 10
0
 20
0
 30
0
  9
$HANDSEED
  5
FFFF
  0
ENDSEC
  0
SECTION
  2
CLASSES
  0
CLASS
  1
ACDBDICTIONARYWDFLT
  2
AcDbDictionaryWithDefault
  3
ObjectDBX Classes
 90
        0
280
     0
281
     0
  0
CLASS
  1
XRECORD
  2
AcDbXrecord
  3
ObjectDBX Classes
 90
        0
280
     0
281
     0
  0
CLASS
  1
LWPOLYLINE
  2
AcDbPolyline
  3
ObjectDBX Classes
 90
        0
280
     0
281
     1
  0
ENDSEC
  0
SECTION
  2
TABLES
  0
TABLE
  2
VPORT
  5
20
330
0
100
AcDbSymbolTable
 70
     1
  0
VPORT
  5
21
330
20
100
AcDbSymbolTableRecord
100
AcDbViewportTableRecord
  2
*ACTIVE
 70
     0
  0
ENDTAB
  0
TABLE
  2
LTYPE
  5
22
330
0
100
AcDbSymbolTable
 70
     1
  0
LTYPE
  5
23
330
21
100
AcDbSymbolTableRecord
100
AcDbLinetypeTableRecord
  2
BYBLOCK
 70
     0
  3

 72
    65
 73
     0
 40
0.0
  0
LTYPE
  5
24
330
21
100
AcDbSymbolTableRecord
100
AcDbLinetypeTableRecord
  2
BYLAYER
 70
     0
  3

 72
    65
 73
     0
 40
0.0
  0
LTYPE
  5
25
330
21
100
AcDbSymbolTableRecord
100
AcDbLinetypeTableRecord
  2
CONTINUOUS
 70
     0
  3
Solid line
 72
    65
 73
     0
 40
0.0
  0
ENDTAB
  0
TABLE
  2
LAYER
  5
AF1
330
0
100
AcDbSymbolTable
 70
235
  0
LAYER
  5
AF2
330
AF1
100
AcDbSymbolTableRecord
100
AcDbLayerTableRecord
  2
0
 70
   0
 62
   7
  6
CONTINUOUS
  0
LAYER
  5
AF3
330
AF1
100
AcDbSymbolTableRecord
100
AcDbLayerTableRecord
  2
none
 70
    0
 62
    7
  6
CONTINUOUS
  0
LAYER
  5
AF4
330
AF1
100
AcDbSymbolTableRecord
100
AcDbLayerTableRecord
  2
Shape
 70
    0
 62
    7
  6
CONTINUOUS
  0
LAYER
  5
AF5
330
AF1
100
AcDbSymbolTableRecord
100
AcDbLayerTableRecord
  2
Shape001
 70
    0
 62
    7
  6
CONTINUOUS
  0
LAYER
  5
AF6
330
AF1
100
AcDbSymbolTableRecord
100
AcDbLayerTableRecord
  2
Shape002
 70
    0
 62
    7
  6
CONTINUOUS
  0
LAYER
  5
AF7
330
AF1
100
AcDbSymbolTableRecord
100
AcDbLayerTableRecord
  2
Shape003
 70
    0
 62
    7
  6
CONTINUOUS
  0
LAYER
  5
AF8
330
AF1
100
AcDbSymbolTableRecord
100
AcDbLayerTableRecord
  2
Shape004
 70
    0
 62
    7
  6
CONTINUOUS
  0
LAYER
  5
AF9
330
AF1
100
AcDbSymbolTableRecord
100
AcDbLayerTableRecord
  2
Shape005
 70
    0
 62
    7
  6
CONTINUOUS
  0
LAYER
  5
AFA
330
AF1
100
AcDbSymbolTableRecord
100
AcDbLayerTableRecord
  2
Shape006
 70
    0
 62
    7
  6
CONTINUOUS
  0
LAYER
  5
AFB
330
AF1
100
AcDbSymbolTableRecord
100
AcDbLayerTableRecord
  2
Shape007
 70
    0
 62
    7
  6
CONTINUOUS
  0
LAYER
  5
AFC
330
AF1
100
AcDbSymbolTableRecord
100
AcDbLayerTableRecord
  2
Shape008
 70
    0
 62
    7
  6
CONTINUOUS
  0
LAYER
  5
AFD
330
AF1
100
AcDbSymbolTableRecord
100
AcDbLayerTableRecord
  2
Shape009
 70
    0
 62
    7
  6
CONTINUOUS
  0
LAYER
  5
AFE
330
AF1
100
AcDbSymbolTableRecord
100
AcDbLayerTableRecord
  2
Shape010
 70
    0
 62
    7
  6
CONTINUOUS
  0
LAYER
  5
AFF
330
AF1
100
AcDbSymbolTableRecord
100
AcDbLayerTableRecord
  2
Shape011
 70
    0
 62
    7
  6
CONTINUOUS
  0
LAYER
  5
B00
330
AF1
100
AcDbSymbolTableRecord
100
AcDbLayerTableRecord
  2
Shape012
 70
    0
 62
    7
  6
CONTINUOUS
  0
LAYER
  5
B01
330
AF1
100
AcDbSymbolTableRecord
100
AcDbLayerTableRecord
  2
Shape013
 70
    0
 62
    7
  6
CONTINUOUS
  0
LAYER
  5
B02
330
AF1
100
AcDbSymbolTableRecord
100
AcDbLayerTableRecord
  2
Shape014
 70
    0
 62
    7
  6
CONTINUOUS
  0
LAYER
  5
B03
330
AF1
100
AcDbSymbolTableRecord
100
AcDbLayerTableRecord
  2
Shape015
 70
    0
 62
    7
  6
CONTINUOUS
  0
LAYER
  5
B04
330
AF1
100
AcDbSymbolTableRecord
100
AcDbLayerTableRecord
  2
Shape016
 70
    0
 62
    7
  6
CONTINUOUS
  0
LAYER
  5
B05
330
AF1
100
AcDbSymbolTableRecord
100
AcDbLayerTableRecord
  2
Shape017
 70
    0
 62
    7
  6
CONTINUOUS
  0
LAYER
  5
B06
330
AF1
100
AcDbSymbolTableRecord
100
AcDbLayerTableRecord
  2
Shape018
 70
    0
 62
    7
  6
CONTINUOUS
  0
LAYER
  5
B07
330
AF1
100
AcDbSymbolTableRecord
100
AcDbLayerTableRecord
  2
Shape019
 70
    0
 62
    7
  6
CONTINUOUS
  0
LAYER
  5
B08
330
AF1
100
AcDbSymbolTableRecord
100
AcDbLayerTableRecord
  2
Shape020
 70
    0
 62
    7
  6
CONTINUOUS
  0
LAYER
  5
B09
330
AF1
100
AcDbSymbolTableRecord
100
AcDbLayerTableRecord
  2
Shape021
 70
    0
 62
    7
  6
CONTINUOUS
  0
LAYER
  5
B0A
330
AF1
100
AcDbSymbolTableRecord
100
AcDbLayerTableRecord
  2
Shape022
 70
    0
 62
    7
  6
CONTINUOUS
  0
LAYER
  5
B0B
330
AF1
100
AcDbSymbolTableRecord
100
AcDbLayerTableRecord
  2
Shape023
 70
    0
 62
    7
  6
CONTINUOUS
  0
LAYER
  5
B0C
330
AF1
100
AcDbSymbolTableRecord
100
AcDbLayerTableRecord
  2
Shape024
 70
    0
 62
    7
  6
CONTINUOUS
  0
LAYER
  5
B0D
330
AF1
100
AcDbSymbolTableRecord
100
AcDbLayerTableRecord
  2
Shape025
 70
    0
 62
    7
  6
CONTINUOUS
  0
LAYER
  5
B0E
330
AF1
100
AcDbSymbolTableRecord
100
AcDbLayerTableRecord
  2
Shape026
 70
    0
 62
    7
  6
CONTINUOUS
  0
LAYER
  5
B0F
330
AF1
100
AcDbSymbolTableRecord
100
AcDbLayerTableRecord
  2
Shape027
 70
    0
 62
    7
  6
CONTINUOUS
  0
LAYER
  5
B10
330
AF1
100
AcDbSymbolTableRecord
100
AcDbLayerTableRecord
  2
Shape028
 70
    0
 62
    7
  6
CONTINUOUS
  0
LAYER
  5
B11
330
AF1
100
AcDbSymbolTableRecord
100
AcDbLayerTableRecord
  2
Shape029
 70
    0
 62
    7
  6
CONTINUOUS
  0
LAYER
  5
B12
330
AF1
100
AcDbSymbolTableRecord
100
AcDbLayerTableRecord
  2
Shape030
 70
    0
 62
    7
  6
CONTINUOUS
  0
LAYER
  5
B13
330
AF1
100
AcDbSymbolTableRecord
100
AcDbLayerTableRecord
  2
Shape031
 70
    0
 62
    7
  6
CONTINUOUS
  0
LAYER
  5
B14
330
AF1
100
AcDbSymbolTableRecord
100
AcDbLayerTableRecord
  2
Shape032
 70
    0
 62
    7
  6
CONTINUOUS
  0
LAYER
  5
B15
330
AF1
100
AcDbSymbolTableRecord
100
AcDbLayerTableRecord
  2
Shape033
 70
    0
 62
    7
  6
CONTINUOUS
  0
LAYER
  5
B16
330
AF1
100
AcDbSymbolTableRecord
100
AcDbLayerTableRecord
  2
Shape034
 70
    0
 62
    7
  6
CONTINUOUS
  0
LAYER
  5
B17
330
AF1
100
AcDbSymbolTableRecord
100
AcDbLayerTableRecord
  2
Shape1853
 70
    0
 62
    7
  6
CONTINUOUS
  0
LAYER
  5
B18
330
AF1
100
AcDbSymbolTableRecord
100
AcDbLayerTableRecord
  2
Shape1854
 70
    0
 62
    7
  6
CONTINUOUS
  0
LAYER
  5
B19
330
AF1
100
AcDbSymbolTableRecord
100
AcDbLayerTableRecord
  2
Shape1855
 70
    0
 62
    7
  6
CONTINUOUS
  0
LAYER
  5
B1A
330
AF1
100
AcDbSymbolTableRecord
100
AcDbLayerTableRecord
  2
Shape1856
 70
    0
 62
    7
  6
CONTINUOUS
  0
LAYER
  5
B1B
330
AF1
100
AcDbSymbolTableRecord
100
AcDbLayerTableRecord
  2
Shape1857
 70
    0
 62
    7
  6
CONTINUOUS
  0
LAYER
  5
B1C
330
AF1
100
AcDbSymbolTableRecord
100
AcDbLayerTableRecord
  2
Shape1858
 70
    0
 62
    7
  6
CONTINUOUS
  0
LAYER
  5
B1D
330
AF1
100
AcDbSymbolTableRecord
100
AcDbLayerTableRecord
  2
Shape1859
 70
    0
 62
    7
  6
CONTINUOUS
  0
LAYER
  5
B1E
330
AF1
100
AcDbSymbolTableRecord
100
AcDbLayerTableRecord
  2
Shape1860
 70
    0
 62
    7
  6
CONTINUOUS
  0
LAYER
  5
B1F
330
AF1
100
AcDbSymbolTableRecord
100
AcDbLayerTableRecord
  2
Shape1861
 70
    0
 62
    7
  6
CONTINUOUS
  0
LAYER
  5
B20
330
AF1
100
AcDbSymbolTableRecord
100
AcDbLayerTableRecord
  2
Shape1862
 70
    0
 62
    7
  6
CONTINUOUS
  0
LAYER
  5
B21
330
AF1
100
AcDbSymbolTableRecord
100
AcDbLayerTableRecord
  2
Shape1863
 70
    0
 62
    7
  6
CONTINUOUS
  0
LAYER
  5
B22
330
AF1
100
AcDbSymbolTableRecord
100
AcDbLayerTableRecord
  2
Shape1864
 70
    0
 62
    7
  6
CONTINUOUS
  0
LAYER
  5
B23
330
AF1
100
AcDbSymbolTableRecord
100
AcDbLayerTableRecord
  2
Shape1865
 70
    0
 62
    7
  6
CONTINUOUS
  0
LAYER
  5
B24
330
AF1
100
AcDbSymbolTableRecord
100
AcDbLayerTableRecord
  2
Shape1866
 70
    0
 62
    7
  6
CONTINUOUS
  0
LAYER
  5
B25
330
AF1
100
AcDbSymbolTableRecord
100
AcDbLayerTableRecord
  2
Shape1867
 70
    0
 62
    7
  6
CONTINUOUS
  0
LAYER
  5
B26
330
AF1
100
AcDbSymbolTableRecord
100
AcDbLayerTableRecord
  2
Shape1868
 70
    0
 62
    7
  6
CONTINUOUS
  0
LAYER
  5
B27
330
AF1
100
AcDbSymbolTableRecord
100
AcDbLayerTableRecord
  2
Shape1869
 70
    0
 62
    7
  6
CONTINUOUS
  0
LAYER
  5
B28
330
AF1
100
AcDbSymbolTableRecord
100
AcDbLayerTableRecord
  2
Shape1870
 70
    0
 62
    7
  6
CONTINUOUS
  0
LAYER
  5
B29
330
AF1
100
AcDbSymbolTableRecord
100
AcDbLayerTableRecord
  2
Shape1871
 70
    0
 62
    7
  6
CONTINUOUS
  0
LAYER
  5
B2A
330
AF1
100
AcDbSymbolTableRecord
100
AcDbLayerTableRecord
  2
Shape1872
 70
    0
 62
    7
  6
CONTINUOUS
  0
LAYER
  5
B2B
330
AF1
100
AcDbSymbolTableRecord
100
AcDbLayerTableRecord
  2
Shape1873
 70
    0
 62
    7
  6
CONTINUOUS
  0
LAYER
  5
B2C
330
AF1
100
AcDbSymbolTableRecord
100
AcDbLayerTableRecord
  2
Shape1874
 70
    0
 62
    7
  6
CONTINUOUS
  0
LAYER
  5
B2D
330
AF1
100
AcDbSymbolTableRecord
100
AcDbLayerTableRecord
  2
Shape1875
 70
    0
 62
    7
  6
CONTINUOUS
  0
LAYER
  5
B2E
330
AF1
100
AcDbSymbolTableRecord
100
AcDbLayerTableRecord
  2
Shape1876
 70
    0
 62
    7
  6
CONTINUOUS
  0
LAYER
  5
B2F
330
AF1
100
AcDbSymbolTableRecord
100
AcDbLayerTableRecord
  2
Shape1877
 70
    0
 62
    7
  6
CONTINUOUS
  0
LAYER
  5
B30
330
AF1
100
AcDbSymbolTableRecord
100
AcDbLayerTableRecord
  2
Shape1878
 70
    0
 62
    7
  6
CONTINUOUS
  0
LAYER
  5
B31
330
AF1
100
AcDbSymbolTableRecord
100
AcDbLayerTableRecord
  2
Shape1879
 70
    0
 62
    7
  6
CONTINUOUS
  0
LAYER
  5
B32
330
AF1
100
AcDbSymbolTableRecord
100
AcDbLayerTableRecord
  2
Shape1880
 70
    0
 62
    7
  6
CONTINUOUS
  0
LAYER
  5
B33
330
AF1
100
AcDbSymbolTableRecord
100
AcDbLayerTableRecord
  2
Shape1881
 70
    0
 62
    7
  6
CONTINUOUS
  0
LAYER
  5
B34
330
AF1
100
AcDbSymbolTableRecord
100
AcDbLayerTableRecord
  2
Shape1882
 70
    0
 62
    7
  6
CONTINUOUS
  0
LAYER
  5
B35
330
AF1
100
AcDbSymbolTableRecord
100
AcDbLayerTableRecord
  2
Shape1883
 70
    0
 62
    7
  6
CONTINUOUS
  0
LAYER
  5
B36
330
AF1
100
AcDbSymbolTableRecord
100
AcDbLayerTableRecord
  2
Shape1884
 70
    0
 62
    7
  6
CONTINUOUS
  0
LAYER
  5
B37
330
AF1
100
AcDbSymbolTableRecord
100
AcDbLayerTableRecord
  2
Shape1885
 70
    0
 62
    7
  6
CONTINUOUS
  0
LAYER
  5
B38
330
AF1
100
AcDbSymbolTableRecord
100
AcDbLayerTableRecord
  2
Shape1886
 70
    0
 62
    7
  6
CONTINUOUS
  0
LAYER
  5
B39
330
AF1
100
AcDbSymbolTableRecord
100
AcDbLayerTableRecord
  2
Shape1887
 70
    0
 62
    7
  6
CONTINUOUS
  0
LAYER
  5
B3A
330
AF1
100
AcDbSymbolTableRecord
100
AcDbLayerTableRecord
  2
Shape1888
 70
    0
 62
    7
  6
CONTINUOUS
  0
LAYER
  5
B3B
330
AF1
100
AcDbSymbolTableRecord
100
AcDbLayerTableRecord
  2
Shape1889
 70
    0
 62
    7
  6
CONTINUOUS
  0
LAYER
  5
B3C
330
AF1
100
AcDbSymbolTableRecord
100
AcDbLayerTableRecord
  2
Shape1890
 70
    0
 62
    7
  6
CONTINUOUS
  0
LAYER
  5
B3D
330
AF1
100
AcDbSymbolTableRecord
100
AcDbLayerTableRecord
  2
Shape1891
 70
    0
 62
    7
  6
CONTINUOUS
  0
LAYER
  5
B3E
330
AF1
100
AcDbSymbolTableRecord
100
AcDbLayerTableRecord
  2
Shape1892
 70
    0
 62
    7
  6
CONTINUOUS
  0
LAYER
  5
B3F
330
AF1
100
AcDbSymbolTableRecord
100
AcDbLayerTableRecord
  2
Shape1893
 70
    0
 62
    7
  6
CONTINUOUS
  0
LAYER
  5
B40
330
AF1
100
AcDbSymbolTableRecord
100
AcDbLayerTableRecord
  2
Shape1894
 70
    0
 62
    7
  6
CONTINUOUS
  0
LAYER
  5
B41
330
AF1
100
AcDbSymbolTableRecord
100
AcDbLayerTableRecord
  2
Shape1895
 70
    0
 62
    7
  6
CONTINUOUS
  0
LAYER
  5
B42
330
AF1
100
AcDbSymbolTableRecord
100
AcDbLayerTableRecord
  2
Shape1896
 70
    0
 62
    7
  6
CONTINUOUS
  0
LAYER
  5
B43
330
AF1
100
AcDbSymbolTableRecord
100
AcDbLayerTableRecord
  2
Shape1897
 70
    0
 62
    7
  6
CONTINUOUS
  0
LAYER
  5
B44
330
AF1
100
AcDbSymbolTableRecord
100
AcDbLayerTableRecord
  2
Shape1898
 70
    0
 62
    7
  6
CONTINUOUS
  0
LAYER
  5
B45
330
AF1
100
AcDbSymbolTableRecord
100
AcDbLayerTableRecord
  2
Shape1899
 70
    0
 62
    7
  6
CONTINUOUS
  0
LAYER
  5
B46
330
AF1
100
AcDbSymbolTableRecord
100
AcDbLayerTableRecord
  2
Shape1900
 70
    0
 62
    7
  6
CONTINUOUS
  0
LAYER
  5
B47
330
AF1
100
AcDbSymbolTableRecord
100
AcDbLayerTableRecord
  2
Shape1902
 70
    0
 62
    7
  6
CONTINUOUS
  0
LAYER
  5
B48
330
AF1
100
AcDbSymbolTableRecord
100
AcDbLayerTableRecord
  2
Shape1903
 70
    0
 62
    7
  6
CONTINUOUS
  0
LAYER
  5
B49
330
AF1
100
AcDbSymbolTableRecord
100
AcDbLayerTableRecord
  2
Shape1904
 70
    0
 62
    7
  6
CONTINUOUS
  0
LAYER
  5
B4A
330
AF1
100
AcDbSymbolTableRecord
100
AcDbLayerTableRecord
  2
Shape1905
 70
    0
 62
    7
  6
CONTINUOUS
  0
LAYER
  5
B4B
330
AF1
100
AcDbSymbolTableRecord
100
AcDbLayerTableRecord
  2
Shape1906
 70
    0
 62
    7
  6
CONTINUOUS
  0
LAYER
  5
B4C
330
AF1
100
AcDbSymbolTableRecord
100
AcDbLayerTableRecord
  2
Shape1907
 70
    0
 62
    7
  6
CONTINUOUS
  0
LAYER
  5
B4D
330
AF1
100
AcDbSymbolTableRecord
100
AcDbLayerTableRecord
  2
Shape1908
 70
    0
 62
    7
  6
CONTINUOUS
  0
LAYER
  5
B4E
330
AF1
100
AcDbSymbolTableRecord
100
AcDbLayerTableRecord
  2
Shape1909
 70
    0
 62
    7
  6
CONTINUOUS
  0
LAYER
  5
B4F
330
AF1
100
AcDbSymbolTableRecord
100
AcDbLayerTableRecord
  2
Shape1910
 70
    0
 62
    7
  6
CONTINUOUS
  0
LAYER
  5
B50
330
AF1
100
AcDbSymbolTableRecord
100
AcDbLayerTableRecord
  2
Shape1911
 70
    0
 62
    7
  6
CONTINUOUS
  0
LAYER
  5
B51
330
AF1
100
AcDbSymbolTableRecord
100
AcDbLayerTableRecord
  2
Shape1912
 70
    0
 62
    7
  6
CONTINUOUS
  0
LAYER
  5
B52
330
AF1
100
AcDbSymbolTableRecord
100
AcDbLayerTableRecord
  2
Shape1913
 70
    0
 62
    7
  6
CONTINUOUS
  0
LAYER
  5
B53
330
AF1
100
AcDbSymbolTableRecord
100
AcDbLayerTableRecord
  2
Shape1914
 70
    0
 62
    7
  6
CONTINUOUS
  0
LAYER
  5
B54
330
AF1
100
AcDbSymbolTableRecord
100
AcDbLayerTableRecord
  2
Shape1915
 70
    0
 62
    7
  6
CONTINUOUS
  0
LAYER
  5
B55
330
AF1
100
AcDbSymbolTableRecord
100
AcDbLayerTableRecord
  2
Shape1916
 70
    0
 62
    7
  6
CONTINUOUS
  0
LAYER
  5
B56
330
AF1
100
AcDbSymbolTableRecord
100
AcDbLayerTableRecord
  2
Shape1917
 70
    0
 62
    7
  6
CONTINUOUS
  0
LAYER
  5
B57
330
AF1
100
AcDbSymbolTableRecord
100
AcDbLayerTableRecord
  2
Shape1918
 70
    0
 62
    7
  6
CONTINUOUS
  0
LAYER
  5
B58
330
AF1
100
AcDbSymbolTableRecord
100
AcDbLayerTableRecord
  2
Shape1919
 70
    0
 62
    7
  6
CONTINUOUS
  0
LAYER
  5
B59
330
AF1
100
AcDbSymbolTableRecord
100
AcDbLayerTableRecord
  2
Shape1920
 70
    0
 62
    7
  6
CONTINUOUS
  0
LAYER
  5
B5A
330
AF1
100
AcDbSymbolTableRecord
100
AcDbLayerTableRecord
  2
Shape1921
 70
    0
 62
    7
  6
CONTINUOUS
  0
LAYER
  5
B5B
330
AF1
100
AcDbSymbolTableRecord
100
AcDbLayerTableRecord
  2
Shape1922
 70
    0
 62
    7
  6
CONTINUOUS
  0
LAYER
  5
B5C
330
AF1
100
AcDbSymbolTableRecord
100
AcDbLayerTableRecord
  2
Shape1923
 70
    0
 62
    7
  6
CONTINUOUS
  0
LAYER
  5
B5D
330
AF1
100
AcDbSymbolTableRecord
100
AcDbLayerTableRecord
  2
Shape1924
 70
    0
 62
    7
  6
CONTINUOUS
  0
LAYER
  5
B5E
330
AF1
100
AcDbSymbolTableRecord
100
AcDbLayerTableRecord
  2
Shape1925
 70
    0
 62
    7
  6
CONTINUOUS
  0
LAYER
  5
B5F
330
AF1
100
AcDbSymbolTableRecord
100
AcDbLayerTableRecord
  2
Shape1926
 70
    0
 62
    7
  6
CONTINUOUS
  0
LAYER
  5
B60
330
AF1
100
AcDbSymbolTableRecord
100
AcDbLayerTableRecord
  2
Shape1927
 70
    0
 62
    7
  6
CONTINUOUS
  0
LAYER
  5
B61
330
AF1
100
AcDbSymbolTableRecord
100
AcDbLayerTableRecord
  2
Shape1928
 70
    0
 62
    7
  6
CONTINUOUS
  0
LAYER
  5
B62
330
AF1
100
AcDbSymbolTableRecord
100
AcDbLayerTableRecord
  2
Shape1929
 70
    0
 62
    7
  6
CONTINUOUS
  0
LAYER
  5
B63
330
AF1
100
AcDbSymbolTableRecord
100
AcDbLayerTableRecord
  2
Shape1930
 70
    0
 62
    7
  6
CONTINUOUS
  0
LAYER
  5
B64
330
AF1
100
AcDbSymbolTableRecord
100
AcDbLayerTableRecord
  2
Shape1931
 70
    0
 62
    7
  6
CONTINUOUS
  0
LAYER
  5
B65
330
AF1
100
AcDbSymbolTableRecord
100
AcDbLayerTableRecord
  2
Shape1932
 70
    0
 62
    7
  6
CONTINUOUS
  0
LAYER
  5
B66
330
AF1
100
AcDbSymbolTableRecord
100
AcDbLayerTableRecord
  2
Shape1933
 70
    0
 62
    7
  6
CONTINUOUS
  0
LAYER
  5
B67
330
AF1
100
AcDbSymbolTableRecord
100
AcDbLayerTableRecord
  2
Shape1934
 70
    0
 62
    7
  6
CONTINUOUS
  0
LAYER
  5
B68
330
AF1
100
AcDbSymbolTableRecord
100
AcDbLayerTableRecord
  2
Shape1935
 70
    0
 62
    7
  6
CONTINUOUS
  0
LAYER
  5
B69
330
AF1
100
AcDbSymbolTableRecord
100
AcDbLayerTableRecord
  2
Shape1936
 70
    0
 62
    7
  6
CONTINUOUS
  0
LAYER
  5
B6A
330
AF1
100
AcDbSymbolTableRecord
100
AcDbLayerTableRecord
  2
Shape1937
 70
    0
 62
    7
  6
CONTINUOUS
  0
LAYER
  5
B6B
330
AF1
100
AcDbSymbolTableRecord
100
AcDbLayerTableRecord
  2
Shape1938
 70
    0
 62
    7
  6
CONTINUOUS
  0
LAYER
  5
B6C
330
AF1
100
AcDbSymbolTableRecord
100
AcDbLayerTableRecord
  2
Shape1939
 70
    0
 62
    7
  6
CONTINUOUS
  0
LAYER
  5
B6D
330
AF1
100
AcDbSymbolTableRecord
100
AcDbLayerTableRecord
  2
Shape1940
 70
    0
 62
    7
  6
CONTINUOUS
  0
LAYER
  5
B6E
330
AF1
100
AcDbSymbolTableRecord
100
AcDbLayerTableRecord
  2
Shape1941
 70
    0
 62
    7
  6
CONTINUOUS
  0
LAYER
  5
B6F
330
AF1
100
AcDbSymbolTableRecord
100
AcDbLayerTableRecord
  2
Shape1942
 70
    0
 62
    7
  6
CONTINUOUS
  0
LAYER
  5
B70
330
AF1
100
AcDbSymbolTableRecord
100
AcDbLayerTableRecord
  2
Shape1943
 70
    0
 62
    7
  6
CONTINUOUS
  0
LAYER
  5
B71
330
AF1
100
AcDbSymbolTableRecord
100
AcDbLayerTableRecord
  2
Shape1944
 70
    0
 62
    7
  6
CONTINUOUS
  0
LAYER
  5
B72
330
AF1
100
AcDbSymbolTableRecord
100
AcDbLayerTableRecord
  2
Shape1945
 70
    0
 62
    7
  6
CONTINUOUS
  0
LAYER
  5
B73
330
AF1
100
AcDbSymbolTableRecord
100
AcDbLayerTableRecord
  2
Shape1946
 70
    0
 62
    7
  6
CONTINUOUS
  0
LAYER
  5
B74
330
AF1
100
AcDbSymbolTableRecord
100
AcDbLayerTableRecord
  2
Shape1947
 70
    0
 62
    7
  6
CONTINUOUS
  0
LAYER
  5
B75
330
AF1
100
AcDbSymbolTableRecord
100
AcDbLayerTableRecord
  2
Shape1948
 70
    0
 62
    7
  6
CONTINUOUS
  0
LAYER
  5
B76
330
AF1
100
AcDbSymbolTableRecord
100
AcDbLayerTableRecord
  2
Shape1949
 70
    0
 62
    7
  6
CONTINUOUS
  0
LAYER
  5
B77
330
AF1
100
AcDbSymbolTableRecord
100
AcDbLayerTableRecord
  2
Shape1950
 70
    0
 62
    7
  6
CONTINUOUS
  0
LAYER
  5
B78
330
AF1
100
AcDbSymbolTableRecord
100
AcDbLayerTableRecord
  2
Shape1951
 70
    0
 62
    7
  6
CONTINUOUS
  0
LAYER
  5
B79
330
AF1
100
AcDbSymbolTableRecord
100
AcDbLayerTableRecord
  2
Shape1952
 70
    0
 62
    7
  6
CONTINUOUS
  0
LAYER
  5
B7A
330
AF1
100
AcDbSymbolTableRecord
100
AcDbLayerTableRecord
  2
Shape1953
 70
    0
 62
    7
  6
CONTINUOUS
  0
LAYER
  5
B7B
330
AF1
100
AcDbSymbolTableRecord
100
AcDbLayerTableRecord
  2
Shape1954
 70
    0
 62
    7
  6
CONTINUOUS
  0
LAYER
  5
B7C
330
AF1
100
AcDbSymbolTableRecord
100
AcDbLayerTableRecord
  2
Shape1955
 70
    0
 62
    7
  6
CONTINUOUS
  0
LAYER
  5
B7D
330
AF1
100
AcDbSymbolTableRecord
100
AcDbLayerTableRecord
  2
Shape1957
 70
    0
 62
    7
  6
CONTINUOUS
  0
LAYER
  5
B7E
330
AF1
100
AcDbSymbolTableRecord
100
AcDbLayerTableRecord
  2
Shape1958
 70
    0
 62
    7
  6
CONTINUOUS
  0
LAYER
  5
B7F
330
AF1
100
AcDbSymbolTableRecord
100
AcDbLayerTableRecord
  2
Shape1959
 70
    0
 62
    7
  6
CONTINUOUS
  0
LAYER
  5
B80
330
AF1
100
AcDbSymbolTableRecord
100
AcDbLayerTableRecord
  2
Shape1960
 70
    0
 62
    7
  6
CONTINUOUS
  0
LAYER
  5
B81
330
AF1
100
AcDbSymbolTableRecord
100
AcDbLayerTableRecord
  2
Shape1961
 70
    0
 62
    7
  6
CONTINUOUS
  0
LAYER
  5
B82
330
AF1
100
AcDbSymbolTableRecord
100
AcDbLayerTableRecord
  2
Shape1962
 70
    0
 62
    7
  6
CONTINUOUS
  0
LAYER
  5
B83
330
AF1
100
AcDbSymbolTableRecord
100
AcDbLayerTableRecord
  2
Shape1963
 70
    0
 62
    7
  6
CONTINUOUS
  0
LAYER
  5
B84
330
AF1
100
AcDbSymbolTableRecord
100
AcDbLayerTableRecord
  2
Shape1964
 70
    0
 62
    7
  6
CONTINUOUS
  0
LAYER
  5
B85
330
AF1
100
AcDbSymbolTableRecord
100
AcDbLayerTableRecord
  2
Shape1965
 70
    0
 62
    7
  6
CONTINUOUS
  0
LAYER
  5
B86
330
AF1
100
AcDbSymbolTableRecord
100
AcDbLayerTableRecord
  2
Shape1966
 70
    0
 62
    7
  6
CONTINUOUS
  0
LAYER
  5
B87
330
AF1
100
AcDbSymbolTableRecord
100
AcDbLayerTableRecord
  2
Shape1967
 70
    0
 62
    7
  6
CONTINUOUS
  0
LAYER
  5
B88
330
AF1
100
AcDbSymbolTableRecord
100
AcDbLayerTableRecord
  2
Shape1968
 70
    0
 62
    7
  6
CONTINUOUS
  0
LAYER
  5
B89
330
AF1
100
AcDbSymbolTableRecord
100
AcDbLayerTableRecord
  2
Shape1969
 70
    0
 62
    7
  6
CONTINUOUS
  0
LAYER
  5
B8A
330
AF1
100
AcDbSymbolTableRecord
100
AcDbLayerTableRecord
  2
Shape1970
 70
    0
 62
    7
  6
CONTINUOUS
  0
LAYER
  5
B8B
330
AF1
100
AcDbSymbolTableRecord
100
AcDbLayerTableRecord
  2
Shape1971
 70
    0
 62
    7
  6
CONTINUOUS
  0
LAYER
  5
B8C
330
AF1
100
AcDbSymbolTableRecord
100
AcDbLayerTableRecord
  2
Shape1972
 70
    0
 62
    7
  6
CONTINUOUS
  0
LAYER
  5
B8D
330
AF1
100
AcDbSymbolTableRecord
100
AcDbLayerTableRecord
  2
Shape1973
 70
    0
 62
    7
  6
CONTINUOUS
  0
LAYER
  5
B8E
330
AF1
100
AcDbSymbolTableRecord
100
AcDbLayerTableRecord
  2
Shape1974
 70
    0
 62
    7
  6
CONTINUOUS
  0
LAYER
  5
B8F
330
AF1
100
AcDbSymbolTableRecord
100
AcDbLayerTableRecord
  2
Shape1975
 70
    0
 62
    7
  6
CONTINUOUS
  0
LAYER
  5
B90
330
AF1
100
AcDbSymbolTableRecord
100
AcDbLayerTableRecord
  2
Shape1976
 70
    0
 62
    7
  6
CONTINUOUS
  0
LAYER
  5
B91
330
AF1
100
AcDbSymbolTableRecord
100
AcDbLayerTableRecord
  2
Shape1977
 70
    0
 62
    7
  6
CONTINUOUS
  0
LAYER
  5
B92
330
AF1
100
AcDbSymbolTableRecord
100
AcDbLayerTableRecord
  2
Shape1978
 70
    0
 62
    7
  6
CONTINUOUS
  0
LAYER
  5
B93
330
AF1
100
AcDbSymbolTableRecord
100
AcDbLayerTableRecord
  2
Shape1979
 70
    0
 62
    7
  6
CONTINUOUS
  0
LAYER
  5
B94
330
AF1
100
AcDbSymbolTableRecord
100
AcDbLayerTableRecord
  2
Shape1980
 70
    0
 62
    7
  6
CONTINUOUS
  0
LAYER
  5
B95
330
AF1
100
AcDbSymbolTableRecord
100
AcDbLayerTableRecord
  2
Shape1981
 70
    0
 62
    7
  6
CONTINUOUS
  0
LAYER
  5
B96
330
AF1
100
AcDbSymbolTableRecord
100
AcDbLayerTableRecord
  2
Shape1982
 70
    0
 62
    7
  6
CONTINUOUS
  0
LAYER
  5
B97
330
AF1
100
AcDbSymbolTableRecord
100
AcDbLayerTableRecord
  2
Shape1983
 70
    0
 62
    7
  6
CONTINUOUS
  0
LAYER
  5
B98
330
AF1
100
AcDbSymbolTableRecord
100
AcDbLayerTableRecord
  2
Shape1984
 70
    0
 62
    7
  6
CONTINUOUS
  0
LAYER
  5
B99
330
AF1
100
AcDbSymbolTableRecord
100
AcDbLayerTableRecord
  2
Shape1985
 70
    0
 62
    7
  6
CONTINUOUS
  0
LAYER
  5
B9A
330
AF1
100
AcDbSymbolTableRecord
100
AcDbLayerTableRecord
  2
Shape1986
 70
    0
 62
    7
  6
CONTINUOUS
  0
LAYER
  5
B9B
330
AF1
100
AcDbSymbolTableRecord
100
AcDbLayerTableRecord
  2
Shape1987
 70
    0
 62
    7
  6
CONTINUOUS
  0
LAYER
  5
B9C
330
AF1
100
AcDbSymbolTableRecord
100
AcDbLayerTableRecord
  2
Shape1988
 70
    0
 62
    7
  6
CONTINUOUS
  0
LAYER
  5
B9D
330
AF1
100
AcDbSymbolTableRecord
100
AcDbLayerTableRecord
  2
Shape1989
 70
    0
 62
    7
  6
CONTINUOUS
  0
LAYER
  5
B9E
330
AF1
100
AcDbSymbolTableRecord
100
AcDbLayerTableRecord
  2
Shape1990
 70
    0
 62
    7
  6
CONTINUOUS
  0
LAYER
  5
B9F
330
AF1
100
AcDbSymbolTableRecord
100
AcDbLayerTableRecord
  2
Shape1991
 70
    0
 62
    7
  6
CONTINUOUS
  0
LAYER
  5
BA0
330
AF1
100
AcDbSymbolTableRecord
100
AcDbLayerTableRecord
  2
Shape1992
 70
    0
 62
    7
  6
CONTINUOUS
  0
LAYER
  5
BA1
330
AF1
100
AcDbSymbolTableRecord
100
AcDbLayerTableRecord
  2
Shape1993
 70
    0
 62
    7
  6
CONTINUOUS
  0
LAYER
  5
BA2
330
AF1
100
AcDbSymbolTableRecord
100
AcDbLayerTableRecord
  2
Shape1994
 70
    0
 62
    7
  6
CONTINUOUS
  0
LAYER
  5
BA3
330
AF1
100
AcDbSymbolTableRecord
100
AcDbLayerTableRecord
  2
Shape1995
 70
    0
 62
    7
  6
CONTINUOUS
  0
LAYER
  5
BA4
330
AF1
100
AcDbSymbolTableRecord
100
AcDbLayerTableRecord
  2
Shape1996
 70
    0
 62
    7
  6
CONTINUOUS
  0
LAYER
  5
BA5
330
AF1
100
AcDbSymbolTableRecord
100
AcDbLayerTableRecord
  2
Shape1997
 70
    0
 62
    7
  6
CONTINUOUS
  0
LAYER
  5
BA6
330
AF1
100
AcDbSymbolTableRecord
100
AcDbLayerTableRecord
  2
Shape1998
 70
    0
 62
    7
  6
CONTINUOUS
  0
LAYER
  5
BA7
330
AF1
100
AcDbSymbolTableRecord
100
AcDbLayerTableRecord
  2
Shape1999
 70
    0
 62
    7
  6
CONTINUOUS
  0
LAYER
  5
BA8
330
AF1
100
AcDbSymbolTableRecord
100
AcDbLayerTableRecord
  2
Shape2000
 70
    0
 62
    7
  6
CONTINUOUS
  0
LAYER
  5
BA9
330
AF1
100
AcDbSymbolTableRecord
100
AcDbLayerTableRecord
  2
Shape2001
 70
    0
 62
    7
  6
CONTINUOUS
  0
LAYER
  5
BAA
330
AF1
100
AcDbSymbolTableRecord
100
AcDbLayerTableRecord
  2
Shape2002
 70
    0
 62
    7
  6
CONTINUOUS
  0
LAYER
  5
BAB
330
AF1
100
AcDbSymbolTableRecord
100
AcDbLayerTableRecord
  2
Shape2003
 70
    0
 62
    7
  6
CONTINUOUS
  0
LAYER
  5
BAC
330
AF1
100
AcDbSymbolTableRecord
100
AcDbLayerTableRecord
  2
Shape2004
 70
    0
 62
    7
  6
CONTINUOUS
  0
LAYER
  5
BAD
330
AF1
100
AcDbSymbolTableRecord
100
AcDbLayerTableRecord
  2
Shape2019
 70
    0
 62
    7
  6
CONTINUOUS
  0
LAYER
  5
BAE
330
AF1
100
AcDbSymbolTableRecord
100
AcDbLayerTableRecord
  2
Shape2020
 70
    0
 62
    7
  6
CONTINUOUS
  0
LAYER
  5
BAF
330
AF1
100
AcDbSymbolTableRecord
100
AcDbLayerTableRecord
  2
Shape2021
 70
    0
 62
    7
  6
CONTINUOUS
  0
LAYER
  5
BB0
330
AF1
100
AcDbSymbolTableRecord
100
AcDbLayerTableRecord
  2
Shape2022
 70
    0
 62
    7
  6
CONTINUOUS
  0
LAYER
  5
BB1
330
AF1
100
AcDbSymbolTableRecord
100
AcDbLayerTableRecord
  2
Shape2023
 70
    0
 62
    7
  6
CONTINUOUS
  0
LAYER
  5
BB2
330
AF1
100
AcDbSymbolTableRecord
100
AcDbLayerTableRecord
  2
Shape2024
 70
    0
 62
    7
  6
CONTINUOUS
  0
LAYER
  5
BB3
330
AF1
100
AcDbSymbolTableRecord
100
AcDbLayerTableRecord
  2
Shape2025
 70
    0
 62
    7
  6
CONTINUOUS
  0
LAYER
  5
BB4
330
AF1
100
AcDbSymbolTableRecord
100
AcDbLayerTableRecord
  2
Shape2026
 70
    0
 62
    7
  6
CONTINUOUS
  0
LAYER
  5
BB5
330
AF1
100
AcDbSymbolTableRecord
100
AcDbLayerTableRecord
  2
Shape2027
 70
    0
 62
    7
  6
CONTINUOUS
  0
LAYER
  5
BB6
330
AF1
100
AcDbSymbolTableRecord
100
AcDbLayerTableRecord
  2
Shape2028
 70
    0
 62
    7
  6
CONTINUOUS
  0
LAYER
  5
BB7
330
AF1
100
AcDbSymbolTableRecord
100
AcDbLayerTableRecord
  2
Shape2029
 70
    0
 62
    7
  6
CONTINUOUS
  0
LAYER
  5
BB8
330
AF1
100
AcDbSymbolTableRecord
100
AcDbLayerTableRecord
  2
Shape2030
 70
    0
 62
    7
  6
CONTINUOUS
  0
LAYER
  5
BB9
330
AF1
100
AcDbSymbolTableRecord
100
AcDbLayerTableRecord
  2
Shape2031
 70
    0
 62
    7
  6
CONTINUOUS
  0
LAYER
  5
BBA
330
AF1
100
AcDbSymbolTableRecord
100
AcDbLayerTableRecord
  2
Shape2032
 70
    0
 62
    7
  6
CONTINUOUS
  0
LAYER
  5
BBB
330
AF1
100
AcDbSymbolTableRecord
100
AcDbLayerTableRecord
  2
Shape2033
 70
    0
 62
    7
  6
CONTINUOUS
  0
LAYER
  5
BBC
330
AF1
100
AcDbSymbolTableRecord
100
AcDbLayerTableRecord
  2
Shape2034
 70
    0
 62
    7
  6
CONTINUOUS
  0
LAYER
  5
BBD
330
AF1
100
AcDbSymbolTableRecord
100
AcDbLayerTableRecord
  2
Shape2035
 70
    0
 62
    7
  6
CONTINUOUS
  0
LAYER
  5
BBE
330
AF1
100
AcDbSymbolTableRecord
100
AcDbLayerTableRecord
  2
Shape2036
 70
    0
 62
    7
  6
CONTINUOUS
  0
LAYER
  5
BBF
330
AF1
100
AcDbSymbolTableRecord
100
AcDbLayerTableRecord
  2
Shape2037
 70
    0
 62
    7
  6
CONTINUOUS
  0
LAYER
  5
BC0
330
AF1
100
AcDbSymbolTableRecord
100
AcDbLayerTableRecord
  2
Shape2038
 70
    0
 62
    7
  6
CONTINUOUS
  0
LAYER
  5
BC1
330
AF1
100
AcDbSymbolTableRecord
100
AcDbLayerTableRecord
  2
Shape2039
 70
    0
 62
    7
  6
CONTINUOUS
  0
LAYER
  5
BC2
330
AF1
100
AcDbSymbolTableRecord
100
AcDbLayerTableRecord
  2
Shape2040
 70
    0
 62
    7
  6
CONTINUOUS
  0
LAYER
  5
BC3
330
AF1
100
AcDbSymbolTableRecord
100
AcDbLayerTableRecord
  2
Shape2041
 70
    0
 62
    7
  6
CONTINUOUS
  0
LAYER
  5
BC4
330
AF1
100
AcDbSymbolTableRecord
100
AcDbLayerTableRecord
  2
Shape2042
 70
    0
 62
    7
  6
CONTINUOUS
  0
LAYER
  5
BC5
330
AF1
100
AcDbSymbolTableRecord
100
AcDbLayerTableRecord
  2
Shape2043
 70
    0
 62
    7
  6
CONTINUOUS
  0
LAYER
  5
BC6
330
AF1
100
AcDbSymbolTableRecord
100
AcDbLayerTableRecord
  2
Shape2044
 70
    0
 62
    7
  6
CONTINUOUS
  0
LAYER
  5
BC7
330
AF1
100
AcDbSymbolTableRecord
100
AcDbLayerTableRecord
  2
Shape2045
 70
    0
 62
    7
  6
CONTINUOUS
  0
LAYER
  5
BC8
330
AF1
100
AcDbSymbolTableRecord
100
AcDbLayerTableRecord
  2
Shape2046
 70
    0
 62
    7
  6
CONTINUOUS
  0
LAYER
  5
BC9
330
AF1
100
AcDbSymbolTableRecord
100
AcDbLayerTableRecord
  2
Shape2047
 70
    0
 62
    7
  6
CONTINUOUS
  0
LAYER
  5
BCA
330
AF1
100
AcDbSymbolTableRecord
100
AcDbLayerTableRecord
  2
Shape2048
 70
    0
 62
    7
  6
CONTINUOUS
  0
LAYER
  5
BCB
330
AF1
100
AcDbSymbolTableRecord
100
AcDbLayerTableRecord
  2
Shape2049
 70
    0
 62
    7
  6
CONTINUOUS
  0
LAYER
  5
BCC
330
AF1
100
AcDbSymbolTableRecord
100
AcDbLayerTableRecord
  2
Shape2050
 70
    0
 62
    7
  6
CONTINUOUS
  0
LAYER
  5
BCD
330
AF1
100
AcDbSymbolTableRecord
100
AcDbLayerTableRecord
  2
Shape2051
 70
    0
 62
    7
  6
CONTINUOUS
  0
LAYER
  5
BCE
330
AF1
100
AcDbSymbolTableRecord
100
AcDbLayerTableRecord
  2
Shape2052
 70
    0
 62
    7
  6
CONTINUOUS
  0
LAYER
  5
BCF
330
AF1
100
AcDbSymbolTableRecord
100
AcDbLayerTableRecord
  2
Shape2053
 70
    0
 62
    7
  6
CONTINUOUS
  0
LAYER
  5
BD0
330
AF1
100
AcDbSymbolTableRecord
100
AcDbLayerTableRecord
  2
Shape2054
 70
    0
 62
    7
  6
CONTINUOUS
  0
LAYER
  5
BD1
330
AF1
100
AcDbSymbolTableRecord
100
AcDbLayerTableRecord
  2
Shape2055
 70
    0
 62
    7
  6
CONTINUOUS
  0
LAYER
  5
BD2
330
AF1
100
AcDbSymbolTableRecord
100
AcDbLayerTableRecord
  2
Shape2056
 70
    0
 62
    7
  6
CONTINUOUS
  0
LAYER
  5
BD3
330
AF1
100
AcDbSymbolTableRecord
100
AcDbLayerTableRecord
  2
Shape2057
 70
    0
 62
    7
  6
CONTINUOUS
  0
LAYER
  5
BD4
330
AF1
100
AcDbSymbolTableRecord
100
AcDbLayerTableRecord
  2
Shape2058
 70
    0
 62
    7
  6
CONTINUOUS
  0
LAYER
  5
BD5
330
AF1
100
AcDbSymbolTableRecord
100
AcDbLayerTableRecord
  2
Shape2059
 70
    0
 62
    7
  6
CONTINUOUS
  0
LAYER
  5
BD6
330
AF1
100
AcDbSymbolTableRecord
100
AcDbLayerTableRecord
  2
Shape2060
 70
    0
 62
    7
  6
CONTINUOUS
  0
LAYER
  5
BD7
330
AF1
100
AcDbSymbolTableRecord
100
AcDbLayerTableRecord
  2
Shape2061
 70
    0
 62
    7
  6
CONTINUOUS
  0
LAYER
  5
BD8
330
AF1
100
AcDbSymbolTableRecord
100
AcDbLayerTableRecord
  2
Shape2062
 70
    0
 62
    7
  6
CONTINUOUS
  0
LAYER
  5
BD9
330
AF1
100
AcDbSymbolTableRecord
100
AcDbLayerTableRecord
  2
Shape2063
 70
    0
 62
    7
  6
CONTINUOUS
  0
LAYER
  5
BDA
330
AF1
100
AcDbSymbolTableRecord
100
AcDbLayerTableRecord
  2
Shape2064
 70
    0
 62
    7
  6
CONTINUOUS
  0
LAYER
  5
BDB
330
AF1
100
AcDbSymbolTableRecord
100
AcDbLayerTableRecord
  2
Shape2065
 70
    0
 62
    7
  6
CONTINUOUS
  0
LAYER
  5
BDC
330
AF1
100
AcDbSymbolTableRecord
100
AcDbLayerTableRecord
  2
Shape2066
 70
    0
 62
    7
  6
CONTINUOUS
  0
ENDTAB
  0
TABLE
  2
STYLE
  5
70
330
0
100
AcDbSymbolTable
 70
     2
  0
STYLE
  5
71
330
70
100
AcDbSymbolTableRecord
100
AcDbTextStyleTableRecord
  2
STANDARD
 70
     0
 40
0.0
 41
1.0
 50
0.0
 71
     0
 42
2.5
  3
arial.ttf
  4

  0
STYLE
  5
72
330
70
100
AcDbSymbolTableRecord
100
AcDbTextStyleTableRecord
  2
ANNOTATIVE
 70
     0
 40
0.0
 41
1.0
 50
0.0
 71
     0
 42
2.5
  3
arial.ttf
  4

  0
ENDTAB
  0
TABLE
  2
VIEW
  5
73
330
0
100
AcDbSymbolTable
 70
     0
  0
ENDTAB
  0
TABLE
  2
UCS
  5
74
330
0
100
AcDbSymbolTable
 70
     0
  0
ENDTAB
  0
TABLE
  2
APPID
  5
75
330
0
100
AcDbSymbolTable
 70
     2
  0
APPID
  5
76
330
75
100
AcDbSymbolTableRecord
100
AcDbRegAppTableRecord
  2
ACAD
 70
     0
  0
APPID
  5
77
330
75
100
AcDbSymbolTableRecord
100
AcDbRegAppTableRecord
  2
ACADANNOTATIVE
 70
     0
  0
ENDTAB
  0
TABLE
  2
DIMSTYLE
  5
78
330
0
100
AcDbSymbolTable
 70
     2
  0
DIMSTYLE
105
79
330
78
100
AcDbSymbolTableRecord
100
AcDbDimStyleTableRecord
  2
STANDARD
 70
     0
  3

  4

  5

  6

  7

 40
0.0
 41
2.5
 42
0.625
 43
3.75
 44
1.25
 45
0.0
 46
0.0
 47
0.0
 48
0.0
140
2.5
141
2.5
142
0.0
143
0.03937007874016
144
1.0
145
0.0
146
1.0
147
0.625
 71
     0
 72
     0
 73
     0
 74
     0
 75
     0
 76
     0
 77
     1
 78
     8
170
     0
171
     3
172
     1
173
     0
174
     0
175
     0
176
     0
177
     0
178
     0
270
     2
271
     2
272
     2
273
     2
274
     3
340
71
275
     0
280
     0
281
     0
282
     0
283
     0
284
     8
285
     0
286
     0
287
     3
288
     0
  0
ENDTAB
  0
TABLE
  2
BLOCK_RECORD
  5
A01
330
0
100
AcDbSymbolTable
  70
5
  0
BLOCK_RECORD
  5
A02
330
A01
100
AcDbSymbolTableRecord
100
AcDbBlockTableRecord
  2
*MODEL_SPACE
  0
BLOCK_RECORD
  5
A03
330
A01
100
AcDbSymbolTableRecord
100
AcDbBlockTableRecord
  2
*PAPER_SPACE
  0
ENDTAB
  0
ENDSEC
  0
SECTION
  2
BLOCKS
  0
BLOCK
  5
A04
330
A02
100
AcDbEntity
  8
0
100
AcDbBlockBegin
  2
*MODEL_SPACE
 70
   0
 10
0
 20
0
 30
0
  3
*MODEL_SPACE
  1
 
  0
ENDBLK
  5
A05
330
A02
100
AcDbEntity
  8
0
100
AcDbBlockEnd
  0
BLOCK
  5
A06
330
A03
100
AcDbEntity
 67
1
  8
0
100
AcDbBlockBegin
  2
*PAPER_SPACE
 70
   0
 10
0
 20
0
 30
0
  3
*PAPER_SPACE
  1
 
  0
ENDBLK
  5
A07
330
A03
100
AcDbEntity
 67
    1
  8
0
100
AcDbBlockEnd
  0
ENDSEC
  0
SECTION
  2
ENTITIES
  0
LINE
  5
A08
330
A02
100
AcDbEntity
  8
Shape
100
AcDbLine
 10
64.9978
 20
14.6924
 30
0
 11
80.3378
 21
10.5824
 31
0
  0
LINE
  5
A09
330
A02
100
AcDbEntity
  8
Shape001
100
AcDbLine
 10
94.4052
 20
81.4724
 30
0
 11
94.3168
 21
82.0036
 31
0
  0
LINE
  5
A0A
330
A02
100
AcDbEntity
  8
Shape002
100
AcDbLine
 10
94.3168
 20
82.0036
 30
0
 11
94.0688
 21
82.4667
 31
0
  0
LINE
  5
A0B
330
A02
100
AcDbEntity
  8
Shape003
100
AcDbLine
 10
94.0688
 20
82.4667
 30
0
 11
93.6872
 21
82.8276
 31
0
  0
LINE
  5
A0C
330
A02
100
AcDbEntity
  8
Shape004
100
AcDbLine
 10
93.6872
 20
82.8276
 30
0
 11
93.1978
 21
83.0524
 31
0
  0
LINE
  5
A0D
330
A02
100
AcDbEntity
  8
Shape005
100
AcDbLine
 10
1.3349
 20
78.8715
 30
0
 11
27.3678
 21
88.3224
 31
0
  0
LINE
  5
A0E
330
A02
100
AcDbEntity
  8
Shape006
100
AcDbLine
 10
41.046
 20
25.2023
 30
0
 11
39.9847
 21
25.9995
 31
0
  0
LINE
  5
A0F
330
A02
100
AcDbEntity
  8
Shape007
100
AcDbLine
 10
39.9847
 20
25.9995
 30
0
 11
38.6878
 21
26.2824
 31
0
  0
LINE
  5
A10
330
A02
100
AcDbEntity
  8
Shape008
100
AcDbLine
 10
41.046
 20
25.2023
 30
0
 11
49.8978
 21
15.6924
 31
0
  0
LINE
  5
A11
330
A02
100
AcDbEntity
  8
Shape009
100
AcDbLine
 10
113.128
 20
75.1308
 30
0
 11
113.112
 21
22.6344
 31
0
  0
LINE
  5
A12
330
A02
100
AcDbEntity
  8
Shape010
100
AcDbLine
 10
52.2578
 20
14.6879
 30
0
 11
64.9978
 21
14.6924
 31
0
  0
LINE
  5
A13
330
A02
100
AcDbEntity
  8
Shape011
100
AcDbLine
 10
1.3349
 20
78.8715
 30
0
 11
0.821634
 21
78.6136
 31
0
  0
LINE
  5
A14
330
A02
100
AcDbEntity
  8
Shape012
100
AcDbLine
 10
0.821634
 20
78.6136
 30
0
 11
0.423701
 21
78.2181
 31
0
  0
LINE
  5
A15
330
A02
100
AcDbEntity
  8
Shape013
100
AcDbLine
 10
0.423701
 20
78.2181
 30
0
 11
0.166393
 21
77.7195
 31
0
  0
LINE
  5
A16
330
A02
100
AcDbEntity
  8
Shape014
100
AcDbLine
 10
0.166393
 20
77.7195
 30
0
 11
0.075
 21
77.1524
 31
0
  0
LINE
  5
A17
330
A02
100
AcDbEntity
  8
Shape015
100
AcDbLine
 10
80.3378
 20
10.5824
 30
0
 11
98.2776
 21
0.2756
 31
0
  0
LINE
  5
A18
330
A02
100
AcDbEntity
  8
Shape016
100
AcDbLine
 10
0.0878
 20
26.9368
 30
0
 11
0.248884
 21
26.4772
 31
0
  0
LINE
  5
A19
330
A02
100
AcDbEntity
  8
Shape017
100
AcDbLine
 10
0.248884
 20
26.4772
 30
0
 11
0.6953
 21
26.2824
 31
0
  0
LINE
  5
A1A
330
A02
100
AcDbEntity
  8
Shape018
100
AcDbLine
 10
112.628
 20
75.7837
 30
0
 11
94.8674
 21
75.7837
 31
0
  0
LINE
  5
A1B
330
A02
100
AcDbEntity
  8
Shape019
100
AcDbLine
 10
113.128
 20
75.1308
 30
0
 11
112.989
 21
75.542
 31
0
  0
LINE
  5
A1C
330
A02
100
AcDbEntity
  8
Shape020
100
AcDbLine
 10
112.989
 20
75.542
 30
0
 11
112.628
 21
75.7837
 31
0
  0
LINE
  5
A1D
330
A02
100
AcDbEntity
  8
Shape021
100
AcDbLine
 10
0.075
 20
77.1524
 30
0
 11
0.0878
 21
26.9368
 31
0
  0
LINE
  5
A1E
330
A02
100
AcDbEntity
  8
Shape022
100
AcDbLine
 10
49.8978
 20
15.6924
 30
0
 11
50.9754
 21
14.9495
 31
0
  0
LINE
  5
A1F
330
A02
100
AcDbEntity
  8
Shape023
100
AcDbLine
 10
50.9754
 20
14.9495
 30
0
 11
52.2578
 21
14.6879
 31
0
  0
LINE
  5
A20
330
A02
100
AcDbEntity
  8
Shape024
100
AcDbLine
 10
100.173
 20
0.6725
 30
0
 11
113.112
 21
22.6344
 31
0
  0
LINE
  5
A21
330
A02
100
AcDbEntity
  8
Shape025
100
AcDbLine
 10
94.3888
 20
76.2924
 30
0
 11
94.5243
 21
75.9404
 31
0
  0
LINE
  5
A22
330
A02
100
AcDbEntity
  8
Shape026
100
AcDbLine
 10
94.5243
 20
75.9404
 30
0
 11
94.8674
 21
75.7837
 31
0
  0
LINE
  5
A23
330
A02
100
AcDbEntity
  8
Shape027
100
AcDbLine
 10
98.245
 20
0.2931
 30
0
 11
98.7454
 21
0.083789
 31
0
  0
LINE
  5
A24
330
A02
100
AcDbEntity
  8
Shape028
100
AcDbLine
 10
98.7454
 20
0.083789
 30
0
 11
99.2878
 21
0.082419
 31
0
  0
LINE
  5
A25
330
A02
100
AcDbEntity
  8
Shape029
100
AcDbLine
 10
99.2878
 20
0.082419
 30
0
 11
99.7892
 21
0.2892
 31
0
  0
LINE
  5
A26
330
A02
100
AcDbEntity
  8
Shape030
100
AcDbLine
 10
99.7892
 20
0.2892
 30
0
 11
100.173
 21
0.6725
 31
0
  0
LINE
  5
A27
330
A02
100
AcDbEntity
  8
Shape031
100
AcDbLine
 10
93.1978
 20
83.0524
 30
0
 11
73.2878
 21
88.3424
 31
0
  0
LINE
  5
A28
330
A02
100
AcDbEntity
  8
Shape032
100
AcDbLine
 10
94.3888
 20
76.2924
 30
0
 11
94.4052
 21
81.4724
 31
0
  0
LINE
  5
A29
330
A02
100
AcDbEntity
  8
Shape033
100
AcDbLine
 10
27.3678
 20
88.3224
 30
0
 11
73.2878
 21
88.3424
 31
0
  0
LINE
  5
A2A
330
A02
100
AcDbEntity
  8
Shape034
100
AcDbLine
 10
38.6878
 20
26.2824
 30
0
 11
0.6953
 21
26.2824
 31
0
  0
LINE
  5
A2B
330
A02
100
AcDbEntity
  8
Shape1853
100
AcDbLine
 10
74.1173
 20
84.8187
 30
0
 11
74.1173
 21
84.6061
 31
0
  0
LINE
  5
A2C
330
A02
100
AcDbEntity
  8
Shape1854
100
AcDbLine
 10
74.1173
 20
84.6061
 30
0
 11
74.1236
 21
84.566
 31
0
  0
LINE
  5
A2D
330
A02
100
AcDbEntity
  8
Shape1855
100
AcDbLine
 10
74.1236
 20
84.566
 30
0
 11
74.1452
 21
84.4296
 31
0
  0
LINE
  5
A2E
330
A02
100
AcDbEntity
  8
Shape1856
100
AcDbLine
 10
74.1452
 20
84.4296
 30
0
 11
74.1505
 21
84.3962
 31
0
  0
LINE
  5
A2F
330
A02
100
AcDbEntity
  8
Shape1857
100
AcDbLine
 10
74.1505
 20
84.3962
 30
0
 11
74.2042
 21
84.231
 31
0
  0
LINE
  5
A30
330
A02
100
AcDbEntity
  8
Shape1858
100
AcDbLine
 10
74.2042
 20
84.231
 30
0
 11
74.2162
 21
84.194
 31
0
  0
LINE
  5
A31
330
A02
100
AcDbEntity
  8
Shape1859
100
AcDbLine
 10
74.2162
 20
84.194
 30
0
 11
74.3127
 21
84.0046
 31
0
  0
LINE
  5
A32
330
A02
100
AcDbEntity
  8
Shape1860
100
AcDbLine
 10
74.3127
 20
84.0046
 30
0
 11
74.4377
 21
83.8326
 31
0
  0
LINE
  5
A33
330
A02
100
AcDbEntity
  8
Shape1861
100
AcDbLine
 10
74.4377
 20
83.8326
 30
0
 11
74.588
 21
83.6823
 31
0
  0
LINE
  5
A34
330
A02
100
AcDbEntity
  8
Shape1862
100
AcDbLine
 10
74.588
 20
83.6823
 30
0
 11
74.76
 21
83.5574
 31
0
  0
LINE
  5
A35
330
A02
100
AcDbEntity
  8
Shape1863
100
AcDbLine
 10
74.76
 20
83.5574
 30
0
 11
74.76
 21
83.5573
 31
0
  0
LINE
  5
A36
330
A02
100
AcDbEntity
  8
Shape1864
100
AcDbLine
 10
74.76
 20
83.5573
 30
0
 11
74.9494
 21
83.4608
 31
0
  0
LINE
  5
A37
330
A02
100
AcDbEntity
  8
Shape1865
100
AcDbLine
 10
74.9494
 20
83.4608
 30
0
 11
75.1515
 21
83.3952
 31
0
  0
LINE
  5
A38
330
A02
100
AcDbEntity
  8
Shape1866
100
AcDbLine
 10
75.1515
 20
83.3952
 30
0
 11
75.3615
 21
83.3619
 31
0
  0
LINE
  5
A39
330
A02
100
AcDbEntity
  8
Shape1867
100
AcDbLine
 10
75.3615
 20
83.3619
 30
0
 11
75.5741
 21
83.3619
 31
0
  0
LINE
  5
A3A
330
A02
100
AcDbEntity
  8
Shape1868
100
AcDbLine
 10
75.5741
 20
83.3619
 30
0
 11
75.784
 21
83.3952
 31
0
  0
LINE
  5
A3B
330
A02
100
AcDbEntity
  8
Shape1869
100
AcDbLine
 10
75.784
 20
83.3952
 30
0
 11
75.9862
 21
83.4608
 31
0
  0
LINE
  5
A3C
330
A02
100
AcDbEntity
  8
Shape1870
100
AcDbLine
 10
75.9862
 20
83.4608
 30
0
 11
76.1756
 21
83.5573
 31
0
  0
LINE
  5
A3D
330
A02
100
AcDbEntity
  8
Shape1871
100
AcDbLine
 10
76.1756
 20
83.5573
 30
0
 11
76.2164
 21
83.587
 31
0
  0
LINE
  5
A3E
330
A02
100
AcDbEntity
  8
Shape1872
100
AcDbLine
 10
76.2164
 20
83.587
 30
0
 11
76.3476
 21
83.6823
 31
0
  0
LINE
  5
A3F
330
A02
100
AcDbEntity
  8
Shape1873
100
AcDbLine
 10
76.3476
 20
83.6823
 30
0
 11
76.4979
 21
83.8326
 31
0
  0
LINE
  5
A40
330
A02
100
AcDbEntity
  8
Shape1874
100
AcDbLine
 10
76.4979
 20
83.8326
 30
0
 11
76.6228
 21
84.0046
 31
0
  0
LINE
  5
A41
330
A02
100
AcDbEntity
  8
Shape1875
100
AcDbLine
 10
76.6228
 20
84.0046
 30
0
 11
76.7193
 21
84.194
 31
0
  0
LINE
  5
A42
330
A02
100
AcDbEntity
  8
Shape1876
100
AcDbLine
 10
76.7193
 20
84.194
 30
0
 11
76.785
 21
84.3962
 31
0
  0
LINE
  5
A43
330
A02
100
AcDbEntity
  8
Shape1877
100
AcDbLine
 10
76.785
 20
84.3962
 30
0
 11
76.8183
 21
84.6061
 31
0
  0
LINE
  5
A44
330
A02
100
AcDbEntity
  8
Shape1878
100
AcDbLine
 10
76.8183
 20
84.6061
 30
0
 11
76.8183
 21
84.8187
 31
0
  0
LINE
  5
A45
330
A02
100
AcDbEntity
  8
Shape1879
100
AcDbLine
 10
76.8183
 20
84.8187
 30
0
 11
76.785
 21
85.0286
 31
0
  0
LINE
  5
A46
330
A02
100
AcDbEntity
  8
Shape1880
100
AcDbLine
 10
76.785
 20
85.0286
 30
0
 11
76.7193
 21
85.2308
 31
0
  0
LINE
  5
A47
330
A02
100
AcDbEntity
  8
Shape1881
100
AcDbLine
 10
76.7193
 20
85.2308
 30
0
 11
76.6228
 21
85.4202
 31
0
  0
LINE
  5
A48
330
A02
100
AcDbEntity
  8
Shape1882
100
AcDbLine
 10
76.6228
 20
85.4202
 30
0
 11
76.4979
 21
85.5922
 31
0
  0
LINE
  5
A49
330
A02
100
AcDbEntity
  8
Shape1883
100
AcDbLine
 10
76.4979
 20
85.5922
 30
0
 11
76.3476
 21
85.7425
 31
0
  0
LINE
  5
A4A
330
A02
100
AcDbEntity
  8
Shape1884
100
AcDbLine
 10
76.3476
 20
85.7425
 30
0
 11
76.1756
 21
85.8674
 31
0
  0
LINE
  5
A4B
330
A02
100
AcDbEntity
  8
Shape1885
100
AcDbLine
 10
76.1756
 20
85.8674
 30
0
 11
75.9862
 21
85.964
 31
0
  0
LINE
  5
A4C
330
A02
100
AcDbEntity
  8
Shape1886
100
AcDbLine
 10
75.9862
 20
85.964
 30
0
 11
75.784
 21
86.0296
 31
0
  0
LINE
  5
A4D
330
A02
100
AcDbEntity
  8
Shape1887
100
AcDbLine
 10
75.784
 20
86.0296
 30
0
 11
75.6227
 21
86.0552
 31
0
  0
LINE
  5
A4E
330
A02
100
AcDbEntity
  8
Shape1888
100
AcDbLine
 10
75.6227
 20
86.0552
 30
0
 11
75.5741
 21
86.0629
 31
0
  0
LINE
  5
A4F
330
A02
100
AcDbEntity
  8
Shape1889
100
AcDbLine
 10
75.5741
 20
86.0629
 30
0
 11
75.3615
 21
86.0629
 31
0
  0
LINE
  5
A50
330
A02
100
AcDbEntity
  8
Shape1890
100
AcDbLine
 10
75.3615
 20
86.0629
 30
0
 11
75.3128
 21
86.0552
 31
0
  0
LINE
  5
A51
330
A02
100
AcDbEntity
  8
Shape1891
100
AcDbLine
 10
75.3128
 20
86.0552
 30
0
 11
75.1515
 21
86.0296
 31
0
  0
LINE
  5
A52
330
A02
100
AcDbEntity
  8
Shape1892
100
AcDbLine
 10
75.1515
 20
86.0296
 30
0
 11
74.9494
 21
85.964
 31
0
  0
LINE
  5
A53
330
A02
100
AcDbEntity
  8
Shape1893
100
AcDbLine
 10
74.9494
 20
85.964
 30
0
 11
74.76
 21
85.8674
 31
0
  0
LINE
  5
A54
330
A02
100
AcDbEntity
  8
Shape1894
100
AcDbLine
 10
74.76
 20
85.8674
 30
0
 11
74.588
 21
85.7425
 31
0
  0
LINE
  5
A55
330
A02
100
AcDbEntity
  8
Shape1895
100
AcDbLine
 10
74.588
 20
85.7425
 30
0
 11
74.4377
 21
85.5922
 31
0
  0
LINE
  5
A56
330
A02
100
AcDbEntity
  8
Shape1896
100
AcDbLine
 10
74.4377
 20
85.5922
 30
0
 11
74.3127
 21
85.4202
 31
0
  0
LINE
  5
A57
330
A02
100
AcDbEntity
  8
Shape1897
100
AcDbLine
 10
74.3127
 20
85.4202
 30
0
 11
74.2162
 21
85.2308
 31
0
  0
LINE
  5
A58
330
A02
100
AcDbEntity
  8
Shape1898
100
AcDbLine
 10
74.2162
 20
85.2308
 30
0
 11
74.1505
 21
85.0286
 31
0
  0
LINE
  5
A59
330
A02
100
AcDbEntity
  8
Shape1899
100
AcDbLine
 10
74.1505
 20
85.0286
 30
0
 11
74.1234
 21
84.8577
 31
0
  0
LINE
  5
A5A
330
A02
100
AcDbEntity
  8
Shape1900
100
AcDbLine
 10
74.1234
 20
84.8577
 30
0
 11
74.1173
 21
84.8187
 31
0
  0
LINE
  5
A5B
330
A02
100
AcDbEntity
  8
Shape1902
100
AcDbLine
 10
102.097
 20
24.4587
 30
0
 11
102.097
 21
24.2461
 31
0
  0
LINE
  5
A5C
330
A02
100
AcDbEntity
  8
Shape1903
100
AcDbLine
 10
102.097
 20
24.2461
 30
0
 11
102.13
 21
24.0362
 31
0
  0
LINE
  5
A5D
330
A02
100
AcDbEntity
  8
Shape1904
100
AcDbLine
 10
102.13
 20
24.0362
 30
0
 11
102.139
 21
24.0082
 31
0
  0
LINE
  5
A5E
330
A02
100
AcDbEntity
  8
Shape1905
100
AcDbLine
 10
102.139
 20
24.0082
 30
0
 11
102.196
 21
23.834
 31
0
  0
LINE
  5
A5F
330
A02
100
AcDbEntity
  8
Shape1906
100
AcDbLine
 10
102.196
 20
23.834
 30
0
 11
102.292
 21
23.6446
 31
0
  0
LINE
  5
A60
330
A02
100
AcDbEntity
  8
Shape1907
100
AcDbLine
 10
102.292
 20
23.6446
 30
0
 11
102.417
 21
23.4726
 31
0
  0
LINE
  5
A61
330
A02
100
AcDbEntity
  8
Shape1908
100
AcDbLine
 10
102.417
 20
23.4726
 30
0
 11
102.568
 21
23.3223
 31
0
  0
LINE
  5
A62
330
A02
100
AcDbEntity
  8
Shape1909
100
AcDbLine
 10
102.568
 20
23.3223
 30
0
 11
102.74
 21
23.1974
 31
0
  0
LINE
  5
A63
330
A02
100
AcDbEntity
  8
Shape1910
100
AcDbLine
 10
102.74
 20
23.1974
 30
0
 11
102.74
 21
23.1974
 31
0
  0
LINE
  5
A64
330
A02
100
AcDbEntity
  8
Shape1911
100
AcDbLine
 10
102.74
 20
23.1974
 30
0
 11
102.74
 21
23.1973
 31
0
  0
LINE
  5
A65
330
A02
100
AcDbEntity
  8
Shape1912
100
AcDbLine
 10
102.74
 20
23.1973
 30
0
 11
102.929
 21
23.1008
 31
0
  0
LINE
  5
A66
330
A02
100
AcDbEntity
  8
Shape1913
100
AcDbLine
 10
102.929
 20
23.1008
 30
0
 11
103.132
 21
23.0352
 31
0
  0
LINE
  5
A67
330
A02
100
AcDbEntity
  8
Shape1914
100
AcDbLine
 10
103.132
 20
23.0352
 30
0
 11
103.341
 21
23.0019
 31
0
  0
LINE
  5
A68
330
A02
100
AcDbEntity
  8
Shape1915
100
AcDbLine
 10
103.341
 20
23.0019
 30
0
 11
103.341
 21
23.0019
 31
0
  0
LINE
  5
A69
330
A02
100
AcDbEntity
  8
Shape1916
100
AcDbLine
 10
103.341
 20
23.0019
 30
0
 11
103.554
 21
23.0019
 31
0
  0
LINE
  5
A6A
330
A02
100
AcDbEntity
  8
Shape1917
100
AcDbLine
 10
103.554
 20
23.0019
 30
0
 11
103.764
 21
23.0352
 31
0
  0
LINE
  5
A6B
330
A02
100
AcDbEntity
  8
Shape1918
100
AcDbLine
 10
103.764
 20
23.0352
 30
0
 11
103.966
 21
23.1008
 31
0
  0
LINE
  5
A6C
330
A02
100
AcDbEntity
  8
Shape1919
100
AcDbLine
 10
103.966
 20
23.1008
 30
0
 11
104.156
 21
23.1973
 31
0
  0
LINE
  5
A6D
330
A02
100
AcDbEntity
  8
Shape1920
100
AcDbLine
 10
104.156
 20
23.1973
 30
0
 11
104.177
 21
23.2133
 31
0
  0
LINE
  5
A6E
330
A02
100
AcDbEntity
  8
Shape1921
100
AcDbLine
 10
104.177
 20
23.2133
 30
0
 11
104.328
 21
23.3223
 31
0
  0
LINE
  5
A6F
330
A02
100
AcDbEntity
  8
Shape1922
100
AcDbLine
 10
104.328
 20
23.3223
 30
0
 11
104.328
 21
23.3223
 31
0
  0
LINE
  5
A70
330
A02
100
AcDbEntity
  8
Shape1923
100
AcDbLine
 10
104.328
 20
23.3223
 30
0
 11
104.478
 21
23.4726
 31
0
  0
LINE
  5
A71
330
A02
100
AcDbEntity
  8
Shape1924
100
AcDbLine
 10
104.478
 20
23.4726
 30
0
 11
104.478
 21
23.4726
 31
0
  0
LINE
  5
A72
330
A02
100
AcDbEntity
  8
Shape1925
100
AcDbLine
 10
104.478
 20
23.4726
 30
0
 11
104.603
 21
23.6446
 31
0
  0
LINE
  5
A73
330
A02
100
AcDbEntity
  8
Shape1926
100
AcDbLine
 10
104.603
 20
23.6446
 30
0
 11
104.603
 21
23.6446
 31
0
  0
LINE
  5
A74
330
A02
100
AcDbEntity
  8
Shape1927
100
AcDbLine
 10
104.603
 20
23.6446
 30
0
 11
104.7
 21
23.834
 31
0
  0
LINE
  5
A75
330
A02
100
AcDbEntity
  8
Shape1928
100
AcDbLine
 10
104.7
 20
23.834
 30
0
 11
104.765
 21
24.0362
 31
0
  0
LINE
  5
A76
330
A02
100
AcDbEntity
  8
Shape1929
100
AcDbLine
 10
104.765
 20
24.0362
 30
0
 11
104.799
 21
24.2461
 31
0
  0
LINE
  5
A77
330
A02
100
AcDbEntity
  8
Shape1930
100
AcDbLine
 10
104.799
 20
24.2461
 30
0
 11
104.798
 21
24.4587
 31
0
  0
LINE
  5
A78
330
A02
100
AcDbEntity
  8
Shape1931
100
AcDbLine
 10
104.798
 20
24.4587
 30
0
 11
104.765
 21
24.6686
 31
0
  0
LINE
  5
A79
330
A02
100
AcDbEntity
  8
Shape1932
100
AcDbLine
 10
104.765
 20
24.6686
 30
0
 11
104.699
 21
24.8708
 31
0
  0
LINE
  5
A7A
330
A02
100
AcDbEntity
  8
Shape1933
100
AcDbLine
 10
104.699
 20
24.8708
 30
0
 11
104.603
 21
25.0602
 31
0
  0
LINE
  5
A7B
330
A02
100
AcDbEntity
  8
Shape1934
100
AcDbLine
 10
104.603
 20
25.0602
 30
0
 11
104.603
 21
25.0602
 31
0
  0
LINE
  5
A7C
330
A02
100
AcDbEntity
  8
Shape1935
100
AcDbLine
 10
104.603
 20
25.0602
 30
0
 11
104.478
 21
25.2322
 31
0
  0
LINE
  5
A7D
330
A02
100
AcDbEntity
  8
Shape1936
100
AcDbLine
 10
104.478
 20
25.2322
 30
0
 11
104.328
 21
25.3825
 31
0
  0
LINE
  5
A7E
330
A02
100
AcDbEntity
  8
Shape1937
100
AcDbLine
 10
104.328
 20
25.3825
 30
0
 11
104.156
 21
25.5074
 31
0
  0
LINE
  5
A7F
330
A02
100
AcDbEntity
  8
Shape1938
100
AcDbLine
 10
104.156
 20
25.5074
 30
0
 11
103.966
 21
25.604
 31
0
  0
LINE
  5
A80
330
A02
100
AcDbEntity
  8
Shape1939
100
AcDbLine
 10
103.966
 20
25.604
 30
0
 11
103.966
 21
25.604
 31
0
  0
LINE
  5
A81
330
A02
100
AcDbEntity
  8
Shape1940
100
AcDbLine
 10
103.966
 20
25.604
 30
0
 11
103.764
 21
25.6696
 31
0
  0
LINE
  5
A82
330
A02
100
AcDbEntity
  8
Shape1941
100
AcDbLine
 10
103.764
 20
25.6696
 30
0
 11
103.764
 21
25.6696
 31
0
  0
LINE
  5
A83
330
A02
100
AcDbEntity
  8
Shape1942
100
AcDbLine
 10
103.764
 20
25.6696
 30
0
 11
103.601
 21
25.6955
 31
0
  0
LINE
  5
A84
330
A02
100
AcDbEntity
  8
Shape1943
100
AcDbLine
 10
103.601
 20
25.6955
 30
0
 11
103.554
 21
25.7029
 31
0
  0
LINE
  5
A85
330
A02
100
AcDbEntity
  8
Shape1944
100
AcDbLine
 10
103.554
 20
25.7029
 30
0
 11
103.341
 21
25.7029
 31
0
  0
LINE
  5
A86
330
A02
100
AcDbEntity
  8
Shape1945
100
AcDbLine
 10
103.341
 20
25.7029
 30
0
 11
103.294
 21
25.6955
 31
0
  0
LINE
  5
A87
330
A02
100
AcDbEntity
  8
Shape1946
100
AcDbLine
 10
103.294
 20
25.6955
 30
0
 11
103.131
 21
25.6696
 31
0
  0
LINE
  5
A88
330
A02
100
AcDbEntity
  8
Shape1947
100
AcDbLine
 10
103.131
 20
25.6696
 30
0
 11
102.929
 21
25.604
 31
0
  0
LINE
  5
A89
330
A02
100
AcDbEntity
  8
Shape1948
100
AcDbLine
 10
102.929
 20
25.604
 30
0
 11
102.74
 21
25.5074
 31
0
  0
LINE
  5
A8A
330
A02
100
AcDbEntity
  8
Shape1949
100
AcDbLine
 10
102.74
 20
25.5074
 30
0
 11
102.567
 21
25.3825
 31
0
  0
LINE
  5
A8B
330
A02
100
AcDbEntity
  8
Shape1950
100
AcDbLine
 10
102.567
 20
25.3825
 30
0
 11
102.417
 21
25.2322
 31
0
  0
LINE
  5
A8C
330
A02
100
AcDbEntity
  8
Shape1951
100
AcDbLine
 10
102.417
 20
25.2322
 30
0
 11
102.292
 21
25.0602
 31
0
  0
LINE
  5
A8D
330
A02
100
AcDbEntity
  8
Shape1952
100
AcDbLine
 10
102.292
 20
25.0602
 30
0
 11
102.196
 21
24.8708
 31
0
  0
LINE
  5
A8E
330
A02
100
AcDbEntity
  8
Shape1953
100
AcDbLine
 10
102.196
 20
24.8708
 30
0
 11
102.13
 21
24.6686
 31
0
  0
LINE
  5
A8F
330
A02
100
AcDbEntity
  8
Shape1954
100
AcDbLine
 10
102.13
 20
24.6686
 30
0
 11
102.11
 21
24.5408
 31
0
  0
LINE
  5
A90
330
A02
100
AcDbEntity
  8
Shape1955
100
AcDbLine
 10
102.11
 20
24.5408
 30
0
 11
102.097
 21
24.4587
 31
0
  0
LINE
  5
A91
330
A02
100
AcDbEntity
  8
Shape1957
100
AcDbLine
 10
14.0369
 20
80.7687
 30
0
 11
14.0373
 21
80.5561
 31
0
  0
LINE
  5
A92
330
A02
100
AcDbEntity
  8
Shape1958
100
AcDbLine
 10
14.0373
 20
80.5561
 30
0
 11
14.0705
 21
80.3462
 31
0
  0
LINE
  5
A93
330
A02
100
AcDbEntity
  8
Shape1959
100
AcDbLine
 10
14.0705
 20
80.3462
 30
0
 11
14.0863
 21
80.2977
 31
0
  0
LINE
  5
A94
330
A02
100
AcDbEntity
  8
Shape1960
100
AcDbLine
 10
14.0863
 20
80.2977
 30
0
 11
14.1362
 21
80.144
 31
0
  0
LINE
  5
A95
330
A02
100
AcDbEntity
  8
Shape1961
100
AcDbLine
 10
14.1362
 20
80.144
 30
0
 11
14.2327
 21
79.9546
 31
0
  0
LINE
  5
A96
330
A02
100
AcDbEntity
  8
Shape1962
100
AcDbLine
 10
14.2327
 20
79.9546
 30
0
 11
14.3577
 21
79.7826
 31
0
  0
LINE
  5
A97
330
A02
100
AcDbEntity
  8
Shape1963
100
AcDbLine
 10
14.3577
 20
79.7826
 30
0
 11
14.508
 21
79.6323
 31
0
  0
LINE
  5
A98
330
A02
100
AcDbEntity
  8
Shape1964
100
AcDbLine
 10
14.508
 20
79.6323
 30
0
 11
14.68
 21
79.5074
 31
0
  0
LINE
  5
A99
330
A02
100
AcDbEntity
  8
Shape1965
100
AcDbLine
 10
14.68
 20
79.5074
 30
0
 11
14.68
 21
79.5073
 31
0
  0
LINE
  5
A9A
330
A02
100
AcDbEntity
  8
Shape1966
100
AcDbLine
 10
14.68
 20
79.5073
 30
0
 11
14.8694
 21
79.4108
 31
0
  0
LINE
  5
A9B
330
A02
100
AcDbEntity
  8
Shape1967
100
AcDbLine
 10
14.8694
 20
79.4108
 30
0
 11
15.0715
 21
79.3452
 31
0
  0
LINE
  5
A9C
330
A02
100
AcDbEntity
  8
Shape1968
100
AcDbLine
 10
15.0715
 20
79.3452
 30
0
 11
15.2815
 21
79.3119
 31
0
  0
LINE
  5
A9D
330
A02
100
AcDbEntity
  8
Shape1969
100
AcDbLine
 10
15.2815
 20
79.3119
 30
0
 11
15.4941
 21
79.3119
 31
0
  0
LINE
  5
A9E
330
A02
100
AcDbEntity
  8
Shape1970
100
AcDbLine
 10
15.4941
 20
79.3119
 30
0
 11
15.704
 21
79.3452
 31
0
  0
LINE
  5
A9F
330
A02
100
AcDbEntity
  8
Shape1971
100
AcDbLine
 10
15.704
 20
79.3452
 30
0
 11
15.9062
 21
79.4108
 31
0
  0
LINE
  5
AA0
330
A02
100
AcDbEntity
  8
Shape1972
100
AcDbLine
 10
15.9062
 20
79.4108
 30
0
 11
16.0956
 21
79.5073
 31
0
  0
LINE
  5
AA1
330
A02
100
AcDbEntity
  8
Shape1973
100
AcDbLine
 10
16.0956
 20
79.5073
 30
0
 11
16.1176
 21
79.5233
 31
0
  0
LINE
  5
AA2
330
A02
100
AcDbEntity
  8
Shape1974
100
AcDbLine
 10
16.1176
 20
79.5233
 30
0
 11
16.2676
 21
79.6323
 31
0
  0
LINE
  5
AA3
330
A02
100
AcDbEntity
  8
Shape1975
100
AcDbLine
 10
16.2676
 20
79.6323
 30
0
 11
16.4179
 21
79.7826
 31
0
  0
LINE
  5
AA4
330
A02
100
AcDbEntity
  8
Shape1976
100
AcDbLine
 10
16.4179
 20
79.7826
 30
0
 11
16.5428
 21
79.9546
 31
0
  0
LINE
  5
AA5
330
A02
100
AcDbEntity
  8
Shape1977
100
AcDbLine
 10
16.5428
 20
79.9546
 30
0
 11
16.6393
 21
80.144
 31
0
  0
LINE
  5
AA6
330
A02
100
AcDbEntity
  8
Shape1978
100
AcDbLine
 10
16.6393
 20
80.144
 30
0
 11
16.705
 21
80.3462
 31
0
  0
LINE
  5
AA7
330
A02
100
AcDbEntity
  8
Shape1979
100
AcDbLine
 10
16.705
 20
80.3462
 30
0
 11
16.7383
 21
80.5561
 31
0
  0
LINE
  5
AA8
330
A02
100
AcDbEntity
  8
Shape1980
100
AcDbLine
 10
16.7383
 20
80.5561
 30
0
 11
16.7383
 21
80.7687
 31
0
  0
LINE
  5
AA9
330
A02
100
AcDbEntity
  8
Shape1981
100
AcDbLine
 10
16.7383
 20
80.7687
 30
0
 11
16.705
 21
80.9786
 31
0
  0
LINE
  5
AAA
330
A02
100
AcDbEntity
  8
Shape1982
100
AcDbLine
 10
16.705
 20
80.9786
 30
0
 11
16.6393
 21
81.1808
 31
0
  0
LINE
  5
AAB
330
A02
100
AcDbEntity
  8
Shape1983
100
AcDbLine
 10
16.6393
 20
81.1808
 30
0
 11
16.5428
 21
81.3702
 31
0
  0
LINE
  5
AAC
330
A02
100
AcDbEntity
  8
Shape1984
100
AcDbLine
 10
16.5428
 20
81.3702
 30
0
 11
16.4179
 21
81.5422
 31
0
  0
LINE
  5
AAD
330
A02
100
AcDbEntity
  8
Shape1985
100
AcDbLine
 10
16.4179
 20
81.5422
 30
0
 11
16.2676
 21
81.6925
 31
0
  0
LINE
  5
AAE
330
A02
100
AcDbEntity
  8
Shape1986
100
AcDbLine
 10
16.2676
 20
81.6925
 30
0
 11
16.1743
 21
81.7602
 31
0
  0
LINE
  5
AAF
330
A02
100
AcDbEntity
  8
Shape1987
100
AcDbLine
 10
16.1743
 20
81.7602
 30
0
 11
16.0956
 21
81.8174
 31
0
  0
LINE
  5
AB0
330
A02
100
AcDbEntity
  8
Shape1988
100
AcDbLine
 10
16.0956
 20
81.8174
 30
0
 11
15.9062
 21
81.914
 31
0
  0
LINE
  5
AB1
330
A02
100
AcDbEntity
  8
Shape1989
100
AcDbLine
 10
15.9062
 20
81.914
 30
0
 11
15.704
 21
81.9796
 31
0
  0
LINE
  5
AB2
330
A02
100
AcDbEntity
  8
Shape1990
100
AcDbLine
 10
15.704
 20
81.9796
 30
0
 11
15.5427
 21
82.0052
 31
0
  0
LINE
  5
AB3
330
A02
100
AcDbEntity
  8
Shape1991
100
AcDbLine
 10
15.5427
 20
82.0052
 30
0
 11
15.4941
 21
82.0129
 31
0
  0
LINE
  5
AB4
330
A02
100
AcDbEntity
  8
Shape1992
100
AcDbLine
 10
15.4941
 20
82.0129
 30
0
 11
15.2815
 21
82.0129
 31
0
  0
LINE
  5
AB5
330
A02
100
AcDbEntity
  8
Shape1993
100
AcDbLine
 10
15.2815
 20
82.0129
 30
0
 11
15.2328
 21
82.0052
 31
0
  0
LINE
  5
AB6
330
A02
100
AcDbEntity
  8
Shape1994
100
AcDbLine
 10
15.2328
 20
82.0052
 30
0
 11
15.0715
 21
81.9796
 31
0
  0
LINE
  5
AB7
330
A02
100
AcDbEntity
  8
Shape1995
100
AcDbLine
 10
15.0715
 20
81.9796
 30
0
 11
14.8694
 21
81.914
 31
0
  0
LINE
  5
AB8
330
A02
100
AcDbEntity
  8
Shape1996
100
AcDbLine
 10
14.8694
 20
81.914
 30
0
 11
14.68
 21
81.8174
 31
0
  0
LINE
  5
AB9
330
A02
100
AcDbEntity
  8
Shape1997
100
AcDbLine
 10
14.68
 20
81.8174
 30
0
 11
14.508
 21
81.6925
 31
0
  0
LINE
  5
ABA
330
A02
100
AcDbEntity
  8
Shape1998
100
AcDbLine
 10
14.508
 20
81.6925
 30
0
 11
14.3577
 21
81.5422
 31
0
  0
LINE
  5
ABB
330
A02
100
AcDbEntity
  8
Shape1999
100
AcDbLine
 10
14.3577
 20
81.5422
 30
0
 11
14.2327
 21
81.3702
 31
0
  0
LINE
  5
ABC
330
A02
100
AcDbEntity
  8
Shape2000
100
AcDbLine
 10
14.2327
 20
81.3702
 30
0
 11
14.1362
 21
81.1808
 31
0
  0
LINE
  5
ABD
330
A02
100
AcDbEntity
  8
Shape2001
100
AcDbLine
 10
14.1362
 20
81.1808
 30
0
 11
14.1149
 21
81.1152
 31
0
  0
LINE
  5
ABE
330
A02
100
AcDbEntity
  8
Shape2002
100
AcDbLine
 10
14.1149
 20
81.1152
 30
0
 11
14.0705
 21
80.9786
 31
0
  0
LINE
  5
ABF
330
A02
100
AcDbEntity
  8
Shape2003
100
AcDbLine
 10
14.0705
 20
80.9786
 30
0
 11
14.0416
 21
80.7963
 31
0
  0
LINE
  5
AC0
330
A02
100
AcDbEntity
  8
Shape2004
100
AcDbLine
 10
14.0416
 20
80.7963
 30
0
 11
14.0373
 21
80.7687
 31
0
  0
LINE
  5
AC1
330
A02
100
AcDbEntity
  8
Shape2019
100
AcDbLine
 10
27.4689
 20
30.7907
 30
0
 11
27.4689
 21
30.5781
 31
0
  0
LINE
  5
AC2
330
A02
100
AcDbEntity
  8
Shape2020
100
AcDbLine
 10
27.4689
 20
30.5781
 30
0
 11
27.5021
 21
30.3682
 31
0
  0
LINE
  5
AC3
330
A02
100
AcDbEntity
  8
Shape2021
100
AcDbLine
 10
27.5021
 20
30.3682
 30
0
 11
27.5179
 21
30.3197
 31
0
  0
LINE
  5
AC4
330
A02
100
AcDbEntity
  8
Shape2022
100
AcDbLine
 10
27.5179
 20
30.3197
 30
0
 11
27.5678
 21
30.166
 31
0
  0
LINE
  5
AC5
330
A02
100
AcDbEntity
  8
Shape2023
100
AcDbLine
 10
27.5678
 20
30.166
 30
0
 11
27.6643
 21
29.9766
 31
0
  0
LINE
  5
AC6
330
A02
100
AcDbEntity
  8
Shape2024
100
AcDbLine
 10
27.6643
 20
29.9766
 30
0
 11
27.7893
 21
29.8046
 31
0
  0
LINE
  5
AC7
330
A02
100
AcDbEntity
  8
Shape2025
100
AcDbLine
 10
27.7893
 20
29.8046
 30
0
 11
27.9396
 21
29.6543
 31
0
  0
LINE
  5
AC8
330
A02
100
AcDbEntity
  8
Shape2026
100
AcDbLine
 10
27.9396
 20
29.6543
 30
0
 11
28.1116
 21
29.5294
 31
0
  0
LINE
  5
AC9
330
A02
100
AcDbEntity
  8
Shape2027
100
AcDbLine
 10
28.1116
 20
29.5294
 30
0
 11
28.1116
 21
29.5293
 31
0
  0
LINE
  5
ACA
330
A02
100
AcDbEntity
  8
Shape2028
100
AcDbLine
 10
28.1116
 20
29.5293
 30
0
 11
28.301
 21
29.4328
 31
0
  0
LINE
  5
ACB
330
A02
100
AcDbEntity
  8
Shape2029
100
AcDbLine
 10
28.301
 20
29.4328
 30
0
 11
28.5031
 21
29.3672
 31
0
  0
LINE
  5
ACC
330
A02
100
AcDbEntity
  8
Shape2030
100
AcDbLine
 10
28.5031
 20
29.3672
 30
0
 11
28.7131
 21
29.3339
 31
0
  0
LINE
  5
ACD
330
A02
100
AcDbEntity
  8
Shape2031
100
AcDbLine
 10
28.7131
 20
29.3339
 30
0
 11
28.9257
 21
29.3339
 31
0
  0
LINE
  5
ACE
330
A02
100
AcDbEntity
  8
Shape2032
100
AcDbLine
 10
28.9257
 20
29.3339
 30
0
 11
29.1356
 21
29.3672
 31
0
  0
LINE
  5
ACF
330
A02
100
AcDbEntity
  8
Shape2033
100
AcDbLine
 10
29.1356
 20
29.3672
 30
0
 11
29.3378
 21
29.4328
 31
0
  0
LINE
  5
AD0
330
A02
100
AcDbEntity
  8
Shape2034
100
AcDbLine
 10
29.3378
 20
29.4328
 30
0
 11
29.5272
 21
29.5293
 31
0
  0
LINE
  5
AD1
330
A02
100
AcDbEntity
  8
Shape2035
100
AcDbLine
 10
29.5272
 20
29.5293
 30
0
 11
29.5492
 21
29.5453
 31
0
  0
LINE
  5
AD2
330
A02
100
AcDbEntity
  8
Shape2036
100
AcDbLine
 10
29.5492
 20
29.5453
 30
0
 11
29.6992
 21
29.6543
 31
0
  0
LINE
  5
AD3
330
A02
100
AcDbEntity
  8
Shape2037
100
AcDbLine
 10
29.6992
 20
29.6543
 30
0
 11
29.8495
 21
29.8046
 31
0
  0
LINE
  5
AD4
330
A02
100
AcDbEntity
  8
Shape2038
100
AcDbLine
 10
29.8495
 20
29.8046
 30
0
 11
29.9744
 21
29.9766
 31
0
  0
LINE
  5
AD5
330
A02
100
AcDbEntity
  8
Shape2039
100
AcDbLine
 10
29.9744
 20
29.9766
 30
0
 11
30.0709
 21
30.166
 31
0
  0
LINE
  5
AD6
330
A02
100
AcDbEntity
  8
Shape2040
100
AcDbLine
 10
30.0709
 20
30.166
 30
0
 11
30.1366
 21
30.3682
 31
0
  0
LINE
  5
AD7
330
A02
100
AcDbEntity
  8
Shape2041
100
AcDbLine
 10
30.1366
 20
30.3682
 30
0
 11
30.1699
 21
30.5781
 31
0
  0
LINE
  5
AD8
330
A02
100
AcDbEntity
  8
Shape2042
100
AcDbLine
 10
30.1699
 20
30.5781
 30
0
 11
30.1699
 21
30.7907
 31
0
  0
LINE
  5
AD9
330
A02
100
AcDbEntity
  8
Shape2043
100
AcDbLine
 10
30.1699
 20
30.7907
 30
0
 11
30.1366
 21
31.0006
 31
0
  0
LINE
  5
ADA
330
A02
100
AcDbEntity
  8
Shape2044
100
AcDbLine
 10
30.1366
 20
31.0006
 30
0
 11
30.0709
 21
31.2028
 31
0
  0
LINE
  5
ADB
330
A02
100
AcDbEntity
  8
Shape2045
100
AcDbLine
 10
30.0709
 20
31.2028
 30
0
 11
29.9744
 21
31.3922
 31
0
  0
LINE
  5
ADC
330
A02
100
AcDbEntity
  8
Shape2046
100
AcDbLine
 10
29.9744
 20
31.3922
 30
0
 11
29.8495
 21
31.5642
 31
0
  0
LINE
  5
ADD
330
A02
100
AcDbEntity
  8
Shape2047
100
AcDbLine
 10
29.8495
 20
31.5642
 30
0
 11
29.6992
 21
31.7145
 31
0
  0
LINE
  5
ADE
330
A02
100
AcDbEntity
  8
Shape2048
100
AcDbLine
 10
29.6992
 20
31.7145
 30
0
 11
29.6059
 21
31.7822
 31
0
  0
LINE
  5
ADF
330
A02
100
AcDbEntity
  8
Shape2049
100
AcDbLine
 10
29.6059
 20
31.7822
 30
0
 11
29.5272
 21
31.8394
 31
0
  0
LINE
  5
AE0
330
A02
100
AcDbEntity
  8
Shape2050
100
AcDbLine
 10
29.5272
 20
31.8394
 30
0
 11
29.3378
 21
31.936
 31
0
  0
LINE
  5
AE1
330
A02
100
AcDbEntity
  8
Shape2051
100
AcDbLine
 10
29.3378
 20
31.936
 30
0
 11
29.1356
 21
32.0016
 31
0
  0
LINE
  5
AE2
330
A02
100
AcDbEntity
  8
Shape2052
100
AcDbLine
 10
29.1356
 20
32.0016
 30
0
 11
28.9743
 21
32.0272
 31
0
  0
LINE
  5
AE3
330
A02
100
AcDbEntity
  8
Shape2053
100
AcDbLine
 10
28.9743
 20
32.0272
 30
0
 11
28.9257
 21
32.0349
 31
0
  0
LINE
  5
AE4
330
A02
100
AcDbEntity
  8
Shape2054
100
AcDbLine
 10
28.9257
 20
32.0349
 30
0
 11
28.7131
 21
32.0349
 31
0
  0
LINE
  5
AE5
330
A02
100
AcDbEntity
  8
Shape2055
100
AcDbLine
 10
28.7131
 20
32.0349
 30
0
 11
28.6644
 21
32.0272
 31
0
  0
LINE
  5
AE6
330
A02
100
AcDbEntity
  8
Shape2056
100
AcDbLine
 10
28.6644
 20
32.0272
 30
0
 11
28.5031
 21
32.0016
 31
0
  0
LINE
  5
AE7
330
A02
100
AcDbEntity
  8
Shape2057
100
AcDbLine
 10
28.5031
 20
32.0016
 30
0
 11
28.301
 21
31.936
 31
0
  0
LINE
  5
AE8
330
A02
100
AcDbEntity
  8
Shape2058
100
AcDbLine
 10
28.301
 20
31.936
 30
0
 11
28.1116
 21
31.8394
 31
0
  0
LINE
  5
AE9
330
A02
100
AcDbEntity
  8
Shape2059
100
AcDbLine
 10
28.1116
 20
31.8394
 30
0
 11
27.9396
 21
31.7145
 31
0
  0
LINE
  5
AEA
330
A02
100
AcDbEntity
  8
Shape2060
100
AcDbLine
 10
27.9396
 20
31.7145
 30
0
 11
27.7893
 21
31.5642
 31
0
  0
LINE
  5
AEB
330
A02
100
AcDbEntity
  8
Shape2061
100
AcDbLine
 10
27.7893
 20
31.5642
 30
0
 11
27.6643
 21
31.3922
 31
0
  0
LINE
  5
AEC
330
A02
100
AcDbEntity
  8
Shape2062
100
AcDbLine
 10
27.6643
 20
31.3922
 30
0
 11
27.5678
 21
31.2028
 31
0
  0
LINE
  5
AED
330
A02
100
AcDbEntity
  8
Shape2063
100
AcDbLine
 10
27.5678
 20
31.2028
 30
0
 11
27.5465
 21
31.1372
 31
0
  0
LINE
  5
AEE
330
A02
100
AcDbEntity
  8
Shape2064
100
AcDbLine
 10
27.5465
 20
31.1372
 30
0
 11
27.5021
 21
31.0006
 31
0
  0
LINE
  5
AEF
330
A02
100
AcDbEntity
  8
Shape2065
100
AcDbLine
 10
27.5021
 20
31.0006
 30
0
 11
27.4732
 21
30.8183
 31
0
  0
LINE
  5
AF0
330
A02
100
AcDbEntity
  8
Shape2066
100
AcDbLine
 10
27.4732
 20
30.8183
 30
0
 11
27.4689
 21
30.7907
 31
0
  0
ENDSEC
  0
SECTION
  2
OBJECTS
  0
DICTIONARY
  5
F000
330
0
100
AcDbDictionary
  3
ACAD_GROUP
350
F001
  0
DICTIONARY
  5
F001
330
F000
100
AcDbDictionary
  0
ENDSEC
  0
EOF