%TF.GenerationSoftware,KiCad,Pcbnew,8.0.4*%
%TF.CreationDate,2024-09-02T16:48:57+07:00*%
%TF.ProjectId,cc36-rounded,63633336-2d72-46f7-956e-6465642e6b69,rev?*%
%TF.SameCoordinates,Original*%
%TF.FileFunction,Drillmap*%
%TF.FilePolarity,Positive*%
%FSLAX45Y45*%
G04 Gerber Fmt 4.5, Leading zero omitted, Abs format (unit mm)*
G04 Created by KiCad (PCBNEW 8.0.4) date 2024-09-02 16:48:57*
%MOMM*%
%LPD*%
G01*
G04 APERTURE LIST*
%ADD10C,0.150000*%
%ADD11C,0.200000*%
%ADD12C,0.100000*%
%ADD13C,0.160000*%
%ADD14C,0.170180*%
%ADD15C,0.300000*%
%ADD16C,0.342900*%
G04 APERTURE END LIST*
D10*
X12595000Y-12098000D02*
X14011000Y-12099000D01*
X16997964Y-5989871D02*
G75*
G02*
X16950098Y-5939002I2036J49871D01*
G01*
X9302048Y-5556598D02*
G75*
G02*
X9252048Y-5606598I-49998J-2D01*
G01*
X13241400Y-4937200D02*
G75*
G02*
X13191400Y-4887200I0J50000D01*
G01*
X13141400Y-4712200D02*
G75*
G02*
X13191400Y-4762200I0J-50000D01*
G01*
X7503240Y-10871200D02*
X7504040Y-5657200D01*
X9303000Y-4987000D02*
G75*
G02*
X9353000Y-4937000I50000J0D01*
G01*
X14942400Y-4937200D02*
X13241400Y-4937200D01*
X11516281Y-10939685D02*
X7563995Y-10936645D01*
X14942400Y-4937200D02*
G75*
G02*
X14992400Y-4987200I0J-50000D01*
G01*
X13141400Y-4712200D02*
X11245400Y-4712200D01*
X11145400Y-4937200D02*
X9353000Y-4937000D01*
X11195400Y-4887200D02*
G75*
G02*
X11145400Y-4937200I-50000J0D01*
G01*
X11195400Y-4762200D02*
X11195400Y-4887200D01*
X9303000Y-4987000D02*
X9302048Y-5556598D01*
X7563995Y-10936645D02*
G75*
G02*
X7503243Y-10871200I5J60925D01*
G01*
X16900789Y-5185798D02*
X15042400Y-5187200D01*
X14011000Y-12099000D02*
X15545000Y-12510000D01*
X11516281Y-10939685D02*
X12595000Y-12098000D01*
X9252048Y-5606598D02*
X7554040Y-5607200D01*
X7504040Y-5657200D02*
G75*
G02*
X7554040Y-5607200I50000J0D01*
G01*
X18774000Y-5989871D02*
G75*
G02*
X18824005Y-6055155I-17620J-65289D01*
G01*
X17528519Y-13500986D02*
X18822448Y-11304798D01*
X11195400Y-4762200D02*
G75*
G02*
X11245400Y-4712200I50000J0D01*
G01*
X18774000Y-5989871D02*
X16997964Y-5989871D01*
X14992400Y-5137200D02*
X14992400Y-4987200D01*
X18824000Y-6055155D02*
X18822448Y-11304798D01*
X17528519Y-13500986D02*
G75*
G02*
X17335720Y-13538932I-115298J77048D01*
G01*
X15042400Y-5187200D02*
G75*
G02*
X14992400Y-5137200I0J50000D01*
G01*
X13191400Y-4887200D02*
X13191400Y-4762200D01*
X15545000Y-12510000D02*
X17338983Y-13540679D01*
X16949779Y-5225800D02*
X16950000Y-5939000D01*
X16900789Y-5185798D02*
G75*
G02*
X16949782Y-5225799I2J-50002D01*
G01*
D11*
D12*
X17515000Y-6132500D02*
X17595000Y-6212500D01*
X17595000Y-6132500D02*
X17515000Y-6212500D01*
X17815000Y-6132500D02*
X17895000Y-6212500D01*
X17895000Y-6132500D02*
X17815000Y-6212500D01*
X18715000Y-9940000D02*
G75*
G02*
X18615000Y-9940000I-50000J0D01*
G01*
X18615000Y-9940000D02*
G75*
G02*
X18715000Y-9940000I50000J0D01*
G01*
X18715000Y-10160000D02*
G75*
G02*
X18615000Y-10160000I-50000J0D01*
G01*
X18615000Y-10160000D02*
G75*
G02*
X18715000Y-10160000I50000J0D01*
G01*
D13*
X9510000Y-6669000D02*
X9510000Y-6829000D01*
X9430000Y-6749000D02*
X9590000Y-6749000D01*
X10389000Y-10420000D02*
X10389000Y-10580000D01*
X10309000Y-10500000D02*
X10469000Y-10500000D01*
X14880000Y-6670000D02*
X14880000Y-6830000D01*
X14800000Y-6750000D02*
X14960000Y-6750000D01*
X16640000Y-10620000D02*
X16640000Y-10780000D01*
X16560000Y-10700000D02*
X16720000Y-10700000D01*
D14*
X8095368Y-8315168D02*
X8095368Y-8194832D01*
X7975032Y-8194832D01*
X7975032Y-8315168D01*
X8095368Y-8315168D01*
X8095368Y-10016968D02*
X8095368Y-9896632D01*
X7975032Y-9896632D01*
X7975032Y-10016968D01*
X8095368Y-10016968D01*
X8101168Y-6618168D02*
X8101168Y-6497832D01*
X7980832Y-6497832D01*
X7980832Y-6618168D01*
X8101168Y-6618168D01*
X9195368Y-8315168D02*
X9195368Y-8194832D01*
X9075032Y-8194832D01*
X9075032Y-8315168D01*
X9195368Y-8315168D01*
X9195368Y-10016968D02*
X9195368Y-9896632D01*
X9075032Y-9896632D01*
X9075032Y-10016968D01*
X9195368Y-10016968D01*
X9201168Y-6618168D02*
X9201168Y-6497832D01*
X9080832Y-6497832D01*
X9080832Y-6618168D01*
X9201168Y-6618168D01*
X9897168Y-7661168D02*
X9897168Y-7540832D01*
X9776832Y-7540832D01*
X9776832Y-7661168D01*
X9897168Y-7661168D01*
X9897168Y-9362968D02*
X9897168Y-9242632D01*
X9776832Y-9242632D01*
X9776832Y-9362968D01*
X9897168Y-9362968D01*
X9901168Y-5962168D02*
X9901168Y-5841832D01*
X9780832Y-5841832D01*
X9780832Y-5962168D01*
X9901168Y-5962168D01*
X10997168Y-7661168D02*
X10997168Y-7540832D01*
X10876832Y-7540832D01*
X10876832Y-7661168D01*
X10997168Y-7661168D01*
X10997168Y-9362968D02*
X10997168Y-9242632D01*
X10876832Y-9242632D01*
X10876832Y-9362968D01*
X10997168Y-9362968D01*
X11001168Y-5962168D02*
X11001168Y-5841832D01*
X10880832Y-5841832D01*
X10880832Y-5962168D01*
X11001168Y-5962168D01*
X11701168Y-5726168D02*
X11701168Y-5605832D01*
X11580832Y-5605832D01*
X11580832Y-5726168D01*
X11701168Y-5726168D01*
X11701168Y-7424168D02*
X11701168Y-7303832D01*
X11580832Y-7303832D01*
X11580832Y-7424168D01*
X11701168Y-7424168D01*
X11701168Y-9125968D02*
X11701168Y-9005632D01*
X11580832Y-9005632D01*
X11580832Y-9125968D01*
X11701168Y-9125968D01*
X12801168Y-5726168D02*
X12801168Y-5605832D01*
X12680832Y-5605832D01*
X12680832Y-5726168D01*
X12801168Y-5726168D01*
X12801168Y-7424168D02*
X12801168Y-7303832D01*
X12680832Y-7303832D01*
X12680832Y-7424168D01*
X12801168Y-7424168D01*
X12801168Y-9125968D02*
X12801168Y-9005632D01*
X12680832Y-9005632D01*
X12680832Y-9125968D01*
X12801168Y-9125968D01*
X12967168Y-11189168D02*
X12967168Y-11068832D01*
X12846832Y-11068832D01*
X12846832Y-11189168D01*
X12967168Y-11189168D01*
X13505568Y-5962168D02*
X13505568Y-5841832D01*
X13385232Y-5841832D01*
X13385232Y-5962168D01*
X13505568Y-5962168D01*
X13505568Y-7663368D02*
X13505568Y-7543032D01*
X13385232Y-7543032D01*
X13385232Y-7663368D01*
X13505568Y-7663368D01*
X13505568Y-9365168D02*
X13505568Y-9244832D01*
X13385232Y-9244832D01*
X13385232Y-9365168D01*
X13505568Y-9365168D01*
X14067168Y-11189168D02*
X14067168Y-11068832D01*
X13946832Y-11068832D01*
X13946832Y-11189168D01*
X14067168Y-11189168D01*
X14605568Y-5962168D02*
X14605568Y-5841832D01*
X14485232Y-5841832D01*
X14485232Y-5962168D01*
X14605568Y-5962168D01*
X14605568Y-7663368D02*
X14605568Y-7543032D01*
X14485232Y-7543032D01*
X14485232Y-7663368D01*
X14605568Y-7663368D01*
X14605568Y-9365168D02*
X14605568Y-9244832D01*
X14485232Y-9244832D01*
X14485232Y-9365168D01*
X14605568Y-9365168D01*
X14797612Y-11373922D02*
X14797612Y-11253585D01*
X14677276Y-11253585D01*
X14677276Y-11373922D01*
X14797612Y-11373922D01*
X15304168Y-7904168D02*
X15304168Y-7783832D01*
X15183832Y-7783832D01*
X15183832Y-7904168D01*
X15304168Y-7904168D01*
X15304168Y-9605968D02*
X15304168Y-9485632D01*
X15183832Y-9485632D01*
X15183832Y-9605968D01*
X15304168Y-9605968D01*
X15308968Y-6200168D02*
X15308968Y-6079832D01*
X15188632Y-6079832D01*
X15188632Y-6200168D01*
X15308968Y-6200168D01*
X15860131Y-11658623D02*
X15860131Y-11538286D01*
X15739794Y-11538286D01*
X15739794Y-11658623D01*
X15860131Y-11658623D01*
X16404168Y-7904168D02*
X16404168Y-7783832D01*
X16283832Y-7783832D01*
X16283832Y-7904168D01*
X16404168Y-7904168D01*
X16404168Y-9605968D02*
X16404168Y-9485632D01*
X16283832Y-9485632D01*
X16283832Y-9605968D01*
X16404168Y-9605968D01*
X16408968Y-6200168D02*
X16408968Y-6079832D01*
X16288632Y-6079832D01*
X16288632Y-6200168D01*
X16408968Y-6200168D01*
X16580854Y-12036213D02*
X16580854Y-11915877D01*
X16460518Y-11915877D01*
X16460518Y-12036213D01*
X16580854Y-12036213D01*
X17533482Y-12586213D02*
X17533482Y-12465877D01*
X17413146Y-12465877D01*
X17413146Y-12586213D01*
X17533482Y-12586213D01*
D15*
X8085200Y-8030000D02*
X8235200Y-7880000D01*
X8085200Y-7730000D01*
X7935200Y-7880000D01*
X8085200Y-8030000D01*
X8085200Y-9731800D02*
X8235200Y-9581800D01*
X8085200Y-9431800D01*
X7935200Y-9581800D01*
X8085200Y-9731800D01*
X8091000Y-6333000D02*
X8241000Y-6183000D01*
X8091000Y-6033000D01*
X7941000Y-6183000D01*
X8091000Y-6333000D01*
X8585200Y-7810000D02*
X8735200Y-7660000D01*
X8585200Y-7510000D01*
X8435200Y-7660000D01*
X8585200Y-7810000D01*
X8585200Y-9511800D02*
X8735200Y-9361800D01*
X8585200Y-9211800D01*
X8435200Y-9361800D01*
X8585200Y-9511800D01*
X8591000Y-6113000D02*
X8741000Y-5963000D01*
X8591000Y-5813000D01*
X8441000Y-5963000D01*
X8591000Y-6113000D01*
X9085200Y-8030000D02*
X9235200Y-7880000D01*
X9085200Y-7730000D01*
X8935200Y-7880000D01*
X9085200Y-8030000D01*
X9085200Y-9731800D02*
X9235200Y-9581800D01*
X9085200Y-9431800D01*
X8935200Y-9581800D01*
X9085200Y-9731800D01*
X9091000Y-6333000D02*
X9241000Y-6183000D01*
X9091000Y-6033000D01*
X8941000Y-6183000D01*
X9091000Y-6333000D01*
X9887000Y-7376000D02*
X10037000Y-7226000D01*
X9887000Y-7076000D01*
X9737000Y-7226000D01*
X9887000Y-7376000D01*
X9887000Y-9077800D02*
X10037000Y-8927800D01*
X9887000Y-8777800D01*
X9737000Y-8927800D01*
X9887000Y-9077800D01*
X9891000Y-5677000D02*
X10041000Y-5527000D01*
X9891000Y-5377000D01*
X9741000Y-5527000D01*
X9891000Y-5677000D01*
X10387000Y-7156000D02*
X10537000Y-7006000D01*
X10387000Y-6856000D01*
X10237000Y-7006000D01*
X10387000Y-7156000D01*
X10387000Y-8857800D02*
X10537000Y-8707800D01*
X10387000Y-8557800D01*
X10237000Y-8707800D01*
X10387000Y-8857800D01*
X10391000Y-5457000D02*
X10541000Y-5307000D01*
X10391000Y-5157000D01*
X10241000Y-5307000D01*
X10391000Y-5457000D01*
X10887000Y-7376000D02*
X11037000Y-7226000D01*
X10887000Y-7076000D01*
X10737000Y-7226000D01*
X10887000Y-7376000D01*
X10887000Y-9077800D02*
X11037000Y-8927800D01*
X10887000Y-8777800D01*
X10737000Y-8927800D01*
X10887000Y-9077800D01*
X10891000Y-5677000D02*
X11041000Y-5527000D01*
X10891000Y-5377000D01*
X10741000Y-5527000D01*
X10891000Y-5677000D01*
X11691000Y-5441000D02*
X11841000Y-5291000D01*
X11691000Y-5141000D01*
X11541000Y-5291000D01*
X11691000Y-5441000D01*
X11691000Y-7139000D02*
X11841000Y-6989000D01*
X11691000Y-6839000D01*
X11541000Y-6989000D01*
X11691000Y-7139000D01*
X11691000Y-8840800D02*
X11841000Y-8690800D01*
X11691000Y-8540800D01*
X11541000Y-8690800D01*
X11691000Y-8840800D01*
X12191000Y-5221000D02*
X12341000Y-5071000D01*
X12191000Y-4921000D01*
X12041000Y-5071000D01*
X12191000Y-5221000D01*
X12191000Y-6919000D02*
X12341000Y-6769000D01*
X12191000Y-6619000D01*
X12041000Y-6769000D01*
X12191000Y-6919000D01*
X12191000Y-8620800D02*
X12341000Y-8470800D01*
X12191000Y-8320800D01*
X12041000Y-8470800D01*
X12191000Y-8620800D01*
X12691000Y-5441000D02*
X12841000Y-5291000D01*
X12691000Y-5141000D01*
X12541000Y-5291000D01*
X12691000Y-5441000D01*
X12691000Y-7139000D02*
X12841000Y-6989000D01*
X12691000Y-6839000D01*
X12541000Y-6989000D01*
X12691000Y-7139000D01*
X12691000Y-8840800D02*
X12841000Y-8690800D01*
X12691000Y-8540800D01*
X12541000Y-8690800D01*
X12691000Y-8840800D01*
X12957000Y-10904000D02*
X13107000Y-10754000D01*
X12957000Y-10604000D01*
X12807000Y-10754000D01*
X12957000Y-10904000D01*
X13457000Y-10684000D02*
X13607000Y-10534000D01*
X13457000Y-10384000D01*
X13307000Y-10534000D01*
X13457000Y-10684000D01*
X13495400Y-5677000D02*
X13645400Y-5527000D01*
X13495400Y-5377000D01*
X13345400Y-5527000D01*
X13495400Y-5677000D01*
X13495400Y-7378200D02*
X13645400Y-7228200D01*
X13495400Y-7078200D01*
X13345400Y-7228200D01*
X13495400Y-7378200D01*
X13495400Y-9080000D02*
X13645400Y-8930000D01*
X13495400Y-8780000D01*
X13345400Y-8930000D01*
X13495400Y-9080000D01*
X13957000Y-10904000D02*
X14107000Y-10754000D01*
X13957000Y-10604000D01*
X13807000Y-10754000D01*
X13957000Y-10904000D01*
X13995400Y-5457000D02*
X14145400Y-5307000D01*
X13995400Y-5157000D01*
X13845400Y-5307000D01*
X13995400Y-5457000D01*
X13995400Y-7158200D02*
X14145400Y-7008200D01*
X13995400Y-6858200D01*
X13845400Y-7008200D01*
X13995400Y-7158200D01*
X13995400Y-8860000D02*
X14145400Y-8710000D01*
X13995400Y-8560000D01*
X13845400Y-8710000D01*
X13995400Y-8860000D01*
X14495400Y-5677000D02*
X14645400Y-5527000D01*
X14495400Y-5377000D01*
X14345400Y-5527000D01*
X14495400Y-5677000D01*
X14495400Y-7378200D02*
X14645400Y-7228200D01*
X14495400Y-7078200D01*
X14345400Y-7228200D01*
X14495400Y-7378200D01*
X14495400Y-9080000D02*
X14645400Y-8930000D01*
X14495400Y-8780000D01*
X14345400Y-8930000D01*
X14495400Y-9080000D01*
X14882797Y-11114472D02*
X15032797Y-10964472D01*
X14882797Y-10814472D01*
X14732797Y-10964472D01*
X14882797Y-11114472D01*
X15294000Y-7619000D02*
X15444000Y-7469000D01*
X15294000Y-7319000D01*
X15144000Y-7469000D01*
X15294000Y-7619000D01*
X15294000Y-9320800D02*
X15444000Y-9170800D01*
X15294000Y-9020800D01*
X15144000Y-9170800D01*
X15294000Y-9320800D01*
X15298800Y-5915000D02*
X15448800Y-5765000D01*
X15298800Y-5615000D01*
X15148800Y-5765000D01*
X15298800Y-5915000D01*
X15422700Y-11031378D02*
X15572700Y-10881378D01*
X15422700Y-10731378D01*
X15272700Y-10881378D01*
X15422700Y-11031378D01*
X15794000Y-7399000D02*
X15944000Y-7249000D01*
X15794000Y-7099000D01*
X15644000Y-7249000D01*
X15794000Y-7399000D01*
X15794000Y-9100800D02*
X15944000Y-8950800D01*
X15794000Y-8800800D01*
X15644000Y-8950800D01*
X15794000Y-9100800D01*
X15798800Y-5695000D02*
X15948800Y-5545000D01*
X15798800Y-5395000D01*
X15648800Y-5545000D01*
X15798800Y-5695000D01*
X15848723Y-11373291D02*
X15998723Y-11223291D01*
X15848723Y-11073291D01*
X15698723Y-11223291D01*
X15848723Y-11373291D01*
X16294000Y-9320800D02*
X16444000Y-9170800D01*
X16294000Y-9020800D01*
X16144000Y-9170800D01*
X16294000Y-9320800D01*
X16294000Y-7619000D02*
X16444000Y-7469000D01*
X16294000Y-7319000D01*
X16144000Y-7469000D01*
X16294000Y-7619000D01*
X16298800Y-5915000D02*
X16448800Y-5765000D01*
X16298800Y-5615000D01*
X16148800Y-5765000D01*
X16298800Y-5915000D01*
X16751487Y-11826286D02*
X16901487Y-11676286D01*
X16751487Y-11526286D01*
X16601487Y-11676286D01*
X16751487Y-11826286D01*
X17294500Y-11885760D02*
X17444500Y-11735760D01*
X17294500Y-11585760D01*
X17144500Y-11735760D01*
X17294500Y-11885760D01*
X17617513Y-12326286D02*
X17767513Y-12176286D01*
X17617513Y-12026286D01*
X17467513Y-12176286D01*
X17617513Y-12326286D01*
D16*
X8413750Y-8083550D02*
X8756650Y-8426450D01*
X8756650Y-8083550D02*
X8413750Y-8426450D01*
X8756650Y-8255000D02*
G75*
G02*
X8413750Y-8255000I-171450J0D01*
G01*
X8413750Y-8255000D02*
G75*
G02*
X8756650Y-8255000I171450J0D01*
G01*
X8413750Y-9785350D02*
X8756650Y-10128250D01*
X8756650Y-9785350D02*
X8413750Y-10128250D01*
X8756650Y-9956800D02*
G75*
G02*
X8413750Y-9956800I-171450J0D01*
G01*
X8413750Y-9956800D02*
G75*
G02*
X8756650Y-9956800I171450J0D01*
G01*
X8419550Y-6386550D02*
X8762450Y-6729450D01*
X8762450Y-6386550D02*
X8419550Y-6729450D01*
X8762450Y-6558000D02*
G75*
G02*
X8419550Y-6558000I-171450J0D01*
G01*
X8419550Y-6558000D02*
G75*
G02*
X8762450Y-6558000I171450J0D01*
G01*
X10215550Y-7429550D02*
X10558450Y-7772450D01*
X10558450Y-7429550D02*
X10215550Y-7772450D01*
X10558450Y-7601000D02*
G75*
G02*
X10215550Y-7601000I-171450J0D01*
G01*
X10215550Y-7601000D02*
G75*
G02*
X10558450Y-7601000I171450J0D01*
G01*
X10215550Y-9131350D02*
X10558450Y-9474250D01*
X10558450Y-9131350D02*
X10215550Y-9474250D01*
X10558450Y-9302800D02*
G75*
G02*
X10215550Y-9302800I-171450J0D01*
G01*
X10215550Y-9302800D02*
G75*
G02*
X10558450Y-9302800I171450J0D01*
G01*
X10219550Y-5730550D02*
X10562450Y-6073450D01*
X10562450Y-5730550D02*
X10219550Y-6073450D01*
X10562450Y-5902000D02*
G75*
G02*
X10219550Y-5902000I-171450J0D01*
G01*
X10219550Y-5902000D02*
G75*
G02*
X10562450Y-5902000I171450J0D01*
G01*
X12019550Y-5494550D02*
X12362450Y-5837450D01*
X12362450Y-5494550D02*
X12019550Y-5837450D01*
X12362450Y-5666000D02*
G75*
G02*
X12019550Y-5666000I-171450J0D01*
G01*
X12019550Y-5666000D02*
G75*
G02*
X12362450Y-5666000I171450J0D01*
G01*
X12019550Y-7192550D02*
X12362450Y-7535450D01*
X12362450Y-7192550D02*
X12019550Y-7535450D01*
X12362450Y-7364000D02*
G75*
G02*
X12019550Y-7364000I-171450J0D01*
G01*
X12019550Y-7364000D02*
G75*
G02*
X12362450Y-7364000I171450J0D01*
G01*
X12019550Y-8894350D02*
X12362450Y-9237250D01*
X12362450Y-8894350D02*
X12019550Y-9237250D01*
X12362450Y-9065800D02*
G75*
G02*
X12019550Y-9065800I-171450J0D01*
G01*
X12019550Y-9065800D02*
G75*
G02*
X12362450Y-9065800I171450J0D01*
G01*
X13285550Y-10957550D02*
X13628450Y-11300450D01*
X13628450Y-10957550D02*
X13285550Y-11300450D01*
X13628450Y-11129000D02*
G75*
G02*
X13285550Y-11129000I-171450J0D01*
G01*
X13285550Y-11129000D02*
G75*
G02*
X13628450Y-11129000I171450J0D01*
G01*
X13823950Y-5730550D02*
X14166850Y-6073450D01*
X14166850Y-5730550D02*
X13823950Y-6073450D01*
X14166850Y-5902000D02*
G75*
G02*
X13823950Y-5902000I-171450J0D01*
G01*
X13823950Y-5902000D02*
G75*
G02*
X14166850Y-5902000I171450J0D01*
G01*
X13823950Y-7431750D02*
X14166850Y-7774650D01*
X14166850Y-7431750D02*
X13823950Y-7774650D01*
X14166850Y-7603200D02*
G75*
G02*
X13823950Y-7603200I-171450J0D01*
G01*
X13823950Y-7603200D02*
G75*
G02*
X14166850Y-7603200I171450J0D01*
G01*
X13823950Y-9133550D02*
X14166850Y-9476450D01*
X14166850Y-9133550D02*
X13823950Y-9476450D01*
X14166850Y-9305000D02*
G75*
G02*
X13823950Y-9305000I-171450J0D01*
G01*
X13823950Y-9305000D02*
G75*
G02*
X14166850Y-9305000I171450J0D01*
G01*
X15097253Y-11284654D02*
X15440153Y-11627554D01*
X15440153Y-11284654D02*
X15097253Y-11627554D01*
X15440153Y-11456104D02*
G75*
G02*
X15097253Y-11456104I-171450J0D01*
G01*
X15097253Y-11456104D02*
G75*
G02*
X15440153Y-11456104I171450J0D01*
G01*
X15622550Y-7672550D02*
X15965450Y-8015450D01*
X15965450Y-7672550D02*
X15622550Y-8015450D01*
X15965450Y-7844000D02*
G75*
G02*
X15622550Y-7844000I-171450J0D01*
G01*
X15622550Y-7844000D02*
G75*
G02*
X15965450Y-7844000I171450J0D01*
G01*
X15622550Y-9374350D02*
X15965450Y-9717250D01*
X15965450Y-9374350D02*
X15622550Y-9717250D01*
X15965450Y-9545800D02*
G75*
G02*
X15622550Y-9545800I-171450J0D01*
G01*
X15622550Y-9545800D02*
G75*
G02*
X15965450Y-9545800I171450J0D01*
G01*
X15627350Y-5968550D02*
X15970250Y-6311450D01*
X15970250Y-5968550D02*
X15627350Y-6311450D01*
X15970250Y-6140000D02*
G75*
G02*
X15627350Y-6140000I-171450J0D01*
G01*
X15627350Y-6140000D02*
G75*
G02*
X15970250Y-6140000I171450J0D01*
G01*
X16825550Y-12079595D02*
X17168450Y-12422495D01*
X17168450Y-12079595D02*
X16825550Y-12422495D01*
X17168450Y-12251045D02*
G75*
G02*
X16825550Y-12251045I-171450J0D01*
G01*
X16825550Y-12251045D02*
G75*
G02*
X17168450Y-12251045I171450J0D01*
G01*
D11*
X7756352Y-13881594D02*
X7756352Y-13681594D01*
X7756352Y-13681594D02*
X7803971Y-13681594D01*
X7803971Y-13681594D02*
X7832543Y-13691118D01*
X7832543Y-13691118D02*
X7851590Y-13710165D01*
X7851590Y-13710165D02*
X7861114Y-13729213D01*
X7861114Y-13729213D02*
X7870638Y-13767308D01*
X7870638Y-13767308D02*
X7870638Y-13795880D01*
X7870638Y-13795880D02*
X7861114Y-13833975D01*
X7861114Y-13833975D02*
X7851590Y-13853023D01*
X7851590Y-13853023D02*
X7832543Y-13872070D01*
X7832543Y-13872070D02*
X7803971Y-13881594D01*
X7803971Y-13881594D02*
X7756352Y-13881594D01*
X7956352Y-13881594D02*
X7956352Y-13748261D01*
X7956352Y-13786356D02*
X7965876Y-13767308D01*
X7965876Y-13767308D02*
X7975400Y-13757784D01*
X7975400Y-13757784D02*
X7994447Y-13748261D01*
X7994447Y-13748261D02*
X8013495Y-13748261D01*
X8080162Y-13881594D02*
X8080162Y-13748261D01*
X8080162Y-13681594D02*
X8070638Y-13691118D01*
X8070638Y-13691118D02*
X8080162Y-13700642D01*
X8080162Y-13700642D02*
X8089685Y-13691118D01*
X8089685Y-13691118D02*
X8080162Y-13681594D01*
X8080162Y-13681594D02*
X8080162Y-13700642D01*
X8203971Y-13881594D02*
X8184923Y-13872070D01*
X8184923Y-13872070D02*
X8175400Y-13853023D01*
X8175400Y-13853023D02*
X8175400Y-13681594D01*
X8308733Y-13881594D02*
X8289685Y-13872070D01*
X8289685Y-13872070D02*
X8280162Y-13853023D01*
X8280162Y-13853023D02*
X8280162Y-13681594D01*
X8537305Y-13881594D02*
X8537305Y-13681594D01*
X8537305Y-13681594D02*
X8603971Y-13824451D01*
X8603971Y-13824451D02*
X8670638Y-13681594D01*
X8670638Y-13681594D02*
X8670638Y-13881594D01*
X8851590Y-13881594D02*
X8851590Y-13776832D01*
X8851590Y-13776832D02*
X8842066Y-13757784D01*
X8842066Y-13757784D02*
X8823019Y-13748261D01*
X8823019Y-13748261D02*
X8784924Y-13748261D01*
X8784924Y-13748261D02*
X8765876Y-13757784D01*
X8851590Y-13872070D02*
X8832543Y-13881594D01*
X8832543Y-13881594D02*
X8784924Y-13881594D01*
X8784924Y-13881594D02*
X8765876Y-13872070D01*
X8765876Y-13872070D02*
X8756352Y-13853023D01*
X8756352Y-13853023D02*
X8756352Y-13833975D01*
X8756352Y-13833975D02*
X8765876Y-13814927D01*
X8765876Y-13814927D02*
X8784924Y-13805404D01*
X8784924Y-13805404D02*
X8832543Y-13805404D01*
X8832543Y-13805404D02*
X8851590Y-13795880D01*
X8946828Y-13748261D02*
X8946828Y-13948261D01*
X8946828Y-13757784D02*
X8965876Y-13748261D01*
X8965876Y-13748261D02*
X9003971Y-13748261D01*
X9003971Y-13748261D02*
X9023019Y-13757784D01*
X9023019Y-13757784D02*
X9032543Y-13767308D01*
X9032543Y-13767308D02*
X9042066Y-13786356D01*
X9042066Y-13786356D02*
X9042066Y-13843499D01*
X9042066Y-13843499D02*
X9032543Y-13862546D01*
X9032543Y-13862546D02*
X9023019Y-13872070D01*
X9023019Y-13872070D02*
X9003971Y-13881594D01*
X9003971Y-13881594D02*
X8965876Y-13881594D01*
X8965876Y-13881594D02*
X8946828Y-13872070D01*
X9127781Y-13862546D02*
X9137305Y-13872070D01*
X9137305Y-13872070D02*
X9127781Y-13881594D01*
X9127781Y-13881594D02*
X9118257Y-13872070D01*
X9118257Y-13872070D02*
X9127781Y-13862546D01*
X9127781Y-13862546D02*
X9127781Y-13881594D01*
X9127781Y-13757784D02*
X9137305Y-13767308D01*
X9137305Y-13767308D02*
X9127781Y-13776832D01*
X9127781Y-13776832D02*
X9118257Y-13767308D01*
X9118257Y-13767308D02*
X9127781Y-13757784D01*
X9127781Y-13757784D02*
X9127781Y-13776832D01*
D12*
X7415575Y-14170110D02*
X7495575Y-14250110D01*
X7495575Y-14170110D02*
X7415575Y-14250110D01*
D11*
X7794447Y-14101594D02*
X7813495Y-14101594D01*
X7813495Y-14101594D02*
X7832543Y-14111118D01*
X7832543Y-14111118D02*
X7842066Y-14120642D01*
X7842066Y-14120642D02*
X7851590Y-14139689D01*
X7851590Y-14139689D02*
X7861114Y-14177784D01*
X7861114Y-14177784D02*
X7861114Y-14225404D01*
X7861114Y-14225404D02*
X7851590Y-14263499D01*
X7851590Y-14263499D02*
X7842066Y-14282546D01*
X7842066Y-14282546D02*
X7832543Y-14292070D01*
X7832543Y-14292070D02*
X7813495Y-14301594D01*
X7813495Y-14301594D02*
X7794447Y-14301594D01*
X7794447Y-14301594D02*
X7775400Y-14292070D01*
X7775400Y-14292070D02*
X7765876Y-14282546D01*
X7765876Y-14282546D02*
X7756352Y-14263499D01*
X7756352Y-14263499D02*
X7746828Y-14225404D01*
X7746828Y-14225404D02*
X7746828Y-14177784D01*
X7746828Y-14177784D02*
X7756352Y-14139689D01*
X7756352Y-14139689D02*
X7765876Y-14120642D01*
X7765876Y-14120642D02*
X7775400Y-14111118D01*
X7775400Y-14111118D02*
X7794447Y-14101594D01*
X7946828Y-14282546D02*
X7956352Y-14292070D01*
X7956352Y-14292070D02*
X7946828Y-14301594D01*
X7946828Y-14301594D02*
X7937304Y-14292070D01*
X7937304Y-14292070D02*
X7946828Y-14282546D01*
X7946828Y-14282546D02*
X7946828Y-14301594D01*
X8070638Y-14187308D02*
X8051590Y-14177784D01*
X8051590Y-14177784D02*
X8042066Y-14168261D01*
X8042066Y-14168261D02*
X8032543Y-14149213D01*
X8032543Y-14149213D02*
X8032543Y-14139689D01*
X8032543Y-14139689D02*
X8042066Y-14120642D01*
X8042066Y-14120642D02*
X8051590Y-14111118D01*
X8051590Y-14111118D02*
X8070638Y-14101594D01*
X8070638Y-14101594D02*
X8108733Y-14101594D01*
X8108733Y-14101594D02*
X8127781Y-14111118D01*
X8127781Y-14111118D02*
X8137304Y-14120642D01*
X8137304Y-14120642D02*
X8146828Y-14139689D01*
X8146828Y-14139689D02*
X8146828Y-14149213D01*
X8146828Y-14149213D02*
X8137304Y-14168261D01*
X8137304Y-14168261D02*
X8127781Y-14177784D01*
X8127781Y-14177784D02*
X8108733Y-14187308D01*
X8108733Y-14187308D02*
X8070638Y-14187308D01*
X8070638Y-14187308D02*
X8051590Y-14196832D01*
X8051590Y-14196832D02*
X8042066Y-14206356D01*
X8042066Y-14206356D02*
X8032543Y-14225404D01*
X8032543Y-14225404D02*
X8032543Y-14263499D01*
X8032543Y-14263499D02*
X8042066Y-14282546D01*
X8042066Y-14282546D02*
X8051590Y-14292070D01*
X8051590Y-14292070D02*
X8070638Y-14301594D01*
X8070638Y-14301594D02*
X8108733Y-14301594D01*
X8108733Y-14301594D02*
X8127781Y-14292070D01*
X8127781Y-14292070D02*
X8137304Y-14282546D01*
X8137304Y-14282546D02*
X8146828Y-14263499D01*
X8146828Y-14263499D02*
X8146828Y-14225404D01*
X8146828Y-14225404D02*
X8137304Y-14206356D01*
X8137304Y-14206356D02*
X8127781Y-14196832D01*
X8127781Y-14196832D02*
X8108733Y-14187308D01*
X8270638Y-14101594D02*
X8289685Y-14101594D01*
X8289685Y-14101594D02*
X8308733Y-14111118D01*
X8308733Y-14111118D02*
X8318257Y-14120642D01*
X8318257Y-14120642D02*
X8327781Y-14139689D01*
X8327781Y-14139689D02*
X8337304Y-14177784D01*
X8337304Y-14177784D02*
X8337304Y-14225404D01*
X8337304Y-14225404D02*
X8327781Y-14263499D01*
X8327781Y-14263499D02*
X8318257Y-14282546D01*
X8318257Y-14282546D02*
X8308733Y-14292070D01*
X8308733Y-14292070D02*
X8289685Y-14301594D01*
X8289685Y-14301594D02*
X8270638Y-14301594D01*
X8270638Y-14301594D02*
X8251590Y-14292070D01*
X8251590Y-14292070D02*
X8242066Y-14282546D01*
X8242066Y-14282546D02*
X8232543Y-14263499D01*
X8232543Y-14263499D02*
X8223019Y-14225404D01*
X8223019Y-14225404D02*
X8223019Y-14177784D01*
X8223019Y-14177784D02*
X8232543Y-14139689D01*
X8232543Y-14139689D02*
X8242066Y-14120642D01*
X8242066Y-14120642D02*
X8251590Y-14111118D01*
X8251590Y-14111118D02*
X8270638Y-14101594D01*
X8461114Y-14101594D02*
X8480162Y-14101594D01*
X8480162Y-14101594D02*
X8499209Y-14111118D01*
X8499209Y-14111118D02*
X8508733Y-14120642D01*
X8508733Y-14120642D02*
X8518257Y-14139689D01*
X8518257Y-14139689D02*
X8527781Y-14177784D01*
X8527781Y-14177784D02*
X8527781Y-14225404D01*
X8527781Y-14225404D02*
X8518257Y-14263499D01*
X8518257Y-14263499D02*
X8508733Y-14282546D01*
X8508733Y-14282546D02*
X8499209Y-14292070D01*
X8499209Y-14292070D02*
X8480162Y-14301594D01*
X8480162Y-14301594D02*
X8461114Y-14301594D01*
X8461114Y-14301594D02*
X8442066Y-14292070D01*
X8442066Y-14292070D02*
X8432543Y-14282546D01*
X8432543Y-14282546D02*
X8423019Y-14263499D01*
X8423019Y-14263499D02*
X8413495Y-14225404D01*
X8413495Y-14225404D02*
X8413495Y-14177784D01*
X8413495Y-14177784D02*
X8423019Y-14139689D01*
X8423019Y-14139689D02*
X8432543Y-14120642D01*
X8432543Y-14120642D02*
X8442066Y-14111118D01*
X8442066Y-14111118D02*
X8461114Y-14101594D01*
X8613495Y-14301594D02*
X8613495Y-14168261D01*
X8613495Y-14187308D02*
X8623019Y-14177784D01*
X8623019Y-14177784D02*
X8642066Y-14168261D01*
X8642066Y-14168261D02*
X8670638Y-14168261D01*
X8670638Y-14168261D02*
X8689686Y-14177784D01*
X8689686Y-14177784D02*
X8699209Y-14196832D01*
X8699209Y-14196832D02*
X8699209Y-14301594D01*
X8699209Y-14196832D02*
X8708733Y-14177784D01*
X8708733Y-14177784D02*
X8727781Y-14168261D01*
X8727781Y-14168261D02*
X8756352Y-14168261D01*
X8756352Y-14168261D02*
X8775400Y-14177784D01*
X8775400Y-14177784D02*
X8784924Y-14196832D01*
X8784924Y-14196832D02*
X8784924Y-14301594D01*
X8880162Y-14301594D02*
X8880162Y-14168261D01*
X8880162Y-14187308D02*
X8889686Y-14177784D01*
X8889686Y-14177784D02*
X8908733Y-14168261D01*
X8908733Y-14168261D02*
X8937305Y-14168261D01*
X8937305Y-14168261D02*
X8956352Y-14177784D01*
X8956352Y-14177784D02*
X8965876Y-14196832D01*
X8965876Y-14196832D02*
X8965876Y-14301594D01*
X8965876Y-14196832D02*
X8975400Y-14177784D01*
X8975400Y-14177784D02*
X8994447Y-14168261D01*
X8994447Y-14168261D02*
X9023019Y-14168261D01*
X9023019Y-14168261D02*
X9042067Y-14177784D01*
X9042067Y-14177784D02*
X9051590Y-14196832D01*
X9051590Y-14196832D02*
X9051590Y-14301594D01*
X9442067Y-14092070D02*
X9270638Y-14349213D01*
X9699209Y-14101594D02*
X9718257Y-14101594D01*
X9718257Y-14101594D02*
X9737305Y-14111118D01*
X9737305Y-14111118D02*
X9746829Y-14120642D01*
X9746829Y-14120642D02*
X9756352Y-14139689D01*
X9756352Y-14139689D02*
X9765876Y-14177784D01*
X9765876Y-14177784D02*
X9765876Y-14225404D01*
X9765876Y-14225404D02*
X9756352Y-14263499D01*
X9756352Y-14263499D02*
X9746829Y-14282546D01*
X9746829Y-14282546D02*
X9737305Y-14292070D01*
X9737305Y-14292070D02*
X9718257Y-14301594D01*
X9718257Y-14301594D02*
X9699209Y-14301594D01*
X9699209Y-14301594D02*
X9680162Y-14292070D01*
X9680162Y-14292070D02*
X9670638Y-14282546D01*
X9670638Y-14282546D02*
X9661114Y-14263499D01*
X9661114Y-14263499D02*
X9651590Y-14225404D01*
X9651590Y-14225404D02*
X9651590Y-14177784D01*
X9651590Y-14177784D02*
X9661114Y-14139689D01*
X9661114Y-14139689D02*
X9670638Y-14120642D01*
X9670638Y-14120642D02*
X9680162Y-14111118D01*
X9680162Y-14111118D02*
X9699209Y-14101594D01*
X9851590Y-14282546D02*
X9861114Y-14292070D01*
X9861114Y-14292070D02*
X9851590Y-14301594D01*
X9851590Y-14301594D02*
X9842067Y-14292070D01*
X9842067Y-14292070D02*
X9851590Y-14282546D01*
X9851590Y-14282546D02*
X9851590Y-14301594D01*
X9984924Y-14101594D02*
X10003971Y-14101594D01*
X10003971Y-14101594D02*
X10023019Y-14111118D01*
X10023019Y-14111118D02*
X10032543Y-14120642D01*
X10032543Y-14120642D02*
X10042067Y-14139689D01*
X10042067Y-14139689D02*
X10051590Y-14177784D01*
X10051590Y-14177784D02*
X10051590Y-14225404D01*
X10051590Y-14225404D02*
X10042067Y-14263499D01*
X10042067Y-14263499D02*
X10032543Y-14282546D01*
X10032543Y-14282546D02*
X10023019Y-14292070D01*
X10023019Y-14292070D02*
X10003971Y-14301594D01*
X10003971Y-14301594D02*
X9984924Y-14301594D01*
X9984924Y-14301594D02*
X9965876Y-14292070D01*
X9965876Y-14292070D02*
X9956352Y-14282546D01*
X9956352Y-14282546D02*
X9946829Y-14263499D01*
X9946829Y-14263499D02*
X9937305Y-14225404D01*
X9937305Y-14225404D02*
X9937305Y-14177784D01*
X9937305Y-14177784D02*
X9946829Y-14139689D01*
X9946829Y-14139689D02*
X9956352Y-14120642D01*
X9956352Y-14120642D02*
X9965876Y-14111118D01*
X9965876Y-14111118D02*
X9984924Y-14101594D01*
X10118257Y-14101594D02*
X10242067Y-14101594D01*
X10242067Y-14101594D02*
X10175400Y-14177784D01*
X10175400Y-14177784D02*
X10203971Y-14177784D01*
X10203971Y-14177784D02*
X10223019Y-14187308D01*
X10223019Y-14187308D02*
X10232543Y-14196832D01*
X10232543Y-14196832D02*
X10242067Y-14215880D01*
X10242067Y-14215880D02*
X10242067Y-14263499D01*
X10242067Y-14263499D02*
X10232543Y-14282546D01*
X10232543Y-14282546D02*
X10223019Y-14292070D01*
X10223019Y-14292070D02*
X10203971Y-14301594D01*
X10203971Y-14301594D02*
X10146829Y-14301594D01*
X10146829Y-14301594D02*
X10127781Y-14292070D01*
X10127781Y-14292070D02*
X10118257Y-14282546D01*
X10432543Y-14301594D02*
X10318257Y-14301594D01*
X10375400Y-14301594D02*
X10375400Y-14101594D01*
X10375400Y-14101594D02*
X10356352Y-14130165D01*
X10356352Y-14130165D02*
X10337305Y-14149213D01*
X10337305Y-14149213D02*
X10318257Y-14158737D01*
X10613495Y-14101594D02*
X10518257Y-14101594D01*
X10518257Y-14101594D02*
X10508733Y-14196832D01*
X10508733Y-14196832D02*
X10518257Y-14187308D01*
X10518257Y-14187308D02*
X10537305Y-14177784D01*
X10537305Y-14177784D02*
X10584924Y-14177784D01*
X10584924Y-14177784D02*
X10603971Y-14187308D01*
X10603971Y-14187308D02*
X10613495Y-14196832D01*
X10613495Y-14196832D02*
X10623019Y-14215880D01*
X10623019Y-14215880D02*
X10623019Y-14263499D01*
X10623019Y-14263499D02*
X10613495Y-14282546D01*
X10613495Y-14282546D02*
X10603971Y-14292070D01*
X10603971Y-14292070D02*
X10584924Y-14301594D01*
X10584924Y-14301594D02*
X10537305Y-14301594D01*
X10537305Y-14301594D02*
X10518257Y-14292070D01*
X10518257Y-14292070D02*
X10508733Y-14282546D01*
X10699210Y-14101594D02*
X10699210Y-14139689D01*
X10775400Y-14101594D02*
X10775400Y-14139689D01*
X11070638Y-14377784D02*
X11061114Y-14368261D01*
X11061114Y-14368261D02*
X11042067Y-14339689D01*
X11042067Y-14339689D02*
X11032543Y-14320642D01*
X11032543Y-14320642D02*
X11023019Y-14292070D01*
X11023019Y-14292070D02*
X11013495Y-14244451D01*
X11013495Y-14244451D02*
X11013495Y-14206356D01*
X11013495Y-14206356D02*
X11023019Y-14158737D01*
X11023019Y-14158737D02*
X11032543Y-14130165D01*
X11032543Y-14130165D02*
X11042067Y-14111118D01*
X11042067Y-14111118D02*
X11061114Y-14082546D01*
X11061114Y-14082546D02*
X11070638Y-14073023D01*
X11137305Y-14120642D02*
X11146829Y-14111118D01*
X11146829Y-14111118D02*
X11165876Y-14101594D01*
X11165876Y-14101594D02*
X11213495Y-14101594D01*
X11213495Y-14101594D02*
X11232543Y-14111118D01*
X11232543Y-14111118D02*
X11242067Y-14120642D01*
X11242067Y-14120642D02*
X11251590Y-14139689D01*
X11251590Y-14139689D02*
X11251590Y-14158737D01*
X11251590Y-14158737D02*
X11242067Y-14187308D01*
X11242067Y-14187308D02*
X11127781Y-14301594D01*
X11127781Y-14301594D02*
X11251590Y-14301594D01*
X11489686Y-14301594D02*
X11489686Y-14101594D01*
X11575400Y-14301594D02*
X11575400Y-14196832D01*
X11575400Y-14196832D02*
X11565876Y-14177784D01*
X11565876Y-14177784D02*
X11546829Y-14168261D01*
X11546829Y-14168261D02*
X11518257Y-14168261D01*
X11518257Y-14168261D02*
X11499210Y-14177784D01*
X11499210Y-14177784D02*
X11489686Y-14187308D01*
X11699210Y-14301594D02*
X11680162Y-14292070D01*
X11680162Y-14292070D02*
X11670638Y-14282546D01*
X11670638Y-14282546D02*
X11661114Y-14263499D01*
X11661114Y-14263499D02*
X11661114Y-14206356D01*
X11661114Y-14206356D02*
X11670638Y-14187308D01*
X11670638Y-14187308D02*
X11680162Y-14177784D01*
X11680162Y-14177784D02*
X11699210Y-14168261D01*
X11699210Y-14168261D02*
X11727781Y-14168261D01*
X11727781Y-14168261D02*
X11746829Y-14177784D01*
X11746829Y-14177784D02*
X11756352Y-14187308D01*
X11756352Y-14187308D02*
X11765876Y-14206356D01*
X11765876Y-14206356D02*
X11765876Y-14263499D01*
X11765876Y-14263499D02*
X11756352Y-14282546D01*
X11756352Y-14282546D02*
X11746829Y-14292070D01*
X11746829Y-14292070D02*
X11727781Y-14301594D01*
X11727781Y-14301594D02*
X11699210Y-14301594D01*
X11880162Y-14301594D02*
X11861114Y-14292070D01*
X11861114Y-14292070D02*
X11851591Y-14273023D01*
X11851591Y-14273023D02*
X11851591Y-14101594D01*
X12032543Y-14292070D02*
X12013495Y-14301594D01*
X12013495Y-14301594D02*
X11975400Y-14301594D01*
X11975400Y-14301594D02*
X11956352Y-14292070D01*
X11956352Y-14292070D02*
X11946829Y-14273023D01*
X11946829Y-14273023D02*
X11946829Y-14196832D01*
X11946829Y-14196832D02*
X11956352Y-14177784D01*
X11956352Y-14177784D02*
X11975400Y-14168261D01*
X11975400Y-14168261D02*
X12013495Y-14168261D01*
X12013495Y-14168261D02*
X12032543Y-14177784D01*
X12032543Y-14177784D02*
X12042067Y-14196832D01*
X12042067Y-14196832D02*
X12042067Y-14215880D01*
X12042067Y-14215880D02*
X11946829Y-14234927D01*
X12118257Y-14292070D02*
X12137305Y-14301594D01*
X12137305Y-14301594D02*
X12175400Y-14301594D01*
X12175400Y-14301594D02*
X12194448Y-14292070D01*
X12194448Y-14292070D02*
X12203972Y-14273023D01*
X12203972Y-14273023D02*
X12203972Y-14263499D01*
X12203972Y-14263499D02*
X12194448Y-14244451D01*
X12194448Y-14244451D02*
X12175400Y-14234927D01*
X12175400Y-14234927D02*
X12146829Y-14234927D01*
X12146829Y-14234927D02*
X12127781Y-14225404D01*
X12127781Y-14225404D02*
X12118257Y-14206356D01*
X12118257Y-14206356D02*
X12118257Y-14196832D01*
X12118257Y-14196832D02*
X12127781Y-14177784D01*
X12127781Y-14177784D02*
X12146829Y-14168261D01*
X12146829Y-14168261D02*
X12175400Y-14168261D01*
X12175400Y-14168261D02*
X12194448Y-14177784D01*
X12270638Y-14377784D02*
X12280162Y-14368261D01*
X12280162Y-14368261D02*
X12299210Y-14339689D01*
X12299210Y-14339689D02*
X12308733Y-14320642D01*
X12308733Y-14320642D02*
X12318257Y-14292070D01*
X12318257Y-14292070D02*
X12327781Y-14244451D01*
X12327781Y-14244451D02*
X12327781Y-14206356D01*
X12327781Y-14206356D02*
X12318257Y-14158737D01*
X12318257Y-14158737D02*
X12308733Y-14130165D01*
X12308733Y-14130165D02*
X12299210Y-14111118D01*
X12299210Y-14111118D02*
X12280162Y-14082546D01*
X12280162Y-14082546D02*
X12270638Y-14073023D01*
X12632543Y-14377784D02*
X12623019Y-14368261D01*
X12623019Y-14368261D02*
X12603972Y-14339689D01*
X12603972Y-14339689D02*
X12594448Y-14320642D01*
X12594448Y-14320642D02*
X12584924Y-14292070D01*
X12584924Y-14292070D02*
X12575400Y-14244451D01*
X12575400Y-14244451D02*
X12575400Y-14206356D01*
X12575400Y-14206356D02*
X12584924Y-14158737D01*
X12584924Y-14158737D02*
X12594448Y-14130165D01*
X12594448Y-14130165D02*
X12603972Y-14111118D01*
X12603972Y-14111118D02*
X12623019Y-14082546D01*
X12623019Y-14082546D02*
X12632543Y-14073023D01*
X12708733Y-14168261D02*
X12708733Y-14301594D01*
X12708733Y-14187308D02*
X12718257Y-14177784D01*
X12718257Y-14177784D02*
X12737305Y-14168261D01*
X12737305Y-14168261D02*
X12765876Y-14168261D01*
X12765876Y-14168261D02*
X12784924Y-14177784D01*
X12784924Y-14177784D02*
X12794448Y-14196832D01*
X12794448Y-14196832D02*
X12794448Y-14301594D01*
X12918257Y-14301594D02*
X12899210Y-14292070D01*
X12899210Y-14292070D02*
X12889686Y-14282546D01*
X12889686Y-14282546D02*
X12880162Y-14263499D01*
X12880162Y-14263499D02*
X12880162Y-14206356D01*
X12880162Y-14206356D02*
X12889686Y-14187308D01*
X12889686Y-14187308D02*
X12899210Y-14177784D01*
X12899210Y-14177784D02*
X12918257Y-14168261D01*
X12918257Y-14168261D02*
X12946829Y-14168261D01*
X12946829Y-14168261D02*
X12965876Y-14177784D01*
X12965876Y-14177784D02*
X12975400Y-14187308D01*
X12975400Y-14187308D02*
X12984924Y-14206356D01*
X12984924Y-14206356D02*
X12984924Y-14263499D01*
X12984924Y-14263499D02*
X12975400Y-14282546D01*
X12975400Y-14282546D02*
X12965876Y-14292070D01*
X12965876Y-14292070D02*
X12946829Y-14301594D01*
X12946829Y-14301594D02*
X12918257Y-14301594D01*
X13042067Y-14168261D02*
X13118257Y-14168261D01*
X13070638Y-14101594D02*
X13070638Y-14273023D01*
X13070638Y-14273023D02*
X13080162Y-14292070D01*
X13080162Y-14292070D02*
X13099210Y-14301594D01*
X13099210Y-14301594D02*
X13118257Y-14301594D01*
X13337305Y-14168261D02*
X13337305Y-14368261D01*
X13337305Y-14177784D02*
X13356353Y-14168261D01*
X13356353Y-14168261D02*
X13394448Y-14168261D01*
X13394448Y-14168261D02*
X13413495Y-14177784D01*
X13413495Y-14177784D02*
X13423019Y-14187308D01*
X13423019Y-14187308D02*
X13432543Y-14206356D01*
X13432543Y-14206356D02*
X13432543Y-14263499D01*
X13432543Y-14263499D02*
X13423019Y-14282546D01*
X13423019Y-14282546D02*
X13413495Y-14292070D01*
X13413495Y-14292070D02*
X13394448Y-14301594D01*
X13394448Y-14301594D02*
X13356353Y-14301594D01*
X13356353Y-14301594D02*
X13337305Y-14292070D01*
X13546829Y-14301594D02*
X13527781Y-14292070D01*
X13527781Y-14292070D02*
X13518257Y-14273023D01*
X13518257Y-14273023D02*
X13518257Y-14101594D01*
X13708734Y-14301594D02*
X13708734Y-14196832D01*
X13708734Y-14196832D02*
X13699210Y-14177784D01*
X13699210Y-14177784D02*
X13680162Y-14168261D01*
X13680162Y-14168261D02*
X13642067Y-14168261D01*
X13642067Y-14168261D02*
X13623019Y-14177784D01*
X13708734Y-14292070D02*
X13689686Y-14301594D01*
X13689686Y-14301594D02*
X13642067Y-14301594D01*
X13642067Y-14301594D02*
X13623019Y-14292070D01*
X13623019Y-14292070D02*
X13613495Y-14273023D01*
X13613495Y-14273023D02*
X13613495Y-14253975D01*
X13613495Y-14253975D02*
X13623019Y-14234927D01*
X13623019Y-14234927D02*
X13642067Y-14225404D01*
X13642067Y-14225404D02*
X13689686Y-14225404D01*
X13689686Y-14225404D02*
X13708734Y-14215880D01*
X13775400Y-14168261D02*
X13851591Y-14168261D01*
X13803972Y-14101594D02*
X13803972Y-14273023D01*
X13803972Y-14273023D02*
X13813495Y-14292070D01*
X13813495Y-14292070D02*
X13832543Y-14301594D01*
X13832543Y-14301594D02*
X13851591Y-14301594D01*
X13994448Y-14292070D02*
X13975400Y-14301594D01*
X13975400Y-14301594D02*
X13937305Y-14301594D01*
X13937305Y-14301594D02*
X13918257Y-14292070D01*
X13918257Y-14292070D02*
X13908734Y-14273023D01*
X13908734Y-14273023D02*
X13908734Y-14196832D01*
X13908734Y-14196832D02*
X13918257Y-14177784D01*
X13918257Y-14177784D02*
X13937305Y-14168261D01*
X13937305Y-14168261D02*
X13975400Y-14168261D01*
X13975400Y-14168261D02*
X13994448Y-14177784D01*
X13994448Y-14177784D02*
X14003972Y-14196832D01*
X14003972Y-14196832D02*
X14003972Y-14215880D01*
X14003972Y-14215880D02*
X13908734Y-14234927D01*
X14175400Y-14301594D02*
X14175400Y-14101594D01*
X14175400Y-14292070D02*
X14156353Y-14301594D01*
X14156353Y-14301594D02*
X14118257Y-14301594D01*
X14118257Y-14301594D02*
X14099210Y-14292070D01*
X14099210Y-14292070D02*
X14089686Y-14282546D01*
X14089686Y-14282546D02*
X14080162Y-14263499D01*
X14080162Y-14263499D02*
X14080162Y-14206356D01*
X14080162Y-14206356D02*
X14089686Y-14187308D01*
X14089686Y-14187308D02*
X14099210Y-14177784D01*
X14099210Y-14177784D02*
X14118257Y-14168261D01*
X14118257Y-14168261D02*
X14156353Y-14168261D01*
X14156353Y-14168261D02*
X14175400Y-14177784D01*
X14251591Y-14377784D02*
X14261115Y-14368261D01*
X14261115Y-14368261D02*
X14280162Y-14339689D01*
X14280162Y-14339689D02*
X14289686Y-14320642D01*
X14289686Y-14320642D02*
X14299210Y-14292070D01*
X14299210Y-14292070D02*
X14308734Y-14244451D01*
X14308734Y-14244451D02*
X14308734Y-14206356D01*
X14308734Y-14206356D02*
X14299210Y-14158737D01*
X14299210Y-14158737D02*
X14289686Y-14130165D01*
X14289686Y-14130165D02*
X14280162Y-14111118D01*
X14280162Y-14111118D02*
X14261115Y-14082546D01*
X14261115Y-14082546D02*
X14251591Y-14073023D01*
D12*
X7495575Y-14474110D02*
G75*
G02*
X7395575Y-14474110I-50000J0D01*
G01*
X7395575Y-14474110D02*
G75*
G02*
X7495575Y-14474110I50000J0D01*
G01*
D11*
X7861114Y-14565594D02*
X7746828Y-14565594D01*
X7803971Y-14565594D02*
X7803971Y-14365594D01*
X7803971Y-14365594D02*
X7784923Y-14394165D01*
X7784923Y-14394165D02*
X7765876Y-14413213D01*
X7765876Y-14413213D02*
X7746828Y-14422737D01*
X7946828Y-14546546D02*
X7956352Y-14556070D01*
X7956352Y-14556070D02*
X7946828Y-14565594D01*
X7946828Y-14565594D02*
X7937304Y-14556070D01*
X7937304Y-14556070D02*
X7946828Y-14546546D01*
X7946828Y-14546546D02*
X7946828Y-14565594D01*
X8080162Y-14365594D02*
X8099209Y-14365594D01*
X8099209Y-14365594D02*
X8118257Y-14375118D01*
X8118257Y-14375118D02*
X8127781Y-14384642D01*
X8127781Y-14384642D02*
X8137304Y-14403689D01*
X8137304Y-14403689D02*
X8146828Y-14441784D01*
X8146828Y-14441784D02*
X8146828Y-14489404D01*
X8146828Y-14489404D02*
X8137304Y-14527499D01*
X8137304Y-14527499D02*
X8127781Y-14546546D01*
X8127781Y-14546546D02*
X8118257Y-14556070D01*
X8118257Y-14556070D02*
X8099209Y-14565594D01*
X8099209Y-14565594D02*
X8080162Y-14565594D01*
X8080162Y-14565594D02*
X8061114Y-14556070D01*
X8061114Y-14556070D02*
X8051590Y-14546546D01*
X8051590Y-14546546D02*
X8042066Y-14527499D01*
X8042066Y-14527499D02*
X8032543Y-14489404D01*
X8032543Y-14489404D02*
X8032543Y-14441784D01*
X8032543Y-14441784D02*
X8042066Y-14403689D01*
X8042066Y-14403689D02*
X8051590Y-14384642D01*
X8051590Y-14384642D02*
X8061114Y-14375118D01*
X8061114Y-14375118D02*
X8080162Y-14365594D01*
X8270638Y-14365594D02*
X8289685Y-14365594D01*
X8289685Y-14365594D02*
X8308733Y-14375118D01*
X8308733Y-14375118D02*
X8318257Y-14384642D01*
X8318257Y-14384642D02*
X8327781Y-14403689D01*
X8327781Y-14403689D02*
X8337304Y-14441784D01*
X8337304Y-14441784D02*
X8337304Y-14489404D01*
X8337304Y-14489404D02*
X8327781Y-14527499D01*
X8327781Y-14527499D02*
X8318257Y-14546546D01*
X8318257Y-14546546D02*
X8308733Y-14556070D01*
X8308733Y-14556070D02*
X8289685Y-14565594D01*
X8289685Y-14565594D02*
X8270638Y-14565594D01*
X8270638Y-14565594D02*
X8251590Y-14556070D01*
X8251590Y-14556070D02*
X8242066Y-14546546D01*
X8242066Y-14546546D02*
X8232543Y-14527499D01*
X8232543Y-14527499D02*
X8223019Y-14489404D01*
X8223019Y-14489404D02*
X8223019Y-14441784D01*
X8223019Y-14441784D02*
X8232543Y-14403689D01*
X8232543Y-14403689D02*
X8242066Y-14384642D01*
X8242066Y-14384642D02*
X8251590Y-14375118D01*
X8251590Y-14375118D02*
X8270638Y-14365594D01*
X8461114Y-14365594D02*
X8480162Y-14365594D01*
X8480162Y-14365594D02*
X8499209Y-14375118D01*
X8499209Y-14375118D02*
X8508733Y-14384642D01*
X8508733Y-14384642D02*
X8518257Y-14403689D01*
X8518257Y-14403689D02*
X8527781Y-14441784D01*
X8527781Y-14441784D02*
X8527781Y-14489404D01*
X8527781Y-14489404D02*
X8518257Y-14527499D01*
X8518257Y-14527499D02*
X8508733Y-14546546D01*
X8508733Y-14546546D02*
X8499209Y-14556070D01*
X8499209Y-14556070D02*
X8480162Y-14565594D01*
X8480162Y-14565594D02*
X8461114Y-14565594D01*
X8461114Y-14565594D02*
X8442066Y-14556070D01*
X8442066Y-14556070D02*
X8432543Y-14546546D01*
X8432543Y-14546546D02*
X8423019Y-14527499D01*
X8423019Y-14527499D02*
X8413495Y-14489404D01*
X8413495Y-14489404D02*
X8413495Y-14441784D01*
X8413495Y-14441784D02*
X8423019Y-14403689D01*
X8423019Y-14403689D02*
X8432543Y-14384642D01*
X8432543Y-14384642D02*
X8442066Y-14375118D01*
X8442066Y-14375118D02*
X8461114Y-14365594D01*
X8613495Y-14565594D02*
X8613495Y-14432261D01*
X8613495Y-14451308D02*
X8623019Y-14441784D01*
X8623019Y-14441784D02*
X8642066Y-14432261D01*
X8642066Y-14432261D02*
X8670638Y-14432261D01*
X8670638Y-14432261D02*
X8689686Y-14441784D01*
X8689686Y-14441784D02*
X8699209Y-14460832D01*
X8699209Y-14460832D02*
X8699209Y-14565594D01*
X8699209Y-14460832D02*
X8708733Y-14441784D01*
X8708733Y-14441784D02*
X8727781Y-14432261D01*
X8727781Y-14432261D02*
X8756352Y-14432261D01*
X8756352Y-14432261D02*
X8775400Y-14441784D01*
X8775400Y-14441784D02*
X8784924Y-14460832D01*
X8784924Y-14460832D02*
X8784924Y-14565594D01*
X8880162Y-14565594D02*
X8880162Y-14432261D01*
X8880162Y-14451308D02*
X8889686Y-14441784D01*
X8889686Y-14441784D02*
X8908733Y-14432261D01*
X8908733Y-14432261D02*
X8937305Y-14432261D01*
X8937305Y-14432261D02*
X8956352Y-14441784D01*
X8956352Y-14441784D02*
X8965876Y-14460832D01*
X8965876Y-14460832D02*
X8965876Y-14565594D01*
X8965876Y-14460832D02*
X8975400Y-14441784D01*
X8975400Y-14441784D02*
X8994447Y-14432261D01*
X8994447Y-14432261D02*
X9023019Y-14432261D01*
X9023019Y-14432261D02*
X9042067Y-14441784D01*
X9042067Y-14441784D02*
X9051590Y-14460832D01*
X9051590Y-14460832D02*
X9051590Y-14565594D01*
X9442067Y-14356070D02*
X9270638Y-14613213D01*
X9699209Y-14365594D02*
X9718257Y-14365594D01*
X9718257Y-14365594D02*
X9737305Y-14375118D01*
X9737305Y-14375118D02*
X9746829Y-14384642D01*
X9746829Y-14384642D02*
X9756352Y-14403689D01*
X9756352Y-14403689D02*
X9765876Y-14441784D01*
X9765876Y-14441784D02*
X9765876Y-14489404D01*
X9765876Y-14489404D02*
X9756352Y-14527499D01*
X9756352Y-14527499D02*
X9746829Y-14546546D01*
X9746829Y-14546546D02*
X9737305Y-14556070D01*
X9737305Y-14556070D02*
X9718257Y-14565594D01*
X9718257Y-14565594D02*
X9699209Y-14565594D01*
X9699209Y-14565594D02*
X9680162Y-14556070D01*
X9680162Y-14556070D02*
X9670638Y-14546546D01*
X9670638Y-14546546D02*
X9661114Y-14527499D01*
X9661114Y-14527499D02*
X9651590Y-14489404D01*
X9651590Y-14489404D02*
X9651590Y-14441784D01*
X9651590Y-14441784D02*
X9661114Y-14403689D01*
X9661114Y-14403689D02*
X9670638Y-14384642D01*
X9670638Y-14384642D02*
X9680162Y-14375118D01*
X9680162Y-14375118D02*
X9699209Y-14365594D01*
X9851590Y-14546546D02*
X9861114Y-14556070D01*
X9861114Y-14556070D02*
X9851590Y-14565594D01*
X9851590Y-14565594D02*
X9842067Y-14556070D01*
X9842067Y-14556070D02*
X9851590Y-14546546D01*
X9851590Y-14546546D02*
X9851590Y-14565594D01*
X9984924Y-14365594D02*
X10003971Y-14365594D01*
X10003971Y-14365594D02*
X10023019Y-14375118D01*
X10023019Y-14375118D02*
X10032543Y-14384642D01*
X10032543Y-14384642D02*
X10042067Y-14403689D01*
X10042067Y-14403689D02*
X10051590Y-14441784D01*
X10051590Y-14441784D02*
X10051590Y-14489404D01*
X10051590Y-14489404D02*
X10042067Y-14527499D01*
X10042067Y-14527499D02*
X10032543Y-14546546D01*
X10032543Y-14546546D02*
X10023019Y-14556070D01*
X10023019Y-14556070D02*
X10003971Y-14565594D01*
X10003971Y-14565594D02*
X9984924Y-14565594D01*
X9984924Y-14565594D02*
X9965876Y-14556070D01*
X9965876Y-14556070D02*
X9956352Y-14546546D01*
X9956352Y-14546546D02*
X9946829Y-14527499D01*
X9946829Y-14527499D02*
X9937305Y-14489404D01*
X9937305Y-14489404D02*
X9937305Y-14441784D01*
X9937305Y-14441784D02*
X9946829Y-14403689D01*
X9946829Y-14403689D02*
X9956352Y-14384642D01*
X9956352Y-14384642D02*
X9965876Y-14375118D01*
X9965876Y-14375118D02*
X9984924Y-14365594D01*
X10118257Y-14365594D02*
X10242067Y-14365594D01*
X10242067Y-14365594D02*
X10175400Y-14441784D01*
X10175400Y-14441784D02*
X10203971Y-14441784D01*
X10203971Y-14441784D02*
X10223019Y-14451308D01*
X10223019Y-14451308D02*
X10232543Y-14460832D01*
X10232543Y-14460832D02*
X10242067Y-14479880D01*
X10242067Y-14479880D02*
X10242067Y-14527499D01*
X10242067Y-14527499D02*
X10232543Y-14546546D01*
X10232543Y-14546546D02*
X10223019Y-14556070D01*
X10223019Y-14556070D02*
X10203971Y-14565594D01*
X10203971Y-14565594D02*
X10146829Y-14565594D01*
X10146829Y-14565594D02*
X10127781Y-14556070D01*
X10127781Y-14556070D02*
X10118257Y-14546546D01*
X10337305Y-14565594D02*
X10375400Y-14565594D01*
X10375400Y-14565594D02*
X10394448Y-14556070D01*
X10394448Y-14556070D02*
X10403971Y-14546546D01*
X10403971Y-14546546D02*
X10423019Y-14517975D01*
X10423019Y-14517975D02*
X10432543Y-14479880D01*
X10432543Y-14479880D02*
X10432543Y-14403689D01*
X10432543Y-14403689D02*
X10423019Y-14384642D01*
X10423019Y-14384642D02*
X10413495Y-14375118D01*
X10413495Y-14375118D02*
X10394448Y-14365594D01*
X10394448Y-14365594D02*
X10356352Y-14365594D01*
X10356352Y-14365594D02*
X10337305Y-14375118D01*
X10337305Y-14375118D02*
X10327781Y-14384642D01*
X10327781Y-14384642D02*
X10318257Y-14403689D01*
X10318257Y-14403689D02*
X10318257Y-14451308D01*
X10318257Y-14451308D02*
X10327781Y-14470356D01*
X10327781Y-14470356D02*
X10337305Y-14479880D01*
X10337305Y-14479880D02*
X10356352Y-14489404D01*
X10356352Y-14489404D02*
X10394448Y-14489404D01*
X10394448Y-14489404D02*
X10413495Y-14479880D01*
X10413495Y-14479880D02*
X10423019Y-14470356D01*
X10423019Y-14470356D02*
X10432543Y-14451308D01*
X10603971Y-14432261D02*
X10603971Y-14565594D01*
X10556352Y-14356070D02*
X10508733Y-14498927D01*
X10508733Y-14498927D02*
X10632543Y-14498927D01*
X10699210Y-14365594D02*
X10699210Y-14403689D01*
X10775400Y-14365594D02*
X10775400Y-14403689D01*
X11070638Y-14641784D02*
X11061114Y-14632261D01*
X11061114Y-14632261D02*
X11042067Y-14603689D01*
X11042067Y-14603689D02*
X11032543Y-14584642D01*
X11032543Y-14584642D02*
X11023019Y-14556070D01*
X11023019Y-14556070D02*
X11013495Y-14508451D01*
X11013495Y-14508451D02*
X11013495Y-14470356D01*
X11013495Y-14470356D02*
X11023019Y-14422737D01*
X11023019Y-14422737D02*
X11032543Y-14394165D01*
X11032543Y-14394165D02*
X11042067Y-14375118D01*
X11042067Y-14375118D02*
X11061114Y-14346546D01*
X11061114Y-14346546D02*
X11070638Y-14337023D01*
X11137305Y-14384642D02*
X11146829Y-14375118D01*
X11146829Y-14375118D02*
X11165876Y-14365594D01*
X11165876Y-14365594D02*
X11213495Y-14365594D01*
X11213495Y-14365594D02*
X11232543Y-14375118D01*
X11232543Y-14375118D02*
X11242067Y-14384642D01*
X11242067Y-14384642D02*
X11251590Y-14403689D01*
X11251590Y-14403689D02*
X11251590Y-14422737D01*
X11251590Y-14422737D02*
X11242067Y-14451308D01*
X11242067Y-14451308D02*
X11127781Y-14565594D01*
X11127781Y-14565594D02*
X11251590Y-14565594D01*
X11489686Y-14565594D02*
X11489686Y-14365594D01*
X11575400Y-14565594D02*
X11575400Y-14460832D01*
X11575400Y-14460832D02*
X11565876Y-14441784D01*
X11565876Y-14441784D02*
X11546829Y-14432261D01*
X11546829Y-14432261D02*
X11518257Y-14432261D01*
X11518257Y-14432261D02*
X11499210Y-14441784D01*
X11499210Y-14441784D02*
X11489686Y-14451308D01*
X11699210Y-14565594D02*
X11680162Y-14556070D01*
X11680162Y-14556070D02*
X11670638Y-14546546D01*
X11670638Y-14546546D02*
X11661114Y-14527499D01*
X11661114Y-14527499D02*
X11661114Y-14470356D01*
X11661114Y-14470356D02*
X11670638Y-14451308D01*
X11670638Y-14451308D02*
X11680162Y-14441784D01*
X11680162Y-14441784D02*
X11699210Y-14432261D01*
X11699210Y-14432261D02*
X11727781Y-14432261D01*
X11727781Y-14432261D02*
X11746829Y-14441784D01*
X11746829Y-14441784D02*
X11756352Y-14451308D01*
X11756352Y-14451308D02*
X11765876Y-14470356D01*
X11765876Y-14470356D02*
X11765876Y-14527499D01*
X11765876Y-14527499D02*
X11756352Y-14546546D01*
X11756352Y-14546546D02*
X11746829Y-14556070D01*
X11746829Y-14556070D02*
X11727781Y-14565594D01*
X11727781Y-14565594D02*
X11699210Y-14565594D01*
X11880162Y-14565594D02*
X11861114Y-14556070D01*
X11861114Y-14556070D02*
X11851591Y-14537023D01*
X11851591Y-14537023D02*
X11851591Y-14365594D01*
X12032543Y-14556070D02*
X12013495Y-14565594D01*
X12013495Y-14565594D02*
X11975400Y-14565594D01*
X11975400Y-14565594D02*
X11956352Y-14556070D01*
X11956352Y-14556070D02*
X11946829Y-14537023D01*
X11946829Y-14537023D02*
X11946829Y-14460832D01*
X11946829Y-14460832D02*
X11956352Y-14441784D01*
X11956352Y-14441784D02*
X11975400Y-14432261D01*
X11975400Y-14432261D02*
X12013495Y-14432261D01*
X12013495Y-14432261D02*
X12032543Y-14441784D01*
X12032543Y-14441784D02*
X12042067Y-14460832D01*
X12042067Y-14460832D02*
X12042067Y-14479880D01*
X12042067Y-14479880D02*
X11946829Y-14498927D01*
X12118257Y-14556070D02*
X12137305Y-14565594D01*
X12137305Y-14565594D02*
X12175400Y-14565594D01*
X12175400Y-14565594D02*
X12194448Y-14556070D01*
X12194448Y-14556070D02*
X12203972Y-14537023D01*
X12203972Y-14537023D02*
X12203972Y-14527499D01*
X12203972Y-14527499D02*
X12194448Y-14508451D01*
X12194448Y-14508451D02*
X12175400Y-14498927D01*
X12175400Y-14498927D02*
X12146829Y-14498927D01*
X12146829Y-14498927D02*
X12127781Y-14489404D01*
X12127781Y-14489404D02*
X12118257Y-14470356D01*
X12118257Y-14470356D02*
X12118257Y-14460832D01*
X12118257Y-14460832D02*
X12127781Y-14441784D01*
X12127781Y-14441784D02*
X12146829Y-14432261D01*
X12146829Y-14432261D02*
X12175400Y-14432261D01*
X12175400Y-14432261D02*
X12194448Y-14441784D01*
X12270638Y-14641784D02*
X12280162Y-14632261D01*
X12280162Y-14632261D02*
X12299210Y-14603689D01*
X12299210Y-14603689D02*
X12308733Y-14584642D01*
X12308733Y-14584642D02*
X12318257Y-14556070D01*
X12318257Y-14556070D02*
X12327781Y-14508451D01*
X12327781Y-14508451D02*
X12327781Y-14470356D01*
X12327781Y-14470356D02*
X12318257Y-14422737D01*
X12318257Y-14422737D02*
X12308733Y-14394165D01*
X12308733Y-14394165D02*
X12299210Y-14375118D01*
X12299210Y-14375118D02*
X12280162Y-14346546D01*
X12280162Y-14346546D02*
X12270638Y-14337023D01*
X12632543Y-14641784D02*
X12623019Y-14632261D01*
X12623019Y-14632261D02*
X12603972Y-14603689D01*
X12603972Y-14603689D02*
X12594448Y-14584642D01*
X12594448Y-14584642D02*
X12584924Y-14556070D01*
X12584924Y-14556070D02*
X12575400Y-14508451D01*
X12575400Y-14508451D02*
X12575400Y-14470356D01*
X12575400Y-14470356D02*
X12584924Y-14422737D01*
X12584924Y-14422737D02*
X12594448Y-14394165D01*
X12594448Y-14394165D02*
X12603972Y-14375118D01*
X12603972Y-14375118D02*
X12623019Y-14346546D01*
X12623019Y-14346546D02*
X12632543Y-14337023D01*
X12708733Y-14432261D02*
X12708733Y-14565594D01*
X12708733Y-14451308D02*
X12718257Y-14441784D01*
X12718257Y-14441784D02*
X12737305Y-14432261D01*
X12737305Y-14432261D02*
X12765876Y-14432261D01*
X12765876Y-14432261D02*
X12784924Y-14441784D01*
X12784924Y-14441784D02*
X12794448Y-14460832D01*
X12794448Y-14460832D02*
X12794448Y-14565594D01*
X12918257Y-14565594D02*
X12899210Y-14556070D01*
X12899210Y-14556070D02*
X12889686Y-14546546D01*
X12889686Y-14546546D02*
X12880162Y-14527499D01*
X12880162Y-14527499D02*
X12880162Y-14470356D01*
X12880162Y-14470356D02*
X12889686Y-14451308D01*
X12889686Y-14451308D02*
X12899210Y-14441784D01*
X12899210Y-14441784D02*
X12918257Y-14432261D01*
X12918257Y-14432261D02*
X12946829Y-14432261D01*
X12946829Y-14432261D02*
X12965876Y-14441784D01*
X12965876Y-14441784D02*
X12975400Y-14451308D01*
X12975400Y-14451308D02*
X12984924Y-14470356D01*
X12984924Y-14470356D02*
X12984924Y-14527499D01*
X12984924Y-14527499D02*
X12975400Y-14546546D01*
X12975400Y-14546546D02*
X12965876Y-14556070D01*
X12965876Y-14556070D02*
X12946829Y-14565594D01*
X12946829Y-14565594D02*
X12918257Y-14565594D01*
X13042067Y-14432261D02*
X13118257Y-14432261D01*
X13070638Y-14365594D02*
X13070638Y-14537023D01*
X13070638Y-14537023D02*
X13080162Y-14556070D01*
X13080162Y-14556070D02*
X13099210Y-14565594D01*
X13099210Y-14565594D02*
X13118257Y-14565594D01*
X13337305Y-14432261D02*
X13337305Y-14632261D01*
X13337305Y-14441784D02*
X13356353Y-14432261D01*
X13356353Y-14432261D02*
X13394448Y-14432261D01*
X13394448Y-14432261D02*
X13413495Y-14441784D01*
X13413495Y-14441784D02*
X13423019Y-14451308D01*
X13423019Y-14451308D02*
X13432543Y-14470356D01*
X13432543Y-14470356D02*
X13432543Y-14527499D01*
X13432543Y-14527499D02*
X13423019Y-14546546D01*
X13423019Y-14546546D02*
X13413495Y-14556070D01*
X13413495Y-14556070D02*
X13394448Y-14565594D01*
X13394448Y-14565594D02*
X13356353Y-14565594D01*
X13356353Y-14565594D02*
X13337305Y-14556070D01*
X13546829Y-14565594D02*
X13527781Y-14556070D01*
X13527781Y-14556070D02*
X13518257Y-14537023D01*
X13518257Y-14537023D02*
X13518257Y-14365594D01*
X13708734Y-14565594D02*
X13708734Y-14460832D01*
X13708734Y-14460832D02*
X13699210Y-14441784D01*
X13699210Y-14441784D02*
X13680162Y-14432261D01*
X13680162Y-14432261D02*
X13642067Y-14432261D01*
X13642067Y-14432261D02*
X13623019Y-14441784D01*
X13708734Y-14556070D02*
X13689686Y-14565594D01*
X13689686Y-14565594D02*
X13642067Y-14565594D01*
X13642067Y-14565594D02*
X13623019Y-14556070D01*
X13623019Y-14556070D02*
X13613495Y-14537023D01*
X13613495Y-14537023D02*
X13613495Y-14517975D01*
X13613495Y-14517975D02*
X13623019Y-14498927D01*
X13623019Y-14498927D02*
X13642067Y-14489404D01*
X13642067Y-14489404D02*
X13689686Y-14489404D01*
X13689686Y-14489404D02*
X13708734Y-14479880D01*
X13775400Y-14432261D02*
X13851591Y-14432261D01*
X13803972Y-14365594D02*
X13803972Y-14537023D01*
X13803972Y-14537023D02*
X13813495Y-14556070D01*
X13813495Y-14556070D02*
X13832543Y-14565594D01*
X13832543Y-14565594D02*
X13851591Y-14565594D01*
X13994448Y-14556070D02*
X13975400Y-14565594D01*
X13975400Y-14565594D02*
X13937305Y-14565594D01*
X13937305Y-14565594D02*
X13918257Y-14556070D01*
X13918257Y-14556070D02*
X13908734Y-14537023D01*
X13908734Y-14537023D02*
X13908734Y-14460832D01*
X13908734Y-14460832D02*
X13918257Y-14441784D01*
X13918257Y-14441784D02*
X13937305Y-14432261D01*
X13937305Y-14432261D02*
X13975400Y-14432261D01*
X13975400Y-14432261D02*
X13994448Y-14441784D01*
X13994448Y-14441784D02*
X14003972Y-14460832D01*
X14003972Y-14460832D02*
X14003972Y-14479880D01*
X14003972Y-14479880D02*
X13908734Y-14498927D01*
X14175400Y-14565594D02*
X14175400Y-14365594D01*
X14175400Y-14556070D02*
X14156353Y-14565594D01*
X14156353Y-14565594D02*
X14118257Y-14565594D01*
X14118257Y-14565594D02*
X14099210Y-14556070D01*
X14099210Y-14556070D02*
X14089686Y-14546546D01*
X14089686Y-14546546D02*
X14080162Y-14527499D01*
X14080162Y-14527499D02*
X14080162Y-14470356D01*
X14080162Y-14470356D02*
X14089686Y-14451308D01*
X14089686Y-14451308D02*
X14099210Y-14441784D01*
X14099210Y-14441784D02*
X14118257Y-14432261D01*
X14118257Y-14432261D02*
X14156353Y-14432261D01*
X14156353Y-14432261D02*
X14175400Y-14441784D01*
X14251591Y-14641784D02*
X14261115Y-14632261D01*
X14261115Y-14632261D02*
X14280162Y-14603689D01*
X14280162Y-14603689D02*
X14289686Y-14584642D01*
X14289686Y-14584642D02*
X14299210Y-14556070D01*
X14299210Y-14556070D02*
X14308734Y-14508451D01*
X14308734Y-14508451D02*
X14308734Y-14470356D01*
X14308734Y-14470356D02*
X14299210Y-14422737D01*
X14299210Y-14422737D02*
X14289686Y-14394165D01*
X14289686Y-14394165D02*
X14280162Y-14375118D01*
X14280162Y-14375118D02*
X14261115Y-14346546D01*
X14261115Y-14346546D02*
X14251591Y-14337023D01*
D13*
X7415575Y-14658110D02*
X7415575Y-14818110D01*
X7335575Y-14738110D02*
X7495575Y-14738110D01*
D11*
X7861114Y-14829594D02*
X7746828Y-14829594D01*
X7803971Y-14829594D02*
X7803971Y-14629594D01*
X7803971Y-14629594D02*
X7784923Y-14658165D01*
X7784923Y-14658165D02*
X7765876Y-14677213D01*
X7765876Y-14677213D02*
X7746828Y-14686737D01*
X7946828Y-14810546D02*
X7956352Y-14820070D01*
X7956352Y-14820070D02*
X7946828Y-14829594D01*
X7946828Y-14829594D02*
X7937304Y-14820070D01*
X7937304Y-14820070D02*
X7946828Y-14810546D01*
X7946828Y-14810546D02*
X7946828Y-14829594D01*
X8127781Y-14629594D02*
X8089685Y-14629594D01*
X8089685Y-14629594D02*
X8070638Y-14639118D01*
X8070638Y-14639118D02*
X8061114Y-14648642D01*
X8061114Y-14648642D02*
X8042066Y-14677213D01*
X8042066Y-14677213D02*
X8032543Y-14715308D01*
X8032543Y-14715308D02*
X8032543Y-14791499D01*
X8032543Y-14791499D02*
X8042066Y-14810546D01*
X8042066Y-14810546D02*
X8051590Y-14820070D01*
X8051590Y-14820070D02*
X8070638Y-14829594D01*
X8070638Y-14829594D02*
X8108733Y-14829594D01*
X8108733Y-14829594D02*
X8127781Y-14820070D01*
X8127781Y-14820070D02*
X8137304Y-14810546D01*
X8137304Y-14810546D02*
X8146828Y-14791499D01*
X8146828Y-14791499D02*
X8146828Y-14743880D01*
X8146828Y-14743880D02*
X8137304Y-14724832D01*
X8137304Y-14724832D02*
X8127781Y-14715308D01*
X8127781Y-14715308D02*
X8108733Y-14705784D01*
X8108733Y-14705784D02*
X8070638Y-14705784D01*
X8070638Y-14705784D02*
X8051590Y-14715308D01*
X8051590Y-14715308D02*
X8042066Y-14724832D01*
X8042066Y-14724832D02*
X8032543Y-14743880D01*
X8270638Y-14629594D02*
X8289685Y-14629594D01*
X8289685Y-14629594D02*
X8308733Y-14639118D01*
X8308733Y-14639118D02*
X8318257Y-14648642D01*
X8318257Y-14648642D02*
X8327781Y-14667689D01*
X8327781Y-14667689D02*
X8337304Y-14705784D01*
X8337304Y-14705784D02*
X8337304Y-14753404D01*
X8337304Y-14753404D02*
X8327781Y-14791499D01*
X8327781Y-14791499D02*
X8318257Y-14810546D01*
X8318257Y-14810546D02*
X8308733Y-14820070D01*
X8308733Y-14820070D02*
X8289685Y-14829594D01*
X8289685Y-14829594D02*
X8270638Y-14829594D01*
X8270638Y-14829594D02*
X8251590Y-14820070D01*
X8251590Y-14820070D02*
X8242066Y-14810546D01*
X8242066Y-14810546D02*
X8232543Y-14791499D01*
X8232543Y-14791499D02*
X8223019Y-14753404D01*
X8223019Y-14753404D02*
X8223019Y-14705784D01*
X8223019Y-14705784D02*
X8232543Y-14667689D01*
X8232543Y-14667689D02*
X8242066Y-14648642D01*
X8242066Y-14648642D02*
X8251590Y-14639118D01*
X8251590Y-14639118D02*
X8270638Y-14629594D01*
X8461114Y-14629594D02*
X8480162Y-14629594D01*
X8480162Y-14629594D02*
X8499209Y-14639118D01*
X8499209Y-14639118D02*
X8508733Y-14648642D01*
X8508733Y-14648642D02*
X8518257Y-14667689D01*
X8518257Y-14667689D02*
X8527781Y-14705784D01*
X8527781Y-14705784D02*
X8527781Y-14753404D01*
X8527781Y-14753404D02*
X8518257Y-14791499D01*
X8518257Y-14791499D02*
X8508733Y-14810546D01*
X8508733Y-14810546D02*
X8499209Y-14820070D01*
X8499209Y-14820070D02*
X8480162Y-14829594D01*
X8480162Y-14829594D02*
X8461114Y-14829594D01*
X8461114Y-14829594D02*
X8442066Y-14820070D01*
X8442066Y-14820070D02*
X8432543Y-14810546D01*
X8432543Y-14810546D02*
X8423019Y-14791499D01*
X8423019Y-14791499D02*
X8413495Y-14753404D01*
X8413495Y-14753404D02*
X8413495Y-14705784D01*
X8413495Y-14705784D02*
X8423019Y-14667689D01*
X8423019Y-14667689D02*
X8432543Y-14648642D01*
X8432543Y-14648642D02*
X8442066Y-14639118D01*
X8442066Y-14639118D02*
X8461114Y-14629594D01*
X8613495Y-14829594D02*
X8613495Y-14696261D01*
X8613495Y-14715308D02*
X8623019Y-14705784D01*
X8623019Y-14705784D02*
X8642066Y-14696261D01*
X8642066Y-14696261D02*
X8670638Y-14696261D01*
X8670638Y-14696261D02*
X8689686Y-14705784D01*
X8689686Y-14705784D02*
X8699209Y-14724832D01*
X8699209Y-14724832D02*
X8699209Y-14829594D01*
X8699209Y-14724832D02*
X8708733Y-14705784D01*
X8708733Y-14705784D02*
X8727781Y-14696261D01*
X8727781Y-14696261D02*
X8756352Y-14696261D01*
X8756352Y-14696261D02*
X8775400Y-14705784D01*
X8775400Y-14705784D02*
X8784924Y-14724832D01*
X8784924Y-14724832D02*
X8784924Y-14829594D01*
X8880162Y-14829594D02*
X8880162Y-14696261D01*
X8880162Y-14715308D02*
X8889686Y-14705784D01*
X8889686Y-14705784D02*
X8908733Y-14696261D01*
X8908733Y-14696261D02*
X8937305Y-14696261D01*
X8937305Y-14696261D02*
X8956352Y-14705784D01*
X8956352Y-14705784D02*
X8965876Y-14724832D01*
X8965876Y-14724832D02*
X8965876Y-14829594D01*
X8965876Y-14724832D02*
X8975400Y-14705784D01*
X8975400Y-14705784D02*
X8994447Y-14696261D01*
X8994447Y-14696261D02*
X9023019Y-14696261D01*
X9023019Y-14696261D02*
X9042067Y-14705784D01*
X9042067Y-14705784D02*
X9051590Y-14724832D01*
X9051590Y-14724832D02*
X9051590Y-14829594D01*
X9442067Y-14620070D02*
X9270638Y-14877213D01*
X9699209Y-14629594D02*
X9718257Y-14629594D01*
X9718257Y-14629594D02*
X9737305Y-14639118D01*
X9737305Y-14639118D02*
X9746829Y-14648642D01*
X9746829Y-14648642D02*
X9756352Y-14667689D01*
X9756352Y-14667689D02*
X9765876Y-14705784D01*
X9765876Y-14705784D02*
X9765876Y-14753404D01*
X9765876Y-14753404D02*
X9756352Y-14791499D01*
X9756352Y-14791499D02*
X9746829Y-14810546D01*
X9746829Y-14810546D02*
X9737305Y-14820070D01*
X9737305Y-14820070D02*
X9718257Y-14829594D01*
X9718257Y-14829594D02*
X9699209Y-14829594D01*
X9699209Y-14829594D02*
X9680162Y-14820070D01*
X9680162Y-14820070D02*
X9670638Y-14810546D01*
X9670638Y-14810546D02*
X9661114Y-14791499D01*
X9661114Y-14791499D02*
X9651590Y-14753404D01*
X9651590Y-14753404D02*
X9651590Y-14705784D01*
X9651590Y-14705784D02*
X9661114Y-14667689D01*
X9661114Y-14667689D02*
X9670638Y-14648642D01*
X9670638Y-14648642D02*
X9680162Y-14639118D01*
X9680162Y-14639118D02*
X9699209Y-14629594D01*
X9851590Y-14810546D02*
X9861114Y-14820070D01*
X9861114Y-14820070D02*
X9851590Y-14829594D01*
X9851590Y-14829594D02*
X9842067Y-14820070D01*
X9842067Y-14820070D02*
X9851590Y-14810546D01*
X9851590Y-14810546D02*
X9851590Y-14829594D01*
X9984924Y-14629594D02*
X10003971Y-14629594D01*
X10003971Y-14629594D02*
X10023019Y-14639118D01*
X10023019Y-14639118D02*
X10032543Y-14648642D01*
X10032543Y-14648642D02*
X10042067Y-14667689D01*
X10042067Y-14667689D02*
X10051590Y-14705784D01*
X10051590Y-14705784D02*
X10051590Y-14753404D01*
X10051590Y-14753404D02*
X10042067Y-14791499D01*
X10042067Y-14791499D02*
X10032543Y-14810546D01*
X10032543Y-14810546D02*
X10023019Y-14820070D01*
X10023019Y-14820070D02*
X10003971Y-14829594D01*
X10003971Y-14829594D02*
X9984924Y-14829594D01*
X9984924Y-14829594D02*
X9965876Y-14820070D01*
X9965876Y-14820070D02*
X9956352Y-14810546D01*
X9956352Y-14810546D02*
X9946829Y-14791499D01*
X9946829Y-14791499D02*
X9937305Y-14753404D01*
X9937305Y-14753404D02*
X9937305Y-14705784D01*
X9937305Y-14705784D02*
X9946829Y-14667689D01*
X9946829Y-14667689D02*
X9956352Y-14648642D01*
X9956352Y-14648642D02*
X9965876Y-14639118D01*
X9965876Y-14639118D02*
X9984924Y-14629594D01*
X10223019Y-14629594D02*
X10184924Y-14629594D01*
X10184924Y-14629594D02*
X10165876Y-14639118D01*
X10165876Y-14639118D02*
X10156352Y-14648642D01*
X10156352Y-14648642D02*
X10137305Y-14677213D01*
X10137305Y-14677213D02*
X10127781Y-14715308D01*
X10127781Y-14715308D02*
X10127781Y-14791499D01*
X10127781Y-14791499D02*
X10137305Y-14810546D01*
X10137305Y-14810546D02*
X10146829Y-14820070D01*
X10146829Y-14820070D02*
X10165876Y-14829594D01*
X10165876Y-14829594D02*
X10203971Y-14829594D01*
X10203971Y-14829594D02*
X10223019Y-14820070D01*
X10223019Y-14820070D02*
X10232543Y-14810546D01*
X10232543Y-14810546D02*
X10242067Y-14791499D01*
X10242067Y-14791499D02*
X10242067Y-14743880D01*
X10242067Y-14743880D02*
X10232543Y-14724832D01*
X10232543Y-14724832D02*
X10223019Y-14715308D01*
X10223019Y-14715308D02*
X10203971Y-14705784D01*
X10203971Y-14705784D02*
X10165876Y-14705784D01*
X10165876Y-14705784D02*
X10146829Y-14715308D01*
X10146829Y-14715308D02*
X10137305Y-14724832D01*
X10137305Y-14724832D02*
X10127781Y-14743880D01*
X10308733Y-14629594D02*
X10432543Y-14629594D01*
X10432543Y-14629594D02*
X10365876Y-14705784D01*
X10365876Y-14705784D02*
X10394448Y-14705784D01*
X10394448Y-14705784D02*
X10413495Y-14715308D01*
X10413495Y-14715308D02*
X10423019Y-14724832D01*
X10423019Y-14724832D02*
X10432543Y-14743880D01*
X10432543Y-14743880D02*
X10432543Y-14791499D01*
X10432543Y-14791499D02*
X10423019Y-14810546D01*
X10423019Y-14810546D02*
X10413495Y-14820070D01*
X10413495Y-14820070D02*
X10394448Y-14829594D01*
X10394448Y-14829594D02*
X10337305Y-14829594D01*
X10337305Y-14829594D02*
X10318257Y-14820070D01*
X10318257Y-14820070D02*
X10308733Y-14810546D01*
X10556352Y-14629594D02*
X10575400Y-14629594D01*
X10575400Y-14629594D02*
X10594448Y-14639118D01*
X10594448Y-14639118D02*
X10603971Y-14648642D01*
X10603971Y-14648642D02*
X10613495Y-14667689D01*
X10613495Y-14667689D02*
X10623019Y-14705784D01*
X10623019Y-14705784D02*
X10623019Y-14753404D01*
X10623019Y-14753404D02*
X10613495Y-14791499D01*
X10613495Y-14791499D02*
X10603971Y-14810546D01*
X10603971Y-14810546D02*
X10594448Y-14820070D01*
X10594448Y-14820070D02*
X10575400Y-14829594D01*
X10575400Y-14829594D02*
X10556352Y-14829594D01*
X10556352Y-14829594D02*
X10537305Y-14820070D01*
X10537305Y-14820070D02*
X10527781Y-14810546D01*
X10527781Y-14810546D02*
X10518257Y-14791499D01*
X10518257Y-14791499D02*
X10508733Y-14753404D01*
X10508733Y-14753404D02*
X10508733Y-14705784D01*
X10508733Y-14705784D02*
X10518257Y-14667689D01*
X10518257Y-14667689D02*
X10527781Y-14648642D01*
X10527781Y-14648642D02*
X10537305Y-14639118D01*
X10537305Y-14639118D02*
X10556352Y-14629594D01*
X10699210Y-14629594D02*
X10699210Y-14667689D01*
X10775400Y-14629594D02*
X10775400Y-14667689D01*
X11070638Y-14905784D02*
X11061114Y-14896261D01*
X11061114Y-14896261D02*
X11042067Y-14867689D01*
X11042067Y-14867689D02*
X11032543Y-14848642D01*
X11032543Y-14848642D02*
X11023019Y-14820070D01*
X11023019Y-14820070D02*
X11013495Y-14772451D01*
X11013495Y-14772451D02*
X11013495Y-14734356D01*
X11013495Y-14734356D02*
X11023019Y-14686737D01*
X11023019Y-14686737D02*
X11032543Y-14658165D01*
X11032543Y-14658165D02*
X11042067Y-14639118D01*
X11042067Y-14639118D02*
X11061114Y-14610546D01*
X11061114Y-14610546D02*
X11070638Y-14601023D01*
X11232543Y-14696261D02*
X11232543Y-14829594D01*
X11184924Y-14620070D02*
X11137305Y-14762927D01*
X11137305Y-14762927D02*
X11261114Y-14762927D01*
X11489686Y-14829594D02*
X11489686Y-14629594D01*
X11575400Y-14829594D02*
X11575400Y-14724832D01*
X11575400Y-14724832D02*
X11565876Y-14705784D01*
X11565876Y-14705784D02*
X11546829Y-14696261D01*
X11546829Y-14696261D02*
X11518257Y-14696261D01*
X11518257Y-14696261D02*
X11499210Y-14705784D01*
X11499210Y-14705784D02*
X11489686Y-14715308D01*
X11699210Y-14829594D02*
X11680162Y-14820070D01*
X11680162Y-14820070D02*
X11670638Y-14810546D01*
X11670638Y-14810546D02*
X11661114Y-14791499D01*
X11661114Y-14791499D02*
X11661114Y-14734356D01*
X11661114Y-14734356D02*
X11670638Y-14715308D01*
X11670638Y-14715308D02*
X11680162Y-14705784D01*
X11680162Y-14705784D02*
X11699210Y-14696261D01*
X11699210Y-14696261D02*
X11727781Y-14696261D01*
X11727781Y-14696261D02*
X11746829Y-14705784D01*
X11746829Y-14705784D02*
X11756352Y-14715308D01*
X11756352Y-14715308D02*
X11765876Y-14734356D01*
X11765876Y-14734356D02*
X11765876Y-14791499D01*
X11765876Y-14791499D02*
X11756352Y-14810546D01*
X11756352Y-14810546D02*
X11746829Y-14820070D01*
X11746829Y-14820070D02*
X11727781Y-14829594D01*
X11727781Y-14829594D02*
X11699210Y-14829594D01*
X11880162Y-14829594D02*
X11861114Y-14820070D01*
X11861114Y-14820070D02*
X11851591Y-14801023D01*
X11851591Y-14801023D02*
X11851591Y-14629594D01*
X12032543Y-14820070D02*
X12013495Y-14829594D01*
X12013495Y-14829594D02*
X11975400Y-14829594D01*
X11975400Y-14829594D02*
X11956352Y-14820070D01*
X11956352Y-14820070D02*
X11946829Y-14801023D01*
X11946829Y-14801023D02*
X11946829Y-14724832D01*
X11946829Y-14724832D02*
X11956352Y-14705784D01*
X11956352Y-14705784D02*
X11975400Y-14696261D01*
X11975400Y-14696261D02*
X12013495Y-14696261D01*
X12013495Y-14696261D02*
X12032543Y-14705784D01*
X12032543Y-14705784D02*
X12042067Y-14724832D01*
X12042067Y-14724832D02*
X12042067Y-14743880D01*
X12042067Y-14743880D02*
X11946829Y-14762927D01*
X12118257Y-14820070D02*
X12137305Y-14829594D01*
X12137305Y-14829594D02*
X12175400Y-14829594D01*
X12175400Y-14829594D02*
X12194448Y-14820070D01*
X12194448Y-14820070D02*
X12203972Y-14801023D01*
X12203972Y-14801023D02*
X12203972Y-14791499D01*
X12203972Y-14791499D02*
X12194448Y-14772451D01*
X12194448Y-14772451D02*
X12175400Y-14762927D01*
X12175400Y-14762927D02*
X12146829Y-14762927D01*
X12146829Y-14762927D02*
X12127781Y-14753404D01*
X12127781Y-14753404D02*
X12118257Y-14734356D01*
X12118257Y-14734356D02*
X12118257Y-14724832D01*
X12118257Y-14724832D02*
X12127781Y-14705784D01*
X12127781Y-14705784D02*
X12146829Y-14696261D01*
X12146829Y-14696261D02*
X12175400Y-14696261D01*
X12175400Y-14696261D02*
X12194448Y-14705784D01*
X12270638Y-14905784D02*
X12280162Y-14896261D01*
X12280162Y-14896261D02*
X12299210Y-14867689D01*
X12299210Y-14867689D02*
X12308733Y-14848642D01*
X12308733Y-14848642D02*
X12318257Y-14820070D01*
X12318257Y-14820070D02*
X12327781Y-14772451D01*
X12327781Y-14772451D02*
X12327781Y-14734356D01*
X12327781Y-14734356D02*
X12318257Y-14686737D01*
X12318257Y-14686737D02*
X12308733Y-14658165D01*
X12308733Y-14658165D02*
X12299210Y-14639118D01*
X12299210Y-14639118D02*
X12280162Y-14610546D01*
X12280162Y-14610546D02*
X12270638Y-14601023D01*
X12632543Y-14905784D02*
X12623019Y-14896261D01*
X12623019Y-14896261D02*
X12603972Y-14867689D01*
X12603972Y-14867689D02*
X12594448Y-14848642D01*
X12594448Y-14848642D02*
X12584924Y-14820070D01*
X12584924Y-14820070D02*
X12575400Y-14772451D01*
X12575400Y-14772451D02*
X12575400Y-14734356D01*
X12575400Y-14734356D02*
X12584924Y-14686737D01*
X12584924Y-14686737D02*
X12594448Y-14658165D01*
X12594448Y-14658165D02*
X12603972Y-14639118D01*
X12603972Y-14639118D02*
X12623019Y-14610546D01*
X12623019Y-14610546D02*
X12632543Y-14601023D01*
X12708733Y-14696261D02*
X12708733Y-14829594D01*
X12708733Y-14715308D02*
X12718257Y-14705784D01*
X12718257Y-14705784D02*
X12737305Y-14696261D01*
X12737305Y-14696261D02*
X12765876Y-14696261D01*
X12765876Y-14696261D02*
X12784924Y-14705784D01*
X12784924Y-14705784D02*
X12794448Y-14724832D01*
X12794448Y-14724832D02*
X12794448Y-14829594D01*
X12918257Y-14829594D02*
X12899210Y-14820070D01*
X12899210Y-14820070D02*
X12889686Y-14810546D01*
X12889686Y-14810546D02*
X12880162Y-14791499D01*
X12880162Y-14791499D02*
X12880162Y-14734356D01*
X12880162Y-14734356D02*
X12889686Y-14715308D01*
X12889686Y-14715308D02*
X12899210Y-14705784D01*
X12899210Y-14705784D02*
X12918257Y-14696261D01*
X12918257Y-14696261D02*
X12946829Y-14696261D01*
X12946829Y-14696261D02*
X12965876Y-14705784D01*
X12965876Y-14705784D02*
X12975400Y-14715308D01*
X12975400Y-14715308D02*
X12984924Y-14734356D01*
X12984924Y-14734356D02*
X12984924Y-14791499D01*
X12984924Y-14791499D02*
X12975400Y-14810546D01*
X12975400Y-14810546D02*
X12965876Y-14820070D01*
X12965876Y-14820070D02*
X12946829Y-14829594D01*
X12946829Y-14829594D02*
X12918257Y-14829594D01*
X13042067Y-14696261D02*
X13118257Y-14696261D01*
X13070638Y-14629594D02*
X13070638Y-14801023D01*
X13070638Y-14801023D02*
X13080162Y-14820070D01*
X13080162Y-14820070D02*
X13099210Y-14829594D01*
X13099210Y-14829594D02*
X13118257Y-14829594D01*
X13337305Y-14696261D02*
X13337305Y-14896261D01*
X13337305Y-14705784D02*
X13356353Y-14696261D01*
X13356353Y-14696261D02*
X13394448Y-14696261D01*
X13394448Y-14696261D02*
X13413495Y-14705784D01*
X13413495Y-14705784D02*
X13423019Y-14715308D01*
X13423019Y-14715308D02*
X13432543Y-14734356D01*
X13432543Y-14734356D02*
X13432543Y-14791499D01*
X13432543Y-14791499D02*
X13423019Y-14810546D01*
X13423019Y-14810546D02*
X13413495Y-14820070D01*
X13413495Y-14820070D02*
X13394448Y-14829594D01*
X13394448Y-14829594D02*
X13356353Y-14829594D01*
X13356353Y-14829594D02*
X13337305Y-14820070D01*
X13546829Y-14829594D02*
X13527781Y-14820070D01*
X13527781Y-14820070D02*
X13518257Y-14801023D01*
X13518257Y-14801023D02*
X13518257Y-14629594D01*
X13708734Y-14829594D02*
X13708734Y-14724832D01*
X13708734Y-14724832D02*
X13699210Y-14705784D01*
X13699210Y-14705784D02*
X13680162Y-14696261D01*
X13680162Y-14696261D02*
X13642067Y-14696261D01*
X13642067Y-14696261D02*
X13623019Y-14705784D01*
X13708734Y-14820070D02*
X13689686Y-14829594D01*
X13689686Y-14829594D02*
X13642067Y-14829594D01*
X13642067Y-14829594D02*
X13623019Y-14820070D01*
X13623019Y-14820070D02*
X13613495Y-14801023D01*
X13613495Y-14801023D02*
X13613495Y-14781975D01*
X13613495Y-14781975D02*
X13623019Y-14762927D01*
X13623019Y-14762927D02*
X13642067Y-14753404D01*
X13642067Y-14753404D02*
X13689686Y-14753404D01*
X13689686Y-14753404D02*
X13708734Y-14743880D01*
X13775400Y-14696261D02*
X13851591Y-14696261D01*
X13803972Y-14629594D02*
X13803972Y-14801023D01*
X13803972Y-14801023D02*
X13813495Y-14820070D01*
X13813495Y-14820070D02*
X13832543Y-14829594D01*
X13832543Y-14829594D02*
X13851591Y-14829594D01*
X13994448Y-14820070D02*
X13975400Y-14829594D01*
X13975400Y-14829594D02*
X13937305Y-14829594D01*
X13937305Y-14829594D02*
X13918257Y-14820070D01*
X13918257Y-14820070D02*
X13908734Y-14801023D01*
X13908734Y-14801023D02*
X13908734Y-14724832D01*
X13908734Y-14724832D02*
X13918257Y-14705784D01*
X13918257Y-14705784D02*
X13937305Y-14696261D01*
X13937305Y-14696261D02*
X13975400Y-14696261D01*
X13975400Y-14696261D02*
X13994448Y-14705784D01*
X13994448Y-14705784D02*
X14003972Y-14724832D01*
X14003972Y-14724832D02*
X14003972Y-14743880D01*
X14003972Y-14743880D02*
X13908734Y-14762927D01*
X14175400Y-14829594D02*
X14175400Y-14629594D01*
X14175400Y-14820070D02*
X14156353Y-14829594D01*
X14156353Y-14829594D02*
X14118257Y-14829594D01*
X14118257Y-14829594D02*
X14099210Y-14820070D01*
X14099210Y-14820070D02*
X14089686Y-14810546D01*
X14089686Y-14810546D02*
X14080162Y-14791499D01*
X14080162Y-14791499D02*
X14080162Y-14734356D01*
X14080162Y-14734356D02*
X14089686Y-14715308D01*
X14089686Y-14715308D02*
X14099210Y-14705784D01*
X14099210Y-14705784D02*
X14118257Y-14696261D01*
X14118257Y-14696261D02*
X14156353Y-14696261D01*
X14156353Y-14696261D02*
X14175400Y-14705784D01*
X14251591Y-14905784D02*
X14261115Y-14896261D01*
X14261115Y-14896261D02*
X14280162Y-14867689D01*
X14280162Y-14867689D02*
X14289686Y-14848642D01*
X14289686Y-14848642D02*
X14299210Y-14820070D01*
X14299210Y-14820070D02*
X14308734Y-14772451D01*
X14308734Y-14772451D02*
X14308734Y-14734356D01*
X14308734Y-14734356D02*
X14299210Y-14686737D01*
X14299210Y-14686737D02*
X14289686Y-14658165D01*
X14289686Y-14658165D02*
X14280162Y-14639118D01*
X14280162Y-14639118D02*
X14261115Y-14610546D01*
X14261115Y-14610546D02*
X14251591Y-14601023D01*
D14*
X7470654Y-15078279D02*
X7470654Y-14957942D01*
X7350317Y-14957942D01*
X7350317Y-15078279D01*
X7470654Y-15078279D01*
D11*
X7861114Y-15109594D02*
X7746828Y-15109594D01*
X7803971Y-15109594D02*
X7803971Y-14909594D01*
X7803971Y-14909594D02*
X7784923Y-14938165D01*
X7784923Y-14938165D02*
X7765876Y-14957213D01*
X7765876Y-14957213D02*
X7746828Y-14966737D01*
X7946828Y-15090546D02*
X7956352Y-15100070D01*
X7956352Y-15100070D02*
X7946828Y-15109594D01*
X7946828Y-15109594D02*
X7937304Y-15100070D01*
X7937304Y-15100070D02*
X7946828Y-15090546D01*
X7946828Y-15090546D02*
X7946828Y-15109594D01*
X8023019Y-14909594D02*
X8156352Y-14909594D01*
X8156352Y-14909594D02*
X8070638Y-15109594D01*
X8270638Y-14909594D02*
X8289685Y-14909594D01*
X8289685Y-14909594D02*
X8308733Y-14919118D01*
X8308733Y-14919118D02*
X8318257Y-14928642D01*
X8318257Y-14928642D02*
X8327781Y-14947689D01*
X8327781Y-14947689D02*
X8337304Y-14985784D01*
X8337304Y-14985784D02*
X8337304Y-15033404D01*
X8337304Y-15033404D02*
X8327781Y-15071499D01*
X8327781Y-15071499D02*
X8318257Y-15090546D01*
X8318257Y-15090546D02*
X8308733Y-15100070D01*
X8308733Y-15100070D02*
X8289685Y-15109594D01*
X8289685Y-15109594D02*
X8270638Y-15109594D01*
X8270638Y-15109594D02*
X8251590Y-15100070D01*
X8251590Y-15100070D02*
X8242066Y-15090546D01*
X8242066Y-15090546D02*
X8232543Y-15071499D01*
X8232543Y-15071499D02*
X8223019Y-15033404D01*
X8223019Y-15033404D02*
X8223019Y-14985784D01*
X8223019Y-14985784D02*
X8232543Y-14947689D01*
X8232543Y-14947689D02*
X8242066Y-14928642D01*
X8242066Y-14928642D02*
X8251590Y-14919118D01*
X8251590Y-14919118D02*
X8270638Y-14909594D01*
X8413495Y-14928642D02*
X8423019Y-14919118D01*
X8423019Y-14919118D02*
X8442066Y-14909594D01*
X8442066Y-14909594D02*
X8489686Y-14909594D01*
X8489686Y-14909594D02*
X8508733Y-14919118D01*
X8508733Y-14919118D02*
X8518257Y-14928642D01*
X8518257Y-14928642D02*
X8527781Y-14947689D01*
X8527781Y-14947689D02*
X8527781Y-14966737D01*
X8527781Y-14966737D02*
X8518257Y-14995308D01*
X8518257Y-14995308D02*
X8403971Y-15109594D01*
X8403971Y-15109594D02*
X8527781Y-15109594D01*
X8613495Y-15109594D02*
X8613495Y-14976261D01*
X8613495Y-14995308D02*
X8623019Y-14985784D01*
X8623019Y-14985784D02*
X8642066Y-14976261D01*
X8642066Y-14976261D02*
X8670638Y-14976261D01*
X8670638Y-14976261D02*
X8689686Y-14985784D01*
X8689686Y-14985784D02*
X8699209Y-15004832D01*
X8699209Y-15004832D02*
X8699209Y-15109594D01*
X8699209Y-15004832D02*
X8708733Y-14985784D01*
X8708733Y-14985784D02*
X8727781Y-14976261D01*
X8727781Y-14976261D02*
X8756352Y-14976261D01*
X8756352Y-14976261D02*
X8775400Y-14985784D01*
X8775400Y-14985784D02*
X8784924Y-15004832D01*
X8784924Y-15004832D02*
X8784924Y-15109594D01*
X8880162Y-15109594D02*
X8880162Y-14976261D01*
X8880162Y-14995308D02*
X8889686Y-14985784D01*
X8889686Y-14985784D02*
X8908733Y-14976261D01*
X8908733Y-14976261D02*
X8937305Y-14976261D01*
X8937305Y-14976261D02*
X8956352Y-14985784D01*
X8956352Y-14985784D02*
X8965876Y-15004832D01*
X8965876Y-15004832D02*
X8965876Y-15109594D01*
X8965876Y-15004832D02*
X8975400Y-14985784D01*
X8975400Y-14985784D02*
X8994447Y-14976261D01*
X8994447Y-14976261D02*
X9023019Y-14976261D01*
X9023019Y-14976261D02*
X9042067Y-14985784D01*
X9042067Y-14985784D02*
X9051590Y-15004832D01*
X9051590Y-15004832D02*
X9051590Y-15109594D01*
X9442067Y-14900070D02*
X9270638Y-15157213D01*
X9699209Y-14909594D02*
X9718257Y-14909594D01*
X9718257Y-14909594D02*
X9737305Y-14919118D01*
X9737305Y-14919118D02*
X9746829Y-14928642D01*
X9746829Y-14928642D02*
X9756352Y-14947689D01*
X9756352Y-14947689D02*
X9765876Y-14985784D01*
X9765876Y-14985784D02*
X9765876Y-15033404D01*
X9765876Y-15033404D02*
X9756352Y-15071499D01*
X9756352Y-15071499D02*
X9746829Y-15090546D01*
X9746829Y-15090546D02*
X9737305Y-15100070D01*
X9737305Y-15100070D02*
X9718257Y-15109594D01*
X9718257Y-15109594D02*
X9699209Y-15109594D01*
X9699209Y-15109594D02*
X9680162Y-15100070D01*
X9680162Y-15100070D02*
X9670638Y-15090546D01*
X9670638Y-15090546D02*
X9661114Y-15071499D01*
X9661114Y-15071499D02*
X9651590Y-15033404D01*
X9651590Y-15033404D02*
X9651590Y-14985784D01*
X9651590Y-14985784D02*
X9661114Y-14947689D01*
X9661114Y-14947689D02*
X9670638Y-14928642D01*
X9670638Y-14928642D02*
X9680162Y-14919118D01*
X9680162Y-14919118D02*
X9699209Y-14909594D01*
X9851590Y-15090546D02*
X9861114Y-15100070D01*
X9861114Y-15100070D02*
X9851590Y-15109594D01*
X9851590Y-15109594D02*
X9842067Y-15100070D01*
X9842067Y-15100070D02*
X9851590Y-15090546D01*
X9851590Y-15090546D02*
X9851590Y-15109594D01*
X9984924Y-14909594D02*
X10003971Y-14909594D01*
X10003971Y-14909594D02*
X10023019Y-14919118D01*
X10023019Y-14919118D02*
X10032543Y-14928642D01*
X10032543Y-14928642D02*
X10042067Y-14947689D01*
X10042067Y-14947689D02*
X10051590Y-14985784D01*
X10051590Y-14985784D02*
X10051590Y-15033404D01*
X10051590Y-15033404D02*
X10042067Y-15071499D01*
X10042067Y-15071499D02*
X10032543Y-15090546D01*
X10032543Y-15090546D02*
X10023019Y-15100070D01*
X10023019Y-15100070D02*
X10003971Y-15109594D01*
X10003971Y-15109594D02*
X9984924Y-15109594D01*
X9984924Y-15109594D02*
X9965876Y-15100070D01*
X9965876Y-15100070D02*
X9956352Y-15090546D01*
X9956352Y-15090546D02*
X9946829Y-15071499D01*
X9946829Y-15071499D02*
X9937305Y-15033404D01*
X9937305Y-15033404D02*
X9937305Y-14985784D01*
X9937305Y-14985784D02*
X9946829Y-14947689D01*
X9946829Y-14947689D02*
X9956352Y-14928642D01*
X9956352Y-14928642D02*
X9965876Y-14919118D01*
X9965876Y-14919118D02*
X9984924Y-14909594D01*
X10223019Y-14909594D02*
X10184924Y-14909594D01*
X10184924Y-14909594D02*
X10165876Y-14919118D01*
X10165876Y-14919118D02*
X10156352Y-14928642D01*
X10156352Y-14928642D02*
X10137305Y-14957213D01*
X10137305Y-14957213D02*
X10127781Y-14995308D01*
X10127781Y-14995308D02*
X10127781Y-15071499D01*
X10127781Y-15071499D02*
X10137305Y-15090546D01*
X10137305Y-15090546D02*
X10146829Y-15100070D01*
X10146829Y-15100070D02*
X10165876Y-15109594D01*
X10165876Y-15109594D02*
X10203971Y-15109594D01*
X10203971Y-15109594D02*
X10223019Y-15100070D01*
X10223019Y-15100070D02*
X10232543Y-15090546D01*
X10232543Y-15090546D02*
X10242067Y-15071499D01*
X10242067Y-15071499D02*
X10242067Y-15023880D01*
X10242067Y-15023880D02*
X10232543Y-15004832D01*
X10232543Y-15004832D02*
X10223019Y-14995308D01*
X10223019Y-14995308D02*
X10203971Y-14985784D01*
X10203971Y-14985784D02*
X10165876Y-14985784D01*
X10165876Y-14985784D02*
X10146829Y-14995308D01*
X10146829Y-14995308D02*
X10137305Y-15004832D01*
X10137305Y-15004832D02*
X10127781Y-15023880D01*
X10308733Y-14909594D02*
X10442067Y-14909594D01*
X10442067Y-14909594D02*
X10356352Y-15109594D01*
X10556352Y-14909594D02*
X10575400Y-14909594D01*
X10575400Y-14909594D02*
X10594448Y-14919118D01*
X10594448Y-14919118D02*
X10603971Y-14928642D01*
X10603971Y-14928642D02*
X10613495Y-14947689D01*
X10613495Y-14947689D02*
X10623019Y-14985784D01*
X10623019Y-14985784D02*
X10623019Y-15033404D01*
X10623019Y-15033404D02*
X10613495Y-15071499D01*
X10613495Y-15071499D02*
X10603971Y-15090546D01*
X10603971Y-15090546D02*
X10594448Y-15100070D01*
X10594448Y-15100070D02*
X10575400Y-15109594D01*
X10575400Y-15109594D02*
X10556352Y-15109594D01*
X10556352Y-15109594D02*
X10537305Y-15100070D01*
X10537305Y-15100070D02*
X10527781Y-15090546D01*
X10527781Y-15090546D02*
X10518257Y-15071499D01*
X10518257Y-15071499D02*
X10508733Y-15033404D01*
X10508733Y-15033404D02*
X10508733Y-14985784D01*
X10508733Y-14985784D02*
X10518257Y-14947689D01*
X10518257Y-14947689D02*
X10527781Y-14928642D01*
X10527781Y-14928642D02*
X10537305Y-14919118D01*
X10537305Y-14919118D02*
X10556352Y-14909594D01*
X10699210Y-14909594D02*
X10699210Y-14947689D01*
X10775400Y-14909594D02*
X10775400Y-14947689D01*
X11070638Y-15185784D02*
X11061114Y-15176261D01*
X11061114Y-15176261D02*
X11042067Y-15147689D01*
X11042067Y-15147689D02*
X11032543Y-15128642D01*
X11032543Y-15128642D02*
X11023019Y-15100070D01*
X11023019Y-15100070D02*
X11013495Y-15052451D01*
X11013495Y-15052451D02*
X11013495Y-15014356D01*
X11013495Y-15014356D02*
X11023019Y-14966737D01*
X11023019Y-14966737D02*
X11032543Y-14938165D01*
X11032543Y-14938165D02*
X11042067Y-14919118D01*
X11042067Y-14919118D02*
X11061114Y-14890546D01*
X11061114Y-14890546D02*
X11070638Y-14881023D01*
X11127781Y-14909594D02*
X11251590Y-14909594D01*
X11251590Y-14909594D02*
X11184924Y-14985784D01*
X11184924Y-14985784D02*
X11213495Y-14985784D01*
X11213495Y-14985784D02*
X11232543Y-14995308D01*
X11232543Y-14995308D02*
X11242067Y-15004832D01*
X11242067Y-15004832D02*
X11251590Y-15023880D01*
X11251590Y-15023880D02*
X11251590Y-15071499D01*
X11251590Y-15071499D02*
X11242067Y-15090546D01*
X11242067Y-15090546D02*
X11232543Y-15100070D01*
X11232543Y-15100070D02*
X11213495Y-15109594D01*
X11213495Y-15109594D02*
X11156352Y-15109594D01*
X11156352Y-15109594D02*
X11137305Y-15100070D01*
X11137305Y-15100070D02*
X11127781Y-15090546D01*
X11423019Y-14909594D02*
X11384924Y-14909594D01*
X11384924Y-14909594D02*
X11365876Y-14919118D01*
X11365876Y-14919118D02*
X11356352Y-14928642D01*
X11356352Y-14928642D02*
X11337305Y-14957213D01*
X11337305Y-14957213D02*
X11327781Y-14995308D01*
X11327781Y-14995308D02*
X11327781Y-15071499D01*
X11327781Y-15071499D02*
X11337305Y-15090546D01*
X11337305Y-15090546D02*
X11346829Y-15100070D01*
X11346829Y-15100070D02*
X11365876Y-15109594D01*
X11365876Y-15109594D02*
X11403971Y-15109594D01*
X11403971Y-15109594D02*
X11423019Y-15100070D01*
X11423019Y-15100070D02*
X11432543Y-15090546D01*
X11432543Y-15090546D02*
X11442067Y-15071499D01*
X11442067Y-15071499D02*
X11442067Y-15023880D01*
X11442067Y-15023880D02*
X11432543Y-15004832D01*
X11432543Y-15004832D02*
X11423019Y-14995308D01*
X11423019Y-14995308D02*
X11403971Y-14985784D01*
X11403971Y-14985784D02*
X11365876Y-14985784D01*
X11365876Y-14985784D02*
X11346829Y-14995308D01*
X11346829Y-14995308D02*
X11337305Y-15004832D01*
X11337305Y-15004832D02*
X11327781Y-15023880D01*
X11680162Y-15109594D02*
X11680162Y-14909594D01*
X11765876Y-15109594D02*
X11765876Y-15004832D01*
X11765876Y-15004832D02*
X11756352Y-14985784D01*
X11756352Y-14985784D02*
X11737305Y-14976261D01*
X11737305Y-14976261D02*
X11708733Y-14976261D01*
X11708733Y-14976261D02*
X11689686Y-14985784D01*
X11689686Y-14985784D02*
X11680162Y-14995308D01*
X11889686Y-15109594D02*
X11870638Y-15100070D01*
X11870638Y-15100070D02*
X11861114Y-15090546D01*
X11861114Y-15090546D02*
X11851591Y-15071499D01*
X11851591Y-15071499D02*
X11851591Y-15014356D01*
X11851591Y-15014356D02*
X11861114Y-14995308D01*
X11861114Y-14995308D02*
X11870638Y-14985784D01*
X11870638Y-14985784D02*
X11889686Y-14976261D01*
X11889686Y-14976261D02*
X11918257Y-14976261D01*
X11918257Y-14976261D02*
X11937305Y-14985784D01*
X11937305Y-14985784D02*
X11946829Y-14995308D01*
X11946829Y-14995308D02*
X11956352Y-15014356D01*
X11956352Y-15014356D02*
X11956352Y-15071499D01*
X11956352Y-15071499D02*
X11946829Y-15090546D01*
X11946829Y-15090546D02*
X11937305Y-15100070D01*
X11937305Y-15100070D02*
X11918257Y-15109594D01*
X11918257Y-15109594D02*
X11889686Y-15109594D01*
X12070638Y-15109594D02*
X12051591Y-15100070D01*
X12051591Y-15100070D02*
X12042067Y-15081023D01*
X12042067Y-15081023D02*
X12042067Y-14909594D01*
X12223019Y-15100070D02*
X12203972Y-15109594D01*
X12203972Y-15109594D02*
X12165876Y-15109594D01*
X12165876Y-15109594D02*
X12146829Y-15100070D01*
X12146829Y-15100070D02*
X12137305Y-15081023D01*
X12137305Y-15081023D02*
X12137305Y-15004832D01*
X12137305Y-15004832D02*
X12146829Y-14985784D01*
X12146829Y-14985784D02*
X12165876Y-14976261D01*
X12165876Y-14976261D02*
X12203972Y-14976261D01*
X12203972Y-14976261D02*
X12223019Y-14985784D01*
X12223019Y-14985784D02*
X12232543Y-15004832D01*
X12232543Y-15004832D02*
X12232543Y-15023880D01*
X12232543Y-15023880D02*
X12137305Y-15042927D01*
X12308733Y-15100070D02*
X12327781Y-15109594D01*
X12327781Y-15109594D02*
X12365876Y-15109594D01*
X12365876Y-15109594D02*
X12384924Y-15100070D01*
X12384924Y-15100070D02*
X12394448Y-15081023D01*
X12394448Y-15081023D02*
X12394448Y-15071499D01*
X12394448Y-15071499D02*
X12384924Y-15052451D01*
X12384924Y-15052451D02*
X12365876Y-15042927D01*
X12365876Y-15042927D02*
X12337305Y-15042927D01*
X12337305Y-15042927D02*
X12318257Y-15033404D01*
X12318257Y-15033404D02*
X12308733Y-15014356D01*
X12308733Y-15014356D02*
X12308733Y-15004832D01*
X12308733Y-15004832D02*
X12318257Y-14985784D01*
X12318257Y-14985784D02*
X12337305Y-14976261D01*
X12337305Y-14976261D02*
X12365876Y-14976261D01*
X12365876Y-14976261D02*
X12384924Y-14985784D01*
X12461114Y-15185784D02*
X12470638Y-15176261D01*
X12470638Y-15176261D02*
X12489686Y-15147689D01*
X12489686Y-15147689D02*
X12499210Y-15128642D01*
X12499210Y-15128642D02*
X12508733Y-15100070D01*
X12508733Y-15100070D02*
X12518257Y-15052451D01*
X12518257Y-15052451D02*
X12518257Y-15014356D01*
X12518257Y-15014356D02*
X12508733Y-14966737D01*
X12508733Y-14966737D02*
X12499210Y-14938165D01*
X12499210Y-14938165D02*
X12489686Y-14919118D01*
X12489686Y-14919118D02*
X12470638Y-14890546D01*
X12470638Y-14890546D02*
X12461114Y-14881023D01*
X12823019Y-15185784D02*
X12813495Y-15176261D01*
X12813495Y-15176261D02*
X12794448Y-15147689D01*
X12794448Y-15147689D02*
X12784924Y-15128642D01*
X12784924Y-15128642D02*
X12775400Y-15100070D01*
X12775400Y-15100070D02*
X12765876Y-15052451D01*
X12765876Y-15052451D02*
X12765876Y-15014356D01*
X12765876Y-15014356D02*
X12775400Y-14966737D01*
X12775400Y-14966737D02*
X12784924Y-14938165D01*
X12784924Y-14938165D02*
X12794448Y-14919118D01*
X12794448Y-14919118D02*
X12813495Y-14890546D01*
X12813495Y-14890546D02*
X12823019Y-14881023D01*
X12899210Y-14976261D02*
X12899210Y-15109594D01*
X12899210Y-14995308D02*
X12908733Y-14985784D01*
X12908733Y-14985784D02*
X12927781Y-14976261D01*
X12927781Y-14976261D02*
X12956353Y-14976261D01*
X12956353Y-14976261D02*
X12975400Y-14985784D01*
X12975400Y-14985784D02*
X12984924Y-15004832D01*
X12984924Y-15004832D02*
X12984924Y-15109594D01*
X13108733Y-15109594D02*
X13089686Y-15100070D01*
X13089686Y-15100070D02*
X13080162Y-15090546D01*
X13080162Y-15090546D02*
X13070638Y-15071499D01*
X13070638Y-15071499D02*
X13070638Y-15014356D01*
X13070638Y-15014356D02*
X13080162Y-14995308D01*
X13080162Y-14995308D02*
X13089686Y-14985784D01*
X13089686Y-14985784D02*
X13108733Y-14976261D01*
X13108733Y-14976261D02*
X13137305Y-14976261D01*
X13137305Y-14976261D02*
X13156353Y-14985784D01*
X13156353Y-14985784D02*
X13165876Y-14995308D01*
X13165876Y-14995308D02*
X13175400Y-15014356D01*
X13175400Y-15014356D02*
X13175400Y-15071499D01*
X13175400Y-15071499D02*
X13165876Y-15090546D01*
X13165876Y-15090546D02*
X13156353Y-15100070D01*
X13156353Y-15100070D02*
X13137305Y-15109594D01*
X13137305Y-15109594D02*
X13108733Y-15109594D01*
X13232543Y-14976261D02*
X13308733Y-14976261D01*
X13261114Y-14909594D02*
X13261114Y-15081023D01*
X13261114Y-15081023D02*
X13270638Y-15100070D01*
X13270638Y-15100070D02*
X13289686Y-15109594D01*
X13289686Y-15109594D02*
X13308733Y-15109594D01*
X13527781Y-14976261D02*
X13527781Y-15176261D01*
X13527781Y-14985784D02*
X13546829Y-14976261D01*
X13546829Y-14976261D02*
X13584924Y-14976261D01*
X13584924Y-14976261D02*
X13603972Y-14985784D01*
X13603972Y-14985784D02*
X13613495Y-14995308D01*
X13613495Y-14995308D02*
X13623019Y-15014356D01*
X13623019Y-15014356D02*
X13623019Y-15071499D01*
X13623019Y-15071499D02*
X13613495Y-15090546D01*
X13613495Y-15090546D02*
X13603972Y-15100070D01*
X13603972Y-15100070D02*
X13584924Y-15109594D01*
X13584924Y-15109594D02*
X13546829Y-15109594D01*
X13546829Y-15109594D02*
X13527781Y-15100070D01*
X13737305Y-15109594D02*
X13718257Y-15100070D01*
X13718257Y-15100070D02*
X13708734Y-15081023D01*
X13708734Y-15081023D02*
X13708734Y-14909594D01*
X13899210Y-15109594D02*
X13899210Y-15004832D01*
X13899210Y-15004832D02*
X13889686Y-14985784D01*
X13889686Y-14985784D02*
X13870638Y-14976261D01*
X13870638Y-14976261D02*
X13832543Y-14976261D01*
X13832543Y-14976261D02*
X13813495Y-14985784D01*
X13899210Y-15100070D02*
X13880162Y-15109594D01*
X13880162Y-15109594D02*
X13832543Y-15109594D01*
X13832543Y-15109594D02*
X13813495Y-15100070D01*
X13813495Y-15100070D02*
X13803972Y-15081023D01*
X13803972Y-15081023D02*
X13803972Y-15061975D01*
X13803972Y-15061975D02*
X13813495Y-15042927D01*
X13813495Y-15042927D02*
X13832543Y-15033404D01*
X13832543Y-15033404D02*
X13880162Y-15033404D01*
X13880162Y-15033404D02*
X13899210Y-15023880D01*
X13965876Y-14976261D02*
X14042067Y-14976261D01*
X13994448Y-14909594D02*
X13994448Y-15081023D01*
X13994448Y-15081023D02*
X14003972Y-15100070D01*
X14003972Y-15100070D02*
X14023019Y-15109594D01*
X14023019Y-15109594D02*
X14042067Y-15109594D01*
X14184924Y-15100070D02*
X14165876Y-15109594D01*
X14165876Y-15109594D02*
X14127781Y-15109594D01*
X14127781Y-15109594D02*
X14108734Y-15100070D01*
X14108734Y-15100070D02*
X14099210Y-15081023D01*
X14099210Y-15081023D02*
X14099210Y-15004832D01*
X14099210Y-15004832D02*
X14108734Y-14985784D01*
X14108734Y-14985784D02*
X14127781Y-14976261D01*
X14127781Y-14976261D02*
X14165876Y-14976261D01*
X14165876Y-14976261D02*
X14184924Y-14985784D01*
X14184924Y-14985784D02*
X14194448Y-15004832D01*
X14194448Y-15004832D02*
X14194448Y-15023880D01*
X14194448Y-15023880D02*
X14099210Y-15042927D01*
X14365876Y-15109594D02*
X14365876Y-14909594D01*
X14365876Y-15100070D02*
X14346829Y-15109594D01*
X14346829Y-15109594D02*
X14308734Y-15109594D01*
X14308734Y-15109594D02*
X14289686Y-15100070D01*
X14289686Y-15100070D02*
X14280162Y-15090546D01*
X14280162Y-15090546D02*
X14270638Y-15071499D01*
X14270638Y-15071499D02*
X14270638Y-15014356D01*
X14270638Y-15014356D02*
X14280162Y-14995308D01*
X14280162Y-14995308D02*
X14289686Y-14985784D01*
X14289686Y-14985784D02*
X14308734Y-14976261D01*
X14308734Y-14976261D02*
X14346829Y-14976261D01*
X14346829Y-14976261D02*
X14365876Y-14985784D01*
X14442067Y-15185784D02*
X14451591Y-15176261D01*
X14451591Y-15176261D02*
X14470638Y-15147689D01*
X14470638Y-15147689D02*
X14480162Y-15128642D01*
X14480162Y-15128642D02*
X14489686Y-15100070D01*
X14489686Y-15100070D02*
X14499210Y-15052451D01*
X14499210Y-15052451D02*
X14499210Y-15014356D01*
X14499210Y-15014356D02*
X14489686Y-14966737D01*
X14489686Y-14966737D02*
X14480162Y-14938165D01*
X14480162Y-14938165D02*
X14470638Y-14919118D01*
X14470638Y-14919118D02*
X14451591Y-14890546D01*
X14451591Y-14890546D02*
X14442067Y-14881023D01*
X7395575Y-15408290D02*
X7495575Y-15308290D01*
X7395575Y-15208290D01*
X7295575Y-15308290D01*
X7395575Y-15408290D01*
X7737304Y-15199774D02*
X7861114Y-15199774D01*
X7861114Y-15199774D02*
X7794447Y-15275964D01*
X7794447Y-15275964D02*
X7823019Y-15275964D01*
X7823019Y-15275964D02*
X7842066Y-15285488D01*
X7842066Y-15285488D02*
X7851590Y-15295012D01*
X7851590Y-15295012D02*
X7861114Y-15314060D01*
X7861114Y-15314060D02*
X7861114Y-15361679D01*
X7861114Y-15361679D02*
X7851590Y-15380726D01*
X7851590Y-15380726D02*
X7842066Y-15390250D01*
X7842066Y-15390250D02*
X7823019Y-15399774D01*
X7823019Y-15399774D02*
X7765876Y-15399774D01*
X7765876Y-15399774D02*
X7746828Y-15390250D01*
X7746828Y-15390250D02*
X7737304Y-15380726D01*
X7946828Y-15380726D02*
X7956352Y-15390250D01*
X7956352Y-15390250D02*
X7946828Y-15399774D01*
X7946828Y-15399774D02*
X7937304Y-15390250D01*
X7937304Y-15390250D02*
X7946828Y-15380726D01*
X7946828Y-15380726D02*
X7946828Y-15399774D01*
X8080162Y-15199774D02*
X8099209Y-15199774D01*
X8099209Y-15199774D02*
X8118257Y-15209298D01*
X8118257Y-15209298D02*
X8127781Y-15218822D01*
X8127781Y-15218822D02*
X8137304Y-15237869D01*
X8137304Y-15237869D02*
X8146828Y-15275964D01*
X8146828Y-15275964D02*
X8146828Y-15323584D01*
X8146828Y-15323584D02*
X8137304Y-15361679D01*
X8137304Y-15361679D02*
X8127781Y-15380726D01*
X8127781Y-15380726D02*
X8118257Y-15390250D01*
X8118257Y-15390250D02*
X8099209Y-15399774D01*
X8099209Y-15399774D02*
X8080162Y-15399774D01*
X8080162Y-15399774D02*
X8061114Y-15390250D01*
X8061114Y-15390250D02*
X8051590Y-15380726D01*
X8051590Y-15380726D02*
X8042066Y-15361679D01*
X8042066Y-15361679D02*
X8032543Y-15323584D01*
X8032543Y-15323584D02*
X8032543Y-15275964D01*
X8032543Y-15275964D02*
X8042066Y-15237869D01*
X8042066Y-15237869D02*
X8051590Y-15218822D01*
X8051590Y-15218822D02*
X8061114Y-15209298D01*
X8061114Y-15209298D02*
X8080162Y-15199774D01*
X8270638Y-15199774D02*
X8289685Y-15199774D01*
X8289685Y-15199774D02*
X8308733Y-15209298D01*
X8308733Y-15209298D02*
X8318257Y-15218822D01*
X8318257Y-15218822D02*
X8327781Y-15237869D01*
X8327781Y-15237869D02*
X8337304Y-15275964D01*
X8337304Y-15275964D02*
X8337304Y-15323584D01*
X8337304Y-15323584D02*
X8327781Y-15361679D01*
X8327781Y-15361679D02*
X8318257Y-15380726D01*
X8318257Y-15380726D02*
X8308733Y-15390250D01*
X8308733Y-15390250D02*
X8289685Y-15399774D01*
X8289685Y-15399774D02*
X8270638Y-15399774D01*
X8270638Y-15399774D02*
X8251590Y-15390250D01*
X8251590Y-15390250D02*
X8242066Y-15380726D01*
X8242066Y-15380726D02*
X8232543Y-15361679D01*
X8232543Y-15361679D02*
X8223019Y-15323584D01*
X8223019Y-15323584D02*
X8223019Y-15275964D01*
X8223019Y-15275964D02*
X8232543Y-15237869D01*
X8232543Y-15237869D02*
X8242066Y-15218822D01*
X8242066Y-15218822D02*
X8251590Y-15209298D01*
X8251590Y-15209298D02*
X8270638Y-15199774D01*
X8461114Y-15199774D02*
X8480162Y-15199774D01*
X8480162Y-15199774D02*
X8499209Y-15209298D01*
X8499209Y-15209298D02*
X8508733Y-15218822D01*
X8508733Y-15218822D02*
X8518257Y-15237869D01*
X8518257Y-15237869D02*
X8527781Y-15275964D01*
X8527781Y-15275964D02*
X8527781Y-15323584D01*
X8527781Y-15323584D02*
X8518257Y-15361679D01*
X8518257Y-15361679D02*
X8508733Y-15380726D01*
X8508733Y-15380726D02*
X8499209Y-15390250D01*
X8499209Y-15390250D02*
X8480162Y-15399774D01*
X8480162Y-15399774D02*
X8461114Y-15399774D01*
X8461114Y-15399774D02*
X8442066Y-15390250D01*
X8442066Y-15390250D02*
X8432543Y-15380726D01*
X8432543Y-15380726D02*
X8423019Y-15361679D01*
X8423019Y-15361679D02*
X8413495Y-15323584D01*
X8413495Y-15323584D02*
X8413495Y-15275964D01*
X8413495Y-15275964D02*
X8423019Y-15237869D01*
X8423019Y-15237869D02*
X8432543Y-15218822D01*
X8432543Y-15218822D02*
X8442066Y-15209298D01*
X8442066Y-15209298D02*
X8461114Y-15199774D01*
X8613495Y-15399774D02*
X8613495Y-15266441D01*
X8613495Y-15285488D02*
X8623019Y-15275964D01*
X8623019Y-15275964D02*
X8642066Y-15266441D01*
X8642066Y-15266441D02*
X8670638Y-15266441D01*
X8670638Y-15266441D02*
X8689686Y-15275964D01*
X8689686Y-15275964D02*
X8699209Y-15295012D01*
X8699209Y-15295012D02*
X8699209Y-15399774D01*
X8699209Y-15295012D02*
X8708733Y-15275964D01*
X8708733Y-15275964D02*
X8727781Y-15266441D01*
X8727781Y-15266441D02*
X8756352Y-15266441D01*
X8756352Y-15266441D02*
X8775400Y-15275964D01*
X8775400Y-15275964D02*
X8784924Y-15295012D01*
X8784924Y-15295012D02*
X8784924Y-15399774D01*
X8880162Y-15399774D02*
X8880162Y-15266441D01*
X8880162Y-15285488D02*
X8889686Y-15275964D01*
X8889686Y-15275964D02*
X8908733Y-15266441D01*
X8908733Y-15266441D02*
X8937305Y-15266441D01*
X8937305Y-15266441D02*
X8956352Y-15275964D01*
X8956352Y-15275964D02*
X8965876Y-15295012D01*
X8965876Y-15295012D02*
X8965876Y-15399774D01*
X8965876Y-15295012D02*
X8975400Y-15275964D01*
X8975400Y-15275964D02*
X8994447Y-15266441D01*
X8994447Y-15266441D02*
X9023019Y-15266441D01*
X9023019Y-15266441D02*
X9042067Y-15275964D01*
X9042067Y-15275964D02*
X9051590Y-15295012D01*
X9051590Y-15295012D02*
X9051590Y-15399774D01*
X9442067Y-15190250D02*
X9270638Y-15447393D01*
X9699209Y-15199774D02*
X9718257Y-15199774D01*
X9718257Y-15199774D02*
X9737305Y-15209298D01*
X9737305Y-15209298D02*
X9746829Y-15218822D01*
X9746829Y-15218822D02*
X9756352Y-15237869D01*
X9756352Y-15237869D02*
X9765876Y-15275964D01*
X9765876Y-15275964D02*
X9765876Y-15323584D01*
X9765876Y-15323584D02*
X9756352Y-15361679D01*
X9756352Y-15361679D02*
X9746829Y-15380726D01*
X9746829Y-15380726D02*
X9737305Y-15390250D01*
X9737305Y-15390250D02*
X9718257Y-15399774D01*
X9718257Y-15399774D02*
X9699209Y-15399774D01*
X9699209Y-15399774D02*
X9680162Y-15390250D01*
X9680162Y-15390250D02*
X9670638Y-15380726D01*
X9670638Y-15380726D02*
X9661114Y-15361679D01*
X9661114Y-15361679D02*
X9651590Y-15323584D01*
X9651590Y-15323584D02*
X9651590Y-15275964D01*
X9651590Y-15275964D02*
X9661114Y-15237869D01*
X9661114Y-15237869D02*
X9670638Y-15218822D01*
X9670638Y-15218822D02*
X9680162Y-15209298D01*
X9680162Y-15209298D02*
X9699209Y-15199774D01*
X9851590Y-15380726D02*
X9861114Y-15390250D01*
X9861114Y-15390250D02*
X9851590Y-15399774D01*
X9851590Y-15399774D02*
X9842067Y-15390250D01*
X9842067Y-15390250D02*
X9851590Y-15380726D01*
X9851590Y-15380726D02*
X9851590Y-15399774D01*
X10051590Y-15399774D02*
X9937305Y-15399774D01*
X9994448Y-15399774D02*
X9994448Y-15199774D01*
X9994448Y-15199774D02*
X9975400Y-15228345D01*
X9975400Y-15228345D02*
X9956352Y-15247393D01*
X9956352Y-15247393D02*
X9937305Y-15256917D01*
X10242067Y-15399774D02*
X10127781Y-15399774D01*
X10184924Y-15399774D02*
X10184924Y-15199774D01*
X10184924Y-15199774D02*
X10165876Y-15228345D01*
X10165876Y-15228345D02*
X10146829Y-15247393D01*
X10146829Y-15247393D02*
X10127781Y-15256917D01*
X10356352Y-15285488D02*
X10337305Y-15275964D01*
X10337305Y-15275964D02*
X10327781Y-15266441D01*
X10327781Y-15266441D02*
X10318257Y-15247393D01*
X10318257Y-15247393D02*
X10318257Y-15237869D01*
X10318257Y-15237869D02*
X10327781Y-15218822D01*
X10327781Y-15218822D02*
X10337305Y-15209298D01*
X10337305Y-15209298D02*
X10356352Y-15199774D01*
X10356352Y-15199774D02*
X10394448Y-15199774D01*
X10394448Y-15199774D02*
X10413495Y-15209298D01*
X10413495Y-15209298D02*
X10423019Y-15218822D01*
X10423019Y-15218822D02*
X10432543Y-15237869D01*
X10432543Y-15237869D02*
X10432543Y-15247393D01*
X10432543Y-15247393D02*
X10423019Y-15266441D01*
X10423019Y-15266441D02*
X10413495Y-15275964D01*
X10413495Y-15275964D02*
X10394448Y-15285488D01*
X10394448Y-15285488D02*
X10356352Y-15285488D01*
X10356352Y-15285488D02*
X10337305Y-15295012D01*
X10337305Y-15295012D02*
X10327781Y-15304536D01*
X10327781Y-15304536D02*
X10318257Y-15323584D01*
X10318257Y-15323584D02*
X10318257Y-15361679D01*
X10318257Y-15361679D02*
X10327781Y-15380726D01*
X10327781Y-15380726D02*
X10337305Y-15390250D01*
X10337305Y-15390250D02*
X10356352Y-15399774D01*
X10356352Y-15399774D02*
X10394448Y-15399774D01*
X10394448Y-15399774D02*
X10413495Y-15390250D01*
X10413495Y-15390250D02*
X10423019Y-15380726D01*
X10423019Y-15380726D02*
X10432543Y-15361679D01*
X10432543Y-15361679D02*
X10432543Y-15323584D01*
X10432543Y-15323584D02*
X10423019Y-15304536D01*
X10423019Y-15304536D02*
X10413495Y-15295012D01*
X10413495Y-15295012D02*
X10394448Y-15285488D01*
X10623019Y-15399774D02*
X10508733Y-15399774D01*
X10565876Y-15399774D02*
X10565876Y-15199774D01*
X10565876Y-15199774D02*
X10546829Y-15228345D01*
X10546829Y-15228345D02*
X10527781Y-15247393D01*
X10527781Y-15247393D02*
X10508733Y-15256917D01*
X10699210Y-15199774D02*
X10699210Y-15237869D01*
X10775400Y-15199774D02*
X10775400Y-15237869D01*
X11070638Y-15475964D02*
X11061114Y-15466441D01*
X11061114Y-15466441D02*
X11042067Y-15437869D01*
X11042067Y-15437869D02*
X11032543Y-15418822D01*
X11032543Y-15418822D02*
X11023019Y-15390250D01*
X11023019Y-15390250D02*
X11013495Y-15342631D01*
X11013495Y-15342631D02*
X11013495Y-15304536D01*
X11013495Y-15304536D02*
X11023019Y-15256917D01*
X11023019Y-15256917D02*
X11032543Y-15228345D01*
X11032543Y-15228345D02*
X11042067Y-15209298D01*
X11042067Y-15209298D02*
X11061114Y-15180726D01*
X11061114Y-15180726D02*
X11070638Y-15171203D01*
X11242067Y-15199774D02*
X11146829Y-15199774D01*
X11146829Y-15199774D02*
X11137305Y-15295012D01*
X11137305Y-15295012D02*
X11146829Y-15285488D01*
X11146829Y-15285488D02*
X11165876Y-15275964D01*
X11165876Y-15275964D02*
X11213495Y-15275964D01*
X11213495Y-15275964D02*
X11232543Y-15285488D01*
X11232543Y-15285488D02*
X11242067Y-15295012D01*
X11242067Y-15295012D02*
X11251590Y-15314060D01*
X11251590Y-15314060D02*
X11251590Y-15361679D01*
X11251590Y-15361679D02*
X11242067Y-15380726D01*
X11242067Y-15380726D02*
X11232543Y-15390250D01*
X11232543Y-15390250D02*
X11213495Y-15399774D01*
X11213495Y-15399774D02*
X11165876Y-15399774D01*
X11165876Y-15399774D02*
X11146829Y-15390250D01*
X11146829Y-15390250D02*
X11137305Y-15380726D01*
X11423019Y-15266441D02*
X11423019Y-15399774D01*
X11375400Y-15190250D02*
X11327781Y-15333107D01*
X11327781Y-15333107D02*
X11451590Y-15333107D01*
X11680162Y-15399774D02*
X11680162Y-15199774D01*
X11765876Y-15399774D02*
X11765876Y-15295012D01*
X11765876Y-15295012D02*
X11756352Y-15275964D01*
X11756352Y-15275964D02*
X11737305Y-15266441D01*
X11737305Y-15266441D02*
X11708733Y-15266441D01*
X11708733Y-15266441D02*
X11689686Y-15275964D01*
X11689686Y-15275964D02*
X11680162Y-15285488D01*
X11889686Y-15399774D02*
X11870638Y-15390250D01*
X11870638Y-15390250D02*
X11861114Y-15380726D01*
X11861114Y-15380726D02*
X11851591Y-15361679D01*
X11851591Y-15361679D02*
X11851591Y-15304536D01*
X11851591Y-15304536D02*
X11861114Y-15285488D01*
X11861114Y-15285488D02*
X11870638Y-15275964D01*
X11870638Y-15275964D02*
X11889686Y-15266441D01*
X11889686Y-15266441D02*
X11918257Y-15266441D01*
X11918257Y-15266441D02*
X11937305Y-15275964D01*
X11937305Y-15275964D02*
X11946829Y-15285488D01*
X11946829Y-15285488D02*
X11956352Y-15304536D01*
X11956352Y-15304536D02*
X11956352Y-15361679D01*
X11956352Y-15361679D02*
X11946829Y-15380726D01*
X11946829Y-15380726D02*
X11937305Y-15390250D01*
X11937305Y-15390250D02*
X11918257Y-15399774D01*
X11918257Y-15399774D02*
X11889686Y-15399774D01*
X12070638Y-15399774D02*
X12051591Y-15390250D01*
X12051591Y-15390250D02*
X12042067Y-15371203D01*
X12042067Y-15371203D02*
X12042067Y-15199774D01*
X12223019Y-15390250D02*
X12203972Y-15399774D01*
X12203972Y-15399774D02*
X12165876Y-15399774D01*
X12165876Y-15399774D02*
X12146829Y-15390250D01*
X12146829Y-15390250D02*
X12137305Y-15371203D01*
X12137305Y-15371203D02*
X12137305Y-15295012D01*
X12137305Y-15295012D02*
X12146829Y-15275964D01*
X12146829Y-15275964D02*
X12165876Y-15266441D01*
X12165876Y-15266441D02*
X12203972Y-15266441D01*
X12203972Y-15266441D02*
X12223019Y-15275964D01*
X12223019Y-15275964D02*
X12232543Y-15295012D01*
X12232543Y-15295012D02*
X12232543Y-15314060D01*
X12232543Y-15314060D02*
X12137305Y-15333107D01*
X12308733Y-15390250D02*
X12327781Y-15399774D01*
X12327781Y-15399774D02*
X12365876Y-15399774D01*
X12365876Y-15399774D02*
X12384924Y-15390250D01*
X12384924Y-15390250D02*
X12394448Y-15371203D01*
X12394448Y-15371203D02*
X12394448Y-15361679D01*
X12394448Y-15361679D02*
X12384924Y-15342631D01*
X12384924Y-15342631D02*
X12365876Y-15333107D01*
X12365876Y-15333107D02*
X12337305Y-15333107D01*
X12337305Y-15333107D02*
X12318257Y-15323584D01*
X12318257Y-15323584D02*
X12308733Y-15304536D01*
X12308733Y-15304536D02*
X12308733Y-15295012D01*
X12308733Y-15295012D02*
X12318257Y-15275964D01*
X12318257Y-15275964D02*
X12337305Y-15266441D01*
X12337305Y-15266441D02*
X12365876Y-15266441D01*
X12365876Y-15266441D02*
X12384924Y-15275964D01*
X12461114Y-15475964D02*
X12470638Y-15466441D01*
X12470638Y-15466441D02*
X12489686Y-15437869D01*
X12489686Y-15437869D02*
X12499210Y-15418822D01*
X12499210Y-15418822D02*
X12508733Y-15390250D01*
X12508733Y-15390250D02*
X12518257Y-15342631D01*
X12518257Y-15342631D02*
X12518257Y-15304536D01*
X12518257Y-15304536D02*
X12508733Y-15256917D01*
X12508733Y-15256917D02*
X12499210Y-15228345D01*
X12499210Y-15228345D02*
X12489686Y-15209298D01*
X12489686Y-15209298D02*
X12470638Y-15180726D01*
X12470638Y-15180726D02*
X12461114Y-15171203D01*
X12823019Y-15475964D02*
X12813495Y-15466441D01*
X12813495Y-15466441D02*
X12794448Y-15437869D01*
X12794448Y-15437869D02*
X12784924Y-15418822D01*
X12784924Y-15418822D02*
X12775400Y-15390250D01*
X12775400Y-15390250D02*
X12765876Y-15342631D01*
X12765876Y-15342631D02*
X12765876Y-15304536D01*
X12765876Y-15304536D02*
X12775400Y-15256917D01*
X12775400Y-15256917D02*
X12784924Y-15228345D01*
X12784924Y-15228345D02*
X12794448Y-15209298D01*
X12794448Y-15209298D02*
X12813495Y-15180726D01*
X12813495Y-15180726D02*
X12823019Y-15171203D01*
X12899210Y-15266441D02*
X12899210Y-15399774D01*
X12899210Y-15285488D02*
X12908733Y-15275964D01*
X12908733Y-15275964D02*
X12927781Y-15266441D01*
X12927781Y-15266441D02*
X12956353Y-15266441D01*
X12956353Y-15266441D02*
X12975400Y-15275964D01*
X12975400Y-15275964D02*
X12984924Y-15295012D01*
X12984924Y-15295012D02*
X12984924Y-15399774D01*
X13108733Y-15399774D02*
X13089686Y-15390250D01*
X13089686Y-15390250D02*
X13080162Y-15380726D01*
X13080162Y-15380726D02*
X13070638Y-15361679D01*
X13070638Y-15361679D02*
X13070638Y-15304536D01*
X13070638Y-15304536D02*
X13080162Y-15285488D01*
X13080162Y-15285488D02*
X13089686Y-15275964D01*
X13089686Y-15275964D02*
X13108733Y-15266441D01*
X13108733Y-15266441D02*
X13137305Y-15266441D01*
X13137305Y-15266441D02*
X13156353Y-15275964D01*
X13156353Y-15275964D02*
X13165876Y-15285488D01*
X13165876Y-15285488D02*
X13175400Y-15304536D01*
X13175400Y-15304536D02*
X13175400Y-15361679D01*
X13175400Y-15361679D02*
X13165876Y-15380726D01*
X13165876Y-15380726D02*
X13156353Y-15390250D01*
X13156353Y-15390250D02*
X13137305Y-15399774D01*
X13137305Y-15399774D02*
X13108733Y-15399774D01*
X13232543Y-15266441D02*
X13308733Y-15266441D01*
X13261114Y-15199774D02*
X13261114Y-15371203D01*
X13261114Y-15371203D02*
X13270638Y-15390250D01*
X13270638Y-15390250D02*
X13289686Y-15399774D01*
X13289686Y-15399774D02*
X13308733Y-15399774D01*
X13527781Y-15266441D02*
X13527781Y-15466441D01*
X13527781Y-15275964D02*
X13546829Y-15266441D01*
X13546829Y-15266441D02*
X13584924Y-15266441D01*
X13584924Y-15266441D02*
X13603972Y-15275964D01*
X13603972Y-15275964D02*
X13613495Y-15285488D01*
X13613495Y-15285488D02*
X13623019Y-15304536D01*
X13623019Y-15304536D02*
X13623019Y-15361679D01*
X13623019Y-15361679D02*
X13613495Y-15380726D01*
X13613495Y-15380726D02*
X13603972Y-15390250D01*
X13603972Y-15390250D02*
X13584924Y-15399774D01*
X13584924Y-15399774D02*
X13546829Y-15399774D01*
X13546829Y-15399774D02*
X13527781Y-15390250D01*
X13737305Y-15399774D02*
X13718257Y-15390250D01*
X13718257Y-15390250D02*
X13708734Y-15371203D01*
X13708734Y-15371203D02*
X13708734Y-15199774D01*
X13899210Y-15399774D02*
X13899210Y-15295012D01*
X13899210Y-15295012D02*
X13889686Y-15275964D01*
X13889686Y-15275964D02*
X13870638Y-15266441D01*
X13870638Y-15266441D02*
X13832543Y-15266441D01*
X13832543Y-15266441D02*
X13813495Y-15275964D01*
X13899210Y-15390250D02*
X13880162Y-15399774D01*
X13880162Y-15399774D02*
X13832543Y-15399774D01*
X13832543Y-15399774D02*
X13813495Y-15390250D01*
X13813495Y-15390250D02*
X13803972Y-15371203D01*
X13803972Y-15371203D02*
X13803972Y-15352155D01*
X13803972Y-15352155D02*
X13813495Y-15333107D01*
X13813495Y-15333107D02*
X13832543Y-15323584D01*
X13832543Y-15323584D02*
X13880162Y-15323584D01*
X13880162Y-15323584D02*
X13899210Y-15314060D01*
X13965876Y-15266441D02*
X14042067Y-15266441D01*
X13994448Y-15199774D02*
X13994448Y-15371203D01*
X13994448Y-15371203D02*
X14003972Y-15390250D01*
X14003972Y-15390250D02*
X14023019Y-15399774D01*
X14023019Y-15399774D02*
X14042067Y-15399774D01*
X14184924Y-15390250D02*
X14165876Y-15399774D01*
X14165876Y-15399774D02*
X14127781Y-15399774D01*
X14127781Y-15399774D02*
X14108734Y-15390250D01*
X14108734Y-15390250D02*
X14099210Y-15371203D01*
X14099210Y-15371203D02*
X14099210Y-15295012D01*
X14099210Y-15295012D02*
X14108734Y-15275964D01*
X14108734Y-15275964D02*
X14127781Y-15266441D01*
X14127781Y-15266441D02*
X14165876Y-15266441D01*
X14165876Y-15266441D02*
X14184924Y-15275964D01*
X14184924Y-15275964D02*
X14194448Y-15295012D01*
X14194448Y-15295012D02*
X14194448Y-15314060D01*
X14194448Y-15314060D02*
X14099210Y-15333107D01*
X14365876Y-15399774D02*
X14365876Y-15199774D01*
X14365876Y-15390250D02*
X14346829Y-15399774D01*
X14346829Y-15399774D02*
X14308734Y-15399774D01*
X14308734Y-15399774D02*
X14289686Y-15390250D01*
X14289686Y-15390250D02*
X14280162Y-15380726D01*
X14280162Y-15380726D02*
X14270638Y-15361679D01*
X14270638Y-15361679D02*
X14270638Y-15304536D01*
X14270638Y-15304536D02*
X14280162Y-15285488D01*
X14280162Y-15285488D02*
X14289686Y-15275964D01*
X14289686Y-15275964D02*
X14308734Y-15266441D01*
X14308734Y-15266441D02*
X14346829Y-15266441D01*
X14346829Y-15266441D02*
X14365876Y-15275964D01*
X14442067Y-15475964D02*
X14451591Y-15466441D01*
X14451591Y-15466441D02*
X14470638Y-15437869D01*
X14470638Y-15437869D02*
X14480162Y-15418822D01*
X14480162Y-15418822D02*
X14489686Y-15390250D01*
X14489686Y-15390250D02*
X14499210Y-15342631D01*
X14499210Y-15342631D02*
X14499210Y-15304536D01*
X14499210Y-15304536D02*
X14489686Y-15256917D01*
X14489686Y-15256917D02*
X14480162Y-15228345D01*
X14480162Y-15228345D02*
X14470638Y-15209298D01*
X14470638Y-15209298D02*
X14451591Y-15180726D01*
X14451591Y-15180726D02*
X14442067Y-15171203D01*
X7295575Y-15528290D02*
X7495575Y-15728290D01*
X7495575Y-15528290D02*
X7295575Y-15728290D01*
X7495575Y-15628290D02*
G75*
G02*
X7295575Y-15628290I-100000J0D01*
G01*
X7295575Y-15628290D02*
G75*
G02*
X7495575Y-15628290I100000J0D01*
G01*
X7737304Y-15519774D02*
X7861114Y-15519774D01*
X7861114Y-15519774D02*
X7794447Y-15595964D01*
X7794447Y-15595964D02*
X7823019Y-15595964D01*
X7823019Y-15595964D02*
X7842066Y-15605488D01*
X7842066Y-15605488D02*
X7851590Y-15615012D01*
X7851590Y-15615012D02*
X7861114Y-15634060D01*
X7861114Y-15634060D02*
X7861114Y-15681679D01*
X7861114Y-15681679D02*
X7851590Y-15700726D01*
X7851590Y-15700726D02*
X7842066Y-15710250D01*
X7842066Y-15710250D02*
X7823019Y-15719774D01*
X7823019Y-15719774D02*
X7765876Y-15719774D01*
X7765876Y-15719774D02*
X7746828Y-15710250D01*
X7746828Y-15710250D02*
X7737304Y-15700726D01*
X7946828Y-15700726D02*
X7956352Y-15710250D01*
X7956352Y-15710250D02*
X7946828Y-15719774D01*
X7946828Y-15719774D02*
X7937304Y-15710250D01*
X7937304Y-15710250D02*
X7946828Y-15700726D01*
X7946828Y-15700726D02*
X7946828Y-15719774D01*
X8127781Y-15586441D02*
X8127781Y-15719774D01*
X8080162Y-15510250D02*
X8032543Y-15653107D01*
X8032543Y-15653107D02*
X8156352Y-15653107D01*
X8223019Y-15538822D02*
X8232543Y-15529298D01*
X8232543Y-15529298D02*
X8251590Y-15519774D01*
X8251590Y-15519774D02*
X8299209Y-15519774D01*
X8299209Y-15519774D02*
X8318257Y-15529298D01*
X8318257Y-15529298D02*
X8327781Y-15538822D01*
X8327781Y-15538822D02*
X8337304Y-15557869D01*
X8337304Y-15557869D02*
X8337304Y-15576917D01*
X8337304Y-15576917D02*
X8327781Y-15605488D01*
X8327781Y-15605488D02*
X8213495Y-15719774D01*
X8213495Y-15719774D02*
X8337304Y-15719774D01*
X8432543Y-15719774D02*
X8470638Y-15719774D01*
X8470638Y-15719774D02*
X8489686Y-15710250D01*
X8489686Y-15710250D02*
X8499209Y-15700726D01*
X8499209Y-15700726D02*
X8518257Y-15672155D01*
X8518257Y-15672155D02*
X8527781Y-15634060D01*
X8527781Y-15634060D02*
X8527781Y-15557869D01*
X8527781Y-15557869D02*
X8518257Y-15538822D01*
X8518257Y-15538822D02*
X8508733Y-15529298D01*
X8508733Y-15529298D02*
X8489686Y-15519774D01*
X8489686Y-15519774D02*
X8451590Y-15519774D01*
X8451590Y-15519774D02*
X8432543Y-15529298D01*
X8432543Y-15529298D02*
X8423019Y-15538822D01*
X8423019Y-15538822D02*
X8413495Y-15557869D01*
X8413495Y-15557869D02*
X8413495Y-15605488D01*
X8413495Y-15605488D02*
X8423019Y-15624536D01*
X8423019Y-15624536D02*
X8432543Y-15634060D01*
X8432543Y-15634060D02*
X8451590Y-15643584D01*
X8451590Y-15643584D02*
X8489686Y-15643584D01*
X8489686Y-15643584D02*
X8508733Y-15634060D01*
X8508733Y-15634060D02*
X8518257Y-15624536D01*
X8518257Y-15624536D02*
X8527781Y-15605488D01*
X8613495Y-15719774D02*
X8613495Y-15586441D01*
X8613495Y-15605488D02*
X8623019Y-15595964D01*
X8623019Y-15595964D02*
X8642066Y-15586441D01*
X8642066Y-15586441D02*
X8670638Y-15586441D01*
X8670638Y-15586441D02*
X8689686Y-15595964D01*
X8689686Y-15595964D02*
X8699209Y-15615012D01*
X8699209Y-15615012D02*
X8699209Y-15719774D01*
X8699209Y-15615012D02*
X8708733Y-15595964D01*
X8708733Y-15595964D02*
X8727781Y-15586441D01*
X8727781Y-15586441D02*
X8756352Y-15586441D01*
X8756352Y-15586441D02*
X8775400Y-15595964D01*
X8775400Y-15595964D02*
X8784924Y-15615012D01*
X8784924Y-15615012D02*
X8784924Y-15719774D01*
X8880162Y-15719774D02*
X8880162Y-15586441D01*
X8880162Y-15605488D02*
X8889686Y-15595964D01*
X8889686Y-15595964D02*
X8908733Y-15586441D01*
X8908733Y-15586441D02*
X8937305Y-15586441D01*
X8937305Y-15586441D02*
X8956352Y-15595964D01*
X8956352Y-15595964D02*
X8965876Y-15615012D01*
X8965876Y-15615012D02*
X8965876Y-15719774D01*
X8965876Y-15615012D02*
X8975400Y-15595964D01*
X8975400Y-15595964D02*
X8994447Y-15586441D01*
X8994447Y-15586441D02*
X9023019Y-15586441D01*
X9023019Y-15586441D02*
X9042067Y-15595964D01*
X9042067Y-15595964D02*
X9051590Y-15615012D01*
X9051590Y-15615012D02*
X9051590Y-15719774D01*
X9442067Y-15510250D02*
X9270638Y-15767393D01*
X9699209Y-15519774D02*
X9718257Y-15519774D01*
X9718257Y-15519774D02*
X9737305Y-15529298D01*
X9737305Y-15529298D02*
X9746829Y-15538822D01*
X9746829Y-15538822D02*
X9756352Y-15557869D01*
X9756352Y-15557869D02*
X9765876Y-15595964D01*
X9765876Y-15595964D02*
X9765876Y-15643584D01*
X9765876Y-15643584D02*
X9756352Y-15681679D01*
X9756352Y-15681679D02*
X9746829Y-15700726D01*
X9746829Y-15700726D02*
X9737305Y-15710250D01*
X9737305Y-15710250D02*
X9718257Y-15719774D01*
X9718257Y-15719774D02*
X9699209Y-15719774D01*
X9699209Y-15719774D02*
X9680162Y-15710250D01*
X9680162Y-15710250D02*
X9670638Y-15700726D01*
X9670638Y-15700726D02*
X9661114Y-15681679D01*
X9661114Y-15681679D02*
X9651590Y-15643584D01*
X9651590Y-15643584D02*
X9651590Y-15595964D01*
X9651590Y-15595964D02*
X9661114Y-15557869D01*
X9661114Y-15557869D02*
X9670638Y-15538822D01*
X9670638Y-15538822D02*
X9680162Y-15529298D01*
X9680162Y-15529298D02*
X9699209Y-15519774D01*
X9851590Y-15700726D02*
X9861114Y-15710250D01*
X9861114Y-15710250D02*
X9851590Y-15719774D01*
X9851590Y-15719774D02*
X9842067Y-15710250D01*
X9842067Y-15710250D02*
X9851590Y-15700726D01*
X9851590Y-15700726D02*
X9851590Y-15719774D01*
X10051590Y-15719774D02*
X9937305Y-15719774D01*
X9994448Y-15719774D02*
X9994448Y-15519774D01*
X9994448Y-15519774D02*
X9975400Y-15548345D01*
X9975400Y-15548345D02*
X9956352Y-15567393D01*
X9956352Y-15567393D02*
X9937305Y-15576917D01*
X10118257Y-15519774D02*
X10242067Y-15519774D01*
X10242067Y-15519774D02*
X10175400Y-15595964D01*
X10175400Y-15595964D02*
X10203971Y-15595964D01*
X10203971Y-15595964D02*
X10223019Y-15605488D01*
X10223019Y-15605488D02*
X10232543Y-15615012D01*
X10232543Y-15615012D02*
X10242067Y-15634060D01*
X10242067Y-15634060D02*
X10242067Y-15681679D01*
X10242067Y-15681679D02*
X10232543Y-15700726D01*
X10232543Y-15700726D02*
X10223019Y-15710250D01*
X10223019Y-15710250D02*
X10203971Y-15719774D01*
X10203971Y-15719774D02*
X10146829Y-15719774D01*
X10146829Y-15719774D02*
X10127781Y-15710250D01*
X10127781Y-15710250D02*
X10118257Y-15700726D01*
X10423019Y-15519774D02*
X10327781Y-15519774D01*
X10327781Y-15519774D02*
X10318257Y-15615012D01*
X10318257Y-15615012D02*
X10327781Y-15605488D01*
X10327781Y-15605488D02*
X10346829Y-15595964D01*
X10346829Y-15595964D02*
X10394448Y-15595964D01*
X10394448Y-15595964D02*
X10413495Y-15605488D01*
X10413495Y-15605488D02*
X10423019Y-15615012D01*
X10423019Y-15615012D02*
X10432543Y-15634060D01*
X10432543Y-15634060D02*
X10432543Y-15681679D01*
X10432543Y-15681679D02*
X10423019Y-15700726D01*
X10423019Y-15700726D02*
X10413495Y-15710250D01*
X10413495Y-15710250D02*
X10394448Y-15719774D01*
X10394448Y-15719774D02*
X10346829Y-15719774D01*
X10346829Y-15719774D02*
X10327781Y-15710250D01*
X10327781Y-15710250D02*
X10318257Y-15700726D01*
X10556352Y-15519774D02*
X10575400Y-15519774D01*
X10575400Y-15519774D02*
X10594448Y-15529298D01*
X10594448Y-15529298D02*
X10603971Y-15538822D01*
X10603971Y-15538822D02*
X10613495Y-15557869D01*
X10613495Y-15557869D02*
X10623019Y-15595964D01*
X10623019Y-15595964D02*
X10623019Y-15643584D01*
X10623019Y-15643584D02*
X10613495Y-15681679D01*
X10613495Y-15681679D02*
X10603971Y-15700726D01*
X10603971Y-15700726D02*
X10594448Y-15710250D01*
X10594448Y-15710250D02*
X10575400Y-15719774D01*
X10575400Y-15719774D02*
X10556352Y-15719774D01*
X10556352Y-15719774D02*
X10537305Y-15710250D01*
X10537305Y-15710250D02*
X10527781Y-15700726D01*
X10527781Y-15700726D02*
X10518257Y-15681679D01*
X10518257Y-15681679D02*
X10508733Y-15643584D01*
X10508733Y-15643584D02*
X10508733Y-15595964D01*
X10508733Y-15595964D02*
X10518257Y-15557869D01*
X10518257Y-15557869D02*
X10527781Y-15538822D01*
X10527781Y-15538822D02*
X10537305Y-15529298D01*
X10537305Y-15529298D02*
X10556352Y-15519774D01*
X10699210Y-15519774D02*
X10699210Y-15557869D01*
X10775400Y-15519774D02*
X10775400Y-15557869D01*
X11070638Y-15795964D02*
X11061114Y-15786441D01*
X11061114Y-15786441D02*
X11042067Y-15757869D01*
X11042067Y-15757869D02*
X11032543Y-15738822D01*
X11032543Y-15738822D02*
X11023019Y-15710250D01*
X11023019Y-15710250D02*
X11013495Y-15662631D01*
X11013495Y-15662631D02*
X11013495Y-15624536D01*
X11013495Y-15624536D02*
X11023019Y-15576917D01*
X11023019Y-15576917D02*
X11032543Y-15548345D01*
X11032543Y-15548345D02*
X11042067Y-15529298D01*
X11042067Y-15529298D02*
X11061114Y-15500726D01*
X11061114Y-15500726D02*
X11070638Y-15491203D01*
X11251590Y-15719774D02*
X11137305Y-15719774D01*
X11194448Y-15719774D02*
X11194448Y-15519774D01*
X11194448Y-15519774D02*
X11175400Y-15548345D01*
X11175400Y-15548345D02*
X11156352Y-15567393D01*
X11156352Y-15567393D02*
X11137305Y-15576917D01*
X11365876Y-15605488D02*
X11346829Y-15595964D01*
X11346829Y-15595964D02*
X11337305Y-15586441D01*
X11337305Y-15586441D02*
X11327781Y-15567393D01*
X11327781Y-15567393D02*
X11327781Y-15557869D01*
X11327781Y-15557869D02*
X11337305Y-15538822D01*
X11337305Y-15538822D02*
X11346829Y-15529298D01*
X11346829Y-15529298D02*
X11365876Y-15519774D01*
X11365876Y-15519774D02*
X11403971Y-15519774D01*
X11403971Y-15519774D02*
X11423019Y-15529298D01*
X11423019Y-15529298D02*
X11432543Y-15538822D01*
X11432543Y-15538822D02*
X11442067Y-15557869D01*
X11442067Y-15557869D02*
X11442067Y-15567393D01*
X11442067Y-15567393D02*
X11432543Y-15586441D01*
X11432543Y-15586441D02*
X11423019Y-15595964D01*
X11423019Y-15595964D02*
X11403971Y-15605488D01*
X11403971Y-15605488D02*
X11365876Y-15605488D01*
X11365876Y-15605488D02*
X11346829Y-15615012D01*
X11346829Y-15615012D02*
X11337305Y-15624536D01*
X11337305Y-15624536D02*
X11327781Y-15643584D01*
X11327781Y-15643584D02*
X11327781Y-15681679D01*
X11327781Y-15681679D02*
X11337305Y-15700726D01*
X11337305Y-15700726D02*
X11346829Y-15710250D01*
X11346829Y-15710250D02*
X11365876Y-15719774D01*
X11365876Y-15719774D02*
X11403971Y-15719774D01*
X11403971Y-15719774D02*
X11423019Y-15710250D01*
X11423019Y-15710250D02*
X11432543Y-15700726D01*
X11432543Y-15700726D02*
X11442067Y-15681679D01*
X11442067Y-15681679D02*
X11442067Y-15643584D01*
X11442067Y-15643584D02*
X11432543Y-15624536D01*
X11432543Y-15624536D02*
X11423019Y-15615012D01*
X11423019Y-15615012D02*
X11403971Y-15605488D01*
X11680162Y-15719774D02*
X11680162Y-15519774D01*
X11765876Y-15719774D02*
X11765876Y-15615012D01*
X11765876Y-15615012D02*
X11756352Y-15595964D01*
X11756352Y-15595964D02*
X11737305Y-15586441D01*
X11737305Y-15586441D02*
X11708733Y-15586441D01*
X11708733Y-15586441D02*
X11689686Y-15595964D01*
X11689686Y-15595964D02*
X11680162Y-15605488D01*
X11889686Y-15719774D02*
X11870638Y-15710250D01*
X11870638Y-15710250D02*
X11861114Y-15700726D01*
X11861114Y-15700726D02*
X11851591Y-15681679D01*
X11851591Y-15681679D02*
X11851591Y-15624536D01*
X11851591Y-15624536D02*
X11861114Y-15605488D01*
X11861114Y-15605488D02*
X11870638Y-15595964D01*
X11870638Y-15595964D02*
X11889686Y-15586441D01*
X11889686Y-15586441D02*
X11918257Y-15586441D01*
X11918257Y-15586441D02*
X11937305Y-15595964D01*
X11937305Y-15595964D02*
X11946829Y-15605488D01*
X11946829Y-15605488D02*
X11956352Y-15624536D01*
X11956352Y-15624536D02*
X11956352Y-15681679D01*
X11956352Y-15681679D02*
X11946829Y-15700726D01*
X11946829Y-15700726D02*
X11937305Y-15710250D01*
X11937305Y-15710250D02*
X11918257Y-15719774D01*
X11918257Y-15719774D02*
X11889686Y-15719774D01*
X12070638Y-15719774D02*
X12051591Y-15710250D01*
X12051591Y-15710250D02*
X12042067Y-15691203D01*
X12042067Y-15691203D02*
X12042067Y-15519774D01*
X12223019Y-15710250D02*
X12203972Y-15719774D01*
X12203972Y-15719774D02*
X12165876Y-15719774D01*
X12165876Y-15719774D02*
X12146829Y-15710250D01*
X12146829Y-15710250D02*
X12137305Y-15691203D01*
X12137305Y-15691203D02*
X12137305Y-15615012D01*
X12137305Y-15615012D02*
X12146829Y-15595964D01*
X12146829Y-15595964D02*
X12165876Y-15586441D01*
X12165876Y-15586441D02*
X12203972Y-15586441D01*
X12203972Y-15586441D02*
X12223019Y-15595964D01*
X12223019Y-15595964D02*
X12232543Y-15615012D01*
X12232543Y-15615012D02*
X12232543Y-15634060D01*
X12232543Y-15634060D02*
X12137305Y-15653107D01*
X12308733Y-15710250D02*
X12327781Y-15719774D01*
X12327781Y-15719774D02*
X12365876Y-15719774D01*
X12365876Y-15719774D02*
X12384924Y-15710250D01*
X12384924Y-15710250D02*
X12394448Y-15691203D01*
X12394448Y-15691203D02*
X12394448Y-15681679D01*
X12394448Y-15681679D02*
X12384924Y-15662631D01*
X12384924Y-15662631D02*
X12365876Y-15653107D01*
X12365876Y-15653107D02*
X12337305Y-15653107D01*
X12337305Y-15653107D02*
X12318257Y-15643584D01*
X12318257Y-15643584D02*
X12308733Y-15624536D01*
X12308733Y-15624536D02*
X12308733Y-15615012D01*
X12308733Y-15615012D02*
X12318257Y-15595964D01*
X12318257Y-15595964D02*
X12337305Y-15586441D01*
X12337305Y-15586441D02*
X12365876Y-15586441D01*
X12365876Y-15586441D02*
X12384924Y-15595964D01*
X12461114Y-15795964D02*
X12470638Y-15786441D01*
X12470638Y-15786441D02*
X12489686Y-15757869D01*
X12489686Y-15757869D02*
X12499210Y-15738822D01*
X12499210Y-15738822D02*
X12508733Y-15710250D01*
X12508733Y-15710250D02*
X12518257Y-15662631D01*
X12518257Y-15662631D02*
X12518257Y-15624536D01*
X12518257Y-15624536D02*
X12508733Y-15576917D01*
X12508733Y-15576917D02*
X12499210Y-15548345D01*
X12499210Y-15548345D02*
X12489686Y-15529298D01*
X12489686Y-15529298D02*
X12470638Y-15500726D01*
X12470638Y-15500726D02*
X12461114Y-15491203D01*
X12823019Y-15795964D02*
X12813495Y-15786441D01*
X12813495Y-15786441D02*
X12794448Y-15757869D01*
X12794448Y-15757869D02*
X12784924Y-15738822D01*
X12784924Y-15738822D02*
X12775400Y-15710250D01*
X12775400Y-15710250D02*
X12765876Y-15662631D01*
X12765876Y-15662631D02*
X12765876Y-15624536D01*
X12765876Y-15624536D02*
X12775400Y-15576917D01*
X12775400Y-15576917D02*
X12784924Y-15548345D01*
X12784924Y-15548345D02*
X12794448Y-15529298D01*
X12794448Y-15529298D02*
X12813495Y-15500726D01*
X12813495Y-15500726D02*
X12823019Y-15491203D01*
X12899210Y-15586441D02*
X12899210Y-15719774D01*
X12899210Y-15605488D02*
X12908733Y-15595964D01*
X12908733Y-15595964D02*
X12927781Y-15586441D01*
X12927781Y-15586441D02*
X12956353Y-15586441D01*
X12956353Y-15586441D02*
X12975400Y-15595964D01*
X12975400Y-15595964D02*
X12984924Y-15615012D01*
X12984924Y-15615012D02*
X12984924Y-15719774D01*
X13108733Y-15719774D02*
X13089686Y-15710250D01*
X13089686Y-15710250D02*
X13080162Y-15700726D01*
X13080162Y-15700726D02*
X13070638Y-15681679D01*
X13070638Y-15681679D02*
X13070638Y-15624536D01*
X13070638Y-15624536D02*
X13080162Y-15605488D01*
X13080162Y-15605488D02*
X13089686Y-15595964D01*
X13089686Y-15595964D02*
X13108733Y-15586441D01*
X13108733Y-15586441D02*
X13137305Y-15586441D01*
X13137305Y-15586441D02*
X13156353Y-15595964D01*
X13156353Y-15595964D02*
X13165876Y-15605488D01*
X13165876Y-15605488D02*
X13175400Y-15624536D01*
X13175400Y-15624536D02*
X13175400Y-15681679D01*
X13175400Y-15681679D02*
X13165876Y-15700726D01*
X13165876Y-15700726D02*
X13156353Y-15710250D01*
X13156353Y-15710250D02*
X13137305Y-15719774D01*
X13137305Y-15719774D02*
X13108733Y-15719774D01*
X13232543Y-15586441D02*
X13308733Y-15586441D01*
X13261114Y-15519774D02*
X13261114Y-15691203D01*
X13261114Y-15691203D02*
X13270638Y-15710250D01*
X13270638Y-15710250D02*
X13289686Y-15719774D01*
X13289686Y-15719774D02*
X13308733Y-15719774D01*
X13527781Y-15586441D02*
X13527781Y-15786441D01*
X13527781Y-15595964D02*
X13546829Y-15586441D01*
X13546829Y-15586441D02*
X13584924Y-15586441D01*
X13584924Y-15586441D02*
X13603972Y-15595964D01*
X13603972Y-15595964D02*
X13613495Y-15605488D01*
X13613495Y-15605488D02*
X13623019Y-15624536D01*
X13623019Y-15624536D02*
X13623019Y-15681679D01*
X13623019Y-15681679D02*
X13613495Y-15700726D01*
X13613495Y-15700726D02*
X13603972Y-15710250D01*
X13603972Y-15710250D02*
X13584924Y-15719774D01*
X13584924Y-15719774D02*
X13546829Y-15719774D01*
X13546829Y-15719774D02*
X13527781Y-15710250D01*
X13737305Y-15719774D02*
X13718257Y-15710250D01*
X13718257Y-15710250D02*
X13708734Y-15691203D01*
X13708734Y-15691203D02*
X13708734Y-15519774D01*
X13899210Y-15719774D02*
X13899210Y-15615012D01*
X13899210Y-15615012D02*
X13889686Y-15595964D01*
X13889686Y-15595964D02*
X13870638Y-15586441D01*
X13870638Y-15586441D02*
X13832543Y-15586441D01*
X13832543Y-15586441D02*
X13813495Y-15595964D01*
X13899210Y-15710250D02*
X13880162Y-15719774D01*
X13880162Y-15719774D02*
X13832543Y-15719774D01*
X13832543Y-15719774D02*
X13813495Y-15710250D01*
X13813495Y-15710250D02*
X13803972Y-15691203D01*
X13803972Y-15691203D02*
X13803972Y-15672155D01*
X13803972Y-15672155D02*
X13813495Y-15653107D01*
X13813495Y-15653107D02*
X13832543Y-15643584D01*
X13832543Y-15643584D02*
X13880162Y-15643584D01*
X13880162Y-15643584D02*
X13899210Y-15634060D01*
X13965876Y-15586441D02*
X14042067Y-15586441D01*
X13994448Y-15519774D02*
X13994448Y-15691203D01*
X13994448Y-15691203D02*
X14003972Y-15710250D01*
X14003972Y-15710250D02*
X14023019Y-15719774D01*
X14023019Y-15719774D02*
X14042067Y-15719774D01*
X14184924Y-15710250D02*
X14165876Y-15719774D01*
X14165876Y-15719774D02*
X14127781Y-15719774D01*
X14127781Y-15719774D02*
X14108734Y-15710250D01*
X14108734Y-15710250D02*
X14099210Y-15691203D01*
X14099210Y-15691203D02*
X14099210Y-15615012D01*
X14099210Y-15615012D02*
X14108734Y-15595964D01*
X14108734Y-15595964D02*
X14127781Y-15586441D01*
X14127781Y-15586441D02*
X14165876Y-15586441D01*
X14165876Y-15586441D02*
X14184924Y-15595964D01*
X14184924Y-15595964D02*
X14194448Y-15615012D01*
X14194448Y-15615012D02*
X14194448Y-15634060D01*
X14194448Y-15634060D02*
X14099210Y-15653107D01*
X14365876Y-15719774D02*
X14365876Y-15519774D01*
X14365876Y-15710250D02*
X14346829Y-15719774D01*
X14346829Y-15719774D02*
X14308734Y-15719774D01*
X14308734Y-15719774D02*
X14289686Y-15710250D01*
X14289686Y-15710250D02*
X14280162Y-15700726D01*
X14280162Y-15700726D02*
X14270638Y-15681679D01*
X14270638Y-15681679D02*
X14270638Y-15624536D01*
X14270638Y-15624536D02*
X14280162Y-15605488D01*
X14280162Y-15605488D02*
X14289686Y-15595964D01*
X14289686Y-15595964D02*
X14308734Y-15586441D01*
X14308734Y-15586441D02*
X14346829Y-15586441D01*
X14346829Y-15586441D02*
X14365876Y-15595964D01*
X14442067Y-15795964D02*
X14451591Y-15786441D01*
X14451591Y-15786441D02*
X14470638Y-15757869D01*
X14470638Y-15757869D02*
X14480162Y-15738822D01*
X14480162Y-15738822D02*
X14489686Y-15710250D01*
X14489686Y-15710250D02*
X14499210Y-15662631D01*
X14499210Y-15662631D02*
X14499210Y-15624536D01*
X14499210Y-15624536D02*
X14489686Y-15576917D01*
X14489686Y-15576917D02*
X14480162Y-15548345D01*
X14480162Y-15548345D02*
X14470638Y-15529298D01*
X14470638Y-15529298D02*
X14451591Y-15500726D01*
X14451591Y-15500726D02*
X14442067Y-15491203D01*
M02*
