%TF.GenerationSoftware,KiCad,Pcbnew,8.0.4*%
%TF.CreationDate,2024-09-03T01:13:55+07:00*%
%TF.ProjectId,chocowi36-rounded,63686f63-6f77-4693-9336-2d726f756e64,rev?*%
%TF.SameCoordinates,Original*%
%TF.FileFunction,Soldermask,Bot*%
%TF.FilePolarity,Negative*%
%FSLAX46Y46*%
G04 Gerber Fmt 4.6, Leading zero omitted, Abs format (unit mm)*
G04 Created by KiCad (PCBNEW 8.0.4) date 2024-09-03 01:13:55*
%MOMM*%
%LPD*%
G01*
G04 APERTURE LIST*
G04 Aperture macros list*
%AMRoundRect*
0 Rectangle with rounded corners*
0 $1 Rounding radius*
0 $2 $3 $4 $5 $6 $7 $8 $9 X,Y pos of 4 corners*
0 Add a 4 corners polygon primitive as box body*
4,1,4,$2,$3,$4,$5,$6,$7,$8,$9,$2,$3,0*
0 Add four circle primitives for the rounded corners*
1,1,$1+$1,$2,$3*
1,1,$1+$1,$4,$5*
1,1,$1+$1,$6,$7*
1,1,$1+$1,$8,$9*
0 Add four rect primitives between the rounded corners*
20,1,$1+$1,$2,$3,$4,$5,0*
20,1,$1+$1,$4,$5,$6,$7,0*
20,1,$1+$1,$6,$7,$8,$9,0*
20,1,$1+$1,$8,$9,$2,$3,0*%
%AMRotRect*
0 Rectangle, with rotation*
0 The origin of the aperture is its center*
0 $1 length*
0 $2 width*
0 $3 Rotation angle, in degrees counterclockwise*
0 Add horizontal line*
21,1,$1,$2,0,0,$3*%
G04 Aperture macros list end*
%ADD10C,0.900000*%
%ADD11C,1.701800*%
%ADD12C,3.000000*%
%ADD13C,3.429000*%
%ADD14R,2.600000X1.800000*%
%ADD15C,2.032000*%
%ADD16R,2.600000X2.600000*%
%ADD17RotRect,2.600000X1.800000X345.000000*%
%ADD18RotRect,2.600000X2.600000X345.000000*%
%ADD19RotRect,2.600000X1.800000X330.000000*%
%ADD20RotRect,2.600000X2.600000X330.000000*%
%ADD21C,2.200000*%
%ADD22C,1.800000*%
%ADD23RoundRect,0.450000X-0.450000X-0.450000X0.450000X-0.450000X0.450000X0.450000X-0.450000X0.450000X0*%
%ADD24C,0.800000*%
%ADD25O,1.700000X1.700000*%
%ADD26R,1.700000X1.700000*%
G04 APERTURE END LIST*
D10*
%TO.C,SW_RST1*%
X186650000Y-101600000D03*
X186650000Y-99400000D03*
%TD*%
D11*
%TO.C,SW2*%
X80410000Y-65580000D03*
D12*
X80910000Y-61830000D03*
X85910000Y-59630000D03*
D13*
X85910000Y-65580000D03*
D12*
X90910000Y-61830000D03*
D11*
X91410000Y-65580000D03*
D14*
X82635000Y-59230000D03*
D15*
X85910000Y-71480000D03*
X80910000Y-69380000D03*
X90910000Y-69380000D03*
D16*
X94185000Y-61830000D03*
%TD*%
D11*
%TO.C,SW3*%
X98410000Y-59020000D03*
D12*
X98910000Y-55270000D03*
X103910000Y-53070000D03*
D13*
X103910000Y-59020000D03*
D12*
X108910000Y-55270000D03*
D11*
X109410000Y-59020000D03*
D14*
X100635000Y-52670000D03*
D15*
X103910000Y-64920000D03*
X98910000Y-62820000D03*
X108910000Y-62820000D03*
D16*
X112185000Y-55270000D03*
%TD*%
D11*
%TO.C,SW4*%
X116410000Y-56660000D03*
D12*
X116910000Y-52910000D03*
X121910000Y-50710000D03*
D13*
X121910000Y-56660000D03*
D12*
X126910000Y-52910000D03*
D11*
X127410000Y-56660000D03*
D14*
X118635000Y-50310000D03*
D15*
X121910000Y-62560000D03*
X116910000Y-60460000D03*
X126910000Y-60460000D03*
D16*
X130185000Y-52910000D03*
%TD*%
D11*
%TO.C,SW5*%
X134454000Y-59020000D03*
D12*
X134954000Y-55270000D03*
X139954000Y-53070000D03*
D13*
X139954000Y-59020000D03*
D12*
X144954000Y-55270000D03*
D11*
X145454000Y-59020000D03*
D14*
X136679000Y-52670000D03*
D15*
X139954000Y-64920000D03*
X134954000Y-62820000D03*
X144954000Y-62820000D03*
D16*
X148229000Y-55270000D03*
%TD*%
D11*
%TO.C,SW6*%
X152488000Y-61400000D03*
D12*
X152988000Y-57650000D03*
X157988000Y-55450000D03*
D13*
X157988000Y-61400000D03*
D12*
X162988000Y-57650000D03*
D11*
X163488000Y-61400000D03*
D14*
X154713000Y-55050000D03*
D15*
X157988000Y-67300000D03*
X152988000Y-65200000D03*
X162988000Y-65200000D03*
D16*
X166263000Y-57650000D03*
%TD*%
D11*
%TO.C,SW8*%
X80352000Y-82550000D03*
D12*
X80852000Y-78800000D03*
X85852000Y-76600000D03*
D13*
X85852000Y-82550000D03*
D12*
X90852000Y-78800000D03*
D11*
X91352000Y-82550000D03*
D14*
X82577000Y-76200000D03*
D15*
X85852000Y-88450000D03*
X80852000Y-86350000D03*
X90852000Y-86350000D03*
D16*
X94127000Y-78800000D03*
%TD*%
D11*
%TO.C,SW9*%
X98370000Y-76010000D03*
D12*
X98870000Y-72260000D03*
X103870000Y-70060000D03*
D13*
X103870000Y-76010000D03*
D12*
X108870000Y-72260000D03*
D11*
X109370000Y-76010000D03*
D14*
X100595000Y-69660000D03*
D15*
X103870000Y-81910000D03*
X98870000Y-79810000D03*
X108870000Y-79810000D03*
D16*
X112145000Y-72260000D03*
%TD*%
D11*
%TO.C,SW10*%
X116410000Y-73640000D03*
D12*
X116910000Y-69890000D03*
X121910000Y-67690000D03*
D13*
X121910000Y-73640000D03*
D12*
X126910000Y-69890000D03*
D11*
X127410000Y-73640000D03*
D14*
X118635000Y-67290000D03*
D15*
X121910000Y-79540000D03*
X116910000Y-77440000D03*
X126910000Y-77440000D03*
D16*
X130185000Y-69890000D03*
%TD*%
D11*
%TO.C,SW11*%
X134454000Y-76032000D03*
D12*
X134954000Y-72282000D03*
X139954000Y-70082000D03*
D13*
X139954000Y-76032000D03*
D12*
X144954000Y-72282000D03*
D11*
X145454000Y-76032000D03*
D14*
X136679000Y-69682000D03*
D15*
X139954000Y-81932000D03*
X134954000Y-79832000D03*
X144954000Y-79832000D03*
D16*
X148229000Y-72282000D03*
%TD*%
D11*
%TO.C,SW12*%
X152440000Y-78440000D03*
D12*
X152940000Y-74690000D03*
X157940000Y-72490000D03*
D13*
X157940000Y-78440000D03*
D12*
X162940000Y-74690000D03*
D11*
X163440000Y-78440000D03*
D14*
X154665000Y-72090000D03*
D15*
X157940000Y-84340000D03*
X152940000Y-82240000D03*
X162940000Y-82240000D03*
D16*
X166215000Y-74690000D03*
%TD*%
D11*
%TO.C,SW14*%
X80352000Y-99568000D03*
D12*
X80852000Y-95818000D03*
X85852000Y-93618000D03*
D13*
X85852000Y-99568000D03*
D12*
X90852000Y-95818000D03*
D11*
X91352000Y-99568000D03*
D14*
X82577000Y-93218000D03*
D15*
X85852000Y-105468000D03*
X80852000Y-103368000D03*
X90852000Y-103368000D03*
D16*
X94127000Y-95818000D03*
%TD*%
D11*
%TO.C,SW15*%
X98370000Y-93028000D03*
D12*
X98870000Y-89278000D03*
X103870000Y-87078000D03*
D13*
X103870000Y-93028000D03*
D12*
X108870000Y-89278000D03*
D11*
X109370000Y-93028000D03*
D14*
X100595000Y-86678000D03*
D15*
X103870000Y-98928000D03*
X98870000Y-96828000D03*
X108870000Y-96828000D03*
D16*
X112145000Y-89278000D03*
%TD*%
D11*
%TO.C,SW16*%
X116410000Y-90658000D03*
D12*
X116910000Y-86908000D03*
X121910000Y-84708000D03*
D13*
X121910000Y-90658000D03*
D12*
X126910000Y-86908000D03*
D11*
X127410000Y-90658000D03*
D14*
X118635000Y-84308000D03*
D15*
X121910000Y-96558000D03*
X116910000Y-94458000D03*
X126910000Y-94458000D03*
D16*
X130185000Y-86908000D03*
%TD*%
D11*
%TO.C,SW17*%
X134454000Y-93050000D03*
D12*
X134954000Y-89300000D03*
X139954000Y-87100000D03*
D13*
X139954000Y-93050000D03*
D12*
X144954000Y-89300000D03*
D11*
X145454000Y-93050000D03*
D14*
X136679000Y-86700000D03*
D15*
X139954000Y-98950000D03*
X134954000Y-96850000D03*
X144954000Y-96850000D03*
D16*
X148229000Y-89300000D03*
%TD*%
D11*
%TO.C,SW18*%
X152440000Y-95458000D03*
D12*
X152940001Y-91708000D03*
X157940000Y-89508000D03*
D13*
X157940000Y-95458000D03*
D12*
X162939999Y-91708000D03*
D11*
X163440000Y-95458000D03*
D14*
X154665000Y-89108000D03*
D15*
X157940000Y-101358000D03*
X152940000Y-99258000D03*
X162940000Y-99258000D03*
D16*
X166215000Y-91708000D03*
%TD*%
D11*
%TO.C,SW20*%
X146832676Y-112172375D03*
D12*
X148286210Y-108679563D03*
X153685241Y-107848621D03*
D13*
X152145268Y-113595880D03*
D12*
X157945469Y-111267753D03*
D11*
X157457860Y-115019385D03*
D17*
X150625362Y-106614619D03*
D15*
X150618236Y-119294842D03*
X146332126Y-115972303D03*
X155991385Y-118560493D03*
D18*
X161108876Y-112115386D03*
%TD*%
D11*
%TO.C,SW21*%
X165206860Y-119760451D03*
D12*
X167514873Y-116762857D03*
X172945000Y-117357600D03*
D13*
X169970000Y-122510451D03*
D12*
X176175127Y-121762856D03*
D11*
X174733140Y-125260451D03*
D19*
X170308767Y-115373689D03*
D15*
X167020000Y-127620000D03*
X163739873Y-123301349D03*
X172400127Y-128301348D03*
D20*
X179011360Y-123400356D03*
%TD*%
D21*
%TO.C,H4*%
X178560000Y-111330000D03*
%TD*%
D22*
%TO.C,U2*%
X186790000Y-64210000D03*
X186790000Y-66750000D03*
D23*
X186790000Y-69290000D03*
X186790000Y-71830000D03*
D22*
X186790000Y-74370000D03*
X186790000Y-76910000D03*
X186790000Y-79450000D03*
X186790000Y-81990000D03*
X186790000Y-84530000D03*
X186790000Y-87070000D03*
X186790000Y-89610000D03*
X186790000Y-92150000D03*
X171550000Y-92150000D03*
X171550000Y-89610000D03*
X171550000Y-87070000D03*
X171550000Y-84530000D03*
X171550000Y-81990000D03*
X171550000Y-79450000D03*
X171550000Y-76910000D03*
X171550000Y-74370000D03*
X171550000Y-71830000D03*
X171550000Y-69290000D03*
D23*
X171550000Y-66750000D03*
D22*
X171570000Y-64180000D03*
%TD*%
D21*
%TO.C,*%
X103910000Y-105000000D03*
%TD*%
%TO.C,H1*%
X90500000Y-55020000D03*
%TD*%
D11*
%TO.C,SW19*%
X126700000Y-111400000D03*
D12*
X127200001Y-107650000D03*
X132200000Y-105450000D03*
D13*
X132200000Y-111400000D03*
D12*
X137199999Y-107650000D03*
D11*
X137700000Y-111400000D03*
D14*
X128925000Y-105050000D03*
D15*
X132200000Y-117300000D03*
X127200000Y-115200000D03*
X137200000Y-115200000D03*
D16*
X140475000Y-107650000D03*
%TD*%
D24*
%TO.C,SW_POWER1*%
X178550000Y-61725001D03*
X175550000Y-61725001D03*
%TD*%
D25*
%TO.C,BT1*%
X177129999Y-68900000D03*
D26*
X179670001Y-68900000D03*
%TD*%
D21*
%TO.C,*%
X150580000Y-50970000D03*
%TD*%
M02*
