M48
; DRILL file {KiCad 8.0.4} date 2024-09-03T09:54:58+0700
; FORMAT={-:-/ absolute / metric / decimal}
; #@! TF.CreationDate,2024-09-03T09:54:58+07:00
; #@! TF.GenerationSoftware,Kicad,Pcbnew,8.0.4
; #@! TF.FileFunction,Plated,1,2,PTH
FMAT,2
METRIC
; #@! TA.AperFunction,Plated,PTH,ViaDrill
T1C0.400
; #@! TA.AperFunction,Plated,PTH,ComponentDrill
T2C1.000
; #@! TA.AperFunction,Plated,PTH,ComponentDrill
T3C1.270
%
G90
G05
T1
X154.8Y-85.1
X158.0Y-82.0
X160.9Y-82.8
X160.9Y-84.7
X166.2Y-94.0
X185.3Y-95.0
T2
X169.06Y-62.92
X169.06Y-65.46
X169.06Y-68.0
X169.06Y-70.54
X169.06Y-73.08
X169.06Y-75.62
X169.06Y-78.16
X169.06Y-80.7
X169.06Y-83.24
X169.06Y-85.78
X169.06Y-88.32
X169.06Y-90.86
X171.55Y-66.75
X171.55Y-69.29
X171.55Y-71.83
X171.55Y-74.37
X171.55Y-76.91
X171.55Y-79.45
X171.55Y-81.99
X171.55Y-84.53
X171.55Y-87.07
X171.55Y-89.61
X171.55Y-92.15
X171.57Y-64.18
X177.13Y-68.9
X179.67Y-68.9
X184.28Y-62.89
X184.3Y-65.46
X184.3Y-68.0
X184.3Y-70.54
X184.3Y-73.08
X184.3Y-75.62
X184.3Y-78.16
X184.3Y-80.7
X184.3Y-83.24
X184.3Y-85.78
X184.3Y-88.32
X184.3Y-90.86
X186.79Y-64.21
X186.79Y-66.75
X186.79Y-69.29
X186.79Y-71.83
X186.79Y-74.37
X186.79Y-76.91
X186.79Y-79.45
X186.79Y-81.99
X186.79Y-84.53
X186.79Y-87.07
X186.79Y-89.61
X186.79Y-92.15
T3
X80.852Y-86.35
X80.852Y-103.368
X80.91Y-69.38
X85.852Y-88.45
X85.852Y-105.468
X85.91Y-71.48
X90.852Y-86.35
X90.852Y-103.368
X90.91Y-69.38
X98.87Y-79.81
X98.87Y-96.828
X98.91Y-62.82
X103.87Y-81.91
X103.87Y-98.928
X103.91Y-64.92
X108.87Y-79.81
X108.87Y-96.828
X108.91Y-62.82
X116.91Y-60.46
X116.91Y-77.44
X116.91Y-94.458
X121.91Y-62.56
X121.91Y-79.54
X121.91Y-96.558
X126.91Y-60.46
X126.91Y-77.44
X126.91Y-94.458
X127.2Y-115.2
X132.2Y-117.3
X134.954Y-62.82
X134.954Y-79.832
X134.954Y-96.85
X137.2Y-115.2
X139.954Y-64.92
X139.954Y-81.932
X139.954Y-98.95
X144.954Y-62.82
X144.954Y-79.832
X144.954Y-96.85
X145.941Y-117.177
X150.227Y-120.5
X152.94Y-82.24
X152.94Y-99.258
X152.988Y-65.2
X155.6Y-119.766
X157.94Y-84.34
X157.94Y-101.358
X157.988Y-67.3
X162.94Y-82.24
X162.94Y-99.258
X162.988Y-65.2
X164.22Y-123.581
X167.5Y-127.9
X172.88Y-128.581
M30
