M48
; DRILL file {KiCad 8.0.6} date 2024-11-18T19:30:31+0700
; FORMAT={-:-/ absolute / metric / decimal}
; #@! TF.CreationDate,2024-11-18T19:30:31+07:00
; #@! TF.GenerationSoftware,Kicad,Pcbnew,8.0.6
; #@! TF.FileFunction,NonPlated,1,2,NPTH
FMAT,2
METRIC
; #@! TA.AperFunction,NonPlated,NPTH,ComponentDrill
T1C0.800
; #@! TA.AperFunction,NonPlated,NPTH,ComponentDrill
T2C1.702
; #@! TA.AperFunction,NonPlated,NPTH,ComponentDrill
T3C2.200
; #@! TA.AperFunction,NonPlated,NPTH,ComponentDrill
T4C3.000
; #@! TA.AperFunction,NonPlated,NPTH,ComponentDrill
T5C3.429
%
G90
G05
T1
X184.175Y-116.119
X184.2Y-116.1
X185.675Y-113.521
X185.7Y-113.502
T2
X80.352Y-82.55
X80.352Y-99.568
X80.41Y-65.58
X91.352Y-82.55
X91.352Y-99.568
X91.41Y-65.58
X98.37Y-76.01
X98.37Y-93.028
X98.41Y-59.02
X109.37Y-76.01
X109.37Y-93.028
X109.41Y-59.02
X116.41Y-56.66
X116.41Y-73.64
X116.41Y-90.658
X126.7Y-111.4
X127.41Y-56.66
X127.41Y-73.64
X127.41Y-90.658
X134.454Y-59.02
X134.454Y-76.032
X134.454Y-93.05
X137.7Y-111.4
X145.454Y-59.02
X145.454Y-76.032
X145.454Y-93.05
X146.441Y-113.377
X152.44Y-78.44
X152.44Y-95.458
X152.488Y-61.4
X157.066Y-116.225
X163.44Y-78.44
X163.44Y-95.458
X163.488Y-61.4
X165.687Y-120.04
X175.213Y-125.54
T3
X90.5Y-55.02
X103.9Y-105.0
X150.55Y-51.0
X178.56Y-111.33
T4
X80.852Y-78.8
X80.852Y-95.818
X80.91Y-61.83
X85.852Y-76.6
X85.852Y-93.618
X85.91Y-59.63
X90.852Y-78.8
X90.852Y-95.818
X90.91Y-61.83
X98.87Y-72.26
X98.87Y-89.278
X98.91Y-55.27
X103.87Y-70.06
X103.87Y-87.078
X103.91Y-53.07
X108.87Y-72.26
X108.87Y-89.278
X108.91Y-55.27
X116.91Y-52.91
X116.91Y-69.89
X116.91Y-86.908
X121.91Y-50.71
X121.91Y-67.69
X121.91Y-84.708
X126.91Y-52.91
X126.91Y-69.89
X126.91Y-86.908
X127.2Y-107.65
X132.2Y-105.45
X134.954Y-55.27
X134.954Y-72.282
X134.954Y-89.3
X137.2Y-107.65
X139.954Y-53.07
X139.954Y-70.082
X139.954Y-87.1
X144.954Y-55.27
X144.954Y-72.282
X144.954Y-89.3
X147.895Y-109.885
X152.94Y-74.69
X152.94Y-91.708
X152.988Y-57.65
X153.294Y-109.054
X157.554Y-112.473
X157.94Y-72.49
X157.94Y-89.508
X157.988Y-55.45
X162.94Y-91.708
X162.94Y-74.69
X162.988Y-57.65
X167.995Y-117.043
X173.425Y-117.638
X176.655Y-122.043
T5
X85.852Y-82.55
X85.852Y-99.568
X85.91Y-65.58
X103.87Y-76.01
X103.87Y-93.028
X103.91Y-59.02
X121.91Y-56.66
X121.91Y-73.64
X121.91Y-90.658
X132.2Y-111.4
X139.954Y-59.02
X139.954Y-76.032
X139.954Y-93.05
X151.754Y-114.801
X157.94Y-78.44
X157.94Y-95.458
X157.988Y-61.4
X170.45Y-122.79
M30
