%TF.GenerationSoftware,KiCad,Pcbnew,8.0.6*%
%TF.CreationDate,2024-11-18T14:11:03+07:00*%
%TF.ProjectId,chocowi36-rounded,63686f63-6f77-4693-9336-2d726f756e64,rev?*%
%TF.SameCoordinates,Original*%
%TF.FileFunction,Legend,Bot*%
%TF.FilePolarity,Positive*%
%FSLAX46Y46*%
G04 Gerber Fmt 4.6, Leading zero omitted, Abs format (unit mm)*
G04 Created by KiCad (PCBNEW 8.0.6) date 2024-11-18 14:11:03*
%MOMM*%
%LPD*%
G01*
G04 APERTURE LIST*
%ADD10C,0.125000*%
%ADD11C,0.150000*%
%ADD12C,0.500000*%
%ADD13C,0.127000*%
%ADD14C,0.200000*%
G04 APERTURE END LIST*
D10*
X188230799Y-109963417D02*
X188148321Y-109915798D01*
X188148321Y-109915798D02*
X188095177Y-109912608D01*
X188095177Y-109912608D02*
X188030128Y-109930038D01*
X188030128Y-109930038D02*
X187961889Y-110000611D01*
X187961889Y-110000611D02*
X187878556Y-110144949D01*
X187878556Y-110144949D02*
X187851556Y-110239332D01*
X187851556Y-110239332D02*
X187868986Y-110304381D01*
X187868986Y-110304381D02*
X187898321Y-110348810D01*
X187898321Y-110348810D02*
X187980799Y-110396429D01*
X187980799Y-110396429D02*
X188033943Y-110399619D01*
X188033943Y-110399619D02*
X188098992Y-110382189D01*
X188098992Y-110382189D02*
X188167231Y-110311616D01*
X188167231Y-110311616D02*
X188250564Y-110167278D01*
X188250564Y-110167278D02*
X188277564Y-110072895D01*
X188277564Y-110072895D02*
X188260134Y-110007846D01*
X188260134Y-110007846D02*
X188230799Y-109963417D01*
X187609645Y-110182143D02*
X187859645Y-109749131D01*
X187859645Y-109749131D02*
X187362209Y-110039286D01*
X187362209Y-110039286D02*
X187612209Y-109606274D01*
D11*
G36*
X120458199Y-103872009D02*
G01*
X120557612Y-103867194D01*
X120665560Y-103849899D01*
X120767462Y-103820025D01*
X120863320Y-103777572D01*
X120874877Y-103771381D01*
X120962133Y-103716274D01*
X121039741Y-103652069D01*
X121107702Y-103578765D01*
X121166015Y-103496364D01*
X121212818Y-103406330D01*
X121246248Y-103310617D01*
X121266307Y-103209226D01*
X121272993Y-103102156D01*
X121266839Y-103001959D01*
X121245855Y-102897252D01*
X121209978Y-102798318D01*
X121160710Y-102706089D01*
X121099552Y-102622173D01*
X121033635Y-102553098D01*
X120951277Y-102486435D01*
X120860030Y-102430854D01*
X120769364Y-102389944D01*
X120672287Y-102359289D01*
X120570344Y-102339988D01*
X120463536Y-102332041D01*
X120441590Y-102331814D01*
X120334629Y-102336632D01*
X120232343Y-102351086D01*
X120134732Y-102375177D01*
X120115770Y-102381151D01*
X120024275Y-102416213D01*
X119930902Y-102465250D01*
X119845149Y-102525254D01*
X120083042Y-102936559D01*
X120161438Y-102875656D01*
X120234961Y-102838862D01*
X120332912Y-102813166D01*
X120402511Y-102808087D01*
X120501157Y-102817738D01*
X120574458Y-102842281D01*
X120653759Y-102900835D01*
X120683879Y-102942421D01*
X120716203Y-103035729D01*
X120721493Y-103102156D01*
X120707384Y-103204561D01*
X120660635Y-103292664D01*
X120636008Y-103318555D01*
X120548679Y-103371649D01*
X120445152Y-103394328D01*
X120399581Y-103396224D01*
X120299435Y-103386022D01*
X120215421Y-103360076D01*
X120124310Y-103310121D01*
X120046894Y-103247725D01*
X119833914Y-103670265D01*
X119916737Y-103725019D01*
X120007670Y-103772045D01*
X120106712Y-103811344D01*
X120127494Y-103818276D01*
X120231574Y-103846612D01*
X120334986Y-103864453D01*
X120437730Y-103871799D01*
X120458199Y-103872009D01*
G37*
G36*
X119626308Y-103830000D02*
G01*
X119626308Y-101814019D01*
X119066015Y-101814019D01*
X119066015Y-102718206D01*
X119183740Y-102575568D01*
X119109757Y-102501815D01*
X119026295Y-102438090D01*
X118965387Y-102401179D01*
X118874759Y-102361687D01*
X118776165Y-102338588D01*
X118679622Y-102331814D01*
X118579758Y-102336943D01*
X118477993Y-102354975D01*
X118378063Y-102390238D01*
X118333286Y-102413879D01*
X118246777Y-102476591D01*
X118176661Y-102551886D01*
X118127145Y-102631256D01*
X118087931Y-102726890D01*
X118064995Y-102828411D01*
X118058269Y-102925812D01*
X118058269Y-103830000D01*
X118618073Y-103830000D01*
X118618073Y-103082616D01*
X118632850Y-102983576D01*
X118677180Y-102905296D01*
X118759200Y-102849929D01*
X118845219Y-102835931D01*
X118943496Y-102851318D01*
X118969783Y-102864263D01*
X119036194Y-102936124D01*
X119042567Y-102949748D01*
X119064549Y-103045369D01*
X119066015Y-103082616D01*
X119066015Y-103830000D01*
X119626308Y-103830000D01*
G37*
G36*
X117042894Y-102332368D02*
G01*
X117141328Y-102340675D01*
X117244988Y-102361598D01*
X117342637Y-102394829D01*
X117432969Y-102438601D01*
X117523077Y-102496890D01*
X117603488Y-102565799D01*
X117667268Y-102636276D01*
X117726076Y-102720743D01*
X117772993Y-102812484D01*
X117804163Y-102900173D01*
X117825115Y-102999606D01*
X117832100Y-103102156D01*
X117825597Y-103204982D01*
X117806088Y-103303412D01*
X117773573Y-103397445D01*
X117728052Y-103487083D01*
X117670747Y-103570156D01*
X117603366Y-103644497D01*
X117525911Y-103710107D01*
X117438380Y-103766985D01*
X117414950Y-103779703D01*
X117316688Y-103822369D01*
X117211160Y-103851907D01*
X117112862Y-103866984D01*
X117009001Y-103872009D01*
X116974942Y-103871455D01*
X116876217Y-103863148D01*
X116772595Y-103842225D01*
X116675366Y-103808995D01*
X116585034Y-103765269D01*
X116494925Y-103707144D01*
X116414514Y-103638513D01*
X116350782Y-103568036D01*
X116292137Y-103483568D01*
X116245498Y-103391828D01*
X116214071Y-103303929D01*
X116192945Y-103204485D01*
X116185903Y-103102156D01*
X116729099Y-103102156D01*
X116733486Y-103161677D01*
X116766224Y-103258960D01*
X116792051Y-103297008D01*
X116867340Y-103360565D01*
X116908461Y-103379370D01*
X117009001Y-103396224D01*
X117056676Y-103392742D01*
X117151151Y-103360565D01*
X117188264Y-103335110D01*
X117251779Y-103258960D01*
X117275816Y-103201267D01*
X117288904Y-103102156D01*
X117284632Y-103042414D01*
X117252756Y-102945352D01*
X117227234Y-102907094D01*
X117152616Y-102843747D01*
X117106775Y-102823445D01*
X117009001Y-102808087D01*
X116960811Y-102811570D01*
X116865875Y-102843747D01*
X116828599Y-102868992D01*
X116765735Y-102945352D01*
X116742015Y-103002809D01*
X116729099Y-103102156D01*
X116185903Y-103102156D01*
X116192436Y-102999330D01*
X116212037Y-102900900D01*
X116244704Y-102806866D01*
X116290439Y-102717229D01*
X116347561Y-102633942D01*
X116414881Y-102559448D01*
X116492397Y-102493747D01*
X116580111Y-102436838D01*
X116603482Y-102424120D01*
X116701545Y-102381454D01*
X116806936Y-102351916D01*
X116905164Y-102336839D01*
X117009001Y-102331814D01*
X117042894Y-102332368D01*
G37*
G36*
X115225540Y-103872009D02*
G01*
X115324953Y-103867194D01*
X115432901Y-103849899D01*
X115534803Y-103820025D01*
X115630661Y-103777572D01*
X115642218Y-103771381D01*
X115729474Y-103716274D01*
X115807082Y-103652069D01*
X115875043Y-103578765D01*
X115933356Y-103496364D01*
X115980159Y-103406330D01*
X116013590Y-103310617D01*
X116033648Y-103209226D01*
X116040334Y-103102156D01*
X116034180Y-103001959D01*
X116013196Y-102897252D01*
X115977320Y-102798318D01*
X115928052Y-102706089D01*
X115866893Y-102622173D01*
X115800976Y-102553098D01*
X115718618Y-102486435D01*
X115627371Y-102430854D01*
X115536705Y-102389944D01*
X115439628Y-102359289D01*
X115337686Y-102339988D01*
X115230877Y-102332041D01*
X115208932Y-102331814D01*
X115101970Y-102336632D01*
X114999684Y-102351086D01*
X114902073Y-102375177D01*
X114883112Y-102381151D01*
X114791616Y-102416213D01*
X114698244Y-102465250D01*
X114612490Y-102525254D01*
X114850383Y-102936559D01*
X114928779Y-102875656D01*
X115002302Y-102838862D01*
X115100253Y-102813166D01*
X115169853Y-102808087D01*
X115268498Y-102817738D01*
X115341800Y-102842281D01*
X115421100Y-102900835D01*
X115451220Y-102942421D01*
X115483544Y-103035729D01*
X115488834Y-103102156D01*
X115474725Y-103204561D01*
X115427976Y-103292664D01*
X115403349Y-103318555D01*
X115316021Y-103371649D01*
X115212493Y-103394328D01*
X115166922Y-103396224D01*
X115066776Y-103386022D01*
X114982763Y-103360076D01*
X114891651Y-103310121D01*
X114814235Y-103247725D01*
X114601255Y-103670265D01*
X114684078Y-103725019D01*
X114775011Y-103772045D01*
X114874054Y-103811344D01*
X114894835Y-103818276D01*
X114998915Y-103846612D01*
X115102327Y-103864453D01*
X115205071Y-103871799D01*
X115225540Y-103872009D01*
G37*
G36*
X113740731Y-102332368D02*
G01*
X113839164Y-102340675D01*
X113942824Y-102361598D01*
X114040474Y-102394829D01*
X114130805Y-102438601D01*
X114220914Y-102496890D01*
X114301325Y-102565799D01*
X114365105Y-102636276D01*
X114423913Y-102720743D01*
X114470830Y-102812484D01*
X114501999Y-102900173D01*
X114522952Y-102999606D01*
X114529936Y-103102156D01*
X114523433Y-103204982D01*
X114503925Y-103303412D01*
X114471410Y-103397445D01*
X114425889Y-103487083D01*
X114368583Y-103570156D01*
X114301203Y-103644497D01*
X114223747Y-103710107D01*
X114136217Y-103766985D01*
X114112787Y-103779703D01*
X114014525Y-103822369D01*
X113908997Y-103851907D01*
X113810699Y-103866984D01*
X113706838Y-103872009D01*
X113672779Y-103871455D01*
X113574054Y-103863148D01*
X113470432Y-103842225D01*
X113373202Y-103808995D01*
X113282871Y-103765269D01*
X113192762Y-103707144D01*
X113112351Y-103638513D01*
X113048619Y-103568036D01*
X112989974Y-103483568D01*
X112943335Y-103391828D01*
X112911908Y-103303929D01*
X112890782Y-103204485D01*
X112883740Y-103102156D01*
X113426936Y-103102156D01*
X113431323Y-103161677D01*
X113464061Y-103258960D01*
X113489887Y-103297008D01*
X113565177Y-103360565D01*
X113606298Y-103379370D01*
X113706838Y-103396224D01*
X113754513Y-103392742D01*
X113848987Y-103360565D01*
X113886101Y-103335110D01*
X113949615Y-103258960D01*
X113973652Y-103201267D01*
X113986740Y-103102156D01*
X113982469Y-103042414D01*
X113950592Y-102945352D01*
X113925071Y-102907094D01*
X113850453Y-102843747D01*
X113804611Y-102823445D01*
X113706838Y-102808087D01*
X113658648Y-102811570D01*
X113563712Y-102843747D01*
X113526436Y-102868992D01*
X113463572Y-102945352D01*
X113439851Y-103002809D01*
X113426936Y-103102156D01*
X112883740Y-103102156D01*
X112890273Y-102999330D01*
X112909874Y-102900900D01*
X112942541Y-102806866D01*
X112988276Y-102717229D01*
X113045398Y-102633942D01*
X113112717Y-102559448D01*
X113190234Y-102493747D01*
X113277948Y-102436838D01*
X113301319Y-102424120D01*
X113399382Y-102381454D01*
X113504773Y-102351916D01*
X113603000Y-102336839D01*
X113706838Y-102331814D01*
X113740731Y-102332368D01*
G37*
G36*
X112400627Y-103830000D02*
G01*
X112823656Y-102373824D01*
X112288764Y-102373824D01*
X112101186Y-103188618D01*
X111874528Y-102373824D01*
X111370411Y-102373824D01*
X111146196Y-103188618D01*
X110967410Y-102373824D01*
X110449127Y-102373824D01*
X110872156Y-103830000D01*
X111420725Y-103830000D01*
X111630774Y-103048911D01*
X111852058Y-103830000D01*
X112400627Y-103830000D01*
G37*
G36*
X110264968Y-103830000D02*
G01*
X110264968Y-102373824D01*
X109704675Y-102373824D01*
X109704675Y-103830000D01*
X110264968Y-103830000D01*
G37*
G36*
X109984577Y-102186245D02*
G01*
X110084824Y-102173185D01*
X110179979Y-102129908D01*
X110210746Y-102107110D01*
X110276195Y-102026554D01*
X110304152Y-101931492D01*
X110306489Y-101889734D01*
X110290688Y-101786852D01*
X110238328Y-101698054D01*
X110210746Y-101671870D01*
X110127231Y-101620633D01*
X110032267Y-101595517D01*
X109984577Y-101592735D01*
X109884646Y-101605795D01*
X109789651Y-101649072D01*
X109758897Y-101671870D01*
X109693113Y-101752519D01*
X109665014Y-101847836D01*
X109662665Y-101889734D01*
X109678547Y-101992301D01*
X109731174Y-102080938D01*
X109758897Y-102107110D01*
X109842331Y-102158347D01*
X109937053Y-102183463D01*
X109984577Y-102186245D01*
G37*
G36*
X108786322Y-103872009D02*
G01*
X108887415Y-103867682D01*
X108986998Y-103854699D01*
X109052546Y-103841235D01*
X109153928Y-103812683D01*
X109246925Y-103777037D01*
X109287019Y-103758192D01*
X109374045Y-103705835D01*
X109447243Y-103639490D01*
X109285066Y-103199853D01*
X109211669Y-103274626D01*
X109124594Y-103330997D01*
X109086252Y-103349330D01*
X108989463Y-103382966D01*
X108890339Y-103401079D01*
X108822958Y-103404528D01*
X108723021Y-103393379D01*
X108677389Y-103378639D01*
X108593049Y-103323346D01*
X108578715Y-103306831D01*
X108543613Y-103214775D01*
X108543056Y-103199853D01*
X108566394Y-103101175D01*
X108616817Y-103044515D01*
X108705974Y-103001825D01*
X108803419Y-102989804D01*
X108902484Y-102997025D01*
X108913328Y-102998597D01*
X109011770Y-103018522D01*
X109030076Y-103023510D01*
X109175645Y-102676196D01*
X108730634Y-102320579D01*
X109419399Y-102320579D01*
X109419399Y-101870195D01*
X108108792Y-101870195D01*
X108108792Y-102284431D01*
X108506419Y-102670823D01*
X108404812Y-102695640D01*
X108312975Y-102737103D01*
X108278296Y-102757773D01*
X108195048Y-102823156D01*
X108129652Y-102898821D01*
X108096580Y-102949748D01*
X108055697Y-103039489D01*
X108031785Y-103141467D01*
X108024772Y-103244794D01*
X108032500Y-103343369D01*
X108059214Y-103445645D01*
X108105010Y-103540289D01*
X108122470Y-103567194D01*
X108190476Y-103649655D01*
X108264081Y-103713999D01*
X108349432Y-103768992D01*
X108391137Y-103790432D01*
X108491717Y-103829866D01*
X108588063Y-103854085D01*
X108690942Y-103868106D01*
X108786322Y-103872009D01*
G37*
G36*
X106583226Y-101846206D02*
G01*
X106679506Y-101868760D01*
X106773415Y-101895848D01*
X106879981Y-101933181D01*
X106983321Y-101976685D01*
X107040451Y-102004048D01*
X107136204Y-102056083D01*
X107226581Y-102113402D01*
X107311582Y-102176003D01*
X107391206Y-102243886D01*
X107433964Y-102284828D01*
X107502987Y-102360148D01*
X107564623Y-102440143D01*
X107618872Y-102524813D01*
X107665735Y-102614159D01*
X107688862Y-102667037D01*
X107721914Y-102762513D01*
X107745523Y-102861729D01*
X107759688Y-102964685D01*
X107764410Y-103071381D01*
X107764308Y-103086524D01*
X107757937Y-103189076D01*
X107738520Y-103298893D01*
X107706158Y-103400834D01*
X107660851Y-103494898D01*
X107604064Y-103579712D01*
X107537752Y-103654389D01*
X107461915Y-103718930D01*
X107376552Y-103773335D01*
X107365205Y-103779406D01*
X107270790Y-103821034D01*
X107169902Y-103850328D01*
X107062542Y-103867288D01*
X106963293Y-103872009D01*
X106952485Y-103871958D01*
X106847766Y-103865833D01*
X106749153Y-103849499D01*
X106647731Y-103819741D01*
X106570902Y-103786781D01*
X106485501Y-103737576D01*
X106403000Y-103672707D01*
X106354426Y-103623431D01*
X106292671Y-103542419D01*
X106244242Y-103452889D01*
X106219665Y-103388958D01*
X106195966Y-103288712D01*
X106189127Y-103197411D01*
X106705861Y-103197411D01*
X106707046Y-103222008D01*
X106739567Y-103317090D01*
X106753065Y-103335917D01*
X106831402Y-103399644D01*
X106865139Y-103414048D01*
X106963293Y-103429441D01*
X106999410Y-103427579D01*
X107095673Y-103399644D01*
X107116613Y-103387514D01*
X107187508Y-103317090D01*
X107200641Y-103293331D01*
X107221213Y-103197411D01*
X107220028Y-103172664D01*
X107187508Y-103077732D01*
X107174010Y-103058755D01*
X107095673Y-102995177D01*
X107061699Y-102980537D01*
X106963293Y-102964891D01*
X106927206Y-102966784D01*
X106831402Y-102995177D01*
X106810462Y-103007159D01*
X106739567Y-103077732D01*
X106726433Y-103101323D01*
X106705861Y-103197411D01*
X106189127Y-103197411D01*
X106188066Y-103183244D01*
X106188818Y-103149167D01*
X106200088Y-103051262D01*
X106228471Y-102950092D01*
X106273551Y-102856936D01*
X106284430Y-102839343D01*
X106346435Y-102758476D01*
X106421129Y-102689439D01*
X106508513Y-102632233D01*
X106546676Y-102612998D01*
X106647960Y-102576133D01*
X106746295Y-102556658D01*
X106851430Y-102550167D01*
X106884952Y-102550930D01*
X106983321Y-102562379D01*
X107011084Y-102568093D01*
X107106419Y-102598039D01*
X107049246Y-102535449D01*
X106973551Y-102471521D01*
X106968705Y-102467960D01*
X106885067Y-102414105D01*
X106796231Y-102368939D01*
X106764341Y-102355052D01*
X106668705Y-102319469D01*
X106571527Y-102290781D01*
X106499451Y-102273062D01*
X106397098Y-102252443D01*
X106296999Y-102236559D01*
X106484577Y-101828185D01*
X106583226Y-101846206D01*
G37*
D10*
G36*
X112216621Y-104072069D02*
G01*
X112216621Y-104937275D01*
X112055812Y-104937275D01*
X112048973Y-104881588D01*
X112045489Y-104886228D01*
X112014748Y-104918047D01*
X111978902Y-104940438D01*
X111937952Y-104953401D01*
X111897933Y-104957010D01*
X111878488Y-104956341D01*
X111837573Y-104949948D01*
X111800583Y-104936784D01*
X111764088Y-104914219D01*
X111747706Y-104900003D01*
X111721511Y-104870472D01*
X111699552Y-104835871D01*
X111681827Y-104796200D01*
X111680108Y-104791491D01*
X111668320Y-104752372D01*
X111660025Y-104710689D01*
X111655223Y-104666442D01*
X111653931Y-104626989D01*
X111841073Y-104626989D01*
X111841513Y-104652198D01*
X111845030Y-104697065D01*
X111853191Y-104738695D01*
X111869210Y-104776856D01*
X111876559Y-104787481D01*
X111907232Y-104813511D01*
X111945609Y-104822188D01*
X111960020Y-104821284D01*
X111996802Y-104807729D01*
X112009629Y-104797329D01*
X112035295Y-104765719D01*
X112035295Y-104505258D01*
X112018298Y-104479989D01*
X111991136Y-104451525D01*
X111975382Y-104441118D01*
X111936426Y-104431790D01*
X111922516Y-104432828D01*
X111886209Y-104448399D01*
X111868206Y-104469636D01*
X111852992Y-104507408D01*
X111845729Y-104544099D01*
X111842016Y-104586326D01*
X111841073Y-104626989D01*
X111653931Y-104626989D01*
X111653886Y-104625621D01*
X111654725Y-104588789D01*
X111658136Y-104545497D01*
X111664170Y-104505258D01*
X111674875Y-104461002D01*
X111689358Y-104421141D01*
X111707619Y-104385677D01*
X111725919Y-104360121D01*
X111756813Y-104331620D01*
X111793858Y-104311609D01*
X111837056Y-104300087D01*
X111878980Y-104296968D01*
X111890514Y-104297325D01*
X111929442Y-104304202D01*
X111966126Y-104319829D01*
X111976054Y-104325743D01*
X112007919Y-104350336D01*
X112035295Y-104380988D01*
X112035295Y-104052921D01*
X112216621Y-104072069D01*
G37*
G36*
X110951443Y-104319243D02*
G01*
X111154849Y-104941965D01*
X111168429Y-104979171D01*
X111187370Y-105020002D01*
X111209196Y-105056670D01*
X111233907Y-105089176D01*
X111261504Y-105117519D01*
X111276384Y-105130129D01*
X111308832Y-105152042D01*
X111345361Y-105169422D01*
X111385970Y-105182268D01*
X111430660Y-105190579D01*
X111471018Y-105194043D01*
X111496593Y-105194609D01*
X111517305Y-105069166D01*
X111478566Y-105063027D01*
X111439929Y-105053449D01*
X111419999Y-105046305D01*
X111384634Y-105027079D01*
X111360208Y-105005077D01*
X111336564Y-104971452D01*
X111320738Y-104939229D01*
X111382874Y-104939229D01*
X111576314Y-104319243D01*
X111384632Y-104319243D01*
X111266223Y-104821797D01*
X111137654Y-104319243D01*
X110951443Y-104319243D01*
G37*
G36*
X109887912Y-103994107D02*
G01*
X109847543Y-104000805D01*
X109812812Y-104022713D01*
X109810927Y-104024588D01*
X109788505Y-104058587D01*
X109781061Y-104097204D01*
X109781031Y-104100011D01*
X109787600Y-104139289D01*
X109809087Y-104174087D01*
X109810927Y-104176019D01*
X109845121Y-104199027D01*
X109884986Y-104206666D01*
X109887912Y-104206696D01*
X109928787Y-104199955D01*
X109963965Y-104177906D01*
X109965874Y-104176019D01*
X109988442Y-104141678D01*
X109995936Y-104102830D01*
X109995965Y-104100011D01*
X109989353Y-104060959D01*
X109967726Y-104026496D01*
X109965874Y-104024588D01*
X109931241Y-104001727D01*
X109890875Y-103994137D01*
X109887912Y-103994107D01*
G37*
G36*
X109778296Y-104319243D02*
G01*
X109778296Y-104806947D01*
X109623153Y-104806947D01*
X109623153Y-104932000D01*
X110132546Y-104932000D01*
X110132546Y-104806947D01*
X109959817Y-104806947D01*
X109959817Y-104444295D01*
X110126879Y-104444295D01*
X110126879Y-104319243D01*
X109778296Y-104319243D01*
G37*
G36*
X108913285Y-104899564D02*
G01*
X108947415Y-104919172D01*
X108984197Y-104934835D01*
X108999650Y-104940206D01*
X109039244Y-104950446D01*
X109078678Y-104955681D01*
X109113174Y-104957010D01*
X109155853Y-104954826D01*
X109200176Y-104946755D01*
X109238608Y-104932738D01*
X109275317Y-104909438D01*
X109290787Y-104894875D01*
X109316091Y-104860937D01*
X109334165Y-104821455D01*
X109344049Y-104782360D01*
X109348398Y-104739021D01*
X109348624Y-104725859D01*
X109348624Y-104444295D01*
X109476802Y-104444295D01*
X109476802Y-104319243D01*
X109348624Y-104319243D01*
X109348624Y-104185593D01*
X109167298Y-104163318D01*
X109167298Y-104319243D01*
X108970731Y-104319243D01*
X108988512Y-104444295D01*
X109167298Y-104444295D01*
X109167298Y-104722146D01*
X109162120Y-104761225D01*
X109146586Y-104787408D01*
X109111079Y-104804199D01*
X109080543Y-104806947D01*
X109040668Y-104803665D01*
X109021729Y-104799327D01*
X108984653Y-104785185D01*
X108973662Y-104779397D01*
X108913285Y-104899564D01*
G37*
G36*
X108529140Y-104822188D02*
G01*
X108488205Y-104818573D01*
X108456063Y-104807729D01*
X108429868Y-104777724D01*
X108428121Y-104764156D01*
X108439063Y-104731134D01*
X108471856Y-104709357D01*
X108481073Y-104705538D01*
X108519468Y-104692202D01*
X108558138Y-104680597D01*
X108572909Y-104676424D01*
X108612867Y-104663943D01*
X108653148Y-104646924D01*
X108688484Y-104626752D01*
X108709294Y-104611553D01*
X108737012Y-104581198D01*
X108754463Y-104543134D01*
X108761393Y-104502286D01*
X108761855Y-104487282D01*
X108757605Y-104447837D01*
X108742664Y-104407723D01*
X108716966Y-104372123D01*
X108693858Y-104350897D01*
X108655988Y-104327303D01*
X108616661Y-104312188D01*
X108578353Y-104303341D01*
X108535799Y-104298285D01*
X108497096Y-104296968D01*
X108457577Y-104298348D01*
X108416272Y-104303200D01*
X108374293Y-104312687D01*
X108354849Y-104319048D01*
X108318594Y-104334011D01*
X108282416Y-104353160D01*
X108250117Y-104375126D01*
X108322413Y-104484351D01*
X108356703Y-104465192D01*
X108393237Y-104449773D01*
X108404088Y-104446054D01*
X108442326Y-104436303D01*
X108483545Y-104431916D01*
X108491820Y-104431790D01*
X108534041Y-104435546D01*
X108570632Y-104454232D01*
X108579161Y-104479271D01*
X108568024Y-104506235D01*
X108533231Y-104526517D01*
X108525819Y-104529487D01*
X108487570Y-104542774D01*
X108449459Y-104554534D01*
X108434960Y-104558796D01*
X108396081Y-104570973D01*
X108357828Y-104585677D01*
X108331987Y-104597680D01*
X108297334Y-104619708D01*
X108268672Y-104649702D01*
X108263990Y-104656494D01*
X108247427Y-104693161D01*
X108240613Y-104731794D01*
X108239761Y-104753605D01*
X108243635Y-104793496D01*
X108256844Y-104832484D01*
X108279426Y-104866347D01*
X108309656Y-104894922D01*
X108342506Y-104916171D01*
X108380471Y-104932917D01*
X108384548Y-104934344D01*
X108422357Y-104945301D01*
X108462144Y-104952672D01*
X108503910Y-104956457D01*
X108527968Y-104957010D01*
X108570930Y-104955398D01*
X108611304Y-104950562D01*
X108653629Y-104941268D01*
X108684283Y-104931218D01*
X108720830Y-104915317D01*
X108757703Y-104894640D01*
X108790645Y-104870796D01*
X108799761Y-104863025D01*
X108708317Y-104757903D01*
X108675405Y-104780252D01*
X108638903Y-104799086D01*
X108627814Y-104803821D01*
X108589755Y-104815713D01*
X108548922Y-104821542D01*
X108529140Y-104822188D01*
G37*
G36*
X107738380Y-104354414D02*
G01*
X107760389Y-104334891D01*
X107796803Y-104313181D01*
X107837298Y-104300558D01*
X107876719Y-104296968D01*
X107890677Y-104297341D01*
X107930345Y-104302931D01*
X107970542Y-104317009D01*
X108006656Y-104339369D01*
X108023077Y-104353340D01*
X108049532Y-104382432D01*
X108072000Y-104416593D01*
X108090480Y-104455824D01*
X108092283Y-104460473D01*
X108104648Y-104499195D01*
X108113349Y-104540628D01*
X108118387Y-104584771D01*
X108119789Y-104625621D01*
X108119694Y-104637979D01*
X108117857Y-104679681D01*
X108113683Y-104718971D01*
X108106051Y-104760920D01*
X108095365Y-104799718D01*
X108090564Y-104813386D01*
X108073502Y-104850908D01*
X108049868Y-104886472D01*
X108021311Y-104915586D01*
X108011740Y-104922989D01*
X107976538Y-104942407D01*
X107936261Y-104953733D01*
X107895672Y-104957010D01*
X107870450Y-104955776D01*
X107831171Y-104947917D01*
X107794262Y-104931218D01*
X107786532Y-104926293D01*
X107754314Y-104900946D01*
X107726851Y-104869473D01*
X107717668Y-104937471D01*
X107556858Y-104937471D01*
X107556858Y-104484547D01*
X107738380Y-104484547D01*
X107738380Y-104750674D01*
X107755158Y-104775341D01*
X107782930Y-104803039D01*
X107799076Y-104813137D01*
X107838226Y-104822188D01*
X107850056Y-104821384D01*
X107887270Y-104805384D01*
X107905079Y-104783866D01*
X107920487Y-104745984D01*
X107927869Y-104709375D01*
X107931643Y-104667369D01*
X107932602Y-104626989D01*
X107932153Y-104601780D01*
X107928562Y-104556913D01*
X107920232Y-104515283D01*
X107903879Y-104477122D01*
X107898332Y-104469020D01*
X107868177Y-104441751D01*
X107828066Y-104431790D01*
X107816083Y-104432463D01*
X107778631Y-104445859D01*
X107765549Y-104455598D01*
X107738380Y-104484547D01*
X107556858Y-104484547D01*
X107556858Y-104072069D01*
X107738380Y-104052921D01*
X107738380Y-104354414D01*
G37*
G36*
X106945860Y-104296968D02*
G01*
X106905233Y-104302001D01*
X106869970Y-104318973D01*
X106849726Y-104339564D01*
X106831816Y-104375013D01*
X106822692Y-104413188D01*
X106818759Y-104454050D01*
X106818268Y-104476926D01*
X106818268Y-104932000D01*
X106973997Y-104932000D01*
X106973997Y-104491581D01*
X106977694Y-104452096D01*
X106980054Y-104445272D01*
X107004479Y-104431790D01*
X107033983Y-104441364D01*
X107061928Y-104469154D01*
X107067591Y-104476926D01*
X107067591Y-104932000D01*
X107195184Y-104932000D01*
X107195184Y-104491581D01*
X107198881Y-104452096D01*
X107201241Y-104445272D01*
X107225665Y-104431790D01*
X107255170Y-104441364D01*
X107283114Y-104469154D01*
X107288777Y-104476926D01*
X107288777Y-104932000D01*
X107446656Y-104932000D01*
X107446656Y-104319243D01*
X107313397Y-104319243D01*
X107301478Y-104375321D01*
X107276233Y-104345097D01*
X107245277Y-104318150D01*
X107243446Y-104316898D01*
X107207011Y-104300783D01*
X107173886Y-104296968D01*
X107134791Y-104303837D01*
X107115072Y-104314554D01*
X107089074Y-104345877D01*
X107080292Y-104369069D01*
X107051324Y-104340053D01*
X107019524Y-104317094D01*
X106982093Y-104301390D01*
X106945860Y-104296968D01*
G37*
G36*
X106361241Y-104354414D02*
G01*
X106383250Y-104334891D01*
X106419664Y-104313181D01*
X106460159Y-104300558D01*
X106499580Y-104296968D01*
X106513538Y-104297341D01*
X106553206Y-104302931D01*
X106593403Y-104317009D01*
X106629517Y-104339369D01*
X106645938Y-104353340D01*
X106672393Y-104382432D01*
X106694861Y-104416593D01*
X106713341Y-104455824D01*
X106715144Y-104460473D01*
X106727509Y-104499195D01*
X106736210Y-104540628D01*
X106741248Y-104584771D01*
X106742650Y-104625621D01*
X106742555Y-104637979D01*
X106740718Y-104679681D01*
X106736544Y-104718971D01*
X106728912Y-104760920D01*
X106718226Y-104799718D01*
X106713425Y-104813386D01*
X106696363Y-104850908D01*
X106672729Y-104886472D01*
X106644172Y-104915586D01*
X106634601Y-104922989D01*
X106599399Y-104942407D01*
X106559122Y-104953733D01*
X106518533Y-104957010D01*
X106493311Y-104955776D01*
X106454032Y-104947917D01*
X106417124Y-104931218D01*
X106409393Y-104926293D01*
X106377175Y-104900946D01*
X106349712Y-104869473D01*
X106340529Y-104937471D01*
X106179719Y-104937471D01*
X106179719Y-104484547D01*
X106361241Y-104484547D01*
X106361241Y-104750674D01*
X106378019Y-104775341D01*
X106405791Y-104803039D01*
X106421937Y-104813137D01*
X106461087Y-104822188D01*
X106472918Y-104821384D01*
X106510131Y-104805384D01*
X106527940Y-104783866D01*
X106543348Y-104745984D01*
X106550730Y-104709375D01*
X106554504Y-104667369D01*
X106555463Y-104626989D01*
X106555014Y-104601780D01*
X106551423Y-104556913D01*
X106543093Y-104515283D01*
X106526740Y-104477122D01*
X106521193Y-104469020D01*
X106491038Y-104441751D01*
X106450927Y-104431790D01*
X106438944Y-104432463D01*
X106401492Y-104445859D01*
X106388410Y-104455598D01*
X106361241Y-104484547D01*
X106179719Y-104484547D01*
X106179719Y-104072069D01*
X106361241Y-104052921D01*
X106361241Y-104354414D01*
G37*
D12*
X173755137Y-106177333D02*
X175278947Y-106177333D01*
X175244862Y-96777333D02*
X173721053Y-96777333D01*
X174482957Y-97539238D02*
X174482957Y-96015428D01*
D10*
X184547238Y-61248809D02*
X184713904Y-61010714D01*
X184832952Y-61248809D02*
X184832952Y-60748809D01*
X184832952Y-60748809D02*
X184642476Y-60748809D01*
X184642476Y-60748809D02*
X184594857Y-60772619D01*
X184594857Y-60772619D02*
X184571047Y-60796428D01*
X184571047Y-60796428D02*
X184547238Y-60844047D01*
X184547238Y-60844047D02*
X184547238Y-60915476D01*
X184547238Y-60915476D02*
X184571047Y-60963095D01*
X184571047Y-60963095D02*
X184594857Y-60986904D01*
X184594857Y-60986904D02*
X184642476Y-61010714D01*
X184642476Y-61010714D02*
X184832952Y-61010714D01*
X184356761Y-61105952D02*
X184118666Y-61105952D01*
X184404380Y-61248809D02*
X184237714Y-60748809D01*
X184237714Y-60748809D02*
X184071047Y-61248809D01*
X183952000Y-60748809D02*
X183832952Y-61248809D01*
X183832952Y-61248809D02*
X183737714Y-60891666D01*
X183737714Y-60891666D02*
X183642476Y-61248809D01*
X183642476Y-61248809D02*
X183523429Y-60748809D01*
D13*
%TO.C,SW_POWER2*%
X186928108Y-112074777D02*
X186321890Y-111724777D01*
X186094133Y-115519263D02*
X187444133Y-113180994D01*
X183780865Y-114125962D02*
X184430865Y-113000129D01*
X185444133Y-116645096D02*
X186094133Y-115519263D01*
X184794133Y-117770929D02*
X185444133Y-116645096D01*
X182971890Y-117527147D02*
X183578108Y-117877147D01*
D11*
%TO.C,T2*%
X188150000Y-108660000D02*
X188150000Y-94360000D01*
X174250000Y-108660000D02*
X188150000Y-108660000D01*
X188150000Y-94360000D02*
X174250000Y-94360000D01*
X170350000Y-103010000D02*
X170350000Y-100010000D01*
%TO.C,SW2*%
X83910000Y-57880000D02*
X84410000Y-57380000D01*
X83910000Y-61380000D02*
X84410000Y-61880000D01*
X84410000Y-57380000D02*
X87410000Y-57380000D01*
X84410000Y-61880000D02*
X86910000Y-61880000D01*
X87410000Y-57380000D02*
X87910000Y-57880000D01*
X87910000Y-58880000D02*
X87910000Y-57880000D01*
X88410000Y-63380000D02*
X88410000Y-64080000D01*
X88410000Y-64080000D02*
X92910000Y-64080000D01*
X92910000Y-59380000D02*
X88410000Y-59380000D01*
X92910000Y-59980000D02*
X92910000Y-59380000D01*
X92910000Y-64080000D02*
X92910000Y-63580000D01*
X86910000Y-61880000D02*
G75*
G02*
X88410000Y-63380000I0J-1500000D01*
G01*
X88410000Y-59380000D02*
G75*
G02*
X87910000Y-58880000I0J500000D01*
G01*
%TO.C,SW3*%
X101910000Y-51320000D02*
X102410000Y-50820000D01*
X101910000Y-54820000D02*
X102410000Y-55320000D01*
X102410000Y-50820000D02*
X105410000Y-50820000D01*
X102410000Y-55320000D02*
X104910000Y-55320000D01*
X105410000Y-50820000D02*
X105910000Y-51320000D01*
X105910000Y-52320000D02*
X105910000Y-51320000D01*
X106410000Y-56820000D02*
X106410000Y-57520000D01*
X106410000Y-57520000D02*
X110910000Y-57520000D01*
X110910000Y-52820000D02*
X106410000Y-52820000D01*
X110910000Y-53420000D02*
X110910000Y-52820000D01*
X110910000Y-57520000D02*
X110910000Y-57020000D01*
X104910000Y-55320000D02*
G75*
G02*
X106410000Y-56820000I0J-1500000D01*
G01*
X106410000Y-52820000D02*
G75*
G02*
X105910000Y-52320000I0J500000D01*
G01*
%TO.C,SW4*%
X119910000Y-48960000D02*
X120410000Y-48460000D01*
X119910000Y-52460000D02*
X120410000Y-52960000D01*
X120410000Y-48460000D02*
X123410000Y-48460000D01*
X120410000Y-52960000D02*
X122910000Y-52960000D01*
X123410000Y-48460000D02*
X123910000Y-48960000D01*
X123910000Y-49960000D02*
X123910000Y-48960000D01*
X124410000Y-54460000D02*
X124410000Y-55160000D01*
X124410000Y-55160000D02*
X128910000Y-55160000D01*
X128910000Y-50460000D02*
X124410000Y-50460000D01*
X128910000Y-51060000D02*
X128910000Y-50460000D01*
X128910000Y-55160000D02*
X128910000Y-54660000D01*
X122910000Y-52960000D02*
G75*
G02*
X124410000Y-54460000I0J-1500000D01*
G01*
X124410000Y-50460000D02*
G75*
G02*
X123910000Y-49960000I0J500000D01*
G01*
%TO.C,SW5*%
X137954000Y-51320000D02*
X138454000Y-50820000D01*
X137954000Y-54820000D02*
X138454000Y-55320000D01*
X138454000Y-50820000D02*
X141454000Y-50820000D01*
X138454000Y-55320000D02*
X140954000Y-55320000D01*
X141454000Y-50820000D02*
X141954000Y-51320000D01*
X141954000Y-52320000D02*
X141954000Y-51320000D01*
X142454000Y-56820000D02*
X142454000Y-57520000D01*
X142454000Y-57520000D02*
X146954000Y-57520000D01*
X146954000Y-52820000D02*
X142454000Y-52820000D01*
X146954000Y-53420000D02*
X146954000Y-52820000D01*
X146954000Y-57520000D02*
X146954000Y-57020000D01*
X140954000Y-55320000D02*
G75*
G02*
X142454000Y-56820000I0J-1500000D01*
G01*
X142454000Y-52820000D02*
G75*
G02*
X141954000Y-52320000I0J500000D01*
G01*
%TO.C,SW6*%
X155988000Y-53700000D02*
X156488000Y-53200000D01*
X155988000Y-57200000D02*
X156488000Y-57700000D01*
X156488000Y-53200000D02*
X159488000Y-53200000D01*
X156488000Y-57700000D02*
X158988000Y-57700000D01*
X159488000Y-53200000D02*
X159988000Y-53700000D01*
X159988000Y-54700000D02*
X159988000Y-53700000D01*
X160488000Y-59200000D02*
X160488000Y-59900000D01*
X160488000Y-59900000D02*
X164988000Y-59900000D01*
X164988000Y-55200000D02*
X160488000Y-55200000D01*
X164988000Y-55800000D02*
X164988000Y-55200000D01*
X164988000Y-59900000D02*
X164988000Y-59400000D01*
X158988000Y-57700000D02*
G75*
G02*
X160488000Y-59200000I0J-1500000D01*
G01*
X160488000Y-55200000D02*
G75*
G02*
X159988000Y-54700000I0J500000D01*
G01*
%TO.C,SW8*%
X83852000Y-74850000D02*
X84352000Y-74350000D01*
X83852000Y-78350000D02*
X84352000Y-78850000D01*
X84352000Y-74350000D02*
X87352000Y-74350000D01*
X84352000Y-78850000D02*
X86852000Y-78850000D01*
X87352000Y-74350000D02*
X87852000Y-74850000D01*
X87852000Y-75850000D02*
X87852000Y-74850000D01*
X88352000Y-80350000D02*
X88352000Y-81050000D01*
X88352000Y-81050000D02*
X92852000Y-81050000D01*
X92852000Y-76350000D02*
X88352000Y-76350000D01*
X92852000Y-76950000D02*
X92852000Y-76350000D01*
X92852000Y-81050000D02*
X92852000Y-80550000D01*
X86852000Y-78850000D02*
G75*
G02*
X88352000Y-80350000I0J-1500000D01*
G01*
X88352000Y-76350000D02*
G75*
G02*
X87852000Y-75850000I0J500000D01*
G01*
%TO.C,SW9*%
X101870000Y-68310000D02*
X102370000Y-67810000D01*
X101870000Y-71810000D02*
X102370000Y-72310000D01*
X102370000Y-67810000D02*
X105370000Y-67810000D01*
X102370000Y-72310000D02*
X104870000Y-72310000D01*
X105370000Y-67810000D02*
X105870000Y-68310000D01*
X105870000Y-69310000D02*
X105870000Y-68310000D01*
X106370000Y-73810000D02*
X106370000Y-74510000D01*
X106370000Y-74510000D02*
X110870000Y-74510000D01*
X110870000Y-69810000D02*
X106370000Y-69810000D01*
X110870000Y-70410000D02*
X110870000Y-69810000D01*
X110870000Y-74510000D02*
X110870000Y-74010000D01*
X104870000Y-72310000D02*
G75*
G02*
X106370000Y-73810000I0J-1500000D01*
G01*
X106370000Y-69810000D02*
G75*
G02*
X105870000Y-69310000I0J500000D01*
G01*
%TO.C,SW10*%
X119910000Y-65940000D02*
X120410000Y-65440000D01*
X119910000Y-69440000D02*
X120410000Y-69940000D01*
X120410000Y-65440000D02*
X123410000Y-65440000D01*
X120410000Y-69940000D02*
X122910000Y-69940000D01*
X123410000Y-65440000D02*
X123910000Y-65940000D01*
X123910000Y-66940000D02*
X123910000Y-65940000D01*
X124410000Y-71440000D02*
X124410000Y-72140000D01*
X124410000Y-72140000D02*
X128910000Y-72140000D01*
X128910000Y-67440000D02*
X124410000Y-67440000D01*
X128910000Y-68040000D02*
X128910000Y-67440000D01*
X128910000Y-72140000D02*
X128910000Y-71640000D01*
X122910000Y-69940000D02*
G75*
G02*
X124410000Y-71440000I0J-1500000D01*
G01*
X124410000Y-67440000D02*
G75*
G02*
X123910000Y-66940000I0J500000D01*
G01*
%TO.C,SW11*%
X137954000Y-68332000D02*
X138454000Y-67832000D01*
X137954000Y-71832000D02*
X138454000Y-72332000D01*
X138454000Y-67832000D02*
X141454000Y-67832000D01*
X138454000Y-72332000D02*
X140954000Y-72332000D01*
X141454000Y-67832000D02*
X141954000Y-68332000D01*
X141954000Y-69332000D02*
X141954000Y-68332000D01*
X142454000Y-73832000D02*
X142454000Y-74532000D01*
X142454000Y-74532000D02*
X146954000Y-74532000D01*
X146954000Y-69832000D02*
X142454000Y-69832000D01*
X146954000Y-70432000D02*
X146954000Y-69832000D01*
X146954000Y-74532000D02*
X146954000Y-74032000D01*
X140954000Y-72332000D02*
G75*
G02*
X142454000Y-73832000I0J-1500000D01*
G01*
X142454000Y-69832000D02*
G75*
G02*
X141954000Y-69332000I0J500000D01*
G01*
%TO.C,SW12*%
X155940000Y-70740000D02*
X156440000Y-70240000D01*
X155940000Y-74240000D02*
X156440000Y-74740000D01*
X156440000Y-70240000D02*
X159440000Y-70240000D01*
X156440000Y-74740000D02*
X158940000Y-74740000D01*
X159440000Y-70240000D02*
X159940000Y-70740000D01*
X159940000Y-71740000D02*
X159940000Y-70740000D01*
X160440000Y-76240000D02*
X160440000Y-76940000D01*
X160440000Y-76940000D02*
X164940000Y-76940000D01*
X164940000Y-72240000D02*
X160440000Y-72240000D01*
X164940000Y-72840000D02*
X164940000Y-72240000D01*
X164940000Y-76940000D02*
X164940000Y-76440000D01*
X158940000Y-74740000D02*
G75*
G02*
X160440000Y-76240000I0J-1500000D01*
G01*
X160440000Y-72240000D02*
G75*
G02*
X159940000Y-71740000I0J500000D01*
G01*
%TO.C,SW14*%
X83852000Y-91868000D02*
X84352000Y-91368000D01*
X83852000Y-95368000D02*
X84352000Y-95868000D01*
X84352000Y-91368000D02*
X87352000Y-91368000D01*
X84352000Y-95868000D02*
X86852000Y-95868000D01*
X87352000Y-91368000D02*
X87852000Y-91868000D01*
X87852000Y-92868000D02*
X87852000Y-91868000D01*
X88352000Y-97368000D02*
X88352000Y-98068000D01*
X88352000Y-98068000D02*
X92852000Y-98068000D01*
X92852000Y-93368000D02*
X88352000Y-93368000D01*
X92852000Y-93968000D02*
X92852000Y-93368000D01*
X92852000Y-98068000D02*
X92852000Y-97568000D01*
X86852000Y-95868000D02*
G75*
G02*
X88352000Y-97368000I0J-1500000D01*
G01*
X88352000Y-93368000D02*
G75*
G02*
X87852000Y-92868000I0J500000D01*
G01*
%TO.C,SW15*%
X101870000Y-85328000D02*
X102370000Y-84828000D01*
X101870000Y-88828000D02*
X102370000Y-89328000D01*
X102370000Y-84828000D02*
X105370000Y-84828000D01*
X102370000Y-89328000D02*
X104870000Y-89328000D01*
X105370000Y-84828000D02*
X105870000Y-85328000D01*
X105870000Y-86328000D02*
X105870000Y-85328000D01*
X106370000Y-90828000D02*
X106370000Y-91528000D01*
X106370000Y-91528000D02*
X110870000Y-91528000D01*
X110870000Y-86828000D02*
X106370000Y-86828000D01*
X110870000Y-87428000D02*
X110870000Y-86828000D01*
X110870000Y-91528000D02*
X110870000Y-91028000D01*
X104870000Y-89328000D02*
G75*
G02*
X106370000Y-90828000I0J-1500000D01*
G01*
X106370000Y-86828000D02*
G75*
G02*
X105870000Y-86328000I0J500000D01*
G01*
%TO.C,SW16*%
X119910000Y-82958000D02*
X120410000Y-82458000D01*
X119910000Y-86458000D02*
X120410000Y-86958000D01*
X120410000Y-82458000D02*
X123410000Y-82458000D01*
X120410000Y-86958000D02*
X122910000Y-86958000D01*
X123410000Y-82458000D02*
X123910000Y-82958000D01*
X123910000Y-83958000D02*
X123910000Y-82958000D01*
X124410000Y-88458000D02*
X124410000Y-89158000D01*
X124410000Y-89158000D02*
X128910000Y-89158000D01*
X128910000Y-84458000D02*
X124410000Y-84458000D01*
X128910000Y-85058000D02*
X128910000Y-84458000D01*
X128910000Y-89158000D02*
X128910000Y-88658000D01*
X122910000Y-86958000D02*
G75*
G02*
X124410000Y-88458000I0J-1500000D01*
G01*
X124410000Y-84458000D02*
G75*
G02*
X123910000Y-83958000I0J500000D01*
G01*
%TO.C,SW17*%
X137954000Y-85350000D02*
X138454000Y-84850000D01*
X137954000Y-88850000D02*
X138454000Y-89350000D01*
X138454000Y-84850000D02*
X141454000Y-84850000D01*
X138454000Y-89350000D02*
X140954000Y-89350000D01*
X141454000Y-84850000D02*
X141954000Y-85350000D01*
X141954000Y-86350000D02*
X141954000Y-85350000D01*
X142454000Y-90850000D02*
X142454000Y-91550000D01*
X142454000Y-91550000D02*
X146954000Y-91550000D01*
X146954000Y-86850000D02*
X142454000Y-86850000D01*
X146954000Y-87450000D02*
X146954000Y-86850000D01*
X146954000Y-91550000D02*
X146954000Y-91050000D01*
X140954000Y-89350000D02*
G75*
G02*
X142454000Y-90850000I0J-1500000D01*
G01*
X142454000Y-86850000D02*
G75*
G02*
X141954000Y-86350000I0J500000D01*
G01*
%TO.C,SW18*%
X155940000Y-87758000D02*
X156440000Y-87258000D01*
X155940000Y-91258000D02*
X156440000Y-91758000D01*
X156440000Y-87258000D02*
X159440000Y-87258000D01*
X156440000Y-91758000D02*
X158940000Y-91758000D01*
X159440000Y-87258000D02*
X159940000Y-87758000D01*
X159940000Y-88758000D02*
X159940000Y-87758000D01*
X160440000Y-93258000D02*
X160440000Y-93958000D01*
X160440000Y-93958000D02*
X164940000Y-93958000D01*
X164939999Y-89858000D02*
X164940000Y-89257999D01*
X164940000Y-89257999D02*
X160440000Y-89258000D01*
X164940000Y-93958000D02*
X164940000Y-93458000D01*
X158940000Y-91758000D02*
G75*
G02*
X160440000Y-93258000I0J-1500000D01*
G01*
X160440000Y-89258000D02*
G75*
G02*
X159940000Y-88758000I0J500000D01*
G01*
%TO.C,SW20*%
X150909088Y-110226473D02*
X151262642Y-110838846D01*
X151262642Y-110838846D02*
X153677456Y-111485893D01*
X151814955Y-106845733D02*
X152427327Y-106492180D01*
X152427327Y-106492180D02*
X155325105Y-107268637D01*
X154556943Y-113999159D02*
X158903609Y-115163846D01*
X154738115Y-113323012D02*
X154556943Y-113999159D01*
X155325105Y-107268637D02*
X155678658Y-107881008D01*
X155419839Y-108846935D02*
X155678658Y-107881008D01*
X158903609Y-115163846D02*
X159033019Y-114680882D01*
X159964767Y-111203549D02*
X160120059Y-110623993D01*
X160120059Y-110623993D02*
X155773393Y-109459307D01*
X153677456Y-111485893D02*
G75*
G02*
X154738115Y-113323012I-388223J-1448885D01*
G01*
X155773393Y-109459307D02*
G75*
G02*
X155419840Y-108846935I129409J482962D01*
G01*
%TO.C,SW21*%
X170817949Y-118153193D02*
X171000962Y-118836206D01*
X171000962Y-118836206D02*
X173166025Y-120086206D01*
X172567949Y-115122104D02*
X173250962Y-114939092D01*
X173250962Y-114939092D02*
X175849038Y-116439092D01*
X173365064Y-122741461D02*
X177262178Y-124991462D01*
X173715064Y-122135244D02*
X173365064Y-122741461D01*
X175532051Y-117988130D02*
X176032051Y-117122104D01*
X175849038Y-116439092D02*
X176032051Y-117122104D01*
X177262178Y-124991462D02*
X177512178Y-124558449D01*
X179312178Y-121440758D02*
X179612178Y-120921142D01*
X179612178Y-120921142D02*
X175715063Y-118671142D01*
X173166025Y-120086206D02*
G75*
G02*
X173715063Y-122135244I-750000J-1299038D01*
G01*
X175715063Y-118671142D02*
G75*
G02*
X175532051Y-117988130I250001J433012D01*
G01*
%TO.C,SW19*%
X130200000Y-103700000D02*
X130700000Y-103200000D01*
X130200000Y-107200000D02*
X130700000Y-107700000D01*
X130700000Y-103200000D02*
X133700000Y-103200000D01*
X130700000Y-107700000D02*
X133200000Y-107700000D01*
X133700000Y-103200000D02*
X134200000Y-103700000D01*
X134200000Y-104700000D02*
X134200000Y-103700000D01*
X134700000Y-109200000D02*
X134700000Y-109900000D01*
X134700000Y-109900000D02*
X139200000Y-109900000D01*
X139199999Y-105800000D02*
X139200000Y-105199999D01*
X139200000Y-105199999D02*
X134700000Y-105200000D01*
X139200000Y-109900000D02*
X139200000Y-109400000D01*
X133200000Y-107700000D02*
G75*
G02*
X134700000Y-109200000I0J-1500000D01*
G01*
X134700000Y-105200000D02*
G75*
G02*
X134200000Y-104700000I0J500000D01*
G01*
D14*
%TO.C,SW_RST2*%
X179950000Y-98050000D02*
X180400000Y-97600000D01*
X179950000Y-100550000D02*
X179950000Y-98050000D01*
X179950000Y-100550000D02*
X180400000Y-101000000D01*
X183700000Y-96550000D02*
X181700000Y-96550000D01*
X183700000Y-102050000D02*
X181700000Y-102050000D01*
X185450000Y-98050000D02*
X185000000Y-97600000D01*
X185450000Y-100550000D02*
X185000000Y-101000000D01*
X185450000Y-100550000D02*
X185450000Y-98050000D01*
%TD*%
M02*
