%TF.GenerationSoftware,KiCad,Pcbnew,8.0.4*%
%TF.CreationDate,2024-09-02T16:23:26+07:00*%
%TF.ProjectId,cc36,63633336-2e6b-4696-9361-645f70636258,rev?*%
%TF.SameCoordinates,Original*%
%TF.FileFunction,Legend,Bot*%
%TF.FilePolarity,Positive*%
%FSLAX46Y46*%
G04 Gerber Fmt 4.6, Leading zero omitted, Abs format (unit mm)*
G04 Created by KiCad (PCBNEW 8.0.4) date 2024-09-02 16:23:26*
%MOMM*%
%LPD*%
G01*
G04 APERTURE LIST*
%ADD10C,0.125000*%
%ADD11C,0.200000*%
%ADD12C,0.150000*%
G04 APERTURE END LIST*
D10*
X179834761Y-70544333D02*
X179453809Y-70544333D01*
X179049046Y-70472904D02*
X178977618Y-70496714D01*
X178977618Y-70496714D02*
X178953808Y-70520523D01*
X178953808Y-70520523D02*
X178929999Y-70568142D01*
X178929999Y-70568142D02*
X178929999Y-70639571D01*
X178929999Y-70639571D02*
X178953808Y-70687190D01*
X178953808Y-70687190D02*
X178977618Y-70711000D01*
X178977618Y-70711000D02*
X179025237Y-70734809D01*
X179025237Y-70734809D02*
X179215713Y-70734809D01*
X179215713Y-70734809D02*
X179215713Y-70234809D01*
X179215713Y-70234809D02*
X179049046Y-70234809D01*
X179049046Y-70234809D02*
X179001427Y-70258619D01*
X179001427Y-70258619D02*
X178977618Y-70282428D01*
X178977618Y-70282428D02*
X178953808Y-70330047D01*
X178953808Y-70330047D02*
X178953808Y-70377666D01*
X178953808Y-70377666D02*
X178977618Y-70425285D01*
X178977618Y-70425285D02*
X179001427Y-70449095D01*
X179001427Y-70449095D02*
X179049046Y-70472904D01*
X179049046Y-70472904D02*
X179215713Y-70472904D01*
X178739522Y-70591952D02*
X178501427Y-70591952D01*
X178787141Y-70734809D02*
X178620475Y-70234809D01*
X178620475Y-70234809D02*
X178453808Y-70734809D01*
X178358570Y-70234809D02*
X178072856Y-70234809D01*
X178215713Y-70734809D02*
X178215713Y-70234809D01*
X177906190Y-70544333D02*
X177525238Y-70544333D01*
X177715714Y-70734809D02*
X177715714Y-70353857D01*
X181415570Y-62624809D02*
X181320332Y-62624809D01*
X181320332Y-62624809D02*
X181272713Y-62648619D01*
X181272713Y-62648619D02*
X181225094Y-62696238D01*
X181225094Y-62696238D02*
X181201284Y-62791476D01*
X181201284Y-62791476D02*
X181201284Y-62958142D01*
X181201284Y-62958142D02*
X181225094Y-63053380D01*
X181225094Y-63053380D02*
X181272713Y-63101000D01*
X181272713Y-63101000D02*
X181320332Y-63124809D01*
X181320332Y-63124809D02*
X181415570Y-63124809D01*
X181415570Y-63124809D02*
X181463189Y-63101000D01*
X181463189Y-63101000D02*
X181510808Y-63053380D01*
X181510808Y-63053380D02*
X181534617Y-62958142D01*
X181534617Y-62958142D02*
X181534617Y-62791476D01*
X181534617Y-62791476D02*
X181510808Y-62696238D01*
X181510808Y-62696238D02*
X181463189Y-62648619D01*
X181463189Y-62648619D02*
X181415570Y-62624809D01*
X180986998Y-63124809D02*
X180986998Y-62624809D01*
X180986998Y-62624809D02*
X180701284Y-63124809D01*
X180701284Y-63124809D02*
X180701284Y-62624809D01*
D11*
X181417142Y-75989552D02*
X181417142Y-76656219D01*
X181417142Y-76084790D02*
X181369523Y-76037171D01*
X181369523Y-76037171D02*
X181274285Y-75989552D01*
X181274285Y-75989552D02*
X181131428Y-75989552D01*
X181131428Y-75989552D02*
X181036190Y-76037171D01*
X181036190Y-76037171D02*
X180988571Y-76132409D01*
X180988571Y-76132409D02*
X180988571Y-76656219D01*
X180512380Y-76656219D02*
X180512380Y-75989552D01*
X180512380Y-75656219D02*
X180559999Y-75703838D01*
X180559999Y-75703838D02*
X180512380Y-75751457D01*
X180512380Y-75751457D02*
X180464761Y-75703838D01*
X180464761Y-75703838D02*
X180512380Y-75656219D01*
X180512380Y-75656219D02*
X180512380Y-75751457D01*
X179607619Y-76608600D02*
X179702857Y-76656219D01*
X179702857Y-76656219D02*
X179893333Y-76656219D01*
X179893333Y-76656219D02*
X179988571Y-76608600D01*
X179988571Y-76608600D02*
X180036190Y-76560980D01*
X180036190Y-76560980D02*
X180083809Y-76465742D01*
X180083809Y-76465742D02*
X180083809Y-76180028D01*
X180083809Y-76180028D02*
X180036190Y-76084790D01*
X180036190Y-76084790D02*
X179988571Y-76037171D01*
X179988571Y-76037171D02*
X179893333Y-75989552D01*
X179893333Y-75989552D02*
X179702857Y-75989552D01*
X179702857Y-75989552D02*
X179607619Y-76037171D01*
X178798095Y-76608600D02*
X178893333Y-76656219D01*
X178893333Y-76656219D02*
X179083809Y-76656219D01*
X179083809Y-76656219D02*
X179179047Y-76608600D01*
X179179047Y-76608600D02*
X179226666Y-76513361D01*
X179226666Y-76513361D02*
X179226666Y-76132409D01*
X179226666Y-76132409D02*
X179179047Y-76037171D01*
X179179047Y-76037171D02*
X179083809Y-75989552D01*
X179083809Y-75989552D02*
X178893333Y-75989552D01*
X178893333Y-75989552D02*
X178798095Y-76037171D01*
X178798095Y-76037171D02*
X178750476Y-76132409D01*
X178750476Y-76132409D02*
X178750476Y-76227647D01*
X178750476Y-76227647D02*
X179226666Y-76322885D01*
X178321904Y-76560980D02*
X178274285Y-76608600D01*
X178274285Y-76608600D02*
X178321904Y-76656219D01*
X178321904Y-76656219D02*
X178369523Y-76608600D01*
X178369523Y-76608600D02*
X178321904Y-76560980D01*
X178321904Y-76560980D02*
X178321904Y-76656219D01*
X178321904Y-76275266D02*
X178369523Y-75703838D01*
X178369523Y-75703838D02*
X178321904Y-75656219D01*
X178321904Y-75656219D02*
X178274285Y-75703838D01*
X178274285Y-75703838D02*
X178321904Y-76275266D01*
X178321904Y-76275266D02*
X178321904Y-75656219D01*
X177845714Y-75989552D02*
X177845714Y-76656219D01*
X177845714Y-76084790D02*
X177798095Y-76037171D01*
X177798095Y-76037171D02*
X177702857Y-75989552D01*
X177702857Y-75989552D02*
X177560000Y-75989552D01*
X177560000Y-75989552D02*
X177464762Y-76037171D01*
X177464762Y-76037171D02*
X177417143Y-76132409D01*
X177417143Y-76132409D02*
X177417143Y-76656219D01*
X176512381Y-76656219D02*
X176512381Y-76132409D01*
X176512381Y-76132409D02*
X176560000Y-76037171D01*
X176560000Y-76037171D02*
X176655238Y-75989552D01*
X176655238Y-75989552D02*
X176845714Y-75989552D01*
X176845714Y-75989552D02*
X176940952Y-76037171D01*
X176512381Y-76608600D02*
X176607619Y-76656219D01*
X176607619Y-76656219D02*
X176845714Y-76656219D01*
X176845714Y-76656219D02*
X176940952Y-76608600D01*
X176940952Y-76608600D02*
X176988571Y-76513361D01*
X176988571Y-76513361D02*
X176988571Y-76418123D01*
X176988571Y-76418123D02*
X176940952Y-76322885D01*
X176940952Y-76322885D02*
X176845714Y-76275266D01*
X176845714Y-76275266D02*
X176607619Y-76275266D01*
X176607619Y-76275266D02*
X176512381Y-76227647D01*
X176036190Y-75989552D02*
X176036190Y-76656219D01*
X176036190Y-76084790D02*
X175988571Y-76037171D01*
X175988571Y-76037171D02*
X175893333Y-75989552D01*
X175893333Y-75989552D02*
X175750476Y-75989552D01*
X175750476Y-75989552D02*
X175655238Y-76037171D01*
X175655238Y-76037171D02*
X175607619Y-76132409D01*
X175607619Y-76132409D02*
X175607619Y-76656219D01*
X174988571Y-76656219D02*
X175083809Y-76608600D01*
X175083809Y-76608600D02*
X175131428Y-76560980D01*
X175131428Y-76560980D02*
X175179047Y-76465742D01*
X175179047Y-76465742D02*
X175179047Y-76180028D01*
X175179047Y-76180028D02*
X175131428Y-76084790D01*
X175131428Y-76084790D02*
X175083809Y-76037171D01*
X175083809Y-76037171D02*
X174988571Y-75989552D01*
X174988571Y-75989552D02*
X174845714Y-75989552D01*
X174845714Y-75989552D02*
X174750476Y-76037171D01*
X174750476Y-76037171D02*
X174702857Y-76084790D01*
X174702857Y-76084790D02*
X174655238Y-76180028D01*
X174655238Y-76180028D02*
X174655238Y-76465742D01*
X174655238Y-76465742D02*
X174702857Y-76560980D01*
X174702857Y-76560980D02*
X174750476Y-76608600D01*
X174750476Y-76608600D02*
X174845714Y-76656219D01*
X174845714Y-76656219D02*
X174988571Y-76656219D01*
D10*
X184547238Y-61248809D02*
X184713904Y-61010714D01*
X184832952Y-61248809D02*
X184832952Y-60748809D01*
X184832952Y-60748809D02*
X184642476Y-60748809D01*
X184642476Y-60748809D02*
X184594857Y-60772619D01*
X184594857Y-60772619D02*
X184571047Y-60796428D01*
X184571047Y-60796428D02*
X184547238Y-60844047D01*
X184547238Y-60844047D02*
X184547238Y-60915476D01*
X184547238Y-60915476D02*
X184571047Y-60963095D01*
X184571047Y-60963095D02*
X184594857Y-60986904D01*
X184594857Y-60986904D02*
X184642476Y-61010714D01*
X184642476Y-61010714D02*
X184832952Y-61010714D01*
X184356761Y-61105952D02*
X184118666Y-61105952D01*
X184404380Y-61248809D02*
X184237714Y-60748809D01*
X184237714Y-60748809D02*
X184071047Y-61248809D01*
X183952000Y-60748809D02*
X183832952Y-61248809D01*
X183832952Y-61248809D02*
X183737714Y-60891666D01*
X183737714Y-60891666D02*
X183642476Y-61248809D01*
X183642476Y-61248809D02*
X183523429Y-60748809D01*
D12*
%TO.C,SW12*%
X155940000Y-70740000D02*
X156440000Y-70240000D01*
X155940000Y-74240000D02*
X156440000Y-74740000D01*
X156440000Y-70240000D02*
X159440000Y-70240000D01*
X156440000Y-74740000D02*
X158940000Y-74740000D01*
X159440000Y-70240000D02*
X159940000Y-70740000D01*
X159940000Y-71740000D02*
X159940000Y-70740000D01*
X160440000Y-76240000D02*
X160440000Y-76940000D01*
X160440000Y-76940000D02*
X164940000Y-76940000D01*
X164940000Y-72240000D02*
X160440000Y-72240000D01*
X164940000Y-72840000D02*
X164940000Y-72240000D01*
X164940000Y-76940000D02*
X164940000Y-76440000D01*
X158940000Y-74740000D02*
G75*
G02*
X160440000Y-76240000I0J-1500000D01*
G01*
X160440000Y-72240000D02*
G75*
G02*
X159940000Y-71740000I0J500000D01*
G01*
%TO.C,SW10*%
X119910000Y-65940000D02*
X120410000Y-65440000D01*
X119910000Y-69440000D02*
X120410000Y-69940000D01*
X120410000Y-65440000D02*
X123410000Y-65440000D01*
X120410000Y-69940000D02*
X122910000Y-69940000D01*
X123410000Y-65440000D02*
X123910000Y-65940000D01*
X123910000Y-66940000D02*
X123910000Y-65940000D01*
X124410000Y-71440000D02*
X124410000Y-72140000D01*
X124410000Y-72140000D02*
X128910000Y-72140000D01*
X128910000Y-67440000D02*
X124410000Y-67440000D01*
X128910000Y-68040000D02*
X128910000Y-67440000D01*
X128910000Y-72140000D02*
X128910000Y-71640000D01*
X122910000Y-69940000D02*
G75*
G02*
X124410000Y-71440000I0J-1500000D01*
G01*
X124410000Y-67440000D02*
G75*
G02*
X123910000Y-66940000I0J500000D01*
G01*
%TO.C,SW18*%
X155940000Y-87758000D02*
X156440000Y-87258000D01*
X155940000Y-91258000D02*
X156440000Y-91758000D01*
X156440000Y-87258000D02*
X159440000Y-87258000D01*
X156440000Y-91758000D02*
X158940000Y-91758000D01*
X159440000Y-87258000D02*
X159940000Y-87758000D01*
X159940000Y-88758000D02*
X159940000Y-87758000D01*
X160440000Y-93258000D02*
X160440000Y-93958000D01*
X160440000Y-93958000D02*
X164940000Y-93958000D01*
X164940000Y-89257999D02*
X160440000Y-89258000D01*
X164939999Y-89858000D02*
X164940000Y-89257999D01*
X164940000Y-93958000D02*
X164940000Y-93458000D01*
X158940000Y-91758000D02*
G75*
G02*
X160440000Y-93258000I0J-1500000D01*
G01*
X160440000Y-89258000D02*
G75*
G02*
X159940001Y-88758000I0J499999D01*
G01*
%TO.C,SW15*%
X101870000Y-85328000D02*
X102370000Y-84828000D01*
X101870000Y-88828000D02*
X102370000Y-89328000D01*
X102370000Y-84828000D02*
X105370000Y-84828000D01*
X102370000Y-89328000D02*
X104870000Y-89328000D01*
X105370000Y-84828000D02*
X105870000Y-85328000D01*
X105870000Y-86328000D02*
X105870000Y-85328000D01*
X106370000Y-90828000D02*
X106370000Y-91528000D01*
X106370000Y-91528000D02*
X110870000Y-91528000D01*
X110870000Y-86828000D02*
X106370000Y-86828000D01*
X110870000Y-87428000D02*
X110870000Y-86828000D01*
X110870000Y-91528000D02*
X110870000Y-91028000D01*
X104870000Y-89328000D02*
G75*
G02*
X106370000Y-90828000I0J-1500000D01*
G01*
X106370000Y-86828000D02*
G75*
G02*
X105870000Y-86328000I0J500000D01*
G01*
%TO.C,SW21*%
X175235063Y-118391093D02*
G75*
G02*
X175052051Y-117708081I250001J433012D01*
G01*
X172686025Y-119806157D02*
G75*
G02*
X173235064Y-121855195I-749999J-1299038D01*
G01*
X176782178Y-124711413D02*
X177032178Y-124278400D01*
X178832178Y-121160709D02*
X179132178Y-120641093D01*
X179132178Y-120641093D02*
X175235063Y-118391093D01*
X172885064Y-122461412D02*
X176782178Y-124711413D01*
X173235064Y-121855195D02*
X172885064Y-122461412D01*
X175052051Y-117708081D02*
X175552051Y-116842055D01*
X175369038Y-116159043D02*
X175552051Y-116842055D01*
X170520962Y-118556157D02*
X172686025Y-119806157D01*
X172770962Y-114659043D02*
X175369038Y-116159043D01*
X170337949Y-117873144D02*
X170520962Y-118556157D01*
X172087949Y-114842055D02*
X172770962Y-114659043D01*
%TO.C,SW20*%
X152748087Y-106605771D02*
X153360459Y-106252218D01*
X151842220Y-109986511D02*
X152195774Y-110598884D01*
X153360459Y-106252218D02*
X156258237Y-107028675D01*
X152195774Y-110598884D02*
X154610588Y-111245931D01*
X156258237Y-107028675D02*
X156611790Y-107641046D01*
X156352971Y-108606973D02*
X156611790Y-107641046D01*
X155671247Y-113083049D02*
X155490075Y-113759197D01*
X155490075Y-113759197D02*
X159836741Y-114923883D01*
X161053191Y-110384031D02*
X156706525Y-109219345D01*
X160897899Y-110963587D02*
X161053191Y-110384031D01*
X159836741Y-114923883D02*
X159966151Y-114440920D01*
X154610588Y-111245931D02*
G75*
G02*
X155671249Y-113083049I-388228J-1448889D01*
G01*
X156706525Y-109219345D02*
G75*
G02*
X156352972Y-108606973I129409J482962D01*
G01*
%TO.C,SW19*%
X132570000Y-103590000D02*
X133070000Y-103090000D01*
X132570000Y-107090000D02*
X133070000Y-107590000D01*
X133070000Y-103090000D02*
X136070000Y-103090000D01*
X133070000Y-107590000D02*
X135570000Y-107590000D01*
X136070000Y-103090000D02*
X136570000Y-103590000D01*
X136570000Y-104590000D02*
X136570000Y-103590000D01*
X137070000Y-109090000D02*
X137070000Y-109790000D01*
X137070000Y-109790000D02*
X141570000Y-109790000D01*
X141570000Y-105089999D02*
X137070000Y-105090000D01*
X141569999Y-105690000D02*
X141570000Y-105089999D01*
X141570000Y-109790000D02*
X141570000Y-109290000D01*
X135570000Y-107590000D02*
G75*
G02*
X137070000Y-109090000I0J-1500000D01*
G01*
X137070000Y-105090000D02*
G75*
G02*
X136570001Y-104590000I0J499999D01*
G01*
%TO.C,SW17*%
X137954000Y-85350000D02*
X138454000Y-84850000D01*
X137954000Y-88850000D02*
X138454000Y-89350000D01*
X138454000Y-84850000D02*
X141454000Y-84850000D01*
X138454000Y-89350000D02*
X140954000Y-89350000D01*
X141454000Y-84850000D02*
X141954000Y-85350000D01*
X141954000Y-86350000D02*
X141954000Y-85350000D01*
X142454000Y-90850000D02*
X142454000Y-91550000D01*
X142454000Y-91550000D02*
X146954000Y-91550000D01*
X146954000Y-86850000D02*
X142454000Y-86850000D01*
X146954000Y-87450000D02*
X146954000Y-86850000D01*
X146954000Y-91550000D02*
X146954000Y-91050000D01*
X140954000Y-89350000D02*
G75*
G02*
X142454000Y-90850000I0J-1500000D01*
G01*
X142454000Y-86850000D02*
G75*
G02*
X141954000Y-86350000I0J500000D01*
G01*
%TO.C,SW16*%
X119910000Y-82958000D02*
X120410000Y-82458000D01*
X119910000Y-86458000D02*
X120410000Y-86958000D01*
X120410000Y-82458000D02*
X123410000Y-82458000D01*
X120410000Y-86958000D02*
X122910000Y-86958000D01*
X123410000Y-82458000D02*
X123910000Y-82958000D01*
X123910000Y-83958000D02*
X123910000Y-82958000D01*
X124410000Y-88458000D02*
X124410000Y-89158000D01*
X124410000Y-89158000D02*
X128910000Y-89158000D01*
X128910000Y-84458000D02*
X124410000Y-84458000D01*
X128910000Y-85058000D02*
X128910000Y-84458000D01*
X128910000Y-89158000D02*
X128910000Y-88658000D01*
X122910000Y-86958000D02*
G75*
G02*
X124410000Y-88458000I0J-1500000D01*
G01*
X124410000Y-84458000D02*
G75*
G02*
X123910000Y-83958000I0J500000D01*
G01*
%TO.C,SW14*%
X83852000Y-91868000D02*
X84352000Y-91368000D01*
X83852000Y-95368000D02*
X84352000Y-95868000D01*
X84352000Y-91368000D02*
X87352000Y-91368000D01*
X84352000Y-95868000D02*
X86852000Y-95868000D01*
X87352000Y-91368000D02*
X87852000Y-91868000D01*
X87852000Y-92868000D02*
X87852000Y-91868000D01*
X88352000Y-97368000D02*
X88352000Y-98068000D01*
X88352000Y-98068000D02*
X92852000Y-98068000D01*
X92852000Y-93368000D02*
X88352000Y-93368000D01*
X92852000Y-93968000D02*
X92852000Y-93368000D01*
X92852000Y-98068000D02*
X92852000Y-97568000D01*
X86852000Y-95868000D02*
G75*
G02*
X88352000Y-97368000I0J-1500000D01*
G01*
X88352000Y-93368000D02*
G75*
G02*
X87852000Y-92868000I0J500000D01*
G01*
%TO.C,SW11*%
X137954000Y-68332000D02*
X138454000Y-67832000D01*
X137954000Y-71832000D02*
X138454000Y-72332000D01*
X138454000Y-67832000D02*
X141454000Y-67832000D01*
X138454000Y-72332000D02*
X140954000Y-72332000D01*
X141454000Y-67832000D02*
X141954000Y-68332000D01*
X141954000Y-69332000D02*
X141954000Y-68332000D01*
X142454000Y-73832000D02*
X142454000Y-74532000D01*
X142454000Y-74532000D02*
X146954000Y-74532000D01*
X146954000Y-69832000D02*
X142454000Y-69832000D01*
X146954000Y-70432000D02*
X146954000Y-69832000D01*
X146954000Y-74532000D02*
X146954000Y-74032000D01*
X140954000Y-72332000D02*
G75*
G02*
X142454000Y-73832000I0J-1500000D01*
G01*
X142454000Y-69832000D02*
G75*
G02*
X141954000Y-69332000I0J500000D01*
G01*
%TO.C,SW9*%
X101870000Y-68310000D02*
X102370000Y-67810000D01*
X101870000Y-71810000D02*
X102370000Y-72310000D01*
X102370000Y-67810000D02*
X105370000Y-67810000D01*
X102370000Y-72310000D02*
X104870000Y-72310000D01*
X105370000Y-67810000D02*
X105870000Y-68310000D01*
X105870000Y-69310000D02*
X105870000Y-68310000D01*
X106370000Y-73810000D02*
X106370000Y-74510000D01*
X106370000Y-74510000D02*
X110870000Y-74510000D01*
X110870000Y-69810000D02*
X106370000Y-69810000D01*
X110870000Y-70410000D02*
X110870000Y-69810000D01*
X110870000Y-74510000D02*
X110870000Y-74010000D01*
X104870000Y-72310000D02*
G75*
G02*
X106370000Y-73810000I0J-1500000D01*
G01*
X106370000Y-69810000D02*
G75*
G02*
X105870000Y-69310000I0J500000D01*
G01*
%TO.C,SW8*%
X83852000Y-74850000D02*
X84352000Y-74350000D01*
X83852000Y-78350000D02*
X84352000Y-78850000D01*
X84352000Y-74350000D02*
X87352000Y-74350000D01*
X84352000Y-78850000D02*
X86852000Y-78850000D01*
X87352000Y-74350000D02*
X87852000Y-74850000D01*
X87852000Y-75850000D02*
X87852000Y-74850000D01*
X88352000Y-80350000D02*
X88352000Y-81050000D01*
X88352000Y-81050000D02*
X92852000Y-81050000D01*
X92852000Y-76350000D02*
X88352000Y-76350000D01*
X92852000Y-76950000D02*
X92852000Y-76350000D01*
X92852000Y-81050000D02*
X92852000Y-80550000D01*
X86852000Y-78850000D02*
G75*
G02*
X88352000Y-80350000I0J-1500000D01*
G01*
X88352000Y-76350000D02*
G75*
G02*
X87852000Y-75850000I0J500000D01*
G01*
%TO.C,SW6*%
X155988000Y-53700000D02*
X156488000Y-53200000D01*
X155988000Y-57200000D02*
X156488000Y-57700000D01*
X156488000Y-53200000D02*
X159488000Y-53200000D01*
X156488000Y-57700000D02*
X158988000Y-57700000D01*
X159488000Y-53200000D02*
X159988000Y-53700000D01*
X159988000Y-54700000D02*
X159988000Y-53700000D01*
X160488000Y-59200000D02*
X160488000Y-59900000D01*
X160488000Y-59900000D02*
X164988000Y-59900000D01*
X164988000Y-55200000D02*
X160488000Y-55200000D01*
X164988000Y-55800000D02*
X164988000Y-55200000D01*
X164988000Y-59900000D02*
X164988000Y-59400000D01*
X158988000Y-57700000D02*
G75*
G02*
X160488000Y-59200000I0J-1500000D01*
G01*
X160488000Y-55200000D02*
G75*
G02*
X159988000Y-54700000I0J500000D01*
G01*
%TO.C,SW5*%
X137954000Y-51320000D02*
X138454000Y-50820000D01*
X137954000Y-54820000D02*
X138454000Y-55320000D01*
X138454000Y-50820000D02*
X141454000Y-50820000D01*
X138454000Y-55320000D02*
X140954000Y-55320000D01*
X141454000Y-50820000D02*
X141954000Y-51320000D01*
X141954000Y-52320000D02*
X141954000Y-51320000D01*
X142454000Y-56820000D02*
X142454000Y-57520000D01*
X142454000Y-57520000D02*
X146954000Y-57520000D01*
X146954000Y-52820000D02*
X142454000Y-52820000D01*
X146954000Y-53420000D02*
X146954000Y-52820000D01*
X146954000Y-57520000D02*
X146954000Y-57020000D01*
X140954000Y-55320000D02*
G75*
G02*
X142454000Y-56820000I0J-1500000D01*
G01*
X142454000Y-52820000D02*
G75*
G02*
X141954000Y-52320000I0J500000D01*
G01*
%TO.C,SW4*%
X119910000Y-48960000D02*
X120410000Y-48460000D01*
X119910000Y-52460000D02*
X120410000Y-52960000D01*
X120410000Y-48460000D02*
X123410000Y-48460000D01*
X120410000Y-52960000D02*
X122910000Y-52960000D01*
X123410000Y-48460000D02*
X123910000Y-48960000D01*
X123910000Y-49960000D02*
X123910000Y-48960000D01*
X124410000Y-54460000D02*
X124410000Y-55160000D01*
X124410000Y-55160000D02*
X128910000Y-55160000D01*
X128910000Y-50460000D02*
X124410000Y-50460000D01*
X128910000Y-51060000D02*
X128910000Y-50460000D01*
X128910000Y-55160000D02*
X128910000Y-54660000D01*
X122910000Y-52960000D02*
G75*
G02*
X124410000Y-54460000I0J-1500000D01*
G01*
X124410000Y-50460000D02*
G75*
G02*
X123910000Y-49960000I0J500000D01*
G01*
%TO.C,SW3*%
X101910000Y-51320000D02*
X102410000Y-50820000D01*
X101910000Y-54820000D02*
X102410000Y-55320000D01*
X102410000Y-50820000D02*
X105410000Y-50820000D01*
X102410000Y-55320000D02*
X104910000Y-55320000D01*
X105410000Y-50820000D02*
X105910000Y-51320000D01*
X105910000Y-52320000D02*
X105910000Y-51320000D01*
X106410000Y-56820000D02*
X106410000Y-57520000D01*
X106410000Y-57520000D02*
X110910000Y-57520000D01*
X110910000Y-52820000D02*
X106410000Y-52820000D01*
X110910000Y-53420000D02*
X110910000Y-52820000D01*
X110910000Y-57520000D02*
X110910000Y-57020000D01*
X104910000Y-55320000D02*
G75*
G02*
X106410000Y-56820000I0J-1500000D01*
G01*
X106410000Y-52820000D02*
G75*
G02*
X105910000Y-52320000I0J500000D01*
G01*
%TO.C,SW2*%
X83910000Y-57880000D02*
X84410000Y-57380000D01*
X83910000Y-61380000D02*
X84410000Y-61880000D01*
X84410000Y-57380000D02*
X87410000Y-57380000D01*
X84410000Y-61880000D02*
X86910000Y-61880000D01*
X87410000Y-57380000D02*
X87910000Y-57880000D01*
X87910000Y-58880000D02*
X87910000Y-57880000D01*
X88410000Y-63380000D02*
X88410000Y-64080000D01*
X88410000Y-64080000D02*
X92910000Y-64080000D01*
X92910000Y-59380000D02*
X88410000Y-59380000D01*
X92910000Y-59980000D02*
X92910000Y-59380000D01*
X92910000Y-64080000D02*
X92910000Y-63580000D01*
X86910000Y-61880000D02*
G75*
G02*
X88410000Y-63380000I0J-1500000D01*
G01*
X88410000Y-59380000D02*
G75*
G02*
X87910000Y-58880000I0J500000D01*
G01*
%TD*%
M02*
