M48
; DRILL file {KiCad 8.0.4} date 2024-09-02T16:23:28+0700
; FORMAT={-:-/ absolute / metric / decimal}
; #@! TF.CreationDate,2024-09-02T16:23:28+07:00
; #@! TF.GenerationSoftware,Kicad,Pcbnew,8.0.4
; #@! TF.FileFunction,NonPlated,1,2,NPTH
FMAT,2
METRIC
; #@! TA.AperFunction,NonPlated,NPTH,ComponentDrill
T1C0.800
; #@! TA.AperFunction,NonPlated,NPTH,ComponentDrill
T2C1.000
; #@! TA.AperFunction,NonPlated,NPTH,ComponentDrill
T3C1.600
; #@! TA.AperFunction,NonPlated,NPTH,ComponentDrill
T4C1.702
; #@! TA.AperFunction,NonPlated,NPTH,ComponentDrill
T5C3.000
; #@! TA.AperFunction,NonPlated,NPTH,ComponentDrill
T6C3.429
%
G90
G05
T1
X175.55Y-61.725
X178.55Y-61.725
T2
X186.65Y-99.4
X186.65Y-101.6
T3
X94.7Y-74.1
X103.9Y-105.4
X148.8Y-67.5
X166.4Y-107.0
T4
X80.352Y-82.55
X80.352Y-99.568
X80.41Y-65.58
X91.352Y-82.55
X91.352Y-99.568
X91.41Y-65.58
X98.37Y-76.01
X98.37Y-93.028
X98.41Y-59.02
X109.37Y-76.01
X109.37Y-93.028
X109.41Y-59.02
X116.41Y-56.66
X116.41Y-73.64
X116.41Y-90.658
X127.41Y-56.66
X127.41Y-73.64
X127.41Y-90.658
X129.07Y-111.29
X134.454Y-59.02
X134.454Y-76.032
X134.454Y-93.05
X140.07Y-111.29
X145.454Y-59.02
X145.454Y-76.032
X145.454Y-93.05
X147.374Y-113.138
X152.44Y-78.44
X152.44Y-95.458
X152.488Y-61.4
X158.0Y-115.985
X163.44Y-78.44
X163.44Y-95.458
X163.488Y-61.4
X165.207Y-119.76
X174.733Y-125.26
T5
X80.852Y-78.8
X80.852Y-95.818
X80.91Y-61.83
X85.852Y-76.6
X85.852Y-93.618
X85.91Y-59.63
X90.852Y-78.8
X90.852Y-95.818
X90.91Y-61.83
X98.87Y-72.26
X98.87Y-89.278
X98.91Y-55.27
X103.87Y-70.06
X103.87Y-87.078
X103.91Y-53.07
X108.87Y-72.26
X108.87Y-89.278
X108.91Y-55.27
X116.91Y-52.91
X116.91Y-69.89
X116.91Y-86.908
X121.91Y-50.71
X121.91Y-67.69
X121.91Y-84.708
X126.91Y-52.91
X126.91Y-69.89
X126.91Y-86.908
X129.57Y-107.54
X134.57Y-105.34
X134.954Y-55.27
X134.954Y-72.282
X134.954Y-89.3
X139.57Y-107.54
X139.954Y-53.07
X139.954Y-70.082
X139.954Y-87.1
X144.954Y-55.27
X144.954Y-72.282
X144.954Y-89.3
X148.828Y-109.645
X152.94Y-74.69
X152.94Y-91.708
X152.988Y-57.65
X154.227Y-108.814
X157.94Y-72.49
X157.94Y-89.508
X157.988Y-55.45
X158.487Y-112.233
X162.94Y-91.708
X162.94Y-74.69
X162.988Y-57.65
X167.515Y-116.763
X172.945Y-117.358
X176.175Y-121.763
T6
X85.852Y-82.55
X85.852Y-99.568
X85.91Y-65.58
X103.87Y-76.01
X103.87Y-93.028
X103.91Y-59.02
X121.91Y-56.66
X121.91Y-73.64
X121.91Y-90.658
X134.57Y-111.29
X139.954Y-59.02
X139.954Y-76.032
X139.954Y-93.05
X152.687Y-114.561
X157.94Y-78.44
X157.94Y-95.458
X157.988Y-61.4
X169.97Y-122.51
M30
