%TF.GenerationSoftware,KiCad,Pcbnew,8.0.4*%
%TF.CreationDate,2024-09-02T16:23:28+07:00*%
%TF.ProjectId,cc36,63633336-2e6b-4696-9361-645f70636258,rev?*%
%TF.SameCoordinates,Original*%
%TF.FileFunction,Drillmap*%
%TF.FilePolarity,Positive*%
%FSLAX45Y45*%
G04 Gerber Fmt 4.5, Leading zero omitted, Abs format (unit mm)*
G04 Created by KiCad (PCBNEW 8.0.4) date 2024-09-02 16:23:28*
%MOMM*%
%LPD*%
G01*
G04 APERTURE LIST*
%ADD10C,0.100000*%
%ADD11C,0.150000*%
%ADD12C,0.200000*%
%ADD13C,0.127000*%
G04 APERTURE END LIST*
D10*
X13188000Y-12179000D02*
X14313719Y-12179315D01*
D11*
X16997964Y-5989871D02*
G75*
G02*
X16950098Y-5939002I2036J49871D01*
G01*
X9349048Y-5556798D02*
G75*
G02*
X9299048Y-5606798I-49998J-2D01*
G01*
X13241400Y-4937200D02*
G75*
G02*
X13191400Y-4887200I0J50000D01*
G01*
X13141400Y-4712200D02*
G75*
G02*
X13191400Y-4762200I0J-50000D01*
G01*
X7549200Y-10871200D02*
X7550000Y-5657200D01*
X9350000Y-4987200D02*
G75*
G02*
X9400000Y-4937200I50000J0D01*
G01*
X14942400Y-4937200D02*
X13241400Y-4937200D01*
X12034281Y-10939685D02*
X7609955Y-10936645D01*
X14942400Y-4937200D02*
G75*
G02*
X14992400Y-4987200I0J-50000D01*
G01*
X13141400Y-4712200D02*
X11245400Y-4712200D01*
X11145400Y-4937200D02*
X9400000Y-4937200D01*
X11195400Y-4887200D02*
G75*
G02*
X11145400Y-4937200I-50000J0D01*
G01*
X11195400Y-4762200D02*
X11195400Y-4887200D01*
X9350000Y-4987200D02*
X9349048Y-5556798D01*
X7609955Y-10936645D02*
G75*
G02*
X7549203Y-10871200I5J60925D01*
G01*
X16900789Y-5185798D02*
X15042400Y-5187200D01*
X14313719Y-12179315D02*
X16048900Y-12678200D01*
X12034281Y-10939685D02*
X13188000Y-12179000D01*
X9299048Y-5606798D02*
X7600000Y-5607200D01*
X7550000Y-5657200D02*
G75*
G02*
X7600000Y-5607200I50000J0D01*
G01*
X18774000Y-5989871D02*
G75*
G02*
X18824005Y-6055155I-17620J-65289D01*
G01*
X17597448Y-13422798D02*
X18822448Y-11304798D01*
X11195400Y-4762200D02*
G75*
G02*
X11245400Y-4712200I50000J0D01*
G01*
X18774000Y-5989871D02*
X16997964Y-5989871D01*
X14992400Y-5137200D02*
X14992400Y-4987200D01*
X18824000Y-6055155D02*
X18822448Y-11304798D01*
X17597448Y-13422798D02*
G75*
G02*
X17404649Y-13460744I-115298J77048D01*
G01*
X15042400Y-5187200D02*
G75*
G02*
X14992400Y-5137200I0J50000D01*
G01*
X13191400Y-4887200D02*
X13191400Y-4762200D01*
X16048900Y-12678200D02*
X17404647Y-13460747D01*
X16949779Y-5225800D02*
X16950000Y-5939000D01*
X16900789Y-5185798D02*
G75*
G02*
X16949782Y-5225799I2J-50002D01*
G01*
D12*
D10*
X15460000Y-8490000D02*
X15500000Y-8530000D01*
X15500000Y-8490000D02*
X15460000Y-8530000D01*
X15780000Y-8180000D02*
X15820000Y-8220000D01*
X15820000Y-8180000D02*
X15780000Y-8220000D01*
X16070000Y-8260000D02*
X16110000Y-8300000D01*
X16110000Y-8260000D02*
X16070000Y-8300000D01*
X16070000Y-8450000D02*
X16110000Y-8490000D01*
X16110000Y-8450000D02*
X16070000Y-8490000D01*
X16600000Y-9380000D02*
X16640000Y-9420000D01*
X16640000Y-9380000D02*
X16600000Y-9420000D01*
X18510000Y-9480000D02*
X18550000Y-9520000D01*
X18550000Y-9480000D02*
X18510000Y-9520000D01*
X16956000Y-6292000D02*
G75*
G02*
X16856000Y-6292000I-50000J0D01*
G01*
X16856000Y-6292000D02*
G75*
G02*
X16956000Y-6292000I50000J0D01*
G01*
X16956000Y-6546000D02*
G75*
G02*
X16856000Y-6546000I-50000J0D01*
G01*
X16856000Y-6546000D02*
G75*
G02*
X16956000Y-6546000I50000J0D01*
G01*
X16956000Y-6800000D02*
G75*
G02*
X16856000Y-6800000I-50000J0D01*
G01*
X16856000Y-6800000D02*
G75*
G02*
X16956000Y-6800000I50000J0D01*
G01*
X16956000Y-7054000D02*
G75*
G02*
X16856000Y-7054000I-50000J0D01*
G01*
X16856000Y-7054000D02*
G75*
G02*
X16956000Y-7054000I50000J0D01*
G01*
X16956000Y-7308000D02*
G75*
G02*
X16856000Y-7308000I-50000J0D01*
G01*
X16856000Y-7308000D02*
G75*
G02*
X16956000Y-7308000I50000J0D01*
G01*
X16956000Y-7562000D02*
G75*
G02*
X16856000Y-7562000I-50000J0D01*
G01*
X16856000Y-7562000D02*
G75*
G02*
X16956000Y-7562000I50000J0D01*
G01*
X16956000Y-7816000D02*
G75*
G02*
X16856000Y-7816000I-50000J0D01*
G01*
X16856000Y-7816000D02*
G75*
G02*
X16956000Y-7816000I50000J0D01*
G01*
X16956000Y-8070000D02*
G75*
G02*
X16856000Y-8070000I-50000J0D01*
G01*
X16856000Y-8070000D02*
G75*
G02*
X16956000Y-8070000I50000J0D01*
G01*
X16956000Y-8324000D02*
G75*
G02*
X16856000Y-8324000I-50000J0D01*
G01*
X16856000Y-8324000D02*
G75*
G02*
X16956000Y-8324000I50000J0D01*
G01*
X16956000Y-8578000D02*
G75*
G02*
X16856000Y-8578000I-50000J0D01*
G01*
X16856000Y-8578000D02*
G75*
G02*
X16956000Y-8578000I50000J0D01*
G01*
X16956000Y-8832000D02*
G75*
G02*
X16856000Y-8832000I-50000J0D01*
G01*
X16856000Y-8832000D02*
G75*
G02*
X16956000Y-8832000I50000J0D01*
G01*
X16956000Y-9086000D02*
G75*
G02*
X16856000Y-9086000I-50000J0D01*
G01*
X16856000Y-9086000D02*
G75*
G02*
X16956000Y-9086000I50000J0D01*
G01*
X17205000Y-6675000D02*
G75*
G02*
X17105000Y-6675000I-50000J0D01*
G01*
X17105000Y-6675000D02*
G75*
G02*
X17205000Y-6675000I50000J0D01*
G01*
X17205000Y-6929000D02*
G75*
G02*
X17105000Y-6929000I-50000J0D01*
G01*
X17105000Y-6929000D02*
G75*
G02*
X17205000Y-6929000I50000J0D01*
G01*
X17205000Y-7183000D02*
G75*
G02*
X17105000Y-7183000I-50000J0D01*
G01*
X17105000Y-7183000D02*
G75*
G02*
X17205000Y-7183000I50000J0D01*
G01*
X17205000Y-7437000D02*
G75*
G02*
X17105000Y-7437000I-50000J0D01*
G01*
X17105000Y-7437000D02*
G75*
G02*
X17205000Y-7437000I50000J0D01*
G01*
X17205000Y-7691000D02*
G75*
G02*
X17105000Y-7691000I-50000J0D01*
G01*
X17105000Y-7691000D02*
G75*
G02*
X17205000Y-7691000I50000J0D01*
G01*
X17205000Y-7945000D02*
G75*
G02*
X17105000Y-7945000I-50000J0D01*
G01*
X17105000Y-7945000D02*
G75*
G02*
X17205000Y-7945000I50000J0D01*
G01*
X17205000Y-8199000D02*
G75*
G02*
X17105000Y-8199000I-50000J0D01*
G01*
X17105000Y-8199000D02*
G75*
G02*
X17205000Y-8199000I50000J0D01*
G01*
X17205000Y-8453000D02*
G75*
G02*
X17105000Y-8453000I-50000J0D01*
G01*
X17105000Y-8453000D02*
G75*
G02*
X17205000Y-8453000I50000J0D01*
G01*
X17205000Y-8707000D02*
G75*
G02*
X17105000Y-8707000I-50000J0D01*
G01*
X17105000Y-8707000D02*
G75*
G02*
X17205000Y-8707000I50000J0D01*
G01*
X17205000Y-8961000D02*
G75*
G02*
X17105000Y-8961000I-50000J0D01*
G01*
X17105000Y-8961000D02*
G75*
G02*
X17205000Y-8961000I50000J0D01*
G01*
X17205000Y-9215000D02*
G75*
G02*
X17105000Y-9215000I-50000J0D01*
G01*
X17105000Y-9215000D02*
G75*
G02*
X17205000Y-9215000I50000J0D01*
G01*
X17207000Y-6418000D02*
G75*
G02*
X17107000Y-6418000I-50000J0D01*
G01*
X17107000Y-6418000D02*
G75*
G02*
X17207000Y-6418000I50000J0D01*
G01*
X17763000Y-6890000D02*
G75*
G02*
X17663000Y-6890000I-50000J0D01*
G01*
X17663000Y-6890000D02*
G75*
G02*
X17763000Y-6890000I50000J0D01*
G01*
X18017000Y-6890000D02*
G75*
G02*
X17917000Y-6890000I-50000J0D01*
G01*
X17917000Y-6890000D02*
G75*
G02*
X18017000Y-6890000I50000J0D01*
G01*
X18478000Y-6289000D02*
G75*
G02*
X18378000Y-6289000I-50000J0D01*
G01*
X18378000Y-6289000D02*
G75*
G02*
X18478000Y-6289000I50000J0D01*
G01*
X18480000Y-6546000D02*
G75*
G02*
X18380000Y-6546000I-50000J0D01*
G01*
X18380000Y-6546000D02*
G75*
G02*
X18480000Y-6546000I50000J0D01*
G01*
X18480000Y-6800000D02*
G75*
G02*
X18380000Y-6800000I-50000J0D01*
G01*
X18380000Y-6800000D02*
G75*
G02*
X18480000Y-6800000I50000J0D01*
G01*
X18480000Y-7054000D02*
G75*
G02*
X18380000Y-7054000I-50000J0D01*
G01*
X18380000Y-7054000D02*
G75*
G02*
X18480000Y-7054000I50000J0D01*
G01*
X18480000Y-7308000D02*
G75*
G02*
X18380000Y-7308000I-50000J0D01*
G01*
X18380000Y-7308000D02*
G75*
G02*
X18480000Y-7308000I50000J0D01*
G01*
X18480000Y-7562000D02*
G75*
G02*
X18380000Y-7562000I-50000J0D01*
G01*
X18380000Y-7562000D02*
G75*
G02*
X18480000Y-7562000I50000J0D01*
G01*
X18480000Y-7816000D02*
G75*
G02*
X18380000Y-7816000I-50000J0D01*
G01*
X18380000Y-7816000D02*
G75*
G02*
X18480000Y-7816000I50000J0D01*
G01*
X18480000Y-8070000D02*
G75*
G02*
X18380000Y-8070000I-50000J0D01*
G01*
X18380000Y-8070000D02*
G75*
G02*
X18480000Y-8070000I50000J0D01*
G01*
X18480000Y-8324000D02*
G75*
G02*
X18380000Y-8324000I-50000J0D01*
G01*
X18380000Y-8324000D02*
G75*
G02*
X18480000Y-8324000I50000J0D01*
G01*
X18480000Y-8578000D02*
G75*
G02*
X18380000Y-8578000I-50000J0D01*
G01*
X18380000Y-8578000D02*
G75*
G02*
X18480000Y-8578000I50000J0D01*
G01*
X18480000Y-8832000D02*
G75*
G02*
X18380000Y-8832000I-50000J0D01*
G01*
X18380000Y-8832000D02*
G75*
G02*
X18480000Y-8832000I50000J0D01*
G01*
X18480000Y-9086000D02*
G75*
G02*
X18380000Y-9086000I-50000J0D01*
G01*
X18380000Y-9086000D02*
G75*
G02*
X18480000Y-9086000I50000J0D01*
G01*
X18729000Y-6421000D02*
G75*
G02*
X18629000Y-6421000I-50000J0D01*
G01*
X18629000Y-6421000D02*
G75*
G02*
X18729000Y-6421000I50000J0D01*
G01*
X18729000Y-6675000D02*
G75*
G02*
X18629000Y-6675000I-50000J0D01*
G01*
X18629000Y-6675000D02*
G75*
G02*
X18729000Y-6675000I50000J0D01*
G01*
X18729000Y-6929000D02*
G75*
G02*
X18629000Y-6929000I-50000J0D01*
G01*
X18629000Y-6929000D02*
G75*
G02*
X18729000Y-6929000I50000J0D01*
G01*
X18729000Y-7183000D02*
G75*
G02*
X18629000Y-7183000I-50000J0D01*
G01*
X18629000Y-7183000D02*
G75*
G02*
X18729000Y-7183000I50000J0D01*
G01*
X18729000Y-7437000D02*
G75*
G02*
X18629000Y-7437000I-50000J0D01*
G01*
X18629000Y-7437000D02*
G75*
G02*
X18729000Y-7437000I50000J0D01*
G01*
X18729000Y-7691000D02*
G75*
G02*
X18629000Y-7691000I-50000J0D01*
G01*
X18629000Y-7691000D02*
G75*
G02*
X18729000Y-7691000I50000J0D01*
G01*
X18729000Y-7945000D02*
G75*
G02*
X18629000Y-7945000I-50000J0D01*
G01*
X18629000Y-7945000D02*
G75*
G02*
X18729000Y-7945000I50000J0D01*
G01*
X18729000Y-8199000D02*
G75*
G02*
X18629000Y-8199000I-50000J0D01*
G01*
X18629000Y-8199000D02*
G75*
G02*
X18729000Y-8199000I50000J0D01*
G01*
X18729000Y-8453000D02*
G75*
G02*
X18629000Y-8453000I-50000J0D01*
G01*
X18629000Y-8453000D02*
G75*
G02*
X18729000Y-8453000I50000J0D01*
G01*
X18729000Y-8707000D02*
G75*
G02*
X18629000Y-8707000I-50000J0D01*
G01*
X18629000Y-8707000D02*
G75*
G02*
X18729000Y-8707000I50000J0D01*
G01*
X18729000Y-8961000D02*
G75*
G02*
X18629000Y-8961000I-50000J0D01*
G01*
X18629000Y-8961000D02*
G75*
G02*
X18729000Y-8961000I50000J0D01*
G01*
X18729000Y-9215000D02*
G75*
G02*
X18629000Y-9215000I-50000J0D01*
G01*
X18629000Y-9215000D02*
G75*
G02*
X18729000Y-9215000I50000J0D01*
G01*
D13*
X8085200Y-8571500D02*
X8085200Y-8698500D01*
X8021700Y-8635000D02*
X8148700Y-8635000D01*
X8085200Y-10273300D02*
X8085200Y-10400300D01*
X8021700Y-10336800D02*
X8148700Y-10336800D01*
X8091000Y-6874500D02*
X8091000Y-7001500D01*
X8027500Y-6938000D02*
X8154500Y-6938000D01*
X8585200Y-8781500D02*
X8585200Y-8908500D01*
X8521700Y-8845000D02*
X8648700Y-8845000D01*
X8585200Y-10483300D02*
X8585200Y-10610300D01*
X8521700Y-10546800D02*
X8648700Y-10546800D01*
X8591000Y-7084500D02*
X8591000Y-7211500D01*
X8527500Y-7148000D02*
X8654500Y-7148000D01*
X9085200Y-8571500D02*
X9085200Y-8698500D01*
X9021700Y-8635000D02*
X9148700Y-8635000D01*
X9085200Y-10273300D02*
X9085200Y-10400300D01*
X9021700Y-10336800D02*
X9148700Y-10336800D01*
X9091000Y-6874500D02*
X9091000Y-7001500D01*
X9027500Y-6938000D02*
X9154500Y-6938000D01*
X9887000Y-7917500D02*
X9887000Y-8044500D01*
X9823500Y-7981000D02*
X9950500Y-7981000D01*
X9887000Y-9619300D02*
X9887000Y-9746300D01*
X9823500Y-9682800D02*
X9950500Y-9682800D01*
X9891000Y-6218500D02*
X9891000Y-6345500D01*
X9827500Y-6282000D02*
X9954500Y-6282000D01*
X10387000Y-8127500D02*
X10387000Y-8254500D01*
X10323500Y-8191000D02*
X10450500Y-8191000D01*
X10387000Y-9829300D02*
X10387000Y-9956300D01*
X10323500Y-9892800D02*
X10450500Y-9892800D01*
X10391000Y-6428500D02*
X10391000Y-6555500D01*
X10327500Y-6492000D02*
X10454500Y-6492000D01*
X10887000Y-7917500D02*
X10887000Y-8044500D01*
X10823500Y-7981000D02*
X10950500Y-7981000D01*
X10887000Y-9619300D02*
X10887000Y-9746300D01*
X10823500Y-9682800D02*
X10950500Y-9682800D01*
X10891000Y-6218500D02*
X10891000Y-6345500D01*
X10827500Y-6282000D02*
X10954500Y-6282000D01*
X11691000Y-5982500D02*
X11691000Y-6109500D01*
X11627500Y-6046000D02*
X11754500Y-6046000D01*
X11691000Y-7680500D02*
X11691000Y-7807500D01*
X11627500Y-7744000D02*
X11754500Y-7744000D01*
X11691000Y-9382300D02*
X11691000Y-9509300D01*
X11627500Y-9445800D02*
X11754500Y-9445800D01*
X12191000Y-6192500D02*
X12191000Y-6319500D01*
X12127500Y-6256000D02*
X12254500Y-6256000D01*
X12191000Y-7890500D02*
X12191000Y-8017500D01*
X12127500Y-7954000D02*
X12254500Y-7954000D01*
X12191000Y-9592300D02*
X12191000Y-9719300D01*
X12127500Y-9655800D02*
X12254500Y-9655800D01*
X12691000Y-5982500D02*
X12691000Y-6109500D01*
X12627500Y-6046000D02*
X12754500Y-6046000D01*
X12691000Y-7680500D02*
X12691000Y-7807500D01*
X12627500Y-7744000D02*
X12754500Y-7744000D01*
X12691000Y-9382300D02*
X12691000Y-9509300D01*
X12627500Y-9445800D02*
X12754500Y-9445800D01*
X12957000Y-11445500D02*
X12957000Y-11572500D01*
X12893500Y-11509000D02*
X13020500Y-11509000D01*
X13457000Y-11655500D02*
X13457000Y-11782500D01*
X13393500Y-11719000D02*
X13520500Y-11719000D01*
X13495400Y-6218500D02*
X13495400Y-6345500D01*
X13431900Y-6282000D02*
X13558900Y-6282000D01*
X13495400Y-7919700D02*
X13495400Y-8046700D01*
X13431900Y-7983200D02*
X13558900Y-7983200D01*
X13495400Y-9621500D02*
X13495400Y-9748500D01*
X13431900Y-9685000D02*
X13558900Y-9685000D01*
X13957000Y-11445500D02*
X13957000Y-11572500D01*
X13893500Y-11509000D02*
X14020500Y-11509000D01*
X13995400Y-6428500D02*
X13995400Y-6555500D01*
X13931900Y-6492000D02*
X14058900Y-6492000D01*
X13995400Y-8129700D02*
X13995400Y-8256700D01*
X13931900Y-8193200D02*
X14058900Y-8193200D01*
X13995400Y-9831500D02*
X13995400Y-9958500D01*
X13931900Y-9895000D02*
X14058900Y-9895000D01*
X14495400Y-6218500D02*
X14495400Y-6345500D01*
X14431900Y-6282000D02*
X14558900Y-6282000D01*
X14495400Y-7919700D02*
X14495400Y-8046700D01*
X14431900Y-7983200D02*
X14558900Y-7983200D01*
X14495400Y-9621500D02*
X14495400Y-9748500D01*
X14431900Y-9685000D02*
X14558900Y-9685000D01*
X14687389Y-11630246D02*
X14687389Y-11757246D01*
X14623889Y-11693746D02*
X14750889Y-11693746D01*
X15116000Y-11962500D02*
X15116000Y-12089500D01*
X15052500Y-12026000D02*
X15179500Y-12026000D01*
X15294000Y-8160500D02*
X15294000Y-8287500D01*
X15230500Y-8224000D02*
X15357500Y-8224000D01*
X15294000Y-9862300D02*
X15294000Y-9989300D01*
X15230500Y-9925800D02*
X15357500Y-9925800D01*
X15298800Y-6456500D02*
X15298800Y-6583500D01*
X15235300Y-6520000D02*
X15362300Y-6520000D01*
X15653315Y-11889065D02*
X15653315Y-12016065D01*
X15589815Y-11952565D02*
X15716815Y-11952565D01*
X15794000Y-8370500D02*
X15794000Y-8497500D01*
X15730500Y-8434000D02*
X15857500Y-8434000D01*
X15794000Y-10072300D02*
X15794000Y-10199300D01*
X15730500Y-10135800D02*
X15857500Y-10135800D01*
X15798800Y-6666500D02*
X15798800Y-6793500D01*
X15735300Y-6730000D02*
X15862300Y-6730000D01*
X16294000Y-8160500D02*
X16294000Y-8287500D01*
X16230500Y-8224000D02*
X16357500Y-8224000D01*
X16294000Y-9862300D02*
X16294000Y-9989300D01*
X16230500Y-9925800D02*
X16357500Y-9925800D01*
X16298800Y-6456500D02*
X16298800Y-6583500D01*
X16235300Y-6520000D02*
X16362300Y-6520000D01*
X16373987Y-12266635D02*
X16373987Y-12393635D01*
X16310487Y-12330135D02*
X16437487Y-12330135D01*
X16702000Y-12698500D02*
X16702000Y-12825500D01*
X16638500Y-12762000D02*
X16765500Y-12762000D01*
X17240013Y-12766635D02*
X17240013Y-12893635D01*
X17176513Y-12830135D02*
X17303513Y-12830135D01*
D12*
X7802312Y-13803406D02*
X7802312Y-13603406D01*
X7802312Y-13603406D02*
X7849931Y-13603406D01*
X7849931Y-13603406D02*
X7878503Y-13612930D01*
X7878503Y-13612930D02*
X7897550Y-13631978D01*
X7897550Y-13631978D02*
X7907074Y-13651025D01*
X7907074Y-13651025D02*
X7916598Y-13689120D01*
X7916598Y-13689120D02*
X7916598Y-13717692D01*
X7916598Y-13717692D02*
X7907074Y-13755787D01*
X7907074Y-13755787D02*
X7897550Y-13774835D01*
X7897550Y-13774835D02*
X7878503Y-13793882D01*
X7878503Y-13793882D02*
X7849931Y-13803406D01*
X7849931Y-13803406D02*
X7802312Y-13803406D01*
X8002312Y-13803406D02*
X8002312Y-13670073D01*
X8002312Y-13708168D02*
X8011836Y-13689120D01*
X8011836Y-13689120D02*
X8021360Y-13679597D01*
X8021360Y-13679597D02*
X8040407Y-13670073D01*
X8040407Y-13670073D02*
X8059455Y-13670073D01*
X8126122Y-13803406D02*
X8126122Y-13670073D01*
X8126122Y-13603406D02*
X8116598Y-13612930D01*
X8116598Y-13612930D02*
X8126122Y-13622454D01*
X8126122Y-13622454D02*
X8135645Y-13612930D01*
X8135645Y-13612930D02*
X8126122Y-13603406D01*
X8126122Y-13603406D02*
X8126122Y-13622454D01*
X8249931Y-13803406D02*
X8230883Y-13793882D01*
X8230883Y-13793882D02*
X8221360Y-13774835D01*
X8221360Y-13774835D02*
X8221360Y-13603406D01*
X8354693Y-13803406D02*
X8335645Y-13793882D01*
X8335645Y-13793882D02*
X8326122Y-13774835D01*
X8326122Y-13774835D02*
X8326122Y-13603406D01*
X8583265Y-13803406D02*
X8583265Y-13603406D01*
X8583265Y-13603406D02*
X8649931Y-13746263D01*
X8649931Y-13746263D02*
X8716598Y-13603406D01*
X8716598Y-13603406D02*
X8716598Y-13803406D01*
X8897550Y-13803406D02*
X8897550Y-13698644D01*
X8897550Y-13698644D02*
X8888026Y-13679597D01*
X8888026Y-13679597D02*
X8868979Y-13670073D01*
X8868979Y-13670073D02*
X8830884Y-13670073D01*
X8830884Y-13670073D02*
X8811836Y-13679597D01*
X8897550Y-13793882D02*
X8878503Y-13803406D01*
X8878503Y-13803406D02*
X8830884Y-13803406D01*
X8830884Y-13803406D02*
X8811836Y-13793882D01*
X8811836Y-13793882D02*
X8802312Y-13774835D01*
X8802312Y-13774835D02*
X8802312Y-13755787D01*
X8802312Y-13755787D02*
X8811836Y-13736739D01*
X8811836Y-13736739D02*
X8830884Y-13727216D01*
X8830884Y-13727216D02*
X8878503Y-13727216D01*
X8878503Y-13727216D02*
X8897550Y-13717692D01*
X8992788Y-13670073D02*
X8992788Y-13870073D01*
X8992788Y-13679597D02*
X9011836Y-13670073D01*
X9011836Y-13670073D02*
X9049931Y-13670073D01*
X9049931Y-13670073D02*
X9068979Y-13679597D01*
X9068979Y-13679597D02*
X9078503Y-13689120D01*
X9078503Y-13689120D02*
X9088026Y-13708168D01*
X9088026Y-13708168D02*
X9088026Y-13765311D01*
X9088026Y-13765311D02*
X9078503Y-13784358D01*
X9078503Y-13784358D02*
X9068979Y-13793882D01*
X9068979Y-13793882D02*
X9049931Y-13803406D01*
X9049931Y-13803406D02*
X9011836Y-13803406D01*
X9011836Y-13803406D02*
X8992788Y-13793882D01*
X9173741Y-13784358D02*
X9183265Y-13793882D01*
X9183265Y-13793882D02*
X9173741Y-13803406D01*
X9173741Y-13803406D02*
X9164217Y-13793882D01*
X9164217Y-13793882D02*
X9173741Y-13784358D01*
X9173741Y-13784358D02*
X9173741Y-13803406D01*
X9173741Y-13679597D02*
X9183265Y-13689120D01*
X9183265Y-13689120D02*
X9173741Y-13698644D01*
X9173741Y-13698644D02*
X9164217Y-13689120D01*
X9164217Y-13689120D02*
X9173741Y-13679597D01*
X9173741Y-13679597D02*
X9173741Y-13698644D01*
D10*
X7501535Y-14111922D02*
X7541535Y-14151922D01*
X7541535Y-14111922D02*
X7501535Y-14151922D01*
D12*
X7840407Y-14023406D02*
X7859455Y-14023406D01*
X7859455Y-14023406D02*
X7878503Y-14032930D01*
X7878503Y-14032930D02*
X7888026Y-14042454D01*
X7888026Y-14042454D02*
X7897550Y-14061501D01*
X7897550Y-14061501D02*
X7907074Y-14099597D01*
X7907074Y-14099597D02*
X7907074Y-14147216D01*
X7907074Y-14147216D02*
X7897550Y-14185311D01*
X7897550Y-14185311D02*
X7888026Y-14204358D01*
X7888026Y-14204358D02*
X7878503Y-14213882D01*
X7878503Y-14213882D02*
X7859455Y-14223406D01*
X7859455Y-14223406D02*
X7840407Y-14223406D01*
X7840407Y-14223406D02*
X7821360Y-14213882D01*
X7821360Y-14213882D02*
X7811836Y-14204358D01*
X7811836Y-14204358D02*
X7802312Y-14185311D01*
X7802312Y-14185311D02*
X7792788Y-14147216D01*
X7792788Y-14147216D02*
X7792788Y-14099597D01*
X7792788Y-14099597D02*
X7802312Y-14061501D01*
X7802312Y-14061501D02*
X7811836Y-14042454D01*
X7811836Y-14042454D02*
X7821360Y-14032930D01*
X7821360Y-14032930D02*
X7840407Y-14023406D01*
X7992788Y-14204358D02*
X8002312Y-14213882D01*
X8002312Y-14213882D02*
X7992788Y-14223406D01*
X7992788Y-14223406D02*
X7983264Y-14213882D01*
X7983264Y-14213882D02*
X7992788Y-14204358D01*
X7992788Y-14204358D02*
X7992788Y-14223406D01*
X8173741Y-14090073D02*
X8173741Y-14223406D01*
X8126122Y-14013882D02*
X8078503Y-14156739D01*
X8078503Y-14156739D02*
X8202312Y-14156739D01*
X8316598Y-14023406D02*
X8335645Y-14023406D01*
X8335645Y-14023406D02*
X8354693Y-14032930D01*
X8354693Y-14032930D02*
X8364217Y-14042454D01*
X8364217Y-14042454D02*
X8373741Y-14061501D01*
X8373741Y-14061501D02*
X8383264Y-14099597D01*
X8383264Y-14099597D02*
X8383264Y-14147216D01*
X8383264Y-14147216D02*
X8373741Y-14185311D01*
X8373741Y-14185311D02*
X8364217Y-14204358D01*
X8364217Y-14204358D02*
X8354693Y-14213882D01*
X8354693Y-14213882D02*
X8335645Y-14223406D01*
X8335645Y-14223406D02*
X8316598Y-14223406D01*
X8316598Y-14223406D02*
X8297550Y-14213882D01*
X8297550Y-14213882D02*
X8288026Y-14204358D01*
X8288026Y-14204358D02*
X8278503Y-14185311D01*
X8278503Y-14185311D02*
X8268979Y-14147216D01*
X8268979Y-14147216D02*
X8268979Y-14099597D01*
X8268979Y-14099597D02*
X8278503Y-14061501D01*
X8278503Y-14061501D02*
X8288026Y-14042454D01*
X8288026Y-14042454D02*
X8297550Y-14032930D01*
X8297550Y-14032930D02*
X8316598Y-14023406D01*
X8507074Y-14023406D02*
X8526122Y-14023406D01*
X8526122Y-14023406D02*
X8545169Y-14032930D01*
X8545169Y-14032930D02*
X8554693Y-14042454D01*
X8554693Y-14042454D02*
X8564217Y-14061501D01*
X8564217Y-14061501D02*
X8573741Y-14099597D01*
X8573741Y-14099597D02*
X8573741Y-14147216D01*
X8573741Y-14147216D02*
X8564217Y-14185311D01*
X8564217Y-14185311D02*
X8554693Y-14204358D01*
X8554693Y-14204358D02*
X8545169Y-14213882D01*
X8545169Y-14213882D02*
X8526122Y-14223406D01*
X8526122Y-14223406D02*
X8507074Y-14223406D01*
X8507074Y-14223406D02*
X8488026Y-14213882D01*
X8488026Y-14213882D02*
X8478503Y-14204358D01*
X8478503Y-14204358D02*
X8468979Y-14185311D01*
X8468979Y-14185311D02*
X8459455Y-14147216D01*
X8459455Y-14147216D02*
X8459455Y-14099597D01*
X8459455Y-14099597D02*
X8468979Y-14061501D01*
X8468979Y-14061501D02*
X8478503Y-14042454D01*
X8478503Y-14042454D02*
X8488026Y-14032930D01*
X8488026Y-14032930D02*
X8507074Y-14023406D01*
X8659455Y-14223406D02*
X8659455Y-14090073D01*
X8659455Y-14109120D02*
X8668979Y-14099597D01*
X8668979Y-14099597D02*
X8688026Y-14090073D01*
X8688026Y-14090073D02*
X8716598Y-14090073D01*
X8716598Y-14090073D02*
X8735646Y-14099597D01*
X8735646Y-14099597D02*
X8745169Y-14118644D01*
X8745169Y-14118644D02*
X8745169Y-14223406D01*
X8745169Y-14118644D02*
X8754693Y-14099597D01*
X8754693Y-14099597D02*
X8773741Y-14090073D01*
X8773741Y-14090073D02*
X8802312Y-14090073D01*
X8802312Y-14090073D02*
X8821360Y-14099597D01*
X8821360Y-14099597D02*
X8830884Y-14118644D01*
X8830884Y-14118644D02*
X8830884Y-14223406D01*
X8926122Y-14223406D02*
X8926122Y-14090073D01*
X8926122Y-14109120D02*
X8935646Y-14099597D01*
X8935646Y-14099597D02*
X8954693Y-14090073D01*
X8954693Y-14090073D02*
X8983265Y-14090073D01*
X8983265Y-14090073D02*
X9002312Y-14099597D01*
X9002312Y-14099597D02*
X9011836Y-14118644D01*
X9011836Y-14118644D02*
X9011836Y-14223406D01*
X9011836Y-14118644D02*
X9021360Y-14099597D01*
X9021360Y-14099597D02*
X9040407Y-14090073D01*
X9040407Y-14090073D02*
X9068979Y-14090073D01*
X9068979Y-14090073D02*
X9088027Y-14099597D01*
X9088027Y-14099597D02*
X9097550Y-14118644D01*
X9097550Y-14118644D02*
X9097550Y-14223406D01*
X9488027Y-14013882D02*
X9316598Y-14271025D01*
X9745169Y-14023406D02*
X9764217Y-14023406D01*
X9764217Y-14023406D02*
X9783265Y-14032930D01*
X9783265Y-14032930D02*
X9792789Y-14042454D01*
X9792789Y-14042454D02*
X9802312Y-14061501D01*
X9802312Y-14061501D02*
X9811836Y-14099597D01*
X9811836Y-14099597D02*
X9811836Y-14147216D01*
X9811836Y-14147216D02*
X9802312Y-14185311D01*
X9802312Y-14185311D02*
X9792789Y-14204358D01*
X9792789Y-14204358D02*
X9783265Y-14213882D01*
X9783265Y-14213882D02*
X9764217Y-14223406D01*
X9764217Y-14223406D02*
X9745169Y-14223406D01*
X9745169Y-14223406D02*
X9726122Y-14213882D01*
X9726122Y-14213882D02*
X9716598Y-14204358D01*
X9716598Y-14204358D02*
X9707074Y-14185311D01*
X9707074Y-14185311D02*
X9697550Y-14147216D01*
X9697550Y-14147216D02*
X9697550Y-14099597D01*
X9697550Y-14099597D02*
X9707074Y-14061501D01*
X9707074Y-14061501D02*
X9716598Y-14042454D01*
X9716598Y-14042454D02*
X9726122Y-14032930D01*
X9726122Y-14032930D02*
X9745169Y-14023406D01*
X9897550Y-14204358D02*
X9907074Y-14213882D01*
X9907074Y-14213882D02*
X9897550Y-14223406D01*
X9897550Y-14223406D02*
X9888027Y-14213882D01*
X9888027Y-14213882D02*
X9897550Y-14204358D01*
X9897550Y-14204358D02*
X9897550Y-14223406D01*
X10030884Y-14023406D02*
X10049931Y-14023406D01*
X10049931Y-14023406D02*
X10068979Y-14032930D01*
X10068979Y-14032930D02*
X10078503Y-14042454D01*
X10078503Y-14042454D02*
X10088027Y-14061501D01*
X10088027Y-14061501D02*
X10097550Y-14099597D01*
X10097550Y-14099597D02*
X10097550Y-14147216D01*
X10097550Y-14147216D02*
X10088027Y-14185311D01*
X10088027Y-14185311D02*
X10078503Y-14204358D01*
X10078503Y-14204358D02*
X10068979Y-14213882D01*
X10068979Y-14213882D02*
X10049931Y-14223406D01*
X10049931Y-14223406D02*
X10030884Y-14223406D01*
X10030884Y-14223406D02*
X10011836Y-14213882D01*
X10011836Y-14213882D02*
X10002312Y-14204358D01*
X10002312Y-14204358D02*
X9992789Y-14185311D01*
X9992789Y-14185311D02*
X9983265Y-14147216D01*
X9983265Y-14147216D02*
X9983265Y-14099597D01*
X9983265Y-14099597D02*
X9992789Y-14061501D01*
X9992789Y-14061501D02*
X10002312Y-14042454D01*
X10002312Y-14042454D02*
X10011836Y-14032930D01*
X10011836Y-14032930D02*
X10030884Y-14023406D01*
X10288027Y-14223406D02*
X10173741Y-14223406D01*
X10230884Y-14223406D02*
X10230884Y-14023406D01*
X10230884Y-14023406D02*
X10211836Y-14051978D01*
X10211836Y-14051978D02*
X10192789Y-14071025D01*
X10192789Y-14071025D02*
X10173741Y-14080549D01*
X10468979Y-14023406D02*
X10373741Y-14023406D01*
X10373741Y-14023406D02*
X10364217Y-14118644D01*
X10364217Y-14118644D02*
X10373741Y-14109120D01*
X10373741Y-14109120D02*
X10392789Y-14099597D01*
X10392789Y-14099597D02*
X10440408Y-14099597D01*
X10440408Y-14099597D02*
X10459455Y-14109120D01*
X10459455Y-14109120D02*
X10468979Y-14118644D01*
X10468979Y-14118644D02*
X10478503Y-14137692D01*
X10478503Y-14137692D02*
X10478503Y-14185311D01*
X10478503Y-14185311D02*
X10468979Y-14204358D01*
X10468979Y-14204358D02*
X10459455Y-14213882D01*
X10459455Y-14213882D02*
X10440408Y-14223406D01*
X10440408Y-14223406D02*
X10392789Y-14223406D01*
X10392789Y-14223406D02*
X10373741Y-14213882D01*
X10373741Y-14213882D02*
X10364217Y-14204358D01*
X10545170Y-14023406D02*
X10678503Y-14023406D01*
X10678503Y-14023406D02*
X10592789Y-14223406D01*
X10745170Y-14023406D02*
X10745170Y-14061501D01*
X10821360Y-14023406D02*
X10821360Y-14061501D01*
X11116598Y-14299597D02*
X11107074Y-14290073D01*
X11107074Y-14290073D02*
X11088027Y-14261501D01*
X11088027Y-14261501D02*
X11078503Y-14242454D01*
X11078503Y-14242454D02*
X11068979Y-14213882D01*
X11068979Y-14213882D02*
X11059455Y-14166263D01*
X11059455Y-14166263D02*
X11059455Y-14128168D01*
X11059455Y-14128168D02*
X11068979Y-14080549D01*
X11068979Y-14080549D02*
X11078503Y-14051978D01*
X11078503Y-14051978D02*
X11088027Y-14032930D01*
X11088027Y-14032930D02*
X11107074Y-14004358D01*
X11107074Y-14004358D02*
X11116598Y-13994835D01*
X11278503Y-14023406D02*
X11240408Y-14023406D01*
X11240408Y-14023406D02*
X11221360Y-14032930D01*
X11221360Y-14032930D02*
X11211836Y-14042454D01*
X11211836Y-14042454D02*
X11192789Y-14071025D01*
X11192789Y-14071025D02*
X11183265Y-14109120D01*
X11183265Y-14109120D02*
X11183265Y-14185311D01*
X11183265Y-14185311D02*
X11192789Y-14204358D01*
X11192789Y-14204358D02*
X11202312Y-14213882D01*
X11202312Y-14213882D02*
X11221360Y-14223406D01*
X11221360Y-14223406D02*
X11259455Y-14223406D01*
X11259455Y-14223406D02*
X11278503Y-14213882D01*
X11278503Y-14213882D02*
X11288027Y-14204358D01*
X11288027Y-14204358D02*
X11297550Y-14185311D01*
X11297550Y-14185311D02*
X11297550Y-14137692D01*
X11297550Y-14137692D02*
X11288027Y-14118644D01*
X11288027Y-14118644D02*
X11278503Y-14109120D01*
X11278503Y-14109120D02*
X11259455Y-14099597D01*
X11259455Y-14099597D02*
X11221360Y-14099597D01*
X11221360Y-14099597D02*
X11202312Y-14109120D01*
X11202312Y-14109120D02*
X11192789Y-14118644D01*
X11192789Y-14118644D02*
X11183265Y-14137692D01*
X11535646Y-14223406D02*
X11535646Y-14023406D01*
X11621360Y-14223406D02*
X11621360Y-14118644D01*
X11621360Y-14118644D02*
X11611836Y-14099597D01*
X11611836Y-14099597D02*
X11592789Y-14090073D01*
X11592789Y-14090073D02*
X11564217Y-14090073D01*
X11564217Y-14090073D02*
X11545170Y-14099597D01*
X11545170Y-14099597D02*
X11535646Y-14109120D01*
X11745170Y-14223406D02*
X11726122Y-14213882D01*
X11726122Y-14213882D02*
X11716598Y-14204358D01*
X11716598Y-14204358D02*
X11707074Y-14185311D01*
X11707074Y-14185311D02*
X11707074Y-14128168D01*
X11707074Y-14128168D02*
X11716598Y-14109120D01*
X11716598Y-14109120D02*
X11726122Y-14099597D01*
X11726122Y-14099597D02*
X11745170Y-14090073D01*
X11745170Y-14090073D02*
X11773741Y-14090073D01*
X11773741Y-14090073D02*
X11792789Y-14099597D01*
X11792789Y-14099597D02*
X11802312Y-14109120D01*
X11802312Y-14109120D02*
X11811836Y-14128168D01*
X11811836Y-14128168D02*
X11811836Y-14185311D01*
X11811836Y-14185311D02*
X11802312Y-14204358D01*
X11802312Y-14204358D02*
X11792789Y-14213882D01*
X11792789Y-14213882D02*
X11773741Y-14223406D01*
X11773741Y-14223406D02*
X11745170Y-14223406D01*
X11926122Y-14223406D02*
X11907074Y-14213882D01*
X11907074Y-14213882D02*
X11897551Y-14194835D01*
X11897551Y-14194835D02*
X11897551Y-14023406D01*
X12078503Y-14213882D02*
X12059455Y-14223406D01*
X12059455Y-14223406D02*
X12021360Y-14223406D01*
X12021360Y-14223406D02*
X12002312Y-14213882D01*
X12002312Y-14213882D02*
X11992789Y-14194835D01*
X11992789Y-14194835D02*
X11992789Y-14118644D01*
X11992789Y-14118644D02*
X12002312Y-14099597D01*
X12002312Y-14099597D02*
X12021360Y-14090073D01*
X12021360Y-14090073D02*
X12059455Y-14090073D01*
X12059455Y-14090073D02*
X12078503Y-14099597D01*
X12078503Y-14099597D02*
X12088027Y-14118644D01*
X12088027Y-14118644D02*
X12088027Y-14137692D01*
X12088027Y-14137692D02*
X11992789Y-14156739D01*
X12164217Y-14213882D02*
X12183265Y-14223406D01*
X12183265Y-14223406D02*
X12221360Y-14223406D01*
X12221360Y-14223406D02*
X12240408Y-14213882D01*
X12240408Y-14213882D02*
X12249932Y-14194835D01*
X12249932Y-14194835D02*
X12249932Y-14185311D01*
X12249932Y-14185311D02*
X12240408Y-14166263D01*
X12240408Y-14166263D02*
X12221360Y-14156739D01*
X12221360Y-14156739D02*
X12192789Y-14156739D01*
X12192789Y-14156739D02*
X12173741Y-14147216D01*
X12173741Y-14147216D02*
X12164217Y-14128168D01*
X12164217Y-14128168D02*
X12164217Y-14118644D01*
X12164217Y-14118644D02*
X12173741Y-14099597D01*
X12173741Y-14099597D02*
X12192789Y-14090073D01*
X12192789Y-14090073D02*
X12221360Y-14090073D01*
X12221360Y-14090073D02*
X12240408Y-14099597D01*
X12316598Y-14299597D02*
X12326122Y-14290073D01*
X12326122Y-14290073D02*
X12345170Y-14261501D01*
X12345170Y-14261501D02*
X12354693Y-14242454D01*
X12354693Y-14242454D02*
X12364217Y-14213882D01*
X12364217Y-14213882D02*
X12373741Y-14166263D01*
X12373741Y-14166263D02*
X12373741Y-14128168D01*
X12373741Y-14128168D02*
X12364217Y-14080549D01*
X12364217Y-14080549D02*
X12354693Y-14051978D01*
X12354693Y-14051978D02*
X12345170Y-14032930D01*
X12345170Y-14032930D02*
X12326122Y-14004358D01*
X12326122Y-14004358D02*
X12316598Y-13994835D01*
D10*
X7541535Y-14395922D02*
G75*
G02*
X7441535Y-14395922I-50000J0D01*
G01*
X7441535Y-14395922D02*
G75*
G02*
X7541535Y-14395922I50000J0D01*
G01*
D12*
X7907074Y-14487406D02*
X7792788Y-14487406D01*
X7849931Y-14487406D02*
X7849931Y-14287406D01*
X7849931Y-14287406D02*
X7830883Y-14315978D01*
X7830883Y-14315978D02*
X7811836Y-14335025D01*
X7811836Y-14335025D02*
X7792788Y-14344549D01*
X7992788Y-14468358D02*
X8002312Y-14477882D01*
X8002312Y-14477882D02*
X7992788Y-14487406D01*
X7992788Y-14487406D02*
X7983264Y-14477882D01*
X7983264Y-14477882D02*
X7992788Y-14468358D01*
X7992788Y-14468358D02*
X7992788Y-14487406D01*
X8126122Y-14287406D02*
X8145169Y-14287406D01*
X8145169Y-14287406D02*
X8164217Y-14296930D01*
X8164217Y-14296930D02*
X8173741Y-14306454D01*
X8173741Y-14306454D02*
X8183264Y-14325501D01*
X8183264Y-14325501D02*
X8192788Y-14363597D01*
X8192788Y-14363597D02*
X8192788Y-14411216D01*
X8192788Y-14411216D02*
X8183264Y-14449311D01*
X8183264Y-14449311D02*
X8173741Y-14468358D01*
X8173741Y-14468358D02*
X8164217Y-14477882D01*
X8164217Y-14477882D02*
X8145169Y-14487406D01*
X8145169Y-14487406D02*
X8126122Y-14487406D01*
X8126122Y-14487406D02*
X8107074Y-14477882D01*
X8107074Y-14477882D02*
X8097550Y-14468358D01*
X8097550Y-14468358D02*
X8088026Y-14449311D01*
X8088026Y-14449311D02*
X8078503Y-14411216D01*
X8078503Y-14411216D02*
X8078503Y-14363597D01*
X8078503Y-14363597D02*
X8088026Y-14325501D01*
X8088026Y-14325501D02*
X8097550Y-14306454D01*
X8097550Y-14306454D02*
X8107074Y-14296930D01*
X8107074Y-14296930D02*
X8126122Y-14287406D01*
X8316598Y-14287406D02*
X8335645Y-14287406D01*
X8335645Y-14287406D02*
X8354693Y-14296930D01*
X8354693Y-14296930D02*
X8364217Y-14306454D01*
X8364217Y-14306454D02*
X8373741Y-14325501D01*
X8373741Y-14325501D02*
X8383264Y-14363597D01*
X8383264Y-14363597D02*
X8383264Y-14411216D01*
X8383264Y-14411216D02*
X8373741Y-14449311D01*
X8373741Y-14449311D02*
X8364217Y-14468358D01*
X8364217Y-14468358D02*
X8354693Y-14477882D01*
X8354693Y-14477882D02*
X8335645Y-14487406D01*
X8335645Y-14487406D02*
X8316598Y-14487406D01*
X8316598Y-14487406D02*
X8297550Y-14477882D01*
X8297550Y-14477882D02*
X8288026Y-14468358D01*
X8288026Y-14468358D02*
X8278503Y-14449311D01*
X8278503Y-14449311D02*
X8268979Y-14411216D01*
X8268979Y-14411216D02*
X8268979Y-14363597D01*
X8268979Y-14363597D02*
X8278503Y-14325501D01*
X8278503Y-14325501D02*
X8288026Y-14306454D01*
X8288026Y-14306454D02*
X8297550Y-14296930D01*
X8297550Y-14296930D02*
X8316598Y-14287406D01*
X8507074Y-14287406D02*
X8526122Y-14287406D01*
X8526122Y-14287406D02*
X8545169Y-14296930D01*
X8545169Y-14296930D02*
X8554693Y-14306454D01*
X8554693Y-14306454D02*
X8564217Y-14325501D01*
X8564217Y-14325501D02*
X8573741Y-14363597D01*
X8573741Y-14363597D02*
X8573741Y-14411216D01*
X8573741Y-14411216D02*
X8564217Y-14449311D01*
X8564217Y-14449311D02*
X8554693Y-14468358D01*
X8554693Y-14468358D02*
X8545169Y-14477882D01*
X8545169Y-14477882D02*
X8526122Y-14487406D01*
X8526122Y-14487406D02*
X8507074Y-14487406D01*
X8507074Y-14487406D02*
X8488026Y-14477882D01*
X8488026Y-14477882D02*
X8478503Y-14468358D01*
X8478503Y-14468358D02*
X8468979Y-14449311D01*
X8468979Y-14449311D02*
X8459455Y-14411216D01*
X8459455Y-14411216D02*
X8459455Y-14363597D01*
X8459455Y-14363597D02*
X8468979Y-14325501D01*
X8468979Y-14325501D02*
X8478503Y-14306454D01*
X8478503Y-14306454D02*
X8488026Y-14296930D01*
X8488026Y-14296930D02*
X8507074Y-14287406D01*
X8659455Y-14487406D02*
X8659455Y-14354073D01*
X8659455Y-14373120D02*
X8668979Y-14363597D01*
X8668979Y-14363597D02*
X8688026Y-14354073D01*
X8688026Y-14354073D02*
X8716598Y-14354073D01*
X8716598Y-14354073D02*
X8735646Y-14363597D01*
X8735646Y-14363597D02*
X8745169Y-14382644D01*
X8745169Y-14382644D02*
X8745169Y-14487406D01*
X8745169Y-14382644D02*
X8754693Y-14363597D01*
X8754693Y-14363597D02*
X8773741Y-14354073D01*
X8773741Y-14354073D02*
X8802312Y-14354073D01*
X8802312Y-14354073D02*
X8821360Y-14363597D01*
X8821360Y-14363597D02*
X8830884Y-14382644D01*
X8830884Y-14382644D02*
X8830884Y-14487406D01*
X8926122Y-14487406D02*
X8926122Y-14354073D01*
X8926122Y-14373120D02*
X8935646Y-14363597D01*
X8935646Y-14363597D02*
X8954693Y-14354073D01*
X8954693Y-14354073D02*
X8983265Y-14354073D01*
X8983265Y-14354073D02*
X9002312Y-14363597D01*
X9002312Y-14363597D02*
X9011836Y-14382644D01*
X9011836Y-14382644D02*
X9011836Y-14487406D01*
X9011836Y-14382644D02*
X9021360Y-14363597D01*
X9021360Y-14363597D02*
X9040407Y-14354073D01*
X9040407Y-14354073D02*
X9068979Y-14354073D01*
X9068979Y-14354073D02*
X9088027Y-14363597D01*
X9088027Y-14363597D02*
X9097550Y-14382644D01*
X9097550Y-14382644D02*
X9097550Y-14487406D01*
X9488027Y-14277882D02*
X9316598Y-14535025D01*
X9745169Y-14287406D02*
X9764217Y-14287406D01*
X9764217Y-14287406D02*
X9783265Y-14296930D01*
X9783265Y-14296930D02*
X9792789Y-14306454D01*
X9792789Y-14306454D02*
X9802312Y-14325501D01*
X9802312Y-14325501D02*
X9811836Y-14363597D01*
X9811836Y-14363597D02*
X9811836Y-14411216D01*
X9811836Y-14411216D02*
X9802312Y-14449311D01*
X9802312Y-14449311D02*
X9792789Y-14468358D01*
X9792789Y-14468358D02*
X9783265Y-14477882D01*
X9783265Y-14477882D02*
X9764217Y-14487406D01*
X9764217Y-14487406D02*
X9745169Y-14487406D01*
X9745169Y-14487406D02*
X9726122Y-14477882D01*
X9726122Y-14477882D02*
X9716598Y-14468358D01*
X9716598Y-14468358D02*
X9707074Y-14449311D01*
X9707074Y-14449311D02*
X9697550Y-14411216D01*
X9697550Y-14411216D02*
X9697550Y-14363597D01*
X9697550Y-14363597D02*
X9707074Y-14325501D01*
X9707074Y-14325501D02*
X9716598Y-14306454D01*
X9716598Y-14306454D02*
X9726122Y-14296930D01*
X9726122Y-14296930D02*
X9745169Y-14287406D01*
X9897550Y-14468358D02*
X9907074Y-14477882D01*
X9907074Y-14477882D02*
X9897550Y-14487406D01*
X9897550Y-14487406D02*
X9888027Y-14477882D01*
X9888027Y-14477882D02*
X9897550Y-14468358D01*
X9897550Y-14468358D02*
X9897550Y-14487406D01*
X10030884Y-14287406D02*
X10049931Y-14287406D01*
X10049931Y-14287406D02*
X10068979Y-14296930D01*
X10068979Y-14296930D02*
X10078503Y-14306454D01*
X10078503Y-14306454D02*
X10088027Y-14325501D01*
X10088027Y-14325501D02*
X10097550Y-14363597D01*
X10097550Y-14363597D02*
X10097550Y-14411216D01*
X10097550Y-14411216D02*
X10088027Y-14449311D01*
X10088027Y-14449311D02*
X10078503Y-14468358D01*
X10078503Y-14468358D02*
X10068979Y-14477882D01*
X10068979Y-14477882D02*
X10049931Y-14487406D01*
X10049931Y-14487406D02*
X10030884Y-14487406D01*
X10030884Y-14487406D02*
X10011836Y-14477882D01*
X10011836Y-14477882D02*
X10002312Y-14468358D01*
X10002312Y-14468358D02*
X9992789Y-14449311D01*
X9992789Y-14449311D02*
X9983265Y-14411216D01*
X9983265Y-14411216D02*
X9983265Y-14363597D01*
X9983265Y-14363597D02*
X9992789Y-14325501D01*
X9992789Y-14325501D02*
X10002312Y-14306454D01*
X10002312Y-14306454D02*
X10011836Y-14296930D01*
X10011836Y-14296930D02*
X10030884Y-14287406D01*
X10164217Y-14287406D02*
X10288027Y-14287406D01*
X10288027Y-14287406D02*
X10221360Y-14363597D01*
X10221360Y-14363597D02*
X10249931Y-14363597D01*
X10249931Y-14363597D02*
X10268979Y-14373120D01*
X10268979Y-14373120D02*
X10278503Y-14382644D01*
X10278503Y-14382644D02*
X10288027Y-14401692D01*
X10288027Y-14401692D02*
X10288027Y-14449311D01*
X10288027Y-14449311D02*
X10278503Y-14468358D01*
X10278503Y-14468358D02*
X10268979Y-14477882D01*
X10268979Y-14477882D02*
X10249931Y-14487406D01*
X10249931Y-14487406D02*
X10192789Y-14487406D01*
X10192789Y-14487406D02*
X10173741Y-14477882D01*
X10173741Y-14477882D02*
X10164217Y-14468358D01*
X10383265Y-14487406D02*
X10421360Y-14487406D01*
X10421360Y-14487406D02*
X10440408Y-14477882D01*
X10440408Y-14477882D02*
X10449931Y-14468358D01*
X10449931Y-14468358D02*
X10468979Y-14439787D01*
X10468979Y-14439787D02*
X10478503Y-14401692D01*
X10478503Y-14401692D02*
X10478503Y-14325501D01*
X10478503Y-14325501D02*
X10468979Y-14306454D01*
X10468979Y-14306454D02*
X10459455Y-14296930D01*
X10459455Y-14296930D02*
X10440408Y-14287406D01*
X10440408Y-14287406D02*
X10402312Y-14287406D01*
X10402312Y-14287406D02*
X10383265Y-14296930D01*
X10383265Y-14296930D02*
X10373741Y-14306454D01*
X10373741Y-14306454D02*
X10364217Y-14325501D01*
X10364217Y-14325501D02*
X10364217Y-14373120D01*
X10364217Y-14373120D02*
X10373741Y-14392168D01*
X10373741Y-14392168D02*
X10383265Y-14401692D01*
X10383265Y-14401692D02*
X10402312Y-14411216D01*
X10402312Y-14411216D02*
X10440408Y-14411216D01*
X10440408Y-14411216D02*
X10459455Y-14401692D01*
X10459455Y-14401692D02*
X10468979Y-14392168D01*
X10468979Y-14392168D02*
X10478503Y-14373120D01*
X10649931Y-14354073D02*
X10649931Y-14487406D01*
X10602312Y-14277882D02*
X10554693Y-14420739D01*
X10554693Y-14420739D02*
X10678503Y-14420739D01*
X10745170Y-14287406D02*
X10745170Y-14325501D01*
X10821360Y-14287406D02*
X10821360Y-14325501D01*
X11116598Y-14563597D02*
X11107074Y-14554073D01*
X11107074Y-14554073D02*
X11088027Y-14525501D01*
X11088027Y-14525501D02*
X11078503Y-14506454D01*
X11078503Y-14506454D02*
X11068979Y-14477882D01*
X11068979Y-14477882D02*
X11059455Y-14430263D01*
X11059455Y-14430263D02*
X11059455Y-14392168D01*
X11059455Y-14392168D02*
X11068979Y-14344549D01*
X11068979Y-14344549D02*
X11078503Y-14315978D01*
X11078503Y-14315978D02*
X11088027Y-14296930D01*
X11088027Y-14296930D02*
X11107074Y-14268358D01*
X11107074Y-14268358D02*
X11116598Y-14258835D01*
X11288027Y-14287406D02*
X11192789Y-14287406D01*
X11192789Y-14287406D02*
X11183265Y-14382644D01*
X11183265Y-14382644D02*
X11192789Y-14373120D01*
X11192789Y-14373120D02*
X11211836Y-14363597D01*
X11211836Y-14363597D02*
X11259455Y-14363597D01*
X11259455Y-14363597D02*
X11278503Y-14373120D01*
X11278503Y-14373120D02*
X11288027Y-14382644D01*
X11288027Y-14382644D02*
X11297550Y-14401692D01*
X11297550Y-14401692D02*
X11297550Y-14449311D01*
X11297550Y-14449311D02*
X11288027Y-14468358D01*
X11288027Y-14468358D02*
X11278503Y-14477882D01*
X11278503Y-14477882D02*
X11259455Y-14487406D01*
X11259455Y-14487406D02*
X11211836Y-14487406D01*
X11211836Y-14487406D02*
X11192789Y-14477882D01*
X11192789Y-14477882D02*
X11183265Y-14468358D01*
X11421360Y-14287406D02*
X11440408Y-14287406D01*
X11440408Y-14287406D02*
X11459455Y-14296930D01*
X11459455Y-14296930D02*
X11468979Y-14306454D01*
X11468979Y-14306454D02*
X11478503Y-14325501D01*
X11478503Y-14325501D02*
X11488027Y-14363597D01*
X11488027Y-14363597D02*
X11488027Y-14411216D01*
X11488027Y-14411216D02*
X11478503Y-14449311D01*
X11478503Y-14449311D02*
X11468979Y-14468358D01*
X11468979Y-14468358D02*
X11459455Y-14477882D01*
X11459455Y-14477882D02*
X11440408Y-14487406D01*
X11440408Y-14487406D02*
X11421360Y-14487406D01*
X11421360Y-14487406D02*
X11402312Y-14477882D01*
X11402312Y-14477882D02*
X11392789Y-14468358D01*
X11392789Y-14468358D02*
X11383265Y-14449311D01*
X11383265Y-14449311D02*
X11373741Y-14411216D01*
X11373741Y-14411216D02*
X11373741Y-14363597D01*
X11373741Y-14363597D02*
X11383265Y-14325501D01*
X11383265Y-14325501D02*
X11392789Y-14306454D01*
X11392789Y-14306454D02*
X11402312Y-14296930D01*
X11402312Y-14296930D02*
X11421360Y-14287406D01*
X11726122Y-14487406D02*
X11726122Y-14287406D01*
X11811836Y-14487406D02*
X11811836Y-14382644D01*
X11811836Y-14382644D02*
X11802312Y-14363597D01*
X11802312Y-14363597D02*
X11783265Y-14354073D01*
X11783265Y-14354073D02*
X11754693Y-14354073D01*
X11754693Y-14354073D02*
X11735646Y-14363597D01*
X11735646Y-14363597D02*
X11726122Y-14373120D01*
X11935646Y-14487406D02*
X11916598Y-14477882D01*
X11916598Y-14477882D02*
X11907074Y-14468358D01*
X11907074Y-14468358D02*
X11897551Y-14449311D01*
X11897551Y-14449311D02*
X11897551Y-14392168D01*
X11897551Y-14392168D02*
X11907074Y-14373120D01*
X11907074Y-14373120D02*
X11916598Y-14363597D01*
X11916598Y-14363597D02*
X11935646Y-14354073D01*
X11935646Y-14354073D02*
X11964217Y-14354073D01*
X11964217Y-14354073D02*
X11983265Y-14363597D01*
X11983265Y-14363597D02*
X11992789Y-14373120D01*
X11992789Y-14373120D02*
X12002312Y-14392168D01*
X12002312Y-14392168D02*
X12002312Y-14449311D01*
X12002312Y-14449311D02*
X11992789Y-14468358D01*
X11992789Y-14468358D02*
X11983265Y-14477882D01*
X11983265Y-14477882D02*
X11964217Y-14487406D01*
X11964217Y-14487406D02*
X11935646Y-14487406D01*
X12116598Y-14487406D02*
X12097551Y-14477882D01*
X12097551Y-14477882D02*
X12088027Y-14458835D01*
X12088027Y-14458835D02*
X12088027Y-14287406D01*
X12268979Y-14477882D02*
X12249932Y-14487406D01*
X12249932Y-14487406D02*
X12211836Y-14487406D01*
X12211836Y-14487406D02*
X12192789Y-14477882D01*
X12192789Y-14477882D02*
X12183265Y-14458835D01*
X12183265Y-14458835D02*
X12183265Y-14382644D01*
X12183265Y-14382644D02*
X12192789Y-14363597D01*
X12192789Y-14363597D02*
X12211836Y-14354073D01*
X12211836Y-14354073D02*
X12249932Y-14354073D01*
X12249932Y-14354073D02*
X12268979Y-14363597D01*
X12268979Y-14363597D02*
X12278503Y-14382644D01*
X12278503Y-14382644D02*
X12278503Y-14401692D01*
X12278503Y-14401692D02*
X12183265Y-14420739D01*
X12354693Y-14477882D02*
X12373741Y-14487406D01*
X12373741Y-14487406D02*
X12411836Y-14487406D01*
X12411836Y-14487406D02*
X12430884Y-14477882D01*
X12430884Y-14477882D02*
X12440408Y-14458835D01*
X12440408Y-14458835D02*
X12440408Y-14449311D01*
X12440408Y-14449311D02*
X12430884Y-14430263D01*
X12430884Y-14430263D02*
X12411836Y-14420739D01*
X12411836Y-14420739D02*
X12383265Y-14420739D01*
X12383265Y-14420739D02*
X12364217Y-14411216D01*
X12364217Y-14411216D02*
X12354693Y-14392168D01*
X12354693Y-14392168D02*
X12354693Y-14382644D01*
X12354693Y-14382644D02*
X12364217Y-14363597D01*
X12364217Y-14363597D02*
X12383265Y-14354073D01*
X12383265Y-14354073D02*
X12411836Y-14354073D01*
X12411836Y-14354073D02*
X12430884Y-14363597D01*
X12507074Y-14563597D02*
X12516598Y-14554073D01*
X12516598Y-14554073D02*
X12535646Y-14525501D01*
X12535646Y-14525501D02*
X12545170Y-14506454D01*
X12545170Y-14506454D02*
X12554693Y-14477882D01*
X12554693Y-14477882D02*
X12564217Y-14430263D01*
X12564217Y-14430263D02*
X12564217Y-14392168D01*
X12564217Y-14392168D02*
X12554693Y-14344549D01*
X12554693Y-14344549D02*
X12545170Y-14315978D01*
X12545170Y-14315978D02*
X12535646Y-14296930D01*
X12535646Y-14296930D02*
X12516598Y-14268358D01*
X12516598Y-14268358D02*
X12507074Y-14258835D01*
D13*
X7478035Y-14596422D02*
X7478035Y-14723422D01*
X7414535Y-14659922D02*
X7541535Y-14659922D01*
D12*
X7907074Y-14751406D02*
X7792788Y-14751406D01*
X7849931Y-14751406D02*
X7849931Y-14551406D01*
X7849931Y-14551406D02*
X7830883Y-14579978D01*
X7830883Y-14579978D02*
X7811836Y-14599025D01*
X7811836Y-14599025D02*
X7792788Y-14608549D01*
X7992788Y-14732358D02*
X8002312Y-14741882D01*
X8002312Y-14741882D02*
X7992788Y-14751406D01*
X7992788Y-14751406D02*
X7983264Y-14741882D01*
X7983264Y-14741882D02*
X7992788Y-14732358D01*
X7992788Y-14732358D02*
X7992788Y-14751406D01*
X8078503Y-14570454D02*
X8088026Y-14560930D01*
X8088026Y-14560930D02*
X8107074Y-14551406D01*
X8107074Y-14551406D02*
X8154693Y-14551406D01*
X8154693Y-14551406D02*
X8173741Y-14560930D01*
X8173741Y-14560930D02*
X8183264Y-14570454D01*
X8183264Y-14570454D02*
X8192788Y-14589501D01*
X8192788Y-14589501D02*
X8192788Y-14608549D01*
X8192788Y-14608549D02*
X8183264Y-14637120D01*
X8183264Y-14637120D02*
X8068979Y-14751406D01*
X8068979Y-14751406D02*
X8192788Y-14751406D01*
X8259455Y-14551406D02*
X8392788Y-14551406D01*
X8392788Y-14551406D02*
X8307074Y-14751406D01*
X8507074Y-14551406D02*
X8526122Y-14551406D01*
X8526122Y-14551406D02*
X8545169Y-14560930D01*
X8545169Y-14560930D02*
X8554693Y-14570454D01*
X8554693Y-14570454D02*
X8564217Y-14589501D01*
X8564217Y-14589501D02*
X8573741Y-14627597D01*
X8573741Y-14627597D02*
X8573741Y-14675216D01*
X8573741Y-14675216D02*
X8564217Y-14713311D01*
X8564217Y-14713311D02*
X8554693Y-14732358D01*
X8554693Y-14732358D02*
X8545169Y-14741882D01*
X8545169Y-14741882D02*
X8526122Y-14751406D01*
X8526122Y-14751406D02*
X8507074Y-14751406D01*
X8507074Y-14751406D02*
X8488026Y-14741882D01*
X8488026Y-14741882D02*
X8478503Y-14732358D01*
X8478503Y-14732358D02*
X8468979Y-14713311D01*
X8468979Y-14713311D02*
X8459455Y-14675216D01*
X8459455Y-14675216D02*
X8459455Y-14627597D01*
X8459455Y-14627597D02*
X8468979Y-14589501D01*
X8468979Y-14589501D02*
X8478503Y-14570454D01*
X8478503Y-14570454D02*
X8488026Y-14560930D01*
X8488026Y-14560930D02*
X8507074Y-14551406D01*
X8659455Y-14751406D02*
X8659455Y-14618073D01*
X8659455Y-14637120D02*
X8668979Y-14627597D01*
X8668979Y-14627597D02*
X8688026Y-14618073D01*
X8688026Y-14618073D02*
X8716598Y-14618073D01*
X8716598Y-14618073D02*
X8735646Y-14627597D01*
X8735646Y-14627597D02*
X8745169Y-14646644D01*
X8745169Y-14646644D02*
X8745169Y-14751406D01*
X8745169Y-14646644D02*
X8754693Y-14627597D01*
X8754693Y-14627597D02*
X8773741Y-14618073D01*
X8773741Y-14618073D02*
X8802312Y-14618073D01*
X8802312Y-14618073D02*
X8821360Y-14627597D01*
X8821360Y-14627597D02*
X8830884Y-14646644D01*
X8830884Y-14646644D02*
X8830884Y-14751406D01*
X8926122Y-14751406D02*
X8926122Y-14618073D01*
X8926122Y-14637120D02*
X8935646Y-14627597D01*
X8935646Y-14627597D02*
X8954693Y-14618073D01*
X8954693Y-14618073D02*
X8983265Y-14618073D01*
X8983265Y-14618073D02*
X9002312Y-14627597D01*
X9002312Y-14627597D02*
X9011836Y-14646644D01*
X9011836Y-14646644D02*
X9011836Y-14751406D01*
X9011836Y-14646644D02*
X9021360Y-14627597D01*
X9021360Y-14627597D02*
X9040407Y-14618073D01*
X9040407Y-14618073D02*
X9068979Y-14618073D01*
X9068979Y-14618073D02*
X9088027Y-14627597D01*
X9088027Y-14627597D02*
X9097550Y-14646644D01*
X9097550Y-14646644D02*
X9097550Y-14751406D01*
X9488027Y-14541882D02*
X9316598Y-14799025D01*
X9745169Y-14551406D02*
X9764217Y-14551406D01*
X9764217Y-14551406D02*
X9783265Y-14560930D01*
X9783265Y-14560930D02*
X9792789Y-14570454D01*
X9792789Y-14570454D02*
X9802312Y-14589501D01*
X9802312Y-14589501D02*
X9811836Y-14627597D01*
X9811836Y-14627597D02*
X9811836Y-14675216D01*
X9811836Y-14675216D02*
X9802312Y-14713311D01*
X9802312Y-14713311D02*
X9792789Y-14732358D01*
X9792789Y-14732358D02*
X9783265Y-14741882D01*
X9783265Y-14741882D02*
X9764217Y-14751406D01*
X9764217Y-14751406D02*
X9745169Y-14751406D01*
X9745169Y-14751406D02*
X9726122Y-14741882D01*
X9726122Y-14741882D02*
X9716598Y-14732358D01*
X9716598Y-14732358D02*
X9707074Y-14713311D01*
X9707074Y-14713311D02*
X9697550Y-14675216D01*
X9697550Y-14675216D02*
X9697550Y-14627597D01*
X9697550Y-14627597D02*
X9707074Y-14589501D01*
X9707074Y-14589501D02*
X9716598Y-14570454D01*
X9716598Y-14570454D02*
X9726122Y-14560930D01*
X9726122Y-14560930D02*
X9745169Y-14551406D01*
X9897550Y-14732358D02*
X9907074Y-14741882D01*
X9907074Y-14741882D02*
X9897550Y-14751406D01*
X9897550Y-14751406D02*
X9888027Y-14741882D01*
X9888027Y-14741882D02*
X9897550Y-14732358D01*
X9897550Y-14732358D02*
X9897550Y-14751406D01*
X10030884Y-14551406D02*
X10049931Y-14551406D01*
X10049931Y-14551406D02*
X10068979Y-14560930D01*
X10068979Y-14560930D02*
X10078503Y-14570454D01*
X10078503Y-14570454D02*
X10088027Y-14589501D01*
X10088027Y-14589501D02*
X10097550Y-14627597D01*
X10097550Y-14627597D02*
X10097550Y-14675216D01*
X10097550Y-14675216D02*
X10088027Y-14713311D01*
X10088027Y-14713311D02*
X10078503Y-14732358D01*
X10078503Y-14732358D02*
X10068979Y-14741882D01*
X10068979Y-14741882D02*
X10049931Y-14751406D01*
X10049931Y-14751406D02*
X10030884Y-14751406D01*
X10030884Y-14751406D02*
X10011836Y-14741882D01*
X10011836Y-14741882D02*
X10002312Y-14732358D01*
X10002312Y-14732358D02*
X9992789Y-14713311D01*
X9992789Y-14713311D02*
X9983265Y-14675216D01*
X9983265Y-14675216D02*
X9983265Y-14627597D01*
X9983265Y-14627597D02*
X9992789Y-14589501D01*
X9992789Y-14589501D02*
X10002312Y-14570454D01*
X10002312Y-14570454D02*
X10011836Y-14560930D01*
X10011836Y-14560930D02*
X10030884Y-14551406D01*
X10278503Y-14551406D02*
X10183265Y-14551406D01*
X10183265Y-14551406D02*
X10173741Y-14646644D01*
X10173741Y-14646644D02*
X10183265Y-14637120D01*
X10183265Y-14637120D02*
X10202312Y-14627597D01*
X10202312Y-14627597D02*
X10249931Y-14627597D01*
X10249931Y-14627597D02*
X10268979Y-14637120D01*
X10268979Y-14637120D02*
X10278503Y-14646644D01*
X10278503Y-14646644D02*
X10288027Y-14665692D01*
X10288027Y-14665692D02*
X10288027Y-14713311D01*
X10288027Y-14713311D02*
X10278503Y-14732358D01*
X10278503Y-14732358D02*
X10268979Y-14741882D01*
X10268979Y-14741882D02*
X10249931Y-14751406D01*
X10249931Y-14751406D02*
X10202312Y-14751406D01*
X10202312Y-14751406D02*
X10183265Y-14741882D01*
X10183265Y-14741882D02*
X10173741Y-14732358D01*
X10411836Y-14551406D02*
X10430884Y-14551406D01*
X10430884Y-14551406D02*
X10449931Y-14560930D01*
X10449931Y-14560930D02*
X10459455Y-14570454D01*
X10459455Y-14570454D02*
X10468979Y-14589501D01*
X10468979Y-14589501D02*
X10478503Y-14627597D01*
X10478503Y-14627597D02*
X10478503Y-14675216D01*
X10478503Y-14675216D02*
X10468979Y-14713311D01*
X10468979Y-14713311D02*
X10459455Y-14732358D01*
X10459455Y-14732358D02*
X10449931Y-14741882D01*
X10449931Y-14741882D02*
X10430884Y-14751406D01*
X10430884Y-14751406D02*
X10411836Y-14751406D01*
X10411836Y-14751406D02*
X10392789Y-14741882D01*
X10392789Y-14741882D02*
X10383265Y-14732358D01*
X10383265Y-14732358D02*
X10373741Y-14713311D01*
X10373741Y-14713311D02*
X10364217Y-14675216D01*
X10364217Y-14675216D02*
X10364217Y-14627597D01*
X10364217Y-14627597D02*
X10373741Y-14589501D01*
X10373741Y-14589501D02*
X10383265Y-14570454D01*
X10383265Y-14570454D02*
X10392789Y-14560930D01*
X10392789Y-14560930D02*
X10411836Y-14551406D01*
X10602312Y-14551406D02*
X10621360Y-14551406D01*
X10621360Y-14551406D02*
X10640408Y-14560930D01*
X10640408Y-14560930D02*
X10649931Y-14570454D01*
X10649931Y-14570454D02*
X10659455Y-14589501D01*
X10659455Y-14589501D02*
X10668979Y-14627597D01*
X10668979Y-14627597D02*
X10668979Y-14675216D01*
X10668979Y-14675216D02*
X10659455Y-14713311D01*
X10659455Y-14713311D02*
X10649931Y-14732358D01*
X10649931Y-14732358D02*
X10640408Y-14741882D01*
X10640408Y-14741882D02*
X10621360Y-14751406D01*
X10621360Y-14751406D02*
X10602312Y-14751406D01*
X10602312Y-14751406D02*
X10583265Y-14741882D01*
X10583265Y-14741882D02*
X10573741Y-14732358D01*
X10573741Y-14732358D02*
X10564217Y-14713311D01*
X10564217Y-14713311D02*
X10554693Y-14675216D01*
X10554693Y-14675216D02*
X10554693Y-14627597D01*
X10554693Y-14627597D02*
X10564217Y-14589501D01*
X10564217Y-14589501D02*
X10573741Y-14570454D01*
X10573741Y-14570454D02*
X10583265Y-14560930D01*
X10583265Y-14560930D02*
X10602312Y-14551406D01*
X10745170Y-14551406D02*
X10745170Y-14589501D01*
X10821360Y-14551406D02*
X10821360Y-14589501D01*
X11116598Y-14827597D02*
X11107074Y-14818073D01*
X11107074Y-14818073D02*
X11088027Y-14789501D01*
X11088027Y-14789501D02*
X11078503Y-14770454D01*
X11078503Y-14770454D02*
X11068979Y-14741882D01*
X11068979Y-14741882D02*
X11059455Y-14694263D01*
X11059455Y-14694263D02*
X11059455Y-14656168D01*
X11059455Y-14656168D02*
X11068979Y-14608549D01*
X11068979Y-14608549D02*
X11078503Y-14579978D01*
X11078503Y-14579978D02*
X11088027Y-14560930D01*
X11088027Y-14560930D02*
X11107074Y-14532358D01*
X11107074Y-14532358D02*
X11116598Y-14522835D01*
X11288027Y-14551406D02*
X11192789Y-14551406D01*
X11192789Y-14551406D02*
X11183265Y-14646644D01*
X11183265Y-14646644D02*
X11192789Y-14637120D01*
X11192789Y-14637120D02*
X11211836Y-14627597D01*
X11211836Y-14627597D02*
X11259455Y-14627597D01*
X11259455Y-14627597D02*
X11278503Y-14637120D01*
X11278503Y-14637120D02*
X11288027Y-14646644D01*
X11288027Y-14646644D02*
X11297550Y-14665692D01*
X11297550Y-14665692D02*
X11297550Y-14713311D01*
X11297550Y-14713311D02*
X11288027Y-14732358D01*
X11288027Y-14732358D02*
X11278503Y-14741882D01*
X11278503Y-14741882D02*
X11259455Y-14751406D01*
X11259455Y-14751406D02*
X11211836Y-14751406D01*
X11211836Y-14751406D02*
X11192789Y-14741882D01*
X11192789Y-14741882D02*
X11183265Y-14732358D01*
X11468979Y-14618073D02*
X11468979Y-14751406D01*
X11421360Y-14541882D02*
X11373741Y-14684739D01*
X11373741Y-14684739D02*
X11497550Y-14684739D01*
X11726122Y-14751406D02*
X11726122Y-14551406D01*
X11811836Y-14751406D02*
X11811836Y-14646644D01*
X11811836Y-14646644D02*
X11802312Y-14627597D01*
X11802312Y-14627597D02*
X11783265Y-14618073D01*
X11783265Y-14618073D02*
X11754693Y-14618073D01*
X11754693Y-14618073D02*
X11735646Y-14627597D01*
X11735646Y-14627597D02*
X11726122Y-14637120D01*
X11935646Y-14751406D02*
X11916598Y-14741882D01*
X11916598Y-14741882D02*
X11907074Y-14732358D01*
X11907074Y-14732358D02*
X11897551Y-14713311D01*
X11897551Y-14713311D02*
X11897551Y-14656168D01*
X11897551Y-14656168D02*
X11907074Y-14637120D01*
X11907074Y-14637120D02*
X11916598Y-14627597D01*
X11916598Y-14627597D02*
X11935646Y-14618073D01*
X11935646Y-14618073D02*
X11964217Y-14618073D01*
X11964217Y-14618073D02*
X11983265Y-14627597D01*
X11983265Y-14627597D02*
X11992789Y-14637120D01*
X11992789Y-14637120D02*
X12002312Y-14656168D01*
X12002312Y-14656168D02*
X12002312Y-14713311D01*
X12002312Y-14713311D02*
X11992789Y-14732358D01*
X11992789Y-14732358D02*
X11983265Y-14741882D01*
X11983265Y-14741882D02*
X11964217Y-14751406D01*
X11964217Y-14751406D02*
X11935646Y-14751406D01*
X12116598Y-14751406D02*
X12097551Y-14741882D01*
X12097551Y-14741882D02*
X12088027Y-14722835D01*
X12088027Y-14722835D02*
X12088027Y-14551406D01*
X12268979Y-14741882D02*
X12249932Y-14751406D01*
X12249932Y-14751406D02*
X12211836Y-14751406D01*
X12211836Y-14751406D02*
X12192789Y-14741882D01*
X12192789Y-14741882D02*
X12183265Y-14722835D01*
X12183265Y-14722835D02*
X12183265Y-14646644D01*
X12183265Y-14646644D02*
X12192789Y-14627597D01*
X12192789Y-14627597D02*
X12211836Y-14618073D01*
X12211836Y-14618073D02*
X12249932Y-14618073D01*
X12249932Y-14618073D02*
X12268979Y-14627597D01*
X12268979Y-14627597D02*
X12278503Y-14646644D01*
X12278503Y-14646644D02*
X12278503Y-14665692D01*
X12278503Y-14665692D02*
X12183265Y-14684739D01*
X12354693Y-14741882D02*
X12373741Y-14751406D01*
X12373741Y-14751406D02*
X12411836Y-14751406D01*
X12411836Y-14751406D02*
X12430884Y-14741882D01*
X12430884Y-14741882D02*
X12440408Y-14722835D01*
X12440408Y-14722835D02*
X12440408Y-14713311D01*
X12440408Y-14713311D02*
X12430884Y-14694263D01*
X12430884Y-14694263D02*
X12411836Y-14684739D01*
X12411836Y-14684739D02*
X12383265Y-14684739D01*
X12383265Y-14684739D02*
X12364217Y-14675216D01*
X12364217Y-14675216D02*
X12354693Y-14656168D01*
X12354693Y-14656168D02*
X12354693Y-14646644D01*
X12354693Y-14646644D02*
X12364217Y-14627597D01*
X12364217Y-14627597D02*
X12383265Y-14618073D01*
X12383265Y-14618073D02*
X12411836Y-14618073D01*
X12411836Y-14618073D02*
X12430884Y-14627597D01*
X12507074Y-14827597D02*
X12516598Y-14818073D01*
X12516598Y-14818073D02*
X12535646Y-14789501D01*
X12535646Y-14789501D02*
X12545170Y-14770454D01*
X12545170Y-14770454D02*
X12554693Y-14741882D01*
X12554693Y-14741882D02*
X12564217Y-14694263D01*
X12564217Y-14694263D02*
X12564217Y-14656168D01*
X12564217Y-14656168D02*
X12554693Y-14608549D01*
X12554693Y-14608549D02*
X12545170Y-14579978D01*
X12545170Y-14579978D02*
X12535646Y-14560930D01*
X12535646Y-14560930D02*
X12516598Y-14532358D01*
X12516598Y-14532358D02*
X12507074Y-14522835D01*
M02*
