%TF.GenerationSoftware,KiCad,Pcbnew,8.0.6*%
%TF.CreationDate,2024-11-17T23:17:45+07:00*%
%TF.ProjectId,chocowi36,63686f63-6f77-4693-9336-2e6b69636164,rev?*%
%TF.SameCoordinates,Original*%
%TF.FileFunction,Legend,Top*%
%TF.FilePolarity,Positive*%
%FSLAX46Y46*%
G04 Gerber Fmt 4.6, Leading zero omitted, Abs format (unit mm)*
G04 Created by KiCad (PCBNEW 8.0.6) date 2024-11-17 23:17:45*
%MOMM*%
%LPD*%
G01*
G04 APERTURE LIST*
%ADD10C,0.125000*%
%ADD11C,0.150000*%
%ADD12C,0.500000*%
%ADD13C,0.200000*%
%ADD14C,0.127000*%
G04 APERTURE END LIST*
D10*
X181794390Y-119559938D02*
X181876869Y-119607557D01*
X181876869Y-119607557D02*
X181906203Y-119651987D01*
X181906203Y-119651987D02*
X181923633Y-119717035D01*
X181923633Y-119717035D02*
X181896634Y-119811419D01*
X181896634Y-119811419D02*
X181813300Y-119955756D01*
X181813300Y-119955756D02*
X181745062Y-120026330D01*
X181745062Y-120026330D02*
X181680013Y-120043760D01*
X181680013Y-120043760D02*
X181626869Y-120040570D01*
X181626869Y-120040570D02*
X181544390Y-119992951D01*
X181544390Y-119992951D02*
X181515056Y-119948522D01*
X181515056Y-119948522D02*
X181497626Y-119883473D01*
X181497626Y-119883473D02*
X181524625Y-119789090D01*
X181524625Y-119789090D02*
X181607958Y-119644752D01*
X181607958Y-119644752D02*
X181676197Y-119574178D01*
X181676197Y-119574178D02*
X181741246Y-119556749D01*
X181741246Y-119556749D02*
X181794390Y-119559938D01*
X181915544Y-120207237D02*
X182165544Y-119774224D01*
X182165544Y-119774224D02*
X182162980Y-120350094D01*
X182162980Y-120350094D02*
X182412980Y-119917082D01*
G36*
X115264704Y-104380988D02*
G01*
X115292080Y-104350336D01*
X115323945Y-104325743D01*
X115333873Y-104319829D01*
X115370557Y-104304202D01*
X115409485Y-104297325D01*
X115421019Y-104296968D01*
X115462943Y-104300087D01*
X115506141Y-104311609D01*
X115543186Y-104331620D01*
X115574080Y-104360121D01*
X115592380Y-104385677D01*
X115610641Y-104421141D01*
X115625124Y-104461002D01*
X115635829Y-104505258D01*
X115641863Y-104545497D01*
X115645274Y-104588789D01*
X115646113Y-104625621D01*
X115644776Y-104666442D01*
X115639974Y-104710689D01*
X115631679Y-104752372D01*
X115619891Y-104791491D01*
X115618172Y-104796200D01*
X115600447Y-104835871D01*
X115578488Y-104870472D01*
X115552293Y-104900003D01*
X115535911Y-104914219D01*
X115499416Y-104936784D01*
X115462426Y-104949948D01*
X115421511Y-104956341D01*
X115402066Y-104957010D01*
X115362047Y-104953401D01*
X115321097Y-104940438D01*
X115285251Y-104918047D01*
X115254510Y-104886228D01*
X115251026Y-104881588D01*
X115244187Y-104937275D01*
X115083378Y-104937275D01*
X115083378Y-104505258D01*
X115264704Y-104505258D01*
X115264704Y-104765719D01*
X115290370Y-104797329D01*
X115303197Y-104807729D01*
X115339979Y-104821284D01*
X115354390Y-104822188D01*
X115392767Y-104813511D01*
X115423440Y-104787481D01*
X115430789Y-104776856D01*
X115446808Y-104738695D01*
X115454969Y-104697065D01*
X115458486Y-104652198D01*
X115458926Y-104626989D01*
X115457983Y-104586326D01*
X115454270Y-104544099D01*
X115447007Y-104507408D01*
X115431793Y-104469636D01*
X115413790Y-104448399D01*
X115377483Y-104432828D01*
X115363573Y-104431790D01*
X115324617Y-104441118D01*
X115308863Y-104451525D01*
X115281701Y-104479989D01*
X115264704Y-104505258D01*
X115083378Y-104505258D01*
X115083378Y-104072069D01*
X115264704Y-104052921D01*
X115264704Y-104380988D01*
G37*
G36*
X116348556Y-104319243D02*
G01*
X116145150Y-104941965D01*
X116131570Y-104979171D01*
X116112629Y-105020002D01*
X116090803Y-105056670D01*
X116066092Y-105089176D01*
X116038495Y-105117519D01*
X116023615Y-105130129D01*
X115991167Y-105152042D01*
X115954638Y-105169422D01*
X115914029Y-105182268D01*
X115869339Y-105190579D01*
X115828981Y-105194043D01*
X115803406Y-105194609D01*
X115782694Y-105069166D01*
X115821433Y-105063027D01*
X115860070Y-105053449D01*
X115880000Y-105046305D01*
X115915365Y-105027079D01*
X115939791Y-105005077D01*
X115963435Y-104971452D01*
X115979261Y-104939229D01*
X115917125Y-104939229D01*
X115723685Y-104319243D01*
X115915367Y-104319243D01*
X116033776Y-104821797D01*
X116162345Y-104319243D01*
X116348556Y-104319243D01*
G37*
G36*
X117412087Y-103994107D02*
G01*
X117452456Y-104000805D01*
X117487187Y-104022713D01*
X117489072Y-104024588D01*
X117511494Y-104058587D01*
X117518938Y-104097204D01*
X117518968Y-104100011D01*
X117512399Y-104139289D01*
X117490912Y-104174087D01*
X117489072Y-104176019D01*
X117454878Y-104199027D01*
X117415013Y-104206666D01*
X117412087Y-104206696D01*
X117371212Y-104199955D01*
X117336034Y-104177906D01*
X117334125Y-104176019D01*
X117311557Y-104141678D01*
X117304063Y-104102830D01*
X117304034Y-104100011D01*
X117310646Y-104060959D01*
X117332273Y-104026496D01*
X117334125Y-104024588D01*
X117368758Y-104001727D01*
X117409124Y-103994137D01*
X117412087Y-103994107D01*
G37*
G36*
X117521703Y-104319243D02*
G01*
X117521703Y-104806947D01*
X117676846Y-104806947D01*
X117676846Y-104932000D01*
X117167453Y-104932000D01*
X117167453Y-104806947D01*
X117340182Y-104806947D01*
X117340182Y-104444295D01*
X117173120Y-104444295D01*
X117173120Y-104319243D01*
X117521703Y-104319243D01*
G37*
G36*
X118386714Y-104899564D02*
G01*
X118352584Y-104919172D01*
X118315802Y-104934835D01*
X118300349Y-104940206D01*
X118260755Y-104950446D01*
X118221321Y-104955681D01*
X118186825Y-104957010D01*
X118144146Y-104954826D01*
X118099823Y-104946755D01*
X118061391Y-104932738D01*
X118024682Y-104909438D01*
X118009212Y-104894875D01*
X117983908Y-104860937D01*
X117965834Y-104821455D01*
X117955950Y-104782360D01*
X117951601Y-104739021D01*
X117951375Y-104725859D01*
X117951375Y-104444295D01*
X117823197Y-104444295D01*
X117823197Y-104319243D01*
X117951375Y-104319243D01*
X117951375Y-104185593D01*
X118132701Y-104163318D01*
X118132701Y-104319243D01*
X118329268Y-104319243D01*
X118311487Y-104444295D01*
X118132701Y-104444295D01*
X118132701Y-104722146D01*
X118137879Y-104761225D01*
X118153413Y-104787408D01*
X118188920Y-104804199D01*
X118219456Y-104806947D01*
X118259331Y-104803665D01*
X118278270Y-104799327D01*
X118315346Y-104785185D01*
X118326337Y-104779397D01*
X118386714Y-104899564D01*
G37*
G36*
X118770859Y-104822188D02*
G01*
X118811794Y-104818573D01*
X118843936Y-104807729D01*
X118870131Y-104777724D01*
X118871878Y-104764156D01*
X118860936Y-104731134D01*
X118828143Y-104709357D01*
X118818926Y-104705538D01*
X118780531Y-104692202D01*
X118741861Y-104680597D01*
X118727090Y-104676424D01*
X118687132Y-104663943D01*
X118646851Y-104646924D01*
X118611515Y-104626752D01*
X118590705Y-104611553D01*
X118562987Y-104581198D01*
X118545536Y-104543134D01*
X118538606Y-104502286D01*
X118538144Y-104487282D01*
X118542394Y-104447837D01*
X118557335Y-104407723D01*
X118583033Y-104372123D01*
X118606141Y-104350897D01*
X118644011Y-104327303D01*
X118683338Y-104312188D01*
X118721646Y-104303341D01*
X118764200Y-104298285D01*
X118802903Y-104296968D01*
X118842422Y-104298348D01*
X118883727Y-104303200D01*
X118925706Y-104312687D01*
X118945150Y-104319048D01*
X118981405Y-104334011D01*
X119017583Y-104353160D01*
X119049882Y-104375126D01*
X118977586Y-104484351D01*
X118943296Y-104465192D01*
X118906762Y-104449773D01*
X118895911Y-104446054D01*
X118857673Y-104436303D01*
X118816454Y-104431916D01*
X118808179Y-104431790D01*
X118765958Y-104435546D01*
X118729367Y-104454232D01*
X118720838Y-104479271D01*
X118731975Y-104506235D01*
X118766768Y-104526517D01*
X118774180Y-104529487D01*
X118812429Y-104542774D01*
X118850540Y-104554534D01*
X118865039Y-104558796D01*
X118903918Y-104570973D01*
X118942171Y-104585677D01*
X118968012Y-104597680D01*
X119002665Y-104619708D01*
X119031327Y-104649702D01*
X119036009Y-104656494D01*
X119052572Y-104693161D01*
X119059386Y-104731794D01*
X119060238Y-104753605D01*
X119056364Y-104793496D01*
X119043155Y-104832484D01*
X119020573Y-104866347D01*
X118990343Y-104894922D01*
X118957493Y-104916171D01*
X118919528Y-104932917D01*
X118915451Y-104934344D01*
X118877642Y-104945301D01*
X118837855Y-104952672D01*
X118796089Y-104956457D01*
X118772031Y-104957010D01*
X118729069Y-104955398D01*
X118688695Y-104950562D01*
X118646370Y-104941268D01*
X118615716Y-104931218D01*
X118579169Y-104915317D01*
X118542296Y-104894640D01*
X118509354Y-104870796D01*
X118500238Y-104863025D01*
X118591682Y-104757903D01*
X118624594Y-104780252D01*
X118661096Y-104799086D01*
X118672185Y-104803821D01*
X118710244Y-104815713D01*
X118751077Y-104821542D01*
X118770859Y-104822188D01*
G37*
G36*
X119743141Y-104072069D02*
G01*
X119743141Y-104937471D01*
X119582331Y-104937471D01*
X119573148Y-104869473D01*
X119545685Y-104900946D01*
X119513467Y-104926293D01*
X119505737Y-104931218D01*
X119468828Y-104947917D01*
X119429549Y-104955776D01*
X119404327Y-104957010D01*
X119363738Y-104953733D01*
X119323461Y-104942407D01*
X119288259Y-104922989D01*
X119278688Y-104915586D01*
X119250131Y-104886472D01*
X119226497Y-104850908D01*
X119209435Y-104813386D01*
X119204634Y-104799718D01*
X119193948Y-104760920D01*
X119186316Y-104718971D01*
X119182142Y-104679681D01*
X119180305Y-104637979D01*
X119180221Y-104626989D01*
X119367397Y-104626989D01*
X119368356Y-104667369D01*
X119372130Y-104709375D01*
X119379512Y-104745984D01*
X119394920Y-104783866D01*
X119412729Y-104805384D01*
X119449943Y-104821384D01*
X119461773Y-104822188D01*
X119500923Y-104813137D01*
X119517069Y-104803039D01*
X119544841Y-104775341D01*
X119561619Y-104750674D01*
X119561619Y-104484547D01*
X119534450Y-104455598D01*
X119521368Y-104445859D01*
X119483916Y-104432463D01*
X119471933Y-104431790D01*
X119431822Y-104441751D01*
X119401667Y-104469020D01*
X119396120Y-104477122D01*
X119379767Y-104515283D01*
X119371437Y-104556913D01*
X119367846Y-104601780D01*
X119367397Y-104626989D01*
X119180221Y-104626989D01*
X119180210Y-104625621D01*
X119181612Y-104584771D01*
X119186650Y-104540628D01*
X119195351Y-104499195D01*
X119207716Y-104460473D01*
X119209519Y-104455824D01*
X119227999Y-104416593D01*
X119250467Y-104382432D01*
X119276922Y-104353340D01*
X119293343Y-104339369D01*
X119329457Y-104317009D01*
X119369654Y-104302931D01*
X119409322Y-104297341D01*
X119423280Y-104296968D01*
X119462701Y-104300558D01*
X119503196Y-104313181D01*
X119539610Y-104334891D01*
X119561619Y-104354414D01*
X119561619Y-104052921D01*
X119743141Y-104072069D01*
G37*
G36*
X120354139Y-104296968D02*
G01*
X120394766Y-104302001D01*
X120430029Y-104318973D01*
X120450273Y-104339564D01*
X120468183Y-104375013D01*
X120477307Y-104413188D01*
X120481240Y-104454050D01*
X120481731Y-104476926D01*
X120481731Y-104932000D01*
X120326002Y-104932000D01*
X120326002Y-104491581D01*
X120322305Y-104452096D01*
X120319945Y-104445272D01*
X120295520Y-104431790D01*
X120266016Y-104441364D01*
X120238071Y-104469154D01*
X120232408Y-104476926D01*
X120232408Y-104932000D01*
X120104815Y-104932000D01*
X120104815Y-104491581D01*
X120101118Y-104452096D01*
X120098758Y-104445272D01*
X120074334Y-104431790D01*
X120044829Y-104441364D01*
X120016885Y-104469154D01*
X120011222Y-104476926D01*
X120011222Y-104932000D01*
X119853343Y-104932000D01*
X119853343Y-104319243D01*
X119986602Y-104319243D01*
X119998521Y-104375321D01*
X120023766Y-104345097D01*
X120054722Y-104318150D01*
X120056553Y-104316898D01*
X120092988Y-104300783D01*
X120126113Y-104296968D01*
X120165208Y-104303837D01*
X120184927Y-104314554D01*
X120210925Y-104345877D01*
X120219707Y-104369069D01*
X120248675Y-104340053D01*
X120280475Y-104317094D01*
X120317906Y-104301390D01*
X120354139Y-104296968D01*
G37*
G36*
X121120280Y-104072069D02*
G01*
X121120280Y-104937471D01*
X120959470Y-104937471D01*
X120950287Y-104869473D01*
X120922824Y-104900946D01*
X120890606Y-104926293D01*
X120882876Y-104931218D01*
X120845967Y-104947917D01*
X120806688Y-104955776D01*
X120781466Y-104957010D01*
X120740877Y-104953733D01*
X120700600Y-104942407D01*
X120665398Y-104922989D01*
X120655827Y-104915586D01*
X120627270Y-104886472D01*
X120603636Y-104850908D01*
X120586574Y-104813386D01*
X120581773Y-104799718D01*
X120571087Y-104760920D01*
X120563455Y-104718971D01*
X120559281Y-104679681D01*
X120557444Y-104637979D01*
X120557360Y-104626989D01*
X120744536Y-104626989D01*
X120745495Y-104667369D01*
X120749269Y-104709375D01*
X120756651Y-104745984D01*
X120772059Y-104783866D01*
X120789868Y-104805384D01*
X120827081Y-104821384D01*
X120838912Y-104822188D01*
X120878062Y-104813137D01*
X120894208Y-104803039D01*
X120921980Y-104775341D01*
X120938758Y-104750674D01*
X120938758Y-104484547D01*
X120911589Y-104455598D01*
X120898507Y-104445859D01*
X120861055Y-104432463D01*
X120849072Y-104431790D01*
X120808961Y-104441751D01*
X120778806Y-104469020D01*
X120773259Y-104477122D01*
X120756906Y-104515283D01*
X120748576Y-104556913D01*
X120744985Y-104601780D01*
X120744536Y-104626989D01*
X120557360Y-104626989D01*
X120557349Y-104625621D01*
X120558751Y-104584771D01*
X120563789Y-104540628D01*
X120572490Y-104499195D01*
X120584855Y-104460473D01*
X120586658Y-104455824D01*
X120605138Y-104416593D01*
X120627606Y-104382432D01*
X120654061Y-104353340D01*
X120670482Y-104339369D01*
X120706596Y-104317009D01*
X120746793Y-104302931D01*
X120786461Y-104297341D01*
X120800419Y-104296968D01*
X120839840Y-104300558D01*
X120880335Y-104313181D01*
X120916749Y-104334891D01*
X120938758Y-104354414D01*
X120938758Y-104052921D01*
X121120280Y-104072069D01*
G37*
D11*
G36*
X106941800Y-103872009D02*
G01*
X106842387Y-103867194D01*
X106734439Y-103849899D01*
X106632537Y-103820025D01*
X106536679Y-103777572D01*
X106525122Y-103771381D01*
X106437866Y-103716274D01*
X106360258Y-103652069D01*
X106292297Y-103578765D01*
X106233984Y-103496364D01*
X106187181Y-103406330D01*
X106153751Y-103310617D01*
X106133692Y-103209226D01*
X106127006Y-103102156D01*
X106133160Y-103001959D01*
X106154144Y-102897252D01*
X106190021Y-102798318D01*
X106239289Y-102706089D01*
X106300447Y-102622173D01*
X106366364Y-102553098D01*
X106448722Y-102486435D01*
X106539969Y-102430854D01*
X106630635Y-102389944D01*
X106727712Y-102359289D01*
X106829655Y-102339988D01*
X106936463Y-102332041D01*
X106958409Y-102331814D01*
X107065370Y-102336632D01*
X107167656Y-102351086D01*
X107265267Y-102375177D01*
X107284229Y-102381151D01*
X107375724Y-102416213D01*
X107469097Y-102465250D01*
X107554850Y-102525254D01*
X107316957Y-102936559D01*
X107238561Y-102875656D01*
X107165038Y-102838862D01*
X107067087Y-102813166D01*
X106997488Y-102808087D01*
X106898842Y-102817738D01*
X106825541Y-102842281D01*
X106746240Y-102900835D01*
X106716120Y-102942421D01*
X106683796Y-103035729D01*
X106678506Y-103102156D01*
X106692615Y-103204561D01*
X106739364Y-103292664D01*
X106763991Y-103318555D01*
X106851320Y-103371649D01*
X106954847Y-103394328D01*
X107000418Y-103396224D01*
X107100564Y-103386022D01*
X107184578Y-103360076D01*
X107275689Y-103310121D01*
X107353105Y-103247725D01*
X107566085Y-103670265D01*
X107483262Y-103725019D01*
X107392329Y-103772045D01*
X107293287Y-103811344D01*
X107272505Y-103818276D01*
X107168425Y-103846612D01*
X107065013Y-103864453D01*
X106962269Y-103871799D01*
X106941800Y-103872009D01*
G37*
G36*
X107773691Y-103830000D02*
G01*
X107773691Y-101814019D01*
X108333984Y-101814019D01*
X108333984Y-102718206D01*
X108216259Y-102575568D01*
X108290242Y-102501815D01*
X108373704Y-102438090D01*
X108434612Y-102401179D01*
X108525240Y-102361687D01*
X108623834Y-102338588D01*
X108720377Y-102331814D01*
X108820241Y-102336943D01*
X108922006Y-102354975D01*
X109021936Y-102390238D01*
X109066713Y-102413879D01*
X109153222Y-102476591D01*
X109223338Y-102551886D01*
X109272854Y-102631256D01*
X109312068Y-102726890D01*
X109335004Y-102828411D01*
X109341730Y-102925812D01*
X109341730Y-103830000D01*
X108781926Y-103830000D01*
X108781926Y-103082616D01*
X108767149Y-102983576D01*
X108722819Y-102905296D01*
X108640799Y-102849929D01*
X108554780Y-102835931D01*
X108456503Y-102851318D01*
X108430216Y-102864263D01*
X108363805Y-102936124D01*
X108357432Y-102949748D01*
X108335450Y-103045369D01*
X108333984Y-103082616D01*
X108333984Y-103830000D01*
X107773691Y-103830000D01*
G37*
G36*
X110494835Y-102336839D02*
G01*
X110593063Y-102351916D01*
X110698454Y-102381454D01*
X110796517Y-102424120D01*
X110819888Y-102436838D01*
X110907602Y-102493747D01*
X110985118Y-102559448D01*
X111052438Y-102633942D01*
X111109560Y-102717229D01*
X111155295Y-102806866D01*
X111187962Y-102900900D01*
X111207563Y-102999330D01*
X111214096Y-103102156D01*
X111207054Y-103204485D01*
X111185928Y-103303929D01*
X111154501Y-103391828D01*
X111107862Y-103483568D01*
X111049217Y-103568036D01*
X110985485Y-103638513D01*
X110905074Y-103707144D01*
X110814965Y-103765269D01*
X110724633Y-103808995D01*
X110627404Y-103842225D01*
X110523782Y-103863148D01*
X110425057Y-103871455D01*
X110390998Y-103872009D01*
X110287137Y-103866984D01*
X110188839Y-103851907D01*
X110083311Y-103822369D01*
X109985049Y-103779703D01*
X109961619Y-103766985D01*
X109874088Y-103710107D01*
X109796633Y-103644497D01*
X109729252Y-103570156D01*
X109671947Y-103487083D01*
X109626426Y-103397445D01*
X109593911Y-103303412D01*
X109574402Y-103204982D01*
X109567899Y-103102156D01*
X110111095Y-103102156D01*
X110124183Y-103201267D01*
X110148220Y-103258960D01*
X110211735Y-103335110D01*
X110248848Y-103360565D01*
X110343323Y-103392742D01*
X110390998Y-103396224D01*
X110491538Y-103379370D01*
X110532659Y-103360565D01*
X110607948Y-103297008D01*
X110633775Y-103258960D01*
X110666513Y-103161677D01*
X110670900Y-103102156D01*
X110657984Y-103002809D01*
X110634264Y-102945352D01*
X110571400Y-102868992D01*
X110534124Y-102843747D01*
X110439188Y-102811570D01*
X110390998Y-102808087D01*
X110293224Y-102823445D01*
X110247383Y-102843747D01*
X110172765Y-102907094D01*
X110147243Y-102945352D01*
X110115367Y-103042414D01*
X110111095Y-103102156D01*
X109567899Y-103102156D01*
X109574884Y-102999606D01*
X109595836Y-102900173D01*
X109627006Y-102812484D01*
X109673923Y-102720743D01*
X109732731Y-102636276D01*
X109796511Y-102565799D01*
X109876922Y-102496890D01*
X109967030Y-102438601D01*
X110057362Y-102394829D01*
X110155011Y-102361598D01*
X110258671Y-102340675D01*
X110357105Y-102332368D01*
X110390998Y-102331814D01*
X110494835Y-102336839D01*
G37*
G36*
X112174459Y-103872009D02*
G01*
X112075046Y-103867194D01*
X111967098Y-103849899D01*
X111865196Y-103820025D01*
X111769338Y-103777572D01*
X111757781Y-103771381D01*
X111670525Y-103716274D01*
X111592917Y-103652069D01*
X111524956Y-103578765D01*
X111466643Y-103496364D01*
X111419840Y-103406330D01*
X111386409Y-103310617D01*
X111366351Y-103209226D01*
X111359665Y-103102156D01*
X111365819Y-103001959D01*
X111386803Y-102897252D01*
X111422679Y-102798318D01*
X111471947Y-102706089D01*
X111533106Y-102622173D01*
X111599023Y-102553098D01*
X111681381Y-102486435D01*
X111772628Y-102430854D01*
X111863294Y-102389944D01*
X111960371Y-102359289D01*
X112062313Y-102339988D01*
X112169122Y-102332041D01*
X112191067Y-102331814D01*
X112298029Y-102336632D01*
X112400315Y-102351086D01*
X112497926Y-102375177D01*
X112516887Y-102381151D01*
X112608383Y-102416213D01*
X112701755Y-102465250D01*
X112787509Y-102525254D01*
X112549616Y-102936559D01*
X112471220Y-102875656D01*
X112397697Y-102838862D01*
X112299746Y-102813166D01*
X112230146Y-102808087D01*
X112131501Y-102817738D01*
X112058199Y-102842281D01*
X111978899Y-102900835D01*
X111948779Y-102942421D01*
X111916455Y-103035729D01*
X111911165Y-103102156D01*
X111925274Y-103204561D01*
X111972023Y-103292664D01*
X111996650Y-103318555D01*
X112083978Y-103371649D01*
X112187506Y-103394328D01*
X112233077Y-103396224D01*
X112333223Y-103386022D01*
X112417236Y-103360076D01*
X112508348Y-103310121D01*
X112585764Y-103247725D01*
X112798744Y-103670265D01*
X112715921Y-103725019D01*
X112624988Y-103772045D01*
X112525945Y-103811344D01*
X112505164Y-103818276D01*
X112401084Y-103846612D01*
X112297672Y-103864453D01*
X112194928Y-103871799D01*
X112174459Y-103872009D01*
G37*
G36*
X113796999Y-102336839D02*
G01*
X113895226Y-102351916D01*
X114000617Y-102381454D01*
X114098680Y-102424120D01*
X114122051Y-102436838D01*
X114209765Y-102493747D01*
X114287282Y-102559448D01*
X114354601Y-102633942D01*
X114411723Y-102717229D01*
X114457458Y-102806866D01*
X114490125Y-102900900D01*
X114509726Y-102999330D01*
X114516259Y-103102156D01*
X114509217Y-103204485D01*
X114488091Y-103303929D01*
X114456664Y-103391828D01*
X114410025Y-103483568D01*
X114351380Y-103568036D01*
X114287648Y-103638513D01*
X114207237Y-103707144D01*
X114117128Y-103765269D01*
X114026797Y-103808995D01*
X113929567Y-103842225D01*
X113825945Y-103863148D01*
X113727220Y-103871455D01*
X113693161Y-103872009D01*
X113589300Y-103866984D01*
X113491002Y-103851907D01*
X113385474Y-103822369D01*
X113287212Y-103779703D01*
X113263782Y-103766985D01*
X113176252Y-103710107D01*
X113098796Y-103644497D01*
X113031416Y-103570156D01*
X112974110Y-103487083D01*
X112928589Y-103397445D01*
X112896074Y-103303412D01*
X112876566Y-103204982D01*
X112870063Y-103102156D01*
X113413259Y-103102156D01*
X113426347Y-103201267D01*
X113450384Y-103258960D01*
X113513898Y-103335110D01*
X113551012Y-103360565D01*
X113645486Y-103392742D01*
X113693161Y-103396224D01*
X113793701Y-103379370D01*
X113834822Y-103360565D01*
X113910112Y-103297008D01*
X113935938Y-103258960D01*
X113968676Y-103161677D01*
X113973063Y-103102156D01*
X113960148Y-103002809D01*
X113936427Y-102945352D01*
X113873563Y-102868992D01*
X113836287Y-102843747D01*
X113741351Y-102811570D01*
X113693161Y-102808087D01*
X113595388Y-102823445D01*
X113549546Y-102843747D01*
X113474928Y-102907094D01*
X113449407Y-102945352D01*
X113417530Y-103042414D01*
X113413259Y-103102156D01*
X112870063Y-103102156D01*
X112877047Y-102999606D01*
X112898000Y-102900173D01*
X112929169Y-102812484D01*
X112976086Y-102720743D01*
X113034894Y-102636276D01*
X113098674Y-102565799D01*
X113179085Y-102496890D01*
X113269194Y-102438601D01*
X113359525Y-102394829D01*
X113457175Y-102361598D01*
X113560835Y-102340675D01*
X113659268Y-102332368D01*
X113693161Y-102331814D01*
X113796999Y-102336839D01*
G37*
G36*
X114999372Y-103830000D02*
G01*
X114576343Y-102373824D01*
X115111235Y-102373824D01*
X115298813Y-103188618D01*
X115525471Y-102373824D01*
X116029588Y-102373824D01*
X116253803Y-103188618D01*
X116432589Y-102373824D01*
X116950872Y-102373824D01*
X116527843Y-103830000D01*
X115979274Y-103830000D01*
X115769225Y-103048911D01*
X115547941Y-103830000D01*
X114999372Y-103830000D01*
G37*
G36*
X117135031Y-103830000D02*
G01*
X117135031Y-102373824D01*
X117695324Y-102373824D01*
X117695324Y-103830000D01*
X117135031Y-103830000D01*
G37*
G36*
X117415422Y-102186245D02*
G01*
X117315175Y-102173185D01*
X117220020Y-102129908D01*
X117189253Y-102107110D01*
X117123804Y-102026554D01*
X117095847Y-101931492D01*
X117093510Y-101889734D01*
X117109311Y-101786852D01*
X117161671Y-101698054D01*
X117189253Y-101671870D01*
X117272768Y-101620633D01*
X117367732Y-101595517D01*
X117415422Y-101592735D01*
X117515353Y-101605795D01*
X117610348Y-101649072D01*
X117641102Y-101671870D01*
X117706886Y-101752519D01*
X117734985Y-101847836D01*
X117737334Y-101889734D01*
X117721452Y-101992301D01*
X117668825Y-102080938D01*
X117641102Y-102107110D01*
X117557668Y-102158347D01*
X117462946Y-102183463D01*
X117415422Y-102186245D01*
G37*
G36*
X118613677Y-103872009D02*
G01*
X118512584Y-103867682D01*
X118413001Y-103854699D01*
X118347453Y-103841235D01*
X118246071Y-103812683D01*
X118153074Y-103777037D01*
X118112980Y-103758192D01*
X118025954Y-103705835D01*
X117952756Y-103639490D01*
X118114933Y-103199853D01*
X118188330Y-103274626D01*
X118275405Y-103330997D01*
X118313747Y-103349330D01*
X118410536Y-103382966D01*
X118509660Y-103401079D01*
X118577041Y-103404528D01*
X118676978Y-103393379D01*
X118722610Y-103378639D01*
X118806950Y-103323346D01*
X118821284Y-103306831D01*
X118856386Y-103214775D01*
X118856943Y-103199853D01*
X118833605Y-103101175D01*
X118783182Y-103044515D01*
X118694025Y-103001825D01*
X118596580Y-102989804D01*
X118497515Y-102997025D01*
X118486671Y-102998597D01*
X118388229Y-103018522D01*
X118369923Y-103023510D01*
X118224354Y-102676196D01*
X118669365Y-102320579D01*
X117980600Y-102320579D01*
X117980600Y-101870195D01*
X119291207Y-101870195D01*
X119291207Y-102284431D01*
X118893580Y-102670823D01*
X118995187Y-102695640D01*
X119087024Y-102737103D01*
X119121703Y-102757773D01*
X119204951Y-102823156D01*
X119270347Y-102898821D01*
X119303419Y-102949748D01*
X119344302Y-103039489D01*
X119368214Y-103141467D01*
X119375227Y-103244794D01*
X119367499Y-103343369D01*
X119340785Y-103445645D01*
X119294989Y-103540289D01*
X119277529Y-103567194D01*
X119209523Y-103649655D01*
X119135918Y-103713999D01*
X119050567Y-103768992D01*
X119008862Y-103790432D01*
X118908282Y-103829866D01*
X118811936Y-103854085D01*
X118709057Y-103868106D01*
X118613677Y-103872009D01*
G37*
G36*
X121103000Y-102236559D02*
G01*
X121002901Y-102252443D01*
X120900548Y-102273062D01*
X120828472Y-102290781D01*
X120731294Y-102319469D01*
X120635658Y-102355052D01*
X120603768Y-102368939D01*
X120514932Y-102414105D01*
X120431294Y-102467960D01*
X120426448Y-102471521D01*
X120350753Y-102535449D01*
X120293580Y-102598039D01*
X120388915Y-102568093D01*
X120416678Y-102562379D01*
X120515047Y-102550930D01*
X120548569Y-102550167D01*
X120653704Y-102556658D01*
X120752039Y-102576133D01*
X120853323Y-102612998D01*
X120891486Y-102632233D01*
X120978870Y-102689439D01*
X121053564Y-102758476D01*
X121115569Y-102839343D01*
X121126448Y-102856936D01*
X121171528Y-102950092D01*
X121199911Y-103051262D01*
X121211181Y-103149167D01*
X121211933Y-103183244D01*
X121204033Y-103288712D01*
X121180334Y-103388958D01*
X121155757Y-103452889D01*
X121107328Y-103542419D01*
X121045573Y-103623431D01*
X120996999Y-103672707D01*
X120914498Y-103737576D01*
X120829097Y-103786781D01*
X120752268Y-103819741D01*
X120650846Y-103849499D01*
X120552233Y-103865833D01*
X120447514Y-103871958D01*
X120436706Y-103872009D01*
X120337457Y-103867288D01*
X120230097Y-103850328D01*
X120129209Y-103821034D01*
X120034794Y-103779406D01*
X120023447Y-103773335D01*
X119938084Y-103718930D01*
X119862247Y-103654389D01*
X119795935Y-103579712D01*
X119739148Y-103494898D01*
X119693841Y-103400834D01*
X119661479Y-103298893D01*
X119643536Y-103197411D01*
X120178786Y-103197411D01*
X120199358Y-103293331D01*
X120212491Y-103317090D01*
X120283386Y-103387514D01*
X120304326Y-103399644D01*
X120400589Y-103427579D01*
X120436706Y-103429441D01*
X120534860Y-103414048D01*
X120568597Y-103399644D01*
X120646934Y-103335917D01*
X120660432Y-103317090D01*
X120692953Y-103222008D01*
X120694138Y-103197411D01*
X120673566Y-103101323D01*
X120660432Y-103077732D01*
X120589537Y-103007159D01*
X120568597Y-102995177D01*
X120472793Y-102966784D01*
X120436706Y-102964891D01*
X120338300Y-102980537D01*
X120304326Y-102995177D01*
X120225989Y-103058755D01*
X120212491Y-103077732D01*
X120179971Y-103172664D01*
X120178786Y-103197411D01*
X119643536Y-103197411D01*
X119642062Y-103189076D01*
X119635691Y-103086524D01*
X119635589Y-103071381D01*
X119640311Y-102964685D01*
X119654476Y-102861729D01*
X119678085Y-102762513D01*
X119711137Y-102667037D01*
X119734264Y-102614159D01*
X119781127Y-102524813D01*
X119835376Y-102440143D01*
X119897012Y-102360148D01*
X119966035Y-102284828D01*
X120008793Y-102243886D01*
X120088417Y-102176003D01*
X120173418Y-102113402D01*
X120263795Y-102056083D01*
X120359548Y-102004048D01*
X120416678Y-101976685D01*
X120520018Y-101933181D01*
X120626584Y-101895848D01*
X120720493Y-101868760D01*
X120816773Y-101846206D01*
X120915422Y-101828185D01*
X121103000Y-102236559D01*
G37*
D12*
X174944862Y-96832666D02*
X173421053Y-96832666D01*
X174944862Y-106282666D02*
X173421053Y-106282666D01*
X174182957Y-105520761D02*
X174182957Y-107044571D01*
D10*
X171264761Y-62534809D02*
X171098095Y-62296714D01*
X170979047Y-62534809D02*
X170979047Y-62034809D01*
X170979047Y-62034809D02*
X171169523Y-62034809D01*
X171169523Y-62034809D02*
X171217142Y-62058619D01*
X171217142Y-62058619D02*
X171240952Y-62082428D01*
X171240952Y-62082428D02*
X171264761Y-62130047D01*
X171264761Y-62130047D02*
X171264761Y-62201476D01*
X171264761Y-62201476D02*
X171240952Y-62249095D01*
X171240952Y-62249095D02*
X171217142Y-62272904D01*
X171217142Y-62272904D02*
X171169523Y-62296714D01*
X171169523Y-62296714D02*
X170979047Y-62296714D01*
X171455238Y-62391952D02*
X171693333Y-62391952D01*
X171407619Y-62534809D02*
X171574285Y-62034809D01*
X171574285Y-62034809D02*
X171740952Y-62534809D01*
X171859999Y-62034809D02*
X171979047Y-62534809D01*
X171979047Y-62534809D02*
X172074285Y-62177666D01*
X172074285Y-62177666D02*
X172169523Y-62534809D01*
X172169523Y-62534809D02*
X172288571Y-62034809D01*
D13*
%TO.C,SW_RST1*%
X179950000Y-100550000D02*
X179950000Y-98050000D01*
X180400000Y-97600000D02*
X179950000Y-98050000D01*
X180400000Y-101000000D02*
X179950000Y-100550000D01*
X181700000Y-96550000D02*
X183700000Y-96550000D01*
X181700000Y-102050000D02*
X183700000Y-102050000D01*
X185000000Y-97600000D02*
X185450000Y-98050000D01*
X185000000Y-101000000D02*
X185450000Y-100550000D01*
X185450000Y-100550000D02*
X185450000Y-98050000D01*
%TO.C,T1*%
D11*
X188150000Y-108650000D02*
X170350000Y-108650000D01*
X170350000Y-94350000D01*
X188150000Y-94350000D01*
X188150000Y-108650000D01*
D14*
%TO.C,SW_POWER1*%
X182946891Y-117546281D02*
X183553109Y-117896281D01*
X184769134Y-117790064D02*
X186119134Y-115451795D01*
X183105866Y-115270929D02*
X183755866Y-114145096D01*
X186119134Y-115451795D02*
X186769134Y-114325962D01*
X187418172Y-116201795D02*
X186119134Y-115451795D01*
X187418172Y-116201795D02*
X188068172Y-115075962D01*
X186769134Y-114325962D02*
X187419134Y-113200129D01*
X188068172Y-115075962D02*
X186769134Y-114325962D01*
X186903109Y-112093911D02*
X186296891Y-111743911D01*
D11*
%TO.C,SW2*%
X78910000Y-59380000D02*
X83410000Y-59380000D01*
X78910000Y-59980000D02*
X78910000Y-59380000D01*
X78910000Y-64080000D02*
X78910000Y-63580000D01*
X83410000Y-63380000D02*
X83410000Y-64080000D01*
X83410000Y-64080000D02*
X78910000Y-64080000D01*
X83910000Y-58880000D02*
X83910000Y-57880000D01*
X84410000Y-57380000D02*
X83910000Y-57880000D01*
X87410000Y-57380000D02*
X84410000Y-57380000D01*
X87410000Y-61880000D02*
X84910000Y-61880000D01*
X87910000Y-57880000D02*
X87410000Y-57380000D01*
X87910000Y-61380000D02*
X87410000Y-61880000D01*
X83410000Y-63380000D02*
G75*
G02*
X84910000Y-61880000I1500001J-1D01*
G01*
X83910000Y-58880000D02*
G75*
G02*
X83410000Y-59380000I-500001J1D01*
G01*
%TO.C,SW3*%
X96910000Y-52820000D02*
X101410000Y-52820000D01*
X96910000Y-53420000D02*
X96910000Y-52820000D01*
X96910000Y-57520000D02*
X96910000Y-57020000D01*
X101410000Y-56820000D02*
X101410000Y-57520000D01*
X101410000Y-57520000D02*
X96910000Y-57520000D01*
X101910000Y-52320000D02*
X101910000Y-51320000D01*
X102410000Y-50820000D02*
X101910000Y-51320000D01*
X105410000Y-50820000D02*
X102410000Y-50820000D01*
X105410000Y-55320000D02*
X102910000Y-55320000D01*
X105910000Y-51320000D02*
X105410000Y-50820000D01*
X105910000Y-54820000D02*
X105410000Y-55320000D01*
X101410000Y-56820000D02*
G75*
G02*
X102910000Y-55320000I1500001J-1D01*
G01*
X101910000Y-52320000D02*
G75*
G02*
X101410000Y-52820000I-500001J1D01*
G01*
%TO.C,SW4*%
X114910000Y-50460000D02*
X119410000Y-50460000D01*
X114910000Y-51060000D02*
X114910000Y-50460000D01*
X114910000Y-55160000D02*
X114910000Y-54660000D01*
X119410000Y-54460000D02*
X119410000Y-55160000D01*
X119410000Y-55160000D02*
X114910000Y-55160000D01*
X119910000Y-49960000D02*
X119910000Y-48960000D01*
X120410000Y-48460000D02*
X119910000Y-48960000D01*
X123410000Y-48460000D02*
X120410000Y-48460000D01*
X123410000Y-52960000D02*
X120910000Y-52960000D01*
X123910000Y-48960000D02*
X123410000Y-48460000D01*
X123910000Y-52460000D02*
X123410000Y-52960000D01*
X119410000Y-54460000D02*
G75*
G02*
X120910000Y-52960000I1500001J-1D01*
G01*
X119910000Y-49960000D02*
G75*
G02*
X119410000Y-50460000I-500001J1D01*
G01*
%TO.C,SW5*%
X132954000Y-52820000D02*
X137454000Y-52820000D01*
X132954000Y-53420000D02*
X132954000Y-52820000D01*
X132954000Y-57520000D02*
X132954000Y-57020000D01*
X137454000Y-56820000D02*
X137454000Y-57520000D01*
X137454000Y-57520000D02*
X132954000Y-57520000D01*
X137954000Y-52320000D02*
X137954000Y-51320000D01*
X138454000Y-50820000D02*
X137954000Y-51320000D01*
X141454000Y-50820000D02*
X138454000Y-50820000D01*
X141454000Y-55320000D02*
X138954000Y-55320000D01*
X141954000Y-51320000D02*
X141454000Y-50820000D01*
X141954000Y-54820000D02*
X141454000Y-55320000D01*
X137454000Y-56820000D02*
G75*
G02*
X138954000Y-55320000I1500001J-1D01*
G01*
X137954000Y-52320000D02*
G75*
G02*
X137454000Y-52820000I-500001J1D01*
G01*
%TO.C,SW6*%
X150988000Y-55200000D02*
X155488000Y-55200000D01*
X150988000Y-55800000D02*
X150988000Y-55200000D01*
X150988000Y-59900000D02*
X150988000Y-59400000D01*
X155488000Y-59200000D02*
X155488000Y-59900000D01*
X155488000Y-59900000D02*
X150988000Y-59900000D01*
X155988000Y-54700000D02*
X155988000Y-53700000D01*
X156488000Y-53200000D02*
X155988000Y-53700000D01*
X159488000Y-53200000D02*
X156488000Y-53200000D01*
X159488000Y-57700000D02*
X156988000Y-57700000D01*
X159988000Y-53700000D02*
X159488000Y-53200000D01*
X159988000Y-57200000D02*
X159488000Y-57700000D01*
X155488000Y-59200000D02*
G75*
G02*
X156988000Y-57700000I1500001J-1D01*
G01*
X155988000Y-54700000D02*
G75*
G02*
X155488000Y-55200000I-500001J1D01*
G01*
%TO.C,SW8*%
X78852000Y-76350000D02*
X83352000Y-76350000D01*
X78852000Y-76950000D02*
X78852000Y-76350000D01*
X78852000Y-81050000D02*
X78852000Y-80550000D01*
X83352000Y-80350000D02*
X83352000Y-81050000D01*
X83352000Y-81050000D02*
X78852000Y-81050000D01*
X83852000Y-75850000D02*
X83852000Y-74850000D01*
X84352000Y-74350000D02*
X83852000Y-74850000D01*
X87352000Y-74350000D02*
X84352000Y-74350000D01*
X87352000Y-78850000D02*
X84852000Y-78850000D01*
X87852000Y-74850000D02*
X87352000Y-74350000D01*
X87852000Y-78350000D02*
X87352000Y-78850000D01*
X83352000Y-80350000D02*
G75*
G02*
X84852000Y-78850000I1500001J-1D01*
G01*
X83852000Y-75850000D02*
G75*
G02*
X83352000Y-76350000I-500001J1D01*
G01*
%TO.C,SW9*%
X96870000Y-69810000D02*
X101370000Y-69810000D01*
X96870000Y-70410000D02*
X96870000Y-69810000D01*
X96870000Y-74510000D02*
X96870000Y-74010000D01*
X101370000Y-73810000D02*
X101370000Y-74510000D01*
X101370000Y-74510000D02*
X96870000Y-74510000D01*
X101870000Y-69310000D02*
X101870000Y-68310000D01*
X102370000Y-67810000D02*
X101870000Y-68310000D01*
X105370000Y-67810000D02*
X102370000Y-67810000D01*
X105370000Y-72310000D02*
X102870000Y-72310000D01*
X105870000Y-68310000D02*
X105370000Y-67810000D01*
X105870000Y-71810000D02*
X105370000Y-72310000D01*
X101370000Y-73810000D02*
G75*
G02*
X102870000Y-72310000I1500001J-1D01*
G01*
X101870000Y-69310000D02*
G75*
G02*
X101370000Y-69810000I-500001J1D01*
G01*
%TO.C,SW10*%
X114910000Y-67440000D02*
X119410000Y-67440000D01*
X114910000Y-68040000D02*
X114910000Y-67440000D01*
X114910000Y-72140000D02*
X114910000Y-71640000D01*
X119410000Y-71440000D02*
X119410000Y-72140000D01*
X119410000Y-72140000D02*
X114910000Y-72140000D01*
X119910000Y-66940000D02*
X119910000Y-65940000D01*
X120410000Y-65440000D02*
X119910000Y-65940000D01*
X123410000Y-65440000D02*
X120410000Y-65440000D01*
X123410000Y-69940000D02*
X120910000Y-69940000D01*
X123910000Y-65940000D02*
X123410000Y-65440000D01*
X123910000Y-69440000D02*
X123410000Y-69940000D01*
X119410000Y-71440000D02*
G75*
G02*
X120910000Y-69940000I1500001J-1D01*
G01*
X119910000Y-66940000D02*
G75*
G02*
X119410000Y-67440000I-500001J1D01*
G01*
%TO.C,SW11*%
X132954000Y-69832000D02*
X137454000Y-69832000D01*
X132954000Y-70432000D02*
X132954000Y-69832000D01*
X132954000Y-74532000D02*
X132954000Y-74032000D01*
X137454000Y-73832000D02*
X137454000Y-74532000D01*
X137454000Y-74532000D02*
X132954000Y-74532000D01*
X137954000Y-69332000D02*
X137954000Y-68332000D01*
X138454000Y-67832000D02*
X137954000Y-68332000D01*
X141454000Y-67832000D02*
X138454000Y-67832000D01*
X141454000Y-72332000D02*
X138954000Y-72332000D01*
X141954000Y-68332000D02*
X141454000Y-67832000D01*
X141954000Y-71832000D02*
X141454000Y-72332000D01*
X137454000Y-73832000D02*
G75*
G02*
X138954000Y-72332000I1500001J-1D01*
G01*
X137954000Y-69332000D02*
G75*
G02*
X137454000Y-69832000I-500001J1D01*
G01*
%TO.C,SW12*%
X150940000Y-72240000D02*
X155440000Y-72240000D01*
X150940000Y-72840000D02*
X150940000Y-72240000D01*
X150940000Y-76940000D02*
X150940000Y-76440000D01*
X155440000Y-76240000D02*
X155440000Y-76940000D01*
X155440000Y-76940000D02*
X150940000Y-76940000D01*
X155940000Y-71740000D02*
X155940000Y-70740000D01*
X156440000Y-70240000D02*
X155940000Y-70740000D01*
X159440000Y-70240000D02*
X156440000Y-70240000D01*
X159440000Y-74740000D02*
X156940000Y-74740000D01*
X159940000Y-70740000D02*
X159440000Y-70240000D01*
X159940000Y-74240000D02*
X159440000Y-74740000D01*
X155440000Y-76240000D02*
G75*
G02*
X156940000Y-74740000I1500001J-1D01*
G01*
X155940000Y-71740000D02*
G75*
G02*
X155440000Y-72240000I-500001J1D01*
G01*
%TO.C,SW14*%
X78852000Y-93368000D02*
X83352000Y-93368000D01*
X78852000Y-93968000D02*
X78852000Y-93368000D01*
X78852000Y-98068000D02*
X78852000Y-97568000D01*
X83352000Y-97368000D02*
X83352000Y-98068000D01*
X83352000Y-98068000D02*
X78852000Y-98068000D01*
X83852000Y-92868000D02*
X83852000Y-91868000D01*
X84352000Y-91368000D02*
X83852000Y-91868000D01*
X87352000Y-91368000D02*
X84352000Y-91368000D01*
X87352000Y-95868000D02*
X84852000Y-95868000D01*
X87852000Y-91868000D02*
X87352000Y-91368000D01*
X87852000Y-95368000D02*
X87352000Y-95868000D01*
X83352000Y-97368000D02*
G75*
G02*
X84852000Y-95868000I1500001J-1D01*
G01*
X83852000Y-92868000D02*
G75*
G02*
X83352000Y-93368000I-500001J1D01*
G01*
%TO.C,SW15*%
X96870000Y-86828000D02*
X101370000Y-86828000D01*
X96870000Y-87428000D02*
X96870000Y-86828000D01*
X96870000Y-91528000D02*
X96870000Y-91028000D01*
X101370000Y-90828000D02*
X101370000Y-91528000D01*
X101370000Y-91528000D02*
X96870000Y-91528000D01*
X101870000Y-86328000D02*
X101870000Y-85328000D01*
X102370000Y-84828000D02*
X101870000Y-85328000D01*
X105370000Y-84828000D02*
X102370000Y-84828000D01*
X105370000Y-89328000D02*
X102870000Y-89328000D01*
X105870000Y-85328000D02*
X105370000Y-84828000D01*
X105870000Y-88828000D02*
X105370000Y-89328000D01*
X101370000Y-90828000D02*
G75*
G02*
X102870000Y-89328000I1500001J-1D01*
G01*
X101870000Y-86328000D02*
G75*
G02*
X101370000Y-86828000I-500001J1D01*
G01*
%TO.C,SW16*%
X114910000Y-84458000D02*
X119410000Y-84458000D01*
X114910000Y-85058000D02*
X114910000Y-84458000D01*
X114910000Y-89158000D02*
X114910000Y-88658000D01*
X119410000Y-88458000D02*
X119410000Y-89158000D01*
X119410000Y-89158000D02*
X114910000Y-89158000D01*
X119910000Y-83958000D02*
X119910000Y-82958000D01*
X120410000Y-82458000D02*
X119910000Y-82958000D01*
X123410000Y-82458000D02*
X120410000Y-82458000D01*
X123410000Y-86958000D02*
X120910000Y-86958000D01*
X123910000Y-82958000D02*
X123410000Y-82458000D01*
X123910000Y-86458000D02*
X123410000Y-86958000D01*
X119410000Y-88458000D02*
G75*
G02*
X120910000Y-86958000I1500001J-1D01*
G01*
X119910000Y-83958000D02*
G75*
G02*
X119410000Y-84458000I-500001J1D01*
G01*
%TO.C,SW17*%
X132954000Y-86850000D02*
X137454000Y-86850000D01*
X132954000Y-87450000D02*
X132954000Y-86850000D01*
X132954000Y-91550000D02*
X132954000Y-91050000D01*
X137454000Y-90850000D02*
X137454000Y-91550000D01*
X137454000Y-91550000D02*
X132954000Y-91550000D01*
X137954000Y-86350000D02*
X137954000Y-85350000D01*
X138454000Y-84850000D02*
X137954000Y-85350000D01*
X141454000Y-84850000D02*
X138454000Y-84850000D01*
X141454000Y-89350000D02*
X138954000Y-89350000D01*
X141954000Y-85350000D02*
X141454000Y-84850000D01*
X141954000Y-88850000D02*
X141454000Y-89350000D01*
X137454000Y-90850000D02*
G75*
G02*
X138954000Y-89350000I1500001J-1D01*
G01*
X137954000Y-86350000D02*
G75*
G02*
X137454000Y-86850000I-500001J1D01*
G01*
%TO.C,SW18*%
X150940000Y-89257999D02*
X155440000Y-89258000D01*
X150940000Y-93958000D02*
X150940000Y-93458000D01*
X150940001Y-89858000D02*
X150940000Y-89257999D01*
X155440000Y-93258000D02*
X155440000Y-93958000D01*
X155440000Y-93958000D02*
X150940000Y-93958000D01*
X155940000Y-88758000D02*
X155940000Y-87758000D01*
X156440000Y-87258000D02*
X155940000Y-87758000D01*
X159440000Y-87258000D02*
X156440000Y-87258000D01*
X159440000Y-91758000D02*
X156940000Y-91758000D01*
X159940000Y-87758000D02*
X159440000Y-87258000D01*
X159940000Y-91258000D02*
X159440000Y-91758000D01*
X155440000Y-93258000D02*
G75*
G02*
X156940000Y-91758000I1500001J-1D01*
G01*
X155940000Y-88758000D02*
G75*
G02*
X155440000Y-89258000I-500001J1D01*
G01*
%TO.C,SW20*%
X145380648Y-111540378D02*
X145510057Y-111057415D01*
X146441806Y-107580082D02*
X146597097Y-107000528D01*
X146597097Y-107000528D02*
X150943764Y-108165212D01*
X149727314Y-112705064D02*
X145380648Y-111540378D01*
X149908487Y-112028917D02*
X149727314Y-112705064D01*
X151556136Y-107811659D02*
X151814955Y-106845733D01*
X152427327Y-106492180D02*
X151814955Y-106845733D01*
X154160419Y-111615303D02*
X151745606Y-110968255D01*
X154772792Y-111261750D02*
X154160419Y-111615303D01*
X155325105Y-107268637D02*
X152427327Y-106492180D01*
X155678658Y-107881008D02*
X155325105Y-107268637D01*
X149908487Y-112028917D02*
G75*
G02*
X151745606Y-110968255I1448891J-388229D01*
G01*
X151556136Y-107811659D02*
G75*
G02*
X150943764Y-108165213I-482964J129411D01*
G01*
%TO.C,SW21*%
X165137822Y-117991462D02*
X165387822Y-117558449D01*
X167187822Y-114440758D02*
X167487822Y-113921142D01*
X167487822Y-113921142D02*
X171384937Y-116171142D01*
X169034936Y-120241462D02*
X165137822Y-117991462D01*
X169384936Y-119635244D02*
X169034936Y-120241462D01*
X172067949Y-115988130D02*
X172567949Y-115122104D01*
X173250962Y-114939092D02*
X172567949Y-115122104D01*
X173599038Y-120336206D02*
X171433975Y-119086206D01*
X174282051Y-120153193D02*
X173599038Y-120336206D01*
X175849038Y-116439092D02*
X173250962Y-114939092D01*
X176032051Y-117122104D02*
X175849038Y-116439092D01*
X169384936Y-119635244D02*
G75*
G02*
X171433975Y-119086206I1299039J-750001D01*
G01*
X172067949Y-115988130D02*
G75*
G02*
X171384937Y-116171142I-433012J250001D01*
G01*
%TO.C,SW19*%
X125200000Y-105199999D02*
X129700000Y-105200000D01*
X125200000Y-109900000D02*
X125200000Y-109400000D01*
X125200001Y-105800000D02*
X125200000Y-105199999D01*
X129700000Y-109200000D02*
X129700000Y-109900000D01*
X129700000Y-109900000D02*
X125200000Y-109900000D01*
X130200000Y-104700000D02*
X130200000Y-103700000D01*
X130700000Y-103200000D02*
X130200000Y-103700000D01*
X133700000Y-103200000D02*
X130700000Y-103200000D01*
X133700000Y-107700000D02*
X131200000Y-107700000D01*
X134200000Y-103700000D02*
X133700000Y-103200000D01*
X134200000Y-107200000D02*
X133700000Y-107700000D01*
X129700000Y-109200000D02*
G75*
G02*
X131200000Y-107700000I1500001J-1D01*
G01*
X130200000Y-104700000D02*
G75*
G02*
X129700000Y-105200000I-500001J1D01*
G01*
%TD*%
M02*
