%TF.GenerationSoftware,KiCad,Pcbnew,8.0.4*%
%TF.CreationDate,2024-09-02T19:21:00+07:00*%
%TF.ProjectId,chocowi36,63686f63-6f77-4693-9336-2e6b69636164,rev?*%
%TF.SameCoordinates,Original*%
%TF.FileFunction,Drillmap*%
%TF.FilePolarity,Positive*%
%FSLAX45Y45*%
G04 Gerber Fmt 4.5, Leading zero omitted, Abs format (unit mm)*
G04 Created by KiCad (PCBNEW 8.0.4) date 2024-09-02 19:21:00*
%MOMM*%
%LPD*%
G01*
G04 APERTURE LIST*
%ADD10C,0.150000*%
%ADD11C,0.200000*%
%ADD12C,0.100000*%
%ADD13C,0.170180*%
%ADD14C,0.220000*%
%ADD15C,0.300000*%
%ADD16C,0.342900*%
G04 APERTURE END LIST*
D10*
X14011000Y-12099000D02*
X15545000Y-12510000D01*
X16831000Y-5263000D02*
G75*
G02*
X16951747Y-5421000I-43000J-158000D01*
G01*
X7644713Y-5681090D02*
X10248000Y-4736000D01*
X11380000Y-10940000D02*
G75*
G02*
X11615824Y-11048015I0J-311440D01*
G01*
X11615825Y-11048014D02*
X12501000Y-11999000D01*
X18824000Y-6055155D02*
X18822448Y-11304798D01*
X12737000Y-12099452D02*
X14011000Y-12099000D01*
X7518722Y-5853000D02*
G75*
G02*
X7644713Y-5681090I180278J0D01*
G01*
X15545000Y-12510000D02*
X17338983Y-13540679D01*
X7580755Y-10940000D02*
G75*
G02*
X7519997Y-10874555I5J60930D01*
G01*
X18774000Y-5989871D02*
X16997964Y-5989871D01*
X18774000Y-5989871D02*
G75*
G02*
X18823993Y-6055155I-17610J-65269D01*
G01*
X7518722Y-5853000D02*
X7520000Y-10874555D01*
X12737000Y-12099452D02*
G75*
G02*
X12501000Y-11999000I0J327452D01*
G01*
X17528519Y-13500986D02*
X18822448Y-11304798D01*
X16997964Y-5989871D02*
G75*
G02*
X16950098Y-5939002I2036J49871D01*
G01*
X17528519Y-13500986D02*
G75*
G02*
X17335722Y-13538929I-115299J77066D01*
G01*
X16831000Y-5263000D02*
X14840000Y-4734000D01*
X16950098Y-5939002D02*
X16951747Y-5421000D01*
X10248000Y-4736000D02*
X14840000Y-4734000D01*
X11380000Y-10940000D02*
X7580755Y-10940000D01*
D11*
D12*
X17515000Y-6132500D02*
X17595000Y-6212500D01*
X17595000Y-6132500D02*
X17515000Y-6212500D01*
X17815000Y-6132500D02*
X17895000Y-6212500D01*
X17895000Y-6132500D02*
X17815000Y-6212500D01*
X18715000Y-9940000D02*
G75*
G02*
X18615000Y-9940000I-50000J0D01*
G01*
X18615000Y-9940000D02*
G75*
G02*
X18715000Y-9940000I50000J0D01*
G01*
X18715000Y-10160000D02*
G75*
G02*
X18615000Y-10160000I-50000J0D01*
G01*
X18615000Y-10160000D02*
G75*
G02*
X18715000Y-10160000I50000J0D01*
G01*
D13*
X8035200Y-8169910D02*
X8035200Y-8340090D01*
X7950110Y-8255000D02*
X8120290Y-8255000D01*
X8035200Y-9871710D02*
X8035200Y-10041890D01*
X7950110Y-9956800D02*
X8120290Y-9956800D01*
X8041000Y-6472910D02*
X8041000Y-6643090D01*
X7955910Y-6558000D02*
X8126090Y-6558000D01*
X9135200Y-8169910D02*
X9135200Y-8340090D01*
X9050110Y-8255000D02*
X9220290Y-8255000D01*
X9135200Y-9871710D02*
X9135200Y-10041890D01*
X9050110Y-9956800D02*
X9220290Y-9956800D01*
X9141000Y-6472910D02*
X9141000Y-6643090D01*
X9055910Y-6558000D02*
X9226090Y-6558000D01*
X9837000Y-7515910D02*
X9837000Y-7686090D01*
X9751910Y-7601000D02*
X9922090Y-7601000D01*
X9837000Y-9217710D02*
X9837000Y-9387890D01*
X9751910Y-9302800D02*
X9922090Y-9302800D01*
X9841000Y-5816910D02*
X9841000Y-5987090D01*
X9755910Y-5902000D02*
X9926090Y-5902000D01*
X10937000Y-7515910D02*
X10937000Y-7686090D01*
X10851910Y-7601000D02*
X11022090Y-7601000D01*
X10937000Y-9217710D02*
X10937000Y-9387890D01*
X10851910Y-9302800D02*
X11022090Y-9302800D01*
X10941000Y-5816910D02*
X10941000Y-5987090D01*
X10855910Y-5902000D02*
X11026090Y-5902000D01*
X11641000Y-5580910D02*
X11641000Y-5751090D01*
X11555910Y-5666000D02*
X11726090Y-5666000D01*
X11641000Y-7278910D02*
X11641000Y-7449090D01*
X11555910Y-7364000D02*
X11726090Y-7364000D01*
X11641000Y-8980710D02*
X11641000Y-9150890D01*
X11555910Y-9065800D02*
X11726090Y-9065800D01*
X12741000Y-5580910D02*
X12741000Y-5751090D01*
X12655910Y-5666000D02*
X12826090Y-5666000D01*
X12741000Y-7278910D02*
X12741000Y-7449090D01*
X12655910Y-7364000D02*
X12826090Y-7364000D01*
X12741000Y-8980710D02*
X12741000Y-9150890D01*
X12655910Y-9065800D02*
X12826090Y-9065800D01*
X12907000Y-11043910D02*
X12907000Y-11214090D01*
X12821910Y-11129000D02*
X12992090Y-11129000D01*
X13445400Y-5816910D02*
X13445400Y-5987090D01*
X13360310Y-5902000D02*
X13530490Y-5902000D01*
X13445400Y-7518110D02*
X13445400Y-7688290D01*
X13360310Y-7603200D02*
X13530490Y-7603200D01*
X13445400Y-9219910D02*
X13445400Y-9390090D01*
X13360310Y-9305000D02*
X13530490Y-9305000D01*
X14007000Y-11043910D02*
X14007000Y-11214090D01*
X13921910Y-11129000D02*
X14092090Y-11129000D01*
X14545400Y-5816910D02*
X14545400Y-5987090D01*
X14460310Y-5902000D02*
X14630490Y-5902000D01*
X14545400Y-7518110D02*
X14545400Y-7688290D01*
X14460310Y-7603200D02*
X14630490Y-7603200D01*
X14545400Y-9219910D02*
X14545400Y-9390090D01*
X14460310Y-9305000D02*
X14630490Y-9305000D01*
X14737444Y-11228663D02*
X14737444Y-11398843D01*
X14652354Y-11313753D02*
X14822534Y-11313753D01*
X15244000Y-7758910D02*
X15244000Y-7929090D01*
X15158910Y-7844000D02*
X15329090Y-7844000D01*
X15244000Y-9460710D02*
X15244000Y-9630890D01*
X15158910Y-9545800D02*
X15329090Y-9545800D01*
X15248800Y-6054910D02*
X15248800Y-6225090D01*
X15163710Y-6140000D02*
X15333890Y-6140000D01*
X15799962Y-11513364D02*
X15799962Y-11683544D01*
X15714872Y-11598454D02*
X15885052Y-11598454D01*
X16344000Y-7758910D02*
X16344000Y-7929090D01*
X16258910Y-7844000D02*
X16429090Y-7844000D01*
X16344000Y-9460710D02*
X16344000Y-9630890D01*
X16258910Y-9545800D02*
X16429090Y-9545800D01*
X16348800Y-6054910D02*
X16348800Y-6225090D01*
X16263710Y-6140000D02*
X16433890Y-6140000D01*
X16520686Y-11890955D02*
X16520686Y-12061135D01*
X16435596Y-11976045D02*
X16605776Y-11976045D01*
X17473314Y-12440955D02*
X17473314Y-12611135D01*
X17388224Y-12526045D02*
X17558404Y-12526045D01*
D14*
X9127783Y-5579783D02*
X9127783Y-5424218D01*
X8972218Y-5424218D01*
X8972218Y-5579783D01*
X9127783Y-5579783D01*
X10468783Y-10577783D02*
X10468783Y-10422218D01*
X10313218Y-10422218D01*
X10313218Y-10577783D01*
X10468783Y-10577783D01*
X15135782Y-5174783D02*
X15135782Y-5019218D01*
X14980217Y-5019218D01*
X14980217Y-5174783D01*
X15135782Y-5174783D01*
X17933783Y-11210782D02*
X17933783Y-11055218D01*
X17778218Y-11055218D01*
X17778218Y-11210782D01*
X17933783Y-11210782D01*
D15*
X8085200Y-8030000D02*
X8235200Y-7880000D01*
X8085200Y-7730000D01*
X7935200Y-7880000D01*
X8085200Y-8030000D01*
X8085200Y-9731800D02*
X8235200Y-9581800D01*
X8085200Y-9431800D01*
X7935200Y-9581800D01*
X8085200Y-9731800D01*
X8091000Y-6333000D02*
X8241000Y-6183000D01*
X8091000Y-6033000D01*
X7941000Y-6183000D01*
X8091000Y-6333000D01*
X8585200Y-7810000D02*
X8735200Y-7660000D01*
X8585200Y-7510000D01*
X8435200Y-7660000D01*
X8585200Y-7810000D01*
X8585200Y-9511800D02*
X8735200Y-9361800D01*
X8585200Y-9211800D01*
X8435200Y-9361800D01*
X8585200Y-9511800D01*
X8591000Y-6113000D02*
X8741000Y-5963000D01*
X8591000Y-5813000D01*
X8441000Y-5963000D01*
X8591000Y-6113000D01*
X9085200Y-8030000D02*
X9235200Y-7880000D01*
X9085200Y-7730000D01*
X8935200Y-7880000D01*
X9085200Y-8030000D01*
X9085200Y-9731800D02*
X9235200Y-9581800D01*
X9085200Y-9431800D01*
X8935200Y-9581800D01*
X9085200Y-9731800D01*
X9091000Y-6333000D02*
X9241000Y-6183000D01*
X9091000Y-6033000D01*
X8941000Y-6183000D01*
X9091000Y-6333000D01*
X9887000Y-7376000D02*
X10037000Y-7226000D01*
X9887000Y-7076000D01*
X9737000Y-7226000D01*
X9887000Y-7376000D01*
X9887000Y-9077800D02*
X10037000Y-8927800D01*
X9887000Y-8777800D01*
X9737000Y-8927800D01*
X9887000Y-9077800D01*
X9891000Y-5677000D02*
X10041000Y-5527000D01*
X9891000Y-5377000D01*
X9741000Y-5527000D01*
X9891000Y-5677000D01*
X10387000Y-7156000D02*
X10537000Y-7006000D01*
X10387000Y-6856000D01*
X10237000Y-7006000D01*
X10387000Y-7156000D01*
X10387000Y-8857800D02*
X10537000Y-8707800D01*
X10387000Y-8557800D01*
X10237000Y-8707800D01*
X10387000Y-8857800D01*
X10391000Y-5457000D02*
X10541000Y-5307000D01*
X10391000Y-5157000D01*
X10241000Y-5307000D01*
X10391000Y-5457000D01*
X10887000Y-7376000D02*
X11037000Y-7226000D01*
X10887000Y-7076000D01*
X10737000Y-7226000D01*
X10887000Y-7376000D01*
X10887000Y-9077800D02*
X11037000Y-8927800D01*
X10887000Y-8777800D01*
X10737000Y-8927800D01*
X10887000Y-9077800D01*
X10891000Y-5677000D02*
X11041000Y-5527000D01*
X10891000Y-5377000D01*
X10741000Y-5527000D01*
X10891000Y-5677000D01*
X11691000Y-5441000D02*
X11841000Y-5291000D01*
X11691000Y-5141000D01*
X11541000Y-5291000D01*
X11691000Y-5441000D01*
X11691000Y-7139000D02*
X11841000Y-6989000D01*
X11691000Y-6839000D01*
X11541000Y-6989000D01*
X11691000Y-7139000D01*
X11691000Y-8840800D02*
X11841000Y-8690800D01*
X11691000Y-8540800D01*
X11541000Y-8690800D01*
X11691000Y-8840800D01*
X12191000Y-5221000D02*
X12341000Y-5071000D01*
X12191000Y-4921000D01*
X12041000Y-5071000D01*
X12191000Y-5221000D01*
X12191000Y-6919000D02*
X12341000Y-6769000D01*
X12191000Y-6619000D01*
X12041000Y-6769000D01*
X12191000Y-6919000D01*
X12191000Y-8620800D02*
X12341000Y-8470800D01*
X12191000Y-8320800D01*
X12041000Y-8470800D01*
X12191000Y-8620800D01*
X12691000Y-5441000D02*
X12841000Y-5291000D01*
X12691000Y-5141000D01*
X12541000Y-5291000D01*
X12691000Y-5441000D01*
X12691000Y-7139000D02*
X12841000Y-6989000D01*
X12691000Y-6839000D01*
X12541000Y-6989000D01*
X12691000Y-7139000D01*
X12691000Y-8840800D02*
X12841000Y-8690800D01*
X12691000Y-8540800D01*
X12541000Y-8690800D01*
X12691000Y-8840800D01*
X12957000Y-10904000D02*
X13107000Y-10754000D01*
X12957000Y-10604000D01*
X12807000Y-10754000D01*
X12957000Y-10904000D01*
X13457000Y-10684000D02*
X13607000Y-10534000D01*
X13457000Y-10384000D01*
X13307000Y-10534000D01*
X13457000Y-10684000D01*
X13495400Y-5677000D02*
X13645400Y-5527000D01*
X13495400Y-5377000D01*
X13345400Y-5527000D01*
X13495400Y-5677000D01*
X13495400Y-7378200D02*
X13645400Y-7228200D01*
X13495400Y-7078200D01*
X13345400Y-7228200D01*
X13495400Y-7378200D01*
X13495400Y-9080000D02*
X13645400Y-8930000D01*
X13495400Y-8780000D01*
X13345400Y-8930000D01*
X13495400Y-9080000D01*
X13957000Y-10904000D02*
X14107000Y-10754000D01*
X13957000Y-10604000D01*
X13807000Y-10754000D01*
X13957000Y-10904000D01*
X13995400Y-5457000D02*
X14145400Y-5307000D01*
X13995400Y-5157000D01*
X13845400Y-5307000D01*
X13995400Y-5457000D01*
X13995400Y-7158200D02*
X14145400Y-7008200D01*
X13995400Y-6858200D01*
X13845400Y-7008200D01*
X13995400Y-7158200D01*
X13995400Y-8860000D02*
X14145400Y-8710000D01*
X13995400Y-8560000D01*
X13845400Y-8710000D01*
X13995400Y-8860000D01*
X14495400Y-5677000D02*
X14645400Y-5527000D01*
X14495400Y-5377000D01*
X14345400Y-5527000D01*
X14495400Y-5677000D01*
X14495400Y-7378200D02*
X14645400Y-7228200D01*
X14495400Y-7078200D01*
X14345400Y-7228200D01*
X14495400Y-7378200D01*
X14495400Y-9080000D02*
X14645400Y-8930000D01*
X14495400Y-8780000D01*
X14345400Y-8930000D01*
X14495400Y-9080000D01*
X14882797Y-11114472D02*
X15032797Y-10964472D01*
X14882797Y-10814472D01*
X14732797Y-10964472D01*
X14882797Y-11114472D01*
X15294000Y-7619000D02*
X15444000Y-7469000D01*
X15294000Y-7319000D01*
X15144000Y-7469000D01*
X15294000Y-7619000D01*
X15294000Y-9320800D02*
X15444000Y-9170800D01*
X15294000Y-9020800D01*
X15144000Y-9170800D01*
X15294000Y-9320800D01*
X15298800Y-5915000D02*
X15448800Y-5765000D01*
X15298800Y-5615000D01*
X15148800Y-5765000D01*
X15298800Y-5915000D01*
X15422700Y-11031378D02*
X15572700Y-10881378D01*
X15422700Y-10731378D01*
X15272700Y-10881378D01*
X15422700Y-11031378D01*
X15794000Y-7399000D02*
X15944000Y-7249000D01*
X15794000Y-7099000D01*
X15644000Y-7249000D01*
X15794000Y-7399000D01*
X15794000Y-9100800D02*
X15944000Y-8950800D01*
X15794000Y-8800800D01*
X15644000Y-8950800D01*
X15794000Y-9100800D01*
X15798800Y-5695000D02*
X15948800Y-5545000D01*
X15798800Y-5395000D01*
X15648800Y-5545000D01*
X15798800Y-5695000D01*
X15848723Y-11373291D02*
X15998723Y-11223291D01*
X15848723Y-11073291D01*
X15698723Y-11223291D01*
X15848723Y-11373291D01*
X16294000Y-9320800D02*
X16444000Y-9170800D01*
X16294000Y-9020800D01*
X16144000Y-9170800D01*
X16294000Y-9320800D01*
X16294000Y-7619000D02*
X16444000Y-7469000D01*
X16294000Y-7319000D01*
X16144000Y-7469000D01*
X16294000Y-7619000D01*
X16298800Y-5915000D02*
X16448800Y-5765000D01*
X16298800Y-5615000D01*
X16148800Y-5765000D01*
X16298800Y-5915000D01*
X16751487Y-11826286D02*
X16901487Y-11676286D01*
X16751487Y-11526286D01*
X16601487Y-11676286D01*
X16751487Y-11826286D01*
X17294500Y-11885760D02*
X17444500Y-11735760D01*
X17294500Y-11585760D01*
X17144500Y-11735760D01*
X17294500Y-11885760D01*
X17617513Y-12326286D02*
X17767513Y-12176286D01*
X17617513Y-12026286D01*
X17467513Y-12176286D01*
X17617513Y-12326286D01*
D16*
X8413750Y-8083550D02*
X8756650Y-8426450D01*
X8756650Y-8083550D02*
X8413750Y-8426450D01*
X8756650Y-8255000D02*
G75*
G02*
X8413750Y-8255000I-171450J0D01*
G01*
X8413750Y-8255000D02*
G75*
G02*
X8756650Y-8255000I171450J0D01*
G01*
X8413750Y-9785350D02*
X8756650Y-10128250D01*
X8756650Y-9785350D02*
X8413750Y-10128250D01*
X8756650Y-9956800D02*
G75*
G02*
X8413750Y-9956800I-171450J0D01*
G01*
X8413750Y-9956800D02*
G75*
G02*
X8756650Y-9956800I171450J0D01*
G01*
X8419550Y-6386550D02*
X8762450Y-6729450D01*
X8762450Y-6386550D02*
X8419550Y-6729450D01*
X8762450Y-6558000D02*
G75*
G02*
X8419550Y-6558000I-171450J0D01*
G01*
X8419550Y-6558000D02*
G75*
G02*
X8762450Y-6558000I171450J0D01*
G01*
X10215550Y-7429550D02*
X10558450Y-7772450D01*
X10558450Y-7429550D02*
X10215550Y-7772450D01*
X10558450Y-7601000D02*
G75*
G02*
X10215550Y-7601000I-171450J0D01*
G01*
X10215550Y-7601000D02*
G75*
G02*
X10558450Y-7601000I171450J0D01*
G01*
X10215550Y-9131350D02*
X10558450Y-9474250D01*
X10558450Y-9131350D02*
X10215550Y-9474250D01*
X10558450Y-9302800D02*
G75*
G02*
X10215550Y-9302800I-171450J0D01*
G01*
X10215550Y-9302800D02*
G75*
G02*
X10558450Y-9302800I171450J0D01*
G01*
X10219550Y-5730550D02*
X10562450Y-6073450D01*
X10562450Y-5730550D02*
X10219550Y-6073450D01*
X10562450Y-5902000D02*
G75*
G02*
X10219550Y-5902000I-171450J0D01*
G01*
X10219550Y-5902000D02*
G75*
G02*
X10562450Y-5902000I171450J0D01*
G01*
X12019550Y-5494550D02*
X12362450Y-5837450D01*
X12362450Y-5494550D02*
X12019550Y-5837450D01*
X12362450Y-5666000D02*
G75*
G02*
X12019550Y-5666000I-171450J0D01*
G01*
X12019550Y-5666000D02*
G75*
G02*
X12362450Y-5666000I171450J0D01*
G01*
X12019550Y-7192550D02*
X12362450Y-7535450D01*
X12362450Y-7192550D02*
X12019550Y-7535450D01*
X12362450Y-7364000D02*
G75*
G02*
X12019550Y-7364000I-171450J0D01*
G01*
X12019550Y-7364000D02*
G75*
G02*
X12362450Y-7364000I171450J0D01*
G01*
X12019550Y-8894350D02*
X12362450Y-9237250D01*
X12362450Y-8894350D02*
X12019550Y-9237250D01*
X12362450Y-9065800D02*
G75*
G02*
X12019550Y-9065800I-171450J0D01*
G01*
X12019550Y-9065800D02*
G75*
G02*
X12362450Y-9065800I171450J0D01*
G01*
X13285550Y-10957550D02*
X13628450Y-11300450D01*
X13628450Y-10957550D02*
X13285550Y-11300450D01*
X13628450Y-11129000D02*
G75*
G02*
X13285550Y-11129000I-171450J0D01*
G01*
X13285550Y-11129000D02*
G75*
G02*
X13628450Y-11129000I171450J0D01*
G01*
X13823950Y-5730550D02*
X14166850Y-6073450D01*
X14166850Y-5730550D02*
X13823950Y-6073450D01*
X14166850Y-5902000D02*
G75*
G02*
X13823950Y-5902000I-171450J0D01*
G01*
X13823950Y-5902000D02*
G75*
G02*
X14166850Y-5902000I171450J0D01*
G01*
X13823950Y-7431750D02*
X14166850Y-7774650D01*
X14166850Y-7431750D02*
X13823950Y-7774650D01*
X14166850Y-7603200D02*
G75*
G02*
X13823950Y-7603200I-171450J0D01*
G01*
X13823950Y-7603200D02*
G75*
G02*
X14166850Y-7603200I171450J0D01*
G01*
X13823950Y-9133550D02*
X14166850Y-9476450D01*
X14166850Y-9133550D02*
X13823950Y-9476450D01*
X14166850Y-9305000D02*
G75*
G02*
X13823950Y-9305000I-171450J0D01*
G01*
X13823950Y-9305000D02*
G75*
G02*
X14166850Y-9305000I171450J0D01*
G01*
X15097253Y-11284654D02*
X15440153Y-11627554D01*
X15440153Y-11284654D02*
X15097253Y-11627554D01*
X15440153Y-11456104D02*
G75*
G02*
X15097253Y-11456104I-171450J0D01*
G01*
X15097253Y-11456104D02*
G75*
G02*
X15440153Y-11456104I171450J0D01*
G01*
X15622550Y-7672550D02*
X15965450Y-8015450D01*
X15965450Y-7672550D02*
X15622550Y-8015450D01*
X15965450Y-7844000D02*
G75*
G02*
X15622550Y-7844000I-171450J0D01*
G01*
X15622550Y-7844000D02*
G75*
G02*
X15965450Y-7844000I171450J0D01*
G01*
X15622550Y-9374350D02*
X15965450Y-9717250D01*
X15965450Y-9374350D02*
X15622550Y-9717250D01*
X15965450Y-9545800D02*
G75*
G02*
X15622550Y-9545800I-171450J0D01*
G01*
X15622550Y-9545800D02*
G75*
G02*
X15965450Y-9545800I171450J0D01*
G01*
X15627350Y-5968550D02*
X15970250Y-6311450D01*
X15970250Y-5968550D02*
X15627350Y-6311450D01*
X15970250Y-6140000D02*
G75*
G02*
X15627350Y-6140000I-171450J0D01*
G01*
X15627350Y-6140000D02*
G75*
G02*
X15970250Y-6140000I171450J0D01*
G01*
X16825550Y-12079595D02*
X17168450Y-12422495D01*
X17168450Y-12079595D02*
X16825550Y-12422495D01*
X17168450Y-12251045D02*
G75*
G02*
X16825550Y-12251045I-171450J0D01*
G01*
X16825550Y-12251045D02*
G75*
G02*
X17168450Y-12251045I171450J0D01*
G01*
D11*
X7771999Y-13881587D02*
X7771999Y-13681587D01*
X7771999Y-13681587D02*
X7819618Y-13681587D01*
X7819618Y-13681587D02*
X7848190Y-13691111D01*
X7848190Y-13691111D02*
X7867237Y-13710158D01*
X7867237Y-13710158D02*
X7876761Y-13729206D01*
X7876761Y-13729206D02*
X7886285Y-13767301D01*
X7886285Y-13767301D02*
X7886285Y-13795872D01*
X7886285Y-13795872D02*
X7876761Y-13833968D01*
X7876761Y-13833968D02*
X7867237Y-13853015D01*
X7867237Y-13853015D02*
X7848190Y-13872063D01*
X7848190Y-13872063D02*
X7819618Y-13881587D01*
X7819618Y-13881587D02*
X7771999Y-13881587D01*
X7971999Y-13881587D02*
X7971999Y-13748253D01*
X7971999Y-13786349D02*
X7981523Y-13767301D01*
X7981523Y-13767301D02*
X7991047Y-13757777D01*
X7991047Y-13757777D02*
X8010094Y-13748253D01*
X8010094Y-13748253D02*
X8029142Y-13748253D01*
X8095809Y-13881587D02*
X8095809Y-13748253D01*
X8095809Y-13681587D02*
X8086285Y-13691111D01*
X8086285Y-13691111D02*
X8095809Y-13700634D01*
X8095809Y-13700634D02*
X8105332Y-13691111D01*
X8105332Y-13691111D02*
X8095809Y-13681587D01*
X8095809Y-13681587D02*
X8095809Y-13700634D01*
X8219618Y-13881587D02*
X8200571Y-13872063D01*
X8200571Y-13872063D02*
X8191047Y-13853015D01*
X8191047Y-13853015D02*
X8191047Y-13681587D01*
X8324380Y-13881587D02*
X8305332Y-13872063D01*
X8305332Y-13872063D02*
X8295809Y-13853015D01*
X8295809Y-13853015D02*
X8295809Y-13681587D01*
X8552952Y-13881587D02*
X8552952Y-13681587D01*
X8552952Y-13681587D02*
X8619618Y-13824444D01*
X8619618Y-13824444D02*
X8686285Y-13681587D01*
X8686285Y-13681587D02*
X8686285Y-13881587D01*
X8867237Y-13881587D02*
X8867237Y-13776825D01*
X8867237Y-13776825D02*
X8857714Y-13757777D01*
X8857714Y-13757777D02*
X8838666Y-13748253D01*
X8838666Y-13748253D02*
X8800571Y-13748253D01*
X8800571Y-13748253D02*
X8781523Y-13757777D01*
X8867237Y-13872063D02*
X8848190Y-13881587D01*
X8848190Y-13881587D02*
X8800571Y-13881587D01*
X8800571Y-13881587D02*
X8781523Y-13872063D01*
X8781523Y-13872063D02*
X8771999Y-13853015D01*
X8771999Y-13853015D02*
X8771999Y-13833968D01*
X8771999Y-13833968D02*
X8781523Y-13814920D01*
X8781523Y-13814920D02*
X8800571Y-13805396D01*
X8800571Y-13805396D02*
X8848190Y-13805396D01*
X8848190Y-13805396D02*
X8867237Y-13795872D01*
X8962475Y-13748253D02*
X8962475Y-13948253D01*
X8962475Y-13757777D02*
X8981523Y-13748253D01*
X8981523Y-13748253D02*
X9019618Y-13748253D01*
X9019618Y-13748253D02*
X9038666Y-13757777D01*
X9038666Y-13757777D02*
X9048190Y-13767301D01*
X9048190Y-13767301D02*
X9057714Y-13786349D01*
X9057714Y-13786349D02*
X9057714Y-13843491D01*
X9057714Y-13843491D02*
X9048190Y-13862539D01*
X9048190Y-13862539D02*
X9038666Y-13872063D01*
X9038666Y-13872063D02*
X9019618Y-13881587D01*
X9019618Y-13881587D02*
X8981523Y-13881587D01*
X8981523Y-13881587D02*
X8962475Y-13872063D01*
X9143428Y-13862539D02*
X9152952Y-13872063D01*
X9152952Y-13872063D02*
X9143428Y-13881587D01*
X9143428Y-13881587D02*
X9133904Y-13872063D01*
X9133904Y-13872063D02*
X9143428Y-13862539D01*
X9143428Y-13862539D02*
X9143428Y-13881587D01*
X9143428Y-13757777D02*
X9152952Y-13767301D01*
X9152952Y-13767301D02*
X9143428Y-13776825D01*
X9143428Y-13776825D02*
X9133904Y-13767301D01*
X9133904Y-13767301D02*
X9143428Y-13757777D01*
X9143428Y-13757777D02*
X9143428Y-13776825D01*
D12*
X7431222Y-14170103D02*
X7511222Y-14250103D01*
X7511222Y-14170103D02*
X7431222Y-14250103D01*
D11*
X7810094Y-14101587D02*
X7829142Y-14101587D01*
X7829142Y-14101587D02*
X7848190Y-14111111D01*
X7848190Y-14111111D02*
X7857713Y-14120634D01*
X7857713Y-14120634D02*
X7867237Y-14139682D01*
X7867237Y-14139682D02*
X7876761Y-14177777D01*
X7876761Y-14177777D02*
X7876761Y-14225396D01*
X7876761Y-14225396D02*
X7867237Y-14263491D01*
X7867237Y-14263491D02*
X7857713Y-14282539D01*
X7857713Y-14282539D02*
X7848190Y-14292063D01*
X7848190Y-14292063D02*
X7829142Y-14301587D01*
X7829142Y-14301587D02*
X7810094Y-14301587D01*
X7810094Y-14301587D02*
X7791047Y-14292063D01*
X7791047Y-14292063D02*
X7781523Y-14282539D01*
X7781523Y-14282539D02*
X7771999Y-14263491D01*
X7771999Y-14263491D02*
X7762475Y-14225396D01*
X7762475Y-14225396D02*
X7762475Y-14177777D01*
X7762475Y-14177777D02*
X7771999Y-14139682D01*
X7771999Y-14139682D02*
X7781523Y-14120634D01*
X7781523Y-14120634D02*
X7791047Y-14111111D01*
X7791047Y-14111111D02*
X7810094Y-14101587D01*
X7962475Y-14282539D02*
X7971999Y-14292063D01*
X7971999Y-14292063D02*
X7962475Y-14301587D01*
X7962475Y-14301587D02*
X7952952Y-14292063D01*
X7952952Y-14292063D02*
X7962475Y-14282539D01*
X7962475Y-14282539D02*
X7962475Y-14301587D01*
X8086285Y-14187301D02*
X8067237Y-14177777D01*
X8067237Y-14177777D02*
X8057713Y-14168253D01*
X8057713Y-14168253D02*
X8048190Y-14149206D01*
X8048190Y-14149206D02*
X8048190Y-14139682D01*
X8048190Y-14139682D02*
X8057713Y-14120634D01*
X8057713Y-14120634D02*
X8067237Y-14111111D01*
X8067237Y-14111111D02*
X8086285Y-14101587D01*
X8086285Y-14101587D02*
X8124380Y-14101587D01*
X8124380Y-14101587D02*
X8143428Y-14111111D01*
X8143428Y-14111111D02*
X8152952Y-14120634D01*
X8152952Y-14120634D02*
X8162475Y-14139682D01*
X8162475Y-14139682D02*
X8162475Y-14149206D01*
X8162475Y-14149206D02*
X8152952Y-14168253D01*
X8152952Y-14168253D02*
X8143428Y-14177777D01*
X8143428Y-14177777D02*
X8124380Y-14187301D01*
X8124380Y-14187301D02*
X8086285Y-14187301D01*
X8086285Y-14187301D02*
X8067237Y-14196825D01*
X8067237Y-14196825D02*
X8057713Y-14206349D01*
X8057713Y-14206349D02*
X8048190Y-14225396D01*
X8048190Y-14225396D02*
X8048190Y-14263491D01*
X8048190Y-14263491D02*
X8057713Y-14282539D01*
X8057713Y-14282539D02*
X8067237Y-14292063D01*
X8067237Y-14292063D02*
X8086285Y-14301587D01*
X8086285Y-14301587D02*
X8124380Y-14301587D01*
X8124380Y-14301587D02*
X8143428Y-14292063D01*
X8143428Y-14292063D02*
X8152952Y-14282539D01*
X8152952Y-14282539D02*
X8162475Y-14263491D01*
X8162475Y-14263491D02*
X8162475Y-14225396D01*
X8162475Y-14225396D02*
X8152952Y-14206349D01*
X8152952Y-14206349D02*
X8143428Y-14196825D01*
X8143428Y-14196825D02*
X8124380Y-14187301D01*
X8286285Y-14101587D02*
X8305333Y-14101587D01*
X8305333Y-14101587D02*
X8324380Y-14111111D01*
X8324380Y-14111111D02*
X8333904Y-14120634D01*
X8333904Y-14120634D02*
X8343428Y-14139682D01*
X8343428Y-14139682D02*
X8352952Y-14177777D01*
X8352952Y-14177777D02*
X8352952Y-14225396D01*
X8352952Y-14225396D02*
X8343428Y-14263491D01*
X8343428Y-14263491D02*
X8333904Y-14282539D01*
X8333904Y-14282539D02*
X8324380Y-14292063D01*
X8324380Y-14292063D02*
X8305333Y-14301587D01*
X8305333Y-14301587D02*
X8286285Y-14301587D01*
X8286285Y-14301587D02*
X8267237Y-14292063D01*
X8267237Y-14292063D02*
X8257713Y-14282539D01*
X8257713Y-14282539D02*
X8248190Y-14263491D01*
X8248190Y-14263491D02*
X8238666Y-14225396D01*
X8238666Y-14225396D02*
X8238666Y-14177777D01*
X8238666Y-14177777D02*
X8248190Y-14139682D01*
X8248190Y-14139682D02*
X8257713Y-14120634D01*
X8257713Y-14120634D02*
X8267237Y-14111111D01*
X8267237Y-14111111D02*
X8286285Y-14101587D01*
X8476761Y-14101587D02*
X8495809Y-14101587D01*
X8495809Y-14101587D02*
X8514856Y-14111111D01*
X8514856Y-14111111D02*
X8524380Y-14120634D01*
X8524380Y-14120634D02*
X8533904Y-14139682D01*
X8533904Y-14139682D02*
X8543428Y-14177777D01*
X8543428Y-14177777D02*
X8543428Y-14225396D01*
X8543428Y-14225396D02*
X8533904Y-14263491D01*
X8533904Y-14263491D02*
X8524380Y-14282539D01*
X8524380Y-14282539D02*
X8514856Y-14292063D01*
X8514856Y-14292063D02*
X8495809Y-14301587D01*
X8495809Y-14301587D02*
X8476761Y-14301587D01*
X8476761Y-14301587D02*
X8457714Y-14292063D01*
X8457714Y-14292063D02*
X8448190Y-14282539D01*
X8448190Y-14282539D02*
X8438666Y-14263491D01*
X8438666Y-14263491D02*
X8429142Y-14225396D01*
X8429142Y-14225396D02*
X8429142Y-14177777D01*
X8429142Y-14177777D02*
X8438666Y-14139682D01*
X8438666Y-14139682D02*
X8448190Y-14120634D01*
X8448190Y-14120634D02*
X8457714Y-14111111D01*
X8457714Y-14111111D02*
X8476761Y-14101587D01*
X8629142Y-14301587D02*
X8629142Y-14168253D01*
X8629142Y-14187301D02*
X8638666Y-14177777D01*
X8638666Y-14177777D02*
X8657714Y-14168253D01*
X8657714Y-14168253D02*
X8686285Y-14168253D01*
X8686285Y-14168253D02*
X8705333Y-14177777D01*
X8705333Y-14177777D02*
X8714856Y-14196825D01*
X8714856Y-14196825D02*
X8714856Y-14301587D01*
X8714856Y-14196825D02*
X8724380Y-14177777D01*
X8724380Y-14177777D02*
X8743428Y-14168253D01*
X8743428Y-14168253D02*
X8771999Y-14168253D01*
X8771999Y-14168253D02*
X8791047Y-14177777D01*
X8791047Y-14177777D02*
X8800571Y-14196825D01*
X8800571Y-14196825D02*
X8800571Y-14301587D01*
X8895809Y-14301587D02*
X8895809Y-14168253D01*
X8895809Y-14187301D02*
X8905333Y-14177777D01*
X8905333Y-14177777D02*
X8924380Y-14168253D01*
X8924380Y-14168253D02*
X8952952Y-14168253D01*
X8952952Y-14168253D02*
X8971999Y-14177777D01*
X8971999Y-14177777D02*
X8981523Y-14196825D01*
X8981523Y-14196825D02*
X8981523Y-14301587D01*
X8981523Y-14196825D02*
X8991047Y-14177777D01*
X8991047Y-14177777D02*
X9010095Y-14168253D01*
X9010095Y-14168253D02*
X9038666Y-14168253D01*
X9038666Y-14168253D02*
X9057714Y-14177777D01*
X9057714Y-14177777D02*
X9067237Y-14196825D01*
X9067237Y-14196825D02*
X9067237Y-14301587D01*
X9457714Y-14092063D02*
X9286285Y-14349206D01*
X9714857Y-14101587D02*
X9733904Y-14101587D01*
X9733904Y-14101587D02*
X9752952Y-14111111D01*
X9752952Y-14111111D02*
X9762476Y-14120634D01*
X9762476Y-14120634D02*
X9771999Y-14139682D01*
X9771999Y-14139682D02*
X9781523Y-14177777D01*
X9781523Y-14177777D02*
X9781523Y-14225396D01*
X9781523Y-14225396D02*
X9771999Y-14263491D01*
X9771999Y-14263491D02*
X9762476Y-14282539D01*
X9762476Y-14282539D02*
X9752952Y-14292063D01*
X9752952Y-14292063D02*
X9733904Y-14301587D01*
X9733904Y-14301587D02*
X9714857Y-14301587D01*
X9714857Y-14301587D02*
X9695809Y-14292063D01*
X9695809Y-14292063D02*
X9686285Y-14282539D01*
X9686285Y-14282539D02*
X9676761Y-14263491D01*
X9676761Y-14263491D02*
X9667238Y-14225396D01*
X9667238Y-14225396D02*
X9667238Y-14177777D01*
X9667238Y-14177777D02*
X9676761Y-14139682D01*
X9676761Y-14139682D02*
X9686285Y-14120634D01*
X9686285Y-14120634D02*
X9695809Y-14111111D01*
X9695809Y-14111111D02*
X9714857Y-14101587D01*
X9867238Y-14282539D02*
X9876761Y-14292063D01*
X9876761Y-14292063D02*
X9867238Y-14301587D01*
X9867238Y-14301587D02*
X9857714Y-14292063D01*
X9857714Y-14292063D02*
X9867238Y-14282539D01*
X9867238Y-14282539D02*
X9867238Y-14301587D01*
X10000571Y-14101587D02*
X10019619Y-14101587D01*
X10019619Y-14101587D02*
X10038666Y-14111111D01*
X10038666Y-14111111D02*
X10048190Y-14120634D01*
X10048190Y-14120634D02*
X10057714Y-14139682D01*
X10057714Y-14139682D02*
X10067238Y-14177777D01*
X10067238Y-14177777D02*
X10067238Y-14225396D01*
X10067238Y-14225396D02*
X10057714Y-14263491D01*
X10057714Y-14263491D02*
X10048190Y-14282539D01*
X10048190Y-14282539D02*
X10038666Y-14292063D01*
X10038666Y-14292063D02*
X10019619Y-14301587D01*
X10019619Y-14301587D02*
X10000571Y-14301587D01*
X10000571Y-14301587D02*
X9981523Y-14292063D01*
X9981523Y-14292063D02*
X9971999Y-14282539D01*
X9971999Y-14282539D02*
X9962476Y-14263491D01*
X9962476Y-14263491D02*
X9952952Y-14225396D01*
X9952952Y-14225396D02*
X9952952Y-14177777D01*
X9952952Y-14177777D02*
X9962476Y-14139682D01*
X9962476Y-14139682D02*
X9971999Y-14120634D01*
X9971999Y-14120634D02*
X9981523Y-14111111D01*
X9981523Y-14111111D02*
X10000571Y-14101587D01*
X10133904Y-14101587D02*
X10257714Y-14101587D01*
X10257714Y-14101587D02*
X10191047Y-14177777D01*
X10191047Y-14177777D02*
X10219619Y-14177777D01*
X10219619Y-14177777D02*
X10238666Y-14187301D01*
X10238666Y-14187301D02*
X10248190Y-14196825D01*
X10248190Y-14196825D02*
X10257714Y-14215872D01*
X10257714Y-14215872D02*
X10257714Y-14263491D01*
X10257714Y-14263491D02*
X10248190Y-14282539D01*
X10248190Y-14282539D02*
X10238666Y-14292063D01*
X10238666Y-14292063D02*
X10219619Y-14301587D01*
X10219619Y-14301587D02*
X10162476Y-14301587D01*
X10162476Y-14301587D02*
X10143428Y-14292063D01*
X10143428Y-14292063D02*
X10133904Y-14282539D01*
X10448190Y-14301587D02*
X10333904Y-14301587D01*
X10391047Y-14301587D02*
X10391047Y-14101587D01*
X10391047Y-14101587D02*
X10371999Y-14130158D01*
X10371999Y-14130158D02*
X10352952Y-14149206D01*
X10352952Y-14149206D02*
X10333904Y-14158730D01*
X10629142Y-14101587D02*
X10533904Y-14101587D01*
X10533904Y-14101587D02*
X10524380Y-14196825D01*
X10524380Y-14196825D02*
X10533904Y-14187301D01*
X10533904Y-14187301D02*
X10552952Y-14177777D01*
X10552952Y-14177777D02*
X10600571Y-14177777D01*
X10600571Y-14177777D02*
X10619619Y-14187301D01*
X10619619Y-14187301D02*
X10629142Y-14196825D01*
X10629142Y-14196825D02*
X10638666Y-14215872D01*
X10638666Y-14215872D02*
X10638666Y-14263491D01*
X10638666Y-14263491D02*
X10629142Y-14282539D01*
X10629142Y-14282539D02*
X10619619Y-14292063D01*
X10619619Y-14292063D02*
X10600571Y-14301587D01*
X10600571Y-14301587D02*
X10552952Y-14301587D01*
X10552952Y-14301587D02*
X10533904Y-14292063D01*
X10533904Y-14292063D02*
X10524380Y-14282539D01*
X10714857Y-14101587D02*
X10714857Y-14139682D01*
X10791047Y-14101587D02*
X10791047Y-14139682D01*
X11086285Y-14377777D02*
X11076761Y-14368253D01*
X11076761Y-14368253D02*
X11057714Y-14339682D01*
X11057714Y-14339682D02*
X11048190Y-14320634D01*
X11048190Y-14320634D02*
X11038666Y-14292063D01*
X11038666Y-14292063D02*
X11029142Y-14244444D01*
X11029142Y-14244444D02*
X11029142Y-14206349D01*
X11029142Y-14206349D02*
X11038666Y-14158730D01*
X11038666Y-14158730D02*
X11048190Y-14130158D01*
X11048190Y-14130158D02*
X11057714Y-14111111D01*
X11057714Y-14111111D02*
X11076761Y-14082539D01*
X11076761Y-14082539D02*
X11086285Y-14073015D01*
X11152952Y-14120634D02*
X11162476Y-14111111D01*
X11162476Y-14111111D02*
X11181523Y-14101587D01*
X11181523Y-14101587D02*
X11229142Y-14101587D01*
X11229142Y-14101587D02*
X11248190Y-14111111D01*
X11248190Y-14111111D02*
X11257714Y-14120634D01*
X11257714Y-14120634D02*
X11267238Y-14139682D01*
X11267238Y-14139682D02*
X11267238Y-14158730D01*
X11267238Y-14158730D02*
X11257714Y-14187301D01*
X11257714Y-14187301D02*
X11143428Y-14301587D01*
X11143428Y-14301587D02*
X11267238Y-14301587D01*
X11505333Y-14301587D02*
X11505333Y-14101587D01*
X11591047Y-14301587D02*
X11591047Y-14196825D01*
X11591047Y-14196825D02*
X11581523Y-14177777D01*
X11581523Y-14177777D02*
X11562476Y-14168253D01*
X11562476Y-14168253D02*
X11533904Y-14168253D01*
X11533904Y-14168253D02*
X11514857Y-14177777D01*
X11514857Y-14177777D02*
X11505333Y-14187301D01*
X11714857Y-14301587D02*
X11695809Y-14292063D01*
X11695809Y-14292063D02*
X11686285Y-14282539D01*
X11686285Y-14282539D02*
X11676761Y-14263491D01*
X11676761Y-14263491D02*
X11676761Y-14206349D01*
X11676761Y-14206349D02*
X11686285Y-14187301D01*
X11686285Y-14187301D02*
X11695809Y-14177777D01*
X11695809Y-14177777D02*
X11714857Y-14168253D01*
X11714857Y-14168253D02*
X11743428Y-14168253D01*
X11743428Y-14168253D02*
X11762476Y-14177777D01*
X11762476Y-14177777D02*
X11772000Y-14187301D01*
X11772000Y-14187301D02*
X11781523Y-14206349D01*
X11781523Y-14206349D02*
X11781523Y-14263491D01*
X11781523Y-14263491D02*
X11772000Y-14282539D01*
X11772000Y-14282539D02*
X11762476Y-14292063D01*
X11762476Y-14292063D02*
X11743428Y-14301587D01*
X11743428Y-14301587D02*
X11714857Y-14301587D01*
X11895809Y-14301587D02*
X11876761Y-14292063D01*
X11876761Y-14292063D02*
X11867238Y-14273015D01*
X11867238Y-14273015D02*
X11867238Y-14101587D01*
X12048190Y-14292063D02*
X12029142Y-14301587D01*
X12029142Y-14301587D02*
X11991047Y-14301587D01*
X11991047Y-14301587D02*
X11972000Y-14292063D01*
X11972000Y-14292063D02*
X11962476Y-14273015D01*
X11962476Y-14273015D02*
X11962476Y-14196825D01*
X11962476Y-14196825D02*
X11972000Y-14177777D01*
X11972000Y-14177777D02*
X11991047Y-14168253D01*
X11991047Y-14168253D02*
X12029142Y-14168253D01*
X12029142Y-14168253D02*
X12048190Y-14177777D01*
X12048190Y-14177777D02*
X12057714Y-14196825D01*
X12057714Y-14196825D02*
X12057714Y-14215872D01*
X12057714Y-14215872D02*
X11962476Y-14234920D01*
X12133904Y-14292063D02*
X12152952Y-14301587D01*
X12152952Y-14301587D02*
X12191047Y-14301587D01*
X12191047Y-14301587D02*
X12210095Y-14292063D01*
X12210095Y-14292063D02*
X12219619Y-14273015D01*
X12219619Y-14273015D02*
X12219619Y-14263491D01*
X12219619Y-14263491D02*
X12210095Y-14244444D01*
X12210095Y-14244444D02*
X12191047Y-14234920D01*
X12191047Y-14234920D02*
X12162476Y-14234920D01*
X12162476Y-14234920D02*
X12143428Y-14225396D01*
X12143428Y-14225396D02*
X12133904Y-14206349D01*
X12133904Y-14206349D02*
X12133904Y-14196825D01*
X12133904Y-14196825D02*
X12143428Y-14177777D01*
X12143428Y-14177777D02*
X12162476Y-14168253D01*
X12162476Y-14168253D02*
X12191047Y-14168253D01*
X12191047Y-14168253D02*
X12210095Y-14177777D01*
X12286285Y-14377777D02*
X12295809Y-14368253D01*
X12295809Y-14368253D02*
X12314857Y-14339682D01*
X12314857Y-14339682D02*
X12324381Y-14320634D01*
X12324381Y-14320634D02*
X12333904Y-14292063D01*
X12333904Y-14292063D02*
X12343428Y-14244444D01*
X12343428Y-14244444D02*
X12343428Y-14206349D01*
X12343428Y-14206349D02*
X12333904Y-14158730D01*
X12333904Y-14158730D02*
X12324381Y-14130158D01*
X12324381Y-14130158D02*
X12314857Y-14111111D01*
X12314857Y-14111111D02*
X12295809Y-14082539D01*
X12295809Y-14082539D02*
X12286285Y-14073015D01*
X12648190Y-14377777D02*
X12638666Y-14368253D01*
X12638666Y-14368253D02*
X12619619Y-14339682D01*
X12619619Y-14339682D02*
X12610095Y-14320634D01*
X12610095Y-14320634D02*
X12600571Y-14292063D01*
X12600571Y-14292063D02*
X12591047Y-14244444D01*
X12591047Y-14244444D02*
X12591047Y-14206349D01*
X12591047Y-14206349D02*
X12600571Y-14158730D01*
X12600571Y-14158730D02*
X12610095Y-14130158D01*
X12610095Y-14130158D02*
X12619619Y-14111111D01*
X12619619Y-14111111D02*
X12638666Y-14082539D01*
X12638666Y-14082539D02*
X12648190Y-14073015D01*
X12724381Y-14168253D02*
X12724381Y-14301587D01*
X12724381Y-14187301D02*
X12733904Y-14177777D01*
X12733904Y-14177777D02*
X12752952Y-14168253D01*
X12752952Y-14168253D02*
X12781523Y-14168253D01*
X12781523Y-14168253D02*
X12800571Y-14177777D01*
X12800571Y-14177777D02*
X12810095Y-14196825D01*
X12810095Y-14196825D02*
X12810095Y-14301587D01*
X12933904Y-14301587D02*
X12914857Y-14292063D01*
X12914857Y-14292063D02*
X12905333Y-14282539D01*
X12905333Y-14282539D02*
X12895809Y-14263491D01*
X12895809Y-14263491D02*
X12895809Y-14206349D01*
X12895809Y-14206349D02*
X12905333Y-14187301D01*
X12905333Y-14187301D02*
X12914857Y-14177777D01*
X12914857Y-14177777D02*
X12933904Y-14168253D01*
X12933904Y-14168253D02*
X12962476Y-14168253D01*
X12962476Y-14168253D02*
X12981523Y-14177777D01*
X12981523Y-14177777D02*
X12991047Y-14187301D01*
X12991047Y-14187301D02*
X13000571Y-14206349D01*
X13000571Y-14206349D02*
X13000571Y-14263491D01*
X13000571Y-14263491D02*
X12991047Y-14282539D01*
X12991047Y-14282539D02*
X12981523Y-14292063D01*
X12981523Y-14292063D02*
X12962476Y-14301587D01*
X12962476Y-14301587D02*
X12933904Y-14301587D01*
X13057714Y-14168253D02*
X13133904Y-14168253D01*
X13086285Y-14101587D02*
X13086285Y-14273015D01*
X13086285Y-14273015D02*
X13095809Y-14292063D01*
X13095809Y-14292063D02*
X13114857Y-14301587D01*
X13114857Y-14301587D02*
X13133904Y-14301587D01*
X13352952Y-14168253D02*
X13352952Y-14368253D01*
X13352952Y-14177777D02*
X13372000Y-14168253D01*
X13372000Y-14168253D02*
X13410095Y-14168253D01*
X13410095Y-14168253D02*
X13429143Y-14177777D01*
X13429143Y-14177777D02*
X13438666Y-14187301D01*
X13438666Y-14187301D02*
X13448190Y-14206349D01*
X13448190Y-14206349D02*
X13448190Y-14263491D01*
X13448190Y-14263491D02*
X13438666Y-14282539D01*
X13438666Y-14282539D02*
X13429143Y-14292063D01*
X13429143Y-14292063D02*
X13410095Y-14301587D01*
X13410095Y-14301587D02*
X13372000Y-14301587D01*
X13372000Y-14301587D02*
X13352952Y-14292063D01*
X13562476Y-14301587D02*
X13543428Y-14292063D01*
X13543428Y-14292063D02*
X13533904Y-14273015D01*
X13533904Y-14273015D02*
X13533904Y-14101587D01*
X13724381Y-14301587D02*
X13724381Y-14196825D01*
X13724381Y-14196825D02*
X13714857Y-14177777D01*
X13714857Y-14177777D02*
X13695809Y-14168253D01*
X13695809Y-14168253D02*
X13657714Y-14168253D01*
X13657714Y-14168253D02*
X13638666Y-14177777D01*
X13724381Y-14292063D02*
X13705333Y-14301587D01*
X13705333Y-14301587D02*
X13657714Y-14301587D01*
X13657714Y-14301587D02*
X13638666Y-14292063D01*
X13638666Y-14292063D02*
X13629143Y-14273015D01*
X13629143Y-14273015D02*
X13629143Y-14253968D01*
X13629143Y-14253968D02*
X13638666Y-14234920D01*
X13638666Y-14234920D02*
X13657714Y-14225396D01*
X13657714Y-14225396D02*
X13705333Y-14225396D01*
X13705333Y-14225396D02*
X13724381Y-14215872D01*
X13791047Y-14168253D02*
X13867238Y-14168253D01*
X13819619Y-14101587D02*
X13819619Y-14273015D01*
X13819619Y-14273015D02*
X13829143Y-14292063D01*
X13829143Y-14292063D02*
X13848190Y-14301587D01*
X13848190Y-14301587D02*
X13867238Y-14301587D01*
X14010095Y-14292063D02*
X13991047Y-14301587D01*
X13991047Y-14301587D02*
X13952952Y-14301587D01*
X13952952Y-14301587D02*
X13933904Y-14292063D01*
X13933904Y-14292063D02*
X13924381Y-14273015D01*
X13924381Y-14273015D02*
X13924381Y-14196825D01*
X13924381Y-14196825D02*
X13933904Y-14177777D01*
X13933904Y-14177777D02*
X13952952Y-14168253D01*
X13952952Y-14168253D02*
X13991047Y-14168253D01*
X13991047Y-14168253D02*
X14010095Y-14177777D01*
X14010095Y-14177777D02*
X14019619Y-14196825D01*
X14019619Y-14196825D02*
X14019619Y-14215872D01*
X14019619Y-14215872D02*
X13924381Y-14234920D01*
X14191047Y-14301587D02*
X14191047Y-14101587D01*
X14191047Y-14292063D02*
X14172000Y-14301587D01*
X14172000Y-14301587D02*
X14133904Y-14301587D01*
X14133904Y-14301587D02*
X14114857Y-14292063D01*
X14114857Y-14292063D02*
X14105333Y-14282539D01*
X14105333Y-14282539D02*
X14095809Y-14263491D01*
X14095809Y-14263491D02*
X14095809Y-14206349D01*
X14095809Y-14206349D02*
X14105333Y-14187301D01*
X14105333Y-14187301D02*
X14114857Y-14177777D01*
X14114857Y-14177777D02*
X14133904Y-14168253D01*
X14133904Y-14168253D02*
X14172000Y-14168253D01*
X14172000Y-14168253D02*
X14191047Y-14177777D01*
X14267238Y-14377777D02*
X14276762Y-14368253D01*
X14276762Y-14368253D02*
X14295809Y-14339682D01*
X14295809Y-14339682D02*
X14305333Y-14320634D01*
X14305333Y-14320634D02*
X14314857Y-14292063D01*
X14314857Y-14292063D02*
X14324381Y-14244444D01*
X14324381Y-14244444D02*
X14324381Y-14206349D01*
X14324381Y-14206349D02*
X14314857Y-14158730D01*
X14314857Y-14158730D02*
X14305333Y-14130158D01*
X14305333Y-14130158D02*
X14295809Y-14111111D01*
X14295809Y-14111111D02*
X14276762Y-14082539D01*
X14276762Y-14082539D02*
X14267238Y-14073015D01*
D12*
X7511222Y-14474103D02*
G75*
G02*
X7411222Y-14474103I-50000J0D01*
G01*
X7411222Y-14474103D02*
G75*
G02*
X7511222Y-14474103I50000J0D01*
G01*
D11*
X7876761Y-14565587D02*
X7762475Y-14565587D01*
X7819618Y-14565587D02*
X7819618Y-14365587D01*
X7819618Y-14365587D02*
X7800571Y-14394158D01*
X7800571Y-14394158D02*
X7781523Y-14413206D01*
X7781523Y-14413206D02*
X7762475Y-14422730D01*
X7962475Y-14546539D02*
X7971999Y-14556063D01*
X7971999Y-14556063D02*
X7962475Y-14565587D01*
X7962475Y-14565587D02*
X7952952Y-14556063D01*
X7952952Y-14556063D02*
X7962475Y-14546539D01*
X7962475Y-14546539D02*
X7962475Y-14565587D01*
X8095809Y-14365587D02*
X8114856Y-14365587D01*
X8114856Y-14365587D02*
X8133904Y-14375111D01*
X8133904Y-14375111D02*
X8143428Y-14384634D01*
X8143428Y-14384634D02*
X8152952Y-14403682D01*
X8152952Y-14403682D02*
X8162475Y-14441777D01*
X8162475Y-14441777D02*
X8162475Y-14489396D01*
X8162475Y-14489396D02*
X8152952Y-14527491D01*
X8152952Y-14527491D02*
X8143428Y-14546539D01*
X8143428Y-14546539D02*
X8133904Y-14556063D01*
X8133904Y-14556063D02*
X8114856Y-14565587D01*
X8114856Y-14565587D02*
X8095809Y-14565587D01*
X8095809Y-14565587D02*
X8076761Y-14556063D01*
X8076761Y-14556063D02*
X8067237Y-14546539D01*
X8067237Y-14546539D02*
X8057713Y-14527491D01*
X8057713Y-14527491D02*
X8048190Y-14489396D01*
X8048190Y-14489396D02*
X8048190Y-14441777D01*
X8048190Y-14441777D02*
X8057713Y-14403682D01*
X8057713Y-14403682D02*
X8067237Y-14384634D01*
X8067237Y-14384634D02*
X8076761Y-14375111D01*
X8076761Y-14375111D02*
X8095809Y-14365587D01*
X8286285Y-14365587D02*
X8305333Y-14365587D01*
X8305333Y-14365587D02*
X8324380Y-14375111D01*
X8324380Y-14375111D02*
X8333904Y-14384634D01*
X8333904Y-14384634D02*
X8343428Y-14403682D01*
X8343428Y-14403682D02*
X8352952Y-14441777D01*
X8352952Y-14441777D02*
X8352952Y-14489396D01*
X8352952Y-14489396D02*
X8343428Y-14527491D01*
X8343428Y-14527491D02*
X8333904Y-14546539D01*
X8333904Y-14546539D02*
X8324380Y-14556063D01*
X8324380Y-14556063D02*
X8305333Y-14565587D01*
X8305333Y-14565587D02*
X8286285Y-14565587D01*
X8286285Y-14565587D02*
X8267237Y-14556063D01*
X8267237Y-14556063D02*
X8257713Y-14546539D01*
X8257713Y-14546539D02*
X8248190Y-14527491D01*
X8248190Y-14527491D02*
X8238666Y-14489396D01*
X8238666Y-14489396D02*
X8238666Y-14441777D01*
X8238666Y-14441777D02*
X8248190Y-14403682D01*
X8248190Y-14403682D02*
X8257713Y-14384634D01*
X8257713Y-14384634D02*
X8267237Y-14375111D01*
X8267237Y-14375111D02*
X8286285Y-14365587D01*
X8476761Y-14365587D02*
X8495809Y-14365587D01*
X8495809Y-14365587D02*
X8514856Y-14375111D01*
X8514856Y-14375111D02*
X8524380Y-14384634D01*
X8524380Y-14384634D02*
X8533904Y-14403682D01*
X8533904Y-14403682D02*
X8543428Y-14441777D01*
X8543428Y-14441777D02*
X8543428Y-14489396D01*
X8543428Y-14489396D02*
X8533904Y-14527491D01*
X8533904Y-14527491D02*
X8524380Y-14546539D01*
X8524380Y-14546539D02*
X8514856Y-14556063D01*
X8514856Y-14556063D02*
X8495809Y-14565587D01*
X8495809Y-14565587D02*
X8476761Y-14565587D01*
X8476761Y-14565587D02*
X8457714Y-14556063D01*
X8457714Y-14556063D02*
X8448190Y-14546539D01*
X8448190Y-14546539D02*
X8438666Y-14527491D01*
X8438666Y-14527491D02*
X8429142Y-14489396D01*
X8429142Y-14489396D02*
X8429142Y-14441777D01*
X8429142Y-14441777D02*
X8438666Y-14403682D01*
X8438666Y-14403682D02*
X8448190Y-14384634D01*
X8448190Y-14384634D02*
X8457714Y-14375111D01*
X8457714Y-14375111D02*
X8476761Y-14365587D01*
X8629142Y-14565587D02*
X8629142Y-14432253D01*
X8629142Y-14451301D02*
X8638666Y-14441777D01*
X8638666Y-14441777D02*
X8657714Y-14432253D01*
X8657714Y-14432253D02*
X8686285Y-14432253D01*
X8686285Y-14432253D02*
X8705333Y-14441777D01*
X8705333Y-14441777D02*
X8714856Y-14460825D01*
X8714856Y-14460825D02*
X8714856Y-14565587D01*
X8714856Y-14460825D02*
X8724380Y-14441777D01*
X8724380Y-14441777D02*
X8743428Y-14432253D01*
X8743428Y-14432253D02*
X8771999Y-14432253D01*
X8771999Y-14432253D02*
X8791047Y-14441777D01*
X8791047Y-14441777D02*
X8800571Y-14460825D01*
X8800571Y-14460825D02*
X8800571Y-14565587D01*
X8895809Y-14565587D02*
X8895809Y-14432253D01*
X8895809Y-14451301D02*
X8905333Y-14441777D01*
X8905333Y-14441777D02*
X8924380Y-14432253D01*
X8924380Y-14432253D02*
X8952952Y-14432253D01*
X8952952Y-14432253D02*
X8971999Y-14441777D01*
X8971999Y-14441777D02*
X8981523Y-14460825D01*
X8981523Y-14460825D02*
X8981523Y-14565587D01*
X8981523Y-14460825D02*
X8991047Y-14441777D01*
X8991047Y-14441777D02*
X9010095Y-14432253D01*
X9010095Y-14432253D02*
X9038666Y-14432253D01*
X9038666Y-14432253D02*
X9057714Y-14441777D01*
X9057714Y-14441777D02*
X9067237Y-14460825D01*
X9067237Y-14460825D02*
X9067237Y-14565587D01*
X9457714Y-14356063D02*
X9286285Y-14613206D01*
X9714857Y-14365587D02*
X9733904Y-14365587D01*
X9733904Y-14365587D02*
X9752952Y-14375111D01*
X9752952Y-14375111D02*
X9762476Y-14384634D01*
X9762476Y-14384634D02*
X9771999Y-14403682D01*
X9771999Y-14403682D02*
X9781523Y-14441777D01*
X9781523Y-14441777D02*
X9781523Y-14489396D01*
X9781523Y-14489396D02*
X9771999Y-14527491D01*
X9771999Y-14527491D02*
X9762476Y-14546539D01*
X9762476Y-14546539D02*
X9752952Y-14556063D01*
X9752952Y-14556063D02*
X9733904Y-14565587D01*
X9733904Y-14565587D02*
X9714857Y-14565587D01*
X9714857Y-14565587D02*
X9695809Y-14556063D01*
X9695809Y-14556063D02*
X9686285Y-14546539D01*
X9686285Y-14546539D02*
X9676761Y-14527491D01*
X9676761Y-14527491D02*
X9667238Y-14489396D01*
X9667238Y-14489396D02*
X9667238Y-14441777D01*
X9667238Y-14441777D02*
X9676761Y-14403682D01*
X9676761Y-14403682D02*
X9686285Y-14384634D01*
X9686285Y-14384634D02*
X9695809Y-14375111D01*
X9695809Y-14375111D02*
X9714857Y-14365587D01*
X9867238Y-14546539D02*
X9876761Y-14556063D01*
X9876761Y-14556063D02*
X9867238Y-14565587D01*
X9867238Y-14565587D02*
X9857714Y-14556063D01*
X9857714Y-14556063D02*
X9867238Y-14546539D01*
X9867238Y-14546539D02*
X9867238Y-14565587D01*
X10000571Y-14365587D02*
X10019619Y-14365587D01*
X10019619Y-14365587D02*
X10038666Y-14375111D01*
X10038666Y-14375111D02*
X10048190Y-14384634D01*
X10048190Y-14384634D02*
X10057714Y-14403682D01*
X10057714Y-14403682D02*
X10067238Y-14441777D01*
X10067238Y-14441777D02*
X10067238Y-14489396D01*
X10067238Y-14489396D02*
X10057714Y-14527491D01*
X10057714Y-14527491D02*
X10048190Y-14546539D01*
X10048190Y-14546539D02*
X10038666Y-14556063D01*
X10038666Y-14556063D02*
X10019619Y-14565587D01*
X10019619Y-14565587D02*
X10000571Y-14565587D01*
X10000571Y-14565587D02*
X9981523Y-14556063D01*
X9981523Y-14556063D02*
X9971999Y-14546539D01*
X9971999Y-14546539D02*
X9962476Y-14527491D01*
X9962476Y-14527491D02*
X9952952Y-14489396D01*
X9952952Y-14489396D02*
X9952952Y-14441777D01*
X9952952Y-14441777D02*
X9962476Y-14403682D01*
X9962476Y-14403682D02*
X9971999Y-14384634D01*
X9971999Y-14384634D02*
X9981523Y-14375111D01*
X9981523Y-14375111D02*
X10000571Y-14365587D01*
X10133904Y-14365587D02*
X10257714Y-14365587D01*
X10257714Y-14365587D02*
X10191047Y-14441777D01*
X10191047Y-14441777D02*
X10219619Y-14441777D01*
X10219619Y-14441777D02*
X10238666Y-14451301D01*
X10238666Y-14451301D02*
X10248190Y-14460825D01*
X10248190Y-14460825D02*
X10257714Y-14479872D01*
X10257714Y-14479872D02*
X10257714Y-14527491D01*
X10257714Y-14527491D02*
X10248190Y-14546539D01*
X10248190Y-14546539D02*
X10238666Y-14556063D01*
X10238666Y-14556063D02*
X10219619Y-14565587D01*
X10219619Y-14565587D02*
X10162476Y-14565587D01*
X10162476Y-14565587D02*
X10143428Y-14556063D01*
X10143428Y-14556063D02*
X10133904Y-14546539D01*
X10352952Y-14565587D02*
X10391047Y-14565587D01*
X10391047Y-14565587D02*
X10410095Y-14556063D01*
X10410095Y-14556063D02*
X10419619Y-14546539D01*
X10419619Y-14546539D02*
X10438666Y-14517968D01*
X10438666Y-14517968D02*
X10448190Y-14479872D01*
X10448190Y-14479872D02*
X10448190Y-14403682D01*
X10448190Y-14403682D02*
X10438666Y-14384634D01*
X10438666Y-14384634D02*
X10429142Y-14375111D01*
X10429142Y-14375111D02*
X10410095Y-14365587D01*
X10410095Y-14365587D02*
X10371999Y-14365587D01*
X10371999Y-14365587D02*
X10352952Y-14375111D01*
X10352952Y-14375111D02*
X10343428Y-14384634D01*
X10343428Y-14384634D02*
X10333904Y-14403682D01*
X10333904Y-14403682D02*
X10333904Y-14451301D01*
X10333904Y-14451301D02*
X10343428Y-14470349D01*
X10343428Y-14470349D02*
X10352952Y-14479872D01*
X10352952Y-14479872D02*
X10371999Y-14489396D01*
X10371999Y-14489396D02*
X10410095Y-14489396D01*
X10410095Y-14489396D02*
X10429142Y-14479872D01*
X10429142Y-14479872D02*
X10438666Y-14470349D01*
X10438666Y-14470349D02*
X10448190Y-14451301D01*
X10619619Y-14432253D02*
X10619619Y-14565587D01*
X10571999Y-14356063D02*
X10524380Y-14498920D01*
X10524380Y-14498920D02*
X10648190Y-14498920D01*
X10714857Y-14365587D02*
X10714857Y-14403682D01*
X10791047Y-14365587D02*
X10791047Y-14403682D01*
X11086285Y-14641777D02*
X11076761Y-14632253D01*
X11076761Y-14632253D02*
X11057714Y-14603682D01*
X11057714Y-14603682D02*
X11048190Y-14584634D01*
X11048190Y-14584634D02*
X11038666Y-14556063D01*
X11038666Y-14556063D02*
X11029142Y-14508444D01*
X11029142Y-14508444D02*
X11029142Y-14470349D01*
X11029142Y-14470349D02*
X11038666Y-14422730D01*
X11038666Y-14422730D02*
X11048190Y-14394158D01*
X11048190Y-14394158D02*
X11057714Y-14375111D01*
X11057714Y-14375111D02*
X11076761Y-14346539D01*
X11076761Y-14346539D02*
X11086285Y-14337015D01*
X11152952Y-14384634D02*
X11162476Y-14375111D01*
X11162476Y-14375111D02*
X11181523Y-14365587D01*
X11181523Y-14365587D02*
X11229142Y-14365587D01*
X11229142Y-14365587D02*
X11248190Y-14375111D01*
X11248190Y-14375111D02*
X11257714Y-14384634D01*
X11257714Y-14384634D02*
X11267238Y-14403682D01*
X11267238Y-14403682D02*
X11267238Y-14422730D01*
X11267238Y-14422730D02*
X11257714Y-14451301D01*
X11257714Y-14451301D02*
X11143428Y-14565587D01*
X11143428Y-14565587D02*
X11267238Y-14565587D01*
X11505333Y-14565587D02*
X11505333Y-14365587D01*
X11591047Y-14565587D02*
X11591047Y-14460825D01*
X11591047Y-14460825D02*
X11581523Y-14441777D01*
X11581523Y-14441777D02*
X11562476Y-14432253D01*
X11562476Y-14432253D02*
X11533904Y-14432253D01*
X11533904Y-14432253D02*
X11514857Y-14441777D01*
X11514857Y-14441777D02*
X11505333Y-14451301D01*
X11714857Y-14565587D02*
X11695809Y-14556063D01*
X11695809Y-14556063D02*
X11686285Y-14546539D01*
X11686285Y-14546539D02*
X11676761Y-14527491D01*
X11676761Y-14527491D02*
X11676761Y-14470349D01*
X11676761Y-14470349D02*
X11686285Y-14451301D01*
X11686285Y-14451301D02*
X11695809Y-14441777D01*
X11695809Y-14441777D02*
X11714857Y-14432253D01*
X11714857Y-14432253D02*
X11743428Y-14432253D01*
X11743428Y-14432253D02*
X11762476Y-14441777D01*
X11762476Y-14441777D02*
X11772000Y-14451301D01*
X11772000Y-14451301D02*
X11781523Y-14470349D01*
X11781523Y-14470349D02*
X11781523Y-14527491D01*
X11781523Y-14527491D02*
X11772000Y-14546539D01*
X11772000Y-14546539D02*
X11762476Y-14556063D01*
X11762476Y-14556063D02*
X11743428Y-14565587D01*
X11743428Y-14565587D02*
X11714857Y-14565587D01*
X11895809Y-14565587D02*
X11876761Y-14556063D01*
X11876761Y-14556063D02*
X11867238Y-14537015D01*
X11867238Y-14537015D02*
X11867238Y-14365587D01*
X12048190Y-14556063D02*
X12029142Y-14565587D01*
X12029142Y-14565587D02*
X11991047Y-14565587D01*
X11991047Y-14565587D02*
X11972000Y-14556063D01*
X11972000Y-14556063D02*
X11962476Y-14537015D01*
X11962476Y-14537015D02*
X11962476Y-14460825D01*
X11962476Y-14460825D02*
X11972000Y-14441777D01*
X11972000Y-14441777D02*
X11991047Y-14432253D01*
X11991047Y-14432253D02*
X12029142Y-14432253D01*
X12029142Y-14432253D02*
X12048190Y-14441777D01*
X12048190Y-14441777D02*
X12057714Y-14460825D01*
X12057714Y-14460825D02*
X12057714Y-14479872D01*
X12057714Y-14479872D02*
X11962476Y-14498920D01*
X12133904Y-14556063D02*
X12152952Y-14565587D01*
X12152952Y-14565587D02*
X12191047Y-14565587D01*
X12191047Y-14565587D02*
X12210095Y-14556063D01*
X12210095Y-14556063D02*
X12219619Y-14537015D01*
X12219619Y-14537015D02*
X12219619Y-14527491D01*
X12219619Y-14527491D02*
X12210095Y-14508444D01*
X12210095Y-14508444D02*
X12191047Y-14498920D01*
X12191047Y-14498920D02*
X12162476Y-14498920D01*
X12162476Y-14498920D02*
X12143428Y-14489396D01*
X12143428Y-14489396D02*
X12133904Y-14470349D01*
X12133904Y-14470349D02*
X12133904Y-14460825D01*
X12133904Y-14460825D02*
X12143428Y-14441777D01*
X12143428Y-14441777D02*
X12162476Y-14432253D01*
X12162476Y-14432253D02*
X12191047Y-14432253D01*
X12191047Y-14432253D02*
X12210095Y-14441777D01*
X12286285Y-14641777D02*
X12295809Y-14632253D01*
X12295809Y-14632253D02*
X12314857Y-14603682D01*
X12314857Y-14603682D02*
X12324381Y-14584634D01*
X12324381Y-14584634D02*
X12333904Y-14556063D01*
X12333904Y-14556063D02*
X12343428Y-14508444D01*
X12343428Y-14508444D02*
X12343428Y-14470349D01*
X12343428Y-14470349D02*
X12333904Y-14422730D01*
X12333904Y-14422730D02*
X12324381Y-14394158D01*
X12324381Y-14394158D02*
X12314857Y-14375111D01*
X12314857Y-14375111D02*
X12295809Y-14346539D01*
X12295809Y-14346539D02*
X12286285Y-14337015D01*
X12648190Y-14641777D02*
X12638666Y-14632253D01*
X12638666Y-14632253D02*
X12619619Y-14603682D01*
X12619619Y-14603682D02*
X12610095Y-14584634D01*
X12610095Y-14584634D02*
X12600571Y-14556063D01*
X12600571Y-14556063D02*
X12591047Y-14508444D01*
X12591047Y-14508444D02*
X12591047Y-14470349D01*
X12591047Y-14470349D02*
X12600571Y-14422730D01*
X12600571Y-14422730D02*
X12610095Y-14394158D01*
X12610095Y-14394158D02*
X12619619Y-14375111D01*
X12619619Y-14375111D02*
X12638666Y-14346539D01*
X12638666Y-14346539D02*
X12648190Y-14337015D01*
X12724381Y-14432253D02*
X12724381Y-14565587D01*
X12724381Y-14451301D02*
X12733904Y-14441777D01*
X12733904Y-14441777D02*
X12752952Y-14432253D01*
X12752952Y-14432253D02*
X12781523Y-14432253D01*
X12781523Y-14432253D02*
X12800571Y-14441777D01*
X12800571Y-14441777D02*
X12810095Y-14460825D01*
X12810095Y-14460825D02*
X12810095Y-14565587D01*
X12933904Y-14565587D02*
X12914857Y-14556063D01*
X12914857Y-14556063D02*
X12905333Y-14546539D01*
X12905333Y-14546539D02*
X12895809Y-14527491D01*
X12895809Y-14527491D02*
X12895809Y-14470349D01*
X12895809Y-14470349D02*
X12905333Y-14451301D01*
X12905333Y-14451301D02*
X12914857Y-14441777D01*
X12914857Y-14441777D02*
X12933904Y-14432253D01*
X12933904Y-14432253D02*
X12962476Y-14432253D01*
X12962476Y-14432253D02*
X12981523Y-14441777D01*
X12981523Y-14441777D02*
X12991047Y-14451301D01*
X12991047Y-14451301D02*
X13000571Y-14470349D01*
X13000571Y-14470349D02*
X13000571Y-14527491D01*
X13000571Y-14527491D02*
X12991047Y-14546539D01*
X12991047Y-14546539D02*
X12981523Y-14556063D01*
X12981523Y-14556063D02*
X12962476Y-14565587D01*
X12962476Y-14565587D02*
X12933904Y-14565587D01*
X13057714Y-14432253D02*
X13133904Y-14432253D01*
X13086285Y-14365587D02*
X13086285Y-14537015D01*
X13086285Y-14537015D02*
X13095809Y-14556063D01*
X13095809Y-14556063D02*
X13114857Y-14565587D01*
X13114857Y-14565587D02*
X13133904Y-14565587D01*
X13352952Y-14432253D02*
X13352952Y-14632253D01*
X13352952Y-14441777D02*
X13372000Y-14432253D01*
X13372000Y-14432253D02*
X13410095Y-14432253D01*
X13410095Y-14432253D02*
X13429143Y-14441777D01*
X13429143Y-14441777D02*
X13438666Y-14451301D01*
X13438666Y-14451301D02*
X13448190Y-14470349D01*
X13448190Y-14470349D02*
X13448190Y-14527491D01*
X13448190Y-14527491D02*
X13438666Y-14546539D01*
X13438666Y-14546539D02*
X13429143Y-14556063D01*
X13429143Y-14556063D02*
X13410095Y-14565587D01*
X13410095Y-14565587D02*
X13372000Y-14565587D01*
X13372000Y-14565587D02*
X13352952Y-14556063D01*
X13562476Y-14565587D02*
X13543428Y-14556063D01*
X13543428Y-14556063D02*
X13533904Y-14537015D01*
X13533904Y-14537015D02*
X13533904Y-14365587D01*
X13724381Y-14565587D02*
X13724381Y-14460825D01*
X13724381Y-14460825D02*
X13714857Y-14441777D01*
X13714857Y-14441777D02*
X13695809Y-14432253D01*
X13695809Y-14432253D02*
X13657714Y-14432253D01*
X13657714Y-14432253D02*
X13638666Y-14441777D01*
X13724381Y-14556063D02*
X13705333Y-14565587D01*
X13705333Y-14565587D02*
X13657714Y-14565587D01*
X13657714Y-14565587D02*
X13638666Y-14556063D01*
X13638666Y-14556063D02*
X13629143Y-14537015D01*
X13629143Y-14537015D02*
X13629143Y-14517968D01*
X13629143Y-14517968D02*
X13638666Y-14498920D01*
X13638666Y-14498920D02*
X13657714Y-14489396D01*
X13657714Y-14489396D02*
X13705333Y-14489396D01*
X13705333Y-14489396D02*
X13724381Y-14479872D01*
X13791047Y-14432253D02*
X13867238Y-14432253D01*
X13819619Y-14365587D02*
X13819619Y-14537015D01*
X13819619Y-14537015D02*
X13829143Y-14556063D01*
X13829143Y-14556063D02*
X13848190Y-14565587D01*
X13848190Y-14565587D02*
X13867238Y-14565587D01*
X14010095Y-14556063D02*
X13991047Y-14565587D01*
X13991047Y-14565587D02*
X13952952Y-14565587D01*
X13952952Y-14565587D02*
X13933904Y-14556063D01*
X13933904Y-14556063D02*
X13924381Y-14537015D01*
X13924381Y-14537015D02*
X13924381Y-14460825D01*
X13924381Y-14460825D02*
X13933904Y-14441777D01*
X13933904Y-14441777D02*
X13952952Y-14432253D01*
X13952952Y-14432253D02*
X13991047Y-14432253D01*
X13991047Y-14432253D02*
X14010095Y-14441777D01*
X14010095Y-14441777D02*
X14019619Y-14460825D01*
X14019619Y-14460825D02*
X14019619Y-14479872D01*
X14019619Y-14479872D02*
X13924381Y-14498920D01*
X14191047Y-14565587D02*
X14191047Y-14365587D01*
X14191047Y-14556063D02*
X14172000Y-14565587D01*
X14172000Y-14565587D02*
X14133904Y-14565587D01*
X14133904Y-14565587D02*
X14114857Y-14556063D01*
X14114857Y-14556063D02*
X14105333Y-14546539D01*
X14105333Y-14546539D02*
X14095809Y-14527491D01*
X14095809Y-14527491D02*
X14095809Y-14470349D01*
X14095809Y-14470349D02*
X14105333Y-14451301D01*
X14105333Y-14451301D02*
X14114857Y-14441777D01*
X14114857Y-14441777D02*
X14133904Y-14432253D01*
X14133904Y-14432253D02*
X14172000Y-14432253D01*
X14172000Y-14432253D02*
X14191047Y-14441777D01*
X14267238Y-14641777D02*
X14276762Y-14632253D01*
X14276762Y-14632253D02*
X14295809Y-14603682D01*
X14295809Y-14603682D02*
X14305333Y-14584634D01*
X14305333Y-14584634D02*
X14314857Y-14556063D01*
X14314857Y-14556063D02*
X14324381Y-14508444D01*
X14324381Y-14508444D02*
X14324381Y-14470349D01*
X14324381Y-14470349D02*
X14314857Y-14422730D01*
X14314857Y-14422730D02*
X14305333Y-14394158D01*
X14305333Y-14394158D02*
X14295809Y-14375111D01*
X14295809Y-14375111D02*
X14276762Y-14346539D01*
X14276762Y-14346539D02*
X14267238Y-14337015D01*
D13*
X7426132Y-14653013D02*
X7426132Y-14823193D01*
X7341042Y-14738103D02*
X7511222Y-14738103D01*
D11*
X7876761Y-14829587D02*
X7762475Y-14829587D01*
X7819618Y-14829587D02*
X7819618Y-14629587D01*
X7819618Y-14629587D02*
X7800571Y-14658158D01*
X7800571Y-14658158D02*
X7781523Y-14677206D01*
X7781523Y-14677206D02*
X7762475Y-14686730D01*
X7962475Y-14810539D02*
X7971999Y-14820063D01*
X7971999Y-14820063D02*
X7962475Y-14829587D01*
X7962475Y-14829587D02*
X7952952Y-14820063D01*
X7952952Y-14820063D02*
X7962475Y-14810539D01*
X7962475Y-14810539D02*
X7962475Y-14829587D01*
X8038666Y-14629587D02*
X8171999Y-14629587D01*
X8171999Y-14629587D02*
X8086285Y-14829587D01*
X8286285Y-14629587D02*
X8305333Y-14629587D01*
X8305333Y-14629587D02*
X8324380Y-14639111D01*
X8324380Y-14639111D02*
X8333904Y-14648634D01*
X8333904Y-14648634D02*
X8343428Y-14667682D01*
X8343428Y-14667682D02*
X8352952Y-14705777D01*
X8352952Y-14705777D02*
X8352952Y-14753396D01*
X8352952Y-14753396D02*
X8343428Y-14791491D01*
X8343428Y-14791491D02*
X8333904Y-14810539D01*
X8333904Y-14810539D02*
X8324380Y-14820063D01*
X8324380Y-14820063D02*
X8305333Y-14829587D01*
X8305333Y-14829587D02*
X8286285Y-14829587D01*
X8286285Y-14829587D02*
X8267237Y-14820063D01*
X8267237Y-14820063D02*
X8257713Y-14810539D01*
X8257713Y-14810539D02*
X8248190Y-14791491D01*
X8248190Y-14791491D02*
X8238666Y-14753396D01*
X8238666Y-14753396D02*
X8238666Y-14705777D01*
X8238666Y-14705777D02*
X8248190Y-14667682D01*
X8248190Y-14667682D02*
X8257713Y-14648634D01*
X8257713Y-14648634D02*
X8267237Y-14639111D01*
X8267237Y-14639111D02*
X8286285Y-14629587D01*
X8429142Y-14648634D02*
X8438666Y-14639111D01*
X8438666Y-14639111D02*
X8457714Y-14629587D01*
X8457714Y-14629587D02*
X8505333Y-14629587D01*
X8505333Y-14629587D02*
X8524380Y-14639111D01*
X8524380Y-14639111D02*
X8533904Y-14648634D01*
X8533904Y-14648634D02*
X8543428Y-14667682D01*
X8543428Y-14667682D02*
X8543428Y-14686730D01*
X8543428Y-14686730D02*
X8533904Y-14715301D01*
X8533904Y-14715301D02*
X8419618Y-14829587D01*
X8419618Y-14829587D02*
X8543428Y-14829587D01*
X8629142Y-14829587D02*
X8629142Y-14696253D01*
X8629142Y-14715301D02*
X8638666Y-14705777D01*
X8638666Y-14705777D02*
X8657714Y-14696253D01*
X8657714Y-14696253D02*
X8686285Y-14696253D01*
X8686285Y-14696253D02*
X8705333Y-14705777D01*
X8705333Y-14705777D02*
X8714856Y-14724825D01*
X8714856Y-14724825D02*
X8714856Y-14829587D01*
X8714856Y-14724825D02*
X8724380Y-14705777D01*
X8724380Y-14705777D02*
X8743428Y-14696253D01*
X8743428Y-14696253D02*
X8771999Y-14696253D01*
X8771999Y-14696253D02*
X8791047Y-14705777D01*
X8791047Y-14705777D02*
X8800571Y-14724825D01*
X8800571Y-14724825D02*
X8800571Y-14829587D01*
X8895809Y-14829587D02*
X8895809Y-14696253D01*
X8895809Y-14715301D02*
X8905333Y-14705777D01*
X8905333Y-14705777D02*
X8924380Y-14696253D01*
X8924380Y-14696253D02*
X8952952Y-14696253D01*
X8952952Y-14696253D02*
X8971999Y-14705777D01*
X8971999Y-14705777D02*
X8981523Y-14724825D01*
X8981523Y-14724825D02*
X8981523Y-14829587D01*
X8981523Y-14724825D02*
X8991047Y-14705777D01*
X8991047Y-14705777D02*
X9010095Y-14696253D01*
X9010095Y-14696253D02*
X9038666Y-14696253D01*
X9038666Y-14696253D02*
X9057714Y-14705777D01*
X9057714Y-14705777D02*
X9067237Y-14724825D01*
X9067237Y-14724825D02*
X9067237Y-14829587D01*
X9457714Y-14620063D02*
X9286285Y-14877206D01*
X9714857Y-14629587D02*
X9733904Y-14629587D01*
X9733904Y-14629587D02*
X9752952Y-14639111D01*
X9752952Y-14639111D02*
X9762476Y-14648634D01*
X9762476Y-14648634D02*
X9771999Y-14667682D01*
X9771999Y-14667682D02*
X9781523Y-14705777D01*
X9781523Y-14705777D02*
X9781523Y-14753396D01*
X9781523Y-14753396D02*
X9771999Y-14791491D01*
X9771999Y-14791491D02*
X9762476Y-14810539D01*
X9762476Y-14810539D02*
X9752952Y-14820063D01*
X9752952Y-14820063D02*
X9733904Y-14829587D01*
X9733904Y-14829587D02*
X9714857Y-14829587D01*
X9714857Y-14829587D02*
X9695809Y-14820063D01*
X9695809Y-14820063D02*
X9686285Y-14810539D01*
X9686285Y-14810539D02*
X9676761Y-14791491D01*
X9676761Y-14791491D02*
X9667238Y-14753396D01*
X9667238Y-14753396D02*
X9667238Y-14705777D01*
X9667238Y-14705777D02*
X9676761Y-14667682D01*
X9676761Y-14667682D02*
X9686285Y-14648634D01*
X9686285Y-14648634D02*
X9695809Y-14639111D01*
X9695809Y-14639111D02*
X9714857Y-14629587D01*
X9867238Y-14810539D02*
X9876761Y-14820063D01*
X9876761Y-14820063D02*
X9867238Y-14829587D01*
X9867238Y-14829587D02*
X9857714Y-14820063D01*
X9857714Y-14820063D02*
X9867238Y-14810539D01*
X9867238Y-14810539D02*
X9867238Y-14829587D01*
X10000571Y-14629587D02*
X10019619Y-14629587D01*
X10019619Y-14629587D02*
X10038666Y-14639111D01*
X10038666Y-14639111D02*
X10048190Y-14648634D01*
X10048190Y-14648634D02*
X10057714Y-14667682D01*
X10057714Y-14667682D02*
X10067238Y-14705777D01*
X10067238Y-14705777D02*
X10067238Y-14753396D01*
X10067238Y-14753396D02*
X10057714Y-14791491D01*
X10057714Y-14791491D02*
X10048190Y-14810539D01*
X10048190Y-14810539D02*
X10038666Y-14820063D01*
X10038666Y-14820063D02*
X10019619Y-14829587D01*
X10019619Y-14829587D02*
X10000571Y-14829587D01*
X10000571Y-14829587D02*
X9981523Y-14820063D01*
X9981523Y-14820063D02*
X9971999Y-14810539D01*
X9971999Y-14810539D02*
X9962476Y-14791491D01*
X9962476Y-14791491D02*
X9952952Y-14753396D01*
X9952952Y-14753396D02*
X9952952Y-14705777D01*
X9952952Y-14705777D02*
X9962476Y-14667682D01*
X9962476Y-14667682D02*
X9971999Y-14648634D01*
X9971999Y-14648634D02*
X9981523Y-14639111D01*
X9981523Y-14639111D02*
X10000571Y-14629587D01*
X10238666Y-14629587D02*
X10200571Y-14629587D01*
X10200571Y-14629587D02*
X10181523Y-14639111D01*
X10181523Y-14639111D02*
X10171999Y-14648634D01*
X10171999Y-14648634D02*
X10152952Y-14677206D01*
X10152952Y-14677206D02*
X10143428Y-14715301D01*
X10143428Y-14715301D02*
X10143428Y-14791491D01*
X10143428Y-14791491D02*
X10152952Y-14810539D01*
X10152952Y-14810539D02*
X10162476Y-14820063D01*
X10162476Y-14820063D02*
X10181523Y-14829587D01*
X10181523Y-14829587D02*
X10219619Y-14829587D01*
X10219619Y-14829587D02*
X10238666Y-14820063D01*
X10238666Y-14820063D02*
X10248190Y-14810539D01*
X10248190Y-14810539D02*
X10257714Y-14791491D01*
X10257714Y-14791491D02*
X10257714Y-14743872D01*
X10257714Y-14743872D02*
X10248190Y-14724825D01*
X10248190Y-14724825D02*
X10238666Y-14715301D01*
X10238666Y-14715301D02*
X10219619Y-14705777D01*
X10219619Y-14705777D02*
X10181523Y-14705777D01*
X10181523Y-14705777D02*
X10162476Y-14715301D01*
X10162476Y-14715301D02*
X10152952Y-14724825D01*
X10152952Y-14724825D02*
X10143428Y-14743872D01*
X10324380Y-14629587D02*
X10457714Y-14629587D01*
X10457714Y-14629587D02*
X10371999Y-14829587D01*
X10571999Y-14629587D02*
X10591047Y-14629587D01*
X10591047Y-14629587D02*
X10610095Y-14639111D01*
X10610095Y-14639111D02*
X10619619Y-14648634D01*
X10619619Y-14648634D02*
X10629142Y-14667682D01*
X10629142Y-14667682D02*
X10638666Y-14705777D01*
X10638666Y-14705777D02*
X10638666Y-14753396D01*
X10638666Y-14753396D02*
X10629142Y-14791491D01*
X10629142Y-14791491D02*
X10619619Y-14810539D01*
X10619619Y-14810539D02*
X10610095Y-14820063D01*
X10610095Y-14820063D02*
X10591047Y-14829587D01*
X10591047Y-14829587D02*
X10571999Y-14829587D01*
X10571999Y-14829587D02*
X10552952Y-14820063D01*
X10552952Y-14820063D02*
X10543428Y-14810539D01*
X10543428Y-14810539D02*
X10533904Y-14791491D01*
X10533904Y-14791491D02*
X10524380Y-14753396D01*
X10524380Y-14753396D02*
X10524380Y-14705777D01*
X10524380Y-14705777D02*
X10533904Y-14667682D01*
X10533904Y-14667682D02*
X10543428Y-14648634D01*
X10543428Y-14648634D02*
X10552952Y-14639111D01*
X10552952Y-14639111D02*
X10571999Y-14629587D01*
X10714857Y-14629587D02*
X10714857Y-14667682D01*
X10791047Y-14629587D02*
X10791047Y-14667682D01*
X11086285Y-14905777D02*
X11076761Y-14896253D01*
X11076761Y-14896253D02*
X11057714Y-14867682D01*
X11057714Y-14867682D02*
X11048190Y-14848634D01*
X11048190Y-14848634D02*
X11038666Y-14820063D01*
X11038666Y-14820063D02*
X11029142Y-14772444D01*
X11029142Y-14772444D02*
X11029142Y-14734349D01*
X11029142Y-14734349D02*
X11038666Y-14686730D01*
X11038666Y-14686730D02*
X11048190Y-14658158D01*
X11048190Y-14658158D02*
X11057714Y-14639111D01*
X11057714Y-14639111D02*
X11076761Y-14610539D01*
X11076761Y-14610539D02*
X11086285Y-14601015D01*
X11143428Y-14629587D02*
X11267238Y-14629587D01*
X11267238Y-14629587D02*
X11200571Y-14705777D01*
X11200571Y-14705777D02*
X11229142Y-14705777D01*
X11229142Y-14705777D02*
X11248190Y-14715301D01*
X11248190Y-14715301D02*
X11257714Y-14724825D01*
X11257714Y-14724825D02*
X11267238Y-14743872D01*
X11267238Y-14743872D02*
X11267238Y-14791491D01*
X11267238Y-14791491D02*
X11257714Y-14810539D01*
X11257714Y-14810539D02*
X11248190Y-14820063D01*
X11248190Y-14820063D02*
X11229142Y-14829587D01*
X11229142Y-14829587D02*
X11172000Y-14829587D01*
X11172000Y-14829587D02*
X11152952Y-14820063D01*
X11152952Y-14820063D02*
X11143428Y-14810539D01*
X11438666Y-14629587D02*
X11400571Y-14629587D01*
X11400571Y-14629587D02*
X11381523Y-14639111D01*
X11381523Y-14639111D02*
X11371999Y-14648634D01*
X11371999Y-14648634D02*
X11352952Y-14677206D01*
X11352952Y-14677206D02*
X11343428Y-14715301D01*
X11343428Y-14715301D02*
X11343428Y-14791491D01*
X11343428Y-14791491D02*
X11352952Y-14810539D01*
X11352952Y-14810539D02*
X11362476Y-14820063D01*
X11362476Y-14820063D02*
X11381523Y-14829587D01*
X11381523Y-14829587D02*
X11419619Y-14829587D01*
X11419619Y-14829587D02*
X11438666Y-14820063D01*
X11438666Y-14820063D02*
X11448190Y-14810539D01*
X11448190Y-14810539D02*
X11457714Y-14791491D01*
X11457714Y-14791491D02*
X11457714Y-14743872D01*
X11457714Y-14743872D02*
X11448190Y-14724825D01*
X11448190Y-14724825D02*
X11438666Y-14715301D01*
X11438666Y-14715301D02*
X11419619Y-14705777D01*
X11419619Y-14705777D02*
X11381523Y-14705777D01*
X11381523Y-14705777D02*
X11362476Y-14715301D01*
X11362476Y-14715301D02*
X11352952Y-14724825D01*
X11352952Y-14724825D02*
X11343428Y-14743872D01*
X11695809Y-14829587D02*
X11695809Y-14629587D01*
X11781523Y-14829587D02*
X11781523Y-14724825D01*
X11781523Y-14724825D02*
X11772000Y-14705777D01*
X11772000Y-14705777D02*
X11752952Y-14696253D01*
X11752952Y-14696253D02*
X11724380Y-14696253D01*
X11724380Y-14696253D02*
X11705333Y-14705777D01*
X11705333Y-14705777D02*
X11695809Y-14715301D01*
X11905333Y-14829587D02*
X11886285Y-14820063D01*
X11886285Y-14820063D02*
X11876761Y-14810539D01*
X11876761Y-14810539D02*
X11867238Y-14791491D01*
X11867238Y-14791491D02*
X11867238Y-14734349D01*
X11867238Y-14734349D02*
X11876761Y-14715301D01*
X11876761Y-14715301D02*
X11886285Y-14705777D01*
X11886285Y-14705777D02*
X11905333Y-14696253D01*
X11905333Y-14696253D02*
X11933904Y-14696253D01*
X11933904Y-14696253D02*
X11952952Y-14705777D01*
X11952952Y-14705777D02*
X11962476Y-14715301D01*
X11962476Y-14715301D02*
X11972000Y-14734349D01*
X11972000Y-14734349D02*
X11972000Y-14791491D01*
X11972000Y-14791491D02*
X11962476Y-14810539D01*
X11962476Y-14810539D02*
X11952952Y-14820063D01*
X11952952Y-14820063D02*
X11933904Y-14829587D01*
X11933904Y-14829587D02*
X11905333Y-14829587D01*
X12086285Y-14829587D02*
X12067238Y-14820063D01*
X12067238Y-14820063D02*
X12057714Y-14801015D01*
X12057714Y-14801015D02*
X12057714Y-14629587D01*
X12238666Y-14820063D02*
X12219619Y-14829587D01*
X12219619Y-14829587D02*
X12181523Y-14829587D01*
X12181523Y-14829587D02*
X12162476Y-14820063D01*
X12162476Y-14820063D02*
X12152952Y-14801015D01*
X12152952Y-14801015D02*
X12152952Y-14724825D01*
X12152952Y-14724825D02*
X12162476Y-14705777D01*
X12162476Y-14705777D02*
X12181523Y-14696253D01*
X12181523Y-14696253D02*
X12219619Y-14696253D01*
X12219619Y-14696253D02*
X12238666Y-14705777D01*
X12238666Y-14705777D02*
X12248190Y-14724825D01*
X12248190Y-14724825D02*
X12248190Y-14743872D01*
X12248190Y-14743872D02*
X12152952Y-14762920D01*
X12324381Y-14820063D02*
X12343428Y-14829587D01*
X12343428Y-14829587D02*
X12381523Y-14829587D01*
X12381523Y-14829587D02*
X12400571Y-14820063D01*
X12400571Y-14820063D02*
X12410095Y-14801015D01*
X12410095Y-14801015D02*
X12410095Y-14791491D01*
X12410095Y-14791491D02*
X12400571Y-14772444D01*
X12400571Y-14772444D02*
X12381523Y-14762920D01*
X12381523Y-14762920D02*
X12352952Y-14762920D01*
X12352952Y-14762920D02*
X12333904Y-14753396D01*
X12333904Y-14753396D02*
X12324381Y-14734349D01*
X12324381Y-14734349D02*
X12324381Y-14724825D01*
X12324381Y-14724825D02*
X12333904Y-14705777D01*
X12333904Y-14705777D02*
X12352952Y-14696253D01*
X12352952Y-14696253D02*
X12381523Y-14696253D01*
X12381523Y-14696253D02*
X12400571Y-14705777D01*
X12476762Y-14905777D02*
X12486285Y-14896253D01*
X12486285Y-14896253D02*
X12505333Y-14867682D01*
X12505333Y-14867682D02*
X12514857Y-14848634D01*
X12514857Y-14848634D02*
X12524381Y-14820063D01*
X12524381Y-14820063D02*
X12533904Y-14772444D01*
X12533904Y-14772444D02*
X12533904Y-14734349D01*
X12533904Y-14734349D02*
X12524381Y-14686730D01*
X12524381Y-14686730D02*
X12514857Y-14658158D01*
X12514857Y-14658158D02*
X12505333Y-14639111D01*
X12505333Y-14639111D02*
X12486285Y-14610539D01*
X12486285Y-14610539D02*
X12476762Y-14601015D01*
X12838666Y-14905777D02*
X12829142Y-14896253D01*
X12829142Y-14896253D02*
X12810095Y-14867682D01*
X12810095Y-14867682D02*
X12800571Y-14848634D01*
X12800571Y-14848634D02*
X12791047Y-14820063D01*
X12791047Y-14820063D02*
X12781523Y-14772444D01*
X12781523Y-14772444D02*
X12781523Y-14734349D01*
X12781523Y-14734349D02*
X12791047Y-14686730D01*
X12791047Y-14686730D02*
X12800571Y-14658158D01*
X12800571Y-14658158D02*
X12810095Y-14639111D01*
X12810095Y-14639111D02*
X12829142Y-14610539D01*
X12829142Y-14610539D02*
X12838666Y-14601015D01*
X12914857Y-14696253D02*
X12914857Y-14829587D01*
X12914857Y-14715301D02*
X12924381Y-14705777D01*
X12924381Y-14705777D02*
X12943428Y-14696253D01*
X12943428Y-14696253D02*
X12972000Y-14696253D01*
X12972000Y-14696253D02*
X12991047Y-14705777D01*
X12991047Y-14705777D02*
X13000571Y-14724825D01*
X13000571Y-14724825D02*
X13000571Y-14829587D01*
X13124381Y-14829587D02*
X13105333Y-14820063D01*
X13105333Y-14820063D02*
X13095809Y-14810539D01*
X13095809Y-14810539D02*
X13086285Y-14791491D01*
X13086285Y-14791491D02*
X13086285Y-14734349D01*
X13086285Y-14734349D02*
X13095809Y-14715301D01*
X13095809Y-14715301D02*
X13105333Y-14705777D01*
X13105333Y-14705777D02*
X13124381Y-14696253D01*
X13124381Y-14696253D02*
X13152952Y-14696253D01*
X13152952Y-14696253D02*
X13172000Y-14705777D01*
X13172000Y-14705777D02*
X13181523Y-14715301D01*
X13181523Y-14715301D02*
X13191047Y-14734349D01*
X13191047Y-14734349D02*
X13191047Y-14791491D01*
X13191047Y-14791491D02*
X13181523Y-14810539D01*
X13181523Y-14810539D02*
X13172000Y-14820063D01*
X13172000Y-14820063D02*
X13152952Y-14829587D01*
X13152952Y-14829587D02*
X13124381Y-14829587D01*
X13248190Y-14696253D02*
X13324381Y-14696253D01*
X13276762Y-14629587D02*
X13276762Y-14801015D01*
X13276762Y-14801015D02*
X13286285Y-14820063D01*
X13286285Y-14820063D02*
X13305333Y-14829587D01*
X13305333Y-14829587D02*
X13324381Y-14829587D01*
X13543428Y-14696253D02*
X13543428Y-14896253D01*
X13543428Y-14705777D02*
X13562476Y-14696253D01*
X13562476Y-14696253D02*
X13600571Y-14696253D01*
X13600571Y-14696253D02*
X13619619Y-14705777D01*
X13619619Y-14705777D02*
X13629143Y-14715301D01*
X13629143Y-14715301D02*
X13638666Y-14734349D01*
X13638666Y-14734349D02*
X13638666Y-14791491D01*
X13638666Y-14791491D02*
X13629143Y-14810539D01*
X13629143Y-14810539D02*
X13619619Y-14820063D01*
X13619619Y-14820063D02*
X13600571Y-14829587D01*
X13600571Y-14829587D02*
X13562476Y-14829587D01*
X13562476Y-14829587D02*
X13543428Y-14820063D01*
X13752952Y-14829587D02*
X13733904Y-14820063D01*
X13733904Y-14820063D02*
X13724381Y-14801015D01*
X13724381Y-14801015D02*
X13724381Y-14629587D01*
X13914857Y-14829587D02*
X13914857Y-14724825D01*
X13914857Y-14724825D02*
X13905333Y-14705777D01*
X13905333Y-14705777D02*
X13886285Y-14696253D01*
X13886285Y-14696253D02*
X13848190Y-14696253D01*
X13848190Y-14696253D02*
X13829143Y-14705777D01*
X13914857Y-14820063D02*
X13895809Y-14829587D01*
X13895809Y-14829587D02*
X13848190Y-14829587D01*
X13848190Y-14829587D02*
X13829143Y-14820063D01*
X13829143Y-14820063D02*
X13819619Y-14801015D01*
X13819619Y-14801015D02*
X13819619Y-14781968D01*
X13819619Y-14781968D02*
X13829143Y-14762920D01*
X13829143Y-14762920D02*
X13848190Y-14753396D01*
X13848190Y-14753396D02*
X13895809Y-14753396D01*
X13895809Y-14753396D02*
X13914857Y-14743872D01*
X13981524Y-14696253D02*
X14057714Y-14696253D01*
X14010095Y-14629587D02*
X14010095Y-14801015D01*
X14010095Y-14801015D02*
X14019619Y-14820063D01*
X14019619Y-14820063D02*
X14038666Y-14829587D01*
X14038666Y-14829587D02*
X14057714Y-14829587D01*
X14200571Y-14820063D02*
X14181524Y-14829587D01*
X14181524Y-14829587D02*
X14143428Y-14829587D01*
X14143428Y-14829587D02*
X14124381Y-14820063D01*
X14124381Y-14820063D02*
X14114857Y-14801015D01*
X14114857Y-14801015D02*
X14114857Y-14724825D01*
X14114857Y-14724825D02*
X14124381Y-14705777D01*
X14124381Y-14705777D02*
X14143428Y-14696253D01*
X14143428Y-14696253D02*
X14181524Y-14696253D01*
X14181524Y-14696253D02*
X14200571Y-14705777D01*
X14200571Y-14705777D02*
X14210095Y-14724825D01*
X14210095Y-14724825D02*
X14210095Y-14743872D01*
X14210095Y-14743872D02*
X14114857Y-14762920D01*
X14381524Y-14829587D02*
X14381524Y-14629587D01*
X14381524Y-14820063D02*
X14362476Y-14829587D01*
X14362476Y-14829587D02*
X14324381Y-14829587D01*
X14324381Y-14829587D02*
X14305333Y-14820063D01*
X14305333Y-14820063D02*
X14295809Y-14810539D01*
X14295809Y-14810539D02*
X14286285Y-14791491D01*
X14286285Y-14791491D02*
X14286285Y-14734349D01*
X14286285Y-14734349D02*
X14295809Y-14715301D01*
X14295809Y-14715301D02*
X14305333Y-14705777D01*
X14305333Y-14705777D02*
X14324381Y-14696253D01*
X14324381Y-14696253D02*
X14362476Y-14696253D01*
X14362476Y-14696253D02*
X14381524Y-14705777D01*
X14457714Y-14905777D02*
X14467238Y-14896253D01*
X14467238Y-14896253D02*
X14486285Y-14867682D01*
X14486285Y-14867682D02*
X14495809Y-14848634D01*
X14495809Y-14848634D02*
X14505333Y-14820063D01*
X14505333Y-14820063D02*
X14514857Y-14772444D01*
X14514857Y-14772444D02*
X14514857Y-14734349D01*
X14514857Y-14734349D02*
X14505333Y-14686730D01*
X14505333Y-14686730D02*
X14495809Y-14658158D01*
X14495809Y-14658158D02*
X14486285Y-14639111D01*
X14486285Y-14639111D02*
X14467238Y-14610539D01*
X14467238Y-14610539D02*
X14457714Y-14601015D01*
X7481934Y-15098994D02*
X7481934Y-14957572D01*
X7340511Y-14957572D01*
X7340511Y-15098994D01*
X7481934Y-15098994D01*
X7762475Y-14938814D02*
X7771999Y-14929291D01*
X7771999Y-14929291D02*
X7791047Y-14919767D01*
X7791047Y-14919767D02*
X7838666Y-14919767D01*
X7838666Y-14919767D02*
X7857713Y-14929291D01*
X7857713Y-14929291D02*
X7867237Y-14938814D01*
X7867237Y-14938814D02*
X7876761Y-14957862D01*
X7876761Y-14957862D02*
X7876761Y-14976910D01*
X7876761Y-14976910D02*
X7867237Y-15005481D01*
X7867237Y-15005481D02*
X7752952Y-15119767D01*
X7752952Y-15119767D02*
X7876761Y-15119767D01*
X7962475Y-15100719D02*
X7971999Y-15110243D01*
X7971999Y-15110243D02*
X7962475Y-15119767D01*
X7962475Y-15119767D02*
X7952952Y-15110243D01*
X7952952Y-15110243D02*
X7962475Y-15100719D01*
X7962475Y-15100719D02*
X7962475Y-15119767D01*
X8048190Y-14938814D02*
X8057713Y-14929291D01*
X8057713Y-14929291D02*
X8076761Y-14919767D01*
X8076761Y-14919767D02*
X8124380Y-14919767D01*
X8124380Y-14919767D02*
X8143428Y-14929291D01*
X8143428Y-14929291D02*
X8152952Y-14938814D01*
X8152952Y-14938814D02*
X8162475Y-14957862D01*
X8162475Y-14957862D02*
X8162475Y-14976910D01*
X8162475Y-14976910D02*
X8152952Y-15005481D01*
X8152952Y-15005481D02*
X8038666Y-15119767D01*
X8038666Y-15119767D02*
X8162475Y-15119767D01*
X8286285Y-14919767D02*
X8305333Y-14919767D01*
X8305333Y-14919767D02*
X8324380Y-14929291D01*
X8324380Y-14929291D02*
X8333904Y-14938814D01*
X8333904Y-14938814D02*
X8343428Y-14957862D01*
X8343428Y-14957862D02*
X8352952Y-14995957D01*
X8352952Y-14995957D02*
X8352952Y-15043576D01*
X8352952Y-15043576D02*
X8343428Y-15081671D01*
X8343428Y-15081671D02*
X8333904Y-15100719D01*
X8333904Y-15100719D02*
X8324380Y-15110243D01*
X8324380Y-15110243D02*
X8305333Y-15119767D01*
X8305333Y-15119767D02*
X8286285Y-15119767D01*
X8286285Y-15119767D02*
X8267237Y-15110243D01*
X8267237Y-15110243D02*
X8257713Y-15100719D01*
X8257713Y-15100719D02*
X8248190Y-15081671D01*
X8248190Y-15081671D02*
X8238666Y-15043576D01*
X8238666Y-15043576D02*
X8238666Y-14995957D01*
X8238666Y-14995957D02*
X8248190Y-14957862D01*
X8248190Y-14957862D02*
X8257713Y-14938814D01*
X8257713Y-14938814D02*
X8267237Y-14929291D01*
X8267237Y-14929291D02*
X8286285Y-14919767D01*
X8476761Y-14919767D02*
X8495809Y-14919767D01*
X8495809Y-14919767D02*
X8514856Y-14929291D01*
X8514856Y-14929291D02*
X8524380Y-14938814D01*
X8524380Y-14938814D02*
X8533904Y-14957862D01*
X8533904Y-14957862D02*
X8543428Y-14995957D01*
X8543428Y-14995957D02*
X8543428Y-15043576D01*
X8543428Y-15043576D02*
X8533904Y-15081671D01*
X8533904Y-15081671D02*
X8524380Y-15100719D01*
X8524380Y-15100719D02*
X8514856Y-15110243D01*
X8514856Y-15110243D02*
X8495809Y-15119767D01*
X8495809Y-15119767D02*
X8476761Y-15119767D01*
X8476761Y-15119767D02*
X8457714Y-15110243D01*
X8457714Y-15110243D02*
X8448190Y-15100719D01*
X8448190Y-15100719D02*
X8438666Y-15081671D01*
X8438666Y-15081671D02*
X8429142Y-15043576D01*
X8429142Y-15043576D02*
X8429142Y-14995957D01*
X8429142Y-14995957D02*
X8438666Y-14957862D01*
X8438666Y-14957862D02*
X8448190Y-14938814D01*
X8448190Y-14938814D02*
X8457714Y-14929291D01*
X8457714Y-14929291D02*
X8476761Y-14919767D01*
X8629142Y-15119767D02*
X8629142Y-14986433D01*
X8629142Y-15005481D02*
X8638666Y-14995957D01*
X8638666Y-14995957D02*
X8657714Y-14986433D01*
X8657714Y-14986433D02*
X8686285Y-14986433D01*
X8686285Y-14986433D02*
X8705333Y-14995957D01*
X8705333Y-14995957D02*
X8714856Y-15015005D01*
X8714856Y-15015005D02*
X8714856Y-15119767D01*
X8714856Y-15015005D02*
X8724380Y-14995957D01*
X8724380Y-14995957D02*
X8743428Y-14986433D01*
X8743428Y-14986433D02*
X8771999Y-14986433D01*
X8771999Y-14986433D02*
X8791047Y-14995957D01*
X8791047Y-14995957D02*
X8800571Y-15015005D01*
X8800571Y-15015005D02*
X8800571Y-15119767D01*
X8895809Y-15119767D02*
X8895809Y-14986433D01*
X8895809Y-15005481D02*
X8905333Y-14995957D01*
X8905333Y-14995957D02*
X8924380Y-14986433D01*
X8924380Y-14986433D02*
X8952952Y-14986433D01*
X8952952Y-14986433D02*
X8971999Y-14995957D01*
X8971999Y-14995957D02*
X8981523Y-15015005D01*
X8981523Y-15015005D02*
X8981523Y-15119767D01*
X8981523Y-15015005D02*
X8991047Y-14995957D01*
X8991047Y-14995957D02*
X9010095Y-14986433D01*
X9010095Y-14986433D02*
X9038666Y-14986433D01*
X9038666Y-14986433D02*
X9057714Y-14995957D01*
X9057714Y-14995957D02*
X9067237Y-15015005D01*
X9067237Y-15015005D02*
X9067237Y-15119767D01*
X9457714Y-14910243D02*
X9286285Y-15167386D01*
X9714857Y-14919767D02*
X9733904Y-14919767D01*
X9733904Y-14919767D02*
X9752952Y-14929291D01*
X9752952Y-14929291D02*
X9762476Y-14938814D01*
X9762476Y-14938814D02*
X9771999Y-14957862D01*
X9771999Y-14957862D02*
X9781523Y-14995957D01*
X9781523Y-14995957D02*
X9781523Y-15043576D01*
X9781523Y-15043576D02*
X9771999Y-15081671D01*
X9771999Y-15081671D02*
X9762476Y-15100719D01*
X9762476Y-15100719D02*
X9752952Y-15110243D01*
X9752952Y-15110243D02*
X9733904Y-15119767D01*
X9733904Y-15119767D02*
X9714857Y-15119767D01*
X9714857Y-15119767D02*
X9695809Y-15110243D01*
X9695809Y-15110243D02*
X9686285Y-15100719D01*
X9686285Y-15100719D02*
X9676761Y-15081671D01*
X9676761Y-15081671D02*
X9667238Y-15043576D01*
X9667238Y-15043576D02*
X9667238Y-14995957D01*
X9667238Y-14995957D02*
X9676761Y-14957862D01*
X9676761Y-14957862D02*
X9686285Y-14938814D01*
X9686285Y-14938814D02*
X9695809Y-14929291D01*
X9695809Y-14929291D02*
X9714857Y-14919767D01*
X9867238Y-15100719D02*
X9876761Y-15110243D01*
X9876761Y-15110243D02*
X9867238Y-15119767D01*
X9867238Y-15119767D02*
X9857714Y-15110243D01*
X9857714Y-15110243D02*
X9867238Y-15100719D01*
X9867238Y-15100719D02*
X9867238Y-15119767D01*
X10000571Y-14919767D02*
X10019619Y-14919767D01*
X10019619Y-14919767D02*
X10038666Y-14929291D01*
X10038666Y-14929291D02*
X10048190Y-14938814D01*
X10048190Y-14938814D02*
X10057714Y-14957862D01*
X10057714Y-14957862D02*
X10067238Y-14995957D01*
X10067238Y-14995957D02*
X10067238Y-15043576D01*
X10067238Y-15043576D02*
X10057714Y-15081671D01*
X10057714Y-15081671D02*
X10048190Y-15100719D01*
X10048190Y-15100719D02*
X10038666Y-15110243D01*
X10038666Y-15110243D02*
X10019619Y-15119767D01*
X10019619Y-15119767D02*
X10000571Y-15119767D01*
X10000571Y-15119767D02*
X9981523Y-15110243D01*
X9981523Y-15110243D02*
X9971999Y-15100719D01*
X9971999Y-15100719D02*
X9962476Y-15081671D01*
X9962476Y-15081671D02*
X9952952Y-15043576D01*
X9952952Y-15043576D02*
X9952952Y-14995957D01*
X9952952Y-14995957D02*
X9962476Y-14957862D01*
X9962476Y-14957862D02*
X9971999Y-14938814D01*
X9971999Y-14938814D02*
X9981523Y-14929291D01*
X9981523Y-14929291D02*
X10000571Y-14919767D01*
X10181523Y-15005481D02*
X10162476Y-14995957D01*
X10162476Y-14995957D02*
X10152952Y-14986433D01*
X10152952Y-14986433D02*
X10143428Y-14967386D01*
X10143428Y-14967386D02*
X10143428Y-14957862D01*
X10143428Y-14957862D02*
X10152952Y-14938814D01*
X10152952Y-14938814D02*
X10162476Y-14929291D01*
X10162476Y-14929291D02*
X10181523Y-14919767D01*
X10181523Y-14919767D02*
X10219619Y-14919767D01*
X10219619Y-14919767D02*
X10238666Y-14929291D01*
X10238666Y-14929291D02*
X10248190Y-14938814D01*
X10248190Y-14938814D02*
X10257714Y-14957862D01*
X10257714Y-14957862D02*
X10257714Y-14967386D01*
X10257714Y-14967386D02*
X10248190Y-14986433D01*
X10248190Y-14986433D02*
X10238666Y-14995957D01*
X10238666Y-14995957D02*
X10219619Y-15005481D01*
X10219619Y-15005481D02*
X10181523Y-15005481D01*
X10181523Y-15005481D02*
X10162476Y-15015005D01*
X10162476Y-15015005D02*
X10152952Y-15024529D01*
X10152952Y-15024529D02*
X10143428Y-15043576D01*
X10143428Y-15043576D02*
X10143428Y-15081671D01*
X10143428Y-15081671D02*
X10152952Y-15100719D01*
X10152952Y-15100719D02*
X10162476Y-15110243D01*
X10162476Y-15110243D02*
X10181523Y-15119767D01*
X10181523Y-15119767D02*
X10219619Y-15119767D01*
X10219619Y-15119767D02*
X10238666Y-15110243D01*
X10238666Y-15110243D02*
X10248190Y-15100719D01*
X10248190Y-15100719D02*
X10257714Y-15081671D01*
X10257714Y-15081671D02*
X10257714Y-15043576D01*
X10257714Y-15043576D02*
X10248190Y-15024529D01*
X10248190Y-15024529D02*
X10238666Y-15015005D01*
X10238666Y-15015005D02*
X10219619Y-15005481D01*
X10429142Y-14919767D02*
X10391047Y-14919767D01*
X10391047Y-14919767D02*
X10371999Y-14929291D01*
X10371999Y-14929291D02*
X10362476Y-14938814D01*
X10362476Y-14938814D02*
X10343428Y-14967386D01*
X10343428Y-14967386D02*
X10333904Y-15005481D01*
X10333904Y-15005481D02*
X10333904Y-15081671D01*
X10333904Y-15081671D02*
X10343428Y-15100719D01*
X10343428Y-15100719D02*
X10352952Y-15110243D01*
X10352952Y-15110243D02*
X10371999Y-15119767D01*
X10371999Y-15119767D02*
X10410095Y-15119767D01*
X10410095Y-15119767D02*
X10429142Y-15110243D01*
X10429142Y-15110243D02*
X10438666Y-15100719D01*
X10438666Y-15100719D02*
X10448190Y-15081671D01*
X10448190Y-15081671D02*
X10448190Y-15034052D01*
X10448190Y-15034052D02*
X10438666Y-15015005D01*
X10438666Y-15015005D02*
X10429142Y-15005481D01*
X10429142Y-15005481D02*
X10410095Y-14995957D01*
X10410095Y-14995957D02*
X10371999Y-14995957D01*
X10371999Y-14995957D02*
X10352952Y-15005481D01*
X10352952Y-15005481D02*
X10343428Y-15015005D01*
X10343428Y-15015005D02*
X10333904Y-15034052D01*
X10619619Y-14919767D02*
X10581523Y-14919767D01*
X10581523Y-14919767D02*
X10562476Y-14929291D01*
X10562476Y-14929291D02*
X10552952Y-14938814D01*
X10552952Y-14938814D02*
X10533904Y-14967386D01*
X10533904Y-14967386D02*
X10524380Y-15005481D01*
X10524380Y-15005481D02*
X10524380Y-15081671D01*
X10524380Y-15081671D02*
X10533904Y-15100719D01*
X10533904Y-15100719D02*
X10543428Y-15110243D01*
X10543428Y-15110243D02*
X10562476Y-15119767D01*
X10562476Y-15119767D02*
X10600571Y-15119767D01*
X10600571Y-15119767D02*
X10619619Y-15110243D01*
X10619619Y-15110243D02*
X10629142Y-15100719D01*
X10629142Y-15100719D02*
X10638666Y-15081671D01*
X10638666Y-15081671D02*
X10638666Y-15034052D01*
X10638666Y-15034052D02*
X10629142Y-15015005D01*
X10629142Y-15015005D02*
X10619619Y-15005481D01*
X10619619Y-15005481D02*
X10600571Y-14995957D01*
X10600571Y-14995957D02*
X10562476Y-14995957D01*
X10562476Y-14995957D02*
X10543428Y-15005481D01*
X10543428Y-15005481D02*
X10533904Y-15015005D01*
X10533904Y-15015005D02*
X10524380Y-15034052D01*
X10714857Y-14919767D02*
X10714857Y-14957862D01*
X10791047Y-14919767D02*
X10791047Y-14957862D01*
X11086285Y-15195957D02*
X11076761Y-15186433D01*
X11076761Y-15186433D02*
X11057714Y-15157862D01*
X11057714Y-15157862D02*
X11048190Y-15138814D01*
X11048190Y-15138814D02*
X11038666Y-15110243D01*
X11038666Y-15110243D02*
X11029142Y-15062624D01*
X11029142Y-15062624D02*
X11029142Y-15024529D01*
X11029142Y-15024529D02*
X11038666Y-14976910D01*
X11038666Y-14976910D02*
X11048190Y-14948338D01*
X11048190Y-14948338D02*
X11057714Y-14929291D01*
X11057714Y-14929291D02*
X11076761Y-14900719D01*
X11076761Y-14900719D02*
X11086285Y-14891195D01*
X11248190Y-14986433D02*
X11248190Y-15119767D01*
X11200571Y-14910243D02*
X11152952Y-15053100D01*
X11152952Y-15053100D02*
X11276761Y-15053100D01*
X11505333Y-15119767D02*
X11505333Y-14919767D01*
X11591047Y-15119767D02*
X11591047Y-15015005D01*
X11591047Y-15015005D02*
X11581523Y-14995957D01*
X11581523Y-14995957D02*
X11562476Y-14986433D01*
X11562476Y-14986433D02*
X11533904Y-14986433D01*
X11533904Y-14986433D02*
X11514857Y-14995957D01*
X11514857Y-14995957D02*
X11505333Y-15005481D01*
X11714857Y-15119767D02*
X11695809Y-15110243D01*
X11695809Y-15110243D02*
X11686285Y-15100719D01*
X11686285Y-15100719D02*
X11676761Y-15081671D01*
X11676761Y-15081671D02*
X11676761Y-15024529D01*
X11676761Y-15024529D02*
X11686285Y-15005481D01*
X11686285Y-15005481D02*
X11695809Y-14995957D01*
X11695809Y-14995957D02*
X11714857Y-14986433D01*
X11714857Y-14986433D02*
X11743428Y-14986433D01*
X11743428Y-14986433D02*
X11762476Y-14995957D01*
X11762476Y-14995957D02*
X11772000Y-15005481D01*
X11772000Y-15005481D02*
X11781523Y-15024529D01*
X11781523Y-15024529D02*
X11781523Y-15081671D01*
X11781523Y-15081671D02*
X11772000Y-15100719D01*
X11772000Y-15100719D02*
X11762476Y-15110243D01*
X11762476Y-15110243D02*
X11743428Y-15119767D01*
X11743428Y-15119767D02*
X11714857Y-15119767D01*
X11895809Y-15119767D02*
X11876761Y-15110243D01*
X11876761Y-15110243D02*
X11867238Y-15091195D01*
X11867238Y-15091195D02*
X11867238Y-14919767D01*
X12048190Y-15110243D02*
X12029142Y-15119767D01*
X12029142Y-15119767D02*
X11991047Y-15119767D01*
X11991047Y-15119767D02*
X11972000Y-15110243D01*
X11972000Y-15110243D02*
X11962476Y-15091195D01*
X11962476Y-15091195D02*
X11962476Y-15015005D01*
X11962476Y-15015005D02*
X11972000Y-14995957D01*
X11972000Y-14995957D02*
X11991047Y-14986433D01*
X11991047Y-14986433D02*
X12029142Y-14986433D01*
X12029142Y-14986433D02*
X12048190Y-14995957D01*
X12048190Y-14995957D02*
X12057714Y-15015005D01*
X12057714Y-15015005D02*
X12057714Y-15034052D01*
X12057714Y-15034052D02*
X11962476Y-15053100D01*
X12133904Y-15110243D02*
X12152952Y-15119767D01*
X12152952Y-15119767D02*
X12191047Y-15119767D01*
X12191047Y-15119767D02*
X12210095Y-15110243D01*
X12210095Y-15110243D02*
X12219619Y-15091195D01*
X12219619Y-15091195D02*
X12219619Y-15081671D01*
X12219619Y-15081671D02*
X12210095Y-15062624D01*
X12210095Y-15062624D02*
X12191047Y-15053100D01*
X12191047Y-15053100D02*
X12162476Y-15053100D01*
X12162476Y-15053100D02*
X12143428Y-15043576D01*
X12143428Y-15043576D02*
X12133904Y-15024529D01*
X12133904Y-15024529D02*
X12133904Y-15015005D01*
X12133904Y-15015005D02*
X12143428Y-14995957D01*
X12143428Y-14995957D02*
X12162476Y-14986433D01*
X12162476Y-14986433D02*
X12191047Y-14986433D01*
X12191047Y-14986433D02*
X12210095Y-14995957D01*
X12286285Y-15195957D02*
X12295809Y-15186433D01*
X12295809Y-15186433D02*
X12314857Y-15157862D01*
X12314857Y-15157862D02*
X12324381Y-15138814D01*
X12324381Y-15138814D02*
X12333904Y-15110243D01*
X12333904Y-15110243D02*
X12343428Y-15062624D01*
X12343428Y-15062624D02*
X12343428Y-15024529D01*
X12343428Y-15024529D02*
X12333904Y-14976910D01*
X12333904Y-14976910D02*
X12324381Y-14948338D01*
X12324381Y-14948338D02*
X12314857Y-14929291D01*
X12314857Y-14929291D02*
X12295809Y-14900719D01*
X12295809Y-14900719D02*
X12286285Y-14891195D01*
X12648190Y-15195957D02*
X12638666Y-15186433D01*
X12638666Y-15186433D02*
X12619619Y-15157862D01*
X12619619Y-15157862D02*
X12610095Y-15138814D01*
X12610095Y-15138814D02*
X12600571Y-15110243D01*
X12600571Y-15110243D02*
X12591047Y-15062624D01*
X12591047Y-15062624D02*
X12591047Y-15024529D01*
X12591047Y-15024529D02*
X12600571Y-14976910D01*
X12600571Y-14976910D02*
X12610095Y-14948338D01*
X12610095Y-14948338D02*
X12619619Y-14929291D01*
X12619619Y-14929291D02*
X12638666Y-14900719D01*
X12638666Y-14900719D02*
X12648190Y-14891195D01*
X12724381Y-14986433D02*
X12724381Y-15119767D01*
X12724381Y-15005481D02*
X12733904Y-14995957D01*
X12733904Y-14995957D02*
X12752952Y-14986433D01*
X12752952Y-14986433D02*
X12781523Y-14986433D01*
X12781523Y-14986433D02*
X12800571Y-14995957D01*
X12800571Y-14995957D02*
X12810095Y-15015005D01*
X12810095Y-15015005D02*
X12810095Y-15119767D01*
X12933904Y-15119767D02*
X12914857Y-15110243D01*
X12914857Y-15110243D02*
X12905333Y-15100719D01*
X12905333Y-15100719D02*
X12895809Y-15081671D01*
X12895809Y-15081671D02*
X12895809Y-15024529D01*
X12895809Y-15024529D02*
X12905333Y-15005481D01*
X12905333Y-15005481D02*
X12914857Y-14995957D01*
X12914857Y-14995957D02*
X12933904Y-14986433D01*
X12933904Y-14986433D02*
X12962476Y-14986433D01*
X12962476Y-14986433D02*
X12981523Y-14995957D01*
X12981523Y-14995957D02*
X12991047Y-15005481D01*
X12991047Y-15005481D02*
X13000571Y-15024529D01*
X13000571Y-15024529D02*
X13000571Y-15081671D01*
X13000571Y-15081671D02*
X12991047Y-15100719D01*
X12991047Y-15100719D02*
X12981523Y-15110243D01*
X12981523Y-15110243D02*
X12962476Y-15119767D01*
X12962476Y-15119767D02*
X12933904Y-15119767D01*
X13057714Y-14986433D02*
X13133904Y-14986433D01*
X13086285Y-14919767D02*
X13086285Y-15091195D01*
X13086285Y-15091195D02*
X13095809Y-15110243D01*
X13095809Y-15110243D02*
X13114857Y-15119767D01*
X13114857Y-15119767D02*
X13133904Y-15119767D01*
X13352952Y-14986433D02*
X13352952Y-15186433D01*
X13352952Y-14995957D02*
X13372000Y-14986433D01*
X13372000Y-14986433D02*
X13410095Y-14986433D01*
X13410095Y-14986433D02*
X13429143Y-14995957D01*
X13429143Y-14995957D02*
X13438666Y-15005481D01*
X13438666Y-15005481D02*
X13448190Y-15024529D01*
X13448190Y-15024529D02*
X13448190Y-15081671D01*
X13448190Y-15081671D02*
X13438666Y-15100719D01*
X13438666Y-15100719D02*
X13429143Y-15110243D01*
X13429143Y-15110243D02*
X13410095Y-15119767D01*
X13410095Y-15119767D02*
X13372000Y-15119767D01*
X13372000Y-15119767D02*
X13352952Y-15110243D01*
X13562476Y-15119767D02*
X13543428Y-15110243D01*
X13543428Y-15110243D02*
X13533904Y-15091195D01*
X13533904Y-15091195D02*
X13533904Y-14919767D01*
X13724381Y-15119767D02*
X13724381Y-15015005D01*
X13724381Y-15015005D02*
X13714857Y-14995957D01*
X13714857Y-14995957D02*
X13695809Y-14986433D01*
X13695809Y-14986433D02*
X13657714Y-14986433D01*
X13657714Y-14986433D02*
X13638666Y-14995957D01*
X13724381Y-15110243D02*
X13705333Y-15119767D01*
X13705333Y-15119767D02*
X13657714Y-15119767D01*
X13657714Y-15119767D02*
X13638666Y-15110243D01*
X13638666Y-15110243D02*
X13629143Y-15091195D01*
X13629143Y-15091195D02*
X13629143Y-15072148D01*
X13629143Y-15072148D02*
X13638666Y-15053100D01*
X13638666Y-15053100D02*
X13657714Y-15043576D01*
X13657714Y-15043576D02*
X13705333Y-15043576D01*
X13705333Y-15043576D02*
X13724381Y-15034052D01*
X13791047Y-14986433D02*
X13867238Y-14986433D01*
X13819619Y-14919767D02*
X13819619Y-15091195D01*
X13819619Y-15091195D02*
X13829143Y-15110243D01*
X13829143Y-15110243D02*
X13848190Y-15119767D01*
X13848190Y-15119767D02*
X13867238Y-15119767D01*
X14010095Y-15110243D02*
X13991047Y-15119767D01*
X13991047Y-15119767D02*
X13952952Y-15119767D01*
X13952952Y-15119767D02*
X13933904Y-15110243D01*
X13933904Y-15110243D02*
X13924381Y-15091195D01*
X13924381Y-15091195D02*
X13924381Y-15015005D01*
X13924381Y-15015005D02*
X13933904Y-14995957D01*
X13933904Y-14995957D02*
X13952952Y-14986433D01*
X13952952Y-14986433D02*
X13991047Y-14986433D01*
X13991047Y-14986433D02*
X14010095Y-14995957D01*
X14010095Y-14995957D02*
X14019619Y-15015005D01*
X14019619Y-15015005D02*
X14019619Y-15034052D01*
X14019619Y-15034052D02*
X13924381Y-15053100D01*
X14191047Y-15119767D02*
X14191047Y-14919767D01*
X14191047Y-15110243D02*
X14172000Y-15119767D01*
X14172000Y-15119767D02*
X14133904Y-15119767D01*
X14133904Y-15119767D02*
X14114857Y-15110243D01*
X14114857Y-15110243D02*
X14105333Y-15100719D01*
X14105333Y-15100719D02*
X14095809Y-15081671D01*
X14095809Y-15081671D02*
X14095809Y-15024529D01*
X14095809Y-15024529D02*
X14105333Y-15005481D01*
X14105333Y-15005481D02*
X14114857Y-14995957D01*
X14114857Y-14995957D02*
X14133904Y-14986433D01*
X14133904Y-14986433D02*
X14172000Y-14986433D01*
X14172000Y-14986433D02*
X14191047Y-14995957D01*
X14267238Y-15195957D02*
X14276762Y-15186433D01*
X14276762Y-15186433D02*
X14295809Y-15157862D01*
X14295809Y-15157862D02*
X14305333Y-15138814D01*
X14305333Y-15138814D02*
X14314857Y-15110243D01*
X14314857Y-15110243D02*
X14324381Y-15062624D01*
X14324381Y-15062624D02*
X14324381Y-15024529D01*
X14324381Y-15024529D02*
X14314857Y-14976910D01*
X14314857Y-14976910D02*
X14305333Y-14948338D01*
X14305333Y-14948338D02*
X14295809Y-14929291D01*
X14295809Y-14929291D02*
X14276762Y-14900719D01*
X14276762Y-14900719D02*
X14267238Y-14891195D01*
X7411222Y-15448283D02*
X7511222Y-15348283D01*
X7411222Y-15248283D01*
X7311222Y-15348283D01*
X7411222Y-15448283D01*
X7752952Y-15239767D02*
X7876761Y-15239767D01*
X7876761Y-15239767D02*
X7810094Y-15315957D01*
X7810094Y-15315957D02*
X7838666Y-15315957D01*
X7838666Y-15315957D02*
X7857713Y-15325481D01*
X7857713Y-15325481D02*
X7867237Y-15335005D01*
X7867237Y-15335005D02*
X7876761Y-15354052D01*
X7876761Y-15354052D02*
X7876761Y-15401671D01*
X7876761Y-15401671D02*
X7867237Y-15420719D01*
X7867237Y-15420719D02*
X7857713Y-15430243D01*
X7857713Y-15430243D02*
X7838666Y-15439767D01*
X7838666Y-15439767D02*
X7781523Y-15439767D01*
X7781523Y-15439767D02*
X7762475Y-15430243D01*
X7762475Y-15430243D02*
X7752952Y-15420719D01*
X7962475Y-15420719D02*
X7971999Y-15430243D01*
X7971999Y-15430243D02*
X7962475Y-15439767D01*
X7962475Y-15439767D02*
X7952952Y-15430243D01*
X7952952Y-15430243D02*
X7962475Y-15420719D01*
X7962475Y-15420719D02*
X7962475Y-15439767D01*
X8095809Y-15239767D02*
X8114856Y-15239767D01*
X8114856Y-15239767D02*
X8133904Y-15249291D01*
X8133904Y-15249291D02*
X8143428Y-15258814D01*
X8143428Y-15258814D02*
X8152952Y-15277862D01*
X8152952Y-15277862D02*
X8162475Y-15315957D01*
X8162475Y-15315957D02*
X8162475Y-15363576D01*
X8162475Y-15363576D02*
X8152952Y-15401671D01*
X8152952Y-15401671D02*
X8143428Y-15420719D01*
X8143428Y-15420719D02*
X8133904Y-15430243D01*
X8133904Y-15430243D02*
X8114856Y-15439767D01*
X8114856Y-15439767D02*
X8095809Y-15439767D01*
X8095809Y-15439767D02*
X8076761Y-15430243D01*
X8076761Y-15430243D02*
X8067237Y-15420719D01*
X8067237Y-15420719D02*
X8057713Y-15401671D01*
X8057713Y-15401671D02*
X8048190Y-15363576D01*
X8048190Y-15363576D02*
X8048190Y-15315957D01*
X8048190Y-15315957D02*
X8057713Y-15277862D01*
X8057713Y-15277862D02*
X8067237Y-15258814D01*
X8067237Y-15258814D02*
X8076761Y-15249291D01*
X8076761Y-15249291D02*
X8095809Y-15239767D01*
X8286285Y-15239767D02*
X8305333Y-15239767D01*
X8305333Y-15239767D02*
X8324380Y-15249291D01*
X8324380Y-15249291D02*
X8333904Y-15258814D01*
X8333904Y-15258814D02*
X8343428Y-15277862D01*
X8343428Y-15277862D02*
X8352952Y-15315957D01*
X8352952Y-15315957D02*
X8352952Y-15363576D01*
X8352952Y-15363576D02*
X8343428Y-15401671D01*
X8343428Y-15401671D02*
X8333904Y-15420719D01*
X8333904Y-15420719D02*
X8324380Y-15430243D01*
X8324380Y-15430243D02*
X8305333Y-15439767D01*
X8305333Y-15439767D02*
X8286285Y-15439767D01*
X8286285Y-15439767D02*
X8267237Y-15430243D01*
X8267237Y-15430243D02*
X8257713Y-15420719D01*
X8257713Y-15420719D02*
X8248190Y-15401671D01*
X8248190Y-15401671D02*
X8238666Y-15363576D01*
X8238666Y-15363576D02*
X8238666Y-15315957D01*
X8238666Y-15315957D02*
X8248190Y-15277862D01*
X8248190Y-15277862D02*
X8257713Y-15258814D01*
X8257713Y-15258814D02*
X8267237Y-15249291D01*
X8267237Y-15249291D02*
X8286285Y-15239767D01*
X8476761Y-15239767D02*
X8495809Y-15239767D01*
X8495809Y-15239767D02*
X8514856Y-15249291D01*
X8514856Y-15249291D02*
X8524380Y-15258814D01*
X8524380Y-15258814D02*
X8533904Y-15277862D01*
X8533904Y-15277862D02*
X8543428Y-15315957D01*
X8543428Y-15315957D02*
X8543428Y-15363576D01*
X8543428Y-15363576D02*
X8533904Y-15401671D01*
X8533904Y-15401671D02*
X8524380Y-15420719D01*
X8524380Y-15420719D02*
X8514856Y-15430243D01*
X8514856Y-15430243D02*
X8495809Y-15439767D01*
X8495809Y-15439767D02*
X8476761Y-15439767D01*
X8476761Y-15439767D02*
X8457714Y-15430243D01*
X8457714Y-15430243D02*
X8448190Y-15420719D01*
X8448190Y-15420719D02*
X8438666Y-15401671D01*
X8438666Y-15401671D02*
X8429142Y-15363576D01*
X8429142Y-15363576D02*
X8429142Y-15315957D01*
X8429142Y-15315957D02*
X8438666Y-15277862D01*
X8438666Y-15277862D02*
X8448190Y-15258814D01*
X8448190Y-15258814D02*
X8457714Y-15249291D01*
X8457714Y-15249291D02*
X8476761Y-15239767D01*
X8629142Y-15439767D02*
X8629142Y-15306433D01*
X8629142Y-15325481D02*
X8638666Y-15315957D01*
X8638666Y-15315957D02*
X8657714Y-15306433D01*
X8657714Y-15306433D02*
X8686285Y-15306433D01*
X8686285Y-15306433D02*
X8705333Y-15315957D01*
X8705333Y-15315957D02*
X8714856Y-15335005D01*
X8714856Y-15335005D02*
X8714856Y-15439767D01*
X8714856Y-15335005D02*
X8724380Y-15315957D01*
X8724380Y-15315957D02*
X8743428Y-15306433D01*
X8743428Y-15306433D02*
X8771999Y-15306433D01*
X8771999Y-15306433D02*
X8791047Y-15315957D01*
X8791047Y-15315957D02*
X8800571Y-15335005D01*
X8800571Y-15335005D02*
X8800571Y-15439767D01*
X8895809Y-15439767D02*
X8895809Y-15306433D01*
X8895809Y-15325481D02*
X8905333Y-15315957D01*
X8905333Y-15315957D02*
X8924380Y-15306433D01*
X8924380Y-15306433D02*
X8952952Y-15306433D01*
X8952952Y-15306433D02*
X8971999Y-15315957D01*
X8971999Y-15315957D02*
X8981523Y-15335005D01*
X8981523Y-15335005D02*
X8981523Y-15439767D01*
X8981523Y-15335005D02*
X8991047Y-15315957D01*
X8991047Y-15315957D02*
X9010095Y-15306433D01*
X9010095Y-15306433D02*
X9038666Y-15306433D01*
X9038666Y-15306433D02*
X9057714Y-15315957D01*
X9057714Y-15315957D02*
X9067237Y-15335005D01*
X9067237Y-15335005D02*
X9067237Y-15439767D01*
X9457714Y-15230243D02*
X9286285Y-15487386D01*
X9714857Y-15239767D02*
X9733904Y-15239767D01*
X9733904Y-15239767D02*
X9752952Y-15249291D01*
X9752952Y-15249291D02*
X9762476Y-15258814D01*
X9762476Y-15258814D02*
X9771999Y-15277862D01*
X9771999Y-15277862D02*
X9781523Y-15315957D01*
X9781523Y-15315957D02*
X9781523Y-15363576D01*
X9781523Y-15363576D02*
X9771999Y-15401671D01*
X9771999Y-15401671D02*
X9762476Y-15420719D01*
X9762476Y-15420719D02*
X9752952Y-15430243D01*
X9752952Y-15430243D02*
X9733904Y-15439767D01*
X9733904Y-15439767D02*
X9714857Y-15439767D01*
X9714857Y-15439767D02*
X9695809Y-15430243D01*
X9695809Y-15430243D02*
X9686285Y-15420719D01*
X9686285Y-15420719D02*
X9676761Y-15401671D01*
X9676761Y-15401671D02*
X9667238Y-15363576D01*
X9667238Y-15363576D02*
X9667238Y-15315957D01*
X9667238Y-15315957D02*
X9676761Y-15277862D01*
X9676761Y-15277862D02*
X9686285Y-15258814D01*
X9686285Y-15258814D02*
X9695809Y-15249291D01*
X9695809Y-15249291D02*
X9714857Y-15239767D01*
X9867238Y-15420719D02*
X9876761Y-15430243D01*
X9876761Y-15430243D02*
X9867238Y-15439767D01*
X9867238Y-15439767D02*
X9857714Y-15430243D01*
X9857714Y-15430243D02*
X9867238Y-15420719D01*
X9867238Y-15420719D02*
X9867238Y-15439767D01*
X10067238Y-15439767D02*
X9952952Y-15439767D01*
X10010095Y-15439767D02*
X10010095Y-15239767D01*
X10010095Y-15239767D02*
X9991047Y-15268338D01*
X9991047Y-15268338D02*
X9971999Y-15287386D01*
X9971999Y-15287386D02*
X9952952Y-15296910D01*
X10257714Y-15439767D02*
X10143428Y-15439767D01*
X10200571Y-15439767D02*
X10200571Y-15239767D01*
X10200571Y-15239767D02*
X10181523Y-15268338D01*
X10181523Y-15268338D02*
X10162476Y-15287386D01*
X10162476Y-15287386D02*
X10143428Y-15296910D01*
X10371999Y-15325481D02*
X10352952Y-15315957D01*
X10352952Y-15315957D02*
X10343428Y-15306433D01*
X10343428Y-15306433D02*
X10333904Y-15287386D01*
X10333904Y-15287386D02*
X10333904Y-15277862D01*
X10333904Y-15277862D02*
X10343428Y-15258814D01*
X10343428Y-15258814D02*
X10352952Y-15249291D01*
X10352952Y-15249291D02*
X10371999Y-15239767D01*
X10371999Y-15239767D02*
X10410095Y-15239767D01*
X10410095Y-15239767D02*
X10429142Y-15249291D01*
X10429142Y-15249291D02*
X10438666Y-15258814D01*
X10438666Y-15258814D02*
X10448190Y-15277862D01*
X10448190Y-15277862D02*
X10448190Y-15287386D01*
X10448190Y-15287386D02*
X10438666Y-15306433D01*
X10438666Y-15306433D02*
X10429142Y-15315957D01*
X10429142Y-15315957D02*
X10410095Y-15325481D01*
X10410095Y-15325481D02*
X10371999Y-15325481D01*
X10371999Y-15325481D02*
X10352952Y-15335005D01*
X10352952Y-15335005D02*
X10343428Y-15344529D01*
X10343428Y-15344529D02*
X10333904Y-15363576D01*
X10333904Y-15363576D02*
X10333904Y-15401671D01*
X10333904Y-15401671D02*
X10343428Y-15420719D01*
X10343428Y-15420719D02*
X10352952Y-15430243D01*
X10352952Y-15430243D02*
X10371999Y-15439767D01*
X10371999Y-15439767D02*
X10410095Y-15439767D01*
X10410095Y-15439767D02*
X10429142Y-15430243D01*
X10429142Y-15430243D02*
X10438666Y-15420719D01*
X10438666Y-15420719D02*
X10448190Y-15401671D01*
X10448190Y-15401671D02*
X10448190Y-15363576D01*
X10448190Y-15363576D02*
X10438666Y-15344529D01*
X10438666Y-15344529D02*
X10429142Y-15335005D01*
X10429142Y-15335005D02*
X10410095Y-15325481D01*
X10638666Y-15439767D02*
X10524380Y-15439767D01*
X10581523Y-15439767D02*
X10581523Y-15239767D01*
X10581523Y-15239767D02*
X10562476Y-15268338D01*
X10562476Y-15268338D02*
X10543428Y-15287386D01*
X10543428Y-15287386D02*
X10524380Y-15296910D01*
X10714857Y-15239767D02*
X10714857Y-15277862D01*
X10791047Y-15239767D02*
X10791047Y-15277862D01*
X11086285Y-15515957D02*
X11076761Y-15506433D01*
X11076761Y-15506433D02*
X11057714Y-15477862D01*
X11057714Y-15477862D02*
X11048190Y-15458814D01*
X11048190Y-15458814D02*
X11038666Y-15430243D01*
X11038666Y-15430243D02*
X11029142Y-15382624D01*
X11029142Y-15382624D02*
X11029142Y-15344529D01*
X11029142Y-15344529D02*
X11038666Y-15296910D01*
X11038666Y-15296910D02*
X11048190Y-15268338D01*
X11048190Y-15268338D02*
X11057714Y-15249291D01*
X11057714Y-15249291D02*
X11076761Y-15220719D01*
X11076761Y-15220719D02*
X11086285Y-15211195D01*
X11257714Y-15239767D02*
X11162476Y-15239767D01*
X11162476Y-15239767D02*
X11152952Y-15335005D01*
X11152952Y-15335005D02*
X11162476Y-15325481D01*
X11162476Y-15325481D02*
X11181523Y-15315957D01*
X11181523Y-15315957D02*
X11229142Y-15315957D01*
X11229142Y-15315957D02*
X11248190Y-15325481D01*
X11248190Y-15325481D02*
X11257714Y-15335005D01*
X11257714Y-15335005D02*
X11267238Y-15354052D01*
X11267238Y-15354052D02*
X11267238Y-15401671D01*
X11267238Y-15401671D02*
X11257714Y-15420719D01*
X11257714Y-15420719D02*
X11248190Y-15430243D01*
X11248190Y-15430243D02*
X11229142Y-15439767D01*
X11229142Y-15439767D02*
X11181523Y-15439767D01*
X11181523Y-15439767D02*
X11162476Y-15430243D01*
X11162476Y-15430243D02*
X11152952Y-15420719D01*
X11438666Y-15306433D02*
X11438666Y-15439767D01*
X11391047Y-15230243D02*
X11343428Y-15373100D01*
X11343428Y-15373100D02*
X11467238Y-15373100D01*
X11695809Y-15439767D02*
X11695809Y-15239767D01*
X11781523Y-15439767D02*
X11781523Y-15335005D01*
X11781523Y-15335005D02*
X11772000Y-15315957D01*
X11772000Y-15315957D02*
X11752952Y-15306433D01*
X11752952Y-15306433D02*
X11724380Y-15306433D01*
X11724380Y-15306433D02*
X11705333Y-15315957D01*
X11705333Y-15315957D02*
X11695809Y-15325481D01*
X11905333Y-15439767D02*
X11886285Y-15430243D01*
X11886285Y-15430243D02*
X11876761Y-15420719D01*
X11876761Y-15420719D02*
X11867238Y-15401671D01*
X11867238Y-15401671D02*
X11867238Y-15344529D01*
X11867238Y-15344529D02*
X11876761Y-15325481D01*
X11876761Y-15325481D02*
X11886285Y-15315957D01*
X11886285Y-15315957D02*
X11905333Y-15306433D01*
X11905333Y-15306433D02*
X11933904Y-15306433D01*
X11933904Y-15306433D02*
X11952952Y-15315957D01*
X11952952Y-15315957D02*
X11962476Y-15325481D01*
X11962476Y-15325481D02*
X11972000Y-15344529D01*
X11972000Y-15344529D02*
X11972000Y-15401671D01*
X11972000Y-15401671D02*
X11962476Y-15420719D01*
X11962476Y-15420719D02*
X11952952Y-15430243D01*
X11952952Y-15430243D02*
X11933904Y-15439767D01*
X11933904Y-15439767D02*
X11905333Y-15439767D01*
X12086285Y-15439767D02*
X12067238Y-15430243D01*
X12067238Y-15430243D02*
X12057714Y-15411195D01*
X12057714Y-15411195D02*
X12057714Y-15239767D01*
X12238666Y-15430243D02*
X12219619Y-15439767D01*
X12219619Y-15439767D02*
X12181523Y-15439767D01*
X12181523Y-15439767D02*
X12162476Y-15430243D01*
X12162476Y-15430243D02*
X12152952Y-15411195D01*
X12152952Y-15411195D02*
X12152952Y-15335005D01*
X12152952Y-15335005D02*
X12162476Y-15315957D01*
X12162476Y-15315957D02*
X12181523Y-15306433D01*
X12181523Y-15306433D02*
X12219619Y-15306433D01*
X12219619Y-15306433D02*
X12238666Y-15315957D01*
X12238666Y-15315957D02*
X12248190Y-15335005D01*
X12248190Y-15335005D02*
X12248190Y-15354052D01*
X12248190Y-15354052D02*
X12152952Y-15373100D01*
X12324381Y-15430243D02*
X12343428Y-15439767D01*
X12343428Y-15439767D02*
X12381523Y-15439767D01*
X12381523Y-15439767D02*
X12400571Y-15430243D01*
X12400571Y-15430243D02*
X12410095Y-15411195D01*
X12410095Y-15411195D02*
X12410095Y-15401671D01*
X12410095Y-15401671D02*
X12400571Y-15382624D01*
X12400571Y-15382624D02*
X12381523Y-15373100D01*
X12381523Y-15373100D02*
X12352952Y-15373100D01*
X12352952Y-15373100D02*
X12333904Y-15363576D01*
X12333904Y-15363576D02*
X12324381Y-15344529D01*
X12324381Y-15344529D02*
X12324381Y-15335005D01*
X12324381Y-15335005D02*
X12333904Y-15315957D01*
X12333904Y-15315957D02*
X12352952Y-15306433D01*
X12352952Y-15306433D02*
X12381523Y-15306433D01*
X12381523Y-15306433D02*
X12400571Y-15315957D01*
X12476762Y-15515957D02*
X12486285Y-15506433D01*
X12486285Y-15506433D02*
X12505333Y-15477862D01*
X12505333Y-15477862D02*
X12514857Y-15458814D01*
X12514857Y-15458814D02*
X12524381Y-15430243D01*
X12524381Y-15430243D02*
X12533904Y-15382624D01*
X12533904Y-15382624D02*
X12533904Y-15344529D01*
X12533904Y-15344529D02*
X12524381Y-15296910D01*
X12524381Y-15296910D02*
X12514857Y-15268338D01*
X12514857Y-15268338D02*
X12505333Y-15249291D01*
X12505333Y-15249291D02*
X12486285Y-15220719D01*
X12486285Y-15220719D02*
X12476762Y-15211195D01*
X12838666Y-15515957D02*
X12829142Y-15506433D01*
X12829142Y-15506433D02*
X12810095Y-15477862D01*
X12810095Y-15477862D02*
X12800571Y-15458814D01*
X12800571Y-15458814D02*
X12791047Y-15430243D01*
X12791047Y-15430243D02*
X12781523Y-15382624D01*
X12781523Y-15382624D02*
X12781523Y-15344529D01*
X12781523Y-15344529D02*
X12791047Y-15296910D01*
X12791047Y-15296910D02*
X12800571Y-15268338D01*
X12800571Y-15268338D02*
X12810095Y-15249291D01*
X12810095Y-15249291D02*
X12829142Y-15220719D01*
X12829142Y-15220719D02*
X12838666Y-15211195D01*
X12914857Y-15306433D02*
X12914857Y-15439767D01*
X12914857Y-15325481D02*
X12924381Y-15315957D01*
X12924381Y-15315957D02*
X12943428Y-15306433D01*
X12943428Y-15306433D02*
X12972000Y-15306433D01*
X12972000Y-15306433D02*
X12991047Y-15315957D01*
X12991047Y-15315957D02*
X13000571Y-15335005D01*
X13000571Y-15335005D02*
X13000571Y-15439767D01*
X13124381Y-15439767D02*
X13105333Y-15430243D01*
X13105333Y-15430243D02*
X13095809Y-15420719D01*
X13095809Y-15420719D02*
X13086285Y-15401671D01*
X13086285Y-15401671D02*
X13086285Y-15344529D01*
X13086285Y-15344529D02*
X13095809Y-15325481D01*
X13095809Y-15325481D02*
X13105333Y-15315957D01*
X13105333Y-15315957D02*
X13124381Y-15306433D01*
X13124381Y-15306433D02*
X13152952Y-15306433D01*
X13152952Y-15306433D02*
X13172000Y-15315957D01*
X13172000Y-15315957D02*
X13181523Y-15325481D01*
X13181523Y-15325481D02*
X13191047Y-15344529D01*
X13191047Y-15344529D02*
X13191047Y-15401671D01*
X13191047Y-15401671D02*
X13181523Y-15420719D01*
X13181523Y-15420719D02*
X13172000Y-15430243D01*
X13172000Y-15430243D02*
X13152952Y-15439767D01*
X13152952Y-15439767D02*
X13124381Y-15439767D01*
X13248190Y-15306433D02*
X13324381Y-15306433D01*
X13276762Y-15239767D02*
X13276762Y-15411195D01*
X13276762Y-15411195D02*
X13286285Y-15430243D01*
X13286285Y-15430243D02*
X13305333Y-15439767D01*
X13305333Y-15439767D02*
X13324381Y-15439767D01*
X13543428Y-15306433D02*
X13543428Y-15506433D01*
X13543428Y-15315957D02*
X13562476Y-15306433D01*
X13562476Y-15306433D02*
X13600571Y-15306433D01*
X13600571Y-15306433D02*
X13619619Y-15315957D01*
X13619619Y-15315957D02*
X13629143Y-15325481D01*
X13629143Y-15325481D02*
X13638666Y-15344529D01*
X13638666Y-15344529D02*
X13638666Y-15401671D01*
X13638666Y-15401671D02*
X13629143Y-15420719D01*
X13629143Y-15420719D02*
X13619619Y-15430243D01*
X13619619Y-15430243D02*
X13600571Y-15439767D01*
X13600571Y-15439767D02*
X13562476Y-15439767D01*
X13562476Y-15439767D02*
X13543428Y-15430243D01*
X13752952Y-15439767D02*
X13733904Y-15430243D01*
X13733904Y-15430243D02*
X13724381Y-15411195D01*
X13724381Y-15411195D02*
X13724381Y-15239767D01*
X13914857Y-15439767D02*
X13914857Y-15335005D01*
X13914857Y-15335005D02*
X13905333Y-15315957D01*
X13905333Y-15315957D02*
X13886285Y-15306433D01*
X13886285Y-15306433D02*
X13848190Y-15306433D01*
X13848190Y-15306433D02*
X13829143Y-15315957D01*
X13914857Y-15430243D02*
X13895809Y-15439767D01*
X13895809Y-15439767D02*
X13848190Y-15439767D01*
X13848190Y-15439767D02*
X13829143Y-15430243D01*
X13829143Y-15430243D02*
X13819619Y-15411195D01*
X13819619Y-15411195D02*
X13819619Y-15392148D01*
X13819619Y-15392148D02*
X13829143Y-15373100D01*
X13829143Y-15373100D02*
X13848190Y-15363576D01*
X13848190Y-15363576D02*
X13895809Y-15363576D01*
X13895809Y-15363576D02*
X13914857Y-15354052D01*
X13981524Y-15306433D02*
X14057714Y-15306433D01*
X14010095Y-15239767D02*
X14010095Y-15411195D01*
X14010095Y-15411195D02*
X14019619Y-15430243D01*
X14019619Y-15430243D02*
X14038666Y-15439767D01*
X14038666Y-15439767D02*
X14057714Y-15439767D01*
X14200571Y-15430243D02*
X14181524Y-15439767D01*
X14181524Y-15439767D02*
X14143428Y-15439767D01*
X14143428Y-15439767D02*
X14124381Y-15430243D01*
X14124381Y-15430243D02*
X14114857Y-15411195D01*
X14114857Y-15411195D02*
X14114857Y-15335005D01*
X14114857Y-15335005D02*
X14124381Y-15315957D01*
X14124381Y-15315957D02*
X14143428Y-15306433D01*
X14143428Y-15306433D02*
X14181524Y-15306433D01*
X14181524Y-15306433D02*
X14200571Y-15315957D01*
X14200571Y-15315957D02*
X14210095Y-15335005D01*
X14210095Y-15335005D02*
X14210095Y-15354052D01*
X14210095Y-15354052D02*
X14114857Y-15373100D01*
X14381524Y-15439767D02*
X14381524Y-15239767D01*
X14381524Y-15430243D02*
X14362476Y-15439767D01*
X14362476Y-15439767D02*
X14324381Y-15439767D01*
X14324381Y-15439767D02*
X14305333Y-15430243D01*
X14305333Y-15430243D02*
X14295809Y-15420719D01*
X14295809Y-15420719D02*
X14286285Y-15401671D01*
X14286285Y-15401671D02*
X14286285Y-15344529D01*
X14286285Y-15344529D02*
X14295809Y-15325481D01*
X14295809Y-15325481D02*
X14305333Y-15315957D01*
X14305333Y-15315957D02*
X14324381Y-15306433D01*
X14324381Y-15306433D02*
X14362476Y-15306433D01*
X14362476Y-15306433D02*
X14381524Y-15315957D01*
X14457714Y-15515957D02*
X14467238Y-15506433D01*
X14467238Y-15506433D02*
X14486285Y-15477862D01*
X14486285Y-15477862D02*
X14495809Y-15458814D01*
X14495809Y-15458814D02*
X14505333Y-15430243D01*
X14505333Y-15430243D02*
X14514857Y-15382624D01*
X14514857Y-15382624D02*
X14514857Y-15344529D01*
X14514857Y-15344529D02*
X14505333Y-15296910D01*
X14505333Y-15296910D02*
X14495809Y-15268338D01*
X14495809Y-15268338D02*
X14486285Y-15249291D01*
X14486285Y-15249291D02*
X14467238Y-15220719D01*
X14467238Y-15220719D02*
X14457714Y-15211195D01*
X7311222Y-15568283D02*
X7511222Y-15768283D01*
X7511222Y-15568283D02*
X7311222Y-15768283D01*
X7511222Y-15668283D02*
G75*
G02*
X7311222Y-15668283I-100000J0D01*
G01*
X7311222Y-15668283D02*
G75*
G02*
X7511222Y-15668283I100000J0D01*
G01*
X7752952Y-15559767D02*
X7876761Y-15559767D01*
X7876761Y-15559767D02*
X7810094Y-15635957D01*
X7810094Y-15635957D02*
X7838666Y-15635957D01*
X7838666Y-15635957D02*
X7857713Y-15645481D01*
X7857713Y-15645481D02*
X7867237Y-15655005D01*
X7867237Y-15655005D02*
X7876761Y-15674052D01*
X7876761Y-15674052D02*
X7876761Y-15721671D01*
X7876761Y-15721671D02*
X7867237Y-15740719D01*
X7867237Y-15740719D02*
X7857713Y-15750243D01*
X7857713Y-15750243D02*
X7838666Y-15759767D01*
X7838666Y-15759767D02*
X7781523Y-15759767D01*
X7781523Y-15759767D02*
X7762475Y-15750243D01*
X7762475Y-15750243D02*
X7752952Y-15740719D01*
X7962475Y-15740719D02*
X7971999Y-15750243D01*
X7971999Y-15750243D02*
X7962475Y-15759767D01*
X7962475Y-15759767D02*
X7952952Y-15750243D01*
X7952952Y-15750243D02*
X7962475Y-15740719D01*
X7962475Y-15740719D02*
X7962475Y-15759767D01*
X8143428Y-15626433D02*
X8143428Y-15759767D01*
X8095809Y-15550243D02*
X8048190Y-15693100D01*
X8048190Y-15693100D02*
X8171999Y-15693100D01*
X8238666Y-15578814D02*
X8248190Y-15569291D01*
X8248190Y-15569291D02*
X8267237Y-15559767D01*
X8267237Y-15559767D02*
X8314856Y-15559767D01*
X8314856Y-15559767D02*
X8333904Y-15569291D01*
X8333904Y-15569291D02*
X8343428Y-15578814D01*
X8343428Y-15578814D02*
X8352952Y-15597862D01*
X8352952Y-15597862D02*
X8352952Y-15616910D01*
X8352952Y-15616910D02*
X8343428Y-15645481D01*
X8343428Y-15645481D02*
X8229142Y-15759767D01*
X8229142Y-15759767D02*
X8352952Y-15759767D01*
X8448190Y-15759767D02*
X8486285Y-15759767D01*
X8486285Y-15759767D02*
X8505333Y-15750243D01*
X8505333Y-15750243D02*
X8514856Y-15740719D01*
X8514856Y-15740719D02*
X8533904Y-15712148D01*
X8533904Y-15712148D02*
X8543428Y-15674052D01*
X8543428Y-15674052D02*
X8543428Y-15597862D01*
X8543428Y-15597862D02*
X8533904Y-15578814D01*
X8533904Y-15578814D02*
X8524380Y-15569291D01*
X8524380Y-15569291D02*
X8505333Y-15559767D01*
X8505333Y-15559767D02*
X8467237Y-15559767D01*
X8467237Y-15559767D02*
X8448190Y-15569291D01*
X8448190Y-15569291D02*
X8438666Y-15578814D01*
X8438666Y-15578814D02*
X8429142Y-15597862D01*
X8429142Y-15597862D02*
X8429142Y-15645481D01*
X8429142Y-15645481D02*
X8438666Y-15664529D01*
X8438666Y-15664529D02*
X8448190Y-15674052D01*
X8448190Y-15674052D02*
X8467237Y-15683576D01*
X8467237Y-15683576D02*
X8505333Y-15683576D01*
X8505333Y-15683576D02*
X8524380Y-15674052D01*
X8524380Y-15674052D02*
X8533904Y-15664529D01*
X8533904Y-15664529D02*
X8543428Y-15645481D01*
X8629142Y-15759767D02*
X8629142Y-15626433D01*
X8629142Y-15645481D02*
X8638666Y-15635957D01*
X8638666Y-15635957D02*
X8657714Y-15626433D01*
X8657714Y-15626433D02*
X8686285Y-15626433D01*
X8686285Y-15626433D02*
X8705333Y-15635957D01*
X8705333Y-15635957D02*
X8714856Y-15655005D01*
X8714856Y-15655005D02*
X8714856Y-15759767D01*
X8714856Y-15655005D02*
X8724380Y-15635957D01*
X8724380Y-15635957D02*
X8743428Y-15626433D01*
X8743428Y-15626433D02*
X8771999Y-15626433D01*
X8771999Y-15626433D02*
X8791047Y-15635957D01*
X8791047Y-15635957D02*
X8800571Y-15655005D01*
X8800571Y-15655005D02*
X8800571Y-15759767D01*
X8895809Y-15759767D02*
X8895809Y-15626433D01*
X8895809Y-15645481D02*
X8905333Y-15635957D01*
X8905333Y-15635957D02*
X8924380Y-15626433D01*
X8924380Y-15626433D02*
X8952952Y-15626433D01*
X8952952Y-15626433D02*
X8971999Y-15635957D01*
X8971999Y-15635957D02*
X8981523Y-15655005D01*
X8981523Y-15655005D02*
X8981523Y-15759767D01*
X8981523Y-15655005D02*
X8991047Y-15635957D01*
X8991047Y-15635957D02*
X9010095Y-15626433D01*
X9010095Y-15626433D02*
X9038666Y-15626433D01*
X9038666Y-15626433D02*
X9057714Y-15635957D01*
X9057714Y-15635957D02*
X9067237Y-15655005D01*
X9067237Y-15655005D02*
X9067237Y-15759767D01*
X9457714Y-15550243D02*
X9286285Y-15807386D01*
X9714857Y-15559767D02*
X9733904Y-15559767D01*
X9733904Y-15559767D02*
X9752952Y-15569291D01*
X9752952Y-15569291D02*
X9762476Y-15578814D01*
X9762476Y-15578814D02*
X9771999Y-15597862D01*
X9771999Y-15597862D02*
X9781523Y-15635957D01*
X9781523Y-15635957D02*
X9781523Y-15683576D01*
X9781523Y-15683576D02*
X9771999Y-15721671D01*
X9771999Y-15721671D02*
X9762476Y-15740719D01*
X9762476Y-15740719D02*
X9752952Y-15750243D01*
X9752952Y-15750243D02*
X9733904Y-15759767D01*
X9733904Y-15759767D02*
X9714857Y-15759767D01*
X9714857Y-15759767D02*
X9695809Y-15750243D01*
X9695809Y-15750243D02*
X9686285Y-15740719D01*
X9686285Y-15740719D02*
X9676761Y-15721671D01*
X9676761Y-15721671D02*
X9667238Y-15683576D01*
X9667238Y-15683576D02*
X9667238Y-15635957D01*
X9667238Y-15635957D02*
X9676761Y-15597862D01*
X9676761Y-15597862D02*
X9686285Y-15578814D01*
X9686285Y-15578814D02*
X9695809Y-15569291D01*
X9695809Y-15569291D02*
X9714857Y-15559767D01*
X9867238Y-15740719D02*
X9876761Y-15750243D01*
X9876761Y-15750243D02*
X9867238Y-15759767D01*
X9867238Y-15759767D02*
X9857714Y-15750243D01*
X9857714Y-15750243D02*
X9867238Y-15740719D01*
X9867238Y-15740719D02*
X9867238Y-15759767D01*
X10067238Y-15759767D02*
X9952952Y-15759767D01*
X10010095Y-15759767D02*
X10010095Y-15559767D01*
X10010095Y-15559767D02*
X9991047Y-15588338D01*
X9991047Y-15588338D02*
X9971999Y-15607386D01*
X9971999Y-15607386D02*
X9952952Y-15616910D01*
X10133904Y-15559767D02*
X10257714Y-15559767D01*
X10257714Y-15559767D02*
X10191047Y-15635957D01*
X10191047Y-15635957D02*
X10219619Y-15635957D01*
X10219619Y-15635957D02*
X10238666Y-15645481D01*
X10238666Y-15645481D02*
X10248190Y-15655005D01*
X10248190Y-15655005D02*
X10257714Y-15674052D01*
X10257714Y-15674052D02*
X10257714Y-15721671D01*
X10257714Y-15721671D02*
X10248190Y-15740719D01*
X10248190Y-15740719D02*
X10238666Y-15750243D01*
X10238666Y-15750243D02*
X10219619Y-15759767D01*
X10219619Y-15759767D02*
X10162476Y-15759767D01*
X10162476Y-15759767D02*
X10143428Y-15750243D01*
X10143428Y-15750243D02*
X10133904Y-15740719D01*
X10438666Y-15559767D02*
X10343428Y-15559767D01*
X10343428Y-15559767D02*
X10333904Y-15655005D01*
X10333904Y-15655005D02*
X10343428Y-15645481D01*
X10343428Y-15645481D02*
X10362476Y-15635957D01*
X10362476Y-15635957D02*
X10410095Y-15635957D01*
X10410095Y-15635957D02*
X10429142Y-15645481D01*
X10429142Y-15645481D02*
X10438666Y-15655005D01*
X10438666Y-15655005D02*
X10448190Y-15674052D01*
X10448190Y-15674052D02*
X10448190Y-15721671D01*
X10448190Y-15721671D02*
X10438666Y-15740719D01*
X10438666Y-15740719D02*
X10429142Y-15750243D01*
X10429142Y-15750243D02*
X10410095Y-15759767D01*
X10410095Y-15759767D02*
X10362476Y-15759767D01*
X10362476Y-15759767D02*
X10343428Y-15750243D01*
X10343428Y-15750243D02*
X10333904Y-15740719D01*
X10571999Y-15559767D02*
X10591047Y-15559767D01*
X10591047Y-15559767D02*
X10610095Y-15569291D01*
X10610095Y-15569291D02*
X10619619Y-15578814D01*
X10619619Y-15578814D02*
X10629142Y-15597862D01*
X10629142Y-15597862D02*
X10638666Y-15635957D01*
X10638666Y-15635957D02*
X10638666Y-15683576D01*
X10638666Y-15683576D02*
X10629142Y-15721671D01*
X10629142Y-15721671D02*
X10619619Y-15740719D01*
X10619619Y-15740719D02*
X10610095Y-15750243D01*
X10610095Y-15750243D02*
X10591047Y-15759767D01*
X10591047Y-15759767D02*
X10571999Y-15759767D01*
X10571999Y-15759767D02*
X10552952Y-15750243D01*
X10552952Y-15750243D02*
X10543428Y-15740719D01*
X10543428Y-15740719D02*
X10533904Y-15721671D01*
X10533904Y-15721671D02*
X10524380Y-15683576D01*
X10524380Y-15683576D02*
X10524380Y-15635957D01*
X10524380Y-15635957D02*
X10533904Y-15597862D01*
X10533904Y-15597862D02*
X10543428Y-15578814D01*
X10543428Y-15578814D02*
X10552952Y-15569291D01*
X10552952Y-15569291D02*
X10571999Y-15559767D01*
X10714857Y-15559767D02*
X10714857Y-15597862D01*
X10791047Y-15559767D02*
X10791047Y-15597862D01*
X11086285Y-15835957D02*
X11076761Y-15826433D01*
X11076761Y-15826433D02*
X11057714Y-15797862D01*
X11057714Y-15797862D02*
X11048190Y-15778814D01*
X11048190Y-15778814D02*
X11038666Y-15750243D01*
X11038666Y-15750243D02*
X11029142Y-15702624D01*
X11029142Y-15702624D02*
X11029142Y-15664529D01*
X11029142Y-15664529D02*
X11038666Y-15616910D01*
X11038666Y-15616910D02*
X11048190Y-15588338D01*
X11048190Y-15588338D02*
X11057714Y-15569291D01*
X11057714Y-15569291D02*
X11076761Y-15540719D01*
X11076761Y-15540719D02*
X11086285Y-15531195D01*
X11267238Y-15759767D02*
X11152952Y-15759767D01*
X11210095Y-15759767D02*
X11210095Y-15559767D01*
X11210095Y-15559767D02*
X11191047Y-15588338D01*
X11191047Y-15588338D02*
X11172000Y-15607386D01*
X11172000Y-15607386D02*
X11152952Y-15616910D01*
X11381523Y-15645481D02*
X11362476Y-15635957D01*
X11362476Y-15635957D02*
X11352952Y-15626433D01*
X11352952Y-15626433D02*
X11343428Y-15607386D01*
X11343428Y-15607386D02*
X11343428Y-15597862D01*
X11343428Y-15597862D02*
X11352952Y-15578814D01*
X11352952Y-15578814D02*
X11362476Y-15569291D01*
X11362476Y-15569291D02*
X11381523Y-15559767D01*
X11381523Y-15559767D02*
X11419619Y-15559767D01*
X11419619Y-15559767D02*
X11438666Y-15569291D01*
X11438666Y-15569291D02*
X11448190Y-15578814D01*
X11448190Y-15578814D02*
X11457714Y-15597862D01*
X11457714Y-15597862D02*
X11457714Y-15607386D01*
X11457714Y-15607386D02*
X11448190Y-15626433D01*
X11448190Y-15626433D02*
X11438666Y-15635957D01*
X11438666Y-15635957D02*
X11419619Y-15645481D01*
X11419619Y-15645481D02*
X11381523Y-15645481D01*
X11381523Y-15645481D02*
X11362476Y-15655005D01*
X11362476Y-15655005D02*
X11352952Y-15664529D01*
X11352952Y-15664529D02*
X11343428Y-15683576D01*
X11343428Y-15683576D02*
X11343428Y-15721671D01*
X11343428Y-15721671D02*
X11352952Y-15740719D01*
X11352952Y-15740719D02*
X11362476Y-15750243D01*
X11362476Y-15750243D02*
X11381523Y-15759767D01*
X11381523Y-15759767D02*
X11419619Y-15759767D01*
X11419619Y-15759767D02*
X11438666Y-15750243D01*
X11438666Y-15750243D02*
X11448190Y-15740719D01*
X11448190Y-15740719D02*
X11457714Y-15721671D01*
X11457714Y-15721671D02*
X11457714Y-15683576D01*
X11457714Y-15683576D02*
X11448190Y-15664529D01*
X11448190Y-15664529D02*
X11438666Y-15655005D01*
X11438666Y-15655005D02*
X11419619Y-15645481D01*
X11695809Y-15759767D02*
X11695809Y-15559767D01*
X11781523Y-15759767D02*
X11781523Y-15655005D01*
X11781523Y-15655005D02*
X11772000Y-15635957D01*
X11772000Y-15635957D02*
X11752952Y-15626433D01*
X11752952Y-15626433D02*
X11724380Y-15626433D01*
X11724380Y-15626433D02*
X11705333Y-15635957D01*
X11705333Y-15635957D02*
X11695809Y-15645481D01*
X11905333Y-15759767D02*
X11886285Y-15750243D01*
X11886285Y-15750243D02*
X11876761Y-15740719D01*
X11876761Y-15740719D02*
X11867238Y-15721671D01*
X11867238Y-15721671D02*
X11867238Y-15664529D01*
X11867238Y-15664529D02*
X11876761Y-15645481D01*
X11876761Y-15645481D02*
X11886285Y-15635957D01*
X11886285Y-15635957D02*
X11905333Y-15626433D01*
X11905333Y-15626433D02*
X11933904Y-15626433D01*
X11933904Y-15626433D02*
X11952952Y-15635957D01*
X11952952Y-15635957D02*
X11962476Y-15645481D01*
X11962476Y-15645481D02*
X11972000Y-15664529D01*
X11972000Y-15664529D02*
X11972000Y-15721671D01*
X11972000Y-15721671D02*
X11962476Y-15740719D01*
X11962476Y-15740719D02*
X11952952Y-15750243D01*
X11952952Y-15750243D02*
X11933904Y-15759767D01*
X11933904Y-15759767D02*
X11905333Y-15759767D01*
X12086285Y-15759767D02*
X12067238Y-15750243D01*
X12067238Y-15750243D02*
X12057714Y-15731195D01*
X12057714Y-15731195D02*
X12057714Y-15559767D01*
X12238666Y-15750243D02*
X12219619Y-15759767D01*
X12219619Y-15759767D02*
X12181523Y-15759767D01*
X12181523Y-15759767D02*
X12162476Y-15750243D01*
X12162476Y-15750243D02*
X12152952Y-15731195D01*
X12152952Y-15731195D02*
X12152952Y-15655005D01*
X12152952Y-15655005D02*
X12162476Y-15635957D01*
X12162476Y-15635957D02*
X12181523Y-15626433D01*
X12181523Y-15626433D02*
X12219619Y-15626433D01*
X12219619Y-15626433D02*
X12238666Y-15635957D01*
X12238666Y-15635957D02*
X12248190Y-15655005D01*
X12248190Y-15655005D02*
X12248190Y-15674052D01*
X12248190Y-15674052D02*
X12152952Y-15693100D01*
X12324381Y-15750243D02*
X12343428Y-15759767D01*
X12343428Y-15759767D02*
X12381523Y-15759767D01*
X12381523Y-15759767D02*
X12400571Y-15750243D01*
X12400571Y-15750243D02*
X12410095Y-15731195D01*
X12410095Y-15731195D02*
X12410095Y-15721671D01*
X12410095Y-15721671D02*
X12400571Y-15702624D01*
X12400571Y-15702624D02*
X12381523Y-15693100D01*
X12381523Y-15693100D02*
X12352952Y-15693100D01*
X12352952Y-15693100D02*
X12333904Y-15683576D01*
X12333904Y-15683576D02*
X12324381Y-15664529D01*
X12324381Y-15664529D02*
X12324381Y-15655005D01*
X12324381Y-15655005D02*
X12333904Y-15635957D01*
X12333904Y-15635957D02*
X12352952Y-15626433D01*
X12352952Y-15626433D02*
X12381523Y-15626433D01*
X12381523Y-15626433D02*
X12400571Y-15635957D01*
X12476762Y-15835957D02*
X12486285Y-15826433D01*
X12486285Y-15826433D02*
X12505333Y-15797862D01*
X12505333Y-15797862D02*
X12514857Y-15778814D01*
X12514857Y-15778814D02*
X12524381Y-15750243D01*
X12524381Y-15750243D02*
X12533904Y-15702624D01*
X12533904Y-15702624D02*
X12533904Y-15664529D01*
X12533904Y-15664529D02*
X12524381Y-15616910D01*
X12524381Y-15616910D02*
X12514857Y-15588338D01*
X12514857Y-15588338D02*
X12505333Y-15569291D01*
X12505333Y-15569291D02*
X12486285Y-15540719D01*
X12486285Y-15540719D02*
X12476762Y-15531195D01*
X12838666Y-15835957D02*
X12829142Y-15826433D01*
X12829142Y-15826433D02*
X12810095Y-15797862D01*
X12810095Y-15797862D02*
X12800571Y-15778814D01*
X12800571Y-15778814D02*
X12791047Y-15750243D01*
X12791047Y-15750243D02*
X12781523Y-15702624D01*
X12781523Y-15702624D02*
X12781523Y-15664529D01*
X12781523Y-15664529D02*
X12791047Y-15616910D01*
X12791047Y-15616910D02*
X12800571Y-15588338D01*
X12800571Y-15588338D02*
X12810095Y-15569291D01*
X12810095Y-15569291D02*
X12829142Y-15540719D01*
X12829142Y-15540719D02*
X12838666Y-15531195D01*
X12914857Y-15626433D02*
X12914857Y-15759767D01*
X12914857Y-15645481D02*
X12924381Y-15635957D01*
X12924381Y-15635957D02*
X12943428Y-15626433D01*
X12943428Y-15626433D02*
X12972000Y-15626433D01*
X12972000Y-15626433D02*
X12991047Y-15635957D01*
X12991047Y-15635957D02*
X13000571Y-15655005D01*
X13000571Y-15655005D02*
X13000571Y-15759767D01*
X13124381Y-15759767D02*
X13105333Y-15750243D01*
X13105333Y-15750243D02*
X13095809Y-15740719D01*
X13095809Y-15740719D02*
X13086285Y-15721671D01*
X13086285Y-15721671D02*
X13086285Y-15664529D01*
X13086285Y-15664529D02*
X13095809Y-15645481D01*
X13095809Y-15645481D02*
X13105333Y-15635957D01*
X13105333Y-15635957D02*
X13124381Y-15626433D01*
X13124381Y-15626433D02*
X13152952Y-15626433D01*
X13152952Y-15626433D02*
X13172000Y-15635957D01*
X13172000Y-15635957D02*
X13181523Y-15645481D01*
X13181523Y-15645481D02*
X13191047Y-15664529D01*
X13191047Y-15664529D02*
X13191047Y-15721671D01*
X13191047Y-15721671D02*
X13181523Y-15740719D01*
X13181523Y-15740719D02*
X13172000Y-15750243D01*
X13172000Y-15750243D02*
X13152952Y-15759767D01*
X13152952Y-15759767D02*
X13124381Y-15759767D01*
X13248190Y-15626433D02*
X13324381Y-15626433D01*
X13276762Y-15559767D02*
X13276762Y-15731195D01*
X13276762Y-15731195D02*
X13286285Y-15750243D01*
X13286285Y-15750243D02*
X13305333Y-15759767D01*
X13305333Y-15759767D02*
X13324381Y-15759767D01*
X13543428Y-15626433D02*
X13543428Y-15826433D01*
X13543428Y-15635957D02*
X13562476Y-15626433D01*
X13562476Y-15626433D02*
X13600571Y-15626433D01*
X13600571Y-15626433D02*
X13619619Y-15635957D01*
X13619619Y-15635957D02*
X13629143Y-15645481D01*
X13629143Y-15645481D02*
X13638666Y-15664529D01*
X13638666Y-15664529D02*
X13638666Y-15721671D01*
X13638666Y-15721671D02*
X13629143Y-15740719D01*
X13629143Y-15740719D02*
X13619619Y-15750243D01*
X13619619Y-15750243D02*
X13600571Y-15759767D01*
X13600571Y-15759767D02*
X13562476Y-15759767D01*
X13562476Y-15759767D02*
X13543428Y-15750243D01*
X13752952Y-15759767D02*
X13733904Y-15750243D01*
X13733904Y-15750243D02*
X13724381Y-15731195D01*
X13724381Y-15731195D02*
X13724381Y-15559767D01*
X13914857Y-15759767D02*
X13914857Y-15655005D01*
X13914857Y-15655005D02*
X13905333Y-15635957D01*
X13905333Y-15635957D02*
X13886285Y-15626433D01*
X13886285Y-15626433D02*
X13848190Y-15626433D01*
X13848190Y-15626433D02*
X13829143Y-15635957D01*
X13914857Y-15750243D02*
X13895809Y-15759767D01*
X13895809Y-15759767D02*
X13848190Y-15759767D01*
X13848190Y-15759767D02*
X13829143Y-15750243D01*
X13829143Y-15750243D02*
X13819619Y-15731195D01*
X13819619Y-15731195D02*
X13819619Y-15712148D01*
X13819619Y-15712148D02*
X13829143Y-15693100D01*
X13829143Y-15693100D02*
X13848190Y-15683576D01*
X13848190Y-15683576D02*
X13895809Y-15683576D01*
X13895809Y-15683576D02*
X13914857Y-15674052D01*
X13981524Y-15626433D02*
X14057714Y-15626433D01*
X14010095Y-15559767D02*
X14010095Y-15731195D01*
X14010095Y-15731195D02*
X14019619Y-15750243D01*
X14019619Y-15750243D02*
X14038666Y-15759767D01*
X14038666Y-15759767D02*
X14057714Y-15759767D01*
X14200571Y-15750243D02*
X14181524Y-15759767D01*
X14181524Y-15759767D02*
X14143428Y-15759767D01*
X14143428Y-15759767D02*
X14124381Y-15750243D01*
X14124381Y-15750243D02*
X14114857Y-15731195D01*
X14114857Y-15731195D02*
X14114857Y-15655005D01*
X14114857Y-15655005D02*
X14124381Y-15635957D01*
X14124381Y-15635957D02*
X14143428Y-15626433D01*
X14143428Y-15626433D02*
X14181524Y-15626433D01*
X14181524Y-15626433D02*
X14200571Y-15635957D01*
X14200571Y-15635957D02*
X14210095Y-15655005D01*
X14210095Y-15655005D02*
X14210095Y-15674052D01*
X14210095Y-15674052D02*
X14114857Y-15693100D01*
X14381524Y-15759767D02*
X14381524Y-15559767D01*
X14381524Y-15750243D02*
X14362476Y-15759767D01*
X14362476Y-15759767D02*
X14324381Y-15759767D01*
X14324381Y-15759767D02*
X14305333Y-15750243D01*
X14305333Y-15750243D02*
X14295809Y-15740719D01*
X14295809Y-15740719D02*
X14286285Y-15721671D01*
X14286285Y-15721671D02*
X14286285Y-15664529D01*
X14286285Y-15664529D02*
X14295809Y-15645481D01*
X14295809Y-15645481D02*
X14305333Y-15635957D01*
X14305333Y-15635957D02*
X14324381Y-15626433D01*
X14324381Y-15626433D02*
X14362476Y-15626433D01*
X14362476Y-15626433D02*
X14381524Y-15635957D01*
X14457714Y-15835957D02*
X14467238Y-15826433D01*
X14467238Y-15826433D02*
X14486285Y-15797862D01*
X14486285Y-15797862D02*
X14495809Y-15778814D01*
X14495809Y-15778814D02*
X14505333Y-15750243D01*
X14505333Y-15750243D02*
X14514857Y-15702624D01*
X14514857Y-15702624D02*
X14514857Y-15664529D01*
X14514857Y-15664529D02*
X14505333Y-15616910D01*
X14505333Y-15616910D02*
X14495809Y-15588338D01*
X14495809Y-15588338D02*
X14486285Y-15569291D01*
X14486285Y-15569291D02*
X14467238Y-15540719D01*
X14467238Y-15540719D02*
X14457714Y-15531195D01*
M02*
