%TF.GenerationSoftware,KiCad,Pcbnew,8.0.6*%
%TF.CreationDate,2024-11-18T14:11:36+07:00*%
%TF.ProjectId,chocowi36,63686f63-6f77-4693-9336-2e6b69636164,rev?*%
%TF.SameCoordinates,Original*%
%TF.FileFunction,Drillmap*%
%TF.FilePolarity,Positive*%
%FSLAX45Y45*%
G04 Gerber Fmt 4.5, Leading zero omitted, Abs format (unit mm)*
G04 Created by KiCad (PCBNEW 8.0.6) date 2024-11-18 14:11:36*
%MOMM*%
%LPD*%
G01*
G04 APERTURE LIST*
%ADD10C,0.150000*%
%ADD11C,0.200000*%
%ADD12C,0.100000*%
%ADD13C,0.170180*%
%ADD14C,0.220000*%
%ADD15C,0.300000*%
%ADD16C,0.342900*%
G04 APERTURE END LIST*
D10*
X14011000Y-12099000D02*
X15545000Y-12510000D01*
X16831000Y-5263000D02*
G75*
G02*
X16951747Y-5421000I-43000J-158000D01*
G01*
X7644713Y-5681090D02*
X10248000Y-4736000D01*
X11103000Y-10938000D02*
G75*
G02*
X11338826Y-11046012I0J-311450D01*
G01*
X11338825Y-11046014D02*
X12224000Y-11997000D01*
X19084701Y-6055000D02*
X19080000Y-10815000D01*
X12460000Y-12097452D02*
X14011000Y-12099000D01*
X7518722Y-5853000D02*
G75*
G02*
X7644713Y-5681090I180278J0D01*
G01*
X15545000Y-12510000D02*
X17338983Y-13540679D01*
X7580755Y-10940000D02*
G75*
G02*
X7519997Y-10874555I5J60930D01*
G01*
X19033633Y-5989871D02*
X16997964Y-5989871D01*
X19033633Y-5989871D02*
G75*
G02*
X19084706Y-6055000I-17993J-66699D01*
G01*
X7518722Y-5853000D02*
X7520000Y-10874555D01*
X12460000Y-12097452D02*
G75*
G02*
X12224000Y-11997000I0J327452D01*
G01*
X17528519Y-13500986D02*
X19080000Y-10815000D01*
X16997964Y-5989871D02*
G75*
G02*
X16950098Y-5939002I2036J49871D01*
G01*
X17528519Y-13500986D02*
G75*
G02*
X17335722Y-13538929I-115299J77066D01*
G01*
X16831000Y-5263000D02*
X14840000Y-4734000D01*
X16950098Y-5939002D02*
X16951747Y-5421000D01*
X10248000Y-4736000D02*
X14840000Y-4734000D01*
X11103000Y-10938000D02*
X7580755Y-10940000D01*
D11*
D12*
X18377500Y-11571913D02*
X18457500Y-11651913D01*
X18457500Y-11571913D02*
X18377500Y-11651913D01*
X18380000Y-11570000D02*
X18460000Y-11650000D01*
X18460000Y-11570000D02*
X18380000Y-11650000D01*
X18527500Y-11312106D02*
X18607500Y-11392106D01*
X18607500Y-11312106D02*
X18527500Y-11392106D01*
X18530000Y-11310192D02*
X18610000Y-11390192D01*
X18610000Y-11310192D02*
X18530000Y-11390192D01*
D13*
X8120290Y-8255000D02*
G75*
G02*
X7950110Y-8255000I-85090J0D01*
G01*
X7950110Y-8255000D02*
G75*
G02*
X8120290Y-8255000I85090J0D01*
G01*
X8120290Y-9956800D02*
G75*
G02*
X7950110Y-9956800I-85090J0D01*
G01*
X7950110Y-9956800D02*
G75*
G02*
X8120290Y-9956800I85090J0D01*
G01*
X8126090Y-6558000D02*
G75*
G02*
X7955910Y-6558000I-85090J0D01*
G01*
X7955910Y-6558000D02*
G75*
G02*
X8126090Y-6558000I85090J0D01*
G01*
X9220290Y-8255000D02*
G75*
G02*
X9050110Y-8255000I-85090J0D01*
G01*
X9050110Y-8255000D02*
G75*
G02*
X9220290Y-8255000I85090J0D01*
G01*
X9220290Y-9956800D02*
G75*
G02*
X9050110Y-9956800I-85090J0D01*
G01*
X9050110Y-9956800D02*
G75*
G02*
X9220290Y-9956800I85090J0D01*
G01*
X9226090Y-6558000D02*
G75*
G02*
X9055910Y-6558000I-85090J0D01*
G01*
X9055910Y-6558000D02*
G75*
G02*
X9226090Y-6558000I85090J0D01*
G01*
X9922090Y-7601000D02*
G75*
G02*
X9751910Y-7601000I-85090J0D01*
G01*
X9751910Y-7601000D02*
G75*
G02*
X9922090Y-7601000I85090J0D01*
G01*
X9922090Y-9302800D02*
G75*
G02*
X9751910Y-9302800I-85090J0D01*
G01*
X9751910Y-9302800D02*
G75*
G02*
X9922090Y-9302800I85090J0D01*
G01*
X9926090Y-5902000D02*
G75*
G02*
X9755910Y-5902000I-85090J0D01*
G01*
X9755910Y-5902000D02*
G75*
G02*
X9926090Y-5902000I85090J0D01*
G01*
X11022090Y-7601000D02*
G75*
G02*
X10851910Y-7601000I-85090J0D01*
G01*
X10851910Y-7601000D02*
G75*
G02*
X11022090Y-7601000I85090J0D01*
G01*
X11022090Y-9302800D02*
G75*
G02*
X10851910Y-9302800I-85090J0D01*
G01*
X10851910Y-9302800D02*
G75*
G02*
X11022090Y-9302800I85090J0D01*
G01*
X11026090Y-5902000D02*
G75*
G02*
X10855910Y-5902000I-85090J0D01*
G01*
X10855910Y-5902000D02*
G75*
G02*
X11026090Y-5902000I85090J0D01*
G01*
X11726090Y-5666000D02*
G75*
G02*
X11555910Y-5666000I-85090J0D01*
G01*
X11555910Y-5666000D02*
G75*
G02*
X11726090Y-5666000I85090J0D01*
G01*
X11726090Y-7364000D02*
G75*
G02*
X11555910Y-7364000I-85090J0D01*
G01*
X11555910Y-7364000D02*
G75*
G02*
X11726090Y-7364000I85090J0D01*
G01*
X11726090Y-9065800D02*
G75*
G02*
X11555910Y-9065800I-85090J0D01*
G01*
X11555910Y-9065800D02*
G75*
G02*
X11726090Y-9065800I85090J0D01*
G01*
X12755090Y-11140000D02*
G75*
G02*
X12584910Y-11140000I-85090J0D01*
G01*
X12584910Y-11140000D02*
G75*
G02*
X12755090Y-11140000I85090J0D01*
G01*
X12826090Y-5666000D02*
G75*
G02*
X12655910Y-5666000I-85090J0D01*
G01*
X12655910Y-5666000D02*
G75*
G02*
X12826090Y-5666000I85090J0D01*
G01*
X12826090Y-7364000D02*
G75*
G02*
X12655910Y-7364000I-85090J0D01*
G01*
X12655910Y-7364000D02*
G75*
G02*
X12826090Y-7364000I85090J0D01*
G01*
X12826090Y-9065800D02*
G75*
G02*
X12655910Y-9065800I-85090J0D01*
G01*
X12655910Y-9065800D02*
G75*
G02*
X12826090Y-9065800I85090J0D01*
G01*
X13530490Y-5902000D02*
G75*
G02*
X13360310Y-5902000I-85090J0D01*
G01*
X13360310Y-5902000D02*
G75*
G02*
X13530490Y-5902000I85090J0D01*
G01*
X13530490Y-7603200D02*
G75*
G02*
X13360310Y-7603200I-85090J0D01*
G01*
X13360310Y-7603200D02*
G75*
G02*
X13530490Y-7603200I85090J0D01*
G01*
X13530490Y-9305000D02*
G75*
G02*
X13360310Y-9305000I-85090J0D01*
G01*
X13360310Y-9305000D02*
G75*
G02*
X13530490Y-9305000I85090J0D01*
G01*
X13855090Y-11140000D02*
G75*
G02*
X13684910Y-11140000I-85090J0D01*
G01*
X13684910Y-11140000D02*
G75*
G02*
X13855090Y-11140000I85090J0D01*
G01*
X14630490Y-5902000D02*
G75*
G02*
X14460310Y-5902000I-85090J0D01*
G01*
X14460310Y-5902000D02*
G75*
G02*
X14630490Y-5902000I85090J0D01*
G01*
X14630490Y-7603200D02*
G75*
G02*
X14460310Y-7603200I-85090J0D01*
G01*
X14460310Y-7603200D02*
G75*
G02*
X14630490Y-7603200I85090J0D01*
G01*
X14630490Y-9305000D02*
G75*
G02*
X14460310Y-9305000I-85090J0D01*
G01*
X14460310Y-9305000D02*
G75*
G02*
X14630490Y-9305000I85090J0D01*
G01*
X14729221Y-11337749D02*
G75*
G02*
X14559041Y-11337749I-85090J0D01*
G01*
X14559041Y-11337749D02*
G75*
G02*
X14729221Y-11337749I85090J0D01*
G01*
X15329090Y-7844000D02*
G75*
G02*
X15158910Y-7844000I-85090J0D01*
G01*
X15158910Y-7844000D02*
G75*
G02*
X15329090Y-7844000I85090J0D01*
G01*
X15329090Y-9545800D02*
G75*
G02*
X15158910Y-9545800I-85090J0D01*
G01*
X15158910Y-9545800D02*
G75*
G02*
X15329090Y-9545800I85090J0D01*
G01*
X15333890Y-6140000D02*
G75*
G02*
X15163710Y-6140000I-85090J0D01*
G01*
X15163710Y-6140000D02*
G75*
G02*
X15333890Y-6140000I85090J0D01*
G01*
X15791739Y-11622450D02*
G75*
G02*
X15621559Y-11622450I-85090J0D01*
G01*
X15621559Y-11622450D02*
G75*
G02*
X15791739Y-11622450I85090J0D01*
G01*
X16429090Y-7844000D02*
G75*
G02*
X16258910Y-7844000I-85090J0D01*
G01*
X16258910Y-7844000D02*
G75*
G02*
X16429090Y-7844000I85090J0D01*
G01*
X16429090Y-9545800D02*
G75*
G02*
X16258910Y-9545800I-85090J0D01*
G01*
X16258910Y-9545800D02*
G75*
G02*
X16429090Y-9545800I85090J0D01*
G01*
X16433890Y-6140000D02*
G75*
G02*
X16263710Y-6140000I-85090J0D01*
G01*
X16263710Y-6140000D02*
G75*
G02*
X16433890Y-6140000I85090J0D01*
G01*
X16653776Y-12004050D02*
G75*
G02*
X16483596Y-12004050I-85090J0D01*
G01*
X16483596Y-12004050D02*
G75*
G02*
X16653776Y-12004050I85090J0D01*
G01*
X17606404Y-12554050D02*
G75*
G02*
X17436224Y-12554050I-85090J0D01*
G01*
X17436224Y-12554050D02*
G75*
G02*
X17606404Y-12554050I85090J0D01*
G01*
D14*
X9050000Y-5392000D02*
X9050000Y-5612000D01*
X8940000Y-5502000D02*
X9160000Y-5502000D01*
X10390000Y-10390000D02*
X10390000Y-10610000D01*
X10280000Y-10500000D02*
X10500000Y-10500000D01*
X15055000Y-4990000D02*
X15055000Y-5210000D01*
X14945000Y-5100000D02*
X15165000Y-5100000D01*
X17856000Y-11023000D02*
X17856000Y-11243000D01*
X17746000Y-11133000D02*
X17966000Y-11133000D01*
D15*
X8191267Y-7986067D02*
X8191267Y-7773933D01*
X7979133Y-7773933D01*
X7979133Y-7986067D01*
X8191267Y-7986067D01*
X8191267Y-9687867D02*
X8191267Y-9475733D01*
X7979133Y-9475733D01*
X7979133Y-9687867D01*
X8191267Y-9687867D01*
X8197067Y-6289067D02*
X8197067Y-6076933D01*
X7984933Y-6076933D01*
X7984933Y-6289067D01*
X8197067Y-6289067D01*
X8691267Y-7766067D02*
X8691267Y-7553933D01*
X8479133Y-7553933D01*
X8479133Y-7766067D01*
X8691267Y-7766067D01*
X8691267Y-9467867D02*
X8691267Y-9255733D01*
X8479133Y-9255733D01*
X8479133Y-9467867D01*
X8691267Y-9467867D01*
X8697067Y-6069067D02*
X8697067Y-5856933D01*
X8484933Y-5856933D01*
X8484933Y-6069067D01*
X8697067Y-6069067D01*
X9191267Y-7986067D02*
X9191267Y-7773933D01*
X8979133Y-7773933D01*
X8979133Y-7986067D01*
X9191267Y-7986067D01*
X9191267Y-9687867D02*
X9191267Y-9475733D01*
X8979133Y-9475733D01*
X8979133Y-9687867D01*
X9191267Y-9687867D01*
X9197067Y-6289067D02*
X9197067Y-6076933D01*
X8984933Y-6076933D01*
X8984933Y-6289067D01*
X9197067Y-6289067D01*
X9993067Y-7332067D02*
X9993067Y-7119933D01*
X9780933Y-7119933D01*
X9780933Y-7332067D01*
X9993067Y-7332067D01*
X9993067Y-9033867D02*
X9993067Y-8821733D01*
X9780933Y-8821733D01*
X9780933Y-9033867D01*
X9993067Y-9033867D01*
X9997067Y-5633067D02*
X9997067Y-5420933D01*
X9784933Y-5420933D01*
X9784933Y-5633067D01*
X9997067Y-5633067D01*
X10493067Y-7112067D02*
X10493067Y-6899933D01*
X10280933Y-6899933D01*
X10280933Y-7112067D01*
X10493067Y-7112067D01*
X10493067Y-8813867D02*
X10493067Y-8601733D01*
X10280933Y-8601733D01*
X10280933Y-8813867D01*
X10493067Y-8813867D01*
X10497067Y-5413067D02*
X10497067Y-5200933D01*
X10284933Y-5200933D01*
X10284933Y-5413067D01*
X10497067Y-5413067D01*
X10993067Y-7332067D02*
X10993067Y-7119933D01*
X10780933Y-7119933D01*
X10780933Y-7332067D01*
X10993067Y-7332067D01*
X10993067Y-9033867D02*
X10993067Y-8821733D01*
X10780933Y-8821733D01*
X10780933Y-9033867D01*
X10993067Y-9033867D01*
X10997067Y-5633067D02*
X10997067Y-5420933D01*
X10784933Y-5420933D01*
X10784933Y-5633067D01*
X10997067Y-5633067D01*
X11797067Y-5397067D02*
X11797067Y-5184933D01*
X11584933Y-5184933D01*
X11584933Y-5397067D01*
X11797067Y-5397067D01*
X11797067Y-7095067D02*
X11797067Y-6882933D01*
X11584933Y-6882933D01*
X11584933Y-7095067D01*
X11797067Y-7095067D01*
X11797067Y-8796867D02*
X11797067Y-8584733D01*
X11584933Y-8584733D01*
X11584933Y-8796867D01*
X11797067Y-8796867D01*
X12297067Y-5177067D02*
X12297067Y-4964933D01*
X12084933Y-4964933D01*
X12084933Y-5177067D01*
X12297067Y-5177067D01*
X12297067Y-6875067D02*
X12297067Y-6662933D01*
X12084933Y-6662933D01*
X12084933Y-6875067D01*
X12297067Y-6875067D01*
X12297067Y-8576867D02*
X12297067Y-8364733D01*
X12084933Y-8364733D01*
X12084933Y-8576867D01*
X12297067Y-8576867D01*
X12797067Y-5397067D02*
X12797067Y-5184933D01*
X12584933Y-5184933D01*
X12584933Y-5397067D01*
X12797067Y-5397067D01*
X12797067Y-7095067D02*
X12797067Y-6882933D01*
X12584933Y-6882933D01*
X12584933Y-7095067D01*
X12797067Y-7095067D01*
X12797067Y-8796867D02*
X12797067Y-8584733D01*
X12584933Y-8584733D01*
X12584933Y-8796867D01*
X12797067Y-8796867D01*
X12826067Y-10871067D02*
X12826067Y-10658933D01*
X12613933Y-10658933D01*
X12613933Y-10871067D01*
X12826067Y-10871067D01*
X13326067Y-10651067D02*
X13326067Y-10438933D01*
X13113933Y-10438933D01*
X13113933Y-10651067D01*
X13326067Y-10651067D01*
X13601467Y-5633067D02*
X13601467Y-5420933D01*
X13389333Y-5420933D01*
X13389333Y-5633067D01*
X13601467Y-5633067D01*
X13601467Y-7334267D02*
X13601467Y-7122133D01*
X13389333Y-7122133D01*
X13389333Y-7334267D01*
X13601467Y-7334267D01*
X13601467Y-9036067D02*
X13601467Y-8823933D01*
X13389333Y-8823933D01*
X13389333Y-9036067D01*
X13601467Y-9036067D01*
X13826067Y-10871067D02*
X13826067Y-10658933D01*
X13613933Y-10658933D01*
X13613933Y-10871067D01*
X13826067Y-10871067D01*
X14101467Y-5413067D02*
X14101467Y-5200933D01*
X13889333Y-5200933D01*
X13889333Y-5413067D01*
X14101467Y-5413067D01*
X14101467Y-7114267D02*
X14101467Y-6902133D01*
X13889333Y-6902133D01*
X13889333Y-7114267D01*
X14101467Y-7114267D01*
X14101467Y-8816067D02*
X14101467Y-8603933D01*
X13889333Y-8603933D01*
X13889333Y-8816067D01*
X14101467Y-8816067D01*
X14601467Y-5633067D02*
X14601467Y-5420933D01*
X14389333Y-5420933D01*
X14389333Y-5633067D01*
X14601467Y-5633067D01*
X14601467Y-7334267D02*
X14601467Y-7122133D01*
X14389333Y-7122133D01*
X14389333Y-7334267D01*
X14601467Y-7334267D01*
X14601467Y-9036067D02*
X14601467Y-8823933D01*
X14389333Y-8823933D01*
X14389333Y-9036067D01*
X14601467Y-9036067D01*
X14895551Y-11094535D02*
X14895551Y-10882401D01*
X14683417Y-10882401D01*
X14683417Y-11094535D01*
X14895551Y-11094535D01*
X15400067Y-7575067D02*
X15400067Y-7362933D01*
X15187933Y-7362933D01*
X15187933Y-7575067D01*
X15400067Y-7575067D01*
X15400067Y-9276867D02*
X15400067Y-9064733D01*
X15187933Y-9064733D01*
X15187933Y-9276867D01*
X15400067Y-9276867D01*
X15404867Y-5871067D02*
X15404867Y-5658933D01*
X15192733Y-5658933D01*
X15192733Y-5871067D01*
X15404867Y-5871067D01*
X15435454Y-11011441D02*
X15435454Y-10799307D01*
X15223320Y-10799307D01*
X15223320Y-11011441D01*
X15435454Y-11011441D01*
X15861477Y-11353354D02*
X15861477Y-11141220D01*
X15649343Y-11141220D01*
X15649343Y-11353354D01*
X15861477Y-11353354D01*
X15900067Y-7355067D02*
X15900067Y-7142933D01*
X15687933Y-7142933D01*
X15687933Y-7355067D01*
X15900067Y-7355067D01*
X15900067Y-9056867D02*
X15900067Y-8844733D01*
X15687933Y-8844733D01*
X15687933Y-9056867D01*
X15900067Y-9056867D01*
X15904867Y-5651067D02*
X15904867Y-5438933D01*
X15692733Y-5438933D01*
X15692733Y-5651067D01*
X15904867Y-5651067D01*
X16400067Y-9276867D02*
X16400067Y-9064733D01*
X16187933Y-9064733D01*
X16187933Y-9276867D01*
X16400067Y-9276867D01*
X16400067Y-7575067D02*
X16400067Y-7362933D01*
X16187933Y-7362933D01*
X16187933Y-7575067D01*
X16400067Y-7575067D01*
X16404867Y-5871067D02*
X16404867Y-5658933D01*
X16192733Y-5658933D01*
X16192733Y-5871067D01*
X16404867Y-5871067D01*
X16905554Y-11810358D02*
X16905554Y-11598224D01*
X16693420Y-11598224D01*
X16693420Y-11810358D01*
X16905554Y-11810358D01*
X17448567Y-11869832D02*
X17448567Y-11657698D01*
X17236433Y-11657698D01*
X17236433Y-11869832D01*
X17448567Y-11869832D01*
X17771580Y-12310357D02*
X17771580Y-12098223D01*
X17559446Y-12098223D01*
X17559446Y-12310357D01*
X17771580Y-12310357D01*
D16*
X8585200Y-8426450D02*
X8756650Y-8255000D01*
X8585200Y-8083550D01*
X8413750Y-8255000D01*
X8585200Y-8426450D01*
X8585200Y-10128250D02*
X8756650Y-9956800D01*
X8585200Y-9785350D01*
X8413750Y-9956800D01*
X8585200Y-10128250D01*
X8591000Y-6729450D02*
X8762450Y-6558000D01*
X8591000Y-6386550D01*
X8419550Y-6558000D01*
X8591000Y-6729450D01*
X10387000Y-7772450D02*
X10558450Y-7601000D01*
X10387000Y-7429550D01*
X10215550Y-7601000D01*
X10387000Y-7772450D01*
X10387000Y-9474250D02*
X10558450Y-9302800D01*
X10387000Y-9131350D01*
X10215550Y-9302800D01*
X10387000Y-9474250D01*
X10391000Y-6073450D02*
X10562450Y-5902000D01*
X10391000Y-5730550D01*
X10219550Y-5902000D01*
X10391000Y-6073450D01*
X12191000Y-5837450D02*
X12362450Y-5666000D01*
X12191000Y-5494550D01*
X12019550Y-5666000D01*
X12191000Y-5837450D01*
X12191000Y-7535450D02*
X12362450Y-7364000D01*
X12191000Y-7192550D01*
X12019550Y-7364000D01*
X12191000Y-7535450D01*
X12191000Y-9237250D02*
X12362450Y-9065800D01*
X12191000Y-8894350D01*
X12019550Y-9065800D01*
X12191000Y-9237250D01*
X13220000Y-11311450D02*
X13391450Y-11140000D01*
X13220000Y-10968550D01*
X13048550Y-11140000D01*
X13220000Y-11311450D01*
X13995400Y-6073450D02*
X14166850Y-5902000D01*
X13995400Y-5730550D01*
X13823950Y-5902000D01*
X13995400Y-6073450D01*
X13995400Y-7774650D02*
X14166850Y-7603200D01*
X13995400Y-7431750D01*
X13823950Y-7603200D01*
X13995400Y-7774650D01*
X13995400Y-9476450D02*
X14166850Y-9305000D01*
X13995400Y-9133550D01*
X13823950Y-9305000D01*
X13995400Y-9476450D01*
X15175390Y-11651550D02*
X15346840Y-11480100D01*
X15175390Y-11308650D01*
X15003940Y-11480100D01*
X15175390Y-11651550D01*
X15794000Y-8015450D02*
X15965450Y-7844000D01*
X15794000Y-7672550D01*
X15622550Y-7844000D01*
X15794000Y-8015450D01*
X15794000Y-9717250D02*
X15965450Y-9545800D01*
X15794000Y-9374350D01*
X15622550Y-9545800D01*
X15794000Y-9717250D01*
X15798800Y-6311450D02*
X15970250Y-6140000D01*
X15798800Y-5968550D01*
X15627350Y-6140000D01*
X15798800Y-6311450D01*
X17045000Y-12450500D02*
X17216450Y-12279050D01*
X17045000Y-12107600D01*
X16873550Y-12279050D01*
X17045000Y-12450500D01*
D11*
X7771999Y-13881587D02*
X7771999Y-13681587D01*
X7771999Y-13681587D02*
X7819618Y-13681587D01*
X7819618Y-13681587D02*
X7848190Y-13691111D01*
X7848190Y-13691111D02*
X7867237Y-13710158D01*
X7867237Y-13710158D02*
X7876761Y-13729206D01*
X7876761Y-13729206D02*
X7886285Y-13767301D01*
X7886285Y-13767301D02*
X7886285Y-13795872D01*
X7886285Y-13795872D02*
X7876761Y-13833968D01*
X7876761Y-13833968D02*
X7867237Y-13853015D01*
X7867237Y-13853015D02*
X7848190Y-13872063D01*
X7848190Y-13872063D02*
X7819618Y-13881587D01*
X7819618Y-13881587D02*
X7771999Y-13881587D01*
X7971999Y-13881587D02*
X7971999Y-13748253D01*
X7971999Y-13786349D02*
X7981523Y-13767301D01*
X7981523Y-13767301D02*
X7991047Y-13757777D01*
X7991047Y-13757777D02*
X8010094Y-13748253D01*
X8010094Y-13748253D02*
X8029142Y-13748253D01*
X8095809Y-13881587D02*
X8095809Y-13748253D01*
X8095809Y-13681587D02*
X8086285Y-13691111D01*
X8086285Y-13691111D02*
X8095809Y-13700634D01*
X8095809Y-13700634D02*
X8105332Y-13691111D01*
X8105332Y-13691111D02*
X8095809Y-13681587D01*
X8095809Y-13681587D02*
X8095809Y-13700634D01*
X8219618Y-13881587D02*
X8200571Y-13872063D01*
X8200571Y-13872063D02*
X8191047Y-13853015D01*
X8191047Y-13853015D02*
X8191047Y-13681587D01*
X8324380Y-13881587D02*
X8305332Y-13872063D01*
X8305332Y-13872063D02*
X8295809Y-13853015D01*
X8295809Y-13853015D02*
X8295809Y-13681587D01*
X8552952Y-13881587D02*
X8552952Y-13681587D01*
X8552952Y-13681587D02*
X8619618Y-13824444D01*
X8619618Y-13824444D02*
X8686285Y-13681587D01*
X8686285Y-13681587D02*
X8686285Y-13881587D01*
X8867237Y-13881587D02*
X8867237Y-13776825D01*
X8867237Y-13776825D02*
X8857714Y-13757777D01*
X8857714Y-13757777D02*
X8838666Y-13748253D01*
X8838666Y-13748253D02*
X8800571Y-13748253D01*
X8800571Y-13748253D02*
X8781523Y-13757777D01*
X8867237Y-13872063D02*
X8848190Y-13881587D01*
X8848190Y-13881587D02*
X8800571Y-13881587D01*
X8800571Y-13881587D02*
X8781523Y-13872063D01*
X8781523Y-13872063D02*
X8771999Y-13853015D01*
X8771999Y-13853015D02*
X8771999Y-13833968D01*
X8771999Y-13833968D02*
X8781523Y-13814920D01*
X8781523Y-13814920D02*
X8800571Y-13805396D01*
X8800571Y-13805396D02*
X8848190Y-13805396D01*
X8848190Y-13805396D02*
X8867237Y-13795872D01*
X8962475Y-13748253D02*
X8962475Y-13948253D01*
X8962475Y-13757777D02*
X8981523Y-13748253D01*
X8981523Y-13748253D02*
X9019618Y-13748253D01*
X9019618Y-13748253D02*
X9038666Y-13757777D01*
X9038666Y-13757777D02*
X9048190Y-13767301D01*
X9048190Y-13767301D02*
X9057714Y-13786349D01*
X9057714Y-13786349D02*
X9057714Y-13843491D01*
X9057714Y-13843491D02*
X9048190Y-13862539D01*
X9048190Y-13862539D02*
X9038666Y-13872063D01*
X9038666Y-13872063D02*
X9019618Y-13881587D01*
X9019618Y-13881587D02*
X8981523Y-13881587D01*
X8981523Y-13881587D02*
X8962475Y-13872063D01*
X9143428Y-13862539D02*
X9152952Y-13872063D01*
X9152952Y-13872063D02*
X9143428Y-13881587D01*
X9143428Y-13881587D02*
X9133904Y-13872063D01*
X9133904Y-13872063D02*
X9143428Y-13862539D01*
X9143428Y-13862539D02*
X9143428Y-13881587D01*
X9143428Y-13757777D02*
X9152952Y-13767301D01*
X9152952Y-13767301D02*
X9143428Y-13776825D01*
X9143428Y-13776825D02*
X9133904Y-13767301D01*
X9133904Y-13767301D02*
X9143428Y-13757777D01*
X9143428Y-13757777D02*
X9143428Y-13776825D01*
D12*
X7431222Y-14170103D02*
X7511222Y-14250103D01*
X7511222Y-14170103D02*
X7431222Y-14250103D01*
D11*
X7810094Y-14101587D02*
X7829142Y-14101587D01*
X7829142Y-14101587D02*
X7848190Y-14111111D01*
X7848190Y-14111111D02*
X7857713Y-14120634D01*
X7857713Y-14120634D02*
X7867237Y-14139682D01*
X7867237Y-14139682D02*
X7876761Y-14177777D01*
X7876761Y-14177777D02*
X7876761Y-14225396D01*
X7876761Y-14225396D02*
X7867237Y-14263491D01*
X7867237Y-14263491D02*
X7857713Y-14282539D01*
X7857713Y-14282539D02*
X7848190Y-14292063D01*
X7848190Y-14292063D02*
X7829142Y-14301587D01*
X7829142Y-14301587D02*
X7810094Y-14301587D01*
X7810094Y-14301587D02*
X7791047Y-14292063D01*
X7791047Y-14292063D02*
X7781523Y-14282539D01*
X7781523Y-14282539D02*
X7771999Y-14263491D01*
X7771999Y-14263491D02*
X7762475Y-14225396D01*
X7762475Y-14225396D02*
X7762475Y-14177777D01*
X7762475Y-14177777D02*
X7771999Y-14139682D01*
X7771999Y-14139682D02*
X7781523Y-14120634D01*
X7781523Y-14120634D02*
X7791047Y-14111111D01*
X7791047Y-14111111D02*
X7810094Y-14101587D01*
X7962475Y-14282539D02*
X7971999Y-14292063D01*
X7971999Y-14292063D02*
X7962475Y-14301587D01*
X7962475Y-14301587D02*
X7952952Y-14292063D01*
X7952952Y-14292063D02*
X7962475Y-14282539D01*
X7962475Y-14282539D02*
X7962475Y-14301587D01*
X8086285Y-14187301D02*
X8067237Y-14177777D01*
X8067237Y-14177777D02*
X8057713Y-14168253D01*
X8057713Y-14168253D02*
X8048190Y-14149206D01*
X8048190Y-14149206D02*
X8048190Y-14139682D01*
X8048190Y-14139682D02*
X8057713Y-14120634D01*
X8057713Y-14120634D02*
X8067237Y-14111111D01*
X8067237Y-14111111D02*
X8086285Y-14101587D01*
X8086285Y-14101587D02*
X8124380Y-14101587D01*
X8124380Y-14101587D02*
X8143428Y-14111111D01*
X8143428Y-14111111D02*
X8152952Y-14120634D01*
X8152952Y-14120634D02*
X8162475Y-14139682D01*
X8162475Y-14139682D02*
X8162475Y-14149206D01*
X8162475Y-14149206D02*
X8152952Y-14168253D01*
X8152952Y-14168253D02*
X8143428Y-14177777D01*
X8143428Y-14177777D02*
X8124380Y-14187301D01*
X8124380Y-14187301D02*
X8086285Y-14187301D01*
X8086285Y-14187301D02*
X8067237Y-14196825D01*
X8067237Y-14196825D02*
X8057713Y-14206349D01*
X8057713Y-14206349D02*
X8048190Y-14225396D01*
X8048190Y-14225396D02*
X8048190Y-14263491D01*
X8048190Y-14263491D02*
X8057713Y-14282539D01*
X8057713Y-14282539D02*
X8067237Y-14292063D01*
X8067237Y-14292063D02*
X8086285Y-14301587D01*
X8086285Y-14301587D02*
X8124380Y-14301587D01*
X8124380Y-14301587D02*
X8143428Y-14292063D01*
X8143428Y-14292063D02*
X8152952Y-14282539D01*
X8152952Y-14282539D02*
X8162475Y-14263491D01*
X8162475Y-14263491D02*
X8162475Y-14225396D01*
X8162475Y-14225396D02*
X8152952Y-14206349D01*
X8152952Y-14206349D02*
X8143428Y-14196825D01*
X8143428Y-14196825D02*
X8124380Y-14187301D01*
X8286285Y-14101587D02*
X8305333Y-14101587D01*
X8305333Y-14101587D02*
X8324380Y-14111111D01*
X8324380Y-14111111D02*
X8333904Y-14120634D01*
X8333904Y-14120634D02*
X8343428Y-14139682D01*
X8343428Y-14139682D02*
X8352952Y-14177777D01*
X8352952Y-14177777D02*
X8352952Y-14225396D01*
X8352952Y-14225396D02*
X8343428Y-14263491D01*
X8343428Y-14263491D02*
X8333904Y-14282539D01*
X8333904Y-14282539D02*
X8324380Y-14292063D01*
X8324380Y-14292063D02*
X8305333Y-14301587D01*
X8305333Y-14301587D02*
X8286285Y-14301587D01*
X8286285Y-14301587D02*
X8267237Y-14292063D01*
X8267237Y-14292063D02*
X8257713Y-14282539D01*
X8257713Y-14282539D02*
X8248190Y-14263491D01*
X8248190Y-14263491D02*
X8238666Y-14225396D01*
X8238666Y-14225396D02*
X8238666Y-14177777D01*
X8238666Y-14177777D02*
X8248190Y-14139682D01*
X8248190Y-14139682D02*
X8257713Y-14120634D01*
X8257713Y-14120634D02*
X8267237Y-14111111D01*
X8267237Y-14111111D02*
X8286285Y-14101587D01*
X8476761Y-14101587D02*
X8495809Y-14101587D01*
X8495809Y-14101587D02*
X8514856Y-14111111D01*
X8514856Y-14111111D02*
X8524380Y-14120634D01*
X8524380Y-14120634D02*
X8533904Y-14139682D01*
X8533904Y-14139682D02*
X8543428Y-14177777D01*
X8543428Y-14177777D02*
X8543428Y-14225396D01*
X8543428Y-14225396D02*
X8533904Y-14263491D01*
X8533904Y-14263491D02*
X8524380Y-14282539D01*
X8524380Y-14282539D02*
X8514856Y-14292063D01*
X8514856Y-14292063D02*
X8495809Y-14301587D01*
X8495809Y-14301587D02*
X8476761Y-14301587D01*
X8476761Y-14301587D02*
X8457714Y-14292063D01*
X8457714Y-14292063D02*
X8448190Y-14282539D01*
X8448190Y-14282539D02*
X8438666Y-14263491D01*
X8438666Y-14263491D02*
X8429142Y-14225396D01*
X8429142Y-14225396D02*
X8429142Y-14177777D01*
X8429142Y-14177777D02*
X8438666Y-14139682D01*
X8438666Y-14139682D02*
X8448190Y-14120634D01*
X8448190Y-14120634D02*
X8457714Y-14111111D01*
X8457714Y-14111111D02*
X8476761Y-14101587D01*
X8629142Y-14301587D02*
X8629142Y-14168253D01*
X8629142Y-14187301D02*
X8638666Y-14177777D01*
X8638666Y-14177777D02*
X8657714Y-14168253D01*
X8657714Y-14168253D02*
X8686285Y-14168253D01*
X8686285Y-14168253D02*
X8705333Y-14177777D01*
X8705333Y-14177777D02*
X8714856Y-14196825D01*
X8714856Y-14196825D02*
X8714856Y-14301587D01*
X8714856Y-14196825D02*
X8724380Y-14177777D01*
X8724380Y-14177777D02*
X8743428Y-14168253D01*
X8743428Y-14168253D02*
X8771999Y-14168253D01*
X8771999Y-14168253D02*
X8791047Y-14177777D01*
X8791047Y-14177777D02*
X8800571Y-14196825D01*
X8800571Y-14196825D02*
X8800571Y-14301587D01*
X8895809Y-14301587D02*
X8895809Y-14168253D01*
X8895809Y-14187301D02*
X8905333Y-14177777D01*
X8905333Y-14177777D02*
X8924380Y-14168253D01*
X8924380Y-14168253D02*
X8952952Y-14168253D01*
X8952952Y-14168253D02*
X8971999Y-14177777D01*
X8971999Y-14177777D02*
X8981523Y-14196825D01*
X8981523Y-14196825D02*
X8981523Y-14301587D01*
X8981523Y-14196825D02*
X8991047Y-14177777D01*
X8991047Y-14177777D02*
X9010095Y-14168253D01*
X9010095Y-14168253D02*
X9038666Y-14168253D01*
X9038666Y-14168253D02*
X9057714Y-14177777D01*
X9057714Y-14177777D02*
X9067237Y-14196825D01*
X9067237Y-14196825D02*
X9067237Y-14301587D01*
X9457714Y-14092063D02*
X9286285Y-14349206D01*
X9714857Y-14101587D02*
X9733904Y-14101587D01*
X9733904Y-14101587D02*
X9752952Y-14111111D01*
X9752952Y-14111111D02*
X9762476Y-14120634D01*
X9762476Y-14120634D02*
X9771999Y-14139682D01*
X9771999Y-14139682D02*
X9781523Y-14177777D01*
X9781523Y-14177777D02*
X9781523Y-14225396D01*
X9781523Y-14225396D02*
X9771999Y-14263491D01*
X9771999Y-14263491D02*
X9762476Y-14282539D01*
X9762476Y-14282539D02*
X9752952Y-14292063D01*
X9752952Y-14292063D02*
X9733904Y-14301587D01*
X9733904Y-14301587D02*
X9714857Y-14301587D01*
X9714857Y-14301587D02*
X9695809Y-14292063D01*
X9695809Y-14292063D02*
X9686285Y-14282539D01*
X9686285Y-14282539D02*
X9676761Y-14263491D01*
X9676761Y-14263491D02*
X9667238Y-14225396D01*
X9667238Y-14225396D02*
X9667238Y-14177777D01*
X9667238Y-14177777D02*
X9676761Y-14139682D01*
X9676761Y-14139682D02*
X9686285Y-14120634D01*
X9686285Y-14120634D02*
X9695809Y-14111111D01*
X9695809Y-14111111D02*
X9714857Y-14101587D01*
X9867238Y-14282539D02*
X9876761Y-14292063D01*
X9876761Y-14292063D02*
X9867238Y-14301587D01*
X9867238Y-14301587D02*
X9857714Y-14292063D01*
X9857714Y-14292063D02*
X9867238Y-14282539D01*
X9867238Y-14282539D02*
X9867238Y-14301587D01*
X10000571Y-14101587D02*
X10019619Y-14101587D01*
X10019619Y-14101587D02*
X10038666Y-14111111D01*
X10038666Y-14111111D02*
X10048190Y-14120634D01*
X10048190Y-14120634D02*
X10057714Y-14139682D01*
X10057714Y-14139682D02*
X10067238Y-14177777D01*
X10067238Y-14177777D02*
X10067238Y-14225396D01*
X10067238Y-14225396D02*
X10057714Y-14263491D01*
X10057714Y-14263491D02*
X10048190Y-14282539D01*
X10048190Y-14282539D02*
X10038666Y-14292063D01*
X10038666Y-14292063D02*
X10019619Y-14301587D01*
X10019619Y-14301587D02*
X10000571Y-14301587D01*
X10000571Y-14301587D02*
X9981523Y-14292063D01*
X9981523Y-14292063D02*
X9971999Y-14282539D01*
X9971999Y-14282539D02*
X9962476Y-14263491D01*
X9962476Y-14263491D02*
X9952952Y-14225396D01*
X9952952Y-14225396D02*
X9952952Y-14177777D01*
X9952952Y-14177777D02*
X9962476Y-14139682D01*
X9962476Y-14139682D02*
X9971999Y-14120634D01*
X9971999Y-14120634D02*
X9981523Y-14111111D01*
X9981523Y-14111111D02*
X10000571Y-14101587D01*
X10133904Y-14101587D02*
X10257714Y-14101587D01*
X10257714Y-14101587D02*
X10191047Y-14177777D01*
X10191047Y-14177777D02*
X10219619Y-14177777D01*
X10219619Y-14177777D02*
X10238666Y-14187301D01*
X10238666Y-14187301D02*
X10248190Y-14196825D01*
X10248190Y-14196825D02*
X10257714Y-14215872D01*
X10257714Y-14215872D02*
X10257714Y-14263491D01*
X10257714Y-14263491D02*
X10248190Y-14282539D01*
X10248190Y-14282539D02*
X10238666Y-14292063D01*
X10238666Y-14292063D02*
X10219619Y-14301587D01*
X10219619Y-14301587D02*
X10162476Y-14301587D01*
X10162476Y-14301587D02*
X10143428Y-14292063D01*
X10143428Y-14292063D02*
X10133904Y-14282539D01*
X10448190Y-14301587D02*
X10333904Y-14301587D01*
X10391047Y-14301587D02*
X10391047Y-14101587D01*
X10391047Y-14101587D02*
X10371999Y-14130158D01*
X10371999Y-14130158D02*
X10352952Y-14149206D01*
X10352952Y-14149206D02*
X10333904Y-14158730D01*
X10629142Y-14101587D02*
X10533904Y-14101587D01*
X10533904Y-14101587D02*
X10524380Y-14196825D01*
X10524380Y-14196825D02*
X10533904Y-14187301D01*
X10533904Y-14187301D02*
X10552952Y-14177777D01*
X10552952Y-14177777D02*
X10600571Y-14177777D01*
X10600571Y-14177777D02*
X10619619Y-14187301D01*
X10619619Y-14187301D02*
X10629142Y-14196825D01*
X10629142Y-14196825D02*
X10638666Y-14215872D01*
X10638666Y-14215872D02*
X10638666Y-14263491D01*
X10638666Y-14263491D02*
X10629142Y-14282539D01*
X10629142Y-14282539D02*
X10619619Y-14292063D01*
X10619619Y-14292063D02*
X10600571Y-14301587D01*
X10600571Y-14301587D02*
X10552952Y-14301587D01*
X10552952Y-14301587D02*
X10533904Y-14292063D01*
X10533904Y-14292063D02*
X10524380Y-14282539D01*
X10714857Y-14101587D02*
X10714857Y-14139682D01*
X10791047Y-14101587D02*
X10791047Y-14139682D01*
X11086285Y-14377777D02*
X11076761Y-14368253D01*
X11076761Y-14368253D02*
X11057714Y-14339682D01*
X11057714Y-14339682D02*
X11048190Y-14320634D01*
X11048190Y-14320634D02*
X11038666Y-14292063D01*
X11038666Y-14292063D02*
X11029142Y-14244444D01*
X11029142Y-14244444D02*
X11029142Y-14206349D01*
X11029142Y-14206349D02*
X11038666Y-14158730D01*
X11038666Y-14158730D02*
X11048190Y-14130158D01*
X11048190Y-14130158D02*
X11057714Y-14111111D01*
X11057714Y-14111111D02*
X11076761Y-14082539D01*
X11076761Y-14082539D02*
X11086285Y-14073015D01*
X11248190Y-14168253D02*
X11248190Y-14301587D01*
X11200571Y-14092063D02*
X11152952Y-14234920D01*
X11152952Y-14234920D02*
X11276761Y-14234920D01*
X11505333Y-14301587D02*
X11505333Y-14101587D01*
X11591047Y-14301587D02*
X11591047Y-14196825D01*
X11591047Y-14196825D02*
X11581523Y-14177777D01*
X11581523Y-14177777D02*
X11562476Y-14168253D01*
X11562476Y-14168253D02*
X11533904Y-14168253D01*
X11533904Y-14168253D02*
X11514857Y-14177777D01*
X11514857Y-14177777D02*
X11505333Y-14187301D01*
X11714857Y-14301587D02*
X11695809Y-14292063D01*
X11695809Y-14292063D02*
X11686285Y-14282539D01*
X11686285Y-14282539D02*
X11676761Y-14263491D01*
X11676761Y-14263491D02*
X11676761Y-14206349D01*
X11676761Y-14206349D02*
X11686285Y-14187301D01*
X11686285Y-14187301D02*
X11695809Y-14177777D01*
X11695809Y-14177777D02*
X11714857Y-14168253D01*
X11714857Y-14168253D02*
X11743428Y-14168253D01*
X11743428Y-14168253D02*
X11762476Y-14177777D01*
X11762476Y-14177777D02*
X11772000Y-14187301D01*
X11772000Y-14187301D02*
X11781523Y-14206349D01*
X11781523Y-14206349D02*
X11781523Y-14263491D01*
X11781523Y-14263491D02*
X11772000Y-14282539D01*
X11772000Y-14282539D02*
X11762476Y-14292063D01*
X11762476Y-14292063D02*
X11743428Y-14301587D01*
X11743428Y-14301587D02*
X11714857Y-14301587D01*
X11895809Y-14301587D02*
X11876761Y-14292063D01*
X11876761Y-14292063D02*
X11867238Y-14273015D01*
X11867238Y-14273015D02*
X11867238Y-14101587D01*
X12048190Y-14292063D02*
X12029142Y-14301587D01*
X12029142Y-14301587D02*
X11991047Y-14301587D01*
X11991047Y-14301587D02*
X11972000Y-14292063D01*
X11972000Y-14292063D02*
X11962476Y-14273015D01*
X11962476Y-14273015D02*
X11962476Y-14196825D01*
X11962476Y-14196825D02*
X11972000Y-14177777D01*
X11972000Y-14177777D02*
X11991047Y-14168253D01*
X11991047Y-14168253D02*
X12029142Y-14168253D01*
X12029142Y-14168253D02*
X12048190Y-14177777D01*
X12048190Y-14177777D02*
X12057714Y-14196825D01*
X12057714Y-14196825D02*
X12057714Y-14215872D01*
X12057714Y-14215872D02*
X11962476Y-14234920D01*
X12133904Y-14292063D02*
X12152952Y-14301587D01*
X12152952Y-14301587D02*
X12191047Y-14301587D01*
X12191047Y-14301587D02*
X12210095Y-14292063D01*
X12210095Y-14292063D02*
X12219619Y-14273015D01*
X12219619Y-14273015D02*
X12219619Y-14263491D01*
X12219619Y-14263491D02*
X12210095Y-14244444D01*
X12210095Y-14244444D02*
X12191047Y-14234920D01*
X12191047Y-14234920D02*
X12162476Y-14234920D01*
X12162476Y-14234920D02*
X12143428Y-14225396D01*
X12143428Y-14225396D02*
X12133904Y-14206349D01*
X12133904Y-14206349D02*
X12133904Y-14196825D01*
X12133904Y-14196825D02*
X12143428Y-14177777D01*
X12143428Y-14177777D02*
X12162476Y-14168253D01*
X12162476Y-14168253D02*
X12191047Y-14168253D01*
X12191047Y-14168253D02*
X12210095Y-14177777D01*
X12286285Y-14377777D02*
X12295809Y-14368253D01*
X12295809Y-14368253D02*
X12314857Y-14339682D01*
X12314857Y-14339682D02*
X12324381Y-14320634D01*
X12324381Y-14320634D02*
X12333904Y-14292063D01*
X12333904Y-14292063D02*
X12343428Y-14244444D01*
X12343428Y-14244444D02*
X12343428Y-14206349D01*
X12343428Y-14206349D02*
X12333904Y-14158730D01*
X12333904Y-14158730D02*
X12324381Y-14130158D01*
X12324381Y-14130158D02*
X12314857Y-14111111D01*
X12314857Y-14111111D02*
X12295809Y-14082539D01*
X12295809Y-14082539D02*
X12286285Y-14073015D01*
X12648190Y-14377777D02*
X12638666Y-14368253D01*
X12638666Y-14368253D02*
X12619619Y-14339682D01*
X12619619Y-14339682D02*
X12610095Y-14320634D01*
X12610095Y-14320634D02*
X12600571Y-14292063D01*
X12600571Y-14292063D02*
X12591047Y-14244444D01*
X12591047Y-14244444D02*
X12591047Y-14206349D01*
X12591047Y-14206349D02*
X12600571Y-14158730D01*
X12600571Y-14158730D02*
X12610095Y-14130158D01*
X12610095Y-14130158D02*
X12619619Y-14111111D01*
X12619619Y-14111111D02*
X12638666Y-14082539D01*
X12638666Y-14082539D02*
X12648190Y-14073015D01*
X12724381Y-14168253D02*
X12724381Y-14301587D01*
X12724381Y-14187301D02*
X12733904Y-14177777D01*
X12733904Y-14177777D02*
X12752952Y-14168253D01*
X12752952Y-14168253D02*
X12781523Y-14168253D01*
X12781523Y-14168253D02*
X12800571Y-14177777D01*
X12800571Y-14177777D02*
X12810095Y-14196825D01*
X12810095Y-14196825D02*
X12810095Y-14301587D01*
X12933904Y-14301587D02*
X12914857Y-14292063D01*
X12914857Y-14292063D02*
X12905333Y-14282539D01*
X12905333Y-14282539D02*
X12895809Y-14263491D01*
X12895809Y-14263491D02*
X12895809Y-14206349D01*
X12895809Y-14206349D02*
X12905333Y-14187301D01*
X12905333Y-14187301D02*
X12914857Y-14177777D01*
X12914857Y-14177777D02*
X12933904Y-14168253D01*
X12933904Y-14168253D02*
X12962476Y-14168253D01*
X12962476Y-14168253D02*
X12981523Y-14177777D01*
X12981523Y-14177777D02*
X12991047Y-14187301D01*
X12991047Y-14187301D02*
X13000571Y-14206349D01*
X13000571Y-14206349D02*
X13000571Y-14263491D01*
X13000571Y-14263491D02*
X12991047Y-14282539D01*
X12991047Y-14282539D02*
X12981523Y-14292063D01*
X12981523Y-14292063D02*
X12962476Y-14301587D01*
X12962476Y-14301587D02*
X12933904Y-14301587D01*
X13057714Y-14168253D02*
X13133904Y-14168253D01*
X13086285Y-14101587D02*
X13086285Y-14273015D01*
X13086285Y-14273015D02*
X13095809Y-14292063D01*
X13095809Y-14292063D02*
X13114857Y-14301587D01*
X13114857Y-14301587D02*
X13133904Y-14301587D01*
X13352952Y-14168253D02*
X13352952Y-14368253D01*
X13352952Y-14177777D02*
X13372000Y-14168253D01*
X13372000Y-14168253D02*
X13410095Y-14168253D01*
X13410095Y-14168253D02*
X13429143Y-14177777D01*
X13429143Y-14177777D02*
X13438666Y-14187301D01*
X13438666Y-14187301D02*
X13448190Y-14206349D01*
X13448190Y-14206349D02*
X13448190Y-14263491D01*
X13448190Y-14263491D02*
X13438666Y-14282539D01*
X13438666Y-14282539D02*
X13429143Y-14292063D01*
X13429143Y-14292063D02*
X13410095Y-14301587D01*
X13410095Y-14301587D02*
X13372000Y-14301587D01*
X13372000Y-14301587D02*
X13352952Y-14292063D01*
X13562476Y-14301587D02*
X13543428Y-14292063D01*
X13543428Y-14292063D02*
X13533904Y-14273015D01*
X13533904Y-14273015D02*
X13533904Y-14101587D01*
X13724381Y-14301587D02*
X13724381Y-14196825D01*
X13724381Y-14196825D02*
X13714857Y-14177777D01*
X13714857Y-14177777D02*
X13695809Y-14168253D01*
X13695809Y-14168253D02*
X13657714Y-14168253D01*
X13657714Y-14168253D02*
X13638666Y-14177777D01*
X13724381Y-14292063D02*
X13705333Y-14301587D01*
X13705333Y-14301587D02*
X13657714Y-14301587D01*
X13657714Y-14301587D02*
X13638666Y-14292063D01*
X13638666Y-14292063D02*
X13629143Y-14273015D01*
X13629143Y-14273015D02*
X13629143Y-14253968D01*
X13629143Y-14253968D02*
X13638666Y-14234920D01*
X13638666Y-14234920D02*
X13657714Y-14225396D01*
X13657714Y-14225396D02*
X13705333Y-14225396D01*
X13705333Y-14225396D02*
X13724381Y-14215872D01*
X13791047Y-14168253D02*
X13867238Y-14168253D01*
X13819619Y-14101587D02*
X13819619Y-14273015D01*
X13819619Y-14273015D02*
X13829143Y-14292063D01*
X13829143Y-14292063D02*
X13848190Y-14301587D01*
X13848190Y-14301587D02*
X13867238Y-14301587D01*
X14010095Y-14292063D02*
X13991047Y-14301587D01*
X13991047Y-14301587D02*
X13952952Y-14301587D01*
X13952952Y-14301587D02*
X13933904Y-14292063D01*
X13933904Y-14292063D02*
X13924381Y-14273015D01*
X13924381Y-14273015D02*
X13924381Y-14196825D01*
X13924381Y-14196825D02*
X13933904Y-14177777D01*
X13933904Y-14177777D02*
X13952952Y-14168253D01*
X13952952Y-14168253D02*
X13991047Y-14168253D01*
X13991047Y-14168253D02*
X14010095Y-14177777D01*
X14010095Y-14177777D02*
X14019619Y-14196825D01*
X14019619Y-14196825D02*
X14019619Y-14215872D01*
X14019619Y-14215872D02*
X13924381Y-14234920D01*
X14191047Y-14301587D02*
X14191047Y-14101587D01*
X14191047Y-14292063D02*
X14172000Y-14301587D01*
X14172000Y-14301587D02*
X14133904Y-14301587D01*
X14133904Y-14301587D02*
X14114857Y-14292063D01*
X14114857Y-14292063D02*
X14105333Y-14282539D01*
X14105333Y-14282539D02*
X14095809Y-14263491D01*
X14095809Y-14263491D02*
X14095809Y-14206349D01*
X14095809Y-14206349D02*
X14105333Y-14187301D01*
X14105333Y-14187301D02*
X14114857Y-14177777D01*
X14114857Y-14177777D02*
X14133904Y-14168253D01*
X14133904Y-14168253D02*
X14172000Y-14168253D01*
X14172000Y-14168253D02*
X14191047Y-14177777D01*
X14267238Y-14377777D02*
X14276762Y-14368253D01*
X14276762Y-14368253D02*
X14295809Y-14339682D01*
X14295809Y-14339682D02*
X14305333Y-14320634D01*
X14305333Y-14320634D02*
X14314857Y-14292063D01*
X14314857Y-14292063D02*
X14324381Y-14244444D01*
X14324381Y-14244444D02*
X14324381Y-14206349D01*
X14324381Y-14206349D02*
X14314857Y-14158730D01*
X14314857Y-14158730D02*
X14305333Y-14130158D01*
X14305333Y-14130158D02*
X14295809Y-14111111D01*
X14295809Y-14111111D02*
X14276762Y-14082539D01*
X14276762Y-14082539D02*
X14267238Y-14073015D01*
D13*
X7511222Y-14474103D02*
G75*
G02*
X7341042Y-14474103I-85090J0D01*
G01*
X7341042Y-14474103D02*
G75*
G02*
X7511222Y-14474103I85090J0D01*
G01*
D11*
X7876761Y-14565587D02*
X7762475Y-14565587D01*
X7819618Y-14565587D02*
X7819618Y-14365587D01*
X7819618Y-14365587D02*
X7800571Y-14394158D01*
X7800571Y-14394158D02*
X7781523Y-14413206D01*
X7781523Y-14413206D02*
X7762475Y-14422730D01*
X7962475Y-14546539D02*
X7971999Y-14556063D01*
X7971999Y-14556063D02*
X7962475Y-14565587D01*
X7962475Y-14565587D02*
X7952952Y-14556063D01*
X7952952Y-14556063D02*
X7962475Y-14546539D01*
X7962475Y-14546539D02*
X7962475Y-14565587D01*
X8038666Y-14365587D02*
X8171999Y-14365587D01*
X8171999Y-14365587D02*
X8086285Y-14565587D01*
X8286285Y-14365587D02*
X8305333Y-14365587D01*
X8305333Y-14365587D02*
X8324380Y-14375111D01*
X8324380Y-14375111D02*
X8333904Y-14384634D01*
X8333904Y-14384634D02*
X8343428Y-14403682D01*
X8343428Y-14403682D02*
X8352952Y-14441777D01*
X8352952Y-14441777D02*
X8352952Y-14489396D01*
X8352952Y-14489396D02*
X8343428Y-14527491D01*
X8343428Y-14527491D02*
X8333904Y-14546539D01*
X8333904Y-14546539D02*
X8324380Y-14556063D01*
X8324380Y-14556063D02*
X8305333Y-14565587D01*
X8305333Y-14565587D02*
X8286285Y-14565587D01*
X8286285Y-14565587D02*
X8267237Y-14556063D01*
X8267237Y-14556063D02*
X8257713Y-14546539D01*
X8257713Y-14546539D02*
X8248190Y-14527491D01*
X8248190Y-14527491D02*
X8238666Y-14489396D01*
X8238666Y-14489396D02*
X8238666Y-14441777D01*
X8238666Y-14441777D02*
X8248190Y-14403682D01*
X8248190Y-14403682D02*
X8257713Y-14384634D01*
X8257713Y-14384634D02*
X8267237Y-14375111D01*
X8267237Y-14375111D02*
X8286285Y-14365587D01*
X8429142Y-14384634D02*
X8438666Y-14375111D01*
X8438666Y-14375111D02*
X8457714Y-14365587D01*
X8457714Y-14365587D02*
X8505333Y-14365587D01*
X8505333Y-14365587D02*
X8524380Y-14375111D01*
X8524380Y-14375111D02*
X8533904Y-14384634D01*
X8533904Y-14384634D02*
X8543428Y-14403682D01*
X8543428Y-14403682D02*
X8543428Y-14422730D01*
X8543428Y-14422730D02*
X8533904Y-14451301D01*
X8533904Y-14451301D02*
X8419618Y-14565587D01*
X8419618Y-14565587D02*
X8543428Y-14565587D01*
X8629142Y-14565587D02*
X8629142Y-14432253D01*
X8629142Y-14451301D02*
X8638666Y-14441777D01*
X8638666Y-14441777D02*
X8657714Y-14432253D01*
X8657714Y-14432253D02*
X8686285Y-14432253D01*
X8686285Y-14432253D02*
X8705333Y-14441777D01*
X8705333Y-14441777D02*
X8714856Y-14460825D01*
X8714856Y-14460825D02*
X8714856Y-14565587D01*
X8714856Y-14460825D02*
X8724380Y-14441777D01*
X8724380Y-14441777D02*
X8743428Y-14432253D01*
X8743428Y-14432253D02*
X8771999Y-14432253D01*
X8771999Y-14432253D02*
X8791047Y-14441777D01*
X8791047Y-14441777D02*
X8800571Y-14460825D01*
X8800571Y-14460825D02*
X8800571Y-14565587D01*
X8895809Y-14565587D02*
X8895809Y-14432253D01*
X8895809Y-14451301D02*
X8905333Y-14441777D01*
X8905333Y-14441777D02*
X8924380Y-14432253D01*
X8924380Y-14432253D02*
X8952952Y-14432253D01*
X8952952Y-14432253D02*
X8971999Y-14441777D01*
X8971999Y-14441777D02*
X8981523Y-14460825D01*
X8981523Y-14460825D02*
X8981523Y-14565587D01*
X8981523Y-14460825D02*
X8991047Y-14441777D01*
X8991047Y-14441777D02*
X9010095Y-14432253D01*
X9010095Y-14432253D02*
X9038666Y-14432253D01*
X9038666Y-14432253D02*
X9057714Y-14441777D01*
X9057714Y-14441777D02*
X9067237Y-14460825D01*
X9067237Y-14460825D02*
X9067237Y-14565587D01*
X9457714Y-14356063D02*
X9286285Y-14613206D01*
X9714857Y-14365587D02*
X9733904Y-14365587D01*
X9733904Y-14365587D02*
X9752952Y-14375111D01*
X9752952Y-14375111D02*
X9762476Y-14384634D01*
X9762476Y-14384634D02*
X9771999Y-14403682D01*
X9771999Y-14403682D02*
X9781523Y-14441777D01*
X9781523Y-14441777D02*
X9781523Y-14489396D01*
X9781523Y-14489396D02*
X9771999Y-14527491D01*
X9771999Y-14527491D02*
X9762476Y-14546539D01*
X9762476Y-14546539D02*
X9752952Y-14556063D01*
X9752952Y-14556063D02*
X9733904Y-14565587D01*
X9733904Y-14565587D02*
X9714857Y-14565587D01*
X9714857Y-14565587D02*
X9695809Y-14556063D01*
X9695809Y-14556063D02*
X9686285Y-14546539D01*
X9686285Y-14546539D02*
X9676761Y-14527491D01*
X9676761Y-14527491D02*
X9667238Y-14489396D01*
X9667238Y-14489396D02*
X9667238Y-14441777D01*
X9667238Y-14441777D02*
X9676761Y-14403682D01*
X9676761Y-14403682D02*
X9686285Y-14384634D01*
X9686285Y-14384634D02*
X9695809Y-14375111D01*
X9695809Y-14375111D02*
X9714857Y-14365587D01*
X9867238Y-14546539D02*
X9876761Y-14556063D01*
X9876761Y-14556063D02*
X9867238Y-14565587D01*
X9867238Y-14565587D02*
X9857714Y-14556063D01*
X9857714Y-14556063D02*
X9867238Y-14546539D01*
X9867238Y-14546539D02*
X9867238Y-14565587D01*
X10000571Y-14365587D02*
X10019619Y-14365587D01*
X10019619Y-14365587D02*
X10038666Y-14375111D01*
X10038666Y-14375111D02*
X10048190Y-14384634D01*
X10048190Y-14384634D02*
X10057714Y-14403682D01*
X10057714Y-14403682D02*
X10067238Y-14441777D01*
X10067238Y-14441777D02*
X10067238Y-14489396D01*
X10067238Y-14489396D02*
X10057714Y-14527491D01*
X10057714Y-14527491D02*
X10048190Y-14546539D01*
X10048190Y-14546539D02*
X10038666Y-14556063D01*
X10038666Y-14556063D02*
X10019619Y-14565587D01*
X10019619Y-14565587D02*
X10000571Y-14565587D01*
X10000571Y-14565587D02*
X9981523Y-14556063D01*
X9981523Y-14556063D02*
X9971999Y-14546539D01*
X9971999Y-14546539D02*
X9962476Y-14527491D01*
X9962476Y-14527491D02*
X9952952Y-14489396D01*
X9952952Y-14489396D02*
X9952952Y-14441777D01*
X9952952Y-14441777D02*
X9962476Y-14403682D01*
X9962476Y-14403682D02*
X9971999Y-14384634D01*
X9971999Y-14384634D02*
X9981523Y-14375111D01*
X9981523Y-14375111D02*
X10000571Y-14365587D01*
X10238666Y-14365587D02*
X10200571Y-14365587D01*
X10200571Y-14365587D02*
X10181523Y-14375111D01*
X10181523Y-14375111D02*
X10171999Y-14384634D01*
X10171999Y-14384634D02*
X10152952Y-14413206D01*
X10152952Y-14413206D02*
X10143428Y-14451301D01*
X10143428Y-14451301D02*
X10143428Y-14527491D01*
X10143428Y-14527491D02*
X10152952Y-14546539D01*
X10152952Y-14546539D02*
X10162476Y-14556063D01*
X10162476Y-14556063D02*
X10181523Y-14565587D01*
X10181523Y-14565587D02*
X10219619Y-14565587D01*
X10219619Y-14565587D02*
X10238666Y-14556063D01*
X10238666Y-14556063D02*
X10248190Y-14546539D01*
X10248190Y-14546539D02*
X10257714Y-14527491D01*
X10257714Y-14527491D02*
X10257714Y-14479872D01*
X10257714Y-14479872D02*
X10248190Y-14460825D01*
X10248190Y-14460825D02*
X10238666Y-14451301D01*
X10238666Y-14451301D02*
X10219619Y-14441777D01*
X10219619Y-14441777D02*
X10181523Y-14441777D01*
X10181523Y-14441777D02*
X10162476Y-14451301D01*
X10162476Y-14451301D02*
X10152952Y-14460825D01*
X10152952Y-14460825D02*
X10143428Y-14479872D01*
X10324380Y-14365587D02*
X10457714Y-14365587D01*
X10457714Y-14365587D02*
X10371999Y-14565587D01*
X10571999Y-14365587D02*
X10591047Y-14365587D01*
X10591047Y-14365587D02*
X10610095Y-14375111D01*
X10610095Y-14375111D02*
X10619619Y-14384634D01*
X10619619Y-14384634D02*
X10629142Y-14403682D01*
X10629142Y-14403682D02*
X10638666Y-14441777D01*
X10638666Y-14441777D02*
X10638666Y-14489396D01*
X10638666Y-14489396D02*
X10629142Y-14527491D01*
X10629142Y-14527491D02*
X10619619Y-14546539D01*
X10619619Y-14546539D02*
X10610095Y-14556063D01*
X10610095Y-14556063D02*
X10591047Y-14565587D01*
X10591047Y-14565587D02*
X10571999Y-14565587D01*
X10571999Y-14565587D02*
X10552952Y-14556063D01*
X10552952Y-14556063D02*
X10543428Y-14546539D01*
X10543428Y-14546539D02*
X10533904Y-14527491D01*
X10533904Y-14527491D02*
X10524380Y-14489396D01*
X10524380Y-14489396D02*
X10524380Y-14441777D01*
X10524380Y-14441777D02*
X10533904Y-14403682D01*
X10533904Y-14403682D02*
X10543428Y-14384634D01*
X10543428Y-14384634D02*
X10552952Y-14375111D01*
X10552952Y-14375111D02*
X10571999Y-14365587D01*
X10714857Y-14365587D02*
X10714857Y-14403682D01*
X10791047Y-14365587D02*
X10791047Y-14403682D01*
X11086285Y-14641777D02*
X11076761Y-14632253D01*
X11076761Y-14632253D02*
X11057714Y-14603682D01*
X11057714Y-14603682D02*
X11048190Y-14584634D01*
X11048190Y-14584634D02*
X11038666Y-14556063D01*
X11038666Y-14556063D02*
X11029142Y-14508444D01*
X11029142Y-14508444D02*
X11029142Y-14470349D01*
X11029142Y-14470349D02*
X11038666Y-14422730D01*
X11038666Y-14422730D02*
X11048190Y-14394158D01*
X11048190Y-14394158D02*
X11057714Y-14375111D01*
X11057714Y-14375111D02*
X11076761Y-14346539D01*
X11076761Y-14346539D02*
X11086285Y-14337015D01*
X11143428Y-14365587D02*
X11267238Y-14365587D01*
X11267238Y-14365587D02*
X11200571Y-14441777D01*
X11200571Y-14441777D02*
X11229142Y-14441777D01*
X11229142Y-14441777D02*
X11248190Y-14451301D01*
X11248190Y-14451301D02*
X11257714Y-14460825D01*
X11257714Y-14460825D02*
X11267238Y-14479872D01*
X11267238Y-14479872D02*
X11267238Y-14527491D01*
X11267238Y-14527491D02*
X11257714Y-14546539D01*
X11257714Y-14546539D02*
X11248190Y-14556063D01*
X11248190Y-14556063D02*
X11229142Y-14565587D01*
X11229142Y-14565587D02*
X11172000Y-14565587D01*
X11172000Y-14565587D02*
X11152952Y-14556063D01*
X11152952Y-14556063D02*
X11143428Y-14546539D01*
X11438666Y-14365587D02*
X11400571Y-14365587D01*
X11400571Y-14365587D02*
X11381523Y-14375111D01*
X11381523Y-14375111D02*
X11371999Y-14384634D01*
X11371999Y-14384634D02*
X11352952Y-14413206D01*
X11352952Y-14413206D02*
X11343428Y-14451301D01*
X11343428Y-14451301D02*
X11343428Y-14527491D01*
X11343428Y-14527491D02*
X11352952Y-14546539D01*
X11352952Y-14546539D02*
X11362476Y-14556063D01*
X11362476Y-14556063D02*
X11381523Y-14565587D01*
X11381523Y-14565587D02*
X11419619Y-14565587D01*
X11419619Y-14565587D02*
X11438666Y-14556063D01*
X11438666Y-14556063D02*
X11448190Y-14546539D01*
X11448190Y-14546539D02*
X11457714Y-14527491D01*
X11457714Y-14527491D02*
X11457714Y-14479872D01*
X11457714Y-14479872D02*
X11448190Y-14460825D01*
X11448190Y-14460825D02*
X11438666Y-14451301D01*
X11438666Y-14451301D02*
X11419619Y-14441777D01*
X11419619Y-14441777D02*
X11381523Y-14441777D01*
X11381523Y-14441777D02*
X11362476Y-14451301D01*
X11362476Y-14451301D02*
X11352952Y-14460825D01*
X11352952Y-14460825D02*
X11343428Y-14479872D01*
X11695809Y-14565587D02*
X11695809Y-14365587D01*
X11781523Y-14565587D02*
X11781523Y-14460825D01*
X11781523Y-14460825D02*
X11772000Y-14441777D01*
X11772000Y-14441777D02*
X11752952Y-14432253D01*
X11752952Y-14432253D02*
X11724380Y-14432253D01*
X11724380Y-14432253D02*
X11705333Y-14441777D01*
X11705333Y-14441777D02*
X11695809Y-14451301D01*
X11905333Y-14565587D02*
X11886285Y-14556063D01*
X11886285Y-14556063D02*
X11876761Y-14546539D01*
X11876761Y-14546539D02*
X11867238Y-14527491D01*
X11867238Y-14527491D02*
X11867238Y-14470349D01*
X11867238Y-14470349D02*
X11876761Y-14451301D01*
X11876761Y-14451301D02*
X11886285Y-14441777D01*
X11886285Y-14441777D02*
X11905333Y-14432253D01*
X11905333Y-14432253D02*
X11933904Y-14432253D01*
X11933904Y-14432253D02*
X11952952Y-14441777D01*
X11952952Y-14441777D02*
X11962476Y-14451301D01*
X11962476Y-14451301D02*
X11972000Y-14470349D01*
X11972000Y-14470349D02*
X11972000Y-14527491D01*
X11972000Y-14527491D02*
X11962476Y-14546539D01*
X11962476Y-14546539D02*
X11952952Y-14556063D01*
X11952952Y-14556063D02*
X11933904Y-14565587D01*
X11933904Y-14565587D02*
X11905333Y-14565587D01*
X12086285Y-14565587D02*
X12067238Y-14556063D01*
X12067238Y-14556063D02*
X12057714Y-14537015D01*
X12057714Y-14537015D02*
X12057714Y-14365587D01*
X12238666Y-14556063D02*
X12219619Y-14565587D01*
X12219619Y-14565587D02*
X12181523Y-14565587D01*
X12181523Y-14565587D02*
X12162476Y-14556063D01*
X12162476Y-14556063D02*
X12152952Y-14537015D01*
X12152952Y-14537015D02*
X12152952Y-14460825D01*
X12152952Y-14460825D02*
X12162476Y-14441777D01*
X12162476Y-14441777D02*
X12181523Y-14432253D01*
X12181523Y-14432253D02*
X12219619Y-14432253D01*
X12219619Y-14432253D02*
X12238666Y-14441777D01*
X12238666Y-14441777D02*
X12248190Y-14460825D01*
X12248190Y-14460825D02*
X12248190Y-14479872D01*
X12248190Y-14479872D02*
X12152952Y-14498920D01*
X12324381Y-14556063D02*
X12343428Y-14565587D01*
X12343428Y-14565587D02*
X12381523Y-14565587D01*
X12381523Y-14565587D02*
X12400571Y-14556063D01*
X12400571Y-14556063D02*
X12410095Y-14537015D01*
X12410095Y-14537015D02*
X12410095Y-14527491D01*
X12410095Y-14527491D02*
X12400571Y-14508444D01*
X12400571Y-14508444D02*
X12381523Y-14498920D01*
X12381523Y-14498920D02*
X12352952Y-14498920D01*
X12352952Y-14498920D02*
X12333904Y-14489396D01*
X12333904Y-14489396D02*
X12324381Y-14470349D01*
X12324381Y-14470349D02*
X12324381Y-14460825D01*
X12324381Y-14460825D02*
X12333904Y-14441777D01*
X12333904Y-14441777D02*
X12352952Y-14432253D01*
X12352952Y-14432253D02*
X12381523Y-14432253D01*
X12381523Y-14432253D02*
X12400571Y-14441777D01*
X12476762Y-14641777D02*
X12486285Y-14632253D01*
X12486285Y-14632253D02*
X12505333Y-14603682D01*
X12505333Y-14603682D02*
X12514857Y-14584634D01*
X12514857Y-14584634D02*
X12524381Y-14556063D01*
X12524381Y-14556063D02*
X12533904Y-14508444D01*
X12533904Y-14508444D02*
X12533904Y-14470349D01*
X12533904Y-14470349D02*
X12524381Y-14422730D01*
X12524381Y-14422730D02*
X12514857Y-14394158D01*
X12514857Y-14394158D02*
X12505333Y-14375111D01*
X12505333Y-14375111D02*
X12486285Y-14346539D01*
X12486285Y-14346539D02*
X12476762Y-14337015D01*
X12838666Y-14641777D02*
X12829142Y-14632253D01*
X12829142Y-14632253D02*
X12810095Y-14603682D01*
X12810095Y-14603682D02*
X12800571Y-14584634D01*
X12800571Y-14584634D02*
X12791047Y-14556063D01*
X12791047Y-14556063D02*
X12781523Y-14508444D01*
X12781523Y-14508444D02*
X12781523Y-14470349D01*
X12781523Y-14470349D02*
X12791047Y-14422730D01*
X12791047Y-14422730D02*
X12800571Y-14394158D01*
X12800571Y-14394158D02*
X12810095Y-14375111D01*
X12810095Y-14375111D02*
X12829142Y-14346539D01*
X12829142Y-14346539D02*
X12838666Y-14337015D01*
X12914857Y-14432253D02*
X12914857Y-14565587D01*
X12914857Y-14451301D02*
X12924381Y-14441777D01*
X12924381Y-14441777D02*
X12943428Y-14432253D01*
X12943428Y-14432253D02*
X12972000Y-14432253D01*
X12972000Y-14432253D02*
X12991047Y-14441777D01*
X12991047Y-14441777D02*
X13000571Y-14460825D01*
X13000571Y-14460825D02*
X13000571Y-14565587D01*
X13124381Y-14565587D02*
X13105333Y-14556063D01*
X13105333Y-14556063D02*
X13095809Y-14546539D01*
X13095809Y-14546539D02*
X13086285Y-14527491D01*
X13086285Y-14527491D02*
X13086285Y-14470349D01*
X13086285Y-14470349D02*
X13095809Y-14451301D01*
X13095809Y-14451301D02*
X13105333Y-14441777D01*
X13105333Y-14441777D02*
X13124381Y-14432253D01*
X13124381Y-14432253D02*
X13152952Y-14432253D01*
X13152952Y-14432253D02*
X13172000Y-14441777D01*
X13172000Y-14441777D02*
X13181523Y-14451301D01*
X13181523Y-14451301D02*
X13191047Y-14470349D01*
X13191047Y-14470349D02*
X13191047Y-14527491D01*
X13191047Y-14527491D02*
X13181523Y-14546539D01*
X13181523Y-14546539D02*
X13172000Y-14556063D01*
X13172000Y-14556063D02*
X13152952Y-14565587D01*
X13152952Y-14565587D02*
X13124381Y-14565587D01*
X13248190Y-14432253D02*
X13324381Y-14432253D01*
X13276762Y-14365587D02*
X13276762Y-14537015D01*
X13276762Y-14537015D02*
X13286285Y-14556063D01*
X13286285Y-14556063D02*
X13305333Y-14565587D01*
X13305333Y-14565587D02*
X13324381Y-14565587D01*
X13543428Y-14432253D02*
X13543428Y-14632253D01*
X13543428Y-14441777D02*
X13562476Y-14432253D01*
X13562476Y-14432253D02*
X13600571Y-14432253D01*
X13600571Y-14432253D02*
X13619619Y-14441777D01*
X13619619Y-14441777D02*
X13629143Y-14451301D01*
X13629143Y-14451301D02*
X13638666Y-14470349D01*
X13638666Y-14470349D02*
X13638666Y-14527491D01*
X13638666Y-14527491D02*
X13629143Y-14546539D01*
X13629143Y-14546539D02*
X13619619Y-14556063D01*
X13619619Y-14556063D02*
X13600571Y-14565587D01*
X13600571Y-14565587D02*
X13562476Y-14565587D01*
X13562476Y-14565587D02*
X13543428Y-14556063D01*
X13752952Y-14565587D02*
X13733904Y-14556063D01*
X13733904Y-14556063D02*
X13724381Y-14537015D01*
X13724381Y-14537015D02*
X13724381Y-14365587D01*
X13914857Y-14565587D02*
X13914857Y-14460825D01*
X13914857Y-14460825D02*
X13905333Y-14441777D01*
X13905333Y-14441777D02*
X13886285Y-14432253D01*
X13886285Y-14432253D02*
X13848190Y-14432253D01*
X13848190Y-14432253D02*
X13829143Y-14441777D01*
X13914857Y-14556063D02*
X13895809Y-14565587D01*
X13895809Y-14565587D02*
X13848190Y-14565587D01*
X13848190Y-14565587D02*
X13829143Y-14556063D01*
X13829143Y-14556063D02*
X13819619Y-14537015D01*
X13819619Y-14537015D02*
X13819619Y-14517968D01*
X13819619Y-14517968D02*
X13829143Y-14498920D01*
X13829143Y-14498920D02*
X13848190Y-14489396D01*
X13848190Y-14489396D02*
X13895809Y-14489396D01*
X13895809Y-14489396D02*
X13914857Y-14479872D01*
X13981524Y-14432253D02*
X14057714Y-14432253D01*
X14010095Y-14365587D02*
X14010095Y-14537015D01*
X14010095Y-14537015D02*
X14019619Y-14556063D01*
X14019619Y-14556063D02*
X14038666Y-14565587D01*
X14038666Y-14565587D02*
X14057714Y-14565587D01*
X14200571Y-14556063D02*
X14181524Y-14565587D01*
X14181524Y-14565587D02*
X14143428Y-14565587D01*
X14143428Y-14565587D02*
X14124381Y-14556063D01*
X14124381Y-14556063D02*
X14114857Y-14537015D01*
X14114857Y-14537015D02*
X14114857Y-14460825D01*
X14114857Y-14460825D02*
X14124381Y-14441777D01*
X14124381Y-14441777D02*
X14143428Y-14432253D01*
X14143428Y-14432253D02*
X14181524Y-14432253D01*
X14181524Y-14432253D02*
X14200571Y-14441777D01*
X14200571Y-14441777D02*
X14210095Y-14460825D01*
X14210095Y-14460825D02*
X14210095Y-14479872D01*
X14210095Y-14479872D02*
X14114857Y-14498920D01*
X14381524Y-14565587D02*
X14381524Y-14365587D01*
X14381524Y-14556063D02*
X14362476Y-14565587D01*
X14362476Y-14565587D02*
X14324381Y-14565587D01*
X14324381Y-14565587D02*
X14305333Y-14556063D01*
X14305333Y-14556063D02*
X14295809Y-14546539D01*
X14295809Y-14546539D02*
X14286285Y-14527491D01*
X14286285Y-14527491D02*
X14286285Y-14470349D01*
X14286285Y-14470349D02*
X14295809Y-14451301D01*
X14295809Y-14451301D02*
X14305333Y-14441777D01*
X14305333Y-14441777D02*
X14324381Y-14432253D01*
X14324381Y-14432253D02*
X14362476Y-14432253D01*
X14362476Y-14432253D02*
X14381524Y-14441777D01*
X14457714Y-14641777D02*
X14467238Y-14632253D01*
X14467238Y-14632253D02*
X14486285Y-14603682D01*
X14486285Y-14603682D02*
X14495809Y-14584634D01*
X14495809Y-14584634D02*
X14505333Y-14556063D01*
X14505333Y-14556063D02*
X14514857Y-14508444D01*
X14514857Y-14508444D02*
X14514857Y-14470349D01*
X14514857Y-14470349D02*
X14505333Y-14422730D01*
X14505333Y-14422730D02*
X14495809Y-14394158D01*
X14495809Y-14394158D02*
X14486285Y-14375111D01*
X14486285Y-14375111D02*
X14467238Y-14346539D01*
X14467238Y-14346539D02*
X14457714Y-14337015D01*
X7411222Y-14664283D02*
X7411222Y-14864283D01*
X7311222Y-14764283D02*
X7511222Y-14764283D01*
X7762475Y-14674814D02*
X7771999Y-14665291D01*
X7771999Y-14665291D02*
X7791047Y-14655767D01*
X7791047Y-14655767D02*
X7838666Y-14655767D01*
X7838666Y-14655767D02*
X7857713Y-14665291D01*
X7857713Y-14665291D02*
X7867237Y-14674814D01*
X7867237Y-14674814D02*
X7876761Y-14693862D01*
X7876761Y-14693862D02*
X7876761Y-14712910D01*
X7876761Y-14712910D02*
X7867237Y-14741481D01*
X7867237Y-14741481D02*
X7752952Y-14855767D01*
X7752952Y-14855767D02*
X7876761Y-14855767D01*
X7962475Y-14836719D02*
X7971999Y-14846243D01*
X7971999Y-14846243D02*
X7962475Y-14855767D01*
X7962475Y-14855767D02*
X7952952Y-14846243D01*
X7952952Y-14846243D02*
X7962475Y-14836719D01*
X7962475Y-14836719D02*
X7962475Y-14855767D01*
X8048190Y-14674814D02*
X8057713Y-14665291D01*
X8057713Y-14665291D02*
X8076761Y-14655767D01*
X8076761Y-14655767D02*
X8124380Y-14655767D01*
X8124380Y-14655767D02*
X8143428Y-14665291D01*
X8143428Y-14665291D02*
X8152952Y-14674814D01*
X8152952Y-14674814D02*
X8162475Y-14693862D01*
X8162475Y-14693862D02*
X8162475Y-14712910D01*
X8162475Y-14712910D02*
X8152952Y-14741481D01*
X8152952Y-14741481D02*
X8038666Y-14855767D01*
X8038666Y-14855767D02*
X8162475Y-14855767D01*
X8286285Y-14655767D02*
X8305333Y-14655767D01*
X8305333Y-14655767D02*
X8324380Y-14665291D01*
X8324380Y-14665291D02*
X8333904Y-14674814D01*
X8333904Y-14674814D02*
X8343428Y-14693862D01*
X8343428Y-14693862D02*
X8352952Y-14731957D01*
X8352952Y-14731957D02*
X8352952Y-14779576D01*
X8352952Y-14779576D02*
X8343428Y-14817671D01*
X8343428Y-14817671D02*
X8333904Y-14836719D01*
X8333904Y-14836719D02*
X8324380Y-14846243D01*
X8324380Y-14846243D02*
X8305333Y-14855767D01*
X8305333Y-14855767D02*
X8286285Y-14855767D01*
X8286285Y-14855767D02*
X8267237Y-14846243D01*
X8267237Y-14846243D02*
X8257713Y-14836719D01*
X8257713Y-14836719D02*
X8248190Y-14817671D01*
X8248190Y-14817671D02*
X8238666Y-14779576D01*
X8238666Y-14779576D02*
X8238666Y-14731957D01*
X8238666Y-14731957D02*
X8248190Y-14693862D01*
X8248190Y-14693862D02*
X8257713Y-14674814D01*
X8257713Y-14674814D02*
X8267237Y-14665291D01*
X8267237Y-14665291D02*
X8286285Y-14655767D01*
X8476761Y-14655767D02*
X8495809Y-14655767D01*
X8495809Y-14655767D02*
X8514856Y-14665291D01*
X8514856Y-14665291D02*
X8524380Y-14674814D01*
X8524380Y-14674814D02*
X8533904Y-14693862D01*
X8533904Y-14693862D02*
X8543428Y-14731957D01*
X8543428Y-14731957D02*
X8543428Y-14779576D01*
X8543428Y-14779576D02*
X8533904Y-14817671D01*
X8533904Y-14817671D02*
X8524380Y-14836719D01*
X8524380Y-14836719D02*
X8514856Y-14846243D01*
X8514856Y-14846243D02*
X8495809Y-14855767D01*
X8495809Y-14855767D02*
X8476761Y-14855767D01*
X8476761Y-14855767D02*
X8457714Y-14846243D01*
X8457714Y-14846243D02*
X8448190Y-14836719D01*
X8448190Y-14836719D02*
X8438666Y-14817671D01*
X8438666Y-14817671D02*
X8429142Y-14779576D01*
X8429142Y-14779576D02*
X8429142Y-14731957D01*
X8429142Y-14731957D02*
X8438666Y-14693862D01*
X8438666Y-14693862D02*
X8448190Y-14674814D01*
X8448190Y-14674814D02*
X8457714Y-14665291D01*
X8457714Y-14665291D02*
X8476761Y-14655767D01*
X8629142Y-14855767D02*
X8629142Y-14722433D01*
X8629142Y-14741481D02*
X8638666Y-14731957D01*
X8638666Y-14731957D02*
X8657714Y-14722433D01*
X8657714Y-14722433D02*
X8686285Y-14722433D01*
X8686285Y-14722433D02*
X8705333Y-14731957D01*
X8705333Y-14731957D02*
X8714856Y-14751005D01*
X8714856Y-14751005D02*
X8714856Y-14855767D01*
X8714856Y-14751005D02*
X8724380Y-14731957D01*
X8724380Y-14731957D02*
X8743428Y-14722433D01*
X8743428Y-14722433D02*
X8771999Y-14722433D01*
X8771999Y-14722433D02*
X8791047Y-14731957D01*
X8791047Y-14731957D02*
X8800571Y-14751005D01*
X8800571Y-14751005D02*
X8800571Y-14855767D01*
X8895809Y-14855767D02*
X8895809Y-14722433D01*
X8895809Y-14741481D02*
X8905333Y-14731957D01*
X8905333Y-14731957D02*
X8924380Y-14722433D01*
X8924380Y-14722433D02*
X8952952Y-14722433D01*
X8952952Y-14722433D02*
X8971999Y-14731957D01*
X8971999Y-14731957D02*
X8981523Y-14751005D01*
X8981523Y-14751005D02*
X8981523Y-14855767D01*
X8981523Y-14751005D02*
X8991047Y-14731957D01*
X8991047Y-14731957D02*
X9010095Y-14722433D01*
X9010095Y-14722433D02*
X9038666Y-14722433D01*
X9038666Y-14722433D02*
X9057714Y-14731957D01*
X9057714Y-14731957D02*
X9067237Y-14751005D01*
X9067237Y-14751005D02*
X9067237Y-14855767D01*
X9457714Y-14646243D02*
X9286285Y-14903386D01*
X9714857Y-14655767D02*
X9733904Y-14655767D01*
X9733904Y-14655767D02*
X9752952Y-14665291D01*
X9752952Y-14665291D02*
X9762476Y-14674814D01*
X9762476Y-14674814D02*
X9771999Y-14693862D01*
X9771999Y-14693862D02*
X9781523Y-14731957D01*
X9781523Y-14731957D02*
X9781523Y-14779576D01*
X9781523Y-14779576D02*
X9771999Y-14817671D01*
X9771999Y-14817671D02*
X9762476Y-14836719D01*
X9762476Y-14836719D02*
X9752952Y-14846243D01*
X9752952Y-14846243D02*
X9733904Y-14855767D01*
X9733904Y-14855767D02*
X9714857Y-14855767D01*
X9714857Y-14855767D02*
X9695809Y-14846243D01*
X9695809Y-14846243D02*
X9686285Y-14836719D01*
X9686285Y-14836719D02*
X9676761Y-14817671D01*
X9676761Y-14817671D02*
X9667238Y-14779576D01*
X9667238Y-14779576D02*
X9667238Y-14731957D01*
X9667238Y-14731957D02*
X9676761Y-14693862D01*
X9676761Y-14693862D02*
X9686285Y-14674814D01*
X9686285Y-14674814D02*
X9695809Y-14665291D01*
X9695809Y-14665291D02*
X9714857Y-14655767D01*
X9867238Y-14836719D02*
X9876761Y-14846243D01*
X9876761Y-14846243D02*
X9867238Y-14855767D01*
X9867238Y-14855767D02*
X9857714Y-14846243D01*
X9857714Y-14846243D02*
X9867238Y-14836719D01*
X9867238Y-14836719D02*
X9867238Y-14855767D01*
X10000571Y-14655767D02*
X10019619Y-14655767D01*
X10019619Y-14655767D02*
X10038666Y-14665291D01*
X10038666Y-14665291D02*
X10048190Y-14674814D01*
X10048190Y-14674814D02*
X10057714Y-14693862D01*
X10057714Y-14693862D02*
X10067238Y-14731957D01*
X10067238Y-14731957D02*
X10067238Y-14779576D01*
X10067238Y-14779576D02*
X10057714Y-14817671D01*
X10057714Y-14817671D02*
X10048190Y-14836719D01*
X10048190Y-14836719D02*
X10038666Y-14846243D01*
X10038666Y-14846243D02*
X10019619Y-14855767D01*
X10019619Y-14855767D02*
X10000571Y-14855767D01*
X10000571Y-14855767D02*
X9981523Y-14846243D01*
X9981523Y-14846243D02*
X9971999Y-14836719D01*
X9971999Y-14836719D02*
X9962476Y-14817671D01*
X9962476Y-14817671D02*
X9952952Y-14779576D01*
X9952952Y-14779576D02*
X9952952Y-14731957D01*
X9952952Y-14731957D02*
X9962476Y-14693862D01*
X9962476Y-14693862D02*
X9971999Y-14674814D01*
X9971999Y-14674814D02*
X9981523Y-14665291D01*
X9981523Y-14665291D02*
X10000571Y-14655767D01*
X10181523Y-14741481D02*
X10162476Y-14731957D01*
X10162476Y-14731957D02*
X10152952Y-14722433D01*
X10152952Y-14722433D02*
X10143428Y-14703386D01*
X10143428Y-14703386D02*
X10143428Y-14693862D01*
X10143428Y-14693862D02*
X10152952Y-14674814D01*
X10152952Y-14674814D02*
X10162476Y-14665291D01*
X10162476Y-14665291D02*
X10181523Y-14655767D01*
X10181523Y-14655767D02*
X10219619Y-14655767D01*
X10219619Y-14655767D02*
X10238666Y-14665291D01*
X10238666Y-14665291D02*
X10248190Y-14674814D01*
X10248190Y-14674814D02*
X10257714Y-14693862D01*
X10257714Y-14693862D02*
X10257714Y-14703386D01*
X10257714Y-14703386D02*
X10248190Y-14722433D01*
X10248190Y-14722433D02*
X10238666Y-14731957D01*
X10238666Y-14731957D02*
X10219619Y-14741481D01*
X10219619Y-14741481D02*
X10181523Y-14741481D01*
X10181523Y-14741481D02*
X10162476Y-14751005D01*
X10162476Y-14751005D02*
X10152952Y-14760529D01*
X10152952Y-14760529D02*
X10143428Y-14779576D01*
X10143428Y-14779576D02*
X10143428Y-14817671D01*
X10143428Y-14817671D02*
X10152952Y-14836719D01*
X10152952Y-14836719D02*
X10162476Y-14846243D01*
X10162476Y-14846243D02*
X10181523Y-14855767D01*
X10181523Y-14855767D02*
X10219619Y-14855767D01*
X10219619Y-14855767D02*
X10238666Y-14846243D01*
X10238666Y-14846243D02*
X10248190Y-14836719D01*
X10248190Y-14836719D02*
X10257714Y-14817671D01*
X10257714Y-14817671D02*
X10257714Y-14779576D01*
X10257714Y-14779576D02*
X10248190Y-14760529D01*
X10248190Y-14760529D02*
X10238666Y-14751005D01*
X10238666Y-14751005D02*
X10219619Y-14741481D01*
X10429142Y-14655767D02*
X10391047Y-14655767D01*
X10391047Y-14655767D02*
X10371999Y-14665291D01*
X10371999Y-14665291D02*
X10362476Y-14674814D01*
X10362476Y-14674814D02*
X10343428Y-14703386D01*
X10343428Y-14703386D02*
X10333904Y-14741481D01*
X10333904Y-14741481D02*
X10333904Y-14817671D01*
X10333904Y-14817671D02*
X10343428Y-14836719D01*
X10343428Y-14836719D02*
X10352952Y-14846243D01*
X10352952Y-14846243D02*
X10371999Y-14855767D01*
X10371999Y-14855767D02*
X10410095Y-14855767D01*
X10410095Y-14855767D02*
X10429142Y-14846243D01*
X10429142Y-14846243D02*
X10438666Y-14836719D01*
X10438666Y-14836719D02*
X10448190Y-14817671D01*
X10448190Y-14817671D02*
X10448190Y-14770052D01*
X10448190Y-14770052D02*
X10438666Y-14751005D01*
X10438666Y-14751005D02*
X10429142Y-14741481D01*
X10429142Y-14741481D02*
X10410095Y-14731957D01*
X10410095Y-14731957D02*
X10371999Y-14731957D01*
X10371999Y-14731957D02*
X10352952Y-14741481D01*
X10352952Y-14741481D02*
X10343428Y-14751005D01*
X10343428Y-14751005D02*
X10333904Y-14770052D01*
X10619619Y-14655767D02*
X10581523Y-14655767D01*
X10581523Y-14655767D02*
X10562476Y-14665291D01*
X10562476Y-14665291D02*
X10552952Y-14674814D01*
X10552952Y-14674814D02*
X10533904Y-14703386D01*
X10533904Y-14703386D02*
X10524380Y-14741481D01*
X10524380Y-14741481D02*
X10524380Y-14817671D01*
X10524380Y-14817671D02*
X10533904Y-14836719D01*
X10533904Y-14836719D02*
X10543428Y-14846243D01*
X10543428Y-14846243D02*
X10562476Y-14855767D01*
X10562476Y-14855767D02*
X10600571Y-14855767D01*
X10600571Y-14855767D02*
X10619619Y-14846243D01*
X10619619Y-14846243D02*
X10629142Y-14836719D01*
X10629142Y-14836719D02*
X10638666Y-14817671D01*
X10638666Y-14817671D02*
X10638666Y-14770052D01*
X10638666Y-14770052D02*
X10629142Y-14751005D01*
X10629142Y-14751005D02*
X10619619Y-14741481D01*
X10619619Y-14741481D02*
X10600571Y-14731957D01*
X10600571Y-14731957D02*
X10562476Y-14731957D01*
X10562476Y-14731957D02*
X10543428Y-14741481D01*
X10543428Y-14741481D02*
X10533904Y-14751005D01*
X10533904Y-14751005D02*
X10524380Y-14770052D01*
X10714857Y-14655767D02*
X10714857Y-14693862D01*
X10791047Y-14655767D02*
X10791047Y-14693862D01*
X11086285Y-14931957D02*
X11076761Y-14922433D01*
X11076761Y-14922433D02*
X11057714Y-14893862D01*
X11057714Y-14893862D02*
X11048190Y-14874814D01*
X11048190Y-14874814D02*
X11038666Y-14846243D01*
X11038666Y-14846243D02*
X11029142Y-14798624D01*
X11029142Y-14798624D02*
X11029142Y-14760529D01*
X11029142Y-14760529D02*
X11038666Y-14712910D01*
X11038666Y-14712910D02*
X11048190Y-14684338D01*
X11048190Y-14684338D02*
X11057714Y-14665291D01*
X11057714Y-14665291D02*
X11076761Y-14636719D01*
X11076761Y-14636719D02*
X11086285Y-14627195D01*
X11248190Y-14722433D02*
X11248190Y-14855767D01*
X11200571Y-14646243D02*
X11152952Y-14789100D01*
X11152952Y-14789100D02*
X11276761Y-14789100D01*
X11505333Y-14855767D02*
X11505333Y-14655767D01*
X11591047Y-14855767D02*
X11591047Y-14751005D01*
X11591047Y-14751005D02*
X11581523Y-14731957D01*
X11581523Y-14731957D02*
X11562476Y-14722433D01*
X11562476Y-14722433D02*
X11533904Y-14722433D01*
X11533904Y-14722433D02*
X11514857Y-14731957D01*
X11514857Y-14731957D02*
X11505333Y-14741481D01*
X11714857Y-14855767D02*
X11695809Y-14846243D01*
X11695809Y-14846243D02*
X11686285Y-14836719D01*
X11686285Y-14836719D02*
X11676761Y-14817671D01*
X11676761Y-14817671D02*
X11676761Y-14760529D01*
X11676761Y-14760529D02*
X11686285Y-14741481D01*
X11686285Y-14741481D02*
X11695809Y-14731957D01*
X11695809Y-14731957D02*
X11714857Y-14722433D01*
X11714857Y-14722433D02*
X11743428Y-14722433D01*
X11743428Y-14722433D02*
X11762476Y-14731957D01*
X11762476Y-14731957D02*
X11772000Y-14741481D01*
X11772000Y-14741481D02*
X11781523Y-14760529D01*
X11781523Y-14760529D02*
X11781523Y-14817671D01*
X11781523Y-14817671D02*
X11772000Y-14836719D01*
X11772000Y-14836719D02*
X11762476Y-14846243D01*
X11762476Y-14846243D02*
X11743428Y-14855767D01*
X11743428Y-14855767D02*
X11714857Y-14855767D01*
X11895809Y-14855767D02*
X11876761Y-14846243D01*
X11876761Y-14846243D02*
X11867238Y-14827195D01*
X11867238Y-14827195D02*
X11867238Y-14655767D01*
X12048190Y-14846243D02*
X12029142Y-14855767D01*
X12029142Y-14855767D02*
X11991047Y-14855767D01*
X11991047Y-14855767D02*
X11972000Y-14846243D01*
X11972000Y-14846243D02*
X11962476Y-14827195D01*
X11962476Y-14827195D02*
X11962476Y-14751005D01*
X11962476Y-14751005D02*
X11972000Y-14731957D01*
X11972000Y-14731957D02*
X11991047Y-14722433D01*
X11991047Y-14722433D02*
X12029142Y-14722433D01*
X12029142Y-14722433D02*
X12048190Y-14731957D01*
X12048190Y-14731957D02*
X12057714Y-14751005D01*
X12057714Y-14751005D02*
X12057714Y-14770052D01*
X12057714Y-14770052D02*
X11962476Y-14789100D01*
X12133904Y-14846243D02*
X12152952Y-14855767D01*
X12152952Y-14855767D02*
X12191047Y-14855767D01*
X12191047Y-14855767D02*
X12210095Y-14846243D01*
X12210095Y-14846243D02*
X12219619Y-14827195D01*
X12219619Y-14827195D02*
X12219619Y-14817671D01*
X12219619Y-14817671D02*
X12210095Y-14798624D01*
X12210095Y-14798624D02*
X12191047Y-14789100D01*
X12191047Y-14789100D02*
X12162476Y-14789100D01*
X12162476Y-14789100D02*
X12143428Y-14779576D01*
X12143428Y-14779576D02*
X12133904Y-14760529D01*
X12133904Y-14760529D02*
X12133904Y-14751005D01*
X12133904Y-14751005D02*
X12143428Y-14731957D01*
X12143428Y-14731957D02*
X12162476Y-14722433D01*
X12162476Y-14722433D02*
X12191047Y-14722433D01*
X12191047Y-14722433D02*
X12210095Y-14731957D01*
X12286285Y-14931957D02*
X12295809Y-14922433D01*
X12295809Y-14922433D02*
X12314857Y-14893862D01*
X12314857Y-14893862D02*
X12324381Y-14874814D01*
X12324381Y-14874814D02*
X12333904Y-14846243D01*
X12333904Y-14846243D02*
X12343428Y-14798624D01*
X12343428Y-14798624D02*
X12343428Y-14760529D01*
X12343428Y-14760529D02*
X12333904Y-14712910D01*
X12333904Y-14712910D02*
X12324381Y-14684338D01*
X12324381Y-14684338D02*
X12314857Y-14665291D01*
X12314857Y-14665291D02*
X12295809Y-14636719D01*
X12295809Y-14636719D02*
X12286285Y-14627195D01*
X12648190Y-14931957D02*
X12638666Y-14922433D01*
X12638666Y-14922433D02*
X12619619Y-14893862D01*
X12619619Y-14893862D02*
X12610095Y-14874814D01*
X12610095Y-14874814D02*
X12600571Y-14846243D01*
X12600571Y-14846243D02*
X12591047Y-14798624D01*
X12591047Y-14798624D02*
X12591047Y-14760529D01*
X12591047Y-14760529D02*
X12600571Y-14712910D01*
X12600571Y-14712910D02*
X12610095Y-14684338D01*
X12610095Y-14684338D02*
X12619619Y-14665291D01*
X12619619Y-14665291D02*
X12638666Y-14636719D01*
X12638666Y-14636719D02*
X12648190Y-14627195D01*
X12724381Y-14722433D02*
X12724381Y-14855767D01*
X12724381Y-14741481D02*
X12733904Y-14731957D01*
X12733904Y-14731957D02*
X12752952Y-14722433D01*
X12752952Y-14722433D02*
X12781523Y-14722433D01*
X12781523Y-14722433D02*
X12800571Y-14731957D01*
X12800571Y-14731957D02*
X12810095Y-14751005D01*
X12810095Y-14751005D02*
X12810095Y-14855767D01*
X12933904Y-14855767D02*
X12914857Y-14846243D01*
X12914857Y-14846243D02*
X12905333Y-14836719D01*
X12905333Y-14836719D02*
X12895809Y-14817671D01*
X12895809Y-14817671D02*
X12895809Y-14760529D01*
X12895809Y-14760529D02*
X12905333Y-14741481D01*
X12905333Y-14741481D02*
X12914857Y-14731957D01*
X12914857Y-14731957D02*
X12933904Y-14722433D01*
X12933904Y-14722433D02*
X12962476Y-14722433D01*
X12962476Y-14722433D02*
X12981523Y-14731957D01*
X12981523Y-14731957D02*
X12991047Y-14741481D01*
X12991047Y-14741481D02*
X13000571Y-14760529D01*
X13000571Y-14760529D02*
X13000571Y-14817671D01*
X13000571Y-14817671D02*
X12991047Y-14836719D01*
X12991047Y-14836719D02*
X12981523Y-14846243D01*
X12981523Y-14846243D02*
X12962476Y-14855767D01*
X12962476Y-14855767D02*
X12933904Y-14855767D01*
X13057714Y-14722433D02*
X13133904Y-14722433D01*
X13086285Y-14655767D02*
X13086285Y-14827195D01*
X13086285Y-14827195D02*
X13095809Y-14846243D01*
X13095809Y-14846243D02*
X13114857Y-14855767D01*
X13114857Y-14855767D02*
X13133904Y-14855767D01*
X13352952Y-14722433D02*
X13352952Y-14922433D01*
X13352952Y-14731957D02*
X13372000Y-14722433D01*
X13372000Y-14722433D02*
X13410095Y-14722433D01*
X13410095Y-14722433D02*
X13429143Y-14731957D01*
X13429143Y-14731957D02*
X13438666Y-14741481D01*
X13438666Y-14741481D02*
X13448190Y-14760529D01*
X13448190Y-14760529D02*
X13448190Y-14817671D01*
X13448190Y-14817671D02*
X13438666Y-14836719D01*
X13438666Y-14836719D02*
X13429143Y-14846243D01*
X13429143Y-14846243D02*
X13410095Y-14855767D01*
X13410095Y-14855767D02*
X13372000Y-14855767D01*
X13372000Y-14855767D02*
X13352952Y-14846243D01*
X13562476Y-14855767D02*
X13543428Y-14846243D01*
X13543428Y-14846243D02*
X13533904Y-14827195D01*
X13533904Y-14827195D02*
X13533904Y-14655767D01*
X13724381Y-14855767D02*
X13724381Y-14751005D01*
X13724381Y-14751005D02*
X13714857Y-14731957D01*
X13714857Y-14731957D02*
X13695809Y-14722433D01*
X13695809Y-14722433D02*
X13657714Y-14722433D01*
X13657714Y-14722433D02*
X13638666Y-14731957D01*
X13724381Y-14846243D02*
X13705333Y-14855767D01*
X13705333Y-14855767D02*
X13657714Y-14855767D01*
X13657714Y-14855767D02*
X13638666Y-14846243D01*
X13638666Y-14846243D02*
X13629143Y-14827195D01*
X13629143Y-14827195D02*
X13629143Y-14808148D01*
X13629143Y-14808148D02*
X13638666Y-14789100D01*
X13638666Y-14789100D02*
X13657714Y-14779576D01*
X13657714Y-14779576D02*
X13705333Y-14779576D01*
X13705333Y-14779576D02*
X13724381Y-14770052D01*
X13791047Y-14722433D02*
X13867238Y-14722433D01*
X13819619Y-14655767D02*
X13819619Y-14827195D01*
X13819619Y-14827195D02*
X13829143Y-14846243D01*
X13829143Y-14846243D02*
X13848190Y-14855767D01*
X13848190Y-14855767D02*
X13867238Y-14855767D01*
X14010095Y-14846243D02*
X13991047Y-14855767D01*
X13991047Y-14855767D02*
X13952952Y-14855767D01*
X13952952Y-14855767D02*
X13933904Y-14846243D01*
X13933904Y-14846243D02*
X13924381Y-14827195D01*
X13924381Y-14827195D02*
X13924381Y-14751005D01*
X13924381Y-14751005D02*
X13933904Y-14731957D01*
X13933904Y-14731957D02*
X13952952Y-14722433D01*
X13952952Y-14722433D02*
X13991047Y-14722433D01*
X13991047Y-14722433D02*
X14010095Y-14731957D01*
X14010095Y-14731957D02*
X14019619Y-14751005D01*
X14019619Y-14751005D02*
X14019619Y-14770052D01*
X14019619Y-14770052D02*
X13924381Y-14789100D01*
X14191047Y-14855767D02*
X14191047Y-14655767D01*
X14191047Y-14846243D02*
X14172000Y-14855767D01*
X14172000Y-14855767D02*
X14133904Y-14855767D01*
X14133904Y-14855767D02*
X14114857Y-14846243D01*
X14114857Y-14846243D02*
X14105333Y-14836719D01*
X14105333Y-14836719D02*
X14095809Y-14817671D01*
X14095809Y-14817671D02*
X14095809Y-14760529D01*
X14095809Y-14760529D02*
X14105333Y-14741481D01*
X14105333Y-14741481D02*
X14114857Y-14731957D01*
X14114857Y-14731957D02*
X14133904Y-14722433D01*
X14133904Y-14722433D02*
X14172000Y-14722433D01*
X14172000Y-14722433D02*
X14191047Y-14731957D01*
X14267238Y-14931957D02*
X14276762Y-14922433D01*
X14276762Y-14922433D02*
X14295809Y-14893862D01*
X14295809Y-14893862D02*
X14305333Y-14874814D01*
X14305333Y-14874814D02*
X14314857Y-14846243D01*
X14314857Y-14846243D02*
X14324381Y-14798624D01*
X14324381Y-14798624D02*
X14324381Y-14760529D01*
X14324381Y-14760529D02*
X14314857Y-14712910D01*
X14314857Y-14712910D02*
X14305333Y-14684338D01*
X14305333Y-14684338D02*
X14295809Y-14665291D01*
X14295809Y-14665291D02*
X14276762Y-14636719D01*
X14276762Y-14636719D02*
X14267238Y-14627195D01*
X7481934Y-15154994D02*
X7481934Y-15013572D01*
X7340511Y-15013572D01*
X7340511Y-15154994D01*
X7481934Y-15154994D01*
X7752952Y-14975767D02*
X7876761Y-14975767D01*
X7876761Y-14975767D02*
X7810094Y-15051957D01*
X7810094Y-15051957D02*
X7838666Y-15051957D01*
X7838666Y-15051957D02*
X7857713Y-15061481D01*
X7857713Y-15061481D02*
X7867237Y-15071005D01*
X7867237Y-15071005D02*
X7876761Y-15090052D01*
X7876761Y-15090052D02*
X7876761Y-15137671D01*
X7876761Y-15137671D02*
X7867237Y-15156719D01*
X7867237Y-15156719D02*
X7857713Y-15166243D01*
X7857713Y-15166243D02*
X7838666Y-15175767D01*
X7838666Y-15175767D02*
X7781523Y-15175767D01*
X7781523Y-15175767D02*
X7762475Y-15166243D01*
X7762475Y-15166243D02*
X7752952Y-15156719D01*
X7962475Y-15156719D02*
X7971999Y-15166243D01*
X7971999Y-15166243D02*
X7962475Y-15175767D01*
X7962475Y-15175767D02*
X7952952Y-15166243D01*
X7952952Y-15166243D02*
X7962475Y-15156719D01*
X7962475Y-15156719D02*
X7962475Y-15175767D01*
X8095809Y-14975767D02*
X8114856Y-14975767D01*
X8114856Y-14975767D02*
X8133904Y-14985291D01*
X8133904Y-14985291D02*
X8143428Y-14994814D01*
X8143428Y-14994814D02*
X8152952Y-15013862D01*
X8152952Y-15013862D02*
X8162475Y-15051957D01*
X8162475Y-15051957D02*
X8162475Y-15099576D01*
X8162475Y-15099576D02*
X8152952Y-15137671D01*
X8152952Y-15137671D02*
X8143428Y-15156719D01*
X8143428Y-15156719D02*
X8133904Y-15166243D01*
X8133904Y-15166243D02*
X8114856Y-15175767D01*
X8114856Y-15175767D02*
X8095809Y-15175767D01*
X8095809Y-15175767D02*
X8076761Y-15166243D01*
X8076761Y-15166243D02*
X8067237Y-15156719D01*
X8067237Y-15156719D02*
X8057713Y-15137671D01*
X8057713Y-15137671D02*
X8048190Y-15099576D01*
X8048190Y-15099576D02*
X8048190Y-15051957D01*
X8048190Y-15051957D02*
X8057713Y-15013862D01*
X8057713Y-15013862D02*
X8067237Y-14994814D01*
X8067237Y-14994814D02*
X8076761Y-14985291D01*
X8076761Y-14985291D02*
X8095809Y-14975767D01*
X8286285Y-14975767D02*
X8305333Y-14975767D01*
X8305333Y-14975767D02*
X8324380Y-14985291D01*
X8324380Y-14985291D02*
X8333904Y-14994814D01*
X8333904Y-14994814D02*
X8343428Y-15013862D01*
X8343428Y-15013862D02*
X8352952Y-15051957D01*
X8352952Y-15051957D02*
X8352952Y-15099576D01*
X8352952Y-15099576D02*
X8343428Y-15137671D01*
X8343428Y-15137671D02*
X8333904Y-15156719D01*
X8333904Y-15156719D02*
X8324380Y-15166243D01*
X8324380Y-15166243D02*
X8305333Y-15175767D01*
X8305333Y-15175767D02*
X8286285Y-15175767D01*
X8286285Y-15175767D02*
X8267237Y-15166243D01*
X8267237Y-15166243D02*
X8257713Y-15156719D01*
X8257713Y-15156719D02*
X8248190Y-15137671D01*
X8248190Y-15137671D02*
X8238666Y-15099576D01*
X8238666Y-15099576D02*
X8238666Y-15051957D01*
X8238666Y-15051957D02*
X8248190Y-15013862D01*
X8248190Y-15013862D02*
X8257713Y-14994814D01*
X8257713Y-14994814D02*
X8267237Y-14985291D01*
X8267237Y-14985291D02*
X8286285Y-14975767D01*
X8476761Y-14975767D02*
X8495809Y-14975767D01*
X8495809Y-14975767D02*
X8514856Y-14985291D01*
X8514856Y-14985291D02*
X8524380Y-14994814D01*
X8524380Y-14994814D02*
X8533904Y-15013862D01*
X8533904Y-15013862D02*
X8543428Y-15051957D01*
X8543428Y-15051957D02*
X8543428Y-15099576D01*
X8543428Y-15099576D02*
X8533904Y-15137671D01*
X8533904Y-15137671D02*
X8524380Y-15156719D01*
X8524380Y-15156719D02*
X8514856Y-15166243D01*
X8514856Y-15166243D02*
X8495809Y-15175767D01*
X8495809Y-15175767D02*
X8476761Y-15175767D01*
X8476761Y-15175767D02*
X8457714Y-15166243D01*
X8457714Y-15166243D02*
X8448190Y-15156719D01*
X8448190Y-15156719D02*
X8438666Y-15137671D01*
X8438666Y-15137671D02*
X8429142Y-15099576D01*
X8429142Y-15099576D02*
X8429142Y-15051957D01*
X8429142Y-15051957D02*
X8438666Y-15013862D01*
X8438666Y-15013862D02*
X8448190Y-14994814D01*
X8448190Y-14994814D02*
X8457714Y-14985291D01*
X8457714Y-14985291D02*
X8476761Y-14975767D01*
X8629142Y-15175767D02*
X8629142Y-15042433D01*
X8629142Y-15061481D02*
X8638666Y-15051957D01*
X8638666Y-15051957D02*
X8657714Y-15042433D01*
X8657714Y-15042433D02*
X8686285Y-15042433D01*
X8686285Y-15042433D02*
X8705333Y-15051957D01*
X8705333Y-15051957D02*
X8714856Y-15071005D01*
X8714856Y-15071005D02*
X8714856Y-15175767D01*
X8714856Y-15071005D02*
X8724380Y-15051957D01*
X8724380Y-15051957D02*
X8743428Y-15042433D01*
X8743428Y-15042433D02*
X8771999Y-15042433D01*
X8771999Y-15042433D02*
X8791047Y-15051957D01*
X8791047Y-15051957D02*
X8800571Y-15071005D01*
X8800571Y-15071005D02*
X8800571Y-15175767D01*
X8895809Y-15175767D02*
X8895809Y-15042433D01*
X8895809Y-15061481D02*
X8905333Y-15051957D01*
X8905333Y-15051957D02*
X8924380Y-15042433D01*
X8924380Y-15042433D02*
X8952952Y-15042433D01*
X8952952Y-15042433D02*
X8971999Y-15051957D01*
X8971999Y-15051957D02*
X8981523Y-15071005D01*
X8981523Y-15071005D02*
X8981523Y-15175767D01*
X8981523Y-15071005D02*
X8991047Y-15051957D01*
X8991047Y-15051957D02*
X9010095Y-15042433D01*
X9010095Y-15042433D02*
X9038666Y-15042433D01*
X9038666Y-15042433D02*
X9057714Y-15051957D01*
X9057714Y-15051957D02*
X9067237Y-15071005D01*
X9067237Y-15071005D02*
X9067237Y-15175767D01*
X9457714Y-14966243D02*
X9286285Y-15223386D01*
X9714857Y-14975767D02*
X9733904Y-14975767D01*
X9733904Y-14975767D02*
X9752952Y-14985291D01*
X9752952Y-14985291D02*
X9762476Y-14994814D01*
X9762476Y-14994814D02*
X9771999Y-15013862D01*
X9771999Y-15013862D02*
X9781523Y-15051957D01*
X9781523Y-15051957D02*
X9781523Y-15099576D01*
X9781523Y-15099576D02*
X9771999Y-15137671D01*
X9771999Y-15137671D02*
X9762476Y-15156719D01*
X9762476Y-15156719D02*
X9752952Y-15166243D01*
X9752952Y-15166243D02*
X9733904Y-15175767D01*
X9733904Y-15175767D02*
X9714857Y-15175767D01*
X9714857Y-15175767D02*
X9695809Y-15166243D01*
X9695809Y-15166243D02*
X9686285Y-15156719D01*
X9686285Y-15156719D02*
X9676761Y-15137671D01*
X9676761Y-15137671D02*
X9667238Y-15099576D01*
X9667238Y-15099576D02*
X9667238Y-15051957D01*
X9667238Y-15051957D02*
X9676761Y-15013862D01*
X9676761Y-15013862D02*
X9686285Y-14994814D01*
X9686285Y-14994814D02*
X9695809Y-14985291D01*
X9695809Y-14985291D02*
X9714857Y-14975767D01*
X9867238Y-15156719D02*
X9876761Y-15166243D01*
X9876761Y-15166243D02*
X9867238Y-15175767D01*
X9867238Y-15175767D02*
X9857714Y-15166243D01*
X9857714Y-15166243D02*
X9867238Y-15156719D01*
X9867238Y-15156719D02*
X9867238Y-15175767D01*
X10067238Y-15175767D02*
X9952952Y-15175767D01*
X10010095Y-15175767D02*
X10010095Y-14975767D01*
X10010095Y-14975767D02*
X9991047Y-15004338D01*
X9991047Y-15004338D02*
X9971999Y-15023386D01*
X9971999Y-15023386D02*
X9952952Y-15032910D01*
X10257714Y-15175767D02*
X10143428Y-15175767D01*
X10200571Y-15175767D02*
X10200571Y-14975767D01*
X10200571Y-14975767D02*
X10181523Y-15004338D01*
X10181523Y-15004338D02*
X10162476Y-15023386D01*
X10162476Y-15023386D02*
X10143428Y-15032910D01*
X10371999Y-15061481D02*
X10352952Y-15051957D01*
X10352952Y-15051957D02*
X10343428Y-15042433D01*
X10343428Y-15042433D02*
X10333904Y-15023386D01*
X10333904Y-15023386D02*
X10333904Y-15013862D01*
X10333904Y-15013862D02*
X10343428Y-14994814D01*
X10343428Y-14994814D02*
X10352952Y-14985291D01*
X10352952Y-14985291D02*
X10371999Y-14975767D01*
X10371999Y-14975767D02*
X10410095Y-14975767D01*
X10410095Y-14975767D02*
X10429142Y-14985291D01*
X10429142Y-14985291D02*
X10438666Y-14994814D01*
X10438666Y-14994814D02*
X10448190Y-15013862D01*
X10448190Y-15013862D02*
X10448190Y-15023386D01*
X10448190Y-15023386D02*
X10438666Y-15042433D01*
X10438666Y-15042433D02*
X10429142Y-15051957D01*
X10429142Y-15051957D02*
X10410095Y-15061481D01*
X10410095Y-15061481D02*
X10371999Y-15061481D01*
X10371999Y-15061481D02*
X10352952Y-15071005D01*
X10352952Y-15071005D02*
X10343428Y-15080529D01*
X10343428Y-15080529D02*
X10333904Y-15099576D01*
X10333904Y-15099576D02*
X10333904Y-15137671D01*
X10333904Y-15137671D02*
X10343428Y-15156719D01*
X10343428Y-15156719D02*
X10352952Y-15166243D01*
X10352952Y-15166243D02*
X10371999Y-15175767D01*
X10371999Y-15175767D02*
X10410095Y-15175767D01*
X10410095Y-15175767D02*
X10429142Y-15166243D01*
X10429142Y-15166243D02*
X10438666Y-15156719D01*
X10438666Y-15156719D02*
X10448190Y-15137671D01*
X10448190Y-15137671D02*
X10448190Y-15099576D01*
X10448190Y-15099576D02*
X10438666Y-15080529D01*
X10438666Y-15080529D02*
X10429142Y-15071005D01*
X10429142Y-15071005D02*
X10410095Y-15061481D01*
X10638666Y-15175767D02*
X10524380Y-15175767D01*
X10581523Y-15175767D02*
X10581523Y-14975767D01*
X10581523Y-14975767D02*
X10562476Y-15004338D01*
X10562476Y-15004338D02*
X10543428Y-15023386D01*
X10543428Y-15023386D02*
X10524380Y-15032910D01*
X10714857Y-14975767D02*
X10714857Y-15013862D01*
X10791047Y-14975767D02*
X10791047Y-15013862D01*
X11086285Y-15251957D02*
X11076761Y-15242433D01*
X11076761Y-15242433D02*
X11057714Y-15213862D01*
X11057714Y-15213862D02*
X11048190Y-15194814D01*
X11048190Y-15194814D02*
X11038666Y-15166243D01*
X11038666Y-15166243D02*
X11029142Y-15118624D01*
X11029142Y-15118624D02*
X11029142Y-15080529D01*
X11029142Y-15080529D02*
X11038666Y-15032910D01*
X11038666Y-15032910D02*
X11048190Y-15004338D01*
X11048190Y-15004338D02*
X11057714Y-14985291D01*
X11057714Y-14985291D02*
X11076761Y-14956719D01*
X11076761Y-14956719D02*
X11086285Y-14947195D01*
X11257714Y-14975767D02*
X11162476Y-14975767D01*
X11162476Y-14975767D02*
X11152952Y-15071005D01*
X11152952Y-15071005D02*
X11162476Y-15061481D01*
X11162476Y-15061481D02*
X11181523Y-15051957D01*
X11181523Y-15051957D02*
X11229142Y-15051957D01*
X11229142Y-15051957D02*
X11248190Y-15061481D01*
X11248190Y-15061481D02*
X11257714Y-15071005D01*
X11257714Y-15071005D02*
X11267238Y-15090052D01*
X11267238Y-15090052D02*
X11267238Y-15137671D01*
X11267238Y-15137671D02*
X11257714Y-15156719D01*
X11257714Y-15156719D02*
X11248190Y-15166243D01*
X11248190Y-15166243D02*
X11229142Y-15175767D01*
X11229142Y-15175767D02*
X11181523Y-15175767D01*
X11181523Y-15175767D02*
X11162476Y-15166243D01*
X11162476Y-15166243D02*
X11152952Y-15156719D01*
X11438666Y-15042433D02*
X11438666Y-15175767D01*
X11391047Y-14966243D02*
X11343428Y-15109100D01*
X11343428Y-15109100D02*
X11467238Y-15109100D01*
X11695809Y-15175767D02*
X11695809Y-14975767D01*
X11781523Y-15175767D02*
X11781523Y-15071005D01*
X11781523Y-15071005D02*
X11772000Y-15051957D01*
X11772000Y-15051957D02*
X11752952Y-15042433D01*
X11752952Y-15042433D02*
X11724380Y-15042433D01*
X11724380Y-15042433D02*
X11705333Y-15051957D01*
X11705333Y-15051957D02*
X11695809Y-15061481D01*
X11905333Y-15175767D02*
X11886285Y-15166243D01*
X11886285Y-15166243D02*
X11876761Y-15156719D01*
X11876761Y-15156719D02*
X11867238Y-15137671D01*
X11867238Y-15137671D02*
X11867238Y-15080529D01*
X11867238Y-15080529D02*
X11876761Y-15061481D01*
X11876761Y-15061481D02*
X11886285Y-15051957D01*
X11886285Y-15051957D02*
X11905333Y-15042433D01*
X11905333Y-15042433D02*
X11933904Y-15042433D01*
X11933904Y-15042433D02*
X11952952Y-15051957D01*
X11952952Y-15051957D02*
X11962476Y-15061481D01*
X11962476Y-15061481D02*
X11972000Y-15080529D01*
X11972000Y-15080529D02*
X11972000Y-15137671D01*
X11972000Y-15137671D02*
X11962476Y-15156719D01*
X11962476Y-15156719D02*
X11952952Y-15166243D01*
X11952952Y-15166243D02*
X11933904Y-15175767D01*
X11933904Y-15175767D02*
X11905333Y-15175767D01*
X12086285Y-15175767D02*
X12067238Y-15166243D01*
X12067238Y-15166243D02*
X12057714Y-15147195D01*
X12057714Y-15147195D02*
X12057714Y-14975767D01*
X12238666Y-15166243D02*
X12219619Y-15175767D01*
X12219619Y-15175767D02*
X12181523Y-15175767D01*
X12181523Y-15175767D02*
X12162476Y-15166243D01*
X12162476Y-15166243D02*
X12152952Y-15147195D01*
X12152952Y-15147195D02*
X12152952Y-15071005D01*
X12152952Y-15071005D02*
X12162476Y-15051957D01*
X12162476Y-15051957D02*
X12181523Y-15042433D01*
X12181523Y-15042433D02*
X12219619Y-15042433D01*
X12219619Y-15042433D02*
X12238666Y-15051957D01*
X12238666Y-15051957D02*
X12248190Y-15071005D01*
X12248190Y-15071005D02*
X12248190Y-15090052D01*
X12248190Y-15090052D02*
X12152952Y-15109100D01*
X12324381Y-15166243D02*
X12343428Y-15175767D01*
X12343428Y-15175767D02*
X12381523Y-15175767D01*
X12381523Y-15175767D02*
X12400571Y-15166243D01*
X12400571Y-15166243D02*
X12410095Y-15147195D01*
X12410095Y-15147195D02*
X12410095Y-15137671D01*
X12410095Y-15137671D02*
X12400571Y-15118624D01*
X12400571Y-15118624D02*
X12381523Y-15109100D01*
X12381523Y-15109100D02*
X12352952Y-15109100D01*
X12352952Y-15109100D02*
X12333904Y-15099576D01*
X12333904Y-15099576D02*
X12324381Y-15080529D01*
X12324381Y-15080529D02*
X12324381Y-15071005D01*
X12324381Y-15071005D02*
X12333904Y-15051957D01*
X12333904Y-15051957D02*
X12352952Y-15042433D01*
X12352952Y-15042433D02*
X12381523Y-15042433D01*
X12381523Y-15042433D02*
X12400571Y-15051957D01*
X12476762Y-15251957D02*
X12486285Y-15242433D01*
X12486285Y-15242433D02*
X12505333Y-15213862D01*
X12505333Y-15213862D02*
X12514857Y-15194814D01*
X12514857Y-15194814D02*
X12524381Y-15166243D01*
X12524381Y-15166243D02*
X12533904Y-15118624D01*
X12533904Y-15118624D02*
X12533904Y-15080529D01*
X12533904Y-15080529D02*
X12524381Y-15032910D01*
X12524381Y-15032910D02*
X12514857Y-15004338D01*
X12514857Y-15004338D02*
X12505333Y-14985291D01*
X12505333Y-14985291D02*
X12486285Y-14956719D01*
X12486285Y-14956719D02*
X12476762Y-14947195D01*
X12838666Y-15251957D02*
X12829142Y-15242433D01*
X12829142Y-15242433D02*
X12810095Y-15213862D01*
X12810095Y-15213862D02*
X12800571Y-15194814D01*
X12800571Y-15194814D02*
X12791047Y-15166243D01*
X12791047Y-15166243D02*
X12781523Y-15118624D01*
X12781523Y-15118624D02*
X12781523Y-15080529D01*
X12781523Y-15080529D02*
X12791047Y-15032910D01*
X12791047Y-15032910D02*
X12800571Y-15004338D01*
X12800571Y-15004338D02*
X12810095Y-14985291D01*
X12810095Y-14985291D02*
X12829142Y-14956719D01*
X12829142Y-14956719D02*
X12838666Y-14947195D01*
X12914857Y-15042433D02*
X12914857Y-15175767D01*
X12914857Y-15061481D02*
X12924381Y-15051957D01*
X12924381Y-15051957D02*
X12943428Y-15042433D01*
X12943428Y-15042433D02*
X12972000Y-15042433D01*
X12972000Y-15042433D02*
X12991047Y-15051957D01*
X12991047Y-15051957D02*
X13000571Y-15071005D01*
X13000571Y-15071005D02*
X13000571Y-15175767D01*
X13124381Y-15175767D02*
X13105333Y-15166243D01*
X13105333Y-15166243D02*
X13095809Y-15156719D01*
X13095809Y-15156719D02*
X13086285Y-15137671D01*
X13086285Y-15137671D02*
X13086285Y-15080529D01*
X13086285Y-15080529D02*
X13095809Y-15061481D01*
X13095809Y-15061481D02*
X13105333Y-15051957D01*
X13105333Y-15051957D02*
X13124381Y-15042433D01*
X13124381Y-15042433D02*
X13152952Y-15042433D01*
X13152952Y-15042433D02*
X13172000Y-15051957D01*
X13172000Y-15051957D02*
X13181523Y-15061481D01*
X13181523Y-15061481D02*
X13191047Y-15080529D01*
X13191047Y-15080529D02*
X13191047Y-15137671D01*
X13191047Y-15137671D02*
X13181523Y-15156719D01*
X13181523Y-15156719D02*
X13172000Y-15166243D01*
X13172000Y-15166243D02*
X13152952Y-15175767D01*
X13152952Y-15175767D02*
X13124381Y-15175767D01*
X13248190Y-15042433D02*
X13324381Y-15042433D01*
X13276762Y-14975767D02*
X13276762Y-15147195D01*
X13276762Y-15147195D02*
X13286285Y-15166243D01*
X13286285Y-15166243D02*
X13305333Y-15175767D01*
X13305333Y-15175767D02*
X13324381Y-15175767D01*
X13543428Y-15042433D02*
X13543428Y-15242433D01*
X13543428Y-15051957D02*
X13562476Y-15042433D01*
X13562476Y-15042433D02*
X13600571Y-15042433D01*
X13600571Y-15042433D02*
X13619619Y-15051957D01*
X13619619Y-15051957D02*
X13629143Y-15061481D01*
X13629143Y-15061481D02*
X13638666Y-15080529D01*
X13638666Y-15080529D02*
X13638666Y-15137671D01*
X13638666Y-15137671D02*
X13629143Y-15156719D01*
X13629143Y-15156719D02*
X13619619Y-15166243D01*
X13619619Y-15166243D02*
X13600571Y-15175767D01*
X13600571Y-15175767D02*
X13562476Y-15175767D01*
X13562476Y-15175767D02*
X13543428Y-15166243D01*
X13752952Y-15175767D02*
X13733904Y-15166243D01*
X13733904Y-15166243D02*
X13724381Y-15147195D01*
X13724381Y-15147195D02*
X13724381Y-14975767D01*
X13914857Y-15175767D02*
X13914857Y-15071005D01*
X13914857Y-15071005D02*
X13905333Y-15051957D01*
X13905333Y-15051957D02*
X13886285Y-15042433D01*
X13886285Y-15042433D02*
X13848190Y-15042433D01*
X13848190Y-15042433D02*
X13829143Y-15051957D01*
X13914857Y-15166243D02*
X13895809Y-15175767D01*
X13895809Y-15175767D02*
X13848190Y-15175767D01*
X13848190Y-15175767D02*
X13829143Y-15166243D01*
X13829143Y-15166243D02*
X13819619Y-15147195D01*
X13819619Y-15147195D02*
X13819619Y-15128148D01*
X13819619Y-15128148D02*
X13829143Y-15109100D01*
X13829143Y-15109100D02*
X13848190Y-15099576D01*
X13848190Y-15099576D02*
X13895809Y-15099576D01*
X13895809Y-15099576D02*
X13914857Y-15090052D01*
X13981524Y-15042433D02*
X14057714Y-15042433D01*
X14010095Y-14975767D02*
X14010095Y-15147195D01*
X14010095Y-15147195D02*
X14019619Y-15166243D01*
X14019619Y-15166243D02*
X14038666Y-15175767D01*
X14038666Y-15175767D02*
X14057714Y-15175767D01*
X14200571Y-15166243D02*
X14181524Y-15175767D01*
X14181524Y-15175767D02*
X14143428Y-15175767D01*
X14143428Y-15175767D02*
X14124381Y-15166243D01*
X14124381Y-15166243D02*
X14114857Y-15147195D01*
X14114857Y-15147195D02*
X14114857Y-15071005D01*
X14114857Y-15071005D02*
X14124381Y-15051957D01*
X14124381Y-15051957D02*
X14143428Y-15042433D01*
X14143428Y-15042433D02*
X14181524Y-15042433D01*
X14181524Y-15042433D02*
X14200571Y-15051957D01*
X14200571Y-15051957D02*
X14210095Y-15071005D01*
X14210095Y-15071005D02*
X14210095Y-15090052D01*
X14210095Y-15090052D02*
X14114857Y-15109100D01*
X14381524Y-15175767D02*
X14381524Y-14975767D01*
X14381524Y-15166243D02*
X14362476Y-15175767D01*
X14362476Y-15175767D02*
X14324381Y-15175767D01*
X14324381Y-15175767D02*
X14305333Y-15166243D01*
X14305333Y-15166243D02*
X14295809Y-15156719D01*
X14295809Y-15156719D02*
X14286285Y-15137671D01*
X14286285Y-15137671D02*
X14286285Y-15080529D01*
X14286285Y-15080529D02*
X14295809Y-15061481D01*
X14295809Y-15061481D02*
X14305333Y-15051957D01*
X14305333Y-15051957D02*
X14324381Y-15042433D01*
X14324381Y-15042433D02*
X14362476Y-15042433D01*
X14362476Y-15042433D02*
X14381524Y-15051957D01*
X14457714Y-15251957D02*
X14467238Y-15242433D01*
X14467238Y-15242433D02*
X14486285Y-15213862D01*
X14486285Y-15213862D02*
X14495809Y-15194814D01*
X14495809Y-15194814D02*
X14505333Y-15166243D01*
X14505333Y-15166243D02*
X14514857Y-15118624D01*
X14514857Y-15118624D02*
X14514857Y-15080529D01*
X14514857Y-15080529D02*
X14505333Y-15032910D01*
X14505333Y-15032910D02*
X14495809Y-15004338D01*
X14495809Y-15004338D02*
X14486285Y-14985291D01*
X14486285Y-14985291D02*
X14467238Y-14956719D01*
X14467238Y-14956719D02*
X14457714Y-14947195D01*
X7411222Y-15504283D02*
X7511222Y-15404283D01*
X7411222Y-15304283D01*
X7311222Y-15404283D01*
X7411222Y-15504283D01*
X7752952Y-15295767D02*
X7876761Y-15295767D01*
X7876761Y-15295767D02*
X7810094Y-15371957D01*
X7810094Y-15371957D02*
X7838666Y-15371957D01*
X7838666Y-15371957D02*
X7857713Y-15381481D01*
X7857713Y-15381481D02*
X7867237Y-15391005D01*
X7867237Y-15391005D02*
X7876761Y-15410052D01*
X7876761Y-15410052D02*
X7876761Y-15457671D01*
X7876761Y-15457671D02*
X7867237Y-15476719D01*
X7867237Y-15476719D02*
X7857713Y-15486243D01*
X7857713Y-15486243D02*
X7838666Y-15495767D01*
X7838666Y-15495767D02*
X7781523Y-15495767D01*
X7781523Y-15495767D02*
X7762475Y-15486243D01*
X7762475Y-15486243D02*
X7752952Y-15476719D01*
X7962475Y-15476719D02*
X7971999Y-15486243D01*
X7971999Y-15486243D02*
X7962475Y-15495767D01*
X7962475Y-15495767D02*
X7952952Y-15486243D01*
X7952952Y-15486243D02*
X7962475Y-15476719D01*
X7962475Y-15476719D02*
X7962475Y-15495767D01*
X8143428Y-15362433D02*
X8143428Y-15495767D01*
X8095809Y-15286243D02*
X8048190Y-15429100D01*
X8048190Y-15429100D02*
X8171999Y-15429100D01*
X8238666Y-15314814D02*
X8248190Y-15305291D01*
X8248190Y-15305291D02*
X8267237Y-15295767D01*
X8267237Y-15295767D02*
X8314856Y-15295767D01*
X8314856Y-15295767D02*
X8333904Y-15305291D01*
X8333904Y-15305291D02*
X8343428Y-15314814D01*
X8343428Y-15314814D02*
X8352952Y-15333862D01*
X8352952Y-15333862D02*
X8352952Y-15352910D01*
X8352952Y-15352910D02*
X8343428Y-15381481D01*
X8343428Y-15381481D02*
X8229142Y-15495767D01*
X8229142Y-15495767D02*
X8352952Y-15495767D01*
X8448190Y-15495767D02*
X8486285Y-15495767D01*
X8486285Y-15495767D02*
X8505333Y-15486243D01*
X8505333Y-15486243D02*
X8514856Y-15476719D01*
X8514856Y-15476719D02*
X8533904Y-15448148D01*
X8533904Y-15448148D02*
X8543428Y-15410052D01*
X8543428Y-15410052D02*
X8543428Y-15333862D01*
X8543428Y-15333862D02*
X8533904Y-15314814D01*
X8533904Y-15314814D02*
X8524380Y-15305291D01*
X8524380Y-15305291D02*
X8505333Y-15295767D01*
X8505333Y-15295767D02*
X8467237Y-15295767D01*
X8467237Y-15295767D02*
X8448190Y-15305291D01*
X8448190Y-15305291D02*
X8438666Y-15314814D01*
X8438666Y-15314814D02*
X8429142Y-15333862D01*
X8429142Y-15333862D02*
X8429142Y-15381481D01*
X8429142Y-15381481D02*
X8438666Y-15400529D01*
X8438666Y-15400529D02*
X8448190Y-15410052D01*
X8448190Y-15410052D02*
X8467237Y-15419576D01*
X8467237Y-15419576D02*
X8505333Y-15419576D01*
X8505333Y-15419576D02*
X8524380Y-15410052D01*
X8524380Y-15410052D02*
X8533904Y-15400529D01*
X8533904Y-15400529D02*
X8543428Y-15381481D01*
X8629142Y-15495767D02*
X8629142Y-15362433D01*
X8629142Y-15381481D02*
X8638666Y-15371957D01*
X8638666Y-15371957D02*
X8657714Y-15362433D01*
X8657714Y-15362433D02*
X8686285Y-15362433D01*
X8686285Y-15362433D02*
X8705333Y-15371957D01*
X8705333Y-15371957D02*
X8714856Y-15391005D01*
X8714856Y-15391005D02*
X8714856Y-15495767D01*
X8714856Y-15391005D02*
X8724380Y-15371957D01*
X8724380Y-15371957D02*
X8743428Y-15362433D01*
X8743428Y-15362433D02*
X8771999Y-15362433D01*
X8771999Y-15362433D02*
X8791047Y-15371957D01*
X8791047Y-15371957D02*
X8800571Y-15391005D01*
X8800571Y-15391005D02*
X8800571Y-15495767D01*
X8895809Y-15495767D02*
X8895809Y-15362433D01*
X8895809Y-15381481D02*
X8905333Y-15371957D01*
X8905333Y-15371957D02*
X8924380Y-15362433D01*
X8924380Y-15362433D02*
X8952952Y-15362433D01*
X8952952Y-15362433D02*
X8971999Y-15371957D01*
X8971999Y-15371957D02*
X8981523Y-15391005D01*
X8981523Y-15391005D02*
X8981523Y-15495767D01*
X8981523Y-15391005D02*
X8991047Y-15371957D01*
X8991047Y-15371957D02*
X9010095Y-15362433D01*
X9010095Y-15362433D02*
X9038666Y-15362433D01*
X9038666Y-15362433D02*
X9057714Y-15371957D01*
X9057714Y-15371957D02*
X9067237Y-15391005D01*
X9067237Y-15391005D02*
X9067237Y-15495767D01*
X9457714Y-15286243D02*
X9286285Y-15543386D01*
X9714857Y-15295767D02*
X9733904Y-15295767D01*
X9733904Y-15295767D02*
X9752952Y-15305291D01*
X9752952Y-15305291D02*
X9762476Y-15314814D01*
X9762476Y-15314814D02*
X9771999Y-15333862D01*
X9771999Y-15333862D02*
X9781523Y-15371957D01*
X9781523Y-15371957D02*
X9781523Y-15419576D01*
X9781523Y-15419576D02*
X9771999Y-15457671D01*
X9771999Y-15457671D02*
X9762476Y-15476719D01*
X9762476Y-15476719D02*
X9752952Y-15486243D01*
X9752952Y-15486243D02*
X9733904Y-15495767D01*
X9733904Y-15495767D02*
X9714857Y-15495767D01*
X9714857Y-15495767D02*
X9695809Y-15486243D01*
X9695809Y-15486243D02*
X9686285Y-15476719D01*
X9686285Y-15476719D02*
X9676761Y-15457671D01*
X9676761Y-15457671D02*
X9667238Y-15419576D01*
X9667238Y-15419576D02*
X9667238Y-15371957D01*
X9667238Y-15371957D02*
X9676761Y-15333862D01*
X9676761Y-15333862D02*
X9686285Y-15314814D01*
X9686285Y-15314814D02*
X9695809Y-15305291D01*
X9695809Y-15305291D02*
X9714857Y-15295767D01*
X9867238Y-15476719D02*
X9876761Y-15486243D01*
X9876761Y-15486243D02*
X9867238Y-15495767D01*
X9867238Y-15495767D02*
X9857714Y-15486243D01*
X9857714Y-15486243D02*
X9867238Y-15476719D01*
X9867238Y-15476719D02*
X9867238Y-15495767D01*
X10067238Y-15495767D02*
X9952952Y-15495767D01*
X10010095Y-15495767D02*
X10010095Y-15295767D01*
X10010095Y-15295767D02*
X9991047Y-15324338D01*
X9991047Y-15324338D02*
X9971999Y-15343386D01*
X9971999Y-15343386D02*
X9952952Y-15352910D01*
X10133904Y-15295767D02*
X10257714Y-15295767D01*
X10257714Y-15295767D02*
X10191047Y-15371957D01*
X10191047Y-15371957D02*
X10219619Y-15371957D01*
X10219619Y-15371957D02*
X10238666Y-15381481D01*
X10238666Y-15381481D02*
X10248190Y-15391005D01*
X10248190Y-15391005D02*
X10257714Y-15410052D01*
X10257714Y-15410052D02*
X10257714Y-15457671D01*
X10257714Y-15457671D02*
X10248190Y-15476719D01*
X10248190Y-15476719D02*
X10238666Y-15486243D01*
X10238666Y-15486243D02*
X10219619Y-15495767D01*
X10219619Y-15495767D02*
X10162476Y-15495767D01*
X10162476Y-15495767D02*
X10143428Y-15486243D01*
X10143428Y-15486243D02*
X10133904Y-15476719D01*
X10438666Y-15295767D02*
X10343428Y-15295767D01*
X10343428Y-15295767D02*
X10333904Y-15391005D01*
X10333904Y-15391005D02*
X10343428Y-15381481D01*
X10343428Y-15381481D02*
X10362476Y-15371957D01*
X10362476Y-15371957D02*
X10410095Y-15371957D01*
X10410095Y-15371957D02*
X10429142Y-15381481D01*
X10429142Y-15381481D02*
X10438666Y-15391005D01*
X10438666Y-15391005D02*
X10448190Y-15410052D01*
X10448190Y-15410052D02*
X10448190Y-15457671D01*
X10448190Y-15457671D02*
X10438666Y-15476719D01*
X10438666Y-15476719D02*
X10429142Y-15486243D01*
X10429142Y-15486243D02*
X10410095Y-15495767D01*
X10410095Y-15495767D02*
X10362476Y-15495767D01*
X10362476Y-15495767D02*
X10343428Y-15486243D01*
X10343428Y-15486243D02*
X10333904Y-15476719D01*
X10571999Y-15295767D02*
X10591047Y-15295767D01*
X10591047Y-15295767D02*
X10610095Y-15305291D01*
X10610095Y-15305291D02*
X10619619Y-15314814D01*
X10619619Y-15314814D02*
X10629142Y-15333862D01*
X10629142Y-15333862D02*
X10638666Y-15371957D01*
X10638666Y-15371957D02*
X10638666Y-15419576D01*
X10638666Y-15419576D02*
X10629142Y-15457671D01*
X10629142Y-15457671D02*
X10619619Y-15476719D01*
X10619619Y-15476719D02*
X10610095Y-15486243D01*
X10610095Y-15486243D02*
X10591047Y-15495767D01*
X10591047Y-15495767D02*
X10571999Y-15495767D01*
X10571999Y-15495767D02*
X10552952Y-15486243D01*
X10552952Y-15486243D02*
X10543428Y-15476719D01*
X10543428Y-15476719D02*
X10533904Y-15457671D01*
X10533904Y-15457671D02*
X10524380Y-15419576D01*
X10524380Y-15419576D02*
X10524380Y-15371957D01*
X10524380Y-15371957D02*
X10533904Y-15333862D01*
X10533904Y-15333862D02*
X10543428Y-15314814D01*
X10543428Y-15314814D02*
X10552952Y-15305291D01*
X10552952Y-15305291D02*
X10571999Y-15295767D01*
X10714857Y-15295767D02*
X10714857Y-15333862D01*
X10791047Y-15295767D02*
X10791047Y-15333862D01*
X11086285Y-15571957D02*
X11076761Y-15562433D01*
X11076761Y-15562433D02*
X11057714Y-15533862D01*
X11057714Y-15533862D02*
X11048190Y-15514814D01*
X11048190Y-15514814D02*
X11038666Y-15486243D01*
X11038666Y-15486243D02*
X11029142Y-15438624D01*
X11029142Y-15438624D02*
X11029142Y-15400529D01*
X11029142Y-15400529D02*
X11038666Y-15352910D01*
X11038666Y-15352910D02*
X11048190Y-15324338D01*
X11048190Y-15324338D02*
X11057714Y-15305291D01*
X11057714Y-15305291D02*
X11076761Y-15276719D01*
X11076761Y-15276719D02*
X11086285Y-15267195D01*
X11267238Y-15495767D02*
X11152952Y-15495767D01*
X11210095Y-15495767D02*
X11210095Y-15295767D01*
X11210095Y-15295767D02*
X11191047Y-15324338D01*
X11191047Y-15324338D02*
X11172000Y-15343386D01*
X11172000Y-15343386D02*
X11152952Y-15352910D01*
X11381523Y-15381481D02*
X11362476Y-15371957D01*
X11362476Y-15371957D02*
X11352952Y-15362433D01*
X11352952Y-15362433D02*
X11343428Y-15343386D01*
X11343428Y-15343386D02*
X11343428Y-15333862D01*
X11343428Y-15333862D02*
X11352952Y-15314814D01*
X11352952Y-15314814D02*
X11362476Y-15305291D01*
X11362476Y-15305291D02*
X11381523Y-15295767D01*
X11381523Y-15295767D02*
X11419619Y-15295767D01*
X11419619Y-15295767D02*
X11438666Y-15305291D01*
X11438666Y-15305291D02*
X11448190Y-15314814D01*
X11448190Y-15314814D02*
X11457714Y-15333862D01*
X11457714Y-15333862D02*
X11457714Y-15343386D01*
X11457714Y-15343386D02*
X11448190Y-15362433D01*
X11448190Y-15362433D02*
X11438666Y-15371957D01*
X11438666Y-15371957D02*
X11419619Y-15381481D01*
X11419619Y-15381481D02*
X11381523Y-15381481D01*
X11381523Y-15381481D02*
X11362476Y-15391005D01*
X11362476Y-15391005D02*
X11352952Y-15400529D01*
X11352952Y-15400529D02*
X11343428Y-15419576D01*
X11343428Y-15419576D02*
X11343428Y-15457671D01*
X11343428Y-15457671D02*
X11352952Y-15476719D01*
X11352952Y-15476719D02*
X11362476Y-15486243D01*
X11362476Y-15486243D02*
X11381523Y-15495767D01*
X11381523Y-15495767D02*
X11419619Y-15495767D01*
X11419619Y-15495767D02*
X11438666Y-15486243D01*
X11438666Y-15486243D02*
X11448190Y-15476719D01*
X11448190Y-15476719D02*
X11457714Y-15457671D01*
X11457714Y-15457671D02*
X11457714Y-15419576D01*
X11457714Y-15419576D02*
X11448190Y-15400529D01*
X11448190Y-15400529D02*
X11438666Y-15391005D01*
X11438666Y-15391005D02*
X11419619Y-15381481D01*
X11695809Y-15495767D02*
X11695809Y-15295767D01*
X11781523Y-15495767D02*
X11781523Y-15391005D01*
X11781523Y-15391005D02*
X11772000Y-15371957D01*
X11772000Y-15371957D02*
X11752952Y-15362433D01*
X11752952Y-15362433D02*
X11724380Y-15362433D01*
X11724380Y-15362433D02*
X11705333Y-15371957D01*
X11705333Y-15371957D02*
X11695809Y-15381481D01*
X11905333Y-15495767D02*
X11886285Y-15486243D01*
X11886285Y-15486243D02*
X11876761Y-15476719D01*
X11876761Y-15476719D02*
X11867238Y-15457671D01*
X11867238Y-15457671D02*
X11867238Y-15400529D01*
X11867238Y-15400529D02*
X11876761Y-15381481D01*
X11876761Y-15381481D02*
X11886285Y-15371957D01*
X11886285Y-15371957D02*
X11905333Y-15362433D01*
X11905333Y-15362433D02*
X11933904Y-15362433D01*
X11933904Y-15362433D02*
X11952952Y-15371957D01*
X11952952Y-15371957D02*
X11962476Y-15381481D01*
X11962476Y-15381481D02*
X11972000Y-15400529D01*
X11972000Y-15400529D02*
X11972000Y-15457671D01*
X11972000Y-15457671D02*
X11962476Y-15476719D01*
X11962476Y-15476719D02*
X11952952Y-15486243D01*
X11952952Y-15486243D02*
X11933904Y-15495767D01*
X11933904Y-15495767D02*
X11905333Y-15495767D01*
X12086285Y-15495767D02*
X12067238Y-15486243D01*
X12067238Y-15486243D02*
X12057714Y-15467195D01*
X12057714Y-15467195D02*
X12057714Y-15295767D01*
X12238666Y-15486243D02*
X12219619Y-15495767D01*
X12219619Y-15495767D02*
X12181523Y-15495767D01*
X12181523Y-15495767D02*
X12162476Y-15486243D01*
X12162476Y-15486243D02*
X12152952Y-15467195D01*
X12152952Y-15467195D02*
X12152952Y-15391005D01*
X12152952Y-15391005D02*
X12162476Y-15371957D01*
X12162476Y-15371957D02*
X12181523Y-15362433D01*
X12181523Y-15362433D02*
X12219619Y-15362433D01*
X12219619Y-15362433D02*
X12238666Y-15371957D01*
X12238666Y-15371957D02*
X12248190Y-15391005D01*
X12248190Y-15391005D02*
X12248190Y-15410052D01*
X12248190Y-15410052D02*
X12152952Y-15429100D01*
X12324381Y-15486243D02*
X12343428Y-15495767D01*
X12343428Y-15495767D02*
X12381523Y-15495767D01*
X12381523Y-15495767D02*
X12400571Y-15486243D01*
X12400571Y-15486243D02*
X12410095Y-15467195D01*
X12410095Y-15467195D02*
X12410095Y-15457671D01*
X12410095Y-15457671D02*
X12400571Y-15438624D01*
X12400571Y-15438624D02*
X12381523Y-15429100D01*
X12381523Y-15429100D02*
X12352952Y-15429100D01*
X12352952Y-15429100D02*
X12333904Y-15419576D01*
X12333904Y-15419576D02*
X12324381Y-15400529D01*
X12324381Y-15400529D02*
X12324381Y-15391005D01*
X12324381Y-15391005D02*
X12333904Y-15371957D01*
X12333904Y-15371957D02*
X12352952Y-15362433D01*
X12352952Y-15362433D02*
X12381523Y-15362433D01*
X12381523Y-15362433D02*
X12400571Y-15371957D01*
X12476762Y-15571957D02*
X12486285Y-15562433D01*
X12486285Y-15562433D02*
X12505333Y-15533862D01*
X12505333Y-15533862D02*
X12514857Y-15514814D01*
X12514857Y-15514814D02*
X12524381Y-15486243D01*
X12524381Y-15486243D02*
X12533904Y-15438624D01*
X12533904Y-15438624D02*
X12533904Y-15400529D01*
X12533904Y-15400529D02*
X12524381Y-15352910D01*
X12524381Y-15352910D02*
X12514857Y-15324338D01*
X12514857Y-15324338D02*
X12505333Y-15305291D01*
X12505333Y-15305291D02*
X12486285Y-15276719D01*
X12486285Y-15276719D02*
X12476762Y-15267195D01*
X12838666Y-15571957D02*
X12829142Y-15562433D01*
X12829142Y-15562433D02*
X12810095Y-15533862D01*
X12810095Y-15533862D02*
X12800571Y-15514814D01*
X12800571Y-15514814D02*
X12791047Y-15486243D01*
X12791047Y-15486243D02*
X12781523Y-15438624D01*
X12781523Y-15438624D02*
X12781523Y-15400529D01*
X12781523Y-15400529D02*
X12791047Y-15352910D01*
X12791047Y-15352910D02*
X12800571Y-15324338D01*
X12800571Y-15324338D02*
X12810095Y-15305291D01*
X12810095Y-15305291D02*
X12829142Y-15276719D01*
X12829142Y-15276719D02*
X12838666Y-15267195D01*
X12914857Y-15362433D02*
X12914857Y-15495767D01*
X12914857Y-15381481D02*
X12924381Y-15371957D01*
X12924381Y-15371957D02*
X12943428Y-15362433D01*
X12943428Y-15362433D02*
X12972000Y-15362433D01*
X12972000Y-15362433D02*
X12991047Y-15371957D01*
X12991047Y-15371957D02*
X13000571Y-15391005D01*
X13000571Y-15391005D02*
X13000571Y-15495767D01*
X13124381Y-15495767D02*
X13105333Y-15486243D01*
X13105333Y-15486243D02*
X13095809Y-15476719D01*
X13095809Y-15476719D02*
X13086285Y-15457671D01*
X13086285Y-15457671D02*
X13086285Y-15400529D01*
X13086285Y-15400529D02*
X13095809Y-15381481D01*
X13095809Y-15381481D02*
X13105333Y-15371957D01*
X13105333Y-15371957D02*
X13124381Y-15362433D01*
X13124381Y-15362433D02*
X13152952Y-15362433D01*
X13152952Y-15362433D02*
X13172000Y-15371957D01*
X13172000Y-15371957D02*
X13181523Y-15381481D01*
X13181523Y-15381481D02*
X13191047Y-15400529D01*
X13191047Y-15400529D02*
X13191047Y-15457671D01*
X13191047Y-15457671D02*
X13181523Y-15476719D01*
X13181523Y-15476719D02*
X13172000Y-15486243D01*
X13172000Y-15486243D02*
X13152952Y-15495767D01*
X13152952Y-15495767D02*
X13124381Y-15495767D01*
X13248190Y-15362433D02*
X13324381Y-15362433D01*
X13276762Y-15295767D02*
X13276762Y-15467195D01*
X13276762Y-15467195D02*
X13286285Y-15486243D01*
X13286285Y-15486243D02*
X13305333Y-15495767D01*
X13305333Y-15495767D02*
X13324381Y-15495767D01*
X13543428Y-15362433D02*
X13543428Y-15562433D01*
X13543428Y-15371957D02*
X13562476Y-15362433D01*
X13562476Y-15362433D02*
X13600571Y-15362433D01*
X13600571Y-15362433D02*
X13619619Y-15371957D01*
X13619619Y-15371957D02*
X13629143Y-15381481D01*
X13629143Y-15381481D02*
X13638666Y-15400529D01*
X13638666Y-15400529D02*
X13638666Y-15457671D01*
X13638666Y-15457671D02*
X13629143Y-15476719D01*
X13629143Y-15476719D02*
X13619619Y-15486243D01*
X13619619Y-15486243D02*
X13600571Y-15495767D01*
X13600571Y-15495767D02*
X13562476Y-15495767D01*
X13562476Y-15495767D02*
X13543428Y-15486243D01*
X13752952Y-15495767D02*
X13733904Y-15486243D01*
X13733904Y-15486243D02*
X13724381Y-15467195D01*
X13724381Y-15467195D02*
X13724381Y-15295767D01*
X13914857Y-15495767D02*
X13914857Y-15391005D01*
X13914857Y-15391005D02*
X13905333Y-15371957D01*
X13905333Y-15371957D02*
X13886285Y-15362433D01*
X13886285Y-15362433D02*
X13848190Y-15362433D01*
X13848190Y-15362433D02*
X13829143Y-15371957D01*
X13914857Y-15486243D02*
X13895809Y-15495767D01*
X13895809Y-15495767D02*
X13848190Y-15495767D01*
X13848190Y-15495767D02*
X13829143Y-15486243D01*
X13829143Y-15486243D02*
X13819619Y-15467195D01*
X13819619Y-15467195D02*
X13819619Y-15448148D01*
X13819619Y-15448148D02*
X13829143Y-15429100D01*
X13829143Y-15429100D02*
X13848190Y-15419576D01*
X13848190Y-15419576D02*
X13895809Y-15419576D01*
X13895809Y-15419576D02*
X13914857Y-15410052D01*
X13981524Y-15362433D02*
X14057714Y-15362433D01*
X14010095Y-15295767D02*
X14010095Y-15467195D01*
X14010095Y-15467195D02*
X14019619Y-15486243D01*
X14019619Y-15486243D02*
X14038666Y-15495767D01*
X14038666Y-15495767D02*
X14057714Y-15495767D01*
X14200571Y-15486243D02*
X14181524Y-15495767D01*
X14181524Y-15495767D02*
X14143428Y-15495767D01*
X14143428Y-15495767D02*
X14124381Y-15486243D01*
X14124381Y-15486243D02*
X14114857Y-15467195D01*
X14114857Y-15467195D02*
X14114857Y-15391005D01*
X14114857Y-15391005D02*
X14124381Y-15371957D01*
X14124381Y-15371957D02*
X14143428Y-15362433D01*
X14143428Y-15362433D02*
X14181524Y-15362433D01*
X14181524Y-15362433D02*
X14200571Y-15371957D01*
X14200571Y-15371957D02*
X14210095Y-15391005D01*
X14210095Y-15391005D02*
X14210095Y-15410052D01*
X14210095Y-15410052D02*
X14114857Y-15429100D01*
X14381524Y-15495767D02*
X14381524Y-15295767D01*
X14381524Y-15486243D02*
X14362476Y-15495767D01*
X14362476Y-15495767D02*
X14324381Y-15495767D01*
X14324381Y-15495767D02*
X14305333Y-15486243D01*
X14305333Y-15486243D02*
X14295809Y-15476719D01*
X14295809Y-15476719D02*
X14286285Y-15457671D01*
X14286285Y-15457671D02*
X14286285Y-15400529D01*
X14286285Y-15400529D02*
X14295809Y-15381481D01*
X14295809Y-15381481D02*
X14305333Y-15371957D01*
X14305333Y-15371957D02*
X14324381Y-15362433D01*
X14324381Y-15362433D02*
X14362476Y-15362433D01*
X14362476Y-15362433D02*
X14381524Y-15371957D01*
X14457714Y-15571957D02*
X14467238Y-15562433D01*
X14467238Y-15562433D02*
X14486285Y-15533862D01*
X14486285Y-15533862D02*
X14495809Y-15514814D01*
X14495809Y-15514814D02*
X14505333Y-15486243D01*
X14505333Y-15486243D02*
X14514857Y-15438624D01*
X14514857Y-15438624D02*
X14514857Y-15400529D01*
X14514857Y-15400529D02*
X14505333Y-15352910D01*
X14505333Y-15352910D02*
X14495809Y-15324338D01*
X14495809Y-15324338D02*
X14486285Y-15305291D01*
X14486285Y-15305291D02*
X14467238Y-15276719D01*
X14467238Y-15276719D02*
X14457714Y-15267195D01*
M02*
