%TF.GenerationSoftware,KiCad,Pcbnew,8.0.4*%
%TF.CreationDate,2024-09-02T19:21:00+07:00*%
%TF.ProjectId,chocowi36,63686f63-6f77-4693-9336-2e6b69636164,rev?*%
%TF.SameCoordinates,Original*%
%TF.FileFunction,Drillmap*%
%TF.FilePolarity,Positive*%
%FSLAX45Y45*%
G04 Gerber Fmt 4.5, Leading zero omitted, Abs format (unit mm)*
G04 Created by KiCad (PCBNEW 8.0.4) date 2024-09-02 19:21:00*
%MOMM*%
%LPD*%
G01*
G04 APERTURE LIST*
%ADD10C,0.150000*%
%ADD11C,0.200000*%
%ADD12C,0.100000*%
%ADD13C,0.127000*%
G04 APERTURE END LIST*
D10*
X14011000Y-12099000D02*
X15545000Y-12510000D01*
X16831000Y-5263000D02*
G75*
G02*
X16951747Y-5421000I-43000J-158000D01*
G01*
X7644713Y-5681090D02*
X10248000Y-4736000D01*
X11380000Y-10940000D02*
G75*
G02*
X11615824Y-11048015I0J-311440D01*
G01*
X11615825Y-11048014D02*
X12501000Y-11999000D01*
X18824000Y-6055155D02*
X18822448Y-11304798D01*
X12737000Y-12099452D02*
X14011000Y-12099000D01*
X7518722Y-5853000D02*
G75*
G02*
X7644713Y-5681090I180278J0D01*
G01*
X15545000Y-12510000D02*
X17338983Y-13540679D01*
X7580755Y-10940000D02*
G75*
G02*
X7519997Y-10874555I5J60930D01*
G01*
X18774000Y-5989871D02*
X16997964Y-5989871D01*
X18774000Y-5989871D02*
G75*
G02*
X18823993Y-6055155I-17610J-65269D01*
G01*
X7518722Y-5853000D02*
X7520000Y-10874555D01*
X12737000Y-12099452D02*
G75*
G02*
X12501000Y-11999000I0J327452D01*
G01*
X17528519Y-13500986D02*
X18822448Y-11304798D01*
X16997964Y-5989871D02*
G75*
G02*
X16950098Y-5939002I2036J49871D01*
G01*
X17528519Y-13500986D02*
G75*
G02*
X17335722Y-13538929I-115299J77066D01*
G01*
X16831000Y-5263000D02*
X14840000Y-4734000D01*
X16950098Y-5939002D02*
X16951747Y-5421000D01*
X10248000Y-4736000D02*
X14840000Y-4734000D01*
X11380000Y-10940000D02*
X7580755Y-10940000D01*
D11*
D12*
X15460000Y-8490000D02*
X15500000Y-8530000D01*
X15500000Y-8490000D02*
X15460000Y-8530000D01*
X15780000Y-8180000D02*
X15820000Y-8220000D01*
X15820000Y-8180000D02*
X15780000Y-8220000D01*
X16070000Y-8260000D02*
X16110000Y-8300000D01*
X16110000Y-8260000D02*
X16070000Y-8300000D01*
X16070000Y-8450000D02*
X16110000Y-8490000D01*
X16110000Y-8450000D02*
X16070000Y-8490000D01*
X16600000Y-9380000D02*
X16640000Y-9420000D01*
X16640000Y-9380000D02*
X16600000Y-9420000D01*
X18510000Y-9480000D02*
X18550000Y-9520000D01*
X18550000Y-9480000D02*
X18510000Y-9520000D01*
X16956000Y-6292000D02*
G75*
G02*
X16856000Y-6292000I-50000J0D01*
G01*
X16856000Y-6292000D02*
G75*
G02*
X16956000Y-6292000I50000J0D01*
G01*
X16956000Y-6546000D02*
G75*
G02*
X16856000Y-6546000I-50000J0D01*
G01*
X16856000Y-6546000D02*
G75*
G02*
X16956000Y-6546000I50000J0D01*
G01*
X16956000Y-6800000D02*
G75*
G02*
X16856000Y-6800000I-50000J0D01*
G01*
X16856000Y-6800000D02*
G75*
G02*
X16956000Y-6800000I50000J0D01*
G01*
X16956000Y-7054000D02*
G75*
G02*
X16856000Y-7054000I-50000J0D01*
G01*
X16856000Y-7054000D02*
G75*
G02*
X16956000Y-7054000I50000J0D01*
G01*
X16956000Y-7308000D02*
G75*
G02*
X16856000Y-7308000I-50000J0D01*
G01*
X16856000Y-7308000D02*
G75*
G02*
X16956000Y-7308000I50000J0D01*
G01*
X16956000Y-7562000D02*
G75*
G02*
X16856000Y-7562000I-50000J0D01*
G01*
X16856000Y-7562000D02*
G75*
G02*
X16956000Y-7562000I50000J0D01*
G01*
X16956000Y-7816000D02*
G75*
G02*
X16856000Y-7816000I-50000J0D01*
G01*
X16856000Y-7816000D02*
G75*
G02*
X16956000Y-7816000I50000J0D01*
G01*
X16956000Y-8070000D02*
G75*
G02*
X16856000Y-8070000I-50000J0D01*
G01*
X16856000Y-8070000D02*
G75*
G02*
X16956000Y-8070000I50000J0D01*
G01*
X16956000Y-8324000D02*
G75*
G02*
X16856000Y-8324000I-50000J0D01*
G01*
X16856000Y-8324000D02*
G75*
G02*
X16956000Y-8324000I50000J0D01*
G01*
X16956000Y-8578000D02*
G75*
G02*
X16856000Y-8578000I-50000J0D01*
G01*
X16856000Y-8578000D02*
G75*
G02*
X16956000Y-8578000I50000J0D01*
G01*
X16956000Y-8832000D02*
G75*
G02*
X16856000Y-8832000I-50000J0D01*
G01*
X16856000Y-8832000D02*
G75*
G02*
X16956000Y-8832000I50000J0D01*
G01*
X16956000Y-9086000D02*
G75*
G02*
X16856000Y-9086000I-50000J0D01*
G01*
X16856000Y-9086000D02*
G75*
G02*
X16956000Y-9086000I50000J0D01*
G01*
X17205000Y-6675000D02*
G75*
G02*
X17105000Y-6675000I-50000J0D01*
G01*
X17105000Y-6675000D02*
G75*
G02*
X17205000Y-6675000I50000J0D01*
G01*
X17205000Y-6929000D02*
G75*
G02*
X17105000Y-6929000I-50000J0D01*
G01*
X17105000Y-6929000D02*
G75*
G02*
X17205000Y-6929000I50000J0D01*
G01*
X17205000Y-7183000D02*
G75*
G02*
X17105000Y-7183000I-50000J0D01*
G01*
X17105000Y-7183000D02*
G75*
G02*
X17205000Y-7183000I50000J0D01*
G01*
X17205000Y-7437000D02*
G75*
G02*
X17105000Y-7437000I-50000J0D01*
G01*
X17105000Y-7437000D02*
G75*
G02*
X17205000Y-7437000I50000J0D01*
G01*
X17205000Y-7691000D02*
G75*
G02*
X17105000Y-7691000I-50000J0D01*
G01*
X17105000Y-7691000D02*
G75*
G02*
X17205000Y-7691000I50000J0D01*
G01*
X17205000Y-7945000D02*
G75*
G02*
X17105000Y-7945000I-50000J0D01*
G01*
X17105000Y-7945000D02*
G75*
G02*
X17205000Y-7945000I50000J0D01*
G01*
X17205000Y-8199000D02*
G75*
G02*
X17105000Y-8199000I-50000J0D01*
G01*
X17105000Y-8199000D02*
G75*
G02*
X17205000Y-8199000I50000J0D01*
G01*
X17205000Y-8453000D02*
G75*
G02*
X17105000Y-8453000I-50000J0D01*
G01*
X17105000Y-8453000D02*
G75*
G02*
X17205000Y-8453000I50000J0D01*
G01*
X17205000Y-8707000D02*
G75*
G02*
X17105000Y-8707000I-50000J0D01*
G01*
X17105000Y-8707000D02*
G75*
G02*
X17205000Y-8707000I50000J0D01*
G01*
X17205000Y-8961000D02*
G75*
G02*
X17105000Y-8961000I-50000J0D01*
G01*
X17105000Y-8961000D02*
G75*
G02*
X17205000Y-8961000I50000J0D01*
G01*
X17205000Y-9215000D02*
G75*
G02*
X17105000Y-9215000I-50000J0D01*
G01*
X17105000Y-9215000D02*
G75*
G02*
X17205000Y-9215000I50000J0D01*
G01*
X17207000Y-6418000D02*
G75*
G02*
X17107000Y-6418000I-50000J0D01*
G01*
X17107000Y-6418000D02*
G75*
G02*
X17207000Y-6418000I50000J0D01*
G01*
X17763000Y-6890000D02*
G75*
G02*
X17663000Y-6890000I-50000J0D01*
G01*
X17663000Y-6890000D02*
G75*
G02*
X17763000Y-6890000I50000J0D01*
G01*
X18017000Y-6890000D02*
G75*
G02*
X17917000Y-6890000I-50000J0D01*
G01*
X17917000Y-6890000D02*
G75*
G02*
X18017000Y-6890000I50000J0D01*
G01*
X18478000Y-6289000D02*
G75*
G02*
X18378000Y-6289000I-50000J0D01*
G01*
X18378000Y-6289000D02*
G75*
G02*
X18478000Y-6289000I50000J0D01*
G01*
X18480000Y-6546000D02*
G75*
G02*
X18380000Y-6546000I-50000J0D01*
G01*
X18380000Y-6546000D02*
G75*
G02*
X18480000Y-6546000I50000J0D01*
G01*
X18480000Y-6800000D02*
G75*
G02*
X18380000Y-6800000I-50000J0D01*
G01*
X18380000Y-6800000D02*
G75*
G02*
X18480000Y-6800000I50000J0D01*
G01*
X18480000Y-7054000D02*
G75*
G02*
X18380000Y-7054000I-50000J0D01*
G01*
X18380000Y-7054000D02*
G75*
G02*
X18480000Y-7054000I50000J0D01*
G01*
X18480000Y-7308000D02*
G75*
G02*
X18380000Y-7308000I-50000J0D01*
G01*
X18380000Y-7308000D02*
G75*
G02*
X18480000Y-7308000I50000J0D01*
G01*
X18480000Y-7562000D02*
G75*
G02*
X18380000Y-7562000I-50000J0D01*
G01*
X18380000Y-7562000D02*
G75*
G02*
X18480000Y-7562000I50000J0D01*
G01*
X18480000Y-7816000D02*
G75*
G02*
X18380000Y-7816000I-50000J0D01*
G01*
X18380000Y-7816000D02*
G75*
G02*
X18480000Y-7816000I50000J0D01*
G01*
X18480000Y-8070000D02*
G75*
G02*
X18380000Y-8070000I-50000J0D01*
G01*
X18380000Y-8070000D02*
G75*
G02*
X18480000Y-8070000I50000J0D01*
G01*
X18480000Y-8324000D02*
G75*
G02*
X18380000Y-8324000I-50000J0D01*
G01*
X18380000Y-8324000D02*
G75*
G02*
X18480000Y-8324000I50000J0D01*
G01*
X18480000Y-8578000D02*
G75*
G02*
X18380000Y-8578000I-50000J0D01*
G01*
X18380000Y-8578000D02*
G75*
G02*
X18480000Y-8578000I50000J0D01*
G01*
X18480000Y-8832000D02*
G75*
G02*
X18380000Y-8832000I-50000J0D01*
G01*
X18380000Y-8832000D02*
G75*
G02*
X18480000Y-8832000I50000J0D01*
G01*
X18480000Y-9086000D02*
G75*
G02*
X18380000Y-9086000I-50000J0D01*
G01*
X18380000Y-9086000D02*
G75*
G02*
X18480000Y-9086000I50000J0D01*
G01*
X18729000Y-6421000D02*
G75*
G02*
X18629000Y-6421000I-50000J0D01*
G01*
X18629000Y-6421000D02*
G75*
G02*
X18729000Y-6421000I50000J0D01*
G01*
X18729000Y-6675000D02*
G75*
G02*
X18629000Y-6675000I-50000J0D01*
G01*
X18629000Y-6675000D02*
G75*
G02*
X18729000Y-6675000I50000J0D01*
G01*
X18729000Y-6929000D02*
G75*
G02*
X18629000Y-6929000I-50000J0D01*
G01*
X18629000Y-6929000D02*
G75*
G02*
X18729000Y-6929000I50000J0D01*
G01*
X18729000Y-7183000D02*
G75*
G02*
X18629000Y-7183000I-50000J0D01*
G01*
X18629000Y-7183000D02*
G75*
G02*
X18729000Y-7183000I50000J0D01*
G01*
X18729000Y-7437000D02*
G75*
G02*
X18629000Y-7437000I-50000J0D01*
G01*
X18629000Y-7437000D02*
G75*
G02*
X18729000Y-7437000I50000J0D01*
G01*
X18729000Y-7691000D02*
G75*
G02*
X18629000Y-7691000I-50000J0D01*
G01*
X18629000Y-7691000D02*
G75*
G02*
X18729000Y-7691000I50000J0D01*
G01*
X18729000Y-7945000D02*
G75*
G02*
X18629000Y-7945000I-50000J0D01*
G01*
X18629000Y-7945000D02*
G75*
G02*
X18729000Y-7945000I50000J0D01*
G01*
X18729000Y-8199000D02*
G75*
G02*
X18629000Y-8199000I-50000J0D01*
G01*
X18629000Y-8199000D02*
G75*
G02*
X18729000Y-8199000I50000J0D01*
G01*
X18729000Y-8453000D02*
G75*
G02*
X18629000Y-8453000I-50000J0D01*
G01*
X18629000Y-8453000D02*
G75*
G02*
X18729000Y-8453000I50000J0D01*
G01*
X18729000Y-8707000D02*
G75*
G02*
X18629000Y-8707000I-50000J0D01*
G01*
X18629000Y-8707000D02*
G75*
G02*
X18729000Y-8707000I50000J0D01*
G01*
X18729000Y-8961000D02*
G75*
G02*
X18629000Y-8961000I-50000J0D01*
G01*
X18629000Y-8961000D02*
G75*
G02*
X18729000Y-8961000I50000J0D01*
G01*
X18729000Y-9215000D02*
G75*
G02*
X18629000Y-9215000I-50000J0D01*
G01*
X18629000Y-9215000D02*
G75*
G02*
X18729000Y-9215000I50000J0D01*
G01*
D13*
X8085200Y-8571500D02*
X8085200Y-8698500D01*
X8021700Y-8635000D02*
X8148700Y-8635000D01*
X8085200Y-10273300D02*
X8085200Y-10400300D01*
X8021700Y-10336800D02*
X8148700Y-10336800D01*
X8091000Y-6874500D02*
X8091000Y-7001500D01*
X8027500Y-6938000D02*
X8154500Y-6938000D01*
X8585200Y-8781500D02*
X8585200Y-8908500D01*
X8521700Y-8845000D02*
X8648700Y-8845000D01*
X8585200Y-10483300D02*
X8585200Y-10610300D01*
X8521700Y-10546800D02*
X8648700Y-10546800D01*
X8591000Y-7084500D02*
X8591000Y-7211500D01*
X8527500Y-7148000D02*
X8654500Y-7148000D01*
X9085200Y-8571500D02*
X9085200Y-8698500D01*
X9021700Y-8635000D02*
X9148700Y-8635000D01*
X9085200Y-10273300D02*
X9085200Y-10400300D01*
X9021700Y-10336800D02*
X9148700Y-10336800D01*
X9091000Y-6874500D02*
X9091000Y-7001500D01*
X9027500Y-6938000D02*
X9154500Y-6938000D01*
X9887000Y-7917500D02*
X9887000Y-8044500D01*
X9823500Y-7981000D02*
X9950500Y-7981000D01*
X9887000Y-9619300D02*
X9887000Y-9746300D01*
X9823500Y-9682800D02*
X9950500Y-9682800D01*
X9891000Y-6218500D02*
X9891000Y-6345500D01*
X9827500Y-6282000D02*
X9954500Y-6282000D01*
X10387000Y-8127500D02*
X10387000Y-8254500D01*
X10323500Y-8191000D02*
X10450500Y-8191000D01*
X10387000Y-9829300D02*
X10387000Y-9956300D01*
X10323500Y-9892800D02*
X10450500Y-9892800D01*
X10391000Y-6428500D02*
X10391000Y-6555500D01*
X10327500Y-6492000D02*
X10454500Y-6492000D01*
X10887000Y-7917500D02*
X10887000Y-8044500D01*
X10823500Y-7981000D02*
X10950500Y-7981000D01*
X10887000Y-9619300D02*
X10887000Y-9746300D01*
X10823500Y-9682800D02*
X10950500Y-9682800D01*
X10891000Y-6218500D02*
X10891000Y-6345500D01*
X10827500Y-6282000D02*
X10954500Y-6282000D01*
X11691000Y-5982500D02*
X11691000Y-6109500D01*
X11627500Y-6046000D02*
X11754500Y-6046000D01*
X11691000Y-7680500D02*
X11691000Y-7807500D01*
X11627500Y-7744000D02*
X11754500Y-7744000D01*
X11691000Y-9382300D02*
X11691000Y-9509300D01*
X11627500Y-9445800D02*
X11754500Y-9445800D01*
X12191000Y-6192500D02*
X12191000Y-6319500D01*
X12127500Y-6256000D02*
X12254500Y-6256000D01*
X12191000Y-7890500D02*
X12191000Y-8017500D01*
X12127500Y-7954000D02*
X12254500Y-7954000D01*
X12191000Y-9592300D02*
X12191000Y-9719300D01*
X12127500Y-9655800D02*
X12254500Y-9655800D01*
X12691000Y-5982500D02*
X12691000Y-6109500D01*
X12627500Y-6046000D02*
X12754500Y-6046000D01*
X12691000Y-7680500D02*
X12691000Y-7807500D01*
X12627500Y-7744000D02*
X12754500Y-7744000D01*
X12691000Y-9382300D02*
X12691000Y-9509300D01*
X12627500Y-9445800D02*
X12754500Y-9445800D01*
X12957000Y-11445500D02*
X12957000Y-11572500D01*
X12893500Y-11509000D02*
X13020500Y-11509000D01*
X13457000Y-11655500D02*
X13457000Y-11782500D01*
X13393500Y-11719000D02*
X13520500Y-11719000D01*
X13495400Y-6218500D02*
X13495400Y-6345500D01*
X13431900Y-6282000D02*
X13558900Y-6282000D01*
X13495400Y-7919700D02*
X13495400Y-8046700D01*
X13431900Y-7983200D02*
X13558900Y-7983200D01*
X13495400Y-9621500D02*
X13495400Y-9748500D01*
X13431900Y-9685000D02*
X13558900Y-9685000D01*
X13957000Y-11445500D02*
X13957000Y-11572500D01*
X13893500Y-11509000D02*
X14020500Y-11509000D01*
X13995400Y-6428500D02*
X13995400Y-6555500D01*
X13931900Y-6492000D02*
X14058900Y-6492000D01*
X13995400Y-8129700D02*
X13995400Y-8256700D01*
X13931900Y-8193200D02*
X14058900Y-8193200D01*
X13995400Y-9831500D02*
X13995400Y-9958500D01*
X13931900Y-9895000D02*
X14058900Y-9895000D01*
X14495400Y-6218500D02*
X14495400Y-6345500D01*
X14431900Y-6282000D02*
X14558900Y-6282000D01*
X14495400Y-7919700D02*
X14495400Y-8046700D01*
X14431900Y-7983200D02*
X14558900Y-7983200D01*
X14495400Y-9621500D02*
X14495400Y-9748500D01*
X14431900Y-9685000D02*
X14558900Y-9685000D01*
X14687389Y-11630246D02*
X14687389Y-11757246D01*
X14623889Y-11693746D02*
X14750889Y-11693746D01*
X15116000Y-11962500D02*
X15116000Y-12089500D01*
X15052500Y-12026000D02*
X15179500Y-12026000D01*
X15294000Y-8160500D02*
X15294000Y-8287500D01*
X15230500Y-8224000D02*
X15357500Y-8224000D01*
X15294000Y-9862300D02*
X15294000Y-9989300D01*
X15230500Y-9925800D02*
X15357500Y-9925800D01*
X15298800Y-6456500D02*
X15298800Y-6583500D01*
X15235300Y-6520000D02*
X15362300Y-6520000D01*
X15653315Y-11889065D02*
X15653315Y-12016065D01*
X15589815Y-11952565D02*
X15716815Y-11952565D01*
X15794000Y-8370500D02*
X15794000Y-8497500D01*
X15730500Y-8434000D02*
X15857500Y-8434000D01*
X15794000Y-10072300D02*
X15794000Y-10199300D01*
X15730500Y-10135800D02*
X15857500Y-10135800D01*
X15798800Y-6666500D02*
X15798800Y-6793500D01*
X15735300Y-6730000D02*
X15862300Y-6730000D01*
X16294000Y-8160500D02*
X16294000Y-8287500D01*
X16230500Y-8224000D02*
X16357500Y-8224000D01*
X16294000Y-9862300D02*
X16294000Y-9989300D01*
X16230500Y-9925800D02*
X16357500Y-9925800D01*
X16298800Y-6456500D02*
X16298800Y-6583500D01*
X16235300Y-6520000D02*
X16362300Y-6520000D01*
X16373987Y-12266635D02*
X16373987Y-12393635D01*
X16310487Y-12330135D02*
X16437487Y-12330135D01*
X16702000Y-12698500D02*
X16702000Y-12825500D01*
X16638500Y-12762000D02*
X16765500Y-12762000D01*
X17240013Y-12766635D02*
X17240013Y-12893635D01*
X17176513Y-12830135D02*
X17303513Y-12830135D01*
D11*
X7771999Y-13881587D02*
X7771999Y-13681587D01*
X7771999Y-13681587D02*
X7819618Y-13681587D01*
X7819618Y-13681587D02*
X7848190Y-13691111D01*
X7848190Y-13691111D02*
X7867237Y-13710158D01*
X7867237Y-13710158D02*
X7876761Y-13729206D01*
X7876761Y-13729206D02*
X7886285Y-13767301D01*
X7886285Y-13767301D02*
X7886285Y-13795872D01*
X7886285Y-13795872D02*
X7876761Y-13833968D01*
X7876761Y-13833968D02*
X7867237Y-13853015D01*
X7867237Y-13853015D02*
X7848190Y-13872063D01*
X7848190Y-13872063D02*
X7819618Y-13881587D01*
X7819618Y-13881587D02*
X7771999Y-13881587D01*
X7971999Y-13881587D02*
X7971999Y-13748253D01*
X7971999Y-13786349D02*
X7981523Y-13767301D01*
X7981523Y-13767301D02*
X7991047Y-13757777D01*
X7991047Y-13757777D02*
X8010094Y-13748253D01*
X8010094Y-13748253D02*
X8029142Y-13748253D01*
X8095809Y-13881587D02*
X8095809Y-13748253D01*
X8095809Y-13681587D02*
X8086285Y-13691111D01*
X8086285Y-13691111D02*
X8095809Y-13700634D01*
X8095809Y-13700634D02*
X8105332Y-13691111D01*
X8105332Y-13691111D02*
X8095809Y-13681587D01*
X8095809Y-13681587D02*
X8095809Y-13700634D01*
X8219618Y-13881587D02*
X8200571Y-13872063D01*
X8200571Y-13872063D02*
X8191047Y-13853015D01*
X8191047Y-13853015D02*
X8191047Y-13681587D01*
X8324380Y-13881587D02*
X8305332Y-13872063D01*
X8305332Y-13872063D02*
X8295809Y-13853015D01*
X8295809Y-13853015D02*
X8295809Y-13681587D01*
X8552952Y-13881587D02*
X8552952Y-13681587D01*
X8552952Y-13681587D02*
X8619618Y-13824444D01*
X8619618Y-13824444D02*
X8686285Y-13681587D01*
X8686285Y-13681587D02*
X8686285Y-13881587D01*
X8867237Y-13881587D02*
X8867237Y-13776825D01*
X8867237Y-13776825D02*
X8857714Y-13757777D01*
X8857714Y-13757777D02*
X8838666Y-13748253D01*
X8838666Y-13748253D02*
X8800571Y-13748253D01*
X8800571Y-13748253D02*
X8781523Y-13757777D01*
X8867237Y-13872063D02*
X8848190Y-13881587D01*
X8848190Y-13881587D02*
X8800571Y-13881587D01*
X8800571Y-13881587D02*
X8781523Y-13872063D01*
X8781523Y-13872063D02*
X8771999Y-13853015D01*
X8771999Y-13853015D02*
X8771999Y-13833968D01*
X8771999Y-13833968D02*
X8781523Y-13814920D01*
X8781523Y-13814920D02*
X8800571Y-13805396D01*
X8800571Y-13805396D02*
X8848190Y-13805396D01*
X8848190Y-13805396D02*
X8867237Y-13795872D01*
X8962475Y-13748253D02*
X8962475Y-13948253D01*
X8962475Y-13757777D02*
X8981523Y-13748253D01*
X8981523Y-13748253D02*
X9019618Y-13748253D01*
X9019618Y-13748253D02*
X9038666Y-13757777D01*
X9038666Y-13757777D02*
X9048190Y-13767301D01*
X9048190Y-13767301D02*
X9057714Y-13786349D01*
X9057714Y-13786349D02*
X9057714Y-13843491D01*
X9057714Y-13843491D02*
X9048190Y-13862539D01*
X9048190Y-13862539D02*
X9038666Y-13872063D01*
X9038666Y-13872063D02*
X9019618Y-13881587D01*
X9019618Y-13881587D02*
X8981523Y-13881587D01*
X8981523Y-13881587D02*
X8962475Y-13872063D01*
X9143428Y-13862539D02*
X9152952Y-13872063D01*
X9152952Y-13872063D02*
X9143428Y-13881587D01*
X9143428Y-13881587D02*
X9133904Y-13872063D01*
X9133904Y-13872063D02*
X9143428Y-13862539D01*
X9143428Y-13862539D02*
X9143428Y-13881587D01*
X9143428Y-13757777D02*
X9152952Y-13767301D01*
X9152952Y-13767301D02*
X9143428Y-13776825D01*
X9143428Y-13776825D02*
X9133904Y-13767301D01*
X9133904Y-13767301D02*
X9143428Y-13757777D01*
X9143428Y-13757777D02*
X9143428Y-13776825D01*
D12*
X7471222Y-14190103D02*
X7511222Y-14230103D01*
X7511222Y-14190103D02*
X7471222Y-14230103D01*
D11*
X7810094Y-14101587D02*
X7829142Y-14101587D01*
X7829142Y-14101587D02*
X7848190Y-14111111D01*
X7848190Y-14111111D02*
X7857713Y-14120634D01*
X7857713Y-14120634D02*
X7867237Y-14139682D01*
X7867237Y-14139682D02*
X7876761Y-14177777D01*
X7876761Y-14177777D02*
X7876761Y-14225396D01*
X7876761Y-14225396D02*
X7867237Y-14263491D01*
X7867237Y-14263491D02*
X7857713Y-14282539D01*
X7857713Y-14282539D02*
X7848190Y-14292063D01*
X7848190Y-14292063D02*
X7829142Y-14301587D01*
X7829142Y-14301587D02*
X7810094Y-14301587D01*
X7810094Y-14301587D02*
X7791047Y-14292063D01*
X7791047Y-14292063D02*
X7781523Y-14282539D01*
X7781523Y-14282539D02*
X7771999Y-14263491D01*
X7771999Y-14263491D02*
X7762475Y-14225396D01*
X7762475Y-14225396D02*
X7762475Y-14177777D01*
X7762475Y-14177777D02*
X7771999Y-14139682D01*
X7771999Y-14139682D02*
X7781523Y-14120634D01*
X7781523Y-14120634D02*
X7791047Y-14111111D01*
X7791047Y-14111111D02*
X7810094Y-14101587D01*
X7962475Y-14282539D02*
X7971999Y-14292063D01*
X7971999Y-14292063D02*
X7962475Y-14301587D01*
X7962475Y-14301587D02*
X7952952Y-14292063D01*
X7952952Y-14292063D02*
X7962475Y-14282539D01*
X7962475Y-14282539D02*
X7962475Y-14301587D01*
X8143428Y-14168253D02*
X8143428Y-14301587D01*
X8095809Y-14092063D02*
X8048190Y-14234920D01*
X8048190Y-14234920D02*
X8171999Y-14234920D01*
X8286285Y-14101587D02*
X8305333Y-14101587D01*
X8305333Y-14101587D02*
X8324380Y-14111111D01*
X8324380Y-14111111D02*
X8333904Y-14120634D01*
X8333904Y-14120634D02*
X8343428Y-14139682D01*
X8343428Y-14139682D02*
X8352952Y-14177777D01*
X8352952Y-14177777D02*
X8352952Y-14225396D01*
X8352952Y-14225396D02*
X8343428Y-14263491D01*
X8343428Y-14263491D02*
X8333904Y-14282539D01*
X8333904Y-14282539D02*
X8324380Y-14292063D01*
X8324380Y-14292063D02*
X8305333Y-14301587D01*
X8305333Y-14301587D02*
X8286285Y-14301587D01*
X8286285Y-14301587D02*
X8267237Y-14292063D01*
X8267237Y-14292063D02*
X8257713Y-14282539D01*
X8257713Y-14282539D02*
X8248190Y-14263491D01*
X8248190Y-14263491D02*
X8238666Y-14225396D01*
X8238666Y-14225396D02*
X8238666Y-14177777D01*
X8238666Y-14177777D02*
X8248190Y-14139682D01*
X8248190Y-14139682D02*
X8257713Y-14120634D01*
X8257713Y-14120634D02*
X8267237Y-14111111D01*
X8267237Y-14111111D02*
X8286285Y-14101587D01*
X8476761Y-14101587D02*
X8495809Y-14101587D01*
X8495809Y-14101587D02*
X8514856Y-14111111D01*
X8514856Y-14111111D02*
X8524380Y-14120634D01*
X8524380Y-14120634D02*
X8533904Y-14139682D01*
X8533904Y-14139682D02*
X8543428Y-14177777D01*
X8543428Y-14177777D02*
X8543428Y-14225396D01*
X8543428Y-14225396D02*
X8533904Y-14263491D01*
X8533904Y-14263491D02*
X8524380Y-14282539D01*
X8524380Y-14282539D02*
X8514856Y-14292063D01*
X8514856Y-14292063D02*
X8495809Y-14301587D01*
X8495809Y-14301587D02*
X8476761Y-14301587D01*
X8476761Y-14301587D02*
X8457714Y-14292063D01*
X8457714Y-14292063D02*
X8448190Y-14282539D01*
X8448190Y-14282539D02*
X8438666Y-14263491D01*
X8438666Y-14263491D02*
X8429142Y-14225396D01*
X8429142Y-14225396D02*
X8429142Y-14177777D01*
X8429142Y-14177777D02*
X8438666Y-14139682D01*
X8438666Y-14139682D02*
X8448190Y-14120634D01*
X8448190Y-14120634D02*
X8457714Y-14111111D01*
X8457714Y-14111111D02*
X8476761Y-14101587D01*
X8629142Y-14301587D02*
X8629142Y-14168253D01*
X8629142Y-14187301D02*
X8638666Y-14177777D01*
X8638666Y-14177777D02*
X8657714Y-14168253D01*
X8657714Y-14168253D02*
X8686285Y-14168253D01*
X8686285Y-14168253D02*
X8705333Y-14177777D01*
X8705333Y-14177777D02*
X8714856Y-14196825D01*
X8714856Y-14196825D02*
X8714856Y-14301587D01*
X8714856Y-14196825D02*
X8724380Y-14177777D01*
X8724380Y-14177777D02*
X8743428Y-14168253D01*
X8743428Y-14168253D02*
X8771999Y-14168253D01*
X8771999Y-14168253D02*
X8791047Y-14177777D01*
X8791047Y-14177777D02*
X8800571Y-14196825D01*
X8800571Y-14196825D02*
X8800571Y-14301587D01*
X8895809Y-14301587D02*
X8895809Y-14168253D01*
X8895809Y-14187301D02*
X8905333Y-14177777D01*
X8905333Y-14177777D02*
X8924380Y-14168253D01*
X8924380Y-14168253D02*
X8952952Y-14168253D01*
X8952952Y-14168253D02*
X8971999Y-14177777D01*
X8971999Y-14177777D02*
X8981523Y-14196825D01*
X8981523Y-14196825D02*
X8981523Y-14301587D01*
X8981523Y-14196825D02*
X8991047Y-14177777D01*
X8991047Y-14177777D02*
X9010095Y-14168253D01*
X9010095Y-14168253D02*
X9038666Y-14168253D01*
X9038666Y-14168253D02*
X9057714Y-14177777D01*
X9057714Y-14177777D02*
X9067237Y-14196825D01*
X9067237Y-14196825D02*
X9067237Y-14301587D01*
X9457714Y-14092063D02*
X9286285Y-14349206D01*
X9714857Y-14101587D02*
X9733904Y-14101587D01*
X9733904Y-14101587D02*
X9752952Y-14111111D01*
X9752952Y-14111111D02*
X9762476Y-14120634D01*
X9762476Y-14120634D02*
X9771999Y-14139682D01*
X9771999Y-14139682D02*
X9781523Y-14177777D01*
X9781523Y-14177777D02*
X9781523Y-14225396D01*
X9781523Y-14225396D02*
X9771999Y-14263491D01*
X9771999Y-14263491D02*
X9762476Y-14282539D01*
X9762476Y-14282539D02*
X9752952Y-14292063D01*
X9752952Y-14292063D02*
X9733904Y-14301587D01*
X9733904Y-14301587D02*
X9714857Y-14301587D01*
X9714857Y-14301587D02*
X9695809Y-14292063D01*
X9695809Y-14292063D02*
X9686285Y-14282539D01*
X9686285Y-14282539D02*
X9676761Y-14263491D01*
X9676761Y-14263491D02*
X9667238Y-14225396D01*
X9667238Y-14225396D02*
X9667238Y-14177777D01*
X9667238Y-14177777D02*
X9676761Y-14139682D01*
X9676761Y-14139682D02*
X9686285Y-14120634D01*
X9686285Y-14120634D02*
X9695809Y-14111111D01*
X9695809Y-14111111D02*
X9714857Y-14101587D01*
X9867238Y-14282539D02*
X9876761Y-14292063D01*
X9876761Y-14292063D02*
X9867238Y-14301587D01*
X9867238Y-14301587D02*
X9857714Y-14292063D01*
X9857714Y-14292063D02*
X9867238Y-14282539D01*
X9867238Y-14282539D02*
X9867238Y-14301587D01*
X10000571Y-14101587D02*
X10019619Y-14101587D01*
X10019619Y-14101587D02*
X10038666Y-14111111D01*
X10038666Y-14111111D02*
X10048190Y-14120634D01*
X10048190Y-14120634D02*
X10057714Y-14139682D01*
X10057714Y-14139682D02*
X10067238Y-14177777D01*
X10067238Y-14177777D02*
X10067238Y-14225396D01*
X10067238Y-14225396D02*
X10057714Y-14263491D01*
X10057714Y-14263491D02*
X10048190Y-14282539D01*
X10048190Y-14282539D02*
X10038666Y-14292063D01*
X10038666Y-14292063D02*
X10019619Y-14301587D01*
X10019619Y-14301587D02*
X10000571Y-14301587D01*
X10000571Y-14301587D02*
X9981523Y-14292063D01*
X9981523Y-14292063D02*
X9971999Y-14282539D01*
X9971999Y-14282539D02*
X9962476Y-14263491D01*
X9962476Y-14263491D02*
X9952952Y-14225396D01*
X9952952Y-14225396D02*
X9952952Y-14177777D01*
X9952952Y-14177777D02*
X9962476Y-14139682D01*
X9962476Y-14139682D02*
X9971999Y-14120634D01*
X9971999Y-14120634D02*
X9981523Y-14111111D01*
X9981523Y-14111111D02*
X10000571Y-14101587D01*
X10257714Y-14301587D02*
X10143428Y-14301587D01*
X10200571Y-14301587D02*
X10200571Y-14101587D01*
X10200571Y-14101587D02*
X10181523Y-14130158D01*
X10181523Y-14130158D02*
X10162476Y-14149206D01*
X10162476Y-14149206D02*
X10143428Y-14158730D01*
X10438666Y-14101587D02*
X10343428Y-14101587D01*
X10343428Y-14101587D02*
X10333904Y-14196825D01*
X10333904Y-14196825D02*
X10343428Y-14187301D01*
X10343428Y-14187301D02*
X10362476Y-14177777D01*
X10362476Y-14177777D02*
X10410095Y-14177777D01*
X10410095Y-14177777D02*
X10429142Y-14187301D01*
X10429142Y-14187301D02*
X10438666Y-14196825D01*
X10438666Y-14196825D02*
X10448190Y-14215872D01*
X10448190Y-14215872D02*
X10448190Y-14263491D01*
X10448190Y-14263491D02*
X10438666Y-14282539D01*
X10438666Y-14282539D02*
X10429142Y-14292063D01*
X10429142Y-14292063D02*
X10410095Y-14301587D01*
X10410095Y-14301587D02*
X10362476Y-14301587D01*
X10362476Y-14301587D02*
X10343428Y-14292063D01*
X10343428Y-14292063D02*
X10333904Y-14282539D01*
X10514857Y-14101587D02*
X10648190Y-14101587D01*
X10648190Y-14101587D02*
X10562476Y-14301587D01*
X10714857Y-14101587D02*
X10714857Y-14139682D01*
X10791047Y-14101587D02*
X10791047Y-14139682D01*
X11086285Y-14377777D02*
X11076761Y-14368253D01*
X11076761Y-14368253D02*
X11057714Y-14339682D01*
X11057714Y-14339682D02*
X11048190Y-14320634D01*
X11048190Y-14320634D02*
X11038666Y-14292063D01*
X11038666Y-14292063D02*
X11029142Y-14244444D01*
X11029142Y-14244444D02*
X11029142Y-14206349D01*
X11029142Y-14206349D02*
X11038666Y-14158730D01*
X11038666Y-14158730D02*
X11048190Y-14130158D01*
X11048190Y-14130158D02*
X11057714Y-14111111D01*
X11057714Y-14111111D02*
X11076761Y-14082539D01*
X11076761Y-14082539D02*
X11086285Y-14073015D01*
X11248190Y-14101587D02*
X11210095Y-14101587D01*
X11210095Y-14101587D02*
X11191047Y-14111111D01*
X11191047Y-14111111D02*
X11181523Y-14120634D01*
X11181523Y-14120634D02*
X11162476Y-14149206D01*
X11162476Y-14149206D02*
X11152952Y-14187301D01*
X11152952Y-14187301D02*
X11152952Y-14263491D01*
X11152952Y-14263491D02*
X11162476Y-14282539D01*
X11162476Y-14282539D02*
X11172000Y-14292063D01*
X11172000Y-14292063D02*
X11191047Y-14301587D01*
X11191047Y-14301587D02*
X11229142Y-14301587D01*
X11229142Y-14301587D02*
X11248190Y-14292063D01*
X11248190Y-14292063D02*
X11257714Y-14282539D01*
X11257714Y-14282539D02*
X11267238Y-14263491D01*
X11267238Y-14263491D02*
X11267238Y-14215872D01*
X11267238Y-14215872D02*
X11257714Y-14196825D01*
X11257714Y-14196825D02*
X11248190Y-14187301D01*
X11248190Y-14187301D02*
X11229142Y-14177777D01*
X11229142Y-14177777D02*
X11191047Y-14177777D01*
X11191047Y-14177777D02*
X11172000Y-14187301D01*
X11172000Y-14187301D02*
X11162476Y-14196825D01*
X11162476Y-14196825D02*
X11152952Y-14215872D01*
X11505333Y-14301587D02*
X11505333Y-14101587D01*
X11591047Y-14301587D02*
X11591047Y-14196825D01*
X11591047Y-14196825D02*
X11581523Y-14177777D01*
X11581523Y-14177777D02*
X11562476Y-14168253D01*
X11562476Y-14168253D02*
X11533904Y-14168253D01*
X11533904Y-14168253D02*
X11514857Y-14177777D01*
X11514857Y-14177777D02*
X11505333Y-14187301D01*
X11714857Y-14301587D02*
X11695809Y-14292063D01*
X11695809Y-14292063D02*
X11686285Y-14282539D01*
X11686285Y-14282539D02*
X11676761Y-14263491D01*
X11676761Y-14263491D02*
X11676761Y-14206349D01*
X11676761Y-14206349D02*
X11686285Y-14187301D01*
X11686285Y-14187301D02*
X11695809Y-14177777D01*
X11695809Y-14177777D02*
X11714857Y-14168253D01*
X11714857Y-14168253D02*
X11743428Y-14168253D01*
X11743428Y-14168253D02*
X11762476Y-14177777D01*
X11762476Y-14177777D02*
X11772000Y-14187301D01*
X11772000Y-14187301D02*
X11781523Y-14206349D01*
X11781523Y-14206349D02*
X11781523Y-14263491D01*
X11781523Y-14263491D02*
X11772000Y-14282539D01*
X11772000Y-14282539D02*
X11762476Y-14292063D01*
X11762476Y-14292063D02*
X11743428Y-14301587D01*
X11743428Y-14301587D02*
X11714857Y-14301587D01*
X11895809Y-14301587D02*
X11876761Y-14292063D01*
X11876761Y-14292063D02*
X11867238Y-14273015D01*
X11867238Y-14273015D02*
X11867238Y-14101587D01*
X12048190Y-14292063D02*
X12029142Y-14301587D01*
X12029142Y-14301587D02*
X11991047Y-14301587D01*
X11991047Y-14301587D02*
X11972000Y-14292063D01*
X11972000Y-14292063D02*
X11962476Y-14273015D01*
X11962476Y-14273015D02*
X11962476Y-14196825D01*
X11962476Y-14196825D02*
X11972000Y-14177777D01*
X11972000Y-14177777D02*
X11991047Y-14168253D01*
X11991047Y-14168253D02*
X12029142Y-14168253D01*
X12029142Y-14168253D02*
X12048190Y-14177777D01*
X12048190Y-14177777D02*
X12057714Y-14196825D01*
X12057714Y-14196825D02*
X12057714Y-14215872D01*
X12057714Y-14215872D02*
X11962476Y-14234920D01*
X12133904Y-14292063D02*
X12152952Y-14301587D01*
X12152952Y-14301587D02*
X12191047Y-14301587D01*
X12191047Y-14301587D02*
X12210095Y-14292063D01*
X12210095Y-14292063D02*
X12219619Y-14273015D01*
X12219619Y-14273015D02*
X12219619Y-14263491D01*
X12219619Y-14263491D02*
X12210095Y-14244444D01*
X12210095Y-14244444D02*
X12191047Y-14234920D01*
X12191047Y-14234920D02*
X12162476Y-14234920D01*
X12162476Y-14234920D02*
X12143428Y-14225396D01*
X12143428Y-14225396D02*
X12133904Y-14206349D01*
X12133904Y-14206349D02*
X12133904Y-14196825D01*
X12133904Y-14196825D02*
X12143428Y-14177777D01*
X12143428Y-14177777D02*
X12162476Y-14168253D01*
X12162476Y-14168253D02*
X12191047Y-14168253D01*
X12191047Y-14168253D02*
X12210095Y-14177777D01*
X12286285Y-14377777D02*
X12295809Y-14368253D01*
X12295809Y-14368253D02*
X12314857Y-14339682D01*
X12314857Y-14339682D02*
X12324381Y-14320634D01*
X12324381Y-14320634D02*
X12333904Y-14292063D01*
X12333904Y-14292063D02*
X12343428Y-14244444D01*
X12343428Y-14244444D02*
X12343428Y-14206349D01*
X12343428Y-14206349D02*
X12333904Y-14158730D01*
X12333904Y-14158730D02*
X12324381Y-14130158D01*
X12324381Y-14130158D02*
X12314857Y-14111111D01*
X12314857Y-14111111D02*
X12295809Y-14082539D01*
X12295809Y-14082539D02*
X12286285Y-14073015D01*
D12*
X7511222Y-14474103D02*
G75*
G02*
X7411222Y-14474103I-50000J0D01*
G01*
X7411222Y-14474103D02*
G75*
G02*
X7511222Y-14474103I50000J0D01*
G01*
D11*
X7876761Y-14565587D02*
X7762475Y-14565587D01*
X7819618Y-14565587D02*
X7819618Y-14365587D01*
X7819618Y-14365587D02*
X7800571Y-14394158D01*
X7800571Y-14394158D02*
X7781523Y-14413206D01*
X7781523Y-14413206D02*
X7762475Y-14422730D01*
X7962475Y-14546539D02*
X7971999Y-14556063D01*
X7971999Y-14556063D02*
X7962475Y-14565587D01*
X7962475Y-14565587D02*
X7952952Y-14556063D01*
X7952952Y-14556063D02*
X7962475Y-14546539D01*
X7962475Y-14546539D02*
X7962475Y-14565587D01*
X8095809Y-14365587D02*
X8114856Y-14365587D01*
X8114856Y-14365587D02*
X8133904Y-14375111D01*
X8133904Y-14375111D02*
X8143428Y-14384634D01*
X8143428Y-14384634D02*
X8152952Y-14403682D01*
X8152952Y-14403682D02*
X8162475Y-14441777D01*
X8162475Y-14441777D02*
X8162475Y-14489396D01*
X8162475Y-14489396D02*
X8152952Y-14527491D01*
X8152952Y-14527491D02*
X8143428Y-14546539D01*
X8143428Y-14546539D02*
X8133904Y-14556063D01*
X8133904Y-14556063D02*
X8114856Y-14565587D01*
X8114856Y-14565587D02*
X8095809Y-14565587D01*
X8095809Y-14565587D02*
X8076761Y-14556063D01*
X8076761Y-14556063D02*
X8067237Y-14546539D01*
X8067237Y-14546539D02*
X8057713Y-14527491D01*
X8057713Y-14527491D02*
X8048190Y-14489396D01*
X8048190Y-14489396D02*
X8048190Y-14441777D01*
X8048190Y-14441777D02*
X8057713Y-14403682D01*
X8057713Y-14403682D02*
X8067237Y-14384634D01*
X8067237Y-14384634D02*
X8076761Y-14375111D01*
X8076761Y-14375111D02*
X8095809Y-14365587D01*
X8286285Y-14365587D02*
X8305333Y-14365587D01*
X8305333Y-14365587D02*
X8324380Y-14375111D01*
X8324380Y-14375111D02*
X8333904Y-14384634D01*
X8333904Y-14384634D02*
X8343428Y-14403682D01*
X8343428Y-14403682D02*
X8352952Y-14441777D01*
X8352952Y-14441777D02*
X8352952Y-14489396D01*
X8352952Y-14489396D02*
X8343428Y-14527491D01*
X8343428Y-14527491D02*
X8333904Y-14546539D01*
X8333904Y-14546539D02*
X8324380Y-14556063D01*
X8324380Y-14556063D02*
X8305333Y-14565587D01*
X8305333Y-14565587D02*
X8286285Y-14565587D01*
X8286285Y-14565587D02*
X8267237Y-14556063D01*
X8267237Y-14556063D02*
X8257713Y-14546539D01*
X8257713Y-14546539D02*
X8248190Y-14527491D01*
X8248190Y-14527491D02*
X8238666Y-14489396D01*
X8238666Y-14489396D02*
X8238666Y-14441777D01*
X8238666Y-14441777D02*
X8248190Y-14403682D01*
X8248190Y-14403682D02*
X8257713Y-14384634D01*
X8257713Y-14384634D02*
X8267237Y-14375111D01*
X8267237Y-14375111D02*
X8286285Y-14365587D01*
X8476761Y-14365587D02*
X8495809Y-14365587D01*
X8495809Y-14365587D02*
X8514856Y-14375111D01*
X8514856Y-14375111D02*
X8524380Y-14384634D01*
X8524380Y-14384634D02*
X8533904Y-14403682D01*
X8533904Y-14403682D02*
X8543428Y-14441777D01*
X8543428Y-14441777D02*
X8543428Y-14489396D01*
X8543428Y-14489396D02*
X8533904Y-14527491D01*
X8533904Y-14527491D02*
X8524380Y-14546539D01*
X8524380Y-14546539D02*
X8514856Y-14556063D01*
X8514856Y-14556063D02*
X8495809Y-14565587D01*
X8495809Y-14565587D02*
X8476761Y-14565587D01*
X8476761Y-14565587D02*
X8457714Y-14556063D01*
X8457714Y-14556063D02*
X8448190Y-14546539D01*
X8448190Y-14546539D02*
X8438666Y-14527491D01*
X8438666Y-14527491D02*
X8429142Y-14489396D01*
X8429142Y-14489396D02*
X8429142Y-14441777D01*
X8429142Y-14441777D02*
X8438666Y-14403682D01*
X8438666Y-14403682D02*
X8448190Y-14384634D01*
X8448190Y-14384634D02*
X8457714Y-14375111D01*
X8457714Y-14375111D02*
X8476761Y-14365587D01*
X8629142Y-14565587D02*
X8629142Y-14432253D01*
X8629142Y-14451301D02*
X8638666Y-14441777D01*
X8638666Y-14441777D02*
X8657714Y-14432253D01*
X8657714Y-14432253D02*
X8686285Y-14432253D01*
X8686285Y-14432253D02*
X8705333Y-14441777D01*
X8705333Y-14441777D02*
X8714856Y-14460825D01*
X8714856Y-14460825D02*
X8714856Y-14565587D01*
X8714856Y-14460825D02*
X8724380Y-14441777D01*
X8724380Y-14441777D02*
X8743428Y-14432253D01*
X8743428Y-14432253D02*
X8771999Y-14432253D01*
X8771999Y-14432253D02*
X8791047Y-14441777D01*
X8791047Y-14441777D02*
X8800571Y-14460825D01*
X8800571Y-14460825D02*
X8800571Y-14565587D01*
X8895809Y-14565587D02*
X8895809Y-14432253D01*
X8895809Y-14451301D02*
X8905333Y-14441777D01*
X8905333Y-14441777D02*
X8924380Y-14432253D01*
X8924380Y-14432253D02*
X8952952Y-14432253D01*
X8952952Y-14432253D02*
X8971999Y-14441777D01*
X8971999Y-14441777D02*
X8981523Y-14460825D01*
X8981523Y-14460825D02*
X8981523Y-14565587D01*
X8981523Y-14460825D02*
X8991047Y-14441777D01*
X8991047Y-14441777D02*
X9010095Y-14432253D01*
X9010095Y-14432253D02*
X9038666Y-14432253D01*
X9038666Y-14432253D02*
X9057714Y-14441777D01*
X9057714Y-14441777D02*
X9067237Y-14460825D01*
X9067237Y-14460825D02*
X9067237Y-14565587D01*
X9457714Y-14356063D02*
X9286285Y-14613206D01*
X9714857Y-14365587D02*
X9733904Y-14365587D01*
X9733904Y-14365587D02*
X9752952Y-14375111D01*
X9752952Y-14375111D02*
X9762476Y-14384634D01*
X9762476Y-14384634D02*
X9771999Y-14403682D01*
X9771999Y-14403682D02*
X9781523Y-14441777D01*
X9781523Y-14441777D02*
X9781523Y-14489396D01*
X9781523Y-14489396D02*
X9771999Y-14527491D01*
X9771999Y-14527491D02*
X9762476Y-14546539D01*
X9762476Y-14546539D02*
X9752952Y-14556063D01*
X9752952Y-14556063D02*
X9733904Y-14565587D01*
X9733904Y-14565587D02*
X9714857Y-14565587D01*
X9714857Y-14565587D02*
X9695809Y-14556063D01*
X9695809Y-14556063D02*
X9686285Y-14546539D01*
X9686285Y-14546539D02*
X9676761Y-14527491D01*
X9676761Y-14527491D02*
X9667238Y-14489396D01*
X9667238Y-14489396D02*
X9667238Y-14441777D01*
X9667238Y-14441777D02*
X9676761Y-14403682D01*
X9676761Y-14403682D02*
X9686285Y-14384634D01*
X9686285Y-14384634D02*
X9695809Y-14375111D01*
X9695809Y-14375111D02*
X9714857Y-14365587D01*
X9867238Y-14546539D02*
X9876761Y-14556063D01*
X9876761Y-14556063D02*
X9867238Y-14565587D01*
X9867238Y-14565587D02*
X9857714Y-14556063D01*
X9857714Y-14556063D02*
X9867238Y-14546539D01*
X9867238Y-14546539D02*
X9867238Y-14565587D01*
X10000571Y-14365587D02*
X10019619Y-14365587D01*
X10019619Y-14365587D02*
X10038666Y-14375111D01*
X10038666Y-14375111D02*
X10048190Y-14384634D01*
X10048190Y-14384634D02*
X10057714Y-14403682D01*
X10057714Y-14403682D02*
X10067238Y-14441777D01*
X10067238Y-14441777D02*
X10067238Y-14489396D01*
X10067238Y-14489396D02*
X10057714Y-14527491D01*
X10057714Y-14527491D02*
X10048190Y-14546539D01*
X10048190Y-14546539D02*
X10038666Y-14556063D01*
X10038666Y-14556063D02*
X10019619Y-14565587D01*
X10019619Y-14565587D02*
X10000571Y-14565587D01*
X10000571Y-14565587D02*
X9981523Y-14556063D01*
X9981523Y-14556063D02*
X9971999Y-14546539D01*
X9971999Y-14546539D02*
X9962476Y-14527491D01*
X9962476Y-14527491D02*
X9952952Y-14489396D01*
X9952952Y-14489396D02*
X9952952Y-14441777D01*
X9952952Y-14441777D02*
X9962476Y-14403682D01*
X9962476Y-14403682D02*
X9971999Y-14384634D01*
X9971999Y-14384634D02*
X9981523Y-14375111D01*
X9981523Y-14375111D02*
X10000571Y-14365587D01*
X10133904Y-14365587D02*
X10257714Y-14365587D01*
X10257714Y-14365587D02*
X10191047Y-14441777D01*
X10191047Y-14441777D02*
X10219619Y-14441777D01*
X10219619Y-14441777D02*
X10238666Y-14451301D01*
X10238666Y-14451301D02*
X10248190Y-14460825D01*
X10248190Y-14460825D02*
X10257714Y-14479872D01*
X10257714Y-14479872D02*
X10257714Y-14527491D01*
X10257714Y-14527491D02*
X10248190Y-14546539D01*
X10248190Y-14546539D02*
X10238666Y-14556063D01*
X10238666Y-14556063D02*
X10219619Y-14565587D01*
X10219619Y-14565587D02*
X10162476Y-14565587D01*
X10162476Y-14565587D02*
X10143428Y-14556063D01*
X10143428Y-14556063D02*
X10133904Y-14546539D01*
X10352952Y-14565587D02*
X10391047Y-14565587D01*
X10391047Y-14565587D02*
X10410095Y-14556063D01*
X10410095Y-14556063D02*
X10419619Y-14546539D01*
X10419619Y-14546539D02*
X10438666Y-14517968D01*
X10438666Y-14517968D02*
X10448190Y-14479872D01*
X10448190Y-14479872D02*
X10448190Y-14403682D01*
X10448190Y-14403682D02*
X10438666Y-14384634D01*
X10438666Y-14384634D02*
X10429142Y-14375111D01*
X10429142Y-14375111D02*
X10410095Y-14365587D01*
X10410095Y-14365587D02*
X10371999Y-14365587D01*
X10371999Y-14365587D02*
X10352952Y-14375111D01*
X10352952Y-14375111D02*
X10343428Y-14384634D01*
X10343428Y-14384634D02*
X10333904Y-14403682D01*
X10333904Y-14403682D02*
X10333904Y-14451301D01*
X10333904Y-14451301D02*
X10343428Y-14470349D01*
X10343428Y-14470349D02*
X10352952Y-14479872D01*
X10352952Y-14479872D02*
X10371999Y-14489396D01*
X10371999Y-14489396D02*
X10410095Y-14489396D01*
X10410095Y-14489396D02*
X10429142Y-14479872D01*
X10429142Y-14479872D02*
X10438666Y-14470349D01*
X10438666Y-14470349D02*
X10448190Y-14451301D01*
X10619619Y-14432253D02*
X10619619Y-14565587D01*
X10571999Y-14356063D02*
X10524380Y-14498920D01*
X10524380Y-14498920D02*
X10648190Y-14498920D01*
X10714857Y-14365587D02*
X10714857Y-14403682D01*
X10791047Y-14365587D02*
X10791047Y-14403682D01*
X11086285Y-14641777D02*
X11076761Y-14632253D01*
X11076761Y-14632253D02*
X11057714Y-14603682D01*
X11057714Y-14603682D02*
X11048190Y-14584634D01*
X11048190Y-14584634D02*
X11038666Y-14556063D01*
X11038666Y-14556063D02*
X11029142Y-14508444D01*
X11029142Y-14508444D02*
X11029142Y-14470349D01*
X11029142Y-14470349D02*
X11038666Y-14422730D01*
X11038666Y-14422730D02*
X11048190Y-14394158D01*
X11048190Y-14394158D02*
X11057714Y-14375111D01*
X11057714Y-14375111D02*
X11076761Y-14346539D01*
X11076761Y-14346539D02*
X11086285Y-14337015D01*
X11257714Y-14365587D02*
X11162476Y-14365587D01*
X11162476Y-14365587D02*
X11152952Y-14460825D01*
X11152952Y-14460825D02*
X11162476Y-14451301D01*
X11162476Y-14451301D02*
X11181523Y-14441777D01*
X11181523Y-14441777D02*
X11229142Y-14441777D01*
X11229142Y-14441777D02*
X11248190Y-14451301D01*
X11248190Y-14451301D02*
X11257714Y-14460825D01*
X11257714Y-14460825D02*
X11267238Y-14479872D01*
X11267238Y-14479872D02*
X11267238Y-14527491D01*
X11267238Y-14527491D02*
X11257714Y-14546539D01*
X11257714Y-14546539D02*
X11248190Y-14556063D01*
X11248190Y-14556063D02*
X11229142Y-14565587D01*
X11229142Y-14565587D02*
X11181523Y-14565587D01*
X11181523Y-14565587D02*
X11162476Y-14556063D01*
X11162476Y-14556063D02*
X11152952Y-14546539D01*
X11391047Y-14365587D02*
X11410095Y-14365587D01*
X11410095Y-14365587D02*
X11429142Y-14375111D01*
X11429142Y-14375111D02*
X11438666Y-14384634D01*
X11438666Y-14384634D02*
X11448190Y-14403682D01*
X11448190Y-14403682D02*
X11457714Y-14441777D01*
X11457714Y-14441777D02*
X11457714Y-14489396D01*
X11457714Y-14489396D02*
X11448190Y-14527491D01*
X11448190Y-14527491D02*
X11438666Y-14546539D01*
X11438666Y-14546539D02*
X11429142Y-14556063D01*
X11429142Y-14556063D02*
X11410095Y-14565587D01*
X11410095Y-14565587D02*
X11391047Y-14565587D01*
X11391047Y-14565587D02*
X11371999Y-14556063D01*
X11371999Y-14556063D02*
X11362476Y-14546539D01*
X11362476Y-14546539D02*
X11352952Y-14527491D01*
X11352952Y-14527491D02*
X11343428Y-14489396D01*
X11343428Y-14489396D02*
X11343428Y-14441777D01*
X11343428Y-14441777D02*
X11352952Y-14403682D01*
X11352952Y-14403682D02*
X11362476Y-14384634D01*
X11362476Y-14384634D02*
X11371999Y-14375111D01*
X11371999Y-14375111D02*
X11391047Y-14365587D01*
X11695809Y-14565587D02*
X11695809Y-14365587D01*
X11781523Y-14565587D02*
X11781523Y-14460825D01*
X11781523Y-14460825D02*
X11772000Y-14441777D01*
X11772000Y-14441777D02*
X11752952Y-14432253D01*
X11752952Y-14432253D02*
X11724380Y-14432253D01*
X11724380Y-14432253D02*
X11705333Y-14441777D01*
X11705333Y-14441777D02*
X11695809Y-14451301D01*
X11905333Y-14565587D02*
X11886285Y-14556063D01*
X11886285Y-14556063D02*
X11876761Y-14546539D01*
X11876761Y-14546539D02*
X11867238Y-14527491D01*
X11867238Y-14527491D02*
X11867238Y-14470349D01*
X11867238Y-14470349D02*
X11876761Y-14451301D01*
X11876761Y-14451301D02*
X11886285Y-14441777D01*
X11886285Y-14441777D02*
X11905333Y-14432253D01*
X11905333Y-14432253D02*
X11933904Y-14432253D01*
X11933904Y-14432253D02*
X11952952Y-14441777D01*
X11952952Y-14441777D02*
X11962476Y-14451301D01*
X11962476Y-14451301D02*
X11972000Y-14470349D01*
X11972000Y-14470349D02*
X11972000Y-14527491D01*
X11972000Y-14527491D02*
X11962476Y-14546539D01*
X11962476Y-14546539D02*
X11952952Y-14556063D01*
X11952952Y-14556063D02*
X11933904Y-14565587D01*
X11933904Y-14565587D02*
X11905333Y-14565587D01*
X12086285Y-14565587D02*
X12067238Y-14556063D01*
X12067238Y-14556063D02*
X12057714Y-14537015D01*
X12057714Y-14537015D02*
X12057714Y-14365587D01*
X12238666Y-14556063D02*
X12219619Y-14565587D01*
X12219619Y-14565587D02*
X12181523Y-14565587D01*
X12181523Y-14565587D02*
X12162476Y-14556063D01*
X12162476Y-14556063D02*
X12152952Y-14537015D01*
X12152952Y-14537015D02*
X12152952Y-14460825D01*
X12152952Y-14460825D02*
X12162476Y-14441777D01*
X12162476Y-14441777D02*
X12181523Y-14432253D01*
X12181523Y-14432253D02*
X12219619Y-14432253D01*
X12219619Y-14432253D02*
X12238666Y-14441777D01*
X12238666Y-14441777D02*
X12248190Y-14460825D01*
X12248190Y-14460825D02*
X12248190Y-14479872D01*
X12248190Y-14479872D02*
X12152952Y-14498920D01*
X12324381Y-14556063D02*
X12343428Y-14565587D01*
X12343428Y-14565587D02*
X12381523Y-14565587D01*
X12381523Y-14565587D02*
X12400571Y-14556063D01*
X12400571Y-14556063D02*
X12410095Y-14537015D01*
X12410095Y-14537015D02*
X12410095Y-14527491D01*
X12410095Y-14527491D02*
X12400571Y-14508444D01*
X12400571Y-14508444D02*
X12381523Y-14498920D01*
X12381523Y-14498920D02*
X12352952Y-14498920D01*
X12352952Y-14498920D02*
X12333904Y-14489396D01*
X12333904Y-14489396D02*
X12324381Y-14470349D01*
X12324381Y-14470349D02*
X12324381Y-14460825D01*
X12324381Y-14460825D02*
X12333904Y-14441777D01*
X12333904Y-14441777D02*
X12352952Y-14432253D01*
X12352952Y-14432253D02*
X12381523Y-14432253D01*
X12381523Y-14432253D02*
X12400571Y-14441777D01*
X12476762Y-14641777D02*
X12486285Y-14632253D01*
X12486285Y-14632253D02*
X12505333Y-14603682D01*
X12505333Y-14603682D02*
X12514857Y-14584634D01*
X12514857Y-14584634D02*
X12524381Y-14556063D01*
X12524381Y-14556063D02*
X12533904Y-14508444D01*
X12533904Y-14508444D02*
X12533904Y-14470349D01*
X12533904Y-14470349D02*
X12524381Y-14422730D01*
X12524381Y-14422730D02*
X12514857Y-14394158D01*
X12514857Y-14394158D02*
X12505333Y-14375111D01*
X12505333Y-14375111D02*
X12486285Y-14346539D01*
X12486285Y-14346539D02*
X12476762Y-14337015D01*
D13*
X7447722Y-14674603D02*
X7447722Y-14801603D01*
X7384222Y-14738103D02*
X7511222Y-14738103D01*
D11*
X7876761Y-14829587D02*
X7762475Y-14829587D01*
X7819618Y-14829587D02*
X7819618Y-14629587D01*
X7819618Y-14629587D02*
X7800571Y-14658158D01*
X7800571Y-14658158D02*
X7781523Y-14677206D01*
X7781523Y-14677206D02*
X7762475Y-14686730D01*
X7962475Y-14810539D02*
X7971999Y-14820063D01*
X7971999Y-14820063D02*
X7962475Y-14829587D01*
X7962475Y-14829587D02*
X7952952Y-14820063D01*
X7952952Y-14820063D02*
X7962475Y-14810539D01*
X7962475Y-14810539D02*
X7962475Y-14829587D01*
X8048190Y-14648634D02*
X8057713Y-14639111D01*
X8057713Y-14639111D02*
X8076761Y-14629587D01*
X8076761Y-14629587D02*
X8124380Y-14629587D01*
X8124380Y-14629587D02*
X8143428Y-14639111D01*
X8143428Y-14639111D02*
X8152952Y-14648634D01*
X8152952Y-14648634D02*
X8162475Y-14667682D01*
X8162475Y-14667682D02*
X8162475Y-14686730D01*
X8162475Y-14686730D02*
X8152952Y-14715301D01*
X8152952Y-14715301D02*
X8038666Y-14829587D01*
X8038666Y-14829587D02*
X8162475Y-14829587D01*
X8229142Y-14629587D02*
X8362475Y-14629587D01*
X8362475Y-14629587D02*
X8276761Y-14829587D01*
X8476761Y-14629587D02*
X8495809Y-14629587D01*
X8495809Y-14629587D02*
X8514856Y-14639111D01*
X8514856Y-14639111D02*
X8524380Y-14648634D01*
X8524380Y-14648634D02*
X8533904Y-14667682D01*
X8533904Y-14667682D02*
X8543428Y-14705777D01*
X8543428Y-14705777D02*
X8543428Y-14753396D01*
X8543428Y-14753396D02*
X8533904Y-14791491D01*
X8533904Y-14791491D02*
X8524380Y-14810539D01*
X8524380Y-14810539D02*
X8514856Y-14820063D01*
X8514856Y-14820063D02*
X8495809Y-14829587D01*
X8495809Y-14829587D02*
X8476761Y-14829587D01*
X8476761Y-14829587D02*
X8457714Y-14820063D01*
X8457714Y-14820063D02*
X8448190Y-14810539D01*
X8448190Y-14810539D02*
X8438666Y-14791491D01*
X8438666Y-14791491D02*
X8429142Y-14753396D01*
X8429142Y-14753396D02*
X8429142Y-14705777D01*
X8429142Y-14705777D02*
X8438666Y-14667682D01*
X8438666Y-14667682D02*
X8448190Y-14648634D01*
X8448190Y-14648634D02*
X8457714Y-14639111D01*
X8457714Y-14639111D02*
X8476761Y-14629587D01*
X8629142Y-14829587D02*
X8629142Y-14696253D01*
X8629142Y-14715301D02*
X8638666Y-14705777D01*
X8638666Y-14705777D02*
X8657714Y-14696253D01*
X8657714Y-14696253D02*
X8686285Y-14696253D01*
X8686285Y-14696253D02*
X8705333Y-14705777D01*
X8705333Y-14705777D02*
X8714856Y-14724825D01*
X8714856Y-14724825D02*
X8714856Y-14829587D01*
X8714856Y-14724825D02*
X8724380Y-14705777D01*
X8724380Y-14705777D02*
X8743428Y-14696253D01*
X8743428Y-14696253D02*
X8771999Y-14696253D01*
X8771999Y-14696253D02*
X8791047Y-14705777D01*
X8791047Y-14705777D02*
X8800571Y-14724825D01*
X8800571Y-14724825D02*
X8800571Y-14829587D01*
X8895809Y-14829587D02*
X8895809Y-14696253D01*
X8895809Y-14715301D02*
X8905333Y-14705777D01*
X8905333Y-14705777D02*
X8924380Y-14696253D01*
X8924380Y-14696253D02*
X8952952Y-14696253D01*
X8952952Y-14696253D02*
X8971999Y-14705777D01*
X8971999Y-14705777D02*
X8981523Y-14724825D01*
X8981523Y-14724825D02*
X8981523Y-14829587D01*
X8981523Y-14724825D02*
X8991047Y-14705777D01*
X8991047Y-14705777D02*
X9010095Y-14696253D01*
X9010095Y-14696253D02*
X9038666Y-14696253D01*
X9038666Y-14696253D02*
X9057714Y-14705777D01*
X9057714Y-14705777D02*
X9067237Y-14724825D01*
X9067237Y-14724825D02*
X9067237Y-14829587D01*
X9457714Y-14620063D02*
X9286285Y-14877206D01*
X9714857Y-14629587D02*
X9733904Y-14629587D01*
X9733904Y-14629587D02*
X9752952Y-14639111D01*
X9752952Y-14639111D02*
X9762476Y-14648634D01*
X9762476Y-14648634D02*
X9771999Y-14667682D01*
X9771999Y-14667682D02*
X9781523Y-14705777D01*
X9781523Y-14705777D02*
X9781523Y-14753396D01*
X9781523Y-14753396D02*
X9771999Y-14791491D01*
X9771999Y-14791491D02*
X9762476Y-14810539D01*
X9762476Y-14810539D02*
X9752952Y-14820063D01*
X9752952Y-14820063D02*
X9733904Y-14829587D01*
X9733904Y-14829587D02*
X9714857Y-14829587D01*
X9714857Y-14829587D02*
X9695809Y-14820063D01*
X9695809Y-14820063D02*
X9686285Y-14810539D01*
X9686285Y-14810539D02*
X9676761Y-14791491D01*
X9676761Y-14791491D02*
X9667238Y-14753396D01*
X9667238Y-14753396D02*
X9667238Y-14705777D01*
X9667238Y-14705777D02*
X9676761Y-14667682D01*
X9676761Y-14667682D02*
X9686285Y-14648634D01*
X9686285Y-14648634D02*
X9695809Y-14639111D01*
X9695809Y-14639111D02*
X9714857Y-14629587D01*
X9867238Y-14810539D02*
X9876761Y-14820063D01*
X9876761Y-14820063D02*
X9867238Y-14829587D01*
X9867238Y-14829587D02*
X9857714Y-14820063D01*
X9857714Y-14820063D02*
X9867238Y-14810539D01*
X9867238Y-14810539D02*
X9867238Y-14829587D01*
X10000571Y-14629587D02*
X10019619Y-14629587D01*
X10019619Y-14629587D02*
X10038666Y-14639111D01*
X10038666Y-14639111D02*
X10048190Y-14648634D01*
X10048190Y-14648634D02*
X10057714Y-14667682D01*
X10057714Y-14667682D02*
X10067238Y-14705777D01*
X10067238Y-14705777D02*
X10067238Y-14753396D01*
X10067238Y-14753396D02*
X10057714Y-14791491D01*
X10057714Y-14791491D02*
X10048190Y-14810539D01*
X10048190Y-14810539D02*
X10038666Y-14820063D01*
X10038666Y-14820063D02*
X10019619Y-14829587D01*
X10019619Y-14829587D02*
X10000571Y-14829587D01*
X10000571Y-14829587D02*
X9981523Y-14820063D01*
X9981523Y-14820063D02*
X9971999Y-14810539D01*
X9971999Y-14810539D02*
X9962476Y-14791491D01*
X9962476Y-14791491D02*
X9952952Y-14753396D01*
X9952952Y-14753396D02*
X9952952Y-14705777D01*
X9952952Y-14705777D02*
X9962476Y-14667682D01*
X9962476Y-14667682D02*
X9971999Y-14648634D01*
X9971999Y-14648634D02*
X9981523Y-14639111D01*
X9981523Y-14639111D02*
X10000571Y-14629587D01*
X10248190Y-14629587D02*
X10152952Y-14629587D01*
X10152952Y-14629587D02*
X10143428Y-14724825D01*
X10143428Y-14724825D02*
X10152952Y-14715301D01*
X10152952Y-14715301D02*
X10171999Y-14705777D01*
X10171999Y-14705777D02*
X10219619Y-14705777D01*
X10219619Y-14705777D02*
X10238666Y-14715301D01*
X10238666Y-14715301D02*
X10248190Y-14724825D01*
X10248190Y-14724825D02*
X10257714Y-14743872D01*
X10257714Y-14743872D02*
X10257714Y-14791491D01*
X10257714Y-14791491D02*
X10248190Y-14810539D01*
X10248190Y-14810539D02*
X10238666Y-14820063D01*
X10238666Y-14820063D02*
X10219619Y-14829587D01*
X10219619Y-14829587D02*
X10171999Y-14829587D01*
X10171999Y-14829587D02*
X10152952Y-14820063D01*
X10152952Y-14820063D02*
X10143428Y-14810539D01*
X10381523Y-14629587D02*
X10400571Y-14629587D01*
X10400571Y-14629587D02*
X10419619Y-14639111D01*
X10419619Y-14639111D02*
X10429142Y-14648634D01*
X10429142Y-14648634D02*
X10438666Y-14667682D01*
X10438666Y-14667682D02*
X10448190Y-14705777D01*
X10448190Y-14705777D02*
X10448190Y-14753396D01*
X10448190Y-14753396D02*
X10438666Y-14791491D01*
X10438666Y-14791491D02*
X10429142Y-14810539D01*
X10429142Y-14810539D02*
X10419619Y-14820063D01*
X10419619Y-14820063D02*
X10400571Y-14829587D01*
X10400571Y-14829587D02*
X10381523Y-14829587D01*
X10381523Y-14829587D02*
X10362476Y-14820063D01*
X10362476Y-14820063D02*
X10352952Y-14810539D01*
X10352952Y-14810539D02*
X10343428Y-14791491D01*
X10343428Y-14791491D02*
X10333904Y-14753396D01*
X10333904Y-14753396D02*
X10333904Y-14705777D01*
X10333904Y-14705777D02*
X10343428Y-14667682D01*
X10343428Y-14667682D02*
X10352952Y-14648634D01*
X10352952Y-14648634D02*
X10362476Y-14639111D01*
X10362476Y-14639111D02*
X10381523Y-14629587D01*
X10571999Y-14629587D02*
X10591047Y-14629587D01*
X10591047Y-14629587D02*
X10610095Y-14639111D01*
X10610095Y-14639111D02*
X10619619Y-14648634D01*
X10619619Y-14648634D02*
X10629142Y-14667682D01*
X10629142Y-14667682D02*
X10638666Y-14705777D01*
X10638666Y-14705777D02*
X10638666Y-14753396D01*
X10638666Y-14753396D02*
X10629142Y-14791491D01*
X10629142Y-14791491D02*
X10619619Y-14810539D01*
X10619619Y-14810539D02*
X10610095Y-14820063D01*
X10610095Y-14820063D02*
X10591047Y-14829587D01*
X10591047Y-14829587D02*
X10571999Y-14829587D01*
X10571999Y-14829587D02*
X10552952Y-14820063D01*
X10552952Y-14820063D02*
X10543428Y-14810539D01*
X10543428Y-14810539D02*
X10533904Y-14791491D01*
X10533904Y-14791491D02*
X10524380Y-14753396D01*
X10524380Y-14753396D02*
X10524380Y-14705777D01*
X10524380Y-14705777D02*
X10533904Y-14667682D01*
X10533904Y-14667682D02*
X10543428Y-14648634D01*
X10543428Y-14648634D02*
X10552952Y-14639111D01*
X10552952Y-14639111D02*
X10571999Y-14629587D01*
X10714857Y-14629587D02*
X10714857Y-14667682D01*
X10791047Y-14629587D02*
X10791047Y-14667682D01*
X11086285Y-14905777D02*
X11076761Y-14896253D01*
X11076761Y-14896253D02*
X11057714Y-14867682D01*
X11057714Y-14867682D02*
X11048190Y-14848634D01*
X11048190Y-14848634D02*
X11038666Y-14820063D01*
X11038666Y-14820063D02*
X11029142Y-14772444D01*
X11029142Y-14772444D02*
X11029142Y-14734349D01*
X11029142Y-14734349D02*
X11038666Y-14686730D01*
X11038666Y-14686730D02*
X11048190Y-14658158D01*
X11048190Y-14658158D02*
X11057714Y-14639111D01*
X11057714Y-14639111D02*
X11076761Y-14610539D01*
X11076761Y-14610539D02*
X11086285Y-14601015D01*
X11257714Y-14629587D02*
X11162476Y-14629587D01*
X11162476Y-14629587D02*
X11152952Y-14724825D01*
X11152952Y-14724825D02*
X11162476Y-14715301D01*
X11162476Y-14715301D02*
X11181523Y-14705777D01*
X11181523Y-14705777D02*
X11229142Y-14705777D01*
X11229142Y-14705777D02*
X11248190Y-14715301D01*
X11248190Y-14715301D02*
X11257714Y-14724825D01*
X11257714Y-14724825D02*
X11267238Y-14743872D01*
X11267238Y-14743872D02*
X11267238Y-14791491D01*
X11267238Y-14791491D02*
X11257714Y-14810539D01*
X11257714Y-14810539D02*
X11248190Y-14820063D01*
X11248190Y-14820063D02*
X11229142Y-14829587D01*
X11229142Y-14829587D02*
X11181523Y-14829587D01*
X11181523Y-14829587D02*
X11162476Y-14820063D01*
X11162476Y-14820063D02*
X11152952Y-14810539D01*
X11438666Y-14696253D02*
X11438666Y-14829587D01*
X11391047Y-14620063D02*
X11343428Y-14762920D01*
X11343428Y-14762920D02*
X11467238Y-14762920D01*
X11695809Y-14829587D02*
X11695809Y-14629587D01*
X11781523Y-14829587D02*
X11781523Y-14724825D01*
X11781523Y-14724825D02*
X11772000Y-14705777D01*
X11772000Y-14705777D02*
X11752952Y-14696253D01*
X11752952Y-14696253D02*
X11724380Y-14696253D01*
X11724380Y-14696253D02*
X11705333Y-14705777D01*
X11705333Y-14705777D02*
X11695809Y-14715301D01*
X11905333Y-14829587D02*
X11886285Y-14820063D01*
X11886285Y-14820063D02*
X11876761Y-14810539D01*
X11876761Y-14810539D02*
X11867238Y-14791491D01*
X11867238Y-14791491D02*
X11867238Y-14734349D01*
X11867238Y-14734349D02*
X11876761Y-14715301D01*
X11876761Y-14715301D02*
X11886285Y-14705777D01*
X11886285Y-14705777D02*
X11905333Y-14696253D01*
X11905333Y-14696253D02*
X11933904Y-14696253D01*
X11933904Y-14696253D02*
X11952952Y-14705777D01*
X11952952Y-14705777D02*
X11962476Y-14715301D01*
X11962476Y-14715301D02*
X11972000Y-14734349D01*
X11972000Y-14734349D02*
X11972000Y-14791491D01*
X11972000Y-14791491D02*
X11962476Y-14810539D01*
X11962476Y-14810539D02*
X11952952Y-14820063D01*
X11952952Y-14820063D02*
X11933904Y-14829587D01*
X11933904Y-14829587D02*
X11905333Y-14829587D01*
X12086285Y-14829587D02*
X12067238Y-14820063D01*
X12067238Y-14820063D02*
X12057714Y-14801015D01*
X12057714Y-14801015D02*
X12057714Y-14629587D01*
X12238666Y-14820063D02*
X12219619Y-14829587D01*
X12219619Y-14829587D02*
X12181523Y-14829587D01*
X12181523Y-14829587D02*
X12162476Y-14820063D01*
X12162476Y-14820063D02*
X12152952Y-14801015D01*
X12152952Y-14801015D02*
X12152952Y-14724825D01*
X12152952Y-14724825D02*
X12162476Y-14705777D01*
X12162476Y-14705777D02*
X12181523Y-14696253D01*
X12181523Y-14696253D02*
X12219619Y-14696253D01*
X12219619Y-14696253D02*
X12238666Y-14705777D01*
X12238666Y-14705777D02*
X12248190Y-14724825D01*
X12248190Y-14724825D02*
X12248190Y-14743872D01*
X12248190Y-14743872D02*
X12152952Y-14762920D01*
X12324381Y-14820063D02*
X12343428Y-14829587D01*
X12343428Y-14829587D02*
X12381523Y-14829587D01*
X12381523Y-14829587D02*
X12400571Y-14820063D01*
X12400571Y-14820063D02*
X12410095Y-14801015D01*
X12410095Y-14801015D02*
X12410095Y-14791491D01*
X12410095Y-14791491D02*
X12400571Y-14772444D01*
X12400571Y-14772444D02*
X12381523Y-14762920D01*
X12381523Y-14762920D02*
X12352952Y-14762920D01*
X12352952Y-14762920D02*
X12333904Y-14753396D01*
X12333904Y-14753396D02*
X12324381Y-14734349D01*
X12324381Y-14734349D02*
X12324381Y-14724825D01*
X12324381Y-14724825D02*
X12333904Y-14705777D01*
X12333904Y-14705777D02*
X12352952Y-14696253D01*
X12352952Y-14696253D02*
X12381523Y-14696253D01*
X12381523Y-14696253D02*
X12400571Y-14705777D01*
X12476762Y-14905777D02*
X12486285Y-14896253D01*
X12486285Y-14896253D02*
X12505333Y-14867682D01*
X12505333Y-14867682D02*
X12514857Y-14848634D01*
X12514857Y-14848634D02*
X12524381Y-14820063D01*
X12524381Y-14820063D02*
X12533904Y-14772444D01*
X12533904Y-14772444D02*
X12533904Y-14734349D01*
X12533904Y-14734349D02*
X12524381Y-14686730D01*
X12524381Y-14686730D02*
X12514857Y-14658158D01*
X12514857Y-14658158D02*
X12505333Y-14639111D01*
X12505333Y-14639111D02*
X12486285Y-14610539D01*
X12486285Y-14610539D02*
X12476762Y-14601015D01*
M02*
