%TF.GenerationSoftware,KiCad,Pcbnew,8.0.4*%
%TF.CreationDate,2024-09-02T19:20:57+07:00*%
%TF.ProjectId,chocowi36,63686f63-6f77-4693-9336-2e6b69636164,rev?*%
%TF.SameCoordinates,Original*%
%TF.FileFunction,Legend,Bot*%
%TF.FilePolarity,Positive*%
%FSLAX46Y46*%
G04 Gerber Fmt 4.6, Leading zero omitted, Abs format (unit mm)*
G04 Created by KiCad (PCBNEW 8.0.4) date 2024-09-02 19:20:57*
%MOMM*%
%LPD*%
G01*
G04 APERTURE LIST*
%ADD10C,0.125000*%
%ADD11C,0.150000*%
G04 APERTURE END LIST*
D10*
X181415570Y-62624809D02*
X181320332Y-62624809D01*
X181320332Y-62624809D02*
X181272713Y-62648619D01*
X181272713Y-62648619D02*
X181225094Y-62696238D01*
X181225094Y-62696238D02*
X181201284Y-62791476D01*
X181201284Y-62791476D02*
X181201284Y-62958142D01*
X181201284Y-62958142D02*
X181225094Y-63053380D01*
X181225094Y-63053380D02*
X181272713Y-63101000D01*
X181272713Y-63101000D02*
X181320332Y-63124809D01*
X181320332Y-63124809D02*
X181415570Y-63124809D01*
X181415570Y-63124809D02*
X181463189Y-63101000D01*
X181463189Y-63101000D02*
X181510808Y-63053380D01*
X181510808Y-63053380D02*
X181534617Y-62958142D01*
X181534617Y-62958142D02*
X181534617Y-62791476D01*
X181534617Y-62791476D02*
X181510808Y-62696238D01*
X181510808Y-62696238D02*
X181463189Y-62648619D01*
X181463189Y-62648619D02*
X181415570Y-62624809D01*
X180986998Y-63124809D02*
X180986998Y-62624809D01*
X180986998Y-62624809D02*
X180701284Y-63124809D01*
X180701284Y-63124809D02*
X180701284Y-62624809D01*
D11*
G36*
X122058199Y-105872009D02*
G01*
X122157612Y-105867194D01*
X122265560Y-105849899D01*
X122367462Y-105820025D01*
X122463320Y-105777572D01*
X122474877Y-105771381D01*
X122562133Y-105716274D01*
X122639741Y-105652069D01*
X122707702Y-105578765D01*
X122766015Y-105496364D01*
X122812818Y-105406330D01*
X122846248Y-105310617D01*
X122866307Y-105209226D01*
X122872993Y-105102156D01*
X122866839Y-105001959D01*
X122845855Y-104897252D01*
X122809978Y-104798318D01*
X122760710Y-104706089D01*
X122699552Y-104622173D01*
X122633635Y-104553098D01*
X122551277Y-104486435D01*
X122460030Y-104430854D01*
X122369364Y-104389944D01*
X122272287Y-104359289D01*
X122170344Y-104339988D01*
X122063536Y-104332041D01*
X122041590Y-104331814D01*
X121934629Y-104336632D01*
X121832343Y-104351086D01*
X121734732Y-104375177D01*
X121715770Y-104381151D01*
X121624275Y-104416213D01*
X121530902Y-104465250D01*
X121445149Y-104525254D01*
X121683042Y-104936559D01*
X121761438Y-104875656D01*
X121834961Y-104838862D01*
X121932912Y-104813166D01*
X122002511Y-104808087D01*
X122101157Y-104817738D01*
X122174458Y-104842281D01*
X122253759Y-104900835D01*
X122283879Y-104942421D01*
X122316203Y-105035729D01*
X122321493Y-105102156D01*
X122307384Y-105204561D01*
X122260635Y-105292664D01*
X122236008Y-105318555D01*
X122148679Y-105371649D01*
X122045152Y-105394328D01*
X121999581Y-105396224D01*
X121899435Y-105386022D01*
X121815421Y-105360076D01*
X121724310Y-105310121D01*
X121646894Y-105247725D01*
X121433914Y-105670265D01*
X121516737Y-105725019D01*
X121607670Y-105772045D01*
X121706712Y-105811344D01*
X121727494Y-105818276D01*
X121831574Y-105846612D01*
X121934986Y-105864453D01*
X122037730Y-105871799D01*
X122058199Y-105872009D01*
G37*
G36*
X121226308Y-105830000D02*
G01*
X121226308Y-103814019D01*
X120666015Y-103814019D01*
X120666015Y-104718206D01*
X120783740Y-104575568D01*
X120709757Y-104501815D01*
X120626295Y-104438090D01*
X120565387Y-104401179D01*
X120474759Y-104361687D01*
X120376165Y-104338588D01*
X120279622Y-104331814D01*
X120179758Y-104336943D01*
X120077993Y-104354975D01*
X119978063Y-104390238D01*
X119933286Y-104413879D01*
X119846777Y-104476591D01*
X119776661Y-104551886D01*
X119727145Y-104631256D01*
X119687931Y-104726890D01*
X119664995Y-104828411D01*
X119658269Y-104925812D01*
X119658269Y-105830000D01*
X120218073Y-105830000D01*
X120218073Y-105082616D01*
X120232850Y-104983576D01*
X120277180Y-104905296D01*
X120359200Y-104849929D01*
X120445219Y-104835931D01*
X120543496Y-104851318D01*
X120569783Y-104864263D01*
X120636194Y-104936124D01*
X120642567Y-104949748D01*
X120664549Y-105045369D01*
X120666015Y-105082616D01*
X120666015Y-105830000D01*
X121226308Y-105830000D01*
G37*
G36*
X118642894Y-104332368D02*
G01*
X118741328Y-104340675D01*
X118844988Y-104361598D01*
X118942637Y-104394829D01*
X119032969Y-104438601D01*
X119123077Y-104496890D01*
X119203488Y-104565799D01*
X119267268Y-104636276D01*
X119326076Y-104720743D01*
X119372993Y-104812484D01*
X119404163Y-104900173D01*
X119425115Y-104999606D01*
X119432100Y-105102156D01*
X119425597Y-105204982D01*
X119406088Y-105303412D01*
X119373573Y-105397445D01*
X119328052Y-105487083D01*
X119270747Y-105570156D01*
X119203366Y-105644497D01*
X119125911Y-105710107D01*
X119038380Y-105766985D01*
X119014950Y-105779703D01*
X118916688Y-105822369D01*
X118811160Y-105851907D01*
X118712862Y-105866984D01*
X118609001Y-105872009D01*
X118574942Y-105871455D01*
X118476217Y-105863148D01*
X118372595Y-105842225D01*
X118275366Y-105808995D01*
X118185034Y-105765269D01*
X118094925Y-105707144D01*
X118014514Y-105638513D01*
X117950782Y-105568036D01*
X117892137Y-105483568D01*
X117845498Y-105391828D01*
X117814071Y-105303929D01*
X117792945Y-105204485D01*
X117785903Y-105102156D01*
X118329099Y-105102156D01*
X118333486Y-105161677D01*
X118366224Y-105258960D01*
X118392051Y-105297008D01*
X118467340Y-105360565D01*
X118508461Y-105379370D01*
X118609001Y-105396224D01*
X118656676Y-105392742D01*
X118751151Y-105360565D01*
X118788264Y-105335110D01*
X118851779Y-105258960D01*
X118875816Y-105201267D01*
X118888904Y-105102156D01*
X118884632Y-105042414D01*
X118852756Y-104945352D01*
X118827234Y-104907094D01*
X118752616Y-104843747D01*
X118706775Y-104823445D01*
X118609001Y-104808087D01*
X118560811Y-104811570D01*
X118465875Y-104843747D01*
X118428599Y-104868992D01*
X118365735Y-104945352D01*
X118342015Y-105002809D01*
X118329099Y-105102156D01*
X117785903Y-105102156D01*
X117792436Y-104999330D01*
X117812037Y-104900900D01*
X117844704Y-104806866D01*
X117890439Y-104717229D01*
X117947561Y-104633942D01*
X118014881Y-104559448D01*
X118092397Y-104493747D01*
X118180111Y-104436838D01*
X118203482Y-104424120D01*
X118301545Y-104381454D01*
X118406936Y-104351916D01*
X118505164Y-104336839D01*
X118609001Y-104331814D01*
X118642894Y-104332368D01*
G37*
G36*
X116825540Y-105872009D02*
G01*
X116924953Y-105867194D01*
X117032901Y-105849899D01*
X117134803Y-105820025D01*
X117230661Y-105777572D01*
X117242218Y-105771381D01*
X117329474Y-105716274D01*
X117407082Y-105652069D01*
X117475043Y-105578765D01*
X117533356Y-105496364D01*
X117580159Y-105406330D01*
X117613590Y-105310617D01*
X117633648Y-105209226D01*
X117640334Y-105102156D01*
X117634180Y-105001959D01*
X117613196Y-104897252D01*
X117577320Y-104798318D01*
X117528052Y-104706089D01*
X117466893Y-104622173D01*
X117400976Y-104553098D01*
X117318618Y-104486435D01*
X117227371Y-104430854D01*
X117136705Y-104389944D01*
X117039628Y-104359289D01*
X116937686Y-104339988D01*
X116830877Y-104332041D01*
X116808932Y-104331814D01*
X116701970Y-104336632D01*
X116599684Y-104351086D01*
X116502073Y-104375177D01*
X116483112Y-104381151D01*
X116391616Y-104416213D01*
X116298244Y-104465250D01*
X116212490Y-104525254D01*
X116450383Y-104936559D01*
X116528779Y-104875656D01*
X116602302Y-104838862D01*
X116700253Y-104813166D01*
X116769853Y-104808087D01*
X116868498Y-104817738D01*
X116941800Y-104842281D01*
X117021100Y-104900835D01*
X117051220Y-104942421D01*
X117083544Y-105035729D01*
X117088834Y-105102156D01*
X117074725Y-105204561D01*
X117027976Y-105292664D01*
X117003349Y-105318555D01*
X116916021Y-105371649D01*
X116812493Y-105394328D01*
X116766922Y-105396224D01*
X116666776Y-105386022D01*
X116582763Y-105360076D01*
X116491651Y-105310121D01*
X116414235Y-105247725D01*
X116201255Y-105670265D01*
X116284078Y-105725019D01*
X116375011Y-105772045D01*
X116474054Y-105811344D01*
X116494835Y-105818276D01*
X116598915Y-105846612D01*
X116702327Y-105864453D01*
X116805071Y-105871799D01*
X116825540Y-105872009D01*
G37*
G36*
X115340731Y-104332368D02*
G01*
X115439164Y-104340675D01*
X115542824Y-104361598D01*
X115640474Y-104394829D01*
X115730805Y-104438601D01*
X115820914Y-104496890D01*
X115901325Y-104565799D01*
X115965105Y-104636276D01*
X116023913Y-104720743D01*
X116070830Y-104812484D01*
X116101999Y-104900173D01*
X116122952Y-104999606D01*
X116129936Y-105102156D01*
X116123433Y-105204982D01*
X116103925Y-105303412D01*
X116071410Y-105397445D01*
X116025889Y-105487083D01*
X115968583Y-105570156D01*
X115901203Y-105644497D01*
X115823747Y-105710107D01*
X115736217Y-105766985D01*
X115712787Y-105779703D01*
X115614525Y-105822369D01*
X115508997Y-105851907D01*
X115410699Y-105866984D01*
X115306838Y-105872009D01*
X115272779Y-105871455D01*
X115174054Y-105863148D01*
X115070432Y-105842225D01*
X114973202Y-105808995D01*
X114882871Y-105765269D01*
X114792762Y-105707144D01*
X114712351Y-105638513D01*
X114648619Y-105568036D01*
X114589974Y-105483568D01*
X114543335Y-105391828D01*
X114511908Y-105303929D01*
X114490782Y-105204485D01*
X114483740Y-105102156D01*
X115026936Y-105102156D01*
X115031323Y-105161677D01*
X115064061Y-105258960D01*
X115089887Y-105297008D01*
X115165177Y-105360565D01*
X115206298Y-105379370D01*
X115306838Y-105396224D01*
X115354513Y-105392742D01*
X115448987Y-105360565D01*
X115486101Y-105335110D01*
X115549615Y-105258960D01*
X115573652Y-105201267D01*
X115586740Y-105102156D01*
X115582469Y-105042414D01*
X115550592Y-104945352D01*
X115525071Y-104907094D01*
X115450453Y-104843747D01*
X115404611Y-104823445D01*
X115306838Y-104808087D01*
X115258648Y-104811570D01*
X115163712Y-104843747D01*
X115126436Y-104868992D01*
X115063572Y-104945352D01*
X115039851Y-105002809D01*
X115026936Y-105102156D01*
X114483740Y-105102156D01*
X114490273Y-104999330D01*
X114509874Y-104900900D01*
X114542541Y-104806866D01*
X114588276Y-104717229D01*
X114645398Y-104633942D01*
X114712717Y-104559448D01*
X114790234Y-104493747D01*
X114877948Y-104436838D01*
X114901319Y-104424120D01*
X114999382Y-104381454D01*
X115104773Y-104351916D01*
X115203000Y-104336839D01*
X115306838Y-104331814D01*
X115340731Y-104332368D01*
G37*
G36*
X114000627Y-105830000D02*
G01*
X114423656Y-104373824D01*
X113888764Y-104373824D01*
X113701186Y-105188618D01*
X113474528Y-104373824D01*
X112970411Y-104373824D01*
X112746196Y-105188618D01*
X112567410Y-104373824D01*
X112049127Y-104373824D01*
X112472156Y-105830000D01*
X113020725Y-105830000D01*
X113230774Y-105048911D01*
X113452058Y-105830000D01*
X114000627Y-105830000D01*
G37*
G36*
X111864968Y-105830000D02*
G01*
X111864968Y-104373824D01*
X111304675Y-104373824D01*
X111304675Y-105830000D01*
X111864968Y-105830000D01*
G37*
G36*
X111584577Y-104186245D02*
G01*
X111684824Y-104173185D01*
X111779979Y-104129908D01*
X111810746Y-104107110D01*
X111876195Y-104026554D01*
X111904152Y-103931492D01*
X111906489Y-103889734D01*
X111890688Y-103786852D01*
X111838328Y-103698054D01*
X111810746Y-103671870D01*
X111727231Y-103620633D01*
X111632267Y-103595517D01*
X111584577Y-103592735D01*
X111484646Y-103605795D01*
X111389651Y-103649072D01*
X111358897Y-103671870D01*
X111293113Y-103752519D01*
X111265014Y-103847836D01*
X111262665Y-103889734D01*
X111278547Y-103992301D01*
X111331174Y-104080938D01*
X111358897Y-104107110D01*
X111442331Y-104158347D01*
X111537053Y-104183463D01*
X111584577Y-104186245D01*
G37*
G36*
X110386322Y-105872009D02*
G01*
X110487415Y-105867682D01*
X110586998Y-105854699D01*
X110652546Y-105841235D01*
X110753928Y-105812683D01*
X110846925Y-105777037D01*
X110887019Y-105758192D01*
X110974045Y-105705835D01*
X111047243Y-105639490D01*
X110885066Y-105199853D01*
X110811669Y-105274626D01*
X110724594Y-105330997D01*
X110686252Y-105349330D01*
X110589463Y-105382966D01*
X110490339Y-105401079D01*
X110422958Y-105404528D01*
X110323021Y-105393379D01*
X110277389Y-105378639D01*
X110193049Y-105323346D01*
X110178715Y-105306831D01*
X110143613Y-105214775D01*
X110143056Y-105199853D01*
X110166394Y-105101175D01*
X110216817Y-105044515D01*
X110305974Y-105001825D01*
X110403419Y-104989804D01*
X110502484Y-104997025D01*
X110513328Y-104998597D01*
X110611770Y-105018522D01*
X110630076Y-105023510D01*
X110775645Y-104676196D01*
X110330634Y-104320579D01*
X111019399Y-104320579D01*
X111019399Y-103870195D01*
X109708792Y-103870195D01*
X109708792Y-104284431D01*
X110106419Y-104670823D01*
X110004812Y-104695640D01*
X109912975Y-104737103D01*
X109878296Y-104757773D01*
X109795048Y-104823156D01*
X109729652Y-104898821D01*
X109696580Y-104949748D01*
X109655697Y-105039489D01*
X109631785Y-105141467D01*
X109624772Y-105244794D01*
X109632500Y-105343369D01*
X109659214Y-105445645D01*
X109705010Y-105540289D01*
X109722470Y-105567194D01*
X109790476Y-105649655D01*
X109864081Y-105713999D01*
X109949432Y-105768992D01*
X109991137Y-105790432D01*
X110091717Y-105829866D01*
X110188063Y-105854085D01*
X110290942Y-105868106D01*
X110386322Y-105872009D01*
G37*
G36*
X108183226Y-103846206D02*
G01*
X108279506Y-103868760D01*
X108373415Y-103895848D01*
X108479981Y-103933181D01*
X108583321Y-103976685D01*
X108640451Y-104004048D01*
X108736204Y-104056083D01*
X108826581Y-104113402D01*
X108911582Y-104176003D01*
X108991206Y-104243886D01*
X109033964Y-104284828D01*
X109102987Y-104360148D01*
X109164623Y-104440143D01*
X109218872Y-104524813D01*
X109265735Y-104614159D01*
X109288862Y-104667037D01*
X109321914Y-104762513D01*
X109345523Y-104861729D01*
X109359688Y-104964685D01*
X109364410Y-105071381D01*
X109364308Y-105086524D01*
X109357937Y-105189076D01*
X109338520Y-105298893D01*
X109306158Y-105400834D01*
X109260851Y-105494898D01*
X109204064Y-105579712D01*
X109137752Y-105654389D01*
X109061915Y-105718930D01*
X108976552Y-105773335D01*
X108965205Y-105779406D01*
X108870790Y-105821034D01*
X108769902Y-105850328D01*
X108662542Y-105867288D01*
X108563293Y-105872009D01*
X108552485Y-105871958D01*
X108447766Y-105865833D01*
X108349153Y-105849499D01*
X108247731Y-105819741D01*
X108170902Y-105786781D01*
X108085501Y-105737576D01*
X108003000Y-105672707D01*
X107954426Y-105623431D01*
X107892671Y-105542419D01*
X107844242Y-105452889D01*
X107819665Y-105388958D01*
X107795966Y-105288712D01*
X107789127Y-105197411D01*
X108305861Y-105197411D01*
X108307046Y-105222008D01*
X108339567Y-105317090D01*
X108353065Y-105335917D01*
X108431402Y-105399644D01*
X108465139Y-105414048D01*
X108563293Y-105429441D01*
X108599410Y-105427579D01*
X108695673Y-105399644D01*
X108716613Y-105387514D01*
X108787508Y-105317090D01*
X108800641Y-105293331D01*
X108821213Y-105197411D01*
X108820028Y-105172664D01*
X108787508Y-105077732D01*
X108774010Y-105058755D01*
X108695673Y-104995177D01*
X108661699Y-104980537D01*
X108563293Y-104964891D01*
X108527206Y-104966784D01*
X108431402Y-104995177D01*
X108410462Y-105007159D01*
X108339567Y-105077732D01*
X108326433Y-105101323D01*
X108305861Y-105197411D01*
X107789127Y-105197411D01*
X107788066Y-105183244D01*
X107788818Y-105149167D01*
X107800088Y-105051262D01*
X107828471Y-104950092D01*
X107873551Y-104856936D01*
X107884430Y-104839343D01*
X107946435Y-104758476D01*
X108021129Y-104689439D01*
X108108513Y-104632233D01*
X108146676Y-104612998D01*
X108247960Y-104576133D01*
X108346295Y-104556658D01*
X108451430Y-104550167D01*
X108484952Y-104550930D01*
X108583321Y-104562379D01*
X108611084Y-104568093D01*
X108706419Y-104598039D01*
X108649246Y-104535449D01*
X108573551Y-104471521D01*
X108568705Y-104467960D01*
X108485067Y-104414105D01*
X108396231Y-104368939D01*
X108364341Y-104355052D01*
X108268705Y-104319469D01*
X108171527Y-104290781D01*
X108099451Y-104273062D01*
X107997098Y-104252443D01*
X107896999Y-104236559D01*
X108084577Y-103828185D01*
X108183226Y-103846206D01*
G37*
D10*
G36*
X113816621Y-106072069D02*
G01*
X113816621Y-106937275D01*
X113655812Y-106937275D01*
X113648973Y-106881588D01*
X113645489Y-106886228D01*
X113614748Y-106918047D01*
X113578902Y-106940438D01*
X113537952Y-106953401D01*
X113497933Y-106957010D01*
X113478488Y-106956341D01*
X113437573Y-106949948D01*
X113400583Y-106936784D01*
X113364088Y-106914219D01*
X113347706Y-106900003D01*
X113321511Y-106870472D01*
X113299552Y-106835871D01*
X113281827Y-106796200D01*
X113280108Y-106791491D01*
X113268320Y-106752372D01*
X113260025Y-106710689D01*
X113255223Y-106666442D01*
X113253931Y-106626989D01*
X113441073Y-106626989D01*
X113441513Y-106652198D01*
X113445030Y-106697065D01*
X113453191Y-106738695D01*
X113469210Y-106776856D01*
X113476559Y-106787481D01*
X113507232Y-106813511D01*
X113545609Y-106822188D01*
X113560020Y-106821284D01*
X113596802Y-106807729D01*
X113609629Y-106797329D01*
X113635295Y-106765719D01*
X113635295Y-106505258D01*
X113618298Y-106479989D01*
X113591136Y-106451525D01*
X113575382Y-106441118D01*
X113536426Y-106431790D01*
X113522516Y-106432828D01*
X113486209Y-106448399D01*
X113468206Y-106469636D01*
X113452992Y-106507408D01*
X113445729Y-106544099D01*
X113442016Y-106586326D01*
X113441073Y-106626989D01*
X113253931Y-106626989D01*
X113253886Y-106625621D01*
X113254725Y-106588789D01*
X113258136Y-106545497D01*
X113264170Y-106505258D01*
X113274875Y-106461002D01*
X113289358Y-106421141D01*
X113307619Y-106385677D01*
X113325919Y-106360121D01*
X113356813Y-106331620D01*
X113393858Y-106311609D01*
X113437056Y-106300087D01*
X113478980Y-106296968D01*
X113490514Y-106297325D01*
X113529442Y-106304202D01*
X113566126Y-106319829D01*
X113576054Y-106325743D01*
X113607919Y-106350336D01*
X113635295Y-106380988D01*
X113635295Y-106052921D01*
X113816621Y-106072069D01*
G37*
G36*
X112551443Y-106319243D02*
G01*
X112754849Y-106941965D01*
X112768429Y-106979171D01*
X112787370Y-107020002D01*
X112809196Y-107056670D01*
X112833907Y-107089176D01*
X112861504Y-107117519D01*
X112876384Y-107130129D01*
X112908832Y-107152042D01*
X112945361Y-107169422D01*
X112985970Y-107182268D01*
X113030660Y-107190579D01*
X113071018Y-107194043D01*
X113096593Y-107194609D01*
X113117305Y-107069166D01*
X113078566Y-107063027D01*
X113039929Y-107053449D01*
X113019999Y-107046305D01*
X112984634Y-107027079D01*
X112960208Y-107005077D01*
X112936564Y-106971452D01*
X112920738Y-106939229D01*
X112982874Y-106939229D01*
X113176314Y-106319243D01*
X112984632Y-106319243D01*
X112866223Y-106821797D01*
X112737654Y-106319243D01*
X112551443Y-106319243D01*
G37*
G36*
X111487912Y-105994107D02*
G01*
X111447543Y-106000805D01*
X111412812Y-106022713D01*
X111410927Y-106024588D01*
X111388505Y-106058587D01*
X111381061Y-106097204D01*
X111381031Y-106100011D01*
X111387600Y-106139289D01*
X111409087Y-106174087D01*
X111410927Y-106176019D01*
X111445121Y-106199027D01*
X111484986Y-106206666D01*
X111487912Y-106206696D01*
X111528787Y-106199955D01*
X111563965Y-106177906D01*
X111565874Y-106176019D01*
X111588442Y-106141678D01*
X111595936Y-106102830D01*
X111595965Y-106100011D01*
X111589353Y-106060959D01*
X111567726Y-106026496D01*
X111565874Y-106024588D01*
X111531241Y-106001727D01*
X111490875Y-105994137D01*
X111487912Y-105994107D01*
G37*
G36*
X111378296Y-106319243D02*
G01*
X111378296Y-106806947D01*
X111223153Y-106806947D01*
X111223153Y-106932000D01*
X111732546Y-106932000D01*
X111732546Y-106806947D01*
X111559817Y-106806947D01*
X111559817Y-106444295D01*
X111726879Y-106444295D01*
X111726879Y-106319243D01*
X111378296Y-106319243D01*
G37*
G36*
X110513285Y-106899564D02*
G01*
X110547415Y-106919172D01*
X110584197Y-106934835D01*
X110599650Y-106940206D01*
X110639244Y-106950446D01*
X110678678Y-106955681D01*
X110713174Y-106957010D01*
X110755853Y-106954826D01*
X110800176Y-106946755D01*
X110838608Y-106932738D01*
X110875317Y-106909438D01*
X110890787Y-106894875D01*
X110916091Y-106860937D01*
X110934165Y-106821455D01*
X110944049Y-106782360D01*
X110948398Y-106739021D01*
X110948624Y-106725859D01*
X110948624Y-106444295D01*
X111076802Y-106444295D01*
X111076802Y-106319243D01*
X110948624Y-106319243D01*
X110948624Y-106185593D01*
X110767298Y-106163318D01*
X110767298Y-106319243D01*
X110570731Y-106319243D01*
X110588512Y-106444295D01*
X110767298Y-106444295D01*
X110767298Y-106722146D01*
X110762120Y-106761225D01*
X110746586Y-106787408D01*
X110711079Y-106804199D01*
X110680543Y-106806947D01*
X110640668Y-106803665D01*
X110621729Y-106799327D01*
X110584653Y-106785185D01*
X110573662Y-106779397D01*
X110513285Y-106899564D01*
G37*
G36*
X110129140Y-106822188D02*
G01*
X110088205Y-106818573D01*
X110056063Y-106807729D01*
X110029868Y-106777724D01*
X110028121Y-106764156D01*
X110039063Y-106731134D01*
X110071856Y-106709357D01*
X110081073Y-106705538D01*
X110119468Y-106692202D01*
X110158138Y-106680597D01*
X110172909Y-106676424D01*
X110212867Y-106663943D01*
X110253148Y-106646924D01*
X110288484Y-106626752D01*
X110309294Y-106611553D01*
X110337012Y-106581198D01*
X110354463Y-106543134D01*
X110361393Y-106502286D01*
X110361855Y-106487282D01*
X110357605Y-106447837D01*
X110342664Y-106407723D01*
X110316966Y-106372123D01*
X110293858Y-106350897D01*
X110255988Y-106327303D01*
X110216661Y-106312188D01*
X110178353Y-106303341D01*
X110135799Y-106298285D01*
X110097096Y-106296968D01*
X110057577Y-106298348D01*
X110016272Y-106303200D01*
X109974293Y-106312687D01*
X109954849Y-106319048D01*
X109918594Y-106334011D01*
X109882416Y-106353160D01*
X109850117Y-106375126D01*
X109922413Y-106484351D01*
X109956703Y-106465192D01*
X109993237Y-106449773D01*
X110004088Y-106446054D01*
X110042326Y-106436303D01*
X110083545Y-106431916D01*
X110091820Y-106431790D01*
X110134041Y-106435546D01*
X110170632Y-106454232D01*
X110179161Y-106479271D01*
X110168024Y-106506235D01*
X110133231Y-106526517D01*
X110125819Y-106529487D01*
X110087570Y-106542774D01*
X110049459Y-106554534D01*
X110034960Y-106558796D01*
X109996081Y-106570973D01*
X109957828Y-106585677D01*
X109931987Y-106597680D01*
X109897334Y-106619708D01*
X109868672Y-106649702D01*
X109863990Y-106656494D01*
X109847427Y-106693161D01*
X109840613Y-106731794D01*
X109839761Y-106753605D01*
X109843635Y-106793496D01*
X109856844Y-106832484D01*
X109879426Y-106866347D01*
X109909656Y-106894922D01*
X109942506Y-106916171D01*
X109980471Y-106932917D01*
X109984548Y-106934344D01*
X110022357Y-106945301D01*
X110062144Y-106952672D01*
X110103910Y-106956457D01*
X110127968Y-106957010D01*
X110170930Y-106955398D01*
X110211304Y-106950562D01*
X110253629Y-106941268D01*
X110284283Y-106931218D01*
X110320830Y-106915317D01*
X110357703Y-106894640D01*
X110390645Y-106870796D01*
X110399761Y-106863025D01*
X110308317Y-106757903D01*
X110275405Y-106780252D01*
X110238903Y-106799086D01*
X110227814Y-106803821D01*
X110189755Y-106815713D01*
X110148922Y-106821542D01*
X110129140Y-106822188D01*
G37*
G36*
X109338380Y-106354414D02*
G01*
X109360389Y-106334891D01*
X109396803Y-106313181D01*
X109437298Y-106300558D01*
X109476719Y-106296968D01*
X109490677Y-106297341D01*
X109530345Y-106302931D01*
X109570542Y-106317009D01*
X109606656Y-106339369D01*
X109623077Y-106353340D01*
X109649532Y-106382432D01*
X109672000Y-106416593D01*
X109690480Y-106455824D01*
X109692283Y-106460473D01*
X109704648Y-106499195D01*
X109713349Y-106540628D01*
X109718387Y-106584771D01*
X109719789Y-106625621D01*
X109719694Y-106637979D01*
X109717857Y-106679681D01*
X109713683Y-106718971D01*
X109706051Y-106760920D01*
X109695365Y-106799718D01*
X109690564Y-106813386D01*
X109673502Y-106850908D01*
X109649868Y-106886472D01*
X109621311Y-106915586D01*
X109611740Y-106922989D01*
X109576538Y-106942407D01*
X109536261Y-106953733D01*
X109495672Y-106957010D01*
X109470450Y-106955776D01*
X109431171Y-106947917D01*
X109394262Y-106931218D01*
X109386532Y-106926293D01*
X109354314Y-106900946D01*
X109326851Y-106869473D01*
X109317668Y-106937471D01*
X109156858Y-106937471D01*
X109156858Y-106484547D01*
X109338380Y-106484547D01*
X109338380Y-106750674D01*
X109355158Y-106775341D01*
X109382930Y-106803039D01*
X109399076Y-106813137D01*
X109438226Y-106822188D01*
X109450056Y-106821384D01*
X109487270Y-106805384D01*
X109505079Y-106783866D01*
X109520487Y-106745984D01*
X109527869Y-106709375D01*
X109531643Y-106667369D01*
X109532602Y-106626989D01*
X109532153Y-106601780D01*
X109528562Y-106556913D01*
X109520232Y-106515283D01*
X109503879Y-106477122D01*
X109498332Y-106469020D01*
X109468177Y-106441751D01*
X109428066Y-106431790D01*
X109416083Y-106432463D01*
X109378631Y-106445859D01*
X109365549Y-106455598D01*
X109338380Y-106484547D01*
X109156858Y-106484547D01*
X109156858Y-106072069D01*
X109338380Y-106052921D01*
X109338380Y-106354414D01*
G37*
G36*
X108545860Y-106296968D02*
G01*
X108505233Y-106302001D01*
X108469970Y-106318973D01*
X108449726Y-106339564D01*
X108431816Y-106375013D01*
X108422692Y-106413188D01*
X108418759Y-106454050D01*
X108418268Y-106476926D01*
X108418268Y-106932000D01*
X108573997Y-106932000D01*
X108573997Y-106491581D01*
X108577694Y-106452096D01*
X108580054Y-106445272D01*
X108604479Y-106431790D01*
X108633983Y-106441364D01*
X108661928Y-106469154D01*
X108667591Y-106476926D01*
X108667591Y-106932000D01*
X108795184Y-106932000D01*
X108795184Y-106491581D01*
X108798881Y-106452096D01*
X108801241Y-106445272D01*
X108825665Y-106431790D01*
X108855170Y-106441364D01*
X108883114Y-106469154D01*
X108888777Y-106476926D01*
X108888777Y-106932000D01*
X109046656Y-106932000D01*
X109046656Y-106319243D01*
X108913397Y-106319243D01*
X108901478Y-106375321D01*
X108876233Y-106345097D01*
X108845277Y-106318150D01*
X108843446Y-106316898D01*
X108807011Y-106300783D01*
X108773886Y-106296968D01*
X108734791Y-106303837D01*
X108715072Y-106314554D01*
X108689074Y-106345877D01*
X108680292Y-106369069D01*
X108651324Y-106340053D01*
X108619524Y-106317094D01*
X108582093Y-106301390D01*
X108545860Y-106296968D01*
G37*
G36*
X107961241Y-106354414D02*
G01*
X107983250Y-106334891D01*
X108019664Y-106313181D01*
X108060159Y-106300558D01*
X108099580Y-106296968D01*
X108113538Y-106297341D01*
X108153206Y-106302931D01*
X108193403Y-106317009D01*
X108229517Y-106339369D01*
X108245938Y-106353340D01*
X108272393Y-106382432D01*
X108294861Y-106416593D01*
X108313341Y-106455824D01*
X108315144Y-106460473D01*
X108327509Y-106499195D01*
X108336210Y-106540628D01*
X108341248Y-106584771D01*
X108342650Y-106625621D01*
X108342555Y-106637979D01*
X108340718Y-106679681D01*
X108336544Y-106718971D01*
X108328912Y-106760920D01*
X108318226Y-106799718D01*
X108313425Y-106813386D01*
X108296363Y-106850908D01*
X108272729Y-106886472D01*
X108244172Y-106915586D01*
X108234601Y-106922989D01*
X108199399Y-106942407D01*
X108159122Y-106953733D01*
X108118533Y-106957010D01*
X108093311Y-106955776D01*
X108054032Y-106947917D01*
X108017124Y-106931218D01*
X108009393Y-106926293D01*
X107977175Y-106900946D01*
X107949712Y-106869473D01*
X107940529Y-106937471D01*
X107779719Y-106937471D01*
X107779719Y-106484547D01*
X107961241Y-106484547D01*
X107961241Y-106750674D01*
X107978019Y-106775341D01*
X108005791Y-106803039D01*
X108021937Y-106813137D01*
X108061087Y-106822188D01*
X108072918Y-106821384D01*
X108110131Y-106805384D01*
X108127940Y-106783866D01*
X108143348Y-106745984D01*
X108150730Y-106709375D01*
X108154504Y-106667369D01*
X108155463Y-106626989D01*
X108155014Y-106601780D01*
X108151423Y-106556913D01*
X108143093Y-106515283D01*
X108126740Y-106477122D01*
X108121193Y-106469020D01*
X108091038Y-106441751D01*
X108050927Y-106431790D01*
X108038944Y-106432463D01*
X108001492Y-106445859D01*
X107988410Y-106455598D01*
X107961241Y-106484547D01*
X107779719Y-106484547D01*
X107779719Y-106072069D01*
X107961241Y-106052921D01*
X107961241Y-106354414D01*
G37*
X179834761Y-70544333D02*
X179453809Y-70544333D01*
X179049046Y-70472904D02*
X178977618Y-70496714D01*
X178977618Y-70496714D02*
X178953808Y-70520523D01*
X178953808Y-70520523D02*
X178929999Y-70568142D01*
X178929999Y-70568142D02*
X178929999Y-70639571D01*
X178929999Y-70639571D02*
X178953808Y-70687190D01*
X178953808Y-70687190D02*
X178977618Y-70711000D01*
X178977618Y-70711000D02*
X179025237Y-70734809D01*
X179025237Y-70734809D02*
X179215713Y-70734809D01*
X179215713Y-70734809D02*
X179215713Y-70234809D01*
X179215713Y-70234809D02*
X179049046Y-70234809D01*
X179049046Y-70234809D02*
X179001427Y-70258619D01*
X179001427Y-70258619D02*
X178977618Y-70282428D01*
X178977618Y-70282428D02*
X178953808Y-70330047D01*
X178953808Y-70330047D02*
X178953808Y-70377666D01*
X178953808Y-70377666D02*
X178977618Y-70425285D01*
X178977618Y-70425285D02*
X179001427Y-70449095D01*
X179001427Y-70449095D02*
X179049046Y-70472904D01*
X179049046Y-70472904D02*
X179215713Y-70472904D01*
X178739522Y-70591952D02*
X178501427Y-70591952D01*
X178787141Y-70734809D02*
X178620475Y-70234809D01*
X178620475Y-70234809D02*
X178453808Y-70734809D01*
X178358570Y-70234809D02*
X178072856Y-70234809D01*
X178215713Y-70734809D02*
X178215713Y-70234809D01*
X177906190Y-70544333D02*
X177525238Y-70544333D01*
X177715714Y-70734809D02*
X177715714Y-70353857D01*
X184547238Y-61248809D02*
X184713904Y-61010714D01*
X184832952Y-61248809D02*
X184832952Y-60748809D01*
X184832952Y-60748809D02*
X184642476Y-60748809D01*
X184642476Y-60748809D02*
X184594857Y-60772619D01*
X184594857Y-60772619D02*
X184571047Y-60796428D01*
X184571047Y-60796428D02*
X184547238Y-60844047D01*
X184547238Y-60844047D02*
X184547238Y-60915476D01*
X184547238Y-60915476D02*
X184571047Y-60963095D01*
X184571047Y-60963095D02*
X184594857Y-60986904D01*
X184594857Y-60986904D02*
X184642476Y-61010714D01*
X184642476Y-61010714D02*
X184832952Y-61010714D01*
X184356761Y-61105952D02*
X184118666Y-61105952D01*
X184404380Y-61248809D02*
X184237714Y-60748809D01*
X184237714Y-60748809D02*
X184071047Y-61248809D01*
X183952000Y-60748809D02*
X183832952Y-61248809D01*
X183832952Y-61248809D02*
X183737714Y-60891666D01*
X183737714Y-60891666D02*
X183642476Y-61248809D01*
X183642476Y-61248809D02*
X183523429Y-60748809D01*
D11*
%TO.C,SW2*%
X83910000Y-57880000D02*
X84410000Y-57380000D01*
X83910000Y-61380000D02*
X84410000Y-61880000D01*
X84410000Y-57380000D02*
X87410000Y-57380000D01*
X84410000Y-61880000D02*
X86910000Y-61880000D01*
X87410000Y-57380000D02*
X87910000Y-57880000D01*
X87910000Y-58880000D02*
X87910000Y-57880000D01*
X88410000Y-63380000D02*
X88410000Y-64080000D01*
X88410000Y-64080000D02*
X92910000Y-64080000D01*
X92910000Y-59380000D02*
X88410000Y-59380000D01*
X92910000Y-59980000D02*
X92910000Y-59380000D01*
X92910000Y-64080000D02*
X92910000Y-63580000D01*
X86910000Y-61880000D02*
G75*
G02*
X88410000Y-63380000I0J-1500000D01*
G01*
X88410000Y-59380000D02*
G75*
G02*
X87910000Y-58880000I0J500000D01*
G01*
%TO.C,SW3*%
X101910000Y-51320000D02*
X102410000Y-50820000D01*
X101910000Y-54820000D02*
X102410000Y-55320000D01*
X102410000Y-50820000D02*
X105410000Y-50820000D01*
X102410000Y-55320000D02*
X104910000Y-55320000D01*
X105410000Y-50820000D02*
X105910000Y-51320000D01*
X105910000Y-52320000D02*
X105910000Y-51320000D01*
X106410000Y-56820000D02*
X106410000Y-57520000D01*
X106410000Y-57520000D02*
X110910000Y-57520000D01*
X110910000Y-52820000D02*
X106410000Y-52820000D01*
X110910000Y-53420000D02*
X110910000Y-52820000D01*
X110910000Y-57520000D02*
X110910000Y-57020000D01*
X104910000Y-55320000D02*
G75*
G02*
X106410000Y-56820000I0J-1500000D01*
G01*
X106410000Y-52820000D02*
G75*
G02*
X105910000Y-52320000I0J500000D01*
G01*
%TO.C,SW4*%
X119910000Y-48960000D02*
X120410000Y-48460000D01*
X119910000Y-52460000D02*
X120410000Y-52960000D01*
X120410000Y-48460000D02*
X123410000Y-48460000D01*
X120410000Y-52960000D02*
X122910000Y-52960000D01*
X123410000Y-48460000D02*
X123910000Y-48960000D01*
X123910000Y-49960000D02*
X123910000Y-48960000D01*
X124410000Y-54460000D02*
X124410000Y-55160000D01*
X124410000Y-55160000D02*
X128910000Y-55160000D01*
X128910000Y-50460000D02*
X124410000Y-50460000D01*
X128910000Y-51060000D02*
X128910000Y-50460000D01*
X128910000Y-55160000D02*
X128910000Y-54660000D01*
X122910000Y-52960000D02*
G75*
G02*
X124410000Y-54460000I0J-1500000D01*
G01*
X124410000Y-50460000D02*
G75*
G02*
X123910000Y-49960000I0J500000D01*
G01*
%TO.C,SW5*%
X137954000Y-51320000D02*
X138454000Y-50820000D01*
X137954000Y-54820000D02*
X138454000Y-55320000D01*
X138454000Y-50820000D02*
X141454000Y-50820000D01*
X138454000Y-55320000D02*
X140954000Y-55320000D01*
X141454000Y-50820000D02*
X141954000Y-51320000D01*
X141954000Y-52320000D02*
X141954000Y-51320000D01*
X142454000Y-56820000D02*
X142454000Y-57520000D01*
X142454000Y-57520000D02*
X146954000Y-57520000D01*
X146954000Y-52820000D02*
X142454000Y-52820000D01*
X146954000Y-53420000D02*
X146954000Y-52820000D01*
X146954000Y-57520000D02*
X146954000Y-57020000D01*
X140954000Y-55320000D02*
G75*
G02*
X142454000Y-56820000I0J-1500000D01*
G01*
X142454000Y-52820000D02*
G75*
G02*
X141954000Y-52320000I0J500000D01*
G01*
%TO.C,SW6*%
X155988000Y-53700000D02*
X156488000Y-53200000D01*
X155988000Y-57200000D02*
X156488000Y-57700000D01*
X156488000Y-53200000D02*
X159488000Y-53200000D01*
X156488000Y-57700000D02*
X158988000Y-57700000D01*
X159488000Y-53200000D02*
X159988000Y-53700000D01*
X159988000Y-54700000D02*
X159988000Y-53700000D01*
X160488000Y-59200000D02*
X160488000Y-59900000D01*
X160488000Y-59900000D02*
X164988000Y-59900000D01*
X164988000Y-55200000D02*
X160488000Y-55200000D01*
X164988000Y-55800000D02*
X164988000Y-55200000D01*
X164988000Y-59900000D02*
X164988000Y-59400000D01*
X158988000Y-57700000D02*
G75*
G02*
X160488000Y-59200000I0J-1500000D01*
G01*
X160488000Y-55200000D02*
G75*
G02*
X159988000Y-54700000I0J500000D01*
G01*
%TO.C,SW8*%
X83852000Y-74850000D02*
X84352000Y-74350000D01*
X83852000Y-78350000D02*
X84352000Y-78850000D01*
X84352000Y-74350000D02*
X87352000Y-74350000D01*
X84352000Y-78850000D02*
X86852000Y-78850000D01*
X87352000Y-74350000D02*
X87852000Y-74850000D01*
X87852000Y-75850000D02*
X87852000Y-74850000D01*
X88352000Y-80350000D02*
X88352000Y-81050000D01*
X88352000Y-81050000D02*
X92852000Y-81050000D01*
X92852000Y-76350000D02*
X88352000Y-76350000D01*
X92852000Y-76950000D02*
X92852000Y-76350000D01*
X92852000Y-81050000D02*
X92852000Y-80550000D01*
X86852000Y-78850000D02*
G75*
G02*
X88352000Y-80350000I0J-1500000D01*
G01*
X88352000Y-76350000D02*
G75*
G02*
X87852000Y-75850000I0J500000D01*
G01*
%TO.C,SW9*%
X101870000Y-68310000D02*
X102370000Y-67810000D01*
X101870000Y-71810000D02*
X102370000Y-72310000D01*
X102370000Y-67810000D02*
X105370000Y-67810000D01*
X102370000Y-72310000D02*
X104870000Y-72310000D01*
X105370000Y-67810000D02*
X105870000Y-68310000D01*
X105870000Y-69310000D02*
X105870000Y-68310000D01*
X106370000Y-73810000D02*
X106370000Y-74510000D01*
X106370000Y-74510000D02*
X110870000Y-74510000D01*
X110870000Y-69810000D02*
X106370000Y-69810000D01*
X110870000Y-70410000D02*
X110870000Y-69810000D01*
X110870000Y-74510000D02*
X110870000Y-74010000D01*
X104870000Y-72310000D02*
G75*
G02*
X106370000Y-73810000I0J-1500000D01*
G01*
X106370000Y-69810000D02*
G75*
G02*
X105870000Y-69310000I0J500000D01*
G01*
%TO.C,SW10*%
X119910000Y-65940000D02*
X120410000Y-65440000D01*
X119910000Y-69440000D02*
X120410000Y-69940000D01*
X120410000Y-65440000D02*
X123410000Y-65440000D01*
X120410000Y-69940000D02*
X122910000Y-69940000D01*
X123410000Y-65440000D02*
X123910000Y-65940000D01*
X123910000Y-66940000D02*
X123910000Y-65940000D01*
X124410000Y-71440000D02*
X124410000Y-72140000D01*
X124410000Y-72140000D02*
X128910000Y-72140000D01*
X128910000Y-67440000D02*
X124410000Y-67440000D01*
X128910000Y-68040000D02*
X128910000Y-67440000D01*
X128910000Y-72140000D02*
X128910000Y-71640000D01*
X122910000Y-69940000D02*
G75*
G02*
X124410000Y-71440000I0J-1500000D01*
G01*
X124410000Y-67440000D02*
G75*
G02*
X123910000Y-66940000I0J500000D01*
G01*
%TO.C,SW11*%
X137954000Y-68332000D02*
X138454000Y-67832000D01*
X137954000Y-71832000D02*
X138454000Y-72332000D01*
X138454000Y-67832000D02*
X141454000Y-67832000D01*
X138454000Y-72332000D02*
X140954000Y-72332000D01*
X141454000Y-67832000D02*
X141954000Y-68332000D01*
X141954000Y-69332000D02*
X141954000Y-68332000D01*
X142454000Y-73832000D02*
X142454000Y-74532000D01*
X142454000Y-74532000D02*
X146954000Y-74532000D01*
X146954000Y-69832000D02*
X142454000Y-69832000D01*
X146954000Y-70432000D02*
X146954000Y-69832000D01*
X146954000Y-74532000D02*
X146954000Y-74032000D01*
X140954000Y-72332000D02*
G75*
G02*
X142454000Y-73832000I0J-1500000D01*
G01*
X142454000Y-69832000D02*
G75*
G02*
X141954000Y-69332000I0J500000D01*
G01*
%TO.C,SW12*%
X155940000Y-70740000D02*
X156440000Y-70240000D01*
X155940000Y-74240000D02*
X156440000Y-74740000D01*
X156440000Y-70240000D02*
X159440000Y-70240000D01*
X156440000Y-74740000D02*
X158940000Y-74740000D01*
X159440000Y-70240000D02*
X159940000Y-70740000D01*
X159940000Y-71740000D02*
X159940000Y-70740000D01*
X160440000Y-76240000D02*
X160440000Y-76940000D01*
X160440000Y-76940000D02*
X164940000Y-76940000D01*
X164940000Y-72240000D02*
X160440000Y-72240000D01*
X164940000Y-72840000D02*
X164940000Y-72240000D01*
X164940000Y-76940000D02*
X164940000Y-76440000D01*
X158940000Y-74740000D02*
G75*
G02*
X160440000Y-76240000I0J-1500000D01*
G01*
X160440000Y-72240000D02*
G75*
G02*
X159940000Y-71740000I0J500000D01*
G01*
%TO.C,SW14*%
X83852000Y-91868000D02*
X84352000Y-91368000D01*
X83852000Y-95368000D02*
X84352000Y-95868000D01*
X84352000Y-91368000D02*
X87352000Y-91368000D01*
X84352000Y-95868000D02*
X86852000Y-95868000D01*
X87352000Y-91368000D02*
X87852000Y-91868000D01*
X87852000Y-92868000D02*
X87852000Y-91868000D01*
X88352000Y-97368000D02*
X88352000Y-98068000D01*
X88352000Y-98068000D02*
X92852000Y-98068000D01*
X92852000Y-93368000D02*
X88352000Y-93368000D01*
X92852000Y-93968000D02*
X92852000Y-93368000D01*
X92852000Y-98068000D02*
X92852000Y-97568000D01*
X86852000Y-95868000D02*
G75*
G02*
X88352000Y-97368000I0J-1500000D01*
G01*
X88352000Y-93368000D02*
G75*
G02*
X87852000Y-92868000I0J500000D01*
G01*
%TO.C,SW15*%
X101870000Y-85328000D02*
X102370000Y-84828000D01*
X101870000Y-88828000D02*
X102370000Y-89328000D01*
X102370000Y-84828000D02*
X105370000Y-84828000D01*
X102370000Y-89328000D02*
X104870000Y-89328000D01*
X105370000Y-84828000D02*
X105870000Y-85328000D01*
X105870000Y-86328000D02*
X105870000Y-85328000D01*
X106370000Y-90828000D02*
X106370000Y-91528000D01*
X106370000Y-91528000D02*
X110870000Y-91528000D01*
X110870000Y-86828000D02*
X106370000Y-86828000D01*
X110870000Y-87428000D02*
X110870000Y-86828000D01*
X110870000Y-91528000D02*
X110870000Y-91028000D01*
X104870000Y-89328000D02*
G75*
G02*
X106370000Y-90828000I0J-1500000D01*
G01*
X106370000Y-86828000D02*
G75*
G02*
X105870000Y-86328000I0J500000D01*
G01*
%TO.C,SW16*%
X119910000Y-82958000D02*
X120410000Y-82458000D01*
X119910000Y-86458000D02*
X120410000Y-86958000D01*
X120410000Y-82458000D02*
X123410000Y-82458000D01*
X120410000Y-86958000D02*
X122910000Y-86958000D01*
X123410000Y-82458000D02*
X123910000Y-82958000D01*
X123910000Y-83958000D02*
X123910000Y-82958000D01*
X124410000Y-88458000D02*
X124410000Y-89158000D01*
X124410000Y-89158000D02*
X128910000Y-89158000D01*
X128910000Y-84458000D02*
X124410000Y-84458000D01*
X128910000Y-85058000D02*
X128910000Y-84458000D01*
X128910000Y-89158000D02*
X128910000Y-88658000D01*
X122910000Y-86958000D02*
G75*
G02*
X124410000Y-88458000I0J-1500000D01*
G01*
X124410000Y-84458000D02*
G75*
G02*
X123910000Y-83958000I0J500000D01*
G01*
%TO.C,SW17*%
X137954000Y-85350000D02*
X138454000Y-84850000D01*
X137954000Y-88850000D02*
X138454000Y-89350000D01*
X138454000Y-84850000D02*
X141454000Y-84850000D01*
X138454000Y-89350000D02*
X140954000Y-89350000D01*
X141454000Y-84850000D02*
X141954000Y-85350000D01*
X141954000Y-86350000D02*
X141954000Y-85350000D01*
X142454000Y-90850000D02*
X142454000Y-91550000D01*
X142454000Y-91550000D02*
X146954000Y-91550000D01*
X146954000Y-86850000D02*
X142454000Y-86850000D01*
X146954000Y-87450000D02*
X146954000Y-86850000D01*
X146954000Y-91550000D02*
X146954000Y-91050000D01*
X140954000Y-89350000D02*
G75*
G02*
X142454000Y-90850000I0J-1500000D01*
G01*
X142454000Y-86850000D02*
G75*
G02*
X141954000Y-86350000I0J500000D01*
G01*
%TO.C,SW18*%
X155940000Y-87758000D02*
X156440000Y-87258000D01*
X155940000Y-91258000D02*
X156440000Y-91758000D01*
X156440000Y-87258000D02*
X159440000Y-87258000D01*
X156440000Y-91758000D02*
X158940000Y-91758000D01*
X159440000Y-87258000D02*
X159940000Y-87758000D01*
X159940000Y-88758000D02*
X159940000Y-87758000D01*
X160440000Y-93258000D02*
X160440000Y-93958000D01*
X160440000Y-93958000D02*
X164940000Y-93958000D01*
X164939999Y-89858000D02*
X164940000Y-89257999D01*
X164940000Y-89257999D02*
X160440000Y-89258000D01*
X164940000Y-93958000D02*
X164940000Y-93458000D01*
X158940000Y-91758000D02*
G75*
G02*
X160440000Y-93258000I0J-1500000D01*
G01*
X160440000Y-89258000D02*
G75*
G02*
X159940000Y-88758000I0J500000D01*
G01*
%TO.C,SW20*%
X151842220Y-109986511D02*
X152195774Y-110598884D01*
X152195774Y-110598884D02*
X154610588Y-111245931D01*
X152748087Y-106605771D02*
X153360459Y-106252218D01*
X153360459Y-106252218D02*
X156258237Y-107028675D01*
X155490075Y-113759197D02*
X159836741Y-114923884D01*
X155671247Y-113083050D02*
X155490075Y-113759197D01*
X156258237Y-107028675D02*
X156611790Y-107641046D01*
X156352971Y-108606973D02*
X156611790Y-107641046D01*
X159836741Y-114923884D02*
X159966151Y-114440920D01*
X160897899Y-110963587D02*
X161053191Y-110384031D01*
X161053191Y-110384031D02*
X156706525Y-109219345D01*
X154610588Y-111245931D02*
G75*
G02*
X155671247Y-113083050I-388223J-1448885D01*
G01*
X156706525Y-109219345D02*
G75*
G02*
X156352972Y-108606973I129409J482962D01*
G01*
%TO.C,SW21*%
X170337949Y-117873144D02*
X170520962Y-118556157D01*
X170520962Y-118556157D02*
X172686025Y-119806157D01*
X172087949Y-114842055D02*
X172770962Y-114659043D01*
X172770962Y-114659043D02*
X175369038Y-116159043D01*
X172885064Y-122461412D02*
X176782178Y-124711413D01*
X173235064Y-121855195D02*
X172885064Y-122461412D01*
X175052051Y-117708081D02*
X175552051Y-116842055D01*
X175369038Y-116159043D02*
X175552051Y-116842055D01*
X176782178Y-124711413D02*
X177032178Y-124278400D01*
X178832178Y-121160709D02*
X179132178Y-120641093D01*
X179132178Y-120641093D02*
X175235063Y-118391093D01*
X172686025Y-119806157D02*
G75*
G02*
X173235063Y-121855195I-750000J-1299038D01*
G01*
X175235063Y-118391093D02*
G75*
G02*
X175052051Y-117708081I250001J433012D01*
G01*
%TO.C,SW19*%
X132570000Y-103590000D02*
X133070000Y-103090000D01*
X132570000Y-107090000D02*
X133070000Y-107590000D01*
X133070000Y-103090000D02*
X136070000Y-103090000D01*
X133070000Y-107590000D02*
X135570000Y-107590000D01*
X136070000Y-103090000D02*
X136570000Y-103590000D01*
X136570000Y-104590000D02*
X136570000Y-103590000D01*
X137070000Y-109090000D02*
X137070000Y-109790000D01*
X137070000Y-109790000D02*
X141570000Y-109790000D01*
X141569999Y-105690000D02*
X141570000Y-105089999D01*
X141570000Y-105089999D02*
X137070000Y-105090000D01*
X141570000Y-109790000D02*
X141570000Y-109290000D01*
X135570000Y-107590000D02*
G75*
G02*
X137070000Y-109090000I0J-1500000D01*
G01*
X137070000Y-105090000D02*
G75*
G02*
X136570000Y-104590000I0J500000D01*
G01*
%TD*%
M02*
